<svg width="156" height="12" viewBox="0 0 156 12" fill="none" xmlns="http://www.w3.org/2000/svg">
<path d="M6.11972 3.6L5.81972 6.012H6.95972V6.408H5.77172L5.44772 9H5.08772L5.41172 6.408H2.29172L1.96772 9H1.60772L1.93172 6.408H0.779719V6.012H1.97972L2.27972 3.6H1.03172V3.192H2.32772L2.65172 0.599999H3.01172L2.68772 3.192H5.80772L6.13172 0.599999H6.49172L6.16772 3.192H7.21172V3.6H6.11972ZM5.75972 3.6H2.63972L2.33972 6.012H5.45972L5.75972 3.6ZM9.12047 0.599999H9.57647V4.572H14.3765V0.599999H14.8325V9H14.3765V4.992H9.57647V9H9.12047V0.599999ZM18.9967 9.12C18.3087 9.12 17.7847 8.904 17.4247 8.472C17.0647 8.032 16.8847 7.392 16.8847 6.552V3H17.3407V6.624C17.3407 8.016 17.8927 8.712 18.9967 8.712C19.3887 8.712 19.7447 8.608 20.0647 8.4C20.3847 8.184 20.6327 7.892 20.8087 7.524C20.9927 7.156 21.0847 6.744 21.0847 6.288V3H21.5407V7.932C21.5407 8.292 21.5767 8.648 21.6487 9H21.2647C21.1927 8.656 21.1527 8.244 21.1447 7.764H21.0967C20.8967 8.196 20.6127 8.532 20.2447 8.772C19.8767 9.004 19.4607 9.12 18.9967 9.12ZM23.4354 4.44C23.4354 3.768 23.4234 3.288 23.3994 3H23.8194C23.8354 3.192 23.8434 3.552 23.8434 4.08H23.8674C24.0754 3.704 24.3434 3.412 24.6714 3.204C25.0074 2.988 25.3794 2.88 25.7874 2.88C26.2354 2.88 26.6194 3.008 26.9394 3.264C27.2594 3.512 27.4634 3.856 27.5514 4.296C27.7034 3.872 27.9634 3.532 28.3314 3.276C28.7074 3.012 29.1234 2.88 29.5794 2.88C30.2274 2.88 30.7314 3.092 31.0914 3.516C31.4594 3.94 31.6434 4.532 31.6434 5.292V9H31.1874V5.268C31.1874 4.628 31.0434 4.14 30.7554 3.804C30.4674 3.46 30.0594 3.288 29.5314 3.288C29.2114 3.288 28.9154 3.376 28.6434 3.552C28.3714 3.728 28.1554 3.968 27.9954 4.272C27.8434 4.576 27.7674 4.912 27.7674 5.28V9H27.3114V5.4C27.3114 3.992 26.7994 3.288 25.7754 3.288C25.4314 3.288 25.1154 3.384 24.8274 3.576C24.5394 3.768 24.3114 4.024 24.1434 4.344C23.9754 4.656 23.8914 4.98 23.8914 5.316V9H23.4354V4.44ZM35.159 9.12C34.567 9.12 34.087 8.956 33.719 8.628C33.359 8.3 33.179 7.872 33.179 7.344C33.179 6.76 33.387 6.304 33.803 5.976C34.227 5.64 34.811 5.472 35.555 5.472H37.127V5.1C37.127 4.516 36.979 4.072 36.683 3.768C36.395 3.456 35.971 3.3 35.411 3.3C35.059 3.3 34.735 3.392 34.439 3.576C34.143 3.752 33.911 3.996 33.743 4.308L33.419 3.984C33.627 3.632 33.903 3.36 34.247 3.168C34.599 2.976 35.003 2.88 35.459 2.88C36.123 2.88 36.643 3.064 37.019 3.432C37.395 3.8 37.583 4.308 37.583 4.956V7.944C37.583 8.216 37.627 8.568 37.715 9H37.331C37.275 8.84 37.223 8.512 37.175 8.016H37.151C36.927 8.368 36.643 8.64 36.299 8.832C35.955 9.024 35.575 9.12 35.159 9.12ZM35.087 8.712C35.439 8.712 35.771 8.636 36.083 8.484C36.403 8.332 36.655 8.132 36.839 7.884C37.031 7.628 37.127 7.36 37.127 7.08V5.892H35.519C34.927 5.892 34.463 6.02 34.127 6.276C33.791 6.532 33.623 6.888 33.623 7.344C33.623 7.744 33.759 8.072 34.031 8.328C34.311 8.584 34.663 8.712 35.087 8.712ZM39.4784 4.44C39.4784 3.776 39.4664 3.296 39.4424 3H39.8264C39.8664 3.448 39.8784 3.876 39.8624 4.284H39.9104C40.1024 3.852 40.3904 3.512 40.7744 3.264C41.1664 3.008 41.5864 2.88 42.0344 2.88C42.7304 2.88 43.2544 3.108 43.6064 3.564C43.9584 4.012 44.1344 4.684 44.1344 5.58V9H43.6784V5.568C43.6784 4.048 43.1464 3.288 42.0824 3.288C41.6744 3.288 41.3064 3.396 40.9784 3.612C40.6584 3.82 40.4024 4.112 40.2104 4.488C40.0264 4.864 39.9344 5.28 39.9344 5.736V9H39.4784V4.44ZM45.5514 5.592H48.5754V6.024H45.5514V5.592ZM52.9896 9.12C52.2936 9.12 51.6936 8.948 51.1896 8.604C50.6856 8.26 50.2976 7.764 50.0256 7.116C49.7616 6.468 49.6296 5.696 49.6296 4.8C49.6296 3.92 49.7696 3.156 50.0496 2.508C50.3296 1.852 50.7256 1.352 51.2376 1.008C51.7576 0.656 52.3696 0.48 53.0736 0.48C53.5616 0.48 54.0096 0.579999 54.4176 0.779999C54.8336 0.972 55.1616 1.244 55.4016 1.596L55.1736 1.956C54.9256 1.596 54.6336 1.332 54.2976 1.164C53.9696 0.988 53.5736 0.9 53.1096 0.9C52.1496 0.9 51.4056 1.24 50.8776 1.92C50.3576 2.6 50.0976 3.56 50.0976 4.8C50.0976 6.024 50.3536 6.98 50.8656 7.668C51.3856 8.356 52.1056 8.7 53.0256 8.7C53.4976 8.7 53.9216 8.608 54.2976 8.424C54.6816 8.232 54.9736 7.972 55.1736 7.644L55.4016 8.004C55.1856 8.34 54.8576 8.612 54.4176 8.82C53.9776 9.02 53.5016 9.12 52.9896 9.12ZM58.9973 9.12C58.4613 9.12 57.9893 8.992 57.5813 8.736C57.1733 8.472 56.8533 8.104 56.6213 7.632C56.3973 7.16 56.2853 6.616 56.2853 6C56.2853 5.384 56.3973 4.84 56.6213 4.368C56.8533 3.896 57.1733 3.532 57.5813 3.276C57.9893 3.012 58.4613 2.88 58.9973 2.88C59.5333 2.88 60.0053 3.012 60.4133 3.276C60.8213 3.532 61.1373 3.896 61.3613 4.368C61.5933 4.84 61.7093 5.384 61.7093 6C61.7093 6.616 61.5933 7.16 61.3613 7.632C61.1373 8.104 60.8213 8.472 60.4133 8.736C60.0053 8.992 59.5333 9.12 58.9973 9.12ZM58.9973 8.712C59.4373 8.712 59.8253 8.6 60.1613 8.376C60.5053 8.144 60.7733 7.824 60.9653 7.416C61.1573 7 61.2533 6.528 61.2533 6C61.2533 5.472 61.1573 5.004 60.9653 4.596C60.7733 4.18 60.5053 3.86 60.1613 3.636C59.8253 3.404 59.4373 3.288 58.9973 3.288C58.5573 3.288 58.1653 3.404 57.8213 3.636C57.4853 3.86 57.2213 4.18 57.0293 4.596C56.8373 5.004 56.7413 5.472 56.7413 6C56.7413 6.528 56.8373 7 57.0293 7.416C57.2213 7.824 57.4853 8.144 57.8213 8.376C58.1653 8.6 58.5573 8.712 58.9973 8.712ZM63.1268 4.44C63.1268 3.768 63.1148 3.288 63.0908 3H63.5108C63.5268 3.192 63.5348 3.552 63.5348 4.08H63.5588C63.7668 3.704 64.0348 3.412 64.3628 3.204C64.6988 2.988 65.0708 2.88 65.4788 2.88C65.9268 2.88 66.3108 3.008 66.6308 3.264C66.9508 3.512 67.1548 3.856 67.2428 4.296C67.3948 3.872 67.6548 3.532 68.0228 3.276C68.3988 3.012 68.8148 2.88 69.2708 2.88C69.9188 2.88 70.4228 3.092 70.7828 3.516C71.1508 3.94 71.3348 4.532 71.3348 5.292V9H70.8788V5.268C70.8788 4.628 70.7348 4.14 70.4468 3.804C70.1588 3.46 69.7508 3.288 69.2228 3.288C68.9028 3.288 68.6068 3.376 68.3348 3.552C68.0628 3.728 67.8468 3.968 67.6868 4.272C67.5348 4.576 67.4588 4.912 67.4588 5.28V9H67.0028V5.4C67.0028 3.992 66.4908 3.288 65.4668 3.288C65.1228 3.288 64.8068 3.384 64.5188 3.576C64.2308 3.768 64.0028 4.024 63.8348 4.344C63.6668 4.656 63.5828 4.98 63.5828 5.316V9H63.1268V4.44ZM73.1344 4.44C73.1344 3.824 73.1224 3.344 73.0984 3H73.4944C73.5184 3.272 73.5304 3.652 73.5304 4.14H73.5544C73.6984 3.788 73.9624 3.492 74.3464 3.252C74.7384 3.004 75.1424 2.88 75.5584 2.88C76.3344 2.88 76.9464 3.156 77.3944 3.708C77.8424 4.26 78.0664 5.02 78.0664 5.988C78.0664 6.604 77.9584 7.148 77.7424 7.62C77.5344 8.092 77.2384 8.46 76.8544 8.724C76.4784 8.988 76.0424 9.12 75.5464 9.12C75.1384 9.12 74.7504 9.012 74.3824 8.796C74.0224 8.572 73.7664 8.288 73.6144 7.944H73.5904V11.904H73.1344V4.44ZM75.5704 8.688C75.9704 8.688 76.3224 8.576 76.6264 8.352C76.9384 8.12 77.1784 7.8 77.3464 7.392C77.5224 6.976 77.6104 6.5 77.6104 5.964C77.6104 5.14 77.4264 4.492 77.0584 4.02C76.6984 3.548 76.2024 3.312 75.5704 3.312C75.1944 3.312 74.8544 3.404 74.5504 3.588C74.2464 3.764 74.0104 4.012 73.8424 4.332C73.6744 4.644 73.5904 5 73.5904 5.4V6.348C73.5904 7.076 73.7664 7.648 74.1184 8.064C74.4704 8.48 74.9544 8.688 75.5704 8.688ZM81.5982 9.12C80.9102 9.12 80.3862 8.904 80.0262 8.472C79.6662 8.032 79.4862 7.392 79.4862 6.552V3H79.9422V6.624C79.9422 8.016 80.4942 8.712 81.5982 8.712C81.9902 8.712 82.3462 8.608 82.6662 8.4C82.9862 8.184 83.2342 7.892 83.4102 7.524C83.5942 7.156 83.6862 6.744 83.6862 6.288V3H84.1422V7.932C84.1422 8.292 84.1782 8.648 84.2502 9H83.8662C83.7942 8.656 83.7542 8.244 83.7462 7.764H83.6982C83.4982 8.196 83.2142 8.532 82.8462 8.772C82.4782 9.004 82.0622 9.12 81.5982 9.12ZM87.729 9.12C86.785 9.12 86.313 8.54 86.313 7.38V3.408H85.233V3H86.313V1.344L86.721 1.188H86.769V3H88.449V3.408H86.769V7.236C86.769 7.756 86.841 8.128 86.985 8.352C87.137 8.576 87.385 8.688 87.729 8.688C88.033 8.688 88.281 8.636 88.473 8.532L88.545 8.928C88.289 9.056 88.017 9.12 87.729 9.12ZM94.5805 6.204H90.1045C90.1365 6.988 90.3405 7.604 90.7165 8.052C91.0925 8.492 91.6045 8.712 92.2525 8.712C92.6285 8.712 92.9725 8.628 93.2845 8.46C93.6045 8.284 93.8405 8.052 93.9925 7.764L94.3045 8.076C93.8165 8.772 93.1365 9.12 92.2645 9.12C91.4565 9.12 90.8165 8.844 90.3445 8.292C89.8805 7.732 89.6485 6.972 89.6485 6.012C89.6485 5.036 89.8725 4.272 90.3205 3.72C90.7685 3.16 91.3845 2.88 92.1685 2.88C92.9205 2.88 93.5085 3.14 93.9325 3.66C94.3645 4.172 94.5805 4.884 94.5805 5.796V6.204ZM94.1245 5.676C94.1245 4.956 93.9485 4.38 93.5965 3.948C93.2445 3.508 92.7765 3.288 92.1925 3.288C91.5525 3.288 91.0525 3.508 90.6925 3.948C90.3325 4.38 90.1365 4.996 90.1045 5.796H94.1245V5.676ZM96.0699 4.464C96.0699 3.784 96.0579 3.296 96.0339 3H96.4299C96.4619 3.288 96.4779 3.64 96.4779 4.056V4.26H96.5019C96.6539 3.812 96.8739 3.472 97.1619 3.24C97.4579 3 97.8059 2.88 98.2059 2.88C98.3419 2.88 98.4499 2.892 98.5299 2.916V3.336C98.4339 3.32 98.3219 3.312 98.1939 3.312C97.8739 3.312 97.5859 3.412 97.3299 3.612C97.0819 3.812 96.8859 4.088 96.7419 4.44C96.5979 4.792 96.5259 5.188 96.5259 5.628V9H96.0699V4.464ZM103.122 0.599999H103.578V9H103.122V0.599999ZM105.865 4.44C105.865 3.776 105.853 3.296 105.829 3H106.213C106.253 3.448 106.265 3.876 106.249 4.284H106.297C106.489 3.852 106.777 3.512 107.161 3.264C107.553 3.008 107.973 2.88 108.421 2.88C109.117 2.88 109.641 3.108 109.993 3.564C110.345 4.012 110.521 4.684 110.521 5.58V9H110.065V5.568C110.065 4.048 109.533 3.288 108.469 3.288C108.061 3.288 107.693 3.396 107.365 3.612C107.045 3.82 106.789 4.112 106.597 4.488C106.413 4.864 106.321 5.28 106.321 5.736V9H105.865V4.44ZM114.014 9.12C113.07 9.12 112.598 8.54 112.598 7.38V3.408H111.518V3H112.598V1.344L113.006 1.188H113.054V3H114.734V3.408H113.054V7.236C113.054 7.756 113.126 8.128 113.27 8.352C113.422 8.576 113.67 8.688 114.014 8.688C114.318 8.688 114.566 8.636 114.758 8.532L114.83 8.928C114.574 9.056 114.302 9.12 114.014 9.12ZM120.866 6.204H116.39C116.422 6.988 116.626 7.604 117.002 8.052C117.378 8.492 117.89 8.712 118.538 8.712C118.914 8.712 119.258 8.628 119.57 8.46C119.89 8.284 120.126 8.052 120.278 7.764L120.59 8.076C120.102 8.772 119.422 9.12 118.55 9.12C117.742 9.12 117.102 8.844 116.63 8.292C116.166 7.732 115.934 6.972 115.934 6.012C115.934 5.036 116.158 4.272 116.606 3.72C117.054 3.16 117.67 2.88 118.454 2.88C119.206 2.88 119.794 3.14 120.218 3.66C120.65 4.172 120.866 4.884 120.866 5.796V6.204ZM120.41 5.676C120.41 4.956 120.234 4.38 119.882 3.948C119.53 3.508 119.062 3.288 118.478 3.288C117.838 3.288 117.338 3.508 116.978 3.948C116.618 4.38 116.422 4.996 116.39 5.796H120.41V5.676ZM122.355 4.464C122.355 3.784 122.343 3.296 122.319 3H122.715C122.747 3.288 122.763 3.64 122.763 4.056V4.26H122.787C122.939 3.812 123.159 3.472 123.447 3.24C123.743 3 124.091 2.88 124.491 2.88C124.627 2.88 124.735 2.892 124.815 2.916V3.336C124.719 3.32 124.607 3.312 124.479 3.312C124.159 3.312 123.871 3.412 123.615 3.612C123.367 3.812 123.171 4.088 123.027 4.44C122.883 4.792 122.811 5.188 122.811 5.628V9H122.355V4.464ZM127.596 9.12C127.004 9.12 126.524 8.956 126.156 8.628C125.796 8.3 125.616 7.872 125.616 7.344C125.616 6.76 125.824 6.304 126.24 5.976C126.664 5.64 127.248 5.472 127.992 5.472H129.564V5.1C129.564 4.516 129.416 4.072 129.12 3.768C128.832 3.456 128.408 3.3 127.848 3.3C127.496 3.3 127.172 3.392 126.876 3.576C126.58 3.752 126.348 3.996 126.18 4.308L125.856 3.984C126.064 3.632 126.34 3.36 126.684 3.168C127.036 2.976 127.44 2.88 127.896 2.88C128.56 2.88 129.08 3.064 129.456 3.432C129.832 3.8 130.02 4.308 130.02 4.956V7.944C130.02 8.216 130.064 8.568 130.152 9H129.768C129.712 8.84 129.66 8.512 129.612 8.016H129.588C129.364 8.368 129.08 8.64 128.736 8.832C128.392 9.024 128.012 9.12 127.596 9.12ZM127.524 8.712C127.876 8.712 128.208 8.636 128.52 8.484C128.84 8.332 129.092 8.132 129.276 7.884C129.468 7.628 129.564 7.36 129.564 7.08V5.892H127.956C127.364 5.892 126.9 6.02 126.564 6.276C126.228 6.532 126.06 6.888 126.06 7.344C126.06 7.744 126.196 8.072 126.468 8.328C126.748 8.584 127.1 8.712 127.524 8.712ZM134.148 9.12C133.324 9.12 132.68 8.848 132.216 8.304C131.76 7.752 131.532 6.984 131.532 6C131.532 5.024 131.764 4.26 132.228 3.708C132.692 3.156 133.332 2.88 134.148 2.88C134.596 2.88 134.992 2.972 135.336 3.156C135.688 3.332 135.98 3.596 136.212 3.948L135.936 4.236C135.744 3.94 135.488 3.708 135.168 3.54C134.856 3.372 134.512 3.288 134.136 3.288C133.464 3.288 132.936 3.528 132.552 4.008C132.176 4.488 131.988 5.152 131.988 6C131.988 6.848 132.176 7.512 132.552 7.992C132.936 8.472 133.464 8.712 134.136 8.712C134.512 8.712 134.856 8.632 135.168 8.472C135.488 8.304 135.744 8.068 135.936 7.764L136.212 8.052C135.98 8.404 135.688 8.672 135.336 8.856C134.992 9.032 134.596 9.12 134.148 9.12ZM139.081 9.12C138.137 9.12 137.665 8.54 137.665 7.38V3.408H136.585V3H137.665V1.344L138.073 1.188H138.121V3H139.801V3.408H138.121V7.236C138.121 7.756 138.193 8.128 138.337 8.352C138.489 8.576 138.737 8.688 139.081 8.688C139.385 8.688 139.633 8.636 139.825 8.532L139.897 8.928C139.641 9.056 139.369 9.12 139.081 9.12ZM141.804 1.584C141.668 1.584 141.556 1.54 141.468 1.452C141.388 1.356 141.348 1.236 141.348 1.092C141.348 0.947999 141.388 0.832 141.468 0.744C141.556 0.648 141.668 0.599999 141.804 0.599999C141.94 0.599999 142.048 0.648 142.128 0.744C142.216 0.832 142.26 0.947999 142.26 1.092C142.26 1.236 142.216 1.356 142.128 1.452C142.048 1.54 141.94 1.584 141.804 1.584ZM141.576 3H142.032V9H141.576V3ZM146.325 9.12C145.789 9.12 145.317 8.992 144.909 8.736C144.501 8.472 144.181 8.104 143.949 7.632C143.725 7.16 143.613 6.616 143.613 6C143.613 5.384 143.725 4.84 143.949 4.368C144.181 3.896 144.501 3.532 144.909 3.276C145.317 3.012 145.789 2.88 146.325 2.88C146.861 2.88 147.333 3.012 147.741 3.276C148.149 3.532 148.465 3.896 148.689 4.368C148.921 4.84 149.037 5.384 149.037 6C149.037 6.616 148.921 7.16 148.689 7.632C148.465 8.104 148.149 8.472 147.741 8.736C147.333 8.992 146.861 9.12 146.325 9.12ZM146.325 8.712C146.765 8.712 147.153 8.6 147.489 8.376C147.833 8.144 148.101 7.824 148.293 7.416C148.485 7 148.581 6.528 148.581 6C148.581 5.472 148.485 5.004 148.293 4.596C148.101 4.18 147.833 3.86 147.489 3.636C147.153 3.404 146.765 3.288 146.325 3.288C145.885 3.288 145.493 3.404 145.149 3.636C144.813 3.86 144.549 4.18 144.357 4.596C144.165 5.004 144.069 5.472 144.069 6C144.069 6.528 144.165 7 144.357 7.416C144.549 7.824 144.813 8.144 145.149 8.376C145.493 8.6 145.885 8.712 146.325 8.712ZM150.455 4.44C150.455 3.776 150.443 3.296 150.419 3H150.803C150.843 3.448 150.855 3.876 150.839 4.284H150.887C151.079 3.852 151.367 3.512 151.751 3.264C152.143 3.008 152.563 2.88 153.011 2.88C153.707 2.88 154.231 3.108 154.583 3.564C154.935 4.012 155.111 4.684 155.111 5.58V9H154.655V5.568C154.655 4.048 154.123 3.288 153.059 3.288C152.651 3.288 152.283 3.396 151.955 3.612C151.635 3.82 151.379 4.112 151.187 4.488C151.003 4.864 150.911 5.28 150.911 5.736V9H150.455V4.44Z" fill="black"/>
</svg>
