<svg width="110" height="10" viewBox="0 0 110 10" fill="none" xmlns="http://www.w3.org/2000/svg">
<path d="M6.24472 3.6L5.94472 6.012H7.08472V6.408H5.89672L5.57272 9H5.21272L5.53672 6.408H2.41672L2.09272 9H1.73272L2.05672 6.408H0.904719V6.012H2.10472L2.40472 3.6H1.15672V3.192H2.45272L2.77672 0.599999H3.13672L2.81272 3.192H5.93272L6.25672 0.599999H6.61672L6.29272 3.192H7.33672V3.6H6.24472ZM5.88472 3.6H2.76472L2.46472 6.012H5.58472L5.88472 3.6ZM9.25747 0.599999H11.3935C12.2495 0.599999 12.8975 0.803999 13.3375 1.212C13.7775 1.62 13.9975 2.216 13.9975 3C13.9975 3.824 13.7655 4.464 13.3015 4.92C12.8375 5.376 12.1815 5.604 11.3335 5.604H9.71347V9H9.25747V0.599999ZM11.4775 5.184C12.1335 5.184 12.6415 4.992 13.0015 4.608C13.3615 4.224 13.5415 3.688 13.5415 3C13.5415 1.68 12.8215 1.02 11.3815 1.02H9.71347V5.184H11.4775ZM20.2212 6.204H15.7452C15.7772 6.988 15.9812 7.604 16.3572 8.052C16.7332 8.492 17.2452 8.712 17.8932 8.712C18.2692 8.712 18.6132 8.628 18.9252 8.46C19.2452 8.284 19.4812 8.052 19.6332 7.764L19.9452 8.076C19.4572 8.772 18.7772 9.12 17.9052 9.12C17.0972 9.12 16.4572 8.844 15.9852 8.292C15.5212 7.732 15.2892 6.972 15.2892 6.012C15.2892 5.036 15.5132 4.272 15.9612 3.72C16.4092 3.16 17.0252 2.88 17.8092 2.88C18.5612 2.88 19.1492 3.14 19.5732 3.66C20.0052 4.172 20.2212 4.884 20.2212 5.796V6.204ZM19.7652 5.676C19.7652 4.956 19.5892 4.38 19.2372 3.948C18.8852 3.508 18.4172 3.288 17.8332 3.288C17.1932 3.288 16.6932 3.508 16.3332 3.948C15.9732 4.38 15.7772 4.996 15.7452 5.796H19.7652V5.676ZM21.7106 4.464C21.7106 3.784 21.6986 3.296 21.6746 3H22.0706C22.1026 3.288 22.1186 3.64 22.1186 4.056V4.26H22.1426C22.2946 3.812 22.5146 3.472 22.8026 3.24C23.0986 3 23.4466 2.88 23.8466 2.88C23.9826 2.88 24.0906 2.892 24.1706 2.916V3.336C24.0746 3.32 23.9626 3.312 23.8346 3.312C23.5146 3.312 23.2266 3.412 22.9706 3.612C22.7226 3.812 22.5266 4.088 22.3826 4.44C22.2386 4.792 22.1666 5.188 22.1666 5.628V9H21.7106V4.464ZM26.6039 9.12C26.2279 9.12 25.8799 9.04 25.5599 8.88C25.2399 8.72 25.0079 8.512 24.8639 8.256L25.1999 8.016C25.4959 8.48 25.9839 8.712 26.6639 8.712C27.0799 8.712 27.4159 8.588 27.6719 8.34C27.9359 8.092 28.0679 7.772 28.0679 7.38C28.0679 7.06 27.9599 6.792 27.7439 6.576C27.5359 6.36 27.1839 6.156 26.6879 5.964C26.0479 5.716 25.5999 5.468 25.3439 5.22C25.0959 4.964 24.9719 4.652 24.9719 4.284C24.9719 3.86 25.1319 3.52 25.4519 3.264C25.7719 3.008 26.1959 2.88 26.7239 2.88C27.0679 2.88 27.3839 2.964 27.6719 3.132C27.9679 3.3 28.1799 3.52 28.3079 3.792L27.9719 4.02C27.6999 3.532 27.2799 3.288 26.7119 3.288C26.3359 3.288 26.0279 3.38 25.7879 3.564C25.5479 3.748 25.4279 3.984 25.4279 4.272C25.4279 4.544 25.5359 4.772 25.7519 4.956C25.9759 5.14 26.3839 5.348 26.9759 5.58C27.5279 5.796 27.9279 6.048 28.1759 6.336C28.4239 6.624 28.5479 6.976 28.5479 7.392C28.5479 7.912 28.3679 8.332 28.0079 8.652C27.6559 8.964 27.1879 9.12 26.6039 9.12ZM32.2863 9.12C31.7503 9.12 31.2783 8.992 30.8703 8.736C30.4623 8.472 30.1423 8.104 29.9103 7.632C29.6863 7.16 29.5743 6.616 29.5743 6C29.5743 5.384 29.6863 4.84 29.9103 4.368C30.1423 3.896 30.4623 3.532 30.8703 3.276C31.2783 3.012 31.7503 2.88 32.2863 2.88C32.8223 2.88 33.2943 3.012 33.7023 3.276C34.1103 3.532 34.4263 3.896 34.6503 4.368C34.8823 4.84 34.9983 5.384 34.9983 6C34.9983 6.616 34.8823 7.16 34.6503 7.632C34.4263 8.104 34.1103 8.472 33.7023 8.736C33.2943 8.992 32.8223 9.12 32.2863 9.12ZM32.2863 8.712C32.7263 8.712 33.1143 8.6 33.4503 8.376C33.7943 8.144 34.0623 7.824 34.2543 7.416C34.4463 7 34.5423 6.528 34.5423 6C34.5423 5.472 34.4463 5.004 34.2543 4.596C34.0623 4.18 33.7943 3.86 33.4503 3.636C33.1143 3.404 32.7263 3.288 32.2863 3.288C31.8463 3.288 31.4543 3.404 31.1103 3.636C30.7743 3.86 30.5103 4.18 30.3183 4.596C30.1263 5.004 30.0303 5.472 30.0303 6C30.0303 6.528 30.1263 7 30.3183 7.416C30.5103 7.824 30.7743 8.144 31.1103 8.376C31.4543 8.6 31.8463 8.712 32.2863 8.712ZM36.4159 4.44C36.4159 3.776 36.4039 3.296 36.3799 3H36.7639C36.8039 3.448 36.8159 3.876 36.7999 4.284H36.8479C37.0399 3.852 37.3279 3.512 37.7119 3.264C38.1039 3.008 38.5239 2.88 38.9719 2.88C39.6679 2.88 40.1919 3.108 40.5439 3.564C40.8959 4.012 41.0719 4.684 41.0719 5.58V9H40.6159V5.568C40.6159 4.048 40.0839 3.288 39.0199 3.288C38.6119 3.288 38.2439 3.396 37.9159 3.612C37.5959 3.82 37.3399 4.112 37.1479 4.488C36.9639 4.864 36.8719 5.28 36.8719 5.736V9H36.4159V4.44ZM44.5769 9.12C43.9849 9.12 43.5049 8.956 43.1369 8.628C42.7769 8.3 42.5969 7.872 42.5969 7.344C42.5969 6.76 42.8049 6.304 43.2209 5.976C43.6449 5.64 44.2289 5.472 44.9729 5.472H46.5449V5.1C46.5449 4.516 46.3969 4.072 46.1009 3.768C45.8129 3.456 45.3889 3.3 44.8289 3.3C44.4769 3.3 44.1529 3.392 43.8569 3.576C43.5609 3.752 43.3289 3.996 43.1609 4.308L42.8369 3.984C43.0449 3.632 43.3209 3.36 43.6649 3.168C44.0169 2.976 44.4209 2.88 44.8769 2.88C45.5409 2.88 46.0609 3.064 46.4369 3.432C46.8129 3.8 47.0009 4.308 47.0009 4.956V7.944C47.0009 8.216 47.0449 8.568 47.1329 9H46.7489C46.6929 8.84 46.6409 8.512 46.5929 8.016H46.5689C46.3449 8.368 46.0609 8.64 45.7169 8.832C45.3729 9.024 44.9929 9.12 44.5769 9.12ZM44.5049 8.712C44.8569 8.712 45.1889 8.636 45.5009 8.484C45.8209 8.332 46.0729 8.132 46.2569 7.884C46.4489 7.628 46.5449 7.36 46.5449 7.08V5.892H44.9369C44.3449 5.892 43.8809 6.02 43.5449 6.276C43.2089 6.532 43.0409 6.888 43.0409 7.344C43.0409 7.744 43.1769 8.072 43.4489 8.328C43.7289 8.584 44.0809 8.712 44.5049 8.712ZM50.0364 9.12C49.6924 9.12 49.4364 9.004 49.2684 8.772C49.1004 8.532 49.0164 8.168 49.0164 7.68V0.0959995H49.4724V7.668C49.4724 8.068 49.5204 8.344 49.6164 8.496C49.7124 8.64 49.8844 8.712 50.1324 8.712C50.3004 8.712 50.4804 8.676 50.6724 8.604L50.7684 8.94C50.5284 9.06 50.2844 9.12 50.0364 9.12ZM55.8214 0.599999H56.2774V9H55.8214V0.599999ZM58.5643 4.44C58.5643 3.776 58.5523 3.296 58.5283 3H58.9123C58.9523 3.448 58.9643 3.876 58.9483 4.284H58.9963C59.1883 3.852 59.4763 3.512 59.8603 3.264C60.2523 3.008 60.6723 2.88 61.1203 2.88C61.8163 2.88 62.3403 3.108 62.6923 3.564C63.0443 4.012 63.2203 4.684 63.2203 5.58V9H62.7643V5.568C62.7643 4.048 62.2323 3.288 61.1683 3.288C60.7603 3.288 60.3923 3.396 60.0643 3.612C59.7443 3.82 59.4883 4.112 59.2963 4.488C59.1123 4.864 59.0203 5.28 59.0203 5.736V9H58.5643V4.44ZM65.2014 3.408H64.1934V3H65.2014V2.136C65.2014 1.6 65.3454 1.176 65.6334 0.864C65.9294 0.552 66.3134 0.396 66.7854 0.396C67.0014 0.396 67.2014 0.424 67.3854 0.48C67.5774 0.536 67.7214 0.608 67.8174 0.696L67.6374 1.008C67.4374 0.872 67.1614 0.804 66.8094 0.804C66.4414 0.804 66.1574 0.916 65.9574 1.14C65.7574 1.364 65.6574 1.688 65.6574 2.112V3H67.4334V3.408H65.6574V9H65.2014V3.408ZM70.2902 9.12C69.7542 9.12 69.2822 8.992 68.8742 8.736C68.4662 8.472 68.1462 8.104 67.9142 7.632C67.6902 7.16 67.5782 6.616 67.5782 6C67.5782 5.384 67.6902 4.84 67.9142 4.368C68.1462 3.896 68.4662 3.532 68.8742 3.276C69.2822 3.012 69.7542 2.88 70.2902 2.88C70.8262 2.88 71.2982 3.012 71.7062 3.276C72.1142 3.532 72.4302 3.896 72.6542 4.368C72.8862 4.84 73.0022 5.384 73.0022 6C73.0022 6.616 72.8862 7.16 72.6542 7.632C72.4302 8.104 72.1142 8.472 71.7062 8.736C71.2982 8.992 70.8262 9.12 70.2902 9.12ZM70.2902 8.712C70.7302 8.712 71.1182 8.6 71.4542 8.376C71.7982 8.144 72.0662 7.824 72.2582 7.416C72.4502 7 72.5462 6.528 72.5462 6C72.5462 5.472 72.4502 5.004 72.2582 4.596C72.0662 4.18 71.7982 3.86 71.4542 3.636C71.1182 3.404 70.7302 3.288 70.2902 3.288C69.8502 3.288 69.4582 3.404 69.1142 3.636C68.7782 3.86 68.5142 4.18 68.3222 4.596C68.1302 5.004 68.0342 5.472 68.0342 6C68.0342 6.528 68.1302 7 68.3222 7.416C68.5142 7.824 68.7782 8.144 69.1142 8.376C69.4582 8.6 69.8502 8.712 70.2902 8.712ZM74.4918 4.464C74.4918 3.784 74.4798 3.296 74.4558 3H74.8518C74.8838 3.288 74.8998 3.64 74.8998 4.056V4.26H74.9238C75.0758 3.812 75.2958 3.472 75.5838 3.24C75.8798 3 76.2278 2.88 76.6278 2.88C76.7638 2.88 76.8718 2.892 76.9518 2.916V3.336C76.8558 3.32 76.7438 3.312 76.6158 3.312C76.2958 3.312 76.0078 3.412 75.7518 3.612C75.5038 3.812 75.3078 4.088 75.1638 4.44C75.0198 4.792 74.9478 5.188 74.9478 5.628V9H74.4918V4.464ZM78.0292 4.44C78.0292 3.768 78.0172 3.288 77.9932 3H78.4132C78.4292 3.192 78.4372 3.552 78.4372 4.08H78.4612C78.6692 3.704 78.9372 3.412 79.2652 3.204C79.6012 2.988 79.9732 2.88 80.3812 2.88C80.8292 2.88 81.2132 3.008 81.5332 3.264C81.8532 3.512 82.0572 3.856 82.1452 4.296C82.2972 3.872 82.5572 3.532 82.9252 3.276C83.3012 3.012 83.7172 2.88 84.1732 2.88C84.8212 2.88 85.3252 3.092 85.6852 3.516C86.0532 3.94 86.2372 4.532 86.2372 5.292V9H85.7812V5.268C85.7812 4.628 85.6372 4.14 85.3492 3.804C85.0612 3.46 84.6532 3.288 84.1252 3.288C83.8052 3.288 83.5092 3.376 83.2372 3.552C82.9652 3.728 82.7492 3.968 82.5892 4.272C82.4372 4.576 82.3612 4.912 82.3612 5.28V9H81.9052V5.4C81.9052 3.992 81.3932 3.288 80.3692 3.288C80.0252 3.288 79.7092 3.384 79.4212 3.576C79.1332 3.768 78.9052 4.024 78.7372 4.344C78.5692 4.656 78.4852 4.98 78.4852 5.316V9H78.0292V4.44ZM89.7527 9.12C89.1607 9.12 88.6807 8.956 88.3127 8.628C87.9527 8.3 87.7727 7.872 87.7727 7.344C87.7727 6.76 87.9807 6.304 88.3967 5.976C88.8207 5.64 89.4047 5.472 90.1487 5.472H91.7207V5.1C91.7207 4.516 91.5727 4.072 91.2767 3.768C90.9887 3.456 90.5647 3.3 90.0047 3.3C89.6527 3.3 89.3287 3.392 89.0327 3.576C88.7367 3.752 88.5047 3.996 88.3367 4.308L88.0127 3.984C88.2207 3.632 88.4967 3.36 88.8407 3.168C89.1927 2.976 89.5967 2.88 90.0527 2.88C90.7167 2.88 91.2367 3.064 91.6127 3.432C91.9887 3.8 92.1767 4.308 92.1767 4.956V7.944C92.1767 8.216 92.2207 8.568 92.3087 9H91.9247C91.8687 8.84 91.8167 8.512 91.7687 8.016H91.7447C91.5207 8.368 91.2367 8.64 90.8927 8.832C90.5487 9.024 90.1687 9.12 89.7527 9.12ZM89.6807 8.712C90.0327 8.712 90.3647 8.636 90.6767 8.484C90.9967 8.332 91.2487 8.132 91.4327 7.884C91.6247 7.628 91.7207 7.36 91.7207 7.08V5.892H90.1127C89.5207 5.892 89.0567 6.02 88.7207 6.276C88.3847 6.532 88.2167 6.888 88.2167 7.344C88.2167 7.744 88.3527 8.072 88.6247 8.328C88.9047 8.584 89.2567 8.712 89.6807 8.712ZM95.7642 9.12C94.8202 9.12 94.3482 8.54 94.3482 7.38V3.408H93.2682V3H94.3482V1.344L94.7562 1.188H94.8042V3H96.4842V3.408H94.8042V7.236C94.8042 7.756 94.8762 8.128 95.0202 8.352C95.1722 8.576 95.4202 8.688 95.7642 8.688C96.0682 8.688 96.3162 8.636 96.5082 8.532L96.5802 8.928C96.3242 9.056 96.0522 9.12 95.7642 9.12ZM98.4877 1.584C98.3517 1.584 98.2397 1.54 98.1517 1.452C98.0717 1.356 98.0317 1.236 98.0317 1.092C98.0317 0.947999 98.0717 0.832 98.1517 0.744C98.2397 0.648 98.3517 0.599999 98.4877 0.599999C98.6237 0.599999 98.7317 0.648 98.8117 0.744C98.8997 0.832 98.9437 0.947999 98.9437 1.092C98.9437 1.236 98.8997 1.356 98.8117 1.452C98.7317 1.54 98.6237 1.584 98.4877 1.584ZM98.2597 3H98.7157V9H98.2597V3ZM102.937 9.12C102.113 9.12 101.469 8.848 101.005 8.304C100.549 7.752 100.321 6.984 100.321 6C100.321 5.024 100.553 4.26 101.017 3.708C101.481 3.156 102.121 2.88 102.937 2.88C103.385 2.88 103.781 2.972 104.125 3.156C104.477 3.332 104.769 3.596 105.001 3.948L104.725 4.236C104.533 3.94 104.277 3.708 103.957 3.54C103.645 3.372 103.301 3.288 102.925 3.288C102.253 3.288 101.725 3.528 101.341 4.008C100.965 4.488 100.777 5.152 100.777 6C100.777 6.848 100.965 7.512 101.341 7.992C101.725 8.472 102.253 8.712 102.925 8.712C103.301 8.712 103.645 8.632 103.957 8.472C104.277 8.304 104.533 8.068 104.725 7.764L105.001 8.052C104.769 8.404 104.477 8.672 104.125 8.856C103.781 9.032 103.385 9.12 102.937 9.12ZM107.534 9.12C107.158 9.12 106.81 9.04 106.49 8.88C106.17 8.72 105.938 8.512 105.794 8.256L106.13 8.016C106.426 8.48 106.914 8.712 107.594 8.712C108.01 8.712 108.346 8.588 108.602 8.34C108.866 8.092 108.998 7.772 108.998 7.38C108.998 7.06 108.89 6.792 108.674 6.576C108.466 6.36 108.114 6.156 107.618 5.964C106.978 5.716 106.53 5.468 106.274 5.22C106.026 4.964 105.902 4.652 105.902 4.284C105.902 3.86 106.062 3.52 106.382 3.264C106.702 3.008 107.126 2.88 107.654 2.88C107.998 2.88 108.314 2.964 108.602 3.132C108.898 3.3 109.11 3.52 109.238 3.792L108.902 4.02C108.63 3.532 108.21 3.288 107.642 3.288C107.266 3.288 106.958 3.38 106.718 3.564C106.478 3.748 106.358 3.984 106.358 4.272C106.358 4.544 106.466 4.772 106.682 4.956C106.906 5.14 107.314 5.348 107.906 5.58C108.458 5.796 108.858 6.048 109.106 6.336C109.354 6.624 109.478 6.976 109.478 7.392C109.478 7.912 109.298 8.332 108.938 8.652C108.586 8.964 108.118 9.12 107.534 9.12Z" fill="black"/>
</svg>
