<svg width="927" height="30" viewBox="0 0 927 30" fill="none" xmlns="http://www.w3.org/2000/svg">
<path d="M0.972 10.744V0.568H3.744V1.48H2.16V9.82H3.744V10.744H0.972ZM4.33931 9.496L7.31531 1.276H8.56331L11.5153 9.496H10.2193L9.42731 7.264H6.28331L5.50331 9.496H4.33931ZM7.81931 2.836L6.61931 6.28H9.06731L7.85531 2.836H7.81931ZM14.9484 9.604C13.1964 9.604 12.0804 8.608 12.0804 6.58V6.376C12.0804 4.24 13.3644 3.256 15.0204 3.256C15.8244 3.256 16.2924 3.412 16.7004 3.652V4.624C16.1604 4.396 15.7884 4.252 15.0084 4.252C13.9644 4.252 13.3044 4.936 13.3044 6.22V6.532C13.3044 8.008 13.9284 8.632 15.1284 8.632C15.9084 8.632 16.4484 8.38 16.7724 8.224V9.124C16.3644 9.388 15.8004 9.604 14.9484 9.604ZM20.3859 9.604C18.6339 9.604 17.5179 8.608 17.5179 6.58V6.376C17.5179 4.24 18.8019 3.256 20.4579 3.256C21.2619 3.256 21.7299 3.412 22.1379 3.652V4.624C21.5979 4.396 21.2259 4.252 20.4459 4.252C19.4019 4.252 18.7419 4.936 18.7419 6.22V6.532C18.7419 8.008 19.3659 8.632 20.5659 8.632C21.3459 8.632 21.8859 8.38 22.2099 8.224V9.124C21.8019 9.388 21.2379 9.604 20.3859 9.604ZM25.9194 9.604C23.9394 9.604 22.9554 8.428 22.9554 6.508V6.352C22.9554 4.252 24.2154 3.256 25.6914 3.256C27.4194 3.256 28.2234 4.252 28.2234 6.184V6.76H24.1674C24.2514 8.164 24.9354 8.632 26.1354 8.632C26.9394 8.632 27.4674 8.44 28.0314 8.188V9.016C27.6474 9.292 26.9394 9.604 25.9194 9.604ZM25.6434 4.192C24.9954 4.192 24.2634 4.528 24.1674 5.896H26.9874C26.9874 4.66 26.5314 4.192 25.6434 4.192ZM29.4209 11.296V3.376H30.5609V3.868H30.6089C30.9809 3.52 31.6169 3.256 32.3609 3.256C33.6929 3.256 34.8569 3.988 34.8569 6.244V6.412C34.8569 8.68 33.7769 9.532 32.0969 9.532C31.4129 9.532 30.9209 9.352 30.5969 9.172V11.296H29.4209ZM31.9529 8.608C33.0089 8.608 33.6209 8.128 33.6209 6.568V6.316C33.6209 4.72 33.0449 4.252 32.0129 4.252C31.3649 4.252 30.8489 4.456 30.5969 4.648V8.224C30.8489 8.416 31.3649 8.608 31.9529 8.608ZM38.1169 9.556C37.0969 9.556 36.4249 9.136 36.4249 8.02V4.324H35.5609V3.376H36.4249V1.936H37.6129V3.376H39.0889V4.324H37.6129V7.852C37.6129 8.404 37.7929 8.608 38.4529 8.608C38.7049 8.608 38.9689 8.572 39.2089 8.536V9.328C38.9569 9.436 38.6809 9.556 38.1169 9.556ZM42.9702 9.604C40.9902 9.604 40.0062 8.428 40.0062 6.508V6.352C40.0062 4.252 41.2662 3.256 42.7422 3.256C44.4702 3.256 45.2742 4.252 45.2742 6.184V6.76H41.2182C41.3022 8.164 41.9862 8.632 43.1862 8.632C43.9902 8.632 44.5182 8.44 45.0822 8.188V9.016C44.6982 9.292 43.9902 9.604 42.9702 9.604ZM42.6942 4.192C42.0462 4.192 41.3142 4.528 41.2182 5.896H44.0382C44.0382 4.66 43.5822 4.192 42.6942 4.192ZM48.6437 9.604C47.4557 9.604 46.1477 8.86 46.1477 6.628V6.472C46.1477 4.228 47.2877 3.256 48.8597 3.256C49.6037 3.256 50.0957 3.46 50.3837 3.628V0.736H51.5717V9.496H50.5637L50.4557 9.004H50.3957C50.0357 9.364 49.4477 9.604 48.6437 9.604ZM49.0517 8.668C49.6877 8.668 50.1317 8.404 50.3837 8.212V4.576C50.1437 4.372 49.6157 4.24 49.0397 4.24C47.9957 4.24 47.3597 4.768 47.3597 6.328V6.58C47.3597 8.188 48.0437 8.668 49.0517 8.668ZM58.596 9.64C57.852 9.64 56.832 9.508 56.292 9.316V0.736H57.468V3.772H57.528C57.996 3.484 58.56 3.256 59.376 3.256C60.504 3.256 61.728 3.952 61.728 6.232V6.4C61.728 8.476 60.648 9.64 58.596 9.64ZM58.68 8.692C59.64 8.692 60.492 8.236 60.492 6.58V6.328C60.492 4.756 59.964 4.252 58.8 4.252C58.26 4.252 57.744 4.444 57.468 4.576V8.488C57.72 8.584 58.092 8.692 58.68 8.692ZM63.452 11.284C63.164 11.284 62.804 11.2 62.636 11.116V10.288C62.78 10.336 63.008 10.36 63.212 10.36C63.788 10.36 64.22 10.312 64.4 9.844L64.664 9.16L62.324 3.376H63.584L65.252 7.66H65.276L66.812 3.376H67.964L65.504 10.012C65.084 11.164 64.532 11.284 63.452 11.284ZM75.4372 9.628C73.2052 9.628 71.7892 8.284 71.7892 5.5V5.212C71.7892 2.248 73.5052 1.132 75.5932 1.132C76.4812 1.132 77.1412 1.312 77.6452 1.576V2.584C76.9852 2.344 76.3972 2.164 75.6052 2.164C74.1532 2.164 73.1212 3.004 73.1212 5.044V5.488C73.1212 7.444 73.8292 8.596 75.6412 8.596C76.6132 8.596 77.2252 8.344 77.7412 8.104V9.112C77.1652 9.436 76.4092 9.628 75.4372 9.628ZM80.9603 9.64C79.9163 9.64 79.1243 9.412 78.5603 9.1V8.092C79.1963 8.392 80.0003 8.608 80.8763 8.608C82.0403 8.608 82.5323 8.092 82.5323 7.276C82.5323 6.556 82.2083 6.244 81.2723 5.944L80.4683 5.68C79.3403 5.332 78.6443 4.732 78.6443 3.4C78.6443 2.068 79.5323 1.132 81.2963 1.132C82.3403 1.132 82.9163 1.36 83.3723 1.588V2.596C82.8683 2.38 82.1963 2.164 81.2963 2.164C80.3843 2.164 79.8683 2.56 79.8683 3.292C79.8683 4 80.1203 4.312 80.9723 4.576L81.7883 4.828C83.0243 5.224 83.8043 5.764 83.8043 7.18C83.8043 8.68 82.9163 9.64 80.9603 9.64ZM88.4215 9.628C86.1895 9.628 84.7735 8.284 84.7735 5.5V5.212C84.7735 2.248 86.4895 1.132 88.5775 1.132C89.4655 1.132 90.1255 1.312 90.6295 1.576V2.584C89.9695 2.344 89.3815 2.164 88.5895 2.164C87.1375 2.164 86.1055 3.004 86.1055 5.044V5.488C86.1055 7.444 86.8135 8.596 88.6255 8.596C89.5975 8.596 90.2095 8.344 90.7255 8.104V9.112C90.1495 9.436 89.3935 9.628 88.4215 9.628ZM93.4527 9.496L91.3887 1.276H92.6487L94.1247 7.624H94.1607L95.9487 1.276H96.9807L98.7327 7.624H98.7567L100.257 1.276H101.385L99.3447 9.496H98.1447L96.4407 3.268H96.4047L94.6527 9.496H93.4527ZM105.461 9.496V8.764L107.189 6.964C108.317 5.776 109.181 4.816 109.181 3.736C109.181 2.704 108.641 2.26 107.561 2.26C106.949 2.26 106.277 2.56 105.821 2.86L105.569 1.912C106.097 1.588 106.925 1.24 107.849 1.24C109.577 1.24 110.489 2.128 110.489 3.592C110.489 5.02 109.397 6.172 108.245 7.384L107.141 8.488H110.597V9.496H105.461ZM114.957 9.64C113.229 9.64 111.873 8.512 111.873 5.74V5.164C111.873 2.26 113.325 1.24 114.981 1.24C116.625 1.24 118.005 2.272 118.005 5.116V5.728C118.005 8.548 116.649 9.64 114.957 9.64ZM114.957 8.656C116.121 8.656 116.721 7.852 116.721 5.848V5.104C116.721 3.124 116.121 2.224 114.969 2.224C113.805 2.224 113.193 3.088 113.193 5.032V5.776C113.193 7.732 113.793 8.656 114.957 8.656ZM119.301 9.496V8.764L121.029 6.964C122.157 5.776 123.021 4.816 123.021 3.736C123.021 2.704 122.481 2.26 121.401 2.26C120.789 2.26 120.117 2.56 119.661 2.86L119.409 1.912C119.937 1.588 120.765 1.24 121.689 1.24C123.417 1.24 124.329 2.128 124.329 3.592C124.329 5.02 123.237 6.172 122.085 7.384L120.981 8.488H124.437V9.496H119.301ZM127.883 9.616C126.911 9.616 126.059 9.352 125.603 9.04L125.831 8.116C126.263 8.392 127.067 8.608 127.679 8.608C128.891 8.608 129.551 8.092 129.551 7.144C129.551 6.196 128.855 5.776 127.739 5.764L126.947 5.752V4.804L127.655 4.792C128.651 4.78 129.287 4.3 129.287 3.484C129.287 2.584 128.711 2.26 127.775 2.26C127.151 2.26 126.539 2.512 126.047 2.752L125.891 1.804C126.395 1.492 127.319 1.24 128.087 1.24C129.575 1.24 130.559 1.972 130.559 3.268C130.559 4.252 129.971 4.864 129.059 5.176C130.091 5.38 130.847 5.956 130.847 7.192C130.847 8.656 129.707 9.616 127.883 9.616ZM131.929 10.744V9.82H133.525V1.48H131.929V0.568H134.713V10.744H131.929ZM139.78 9.496V1.276H144.772V2.308H141.016V4.756H143.932V5.776H141.016V8.464H144.82V9.496H139.78ZM147.468 9.496L145.224 3.376H146.496L148.092 8.02H148.128L149.748 3.376H150.9L148.668 9.496H147.468ZM153.207 9.604C152.103 9.604 151.311 9.052 151.311 7.864C151.311 6.772 152.031 6.232 153.219 6.076L154.755 5.896V5.368C154.755 4.456 154.371 4.252 153.291 4.252C152.691 4.252 152.187 4.348 151.815 4.432V3.604C152.379 3.376 153.003 3.256 153.759 3.256C155.139 3.256 155.943 3.832 155.943 5.068V9.496H154.971L154.863 8.98H154.791C154.503 9.34 153.999 9.604 153.207 9.604ZM153.519 8.74C154.023 8.74 154.515 8.572 154.755 8.344V6.712L153.483 6.844C152.835 6.916 152.511 7.18 152.511 7.816C152.511 8.44 152.907 8.74 153.519 8.74ZM157.483 9.496V3.376H158.623V3.904H158.671C159.187 3.544 159.979 3.256 160.723 3.256C161.911 3.256 162.487 3.748 162.487 4.936V9.496H161.299V5.212C161.299 4.54 161.107 4.264 160.183 4.264C159.667 4.264 159.079 4.444 158.659 4.648V9.496H157.483ZM165.654 9.592C164.862 9.592 164.154 9.46 163.662 9.16V8.272C164.166 8.464 164.622 8.656 165.486 8.656C166.362 8.656 166.746 8.356 166.746 7.84C166.746 7.372 166.518 7.144 165.774 6.976L165.21 6.82C164.298 6.604 163.674 6.16 163.674 5.08C163.674 3.988 164.37 3.256 165.858 3.256C166.698 3.256 167.214 3.436 167.574 3.616V4.528C167.25 4.396 166.626 4.228 165.954 4.228C165.186 4.228 164.802 4.456 164.802 4.984C164.802 5.452 165.042 5.632 165.654 5.8L166.23 5.944C167.43 6.232 167.91 6.664 167.91 7.756C167.91 8.968 167.046 9.592 165.654 9.592ZM169.048 11.032L169.228 8.356H170.572L170.044 11.032H169.048ZM175.44 9.496V1.276H176.676V4.744H180.444V1.276H181.692V9.496H180.444V5.764H176.676V9.496H175.44ZM183.488 9.628V8.332H184.808V9.628H183.488ZM186.644 9.496V1.276H187.892V9.496H186.644ZM189.723 9.628V8.332H191.043V9.628H189.723ZM192.603 11.032L192.783 8.356H194.127L193.599 11.032H192.603ZM198.995 9.496V1.276H201.563C203.387 1.276 204.359 2.068 204.359 3.652C204.359 4.816 203.771 5.428 202.823 5.788V5.848L204.923 9.496H203.543L201.623 6.076H200.231V9.496H198.995ZM200.231 5.164H201.443C202.595 5.164 203.063 4.684 203.063 3.688C203.063 2.692 202.571 2.284 201.431 2.284H200.231V5.164ZM206.432 11.284C206.144 11.284 205.784 11.2 205.616 11.116V10.288C205.76 10.336 205.988 10.36 206.192 10.36C206.768 10.36 207.2 10.312 207.38 9.844L207.644 9.16L205.304 3.376H206.564L208.232 7.66H208.256L209.792 3.376H210.944L208.484 10.012C208.064 11.164 207.512 11.284 206.432 11.284ZM213.729 9.604C212.529 9.604 211.869 9.004 211.869 7.816V3.376H213.057V7.612C213.057 8.332 213.297 8.608 214.125 8.608C214.725 8.608 215.205 8.404 215.625 8.212V3.376H216.801V9.496H215.793L215.673 8.968H215.613C215.109 9.328 214.497 9.604 213.729 9.604ZM218.314 11.032L218.494 8.356H219.838L219.31 11.032H218.314ZM224.706 9.496V1.276H226.494L228.642 7.828H228.678L230.826 1.276H232.59V9.496H231.354V2.86H231.33L229.122 9.496H228.03L225.858 2.86H225.81V9.496H224.706ZM234.406 9.628V8.332H235.726V9.628H234.406ZM237.286 11.032L237.466 8.356H238.81L238.282 11.032H237.286ZM243.679 9.496V1.276H244.915V4.744H248.683V1.276H249.931V9.496H248.683V5.764H244.915V9.496H243.679ZM253.299 9.592C252.507 9.592 251.799 9.46 251.307 9.16V8.272C251.811 8.464 252.267 8.656 253.131 8.656C254.007 8.656 254.391 8.356 254.391 7.84C254.391 7.372 254.163 7.144 253.419 6.976L252.855 6.82C251.943 6.604 251.319 6.16 251.319 5.08C251.319 3.988 252.015 3.256 253.503 3.256C254.343 3.256 254.859 3.436 255.219 3.616V4.528C254.895 4.396 254.271 4.228 253.599 4.228C252.831 4.228 252.447 4.456 252.447 4.984C252.447 5.452 252.687 5.632 253.299 5.8L253.875 5.944C255.075 6.232 255.555 6.664 255.555 7.756C255.555 8.968 254.691 9.592 253.299 9.592ZM256.801 9.496V3.376H257.977V9.496H256.801ZM256.789 2.236V1.084H257.989V2.236H256.789ZM262.216 9.604C260.236 9.604 259.252 8.428 259.252 6.508V6.352C259.252 4.252 260.512 3.256 261.988 3.256C263.716 3.256 264.52 4.252 264.52 6.184V6.76H260.464C260.548 8.164 261.232 8.632 262.432 8.632C263.236 8.632 263.764 8.44 264.328 8.188V9.016C263.944 9.292 263.236 9.604 262.216 9.604ZM261.94 4.192C261.292 4.192 260.56 4.528 260.464 5.896H263.284C263.284 4.66 262.828 4.192 261.94 4.192ZM265.718 9.496V0.736H266.894V3.88H266.954C267.458 3.532 268.214 3.256 268.958 3.256C270.146 3.256 270.722 3.748 270.722 4.936V9.496H269.534V5.212C269.534 4.54 269.342 4.264 268.418 4.264C267.902 4.264 267.314 4.444 266.894 4.648V9.496H265.718ZM277.317 9.496V2.308H274.905V1.276H280.941V2.308H278.553V9.496H277.317ZM282.055 9.628V8.332H283.375V9.628H282.055ZM284.935 11.032L285.115 8.356H286.459L285.931 11.032H284.935ZM290.775 9.496V8.572L295.071 2.344V2.308H291.075V1.276H296.547V2.188L292.239 8.428V8.464H296.415V9.496H290.775ZM297.722 9.496V0.736H298.898V3.88H298.958C299.462 3.532 300.218 3.256 300.962 3.256C302.15 3.256 302.726 3.748 302.726 4.936V9.496H301.538V5.212C301.538 4.54 301.346 4.264 300.422 4.264C299.906 4.264 299.318 4.444 298.898 4.648V9.496H297.722ZM306.756 9.604C304.944 9.604 303.912 8.476 303.912 6.568V6.364C303.912 4.42 305.064 3.256 306.768 3.256C308.544 3.256 309.588 4.396 309.588 6.328V6.508C309.588 8.452 308.424 9.604 306.756 9.604ZM306.768 8.68C307.764 8.68 308.352 7.972 308.352 6.628V6.304C308.352 4.684 307.632 4.204 306.744 4.204C305.712 4.204 305.124 4.912 305.124 6.256V6.58C305.124 8.2 305.856 8.68 306.768 8.68ZM312.624 9.604C311.424 9.604 310.764 9.004 310.764 7.816V3.376H311.952V7.612C311.952 8.332 312.192 8.608 313.02 8.608C313.62 8.608 314.1 8.404 314.52 8.212V3.376H315.696V9.496H314.688L314.568 8.968H314.508C314.004 9.328 313.392 9.604 312.624 9.604ZM317.208 11.032L317.388 8.356H318.732L318.204 11.032H317.208ZM324.621 9.568C323.901 9.568 323.457 9.472 323.025 9.256V8.284C323.373 8.404 323.841 8.548 324.429 8.548C325.305 8.548 325.677 8.08 325.677 7.252V1.276H326.937V7.324C326.937 8.584 326.241 9.568 324.621 9.568ZM328.672 9.628V8.332H329.992V9.628H328.672ZM331.552 11.032L331.732 8.356H333.076L332.548 11.032H331.552ZM337.236 9.496L339.624 5.344L337.416 1.432H339.9L341.292 3.988H341.34L342.636 1.432H344.856L342.672 5.284L345.024 9.496H342.54L341.028 6.748H340.98L339.456 9.496H337.236ZM347.601 9.604C346.425 9.604 345.717 9.076 345.717 7.816V3.316H347.745V7.384C347.745 7.876 347.961 8.056 348.501 8.056C348.861 8.056 349.173 7.948 349.437 7.84V3.316H351.465V9.496H349.665L349.533 8.956H349.473C348.921 9.376 348.381 9.604 347.601 9.604ZM352.15 11.26L352.666 8.716H354.682L353.722 11.26H352.15ZM359.034 9.496V1.432H361.29V5.14L363.822 1.432H366.102L363.462 5.236L366.27 9.496H363.75L361.29 5.788V9.496H359.034ZM366.926 9.808V7.996H368.894V9.808H366.926ZM370.142 11.032L370.322 8.356H371.666L371.138 11.032H370.142ZM375.718 9.496L378.694 1.276H379.942L382.894 9.496H381.598L380.806 7.264H377.662L376.882 9.496H375.718ZM379.198 2.836L377.998 6.28H380.446L379.234 2.836H379.198ZM383.819 9.496V0.736H384.995V9.496H383.819ZM387.455 9.496L385.103 6.328L387.359 3.376H388.619L386.375 6.256L388.787 9.496H387.455ZM392.376 9.604C390.396 9.604 389.412 8.428 389.412 6.508V6.352C389.412 4.252 390.672 3.256 392.148 3.256C393.876 3.256 394.68 4.252 394.68 6.184V6.76H390.624C390.708 8.164 391.392 8.632 392.592 8.632C393.396 8.632 393.924 8.44 394.488 8.188V9.016C394.104 9.292 393.396 9.604 392.376 9.604ZM392.1 4.192C391.452 4.192 390.72 4.528 390.624 5.896H393.444C393.444 4.66 392.988 4.192 392.1 4.192ZM395.878 9.496V3.376H397.018V4.06H397.066C397.426 3.652 398.05 3.304 398.71 3.304C398.854 3.304 399.034 3.316 399.094 3.352V4.408C398.938 4.384 398.734 4.372 398.614 4.372C398.038 4.372 397.474 4.54 397.054 4.816V9.496H395.878ZM401.728 9.592C400.936 9.592 400.228 9.46 399.736 9.16V8.272C400.24 8.464 400.696 8.656 401.56 8.656C402.436 8.656 402.82 8.356 402.82 7.84C402.82 7.372 402.592 7.144 401.848 6.976L401.284 6.82C400.372 6.604 399.748 6.16 399.748 5.08C399.748 3.988 400.444 3.256 401.932 3.256C402.772 3.256 403.288 3.436 403.648 3.616V4.528C403.324 4.396 402.7 4.228 402.028 4.228C401.26 4.228 400.876 4.456 400.876 4.984C400.876 5.452 401.116 5.632 401.728 5.8L402.304 5.944C403.504 6.232 403.984 6.664 403.984 7.756C403.984 8.968 403.12 9.592 401.728 9.592ZM405.122 11.032L405.302 8.356H406.646L406.118 11.032H405.122ZM416.147 9.496L412.979 5.308L416.123 1.276H417.419L414.383 5.188L417.599 9.496H416.147ZM411.515 9.496V1.276H412.751V9.496H411.515ZM418.625 9.628V8.332H419.945V9.628H418.625ZM423.101 9.496L421.037 1.276H422.297L423.773 7.624H423.809L425.597 1.276H426.629L428.381 7.624H428.405L429.905 1.276H431.033L428.993 9.496H427.793L426.089 3.268H426.053L424.301 9.496H423.101ZM432.125 9.628V8.332H433.445V9.628H432.125ZM435.005 11.032L435.185 8.356H436.529L436.001 11.032H435.005ZM443.246 9.64C442.201 9.64 441.41 9.412 440.846 9.1V8.092C441.482 8.392 442.286 8.608 443.162 8.608C444.326 8.608 444.818 8.092 444.818 7.276C444.818 6.556 444.494 6.244 443.558 5.944L442.754 5.68C441.626 5.332 440.93 4.732 440.93 3.4C440.93 2.068 441.818 1.132 443.582 1.132C444.626 1.132 445.202 1.36 445.658 1.588V2.596C445.154 2.38 444.482 2.164 443.582 2.164C442.67 2.164 442.154 2.56 442.154 3.292C442.154 4 442.406 4.312 443.258 4.576L444.074 4.828C445.31 5.224 446.09 5.764 446.09 7.18C446.09 8.68 445.202 9.64 443.246 9.64ZM447.347 9.496V0.736H448.523V3.88H448.583C449.087 3.532 449.843 3.256 450.587 3.256C451.775 3.256 452.351 3.748 452.351 4.936V9.496H451.163V5.212C451.163 4.54 450.971 4.264 450.047 4.264C449.531 4.264 448.943 4.444 448.523 4.648V9.496H447.347ZM456.501 9.604C454.521 9.604 453.537 8.428 453.537 6.508V6.352C453.537 4.252 454.797 3.256 456.273 3.256C458.001 3.256 458.805 4.252 458.805 6.184V6.76H454.749C454.833 8.164 455.517 8.632 456.717 8.632C457.521 8.632 458.049 8.44 458.613 8.188V9.016C458.229 9.292 457.521 9.604 456.501 9.604ZM456.225 4.192C455.577 4.192 454.845 4.528 454.749 5.896H457.569C457.569 4.66 457.113 4.192 456.225 4.192ZM460.003 9.496V3.376H461.143V4.06H461.191C461.551 3.652 462.175 3.304 462.835 3.304C462.979 3.304 463.159 3.316 463.219 3.352V4.408C463.063 4.384 462.859 4.372 462.739 4.372C462.163 4.372 461.599 4.54 461.179 4.816V9.496H460.003ZM464.233 9.496V3.376H465.373V4.06H465.421C465.781 3.652 466.405 3.304 467.065 3.304C467.209 3.304 467.389 3.316 467.449 3.352V4.408C467.293 4.384 467.089 4.372 466.969 4.372C466.393 4.372 465.829 4.54 465.409 4.816V9.496H464.233ZM468.5 9.496V3.376H469.676V9.496H468.5ZM468.488 2.236V1.084H469.688V2.236H468.488ZM471.348 9.496V0.736H472.524V9.496H471.348ZM474.195 9.496V0.736H475.371V9.496H474.195ZM476.935 11.032L477.115 8.356H478.459L477.931 11.032H476.935ZM482.511 9.496L485.487 1.276H486.735L489.687 9.496H488.391L487.599 7.264H484.455L483.675 9.496H482.511ZM485.991 2.836L484.791 6.28H487.239L486.027 2.836H485.991ZM490.66 9.628V8.332H491.98V9.628H490.66ZM493.78 9.496V1.276H495.568L497.716 7.828H497.752L499.9 1.276H501.664V9.496H500.428V2.86H500.404L498.196 9.496H497.104L494.932 2.86H494.884V9.496H493.78ZM503.481 9.628V8.332H504.801V9.628H503.481ZM511.109 9.604C510.005 9.604 509.213 9.052 509.213 7.864C509.213 6.772 509.933 6.232 511.121 6.076L512.657 5.896V5.368C512.657 4.456 512.273 4.252 511.193 4.252C510.593 4.252 510.089 4.348 509.717 4.432V3.604C510.281 3.376 510.905 3.256 511.661 3.256C513.041 3.256 513.845 3.832 513.845 5.068V9.496H512.873L512.765 8.98H512.693C512.405 9.34 511.901 9.604 511.109 9.604ZM511.421 8.74C511.925 8.74 512.417 8.572 512.657 8.344V6.712L511.385 6.844C510.737 6.916 510.413 7.18 510.413 7.816C510.413 8.44 510.809 8.74 511.421 8.74ZM515.386 9.496V3.376H516.526V3.904H516.574C517.09 3.544 517.882 3.256 518.626 3.256C519.814 3.256 520.39 3.748 520.39 4.936V9.496H519.202V5.212C519.202 4.54 519.01 4.264 518.086 4.264C517.57 4.264 516.982 4.444 516.562 4.648V9.496H515.386ZM524.109 9.604C522.921 9.604 521.613 8.86 521.613 6.628V6.472C521.613 4.228 522.753 3.256 524.325 3.256C525.069 3.256 525.561 3.46 525.849 3.628V0.736H527.037V9.496H526.029L525.921 9.004H525.861C525.501 9.364 524.913 9.604 524.109 9.604ZM524.517 8.668C525.153 8.668 525.597 8.404 525.849 8.212V4.576C525.609 4.372 525.081 4.24 524.505 4.24C523.461 4.24 522.825 4.768 522.825 6.328V6.58C522.825 8.188 523.509 8.668 524.517 8.668ZM531.109 9.496L534.085 1.276H535.333L538.285 9.496H536.989L536.197 7.264H533.053L532.273 9.496H531.109ZM534.589 2.836L533.389 6.28H535.837L534.625 2.836H534.589ZM539.21 9.496V3.376H540.35V4.06H540.398C540.758 3.652 541.382 3.304 542.042 3.304C542.186 3.304 542.366 3.316 542.426 3.352V4.408C542.27 4.384 542.066 4.372 541.946 4.372C541.37 4.372 540.806 4.54 540.386 4.816V9.496H539.21ZM543.44 9.496V3.376H544.58V4.06H544.628C544.988 3.652 545.612 3.304 546.272 3.304C546.416 3.304 546.596 3.316 546.656 3.352V4.408C546.5 4.384 546.296 4.372 546.176 4.372C545.6 4.372 545.036 4.54 544.616 4.816V9.496H543.44ZM547.707 9.496V3.376H548.883V9.496H547.707ZM547.695 2.236V1.084H548.895V2.236H547.695ZM552.043 9.604C550.939 9.604 550.147 9.052 550.147 7.864C550.147 6.772 550.867 6.232 552.055 6.076L553.591 5.896V5.368C553.591 4.456 553.207 4.252 552.127 4.252C551.527 4.252 551.023 4.348 550.651 4.432V3.604C551.215 3.376 551.839 3.256 552.595 3.256C553.975 3.256 554.779 3.832 554.779 5.068V9.496H553.807L553.699 8.98H553.627C553.339 9.34 552.835 9.604 552.043 9.604ZM552.355 8.74C552.859 8.74 553.351 8.572 553.591 8.344V6.712L552.319 6.844C551.671 6.916 551.347 7.18 551.347 7.816C551.347 8.44 551.743 8.74 552.355 8.74ZM558.457 11.272C556.573 11.272 555.661 10.864 555.661 9.952C555.661 9.316 556.177 8.908 556.801 8.692V8.632C556.453 8.512 556.177 8.368 556.177 7.96C556.177 7.528 556.405 7.168 556.885 6.832C556.429 6.52 556.117 6.04 556.117 5.356V5.236C556.117 3.964 557.101 3.256 558.493 3.256C558.829 3.256 559.129 3.292 559.417 3.352H561.493V4.204H560.509C560.725 4.444 560.833 4.78 560.833 5.188V5.308C560.833 6.592 559.813 7.204 558.481 7.204C558.133 7.204 557.797 7.168 557.485 7.072C557.353 7.204 557.257 7.36 557.257 7.516C557.257 7.828 557.425 7.852 557.821 7.852H559.501C560.641 7.852 561.457 8.26 561.457 9.448C561.457 10.576 560.581 11.272 558.457 11.272ZM558.433 10.396C559.765 10.396 560.233 10.216 560.233 9.628C560.233 9.124 559.945 8.92 559.225 8.92H557.581C557.173 9.052 556.873 9.328 556.873 9.784C556.873 10.264 557.317 10.396 558.433 10.396ZM558.481 6.388C559.249 6.388 559.681 6.052 559.681 5.356V5.188C559.681 4.42 559.213 4.096 558.481 4.096C557.737 4.096 557.281 4.468 557.281 5.164V5.332C557.281 6.052 557.761 6.388 558.481 6.388ZM563.961 9.604C562.857 9.604 562.065 9.052 562.065 7.864C562.065 6.772 562.785 6.232 563.973 6.076L565.509 5.896V5.368C565.509 4.456 565.125 4.252 564.045 4.252C563.445 4.252 562.941 4.348 562.569 4.432V3.604C563.133 3.376 563.757 3.256 564.513 3.256C565.893 3.256 566.697 3.832 566.697 5.068V9.496H565.725L565.617 8.98H565.545C565.257 9.34 564.753 9.604 563.961 9.604ZM564.273 8.74C564.777 8.74 565.269 8.572 565.509 8.344V6.712L564.237 6.844C563.589 6.916 563.265 7.18 563.265 7.816C563.265 8.44 563.661 8.74 564.273 8.74ZM568.165 11.032L568.345 8.356H569.689L569.161 11.032H568.165ZM574.558 9.496V1.276H577.126C578.95 1.276 579.922 2.068 579.922 3.652C579.922 4.816 579.334 5.428 578.386 5.788V5.848L580.486 9.496H579.106L577.186 6.076H575.794V9.496H574.558ZM575.794 5.164H577.006C578.158 5.164 578.626 4.684 578.626 3.688C578.626 2.692 578.134 2.284 576.994 2.284H575.794V5.164ZM581.551 9.628V8.332H582.871V9.628H581.551ZM584.707 9.496V1.276H585.955V9.496H584.707ZM587.785 9.628V8.332H589.105V9.628H587.785ZM593.77 9.496V8.764L595.498 6.964C596.626 5.776 597.49 4.816 597.49 3.736C597.49 2.704 596.95 2.26 595.87 2.26C595.258 2.26 594.586 2.56 594.13 2.86L593.878 1.912C594.406 1.588 595.234 1.24 596.158 1.24C597.886 1.24 598.798 2.128 598.798 3.592C598.798 5.02 597.706 6.172 596.554 7.384L595.45 8.488H598.906V9.496H593.77ZM603.265 9.64C601.537 9.64 600.181 8.512 600.181 5.74V5.164C600.181 2.26 601.633 1.24 603.289 1.24C604.933 1.24 606.313 2.272 606.313 5.116V5.728C606.313 8.548 604.957 9.64 603.265 9.64ZM603.265 8.656C604.429 8.656 605.029 7.852 605.029 5.848V5.104C605.029 3.124 604.429 2.224 603.277 2.224C602.113 2.224 601.501 3.088 601.501 5.032V5.776C601.501 7.732 602.101 8.656 603.265 8.656ZM607.61 9.496V8.764L609.338 6.964C610.465 5.776 611.33 4.816 611.33 3.736C611.33 2.704 610.79 2.26 609.71 2.26C609.098 2.26 608.426 2.56 607.97 2.86L607.718 1.912C608.246 1.588 609.074 1.24 609.998 1.24C611.726 1.24 612.638 2.128 612.638 3.592C612.638 5.02 611.546 6.172 610.394 7.384L609.29 8.488H612.746V9.496H607.61ZM616.192 9.616C615.22 9.616 614.368 9.352 613.912 9.04L614.14 8.116C614.572 8.392 615.376 8.608 615.988 8.608C617.2 8.608 617.86 8.092 617.86 7.144C617.86 6.196 617.164 5.776 616.048 5.764L615.256 5.752V4.804L615.964 4.792C616.96 4.78 617.596 4.3 617.596 3.484C617.596 2.584 617.02 2.26 616.084 2.26C615.46 2.26 614.848 2.512 614.356 2.752L614.2 1.804C614.704 1.492 615.628 1.24 616.396 1.24C617.884 1.24 618.868 1.972 618.868 3.268C618.868 4.252 618.28 4.864 617.368 5.176C618.4 5.38 619.156 5.956 619.156 7.192C619.156 8.656 618.016 9.616 616.192 9.616ZM620.621 9.628V8.332H621.941V9.628H620.621ZM629.966 9.64C627.95 9.64 626.822 8.668 626.822 6.628V1.276H628.094V6.556C628.094 8.188 628.754 8.692 630.014 8.692C631.262 8.692 631.862 8.2 631.862 6.544V1.276H632.99V6.592C632.99 8.704 631.994 9.64 629.966 9.64ZM636.326 9.592C635.534 9.592 634.826 9.46 634.334 9.16V8.272C634.838 8.464 635.294 8.656 636.158 8.656C637.034 8.656 637.418 8.356 637.418 7.84C637.418 7.372 637.19 7.144 636.446 6.976L635.882 6.82C634.97 6.604 634.346 6.16 634.346 5.08C634.346 3.988 635.042 3.256 636.53 3.256C637.37 3.256 637.886 3.436 638.246 3.616V4.528C637.922 4.396 637.298 4.228 636.626 4.228C635.858 4.228 635.474 4.456 635.474 4.984C635.474 5.452 635.714 5.632 636.326 5.8L636.902 5.944C638.102 6.232 638.582 6.664 638.582 7.756C638.582 8.968 637.718 9.592 636.326 9.592ZM639.828 9.496V3.376H641.004V9.496H639.828ZM639.816 2.236V1.084H641.016V2.236H639.816ZM642.64 9.496V3.376H643.78V3.904H643.828C644.344 3.544 645.136 3.256 645.88 3.256C647.068 3.256 647.644 3.748 647.644 4.936V9.496H646.456V5.212C646.456 4.54 646.264 4.264 645.34 4.264C644.824 4.264 644.236 4.444 643.816 4.648V9.496H642.64ZM651.386 11.272C649.502 11.272 648.59 10.864 648.59 9.952C648.59 9.316 649.106 8.908 649.73 8.692V8.632C649.382 8.512 649.106 8.368 649.106 7.96C649.106 7.528 649.334 7.168 649.814 6.832C649.358 6.52 649.046 6.04 649.046 5.356V5.236C649.046 3.964 650.03 3.256 651.422 3.256C651.758 3.256 652.058 3.292 652.346 3.352H654.422V4.204H653.438C653.654 4.444 653.762 4.78 653.762 5.188V5.308C653.762 6.592 652.742 7.204 651.41 7.204C651.062 7.204 650.726 7.168 650.414 7.072C650.282 7.204 650.186 7.36 650.186 7.516C650.186 7.828 650.354 7.852 650.75 7.852H652.43C653.57 7.852 654.386 8.26 654.386 9.448C654.386 10.576 653.51 11.272 651.386 11.272ZM651.362 10.396C652.694 10.396 653.162 10.216 653.162 9.628C653.162 9.124 652.874 8.92 652.154 8.92H650.51C650.102 9.052 649.802 9.328 649.802 9.784C649.802 10.264 650.246 10.396 651.362 10.396ZM651.41 6.388C652.178 6.388 652.61 6.052 652.61 5.356V5.188C652.61 4.42 652.142 4.096 651.41 4.096C650.666 4.096 650.21 4.468 650.21 5.164V5.332C650.21 6.052 650.69 6.388 651.41 6.388ZM660.535 9.64C659.491 9.64 658.699 9.412 658.135 9.1V8.092C658.771 8.392 659.575 8.608 660.451 8.608C661.615 8.608 662.107 8.092 662.107 7.276C662.107 6.556 661.783 6.244 660.847 5.944L660.043 5.68C658.915 5.332 658.219 4.732 658.219 3.4C658.219 2.068 659.107 1.132 660.871 1.132C661.915 1.132 662.491 1.36 662.947 1.588V2.596C662.443 2.38 661.771 2.164 660.871 2.164C659.959 2.164 659.443 2.56 659.443 3.292C659.443 4 659.695 4.312 660.547 4.576L661.363 4.828C662.599 5.224 663.379 5.764 663.379 7.18C663.379 8.68 662.491 9.64 660.535 9.64ZM667.24 9.604C665.26 9.604 664.276 8.428 664.276 6.508V6.352C664.276 4.252 665.536 3.256 667.012 3.256C668.74 3.256 669.544 4.252 669.544 6.184V6.76H665.488C665.572 8.164 666.256 8.632 667.456 8.632C668.26 8.632 668.788 8.44 669.352 8.188V9.016C668.968 9.292 668.26 9.604 667.24 9.604ZM666.964 4.192C666.316 4.192 665.584 4.528 665.488 5.896H668.308C668.308 4.66 667.852 4.192 666.964 4.192ZM670.741 9.496V3.376H671.881V3.904H671.929C672.445 3.544 673.237 3.256 673.981 3.256C675.169 3.256 675.745 3.748 675.745 4.936V9.496H674.557V5.212C674.557 4.54 674.365 4.264 673.441 4.264C672.925 4.264 672.337 4.444 671.917 4.648V9.496H670.741ZM678.912 9.592C678.12 9.592 677.412 9.46 676.92 9.16V8.272C677.424 8.464 677.88 8.656 678.744 8.656C679.62 8.656 680.004 8.356 680.004 7.84C680.004 7.372 679.776 7.144 679.032 6.976L678.468 6.82C677.556 6.604 676.932 6.16 676.932 5.08C676.932 3.988 677.628 3.256 679.116 3.256C679.956 3.256 680.472 3.436 680.832 3.616V4.528C680.508 4.396 679.884 4.228 679.212 4.228C678.444 4.228 678.06 4.456 678.06 4.984C678.06 5.452 678.3 5.632 678.912 5.8L679.488 5.944C680.688 6.232 681.168 6.664 681.168 7.756C681.168 8.968 680.304 9.592 678.912 9.592ZM684.862 9.604C683.05 9.604 682.018 8.476 682.018 6.568V6.364C682.018 4.42 683.17 3.256 684.874 3.256C686.65 3.256 687.694 4.396 687.694 6.328V6.508C687.694 8.452 686.53 9.604 684.862 9.604ZM684.874 8.68C685.87 8.68 686.458 7.972 686.458 6.628V6.304C686.458 4.684 685.738 4.204 684.85 4.204C683.818 4.204 683.23 4.912 683.23 6.256V6.58C683.23 8.2 683.962 8.68 684.874 8.68ZM688.905 9.496V3.376H690.045V4.06H690.093C690.453 3.652 691.077 3.304 691.737 3.304C691.881 3.304 692.061 3.316 692.121 3.352V4.408C691.965 4.384 691.761 4.372 691.641 4.372C691.065 4.372 690.501 4.54 690.081 4.816V9.496H688.905ZM692.613 6.04V5.02H696.189V6.04H692.613ZM700.914 9.628C698.682 9.628 697.266 8.284 697.266 5.5V5.212C697.266 2.248 698.982 1.132 701.07 1.132C701.958 1.132 702.618 1.312 703.122 1.576V2.584C702.462 2.344 701.874 2.164 701.082 2.164C699.63 2.164 698.598 3.004 698.598 5.044V5.488C698.598 7.444 699.306 8.596 701.118 8.596C702.09 8.596 702.702 8.344 703.218 8.104V9.112C702.642 9.436 701.886 9.628 700.914 9.628ZM705.945 9.604C704.841 9.604 704.049 9.052 704.049 7.864C704.049 6.772 704.769 6.232 705.957 6.076L707.493 5.896V5.368C707.493 4.456 707.109 4.252 706.029 4.252C705.429 4.252 704.925 4.348 704.553 4.432V3.604C705.117 3.376 705.741 3.256 706.497 3.256C707.877 3.256 708.681 3.832 708.681 5.068V9.496H707.709L707.601 8.98H707.529C707.241 9.34 706.737 9.604 705.945 9.604ZM706.257 8.74C706.761 8.74 707.253 8.572 707.493 8.344V6.712L706.221 6.844C705.573 6.916 705.249 7.18 705.249 7.816C705.249 8.44 705.645 8.74 706.257 8.74ZM710.222 11.296V3.376H711.362V3.868H711.41C711.782 3.52 712.418 3.256 713.162 3.256C714.494 3.256 715.658 3.988 715.658 6.244V6.412C715.658 8.68 714.578 9.532 712.898 9.532C712.214 9.532 711.722 9.352 711.398 9.172V11.296H710.222ZM712.754 8.608C713.81 8.608 714.422 8.128 714.422 6.568V6.316C714.422 4.72 713.846 4.252 712.814 4.252C712.166 4.252 711.65 4.456 711.398 4.648V8.224C711.65 8.416 712.166 8.608 712.754 8.608ZM718.918 9.556C717.898 9.556 717.226 9.136 717.226 8.02V4.324H716.362V3.376H717.226V1.936H718.414V3.376H719.89V4.324H718.414V7.852C718.414 8.404 718.594 8.608 719.254 8.608C719.506 8.608 719.77 8.572 720.01 8.536V9.328C719.758 9.436 719.482 9.556 718.918 9.556ZM722.991 9.604C721.791 9.604 721.131 9.004 721.131 7.816V3.376H722.319V7.612C722.319 8.332 722.559 8.608 723.387 8.608C723.987 8.608 724.467 8.404 724.887 8.212V3.376H726.063V9.496H725.055L724.935 8.968H724.875C724.371 9.328 723.759 9.604 722.991 9.604ZM727.647 9.496V3.376H728.787V4.06H728.835C729.195 3.652 729.819 3.304 730.479 3.304C730.623 3.304 730.803 3.316 730.863 3.352V4.408C730.707 4.384 730.503 4.372 730.383 4.372C729.807 4.372 729.243 4.54 728.823 4.816V9.496H727.647ZM734.482 9.604C732.502 9.604 731.518 8.428 731.518 6.508V6.352C731.518 4.252 732.778 3.256 734.254 3.256C735.982 3.256 736.786 4.252 736.786 6.184V6.76H732.73C732.814 8.164 733.498 8.632 734.698 8.632C735.502 8.632 736.03 8.44 736.594 8.188V9.016C736.21 9.292 735.502 9.604 734.482 9.604ZM734.206 4.192C733.558 4.192 732.826 4.528 732.73 5.896H735.55C735.55 4.66 735.094 4.192 734.206 4.192ZM740.155 9.604C738.967 9.604 737.659 8.86 737.659 6.628V6.472C737.659 4.228 738.799 3.256 740.371 3.256C741.115 3.256 741.607 3.46 741.895 3.628V0.736H743.083V9.496H742.075L741.967 9.004H741.907C741.547 9.364 740.959 9.604 740.155 9.604ZM740.563 8.668C741.199 8.668 741.643 8.404 741.895 8.212V4.576C741.655 4.372 741.127 4.24 740.551 4.24C739.507 4.24 738.871 4.768 738.871 6.328V6.58C738.871 8.188 739.555 8.668 740.563 8.668ZM747.972 9.496V1.276H750.684C752.568 1.276 753.492 2.164 753.492 3.748C753.492 5.44 752.412 6.328 750.792 6.328H749.208V9.496H747.972ZM749.208 5.356H750.552C751.74 5.356 752.184 4.852 752.184 3.844C752.184 2.728 751.752 2.284 750.576 2.284H749.208V5.356ZM756.043 9.604C754.939 9.604 754.147 9.052 754.147 7.864C754.147 6.772 754.867 6.232 756.055 6.076L757.591 5.896V5.368C757.591 4.456 757.207 4.252 756.127 4.252C755.527 4.252 755.023 4.348 754.651 4.432V3.604C755.215 3.376 755.839 3.256 756.595 3.256C757.975 3.256 758.779 3.832 758.779 5.068V9.496H757.807L757.699 8.98H757.627C757.339 9.34 756.835 9.604 756.043 9.604ZM756.355 8.74C756.859 8.74 757.351 8.572 757.591 8.344V6.712L756.319 6.844C755.671 6.916 755.347 7.18 755.347 7.816C755.347 8.44 755.743 8.74 756.355 8.74ZM762.347 9.556C761.327 9.556 760.655 9.136 760.655 8.02V4.324H759.791V3.376H760.655V1.936H761.843V3.376H763.319V4.324H761.843V7.852C761.843 8.404 762.023 8.608 762.683 8.608C762.935 8.608 763.199 8.572 763.439 8.536V9.328C763.187 9.436 762.911 9.556 762.347 9.556ZM764.633 9.496V3.376H765.809V9.496H764.633ZM764.621 2.236V1.084H765.821V2.236H764.621ZM770.048 9.604C768.068 9.604 767.084 8.428 767.084 6.508V6.352C767.084 4.252 768.344 3.256 769.82 3.256C771.548 3.256 772.352 4.252 772.352 6.184V6.76H768.296C768.38 8.164 769.064 8.632 770.264 8.632C771.068 8.632 771.596 8.44 772.16 8.188V9.016C771.776 9.292 771.068 9.604 770.048 9.604ZM769.772 4.192C769.124 4.192 768.392 4.528 768.296 5.896H771.116C771.116 4.66 770.66 4.192 769.772 4.192ZM773.55 9.496V3.376H774.69V3.904H774.738C775.254 3.544 776.046 3.256 776.79 3.256C777.978 3.256 778.554 3.748 778.554 4.936V9.496H777.366V5.212C777.366 4.54 777.174 4.264 776.25 4.264C775.734 4.264 775.146 4.444 774.726 4.648V9.496H773.55ZM782.129 9.556C781.109 9.556 780.437 9.136 780.437 8.02V4.324H779.573V3.376H780.437V1.936H781.625V3.376H783.101V4.324H781.625V7.852C781.625 8.404 781.805 8.608 782.465 8.608C782.717 8.608 782.981 8.572 783.221 8.536V9.328C782.969 9.436 782.693 9.556 782.129 9.556ZM783.855 6.04V5.02H787.431V6.04H783.855ZM792.384 9.628C790.032 9.628 788.508 8.416 788.508 5.56V5.32C788.508 2.176 790.392 1.132 792.468 1.132C793.512 1.132 794.184 1.372 794.676 1.624V2.656C794.172 2.44 793.548 2.164 792.444 2.164C790.464 2.164 789.828 3.592 789.828 5.164V5.548C789.828 7.324 790.344 8.608 792.396 8.608C792.912 8.608 793.452 8.536 793.776 8.404V6.388H792.144V5.404H795.012V9.136C794.376 9.4 793.464 9.628 792.384 9.628ZM799.099 9.604C797.119 9.604 796.135 8.428 796.135 6.508V6.352C796.135 4.252 797.395 3.256 798.871 3.256C800.599 3.256 801.403 4.252 801.403 6.184V6.76H797.347C797.431 8.164 798.115 8.632 799.315 8.632C800.119 8.632 800.647 8.44 801.211 8.188V9.016C800.827 9.292 800.119 9.604 799.099 9.604ZM798.823 4.192C798.175 4.192 797.443 4.528 797.347 5.896H800.167C800.167 4.66 799.711 4.192 798.823 4.192ZM802.601 9.496V3.376H803.741V3.904H803.789C804.305 3.544 805.097 3.256 805.841 3.256C807.029 3.256 807.605 3.748 807.605 4.936V9.496H806.417V5.212C806.417 4.54 806.225 4.264 805.301 4.264C804.785 4.264 804.197 4.444 803.777 4.648V9.496H802.601ZM811.755 9.604C809.775 9.604 808.791 8.428 808.791 6.508V6.352C808.791 4.252 810.051 3.256 811.527 3.256C813.255 3.256 814.059 4.252 814.059 6.184V6.76H810.003C810.087 8.164 810.771 8.632 811.971 8.632C812.775 8.632 813.303 8.44 813.867 8.188V9.016C813.483 9.292 812.775 9.604 811.755 9.604ZM811.479 4.192C810.831 4.192 810.099 4.528 810.003 5.896H812.823C812.823 4.66 812.367 4.192 811.479 4.192ZM815.257 9.496V3.376H816.397V4.06H816.445C816.805 3.652 817.429 3.304 818.089 3.304C818.233 3.304 818.413 3.316 818.473 3.352V4.408C818.317 4.384 818.113 4.372 817.993 4.372C817.417 4.372 816.853 4.54 816.433 4.816V9.496H815.257ZM820.871 9.604C819.767 9.604 818.975 9.052 818.975 7.864C818.975 6.772 819.695 6.232 820.883 6.076L822.419 5.896V5.368C822.419 4.456 822.035 4.252 820.955 4.252C820.355 4.252 819.851 4.348 819.479 4.432V3.604C820.043 3.376 820.667 3.256 821.423 3.256C822.803 3.256 823.607 3.832 823.607 5.068V9.496H822.635L822.527 8.98H822.455C822.167 9.34 821.663 9.604 820.871 9.604ZM821.183 8.74C821.687 8.74 822.179 8.572 822.419 8.344V6.712L821.147 6.844C820.499 6.916 820.175 7.18 820.175 7.816C820.175 8.44 820.571 8.74 821.183 8.74ZM827.175 9.556C826.155 9.556 825.483 9.136 825.483 8.02V4.324H824.619V3.376H825.483V1.936H826.671V3.376H828.147V4.324H826.671V7.852C826.671 8.404 826.851 8.608 827.511 8.608C827.763 8.608 828.027 8.572 828.267 8.536V9.328C828.015 9.436 827.739 9.556 827.175 9.556ZM832.029 9.604C830.049 9.604 829.065 8.428 829.065 6.508V6.352C829.065 4.252 830.325 3.256 831.801 3.256C833.529 3.256 834.333 4.252 834.333 6.184V6.76H830.277C830.361 8.164 831.045 8.632 832.245 8.632C833.049 8.632 833.577 8.44 834.141 8.188V9.016C833.757 9.292 833.049 9.604 832.029 9.604ZM831.753 4.192C831.105 4.192 830.373 4.528 830.277 5.896H833.097C833.097 4.66 832.641 4.192 831.753 4.192ZM837.702 9.604C836.514 9.604 835.206 8.86 835.206 6.628V6.472C835.206 4.228 836.346 3.256 837.918 3.256C838.662 3.256 839.154 3.46 839.442 3.628V0.736H840.63V9.496H839.622L839.514 9.004H839.454C839.094 9.364 838.506 9.604 837.702 9.604ZM838.11 8.668C838.746 8.668 839.19 8.404 839.442 8.212V4.576C839.202 4.372 838.674 4.24 838.098 4.24C837.054 4.24 836.418 4.768 836.418 6.328V6.58C836.418 8.188 837.102 8.668 838.11 8.668ZM845.519 9.496V1.276H848.087C850.583 1.276 851.987 2.524 851.987 5.152V5.404C851.987 7.996 850.751 9.496 848.111 9.496H845.519ZM846.755 8.464H848.135C849.863 8.464 850.655 7.624 850.655 5.56V5.152C850.655 2.992 849.695 2.308 847.991 2.308H846.755V8.464ZM854.82 9.604C853.716 9.604 852.924 9.052 852.924 7.864C852.924 6.772 853.644 6.232 854.832 6.076L856.368 5.896V5.368C856.368 4.456 855.984 4.252 854.904 4.252C854.304 4.252 853.8 4.348 853.428 4.432V3.604C853.992 3.376 854.616 3.256 855.372 3.256C856.752 3.256 857.556 3.832 857.556 5.068V9.496H856.584L856.476 8.98H856.404C856.116 9.34 855.612 9.604 854.82 9.604ZM855.132 8.74C855.636 8.74 856.128 8.572 856.368 8.344V6.712L855.096 6.844C854.448 6.916 854.124 7.18 854.124 7.816C854.124 8.44 854.52 8.74 855.132 8.74ZM861.125 9.556C860.105 9.556 859.433 9.136 859.433 8.02V4.324H858.569V3.376H859.433V1.936H860.621V3.376H862.097V4.324H860.621V7.852C860.621 8.404 860.801 8.608 861.461 8.608C861.713 8.608 861.977 8.572 862.217 8.536V9.328C861.965 9.436 861.689 9.556 861.125 9.556ZM864.898 9.604C863.794 9.604 863.002 9.052 863.002 7.864C863.002 6.772 863.722 6.232 864.91 6.076L866.446 5.896V5.368C866.446 4.456 866.062 4.252 864.982 4.252C864.382 4.252 863.878 4.348 863.506 4.432V3.604C864.07 3.376 864.694 3.256 865.45 3.256C866.83 3.256 867.634 3.832 867.634 5.068V9.496H866.662L866.554 8.98H866.482C866.194 9.34 865.69 9.604 864.898 9.604ZM865.21 8.74C865.714 8.74 866.206 8.572 866.446 8.344V6.712L865.174 6.844C864.526 6.916 864.202 7.18 864.202 7.816C864.202 8.44 864.598 8.74 865.21 8.74ZM874.355 9.556C873.335 9.556 872.663 9.136 872.663 8.02V4.324H871.799V3.376H872.663V1.936H873.851V3.376H875.327V4.324H873.851V7.852C873.851 8.404 874.031 8.608 874.691 8.608C874.943 8.608 875.207 8.572 875.447 8.536V9.328C875.195 9.436 874.919 9.556 874.355 9.556ZM879.089 9.604C877.277 9.604 876.245 8.476 876.245 6.568V6.364C876.245 4.42 877.396 3.256 879.101 3.256C880.877 3.256 881.921 4.396 881.921 6.328V6.508C881.921 8.452 880.757 9.604 879.089 9.604ZM879.101 8.68C880.097 8.68 880.685 7.972 880.685 6.628V6.304C880.685 4.684 879.965 4.204 879.077 4.204C878.045 4.204 877.457 4.912 877.457 6.256V6.58C877.457 8.2 878.189 8.68 879.101 8.68ZM888.3 9.64C887.256 9.64 886.464 9.412 885.9 9.1V8.092C886.536 8.392 887.34 8.608 888.216 8.608C889.38 8.608 889.872 8.092 889.872 7.276C889.872 6.556 889.548 6.244 888.612 5.944L887.808 5.68C886.68 5.332 885.984 4.732 885.984 3.4C885.984 2.068 886.872 1.132 888.636 1.132C889.68 1.132 890.256 1.36 890.712 1.588V2.596C890.208 2.38 889.536 2.164 888.636 2.164C887.724 2.164 887.208 2.56 887.208 3.292C887.208 4 887.46 4.312 888.312 4.576L889.128 4.828C890.364 5.224 891.144 5.764 891.144 7.18C891.144 8.68 890.256 9.64 888.3 9.64ZM894.225 9.604C893.025 9.604 892.365 9.004 892.365 7.816V3.376H893.553V7.612C893.553 8.332 893.793 8.608 894.621 8.608C895.221 8.608 895.701 8.404 896.121 8.212V3.376H897.297V9.496H896.289L896.169 8.968H896.109C895.605 9.328 894.993 9.604 894.225 9.604ZM898.882 11.296V3.376H900.022V3.868H900.07C900.442 3.52 901.078 3.256 901.822 3.256C903.154 3.256 904.318 3.988 904.318 6.244V6.412C904.318 8.68 903.238 9.532 901.558 9.532C900.874 9.532 900.382 9.352 900.058 9.172V11.296H898.882ZM901.414 8.608C902.47 8.608 903.082 8.128 903.082 6.568V6.316C903.082 4.72 902.506 4.252 901.474 4.252C900.826 4.252 900.31 4.456 900.058 4.648V8.224C900.31 8.416 900.826 8.608 901.414 8.608ZM905.55 11.296V3.376H906.69V3.868H906.738C907.11 3.52 907.746 3.256 908.49 3.256C909.822 3.256 910.986 3.988 910.986 6.244V6.412C910.986 8.68 909.906 9.532 908.226 9.532C907.542 9.532 907.05 9.352 906.726 9.172V11.296H905.55ZM908.082 8.608C909.138 8.608 909.75 8.128 909.75 6.568V6.316C909.75 4.72 909.174 4.252 908.142 4.252C907.494 4.252 906.978 4.456 906.726 4.648V8.224C906.978 8.416 907.494 8.608 908.082 8.608ZM914.702 9.604C912.89 9.604 911.858 8.476 911.858 6.568V6.364C911.858 4.42 913.01 3.256 914.714 3.256C916.49 3.256 917.534 4.396 917.534 6.328V6.508C917.534 8.452 916.37 9.604 914.702 9.604ZM914.714 8.68C915.71 8.68 916.298 7.972 916.298 6.628V6.304C916.298 4.684 915.578 4.204 914.69 4.204C913.658 4.204 913.07 4.912 913.07 6.256V6.58C913.07 8.2 913.802 8.68 914.714 8.68ZM918.745 9.496V3.376H919.885V4.06H919.933C920.293 3.652 920.917 3.304 921.577 3.304C921.721 3.304 921.901 3.316 921.961 3.352V4.408C921.805 4.384 921.601 4.372 921.481 4.372C920.905 4.372 920.341 4.54 919.921 4.816V9.496H918.745ZM925.121 9.556C924.101 9.556 923.429 9.136 923.429 8.02V4.324H922.565V3.376H923.429V1.936H924.617V3.376H926.093V4.324H924.617V7.852C924.617 8.404 924.797 8.608 925.457 8.608C925.709 8.608 925.973 8.572 926.213 8.536V9.328C925.961 9.436 925.685 9.556 925.121 9.556ZM4.152 27.628C1.92 27.628 0.504 26.284 0.504 23.5V23.212C0.504 20.248 2.22 19.132 4.308 19.132C5.196 19.132 5.856 19.312 6.36 19.576V20.584C5.7 20.344 5.112 20.164 4.32 20.164C2.868 20.164 1.836 21.004 1.836 23.044V23.488C1.836 25.444 2.544 26.596 4.356 26.596C5.328 26.596 5.94 26.344 6.456 26.104V27.112C5.88 27.436 5.124 27.628 4.152 27.628ZM7.69519 27.496V18.736H8.87119V27.496H7.69519ZM10.5428 27.496V21.376H11.7188V27.496H10.5428ZM10.5308 20.236V19.084H11.7308V20.236H10.5308ZM13.3545 27.496V21.376H14.4945V21.904H14.5425C15.0585 21.544 15.8505 21.256 16.5945 21.256C17.7825 21.256 18.3585 21.748 18.3585 22.936V27.496H17.1705V23.212C17.1705 22.54 16.9785 22.264 16.0545 22.264C15.5385 22.264 14.9505 22.444 14.5305 22.648V27.496H13.3545ZM19.9413 27.496V21.376H21.1173V27.496H19.9413ZM19.9293 20.236V19.084H21.1293V20.236H19.9293ZM25.2609 27.604C23.5089 27.604 22.3929 26.608 22.3929 24.58V24.376C22.3929 22.24 23.6769 21.256 25.3329 21.256C26.1369 21.256 26.6049 21.412 27.0129 21.652V22.624C26.4729 22.396 26.1009 22.252 25.3209 22.252C24.2769 22.252 23.6169 22.936 23.6169 24.22V24.532C23.6169 26.008 24.2409 26.632 25.4409 26.632C26.2209 26.632 26.7609 26.38 27.0849 26.224V27.124C26.6769 27.388 26.1129 27.604 25.2609 27.604ZM29.7144 27.604C28.6104 27.604 27.8184 27.052 27.8184 25.864C27.8184 24.772 28.5384 24.232 29.7264 24.076L31.2624 23.896V23.368C31.2624 22.456 30.8784 22.252 29.7984 22.252C29.1984 22.252 28.6944 22.348 28.3224 22.432V21.604C28.8864 21.376 29.5104 21.256 30.2664 21.256C31.6464 21.256 32.4504 21.832 32.4504 23.068V27.496H31.4784L31.3704 26.98H31.2984C31.0104 27.34 30.5064 27.604 29.7144 27.604ZM30.0264 26.74C30.5304 26.74 31.0224 26.572 31.2624 26.344V24.712L29.9904 24.844C29.3424 24.916 29.0184 25.18 29.0184 25.816C29.0184 26.44 29.4144 26.74 30.0264 26.74ZM34.0272 27.496V18.736H35.2032V27.496H34.0272ZM40.1592 27.496V19.276H42.7272C45.2232 19.276 46.6272 20.524 46.6272 23.152V23.404C46.6272 25.996 45.3912 27.496 42.7512 27.496H40.1592ZM41.3952 26.464H42.7752C44.5032 26.464 45.2952 25.624 45.2952 23.56V23.152C45.2952 20.992 44.3352 20.308 42.6312 20.308H41.3952V26.464ZM50.5405 27.604C48.5605 27.604 47.5765 26.428 47.5765 24.508V24.352C47.5765 22.252 48.8365 21.256 50.3125 21.256C52.0405 21.256 52.8445 22.252 52.8445 24.184V24.76H48.7885C48.8725 26.164 49.5565 26.632 50.7565 26.632C51.5605 26.632 52.0885 26.44 52.6525 26.188V27.016C52.2685 27.292 51.5605 27.604 50.5405 27.604ZM50.2645 22.192C49.6165 22.192 48.8845 22.528 48.7885 23.896H51.6085C51.6085 22.66 51.1525 22.192 50.2645 22.192ZM56.55 27.604C54.798 27.604 53.682 26.608 53.682 24.58V24.376C53.682 22.24 54.966 21.256 56.622 21.256C57.426 21.256 57.894 21.412 58.302 21.652V22.624C57.762 22.396 57.39 22.252 56.61 22.252C55.566 22.252 54.906 22.936 54.906 24.22V24.532C54.906 26.008 55.53 26.632 56.73 26.632C57.51 26.632 58.05 26.38 58.374 26.224V27.124C57.966 27.388 57.402 27.604 56.55 27.604ZM59.5155 27.496V21.376H60.6915V27.496H59.5155ZM59.5035 20.236V19.084H60.7035V20.236H59.5035ZM63.9472 27.592C63.1552 27.592 62.4472 27.46 61.9552 27.16V26.272C62.4592 26.464 62.9152 26.656 63.7792 26.656C64.6552 26.656 65.0392 26.356 65.0392 25.84C65.0392 25.372 64.8112 25.144 64.0672 24.976L63.5032 24.82C62.5912 24.604 61.9672 24.16 61.9672 23.08C61.9672 21.988 62.6632 21.256 64.1512 21.256C64.9912 21.256 65.5072 21.436 65.8672 21.616V22.528C65.5432 22.396 64.9192 22.228 64.2472 22.228C63.4792 22.228 63.0952 22.456 63.0952 22.984C63.0952 23.452 63.3352 23.632 63.9472 23.8L64.5232 23.944C65.7232 24.232 66.2032 24.664 66.2032 25.756C66.2032 26.968 65.3392 27.592 63.9472 27.592ZM67.4491 27.496V21.376H68.6251V27.496H67.4491ZM67.4371 20.236V19.084H68.6371V20.236H67.4371ZM72.7448 27.604C70.9328 27.604 69.9008 26.476 69.9008 24.568V24.364C69.9008 22.42 71.0527 21.256 72.7568 21.256C74.5328 21.256 75.5768 22.396 75.5768 24.328V24.508C75.5768 26.452 74.4128 27.604 72.7448 27.604ZM72.7568 26.68C73.7528 26.68 74.3408 25.972 74.3408 24.628V24.304C74.3408 22.684 73.6208 22.204 72.7328 22.204C71.7008 22.204 71.1128 22.912 71.1128 24.256V24.58C71.1128 26.2 71.8448 26.68 72.7568 26.68ZM76.7881 27.496V21.376H77.9281V21.904H77.9761C78.4921 21.544 79.2841 21.256 80.0281 21.256C81.2161 21.256 81.7921 21.748 81.7921 22.936V27.496H80.6041V23.212C80.6041 22.54 80.4121 22.264 79.4881 22.264C78.9721 22.264 78.3841 22.444 77.9641 22.648V27.496H76.7881ZM83.0389 24.04V23.02H86.6149V24.04H83.0389ZM87.9795 27.496V21.376H89.1195V21.904H89.1675C89.6835 21.556 90.3315 21.256 91.0395 21.256C91.7235 21.256 92.2155 21.484 92.4915 21.94H92.5395C93.1875 21.52 93.8955 21.256 94.6035 21.256C95.6595 21.256 96.2955 21.748 96.2955 22.936V27.496H95.1075V23.212C95.1075 22.54 94.8435 22.264 94.0875 22.264C93.6555 22.264 93.1875 22.42 92.6955 22.66C92.7075 22.768 92.7195 22.852 92.7195 22.984V27.496H91.5435V23.212C91.5435 22.54 91.2915 22.264 90.5355 22.264C90.0675 22.264 89.5755 22.432 89.1555 22.648V27.496H87.9795ZM99.3707 27.604C98.2667 27.604 97.4747 27.052 97.4747 25.864C97.4747 24.772 98.1947 24.232 99.3827 24.076L100.919 23.896V23.368C100.919 22.456 100.535 22.252 99.4547 22.252C98.8547 22.252 98.3507 22.348 97.9787 22.432V21.604C98.5427 21.376 99.1667 21.256 99.9227 21.256C101.303 21.256 102.107 21.832 102.107 23.068V27.496H101.135L101.027 26.98H100.955C100.667 27.34 100.163 27.604 99.3707 27.604ZM99.6827 26.74C100.187 26.74 100.679 26.572 100.919 26.344V24.712L99.6467 24.844C98.9987 24.916 98.6747 25.18 98.6747 25.816C98.6747 26.44 99.0707 26.74 99.6827 26.74ZM103.647 27.496V18.736H104.823V27.496H103.647ZM107.283 27.496L104.931 24.328L107.187 21.376H108.447L106.203 24.256L108.615 27.496H107.283ZM109.637 27.496V21.376H110.813V27.496H109.637ZM109.625 20.236V19.084H110.825V20.236H109.625ZM112.448 27.496V21.376H113.588V21.904H113.636C114.152 21.544 114.944 21.256 115.688 21.256C116.876 21.256 117.452 21.748 117.452 22.936V27.496H116.264V23.212C116.264 22.54 116.072 22.264 115.148 22.264C114.632 22.264 114.044 22.444 113.624 22.648V27.496H112.448ZM121.195 29.272C119.311 29.272 118.399 28.864 118.399 27.952C118.399 27.316 118.915 26.908 119.539 26.692V26.632C119.191 26.512 118.915 26.368 118.915 25.96C118.915 25.528 119.143 25.168 119.623 24.832C119.167 24.52 118.855 24.04 118.855 23.356V23.236C118.855 21.964 119.839 21.256 121.231 21.256C121.567 21.256 121.867 21.292 122.155 21.352H124.231V22.204H123.247C123.463 22.444 123.571 22.78 123.571 23.188V23.308C123.571 24.592 122.551 25.204 121.219 25.204C120.871 25.204 120.535 25.168 120.223 25.072C120.091 25.204 119.995 25.36 119.995 25.516C119.995 25.828 120.163 25.852 120.559 25.852H122.239C123.379 25.852 124.195 26.26 124.195 27.448C124.195 28.576 123.319 29.272 121.195 29.272ZM121.171 28.396C122.503 28.396 122.971 28.216 122.971 27.628C122.971 27.124 122.683 26.92 121.963 26.92H120.319C119.911 27.052 119.611 27.328 119.611 27.784C119.611 28.264 120.055 28.396 121.171 28.396ZM121.219 24.388C121.987 24.388 122.419 24.052 122.419 23.356V23.188C122.419 22.42 121.951 22.096 121.219 22.096C120.475 22.096 120.019 22.468 120.019 23.164V23.332C120.019 24.052 120.499 24.388 121.219 24.388ZM128.363 27.496V21.376H129.539V27.496H128.363ZM128.351 20.236V19.084H129.551V20.236H128.351ZM131.175 27.496V21.376H132.315V21.904H132.363C132.879 21.544 133.671 21.256 134.415 21.256C135.603 21.256 136.179 21.748 136.179 22.936V27.496H134.991V23.212C134.991 22.54 134.799 22.264 133.875 22.264C133.359 22.264 132.771 22.444 132.351 22.648V27.496H131.175ZM141.046 27.496V19.276H143.758C145.642 19.276 146.566 20.164 146.566 21.748C146.566 23.44 145.486 24.328 143.866 24.328H142.282V27.496H141.046ZM142.282 23.356H143.626C144.814 23.356 145.258 22.852 145.258 21.844C145.258 20.728 144.826 20.284 143.65 20.284H142.282V23.356ZM149.629 27.496V20.308H147.217V19.276H153.253V20.308H150.865V27.496H149.629ZM156.335 27.64C155.291 27.64 154.499 27.412 153.935 27.1V26.092C154.571 26.392 155.375 26.608 156.251 26.608C157.415 26.608 157.907 26.092 157.907 25.276C157.907 24.556 157.583 24.244 156.647 23.944L155.843 23.68C154.715 23.332 154.019 22.732 154.019 21.4C154.019 20.068 154.907 19.132 156.671 19.132C157.715 19.132 158.291 19.36 158.747 19.588V20.596C158.243 20.38 157.571 20.164 156.671 20.164C155.759 20.164 155.243 20.56 155.243 21.292C155.243 22 155.495 22.312 156.347 22.576L157.163 22.828C158.399 23.224 159.179 23.764 159.179 25.18C159.179 26.68 158.291 27.64 156.335 27.64ZM160.605 27.496V19.276H163.173C165.669 19.276 167.073 20.524 167.073 23.152V23.404C167.073 25.996 165.837 27.496 163.197 27.496H160.605ZM161.841 26.464H163.221C164.949 26.464 165.741 25.624 165.741 23.56V23.152C165.741 20.992 164.781 20.308 163.077 20.308H161.841V26.464ZM173.43 27.496V20.308H171.018V19.276H177.054V20.308H174.666V27.496H173.43ZM178.12 27.496V18.736H179.296V21.88H179.356C179.86 21.532 180.616 21.256 181.36 21.256C182.548 21.256 183.124 21.748 183.124 22.936V27.496H181.936V23.212C181.936 22.54 181.744 22.264 180.82 22.264C180.304 22.264 179.716 22.444 179.296 22.648V27.496H178.12ZM187.275 27.604C185.295 27.604 184.311 26.428 184.311 24.508V24.352C184.311 22.252 185.571 21.256 187.047 21.256C188.775 21.256 189.579 22.252 189.579 24.184V24.76H185.523C185.607 26.164 186.291 26.632 187.491 26.632C188.295 26.632 188.823 26.44 189.387 26.188V27.016C189.003 27.292 188.295 27.604 187.275 27.604ZM186.999 22.192C186.351 22.192 185.619 22.528 185.523 23.896H188.343C188.343 22.66 187.887 22.192 186.999 22.192ZM190.776 27.496V21.376H191.916V22.06H191.964C192.324 21.652 192.948 21.304 193.608 21.304C193.752 21.304 193.932 21.316 193.992 21.352V22.408C193.836 22.384 193.632 22.372 193.512 22.372C192.936 22.372 192.372 22.54 191.952 22.816V27.496H190.776ZM196.39 27.604C195.286 27.604 194.494 27.052 194.494 25.864C194.494 24.772 195.214 24.232 196.402 24.076L197.938 23.896V23.368C197.938 22.456 197.554 22.252 196.474 22.252C195.874 22.252 195.37 22.348 194.998 22.432V21.604C195.562 21.376 196.186 21.256 196.942 21.256C198.322 21.256 199.126 21.832 199.126 23.068V27.496H198.154L198.046 26.98H197.974C197.686 27.34 197.182 27.604 196.39 27.604ZM196.702 26.74C197.206 26.74 197.698 26.572 197.938 26.344V24.712L196.666 24.844C196.018 24.916 195.694 25.18 195.694 25.816C195.694 26.44 196.09 26.74 196.702 26.74ZM200.667 29.296V21.376H201.807V21.868H201.855C202.227 21.52 202.863 21.256 203.607 21.256C204.939 21.256 206.103 21.988 206.103 24.244V24.412C206.103 26.68 205.023 27.532 203.343 27.532C202.659 27.532 202.167 27.352 201.843 27.172V29.296H200.667ZM203.199 26.608C204.255 26.608 204.867 26.128 204.867 24.568V24.316C204.867 22.72 204.291 22.252 203.259 22.252C202.611 22.252 202.095 22.456 201.843 22.648V26.224C202.095 26.416 202.611 26.608 203.199 26.608ZM207.827 29.284C207.539 29.284 207.179 29.2 207.011 29.116V28.288C207.155 28.336 207.383 28.36 207.587 28.36C208.163 28.36 208.595 28.312 208.775 27.844L209.039 27.16L206.699 21.376H207.959L209.627 25.66H209.651L211.187 21.376H212.339L209.879 28.012C209.459 29.164 208.907 29.284 207.827 29.284ZM213.348 27.628V26.332H214.668V27.628H213.348Z" fill="black"/>
</svg>
