<svg width="903" height="30" viewBox="0 0 903 30" fill="none" xmlns="http://www.w3.org/2000/svg">
<path d="M0.972 10.744V0.568H3.744V1.48H2.16V9.82H3.744V10.744H0.972ZM5.19131 9.496V1.276H6.43931V9.496H5.19131ZM8.22169 9.496V3.376H9.36169V3.904H9.40969C9.92569 3.544 10.7177 3.256 11.4617 3.256C12.6497 3.256 13.2257 3.748 13.2257 4.936V9.496H12.0377V5.212C12.0377 4.54 11.8457 4.264 10.9217 4.264C10.4057 4.264 9.81769 4.444 9.39769 4.648V9.496H8.22169ZM19.9408 9.64C18.8968 9.64 18.1048 9.412 17.5408 9.1V8.092C18.1768 8.392 18.9808 8.608 19.8568 8.608C21.0208 8.608 21.5128 8.092 21.5128 7.276C21.5128 6.556 21.1888 6.244 20.2528 5.944L19.4488 5.68C18.3208 5.332 17.6248 4.732 17.6248 3.4C17.6248 2.068 18.5128 1.132 20.2768 1.132C21.3208 1.132 21.8968 1.36 22.3528 1.588V2.596C21.8488 2.38 21.1768 2.164 20.2768 2.164C19.3648 2.164 18.8488 2.56 18.8488 3.292C18.8488 4 19.1008 4.312 19.9528 4.576L20.7688 4.828C22.0048 5.224 22.7848 5.764 22.7848 7.18C22.7848 8.68 21.8968 9.64 19.9408 9.64ZM25.866 9.604C24.666 9.604 24.006 9.004 24.006 7.816V3.376H25.194V7.612C25.194 8.332 25.434 8.608 26.262 8.608C26.862 8.608 27.342 8.404 27.762 8.212V3.376H28.938V9.496H27.93L27.81 8.968H27.75C27.246 9.328 26.634 9.604 25.866 9.604ZM32.8265 9.64C32.0825 9.64 31.0625 9.508 30.5225 9.316V0.736H31.6985V3.772H31.7585C32.2265 3.484 32.7905 3.256 33.6065 3.256C34.7345 3.256 35.9585 3.952 35.9585 6.232V6.4C35.9585 8.476 34.8785 9.64 32.8265 9.64ZM32.9105 8.692C33.8705 8.692 34.7225 8.236 34.7225 6.58V6.328C34.7225 4.756 34.1945 4.252 33.0305 4.252C32.4905 4.252 31.9745 4.444 31.6985 4.576V8.488C31.9505 8.584 32.3225 8.692 32.9105 8.692ZM37.1904 9.496V3.376H38.3304V3.904H38.3784C38.8944 3.556 39.5424 3.256 40.2504 3.256C40.9344 3.256 41.4264 3.484 41.7024 3.94H41.7504C42.3984 3.52 43.1064 3.256 43.8144 3.256C44.8704 3.256 45.5064 3.748 45.5064 4.936V9.496H44.3184V5.212C44.3184 4.54 44.0544 4.264 43.2984 4.264C42.8664 4.264 42.3984 4.42 41.9064 4.66C41.9184 4.768 41.9304 4.852 41.9304 4.984V9.496H40.7544V5.212C40.7544 4.54 40.5024 4.264 39.7464 4.264C39.2784 4.264 38.7864 4.432 38.3664 4.648V9.496H37.1904ZM47.0936 9.496V3.376H48.2696V9.496H47.0936ZM47.0816 2.236V1.084H48.2816V2.236H47.0816ZM51.5253 9.592C50.7333 9.592 50.0253 9.46 49.5333 9.16V8.272C50.0373 8.464 50.4933 8.656 51.3573 8.656C52.2333 8.656 52.6173 8.356 52.6173 7.84C52.6173 7.372 52.3893 7.144 51.6453 6.976L51.0813 6.82C50.1693 6.604 49.5453 6.16 49.5453 5.08C49.5453 3.988 50.2413 3.256 51.7293 3.256C52.5693 3.256 53.0853 3.436 53.4453 3.616V4.528C53.1213 4.396 52.4973 4.228 51.8253 4.228C51.0573 4.228 50.6733 4.456 50.6733 4.984C50.6733 5.452 50.9133 5.632 51.5253 5.8L52.1013 5.944C53.3013 6.232 53.7813 6.664 53.7813 7.756C53.7813 8.968 52.9173 9.592 51.5253 9.592ZM56.6112 9.592C55.8192 9.592 55.1112 9.46 54.6192 9.16V8.272C55.1232 8.464 55.5792 8.656 56.4432 8.656C57.3192 8.656 57.7032 8.356 57.7032 7.84C57.7032 7.372 57.4752 7.144 56.7312 6.976L56.1672 6.82C55.2552 6.604 54.6312 6.16 54.6312 5.08C54.6312 3.988 55.3272 3.256 56.8152 3.256C57.6552 3.256 58.1712 3.436 58.5312 3.616V4.528C58.2072 4.396 57.5832 4.228 56.9112 4.228C56.1432 4.228 55.7592 4.456 55.7592 4.984C55.7592 5.452 55.9992 5.632 56.6112 5.8L57.1872 5.944C58.3872 6.232 58.8672 6.664 58.8672 7.756C58.8672 8.968 58.0032 9.592 56.6112 9.592ZM60.1132 9.496V3.376H61.2892V9.496H60.1132ZM60.1012 2.236V1.084H61.3012V2.236H60.1012ZM65.4088 9.604C63.5968 9.604 62.5648 8.476 62.5648 6.568V6.364C62.5648 4.42 63.7168 3.256 65.4208 3.256C67.1968 3.256 68.2408 4.396 68.2408 6.328V6.508C68.2408 8.452 67.0768 9.604 65.4088 9.604ZM65.4208 8.68C66.4168 8.68 67.0048 7.972 67.0048 6.628V6.304C67.0048 4.684 66.2848 4.204 65.3968 4.204C64.3648 4.204 63.7768 4.912 63.7768 6.256V6.58C63.7768 8.2 64.5088 8.68 65.4208 8.68ZM69.4522 9.496V3.376H70.5922V3.904H70.6402C71.1562 3.544 71.9482 3.256 72.6922 3.256C73.8802 3.256 74.4562 3.748 74.4562 4.936V9.496H73.2682V5.212C73.2682 4.54 73.0762 4.264 72.1522 4.264C71.6362 4.264 71.0482 4.444 70.6282 4.648V9.496H69.4522ZM75.6669 10.744V9.82H77.2629V1.48H75.6669V0.568H78.4509V10.744H75.6669ZM82.8106 9.496L85.1986 5.344L82.9906 1.432H85.4746L86.8666 3.988H86.9146L88.2106 1.432H90.4306L88.2466 5.284L90.5986 9.496H88.1146L86.6026 6.748H86.5546L85.0306 9.496H82.8106ZM93.1757 9.604C91.9997 9.604 91.2917 9.076 91.2917 7.816V3.316H93.3197V7.384C93.3197 7.876 93.5357 8.056 94.0757 8.056C94.4357 8.056 94.7477 7.948 95.0117 7.84V3.316H97.0397V9.496H95.2397L95.1077 8.956H95.0477C94.4957 9.376 93.9557 9.604 93.1757 9.604ZM97.7238 11.26L98.2398 8.716H100.256L99.2958 11.26H97.7238ZM104.608 9.496V1.432H106.864V5.14L109.396 1.432H111.676L109.036 5.236L111.844 9.496H109.324L106.864 5.788V9.496H104.608ZM112.5 9.808V7.996H114.468V9.808H112.5ZM115.044 11.26L115.56 8.716H117.576L116.616 11.26H115.044ZM123.98 9.496V6.316L121.304 1.276H122.624L124.652 5.152H124.688L126.68 1.276H127.88L125.216 6.316V9.496H123.98ZM130.343 9.604C129.239 9.604 128.447 9.052 128.447 7.864C128.447 6.772 129.167 6.232 130.355 6.076L131.891 5.896V5.368C131.891 4.456 131.507 4.252 130.427 4.252C129.827 4.252 129.323 4.348 128.951 4.432V3.604C129.515 3.376 130.139 3.256 130.895 3.256C132.275 3.256 133.079 3.832 133.079 5.068V9.496H132.107L131.999 8.98H131.927C131.639 9.34 131.135 9.604 130.343 9.604ZM130.655 8.74C131.159 8.74 131.651 8.572 131.891 8.344V6.712L130.619 6.844C129.971 6.916 129.647 7.18 129.647 7.816C129.647 8.44 130.043 8.74 130.655 8.74ZM134.62 9.496V3.376H135.76V3.904H135.808C136.324 3.544 137.116 3.256 137.86 3.256C139.048 3.256 139.624 3.748 139.624 4.936V9.496H138.436V5.212C138.436 4.54 138.244 4.264 137.32 4.264C136.804 4.264 136.216 4.444 135.796 4.648V9.496H134.62ZM141.099 11.032L141.279 8.356H142.623L142.095 11.032H141.099ZM146.843 9.496L149.495 5.308L146.999 1.276H148.367L150.335 4.42H150.395L152.207 1.276H153.467L151.055 5.308L153.611 9.496H152.243L150.191 6.184H150.167L148.127 9.496H146.843ZM154.789 9.628V8.332H156.109V9.628H154.789ZM157.669 11.032L157.849 8.356H159.193L158.665 11.032H157.669ZM164.062 9.496V1.276H166.63C168.454 1.276 169.426 2.068 169.426 3.652C169.426 4.816 168.838 5.428 167.89 5.788V5.848L169.99 9.496H168.61L166.69 6.076H165.298V9.496H164.062ZM165.298 5.164H166.51C167.662 5.164 168.13 4.684 168.13 3.688C168.13 2.692 167.638 2.284 166.498 2.284H165.298V5.164ZM171.499 11.284C171.211 11.284 170.851 11.2 170.683 11.116V10.288C170.827 10.336 171.055 10.36 171.259 10.36C171.835 10.36 172.267 10.312 172.447 9.844L172.711 9.16L170.371 3.376H171.631L173.299 7.66H173.323L174.859 3.376H176.011L173.551 10.012C173.131 11.164 172.579 11.284 171.499 11.284ZM178.796 9.604C177.596 9.604 176.936 9.004 176.936 7.816V3.376H178.124V7.612C178.124 8.332 178.364 8.608 179.192 8.608C179.792 8.608 180.272 8.404 180.692 8.212V3.376H181.868V9.496H180.86L180.74 8.968H180.68C180.176 9.328 179.564 9.604 178.796 9.604ZM183.38 11.032L183.56 8.356H184.904L184.376 11.032H183.38ZM189.773 9.496V1.276H191.561L193.709 7.828H193.745L195.893 1.276H197.657V9.496H196.421V2.86H196.397L194.189 9.496H193.097L190.925 2.86H190.877V9.496H189.773ZM199.473 9.628V8.332H200.793V9.628H199.473ZM202.353 11.032L202.533 8.356H203.877L203.349 11.032H202.353ZM208.745 9.496V1.276H210.173L213.797 7.432H213.833V1.276H214.949V9.496H213.701L209.909 2.98H209.861V9.496H208.745ZM219.302 9.604C217.322 9.604 216.338 8.428 216.338 6.508V6.352C216.338 4.252 217.598 3.256 219.074 3.256C220.802 3.256 221.606 4.252 221.606 6.184V6.76H217.55C217.634 8.164 218.318 8.632 219.518 8.632C220.322 8.632 220.85 8.44 221.414 8.188V9.016C221.03 9.292 220.322 9.604 219.302 9.604ZM219.026 4.192C218.378 4.192 217.646 4.528 217.55 5.896H220.37C220.37 4.66 219.914 4.192 219.026 4.192ZM223.98 9.496L222.264 3.376H223.512L224.676 7.972H224.736L226.056 3.376H227.064L228.408 7.972H228.456L229.608 3.376H230.712L228.996 9.496H227.832L226.524 5.14H226.476L225.168 9.496H223.98ZM231.745 9.496V3.376H232.885V3.904H232.933C233.449 3.556 234.097 3.256 234.805 3.256C235.489 3.256 235.981 3.484 236.257 3.94H236.305C236.953 3.52 237.661 3.256 238.369 3.256C239.425 3.256 240.061 3.748 240.061 4.936V9.496H238.873V5.212C238.873 4.54 238.609 4.264 237.853 4.264C237.421 4.264 236.953 4.42 236.461 4.66C236.473 4.768 236.485 4.852 236.485 4.984V9.496H235.309V5.212C235.309 4.54 235.057 4.264 234.301 4.264C233.833 4.264 233.341 4.432 232.921 4.648V9.496H231.745ZM243.136 9.604C242.032 9.604 241.24 9.052 241.24 7.864C241.24 6.772 241.96 6.232 243.148 6.076L244.684 5.896V5.368C244.684 4.456 244.3 4.252 243.22 4.252C242.62 4.252 242.116 4.348 241.744 4.432V3.604C242.308 3.376 242.932 3.256 243.688 3.256C245.068 3.256 245.872 3.832 245.872 5.068V9.496H244.9L244.792 8.98H244.72C244.432 9.34 243.928 9.604 243.136 9.604ZM243.448 8.74C243.952 8.74 244.444 8.572 244.684 8.344V6.712L243.412 6.844C242.764 6.916 242.44 7.18 242.44 7.816C242.44 8.44 242.836 8.74 243.448 8.74ZM247.413 9.496V3.376H248.553V3.904H248.601C249.117 3.544 249.909 3.256 250.653 3.256C251.841 3.256 252.417 3.748 252.417 4.936V9.496H251.229V5.212C251.229 4.54 251.037 4.264 250.113 4.264C249.597 4.264 249.009 4.444 248.589 4.648V9.496H247.413ZM253.892 11.032L254.072 8.356H255.416L254.888 11.032H253.892ZM260.284 9.496V1.276H262.072L264.22 7.828H264.256L266.404 1.276H268.168V9.496H266.932V2.86H266.908L264.7 9.496H263.608L261.436 2.86H261.388V9.496H260.284ZM269.985 9.628V8.332H271.305V9.628H269.985ZM274.461 9.496L272.397 1.276H273.657L275.133 7.624H275.169L276.957 1.276H277.989L279.741 7.624H279.765L281.265 1.276H282.393L280.353 9.496H279.153L277.449 3.268H277.413L275.661 9.496H274.461ZM283.485 9.628V8.332H284.805V9.628H283.485ZM286.365 11.032L286.545 8.356H287.889L287.361 11.032H286.365ZM294.113 9.604C293.009 9.604 292.217 9.052 292.217 7.864C292.217 6.772 292.937 6.232 294.125 6.076L295.661 5.896V5.368C295.661 4.456 295.277 4.252 294.197 4.252C293.597 4.252 293.093 4.348 292.721 4.432V3.604C293.285 3.376 293.909 3.256 294.665 3.256C296.045 3.256 296.849 3.832 296.849 5.068V9.496H295.877L295.769 8.98H295.697C295.409 9.34 294.905 9.604 294.113 9.604ZM294.425 8.74C294.929 8.74 295.421 8.572 295.661 8.344V6.712L294.389 6.844C293.741 6.916 293.417 7.18 293.417 7.816C293.417 8.44 293.813 8.74 294.425 8.74ZM298.39 9.496V3.376H299.53V3.904H299.578C300.094 3.544 300.886 3.256 301.63 3.256C302.818 3.256 303.394 3.748 303.394 4.936V9.496H302.206V5.212C302.206 4.54 302.014 4.264 301.09 4.264C300.574 4.264 299.986 4.444 299.566 4.648V9.496H298.39ZM307.112 9.604C305.924 9.604 304.616 8.86 304.616 6.628V6.472C304.616 4.228 305.756 3.256 307.328 3.256C308.072 3.256 308.564 3.46 308.852 3.628V0.736H310.04V9.496H309.032L308.924 9.004H308.864C308.504 9.364 307.916 9.604 307.112 9.604ZM307.52 8.668C308.156 8.668 308.6 8.404 308.852 8.212V4.576C308.612 4.372 308.084 4.24 307.508 4.24C306.464 4.24 305.828 4.768 305.828 6.328V6.58C305.828 8.188 306.512 8.668 307.52 8.668ZM314.113 9.496L317.089 1.276H318.337L321.289 9.496H319.993L319.201 7.264H316.057L315.277 9.496H314.113ZM317.593 2.836L316.393 6.28H318.841L317.629 2.836H317.593ZM322.214 9.496V3.376H323.354V4.06H323.402C323.762 3.652 324.386 3.304 325.046 3.304C325.19 3.304 325.37 3.316 325.43 3.352V4.408C325.274 4.384 325.07 4.372 324.95 4.372C324.374 4.372 323.81 4.54 323.39 4.816V9.496H322.214ZM326.444 9.496V3.376H327.584V4.06H327.632C327.992 3.652 328.616 3.304 329.276 3.304C329.42 3.304 329.6 3.316 329.66 3.352V4.408C329.504 4.384 329.3 4.372 329.18 4.372C328.604 4.372 328.04 4.54 327.62 4.816V9.496H326.444ZM330.711 9.496V3.376H331.887V9.496H330.711ZM330.699 2.236V1.084H331.899V2.236H330.699ZM335.046 9.604C333.942 9.604 333.15 9.052 333.15 7.864C333.15 6.772 333.87 6.232 335.058 6.076L336.594 5.896V5.368C336.594 4.456 336.21 4.252 335.13 4.252C334.53 4.252 334.026 4.348 333.654 4.432V3.604C334.218 3.376 334.842 3.256 335.598 3.256C336.978 3.256 337.782 3.832 337.782 5.068V9.496H336.81L336.702 8.98H336.63C336.342 9.34 335.838 9.604 335.046 9.604ZM335.358 8.74C335.862 8.74 336.354 8.572 336.594 8.344V6.712L335.322 6.844C334.674 6.916 334.35 7.18 334.35 7.816C334.35 8.44 334.746 8.74 335.358 8.74ZM341.461 11.272C339.577 11.272 338.665 10.864 338.665 9.952C338.665 9.316 339.181 8.908 339.805 8.692V8.632C339.457 8.512 339.181 8.368 339.181 7.96C339.181 7.528 339.409 7.168 339.889 6.832C339.433 6.52 339.121 6.04 339.121 5.356V5.236C339.121 3.964 340.105 3.256 341.497 3.256C341.833 3.256 342.133 3.292 342.421 3.352H344.497V4.204H343.513C343.729 4.444 343.837 4.78 343.837 5.188V5.308C343.837 6.592 342.817 7.204 341.485 7.204C341.137 7.204 340.801 7.168 340.489 7.072C340.357 7.204 340.261 7.36 340.261 7.516C340.261 7.828 340.429 7.852 340.825 7.852H342.505C343.645 7.852 344.461 8.26 344.461 9.448C344.461 10.576 343.585 11.272 341.461 11.272ZM341.437 10.396C342.769 10.396 343.237 10.216 343.237 9.628C343.237 9.124 342.949 8.92 342.229 8.92H340.585C340.177 9.052 339.877 9.328 339.877 9.784C339.877 10.264 340.321 10.396 341.437 10.396ZM341.485 6.388C342.253 6.388 342.685 6.052 342.685 5.356V5.188C342.685 4.42 342.217 4.096 341.485 4.096C340.741 4.096 340.285 4.468 340.285 5.164V5.332C340.285 6.052 340.765 6.388 341.485 6.388ZM346.964 9.604C345.86 9.604 345.068 9.052 345.068 7.864C345.068 6.772 345.788 6.232 346.976 6.076L348.512 5.896V5.368C348.512 4.456 348.128 4.252 347.048 4.252C346.448 4.252 345.944 4.348 345.572 4.432V3.604C346.136 3.376 346.76 3.256 347.516 3.256C348.896 3.256 349.7 3.832 349.7 5.068V9.496H348.728L348.62 8.98H348.548C348.26 9.34 347.756 9.604 346.964 9.604ZM347.276 8.74C347.78 8.74 348.272 8.572 348.512 8.344V6.712L347.24 6.844C346.592 6.916 346.268 7.18 346.268 7.816C346.268 8.44 346.664 8.74 347.276 8.74ZM351.169 11.032L351.349 8.356H352.693L352.165 11.032H351.169ZM357.562 9.496V1.276H360.13C361.954 1.276 362.926 2.068 362.926 3.652C362.926 4.816 362.338 5.428 361.39 5.788V5.848L363.49 9.496H362.11L360.19 6.076H358.798V9.496H357.562ZM358.798 5.164H360.01C361.162 5.164 361.63 4.684 361.63 3.688C361.63 2.692 361.138 2.284 359.998 2.284H358.798V5.164ZM364.555 9.628V8.332H365.875V9.628H364.555ZM367.711 9.496V1.276H368.959V9.496H367.711ZM370.789 9.628V8.332H372.109V9.628H370.789ZM376.774 9.496V8.764L378.502 6.964C379.63 5.776 380.494 4.816 380.494 3.736C380.494 2.704 379.954 2.26 378.874 2.26C378.262 2.26 377.59 2.56 377.134 2.86L376.882 1.912C377.41 1.588 378.238 1.24 379.162 1.24C380.89 1.24 381.802 2.128 381.802 3.592C381.802 5.02 380.71 6.172 379.558 7.384L378.454 8.488H381.91V9.496H376.774ZM386.269 9.64C384.541 9.64 383.185 8.512 383.185 5.74V5.164C383.185 2.26 384.637 1.24 386.293 1.24C387.937 1.24 389.317 2.272 389.317 5.116V5.728C389.317 8.548 387.961 9.64 386.269 9.64ZM386.269 8.656C387.433 8.656 388.033 7.852 388.033 5.848V5.104C388.033 3.124 387.433 2.224 386.281 2.224C385.117 2.224 384.505 3.088 384.505 5.032V5.776C384.505 7.732 385.105 8.656 386.269 8.656ZM390.613 9.496V8.764L392.341 6.964C393.469 5.776 394.333 4.816 394.333 3.736C394.333 2.704 393.793 2.26 392.713 2.26C392.101 2.26 391.429 2.56 390.973 2.86L390.721 1.912C391.249 1.588 392.077 1.24 393.001 1.24C394.729 1.24 395.641 2.128 395.641 3.592C395.641 5.02 394.549 6.172 393.397 7.384L392.293 8.488H395.749V9.496H390.613ZM399.196 9.616C398.224 9.616 397.372 9.352 396.916 9.04L397.144 8.116C397.576 8.392 398.38 8.608 398.992 8.608C400.204 8.608 400.864 8.092 400.864 7.144C400.864 6.196 400.168 5.776 399.052 5.764L398.26 5.752V4.804L398.968 4.792C399.964 4.78 400.6 4.3 400.6 3.484C400.6 2.584 400.024 2.26 399.088 2.26C398.464 2.26 397.852 2.512 397.36 2.752L397.204 1.804C397.708 1.492 398.632 1.24 399.4 1.24C400.888 1.24 401.872 1.972 401.872 3.268C401.872 4.252 401.284 4.864 400.372 5.176C401.404 5.38 402.16 5.956 402.16 7.192C402.16 8.656 401.02 9.616 399.196 9.616ZM403.625 9.628V8.332H404.945V9.628H403.625ZM409.898 9.496V1.276H412.465C414.29 1.276 415.262 2.068 415.262 3.652C415.262 4.816 414.674 5.428 413.726 5.788V5.848L415.826 9.496H414.446L412.526 6.076H411.134V9.496H409.898ZM411.134 5.164H412.346C413.498 5.164 413.966 4.684 413.966 3.688C413.966 2.692 413.474 2.284 412.334 2.284H411.134V5.164ZM419.447 9.604C417.467 9.604 416.483 8.428 416.483 6.508V6.352C416.483 4.252 417.743 3.256 419.219 3.256C420.947 3.256 421.751 4.252 421.751 6.184V6.76H417.695C417.779 8.164 418.463 8.632 419.663 8.632C420.467 8.632 420.995 8.44 421.559 8.188V9.016C421.175 9.292 420.467 9.604 419.447 9.604ZM419.171 4.192C418.523 4.192 417.791 4.528 417.695 5.896H420.515C420.515 4.66 420.059 4.192 419.171 4.192ZM425.035 9.556C424.015 9.556 423.343 9.136 423.343 8.02V4.324H422.479V3.376H423.343V1.936H424.531V3.376H426.007V4.324H424.531V7.852C424.531 8.404 424.711 8.608 425.371 8.608C425.623 8.608 425.887 8.572 426.127 8.536V9.328C425.875 9.436 425.599 9.556 425.035 9.556ZM427.284 9.496V0.736H428.46V3.88H428.52C429.024 3.532 429.78 3.256 430.524 3.256C431.712 3.256 432.288 3.748 432.288 4.936V9.496H431.1V5.212C431.1 4.54 430.908 4.264 429.984 4.264C429.468 4.264 428.88 4.444 428.46 4.648V9.496H427.284ZM433.871 9.496V3.376H435.047V9.496H433.871ZM433.859 2.236V1.084H435.059V2.236H433.859ZM436.683 9.496V3.376H437.823V3.904H437.871C438.387 3.544 439.179 3.256 439.923 3.256C441.111 3.256 441.687 3.748 441.687 4.936V9.496H440.499V5.212C440.499 4.54 440.307 4.264 439.383 4.264C438.867 4.264 438.279 4.444 437.859 4.648V9.496H436.683ZM443.233 9.496V0.736H444.409V9.496H443.233ZM446.869 9.496L444.517 6.328L446.773 3.376H448.033L445.789 6.256L448.201 9.496H446.869ZM449.223 9.496V3.376H450.399V9.496H449.223ZM449.211 2.236V1.084H450.411V2.236H449.211ZM452.034 9.496V3.376H453.174V3.904H453.222C453.738 3.544 454.53 3.256 455.274 3.256C456.462 3.256 457.038 3.748 457.038 4.936V9.496H455.85V5.212C455.85 4.54 455.658 4.264 454.734 4.264C454.218 4.264 453.63 4.444 453.21 4.648V9.496H452.034ZM460.781 11.272C458.897 11.272 457.985 10.864 457.985 9.952C457.985 9.316 458.501 8.908 459.125 8.692V8.632C458.777 8.512 458.501 8.368 458.501 7.96C458.501 7.528 458.729 7.168 459.209 6.832C458.753 6.52 458.441 6.04 458.441 5.356V5.236C458.441 3.964 459.425 3.256 460.817 3.256C461.153 3.256 461.453 3.292 461.741 3.352H463.817V4.204H462.833C463.049 4.444 463.157 4.78 463.157 5.188V5.308C463.157 6.592 462.137 7.204 460.805 7.204C460.457 7.204 460.121 7.168 459.809 7.072C459.677 7.204 459.581 7.36 459.581 7.516C459.581 7.828 459.749 7.852 460.145 7.852H461.825C462.965 7.852 463.781 8.26 463.781 9.448C463.781 10.576 462.905 11.272 460.781 11.272ZM460.757 10.396C462.089 10.396 462.557 10.216 462.557 9.628C462.557 9.124 462.269 8.92 461.549 8.92H459.905C459.497 9.052 459.197 9.328 459.197 9.784C459.197 10.264 459.641 10.396 460.757 10.396ZM460.805 6.388C461.573 6.388 462.005 6.052 462.005 5.356V5.188C462.005 4.42 461.537 4.096 460.805 4.096C460.061 4.096 459.605 4.468 459.605 5.164V5.332C459.605 6.052 460.085 6.388 460.805 6.388ZM469.929 9.64C468.885 9.64 468.093 9.412 467.529 9.1V8.092C468.165 8.392 468.969 8.608 469.845 8.608C471.009 8.608 471.501 8.092 471.501 7.276C471.501 6.556 471.177 6.244 470.241 5.944L469.437 5.68C468.309 5.332 467.613 4.732 467.613 3.4C467.613 2.068 468.501 1.132 470.265 1.132C471.309 1.132 471.885 1.36 472.341 1.588V2.596C471.837 2.38 471.165 2.164 470.265 2.164C469.353 2.164 468.837 2.56 468.837 3.292C468.837 4 469.089 4.312 469.941 4.576L470.757 4.828C471.993 5.224 472.773 5.764 472.773 7.18C472.773 8.68 471.885 9.64 469.929 9.64ZM476.634 9.604C474.654 9.604 473.67 8.428 473.67 6.508V6.352C473.67 4.252 474.93 3.256 476.406 3.256C478.134 3.256 478.938 4.252 478.938 6.184V6.76H474.882C474.966 8.164 475.65 8.632 476.85 8.632C477.654 8.632 478.182 8.44 478.746 8.188V9.016C478.362 9.292 477.654 9.604 476.634 9.604ZM476.358 4.192C475.71 4.192 474.978 4.528 474.882 5.896H477.702C477.702 4.66 477.246 4.192 476.358 4.192ZM480.172 9.496V0.736H481.348V9.496H480.172ZM483.343 9.496V4.324H482.455V3.376H483.343V2.548C483.343 1.216 484.159 0.64 485.287 0.64C485.815 0.64 486.163 0.736 486.379 0.844V1.648C486.223 1.612 485.935 1.564 485.551 1.564C484.903 1.564 484.531 1.888 484.531 2.656V3.376H485.887V4.324H484.531V9.496H483.343ZM486.445 6.04V5.02H490.021V6.04H486.445ZM491.554 9.496V1.276H496.546V2.308H492.79V4.756H495.706V5.776H492.79V8.464H496.594V9.496H491.554ZM497.348 9.496L499.388 6.376L497.432 3.376H498.836L500.204 5.572L501.476 3.376H502.724L500.876 6.364L502.892 9.496H501.488L500.072 7.192L498.62 9.496H497.348ZM503.878 11.296V3.376H505.018V3.868H505.066C505.438 3.52 506.074 3.256 506.818 3.256C508.15 3.256 509.314 3.988 509.314 6.244V6.412C509.314 8.68 508.234 9.532 506.554 9.532C505.87 9.532 505.378 9.352 505.054 9.172V11.296H503.878ZM506.41 8.608C507.466 8.608 508.078 8.128 508.078 6.568V6.316C508.078 4.72 507.502 4.252 506.47 4.252C505.822 4.252 505.306 4.456 505.054 4.648V8.224C505.306 8.416 505.822 8.608 506.41 8.608ZM513.15 9.604C511.17 9.604 510.186 8.428 510.186 6.508V6.352C510.186 4.252 511.446 3.256 512.922 3.256C514.65 3.256 515.454 4.252 515.454 6.184V6.76H511.398C511.482 8.164 512.166 8.632 513.366 8.632C514.17 8.632 514.698 8.44 515.262 8.188V9.016C514.878 9.292 514.17 9.604 513.15 9.604ZM512.874 4.192C512.226 4.192 511.494 4.528 511.398 5.896H514.218C514.218 4.66 513.762 4.192 512.874 4.192ZM516.651 9.496V3.376H517.791V4.06H517.839C518.199 3.652 518.823 3.304 519.483 3.304C519.627 3.304 519.807 3.316 519.867 3.352V4.408C519.711 4.384 519.507 4.372 519.387 4.372C518.811 4.372 518.247 4.54 517.827 4.816V9.496H516.651ZM520.918 9.496V3.376H522.094V9.496H520.918ZM520.906 2.236V1.084H522.106V2.236H520.906ZM523.729 9.496V3.376H524.87V3.904H524.918C525.434 3.556 526.082 3.256 526.79 3.256C527.474 3.256 527.966 3.484 528.242 3.94H528.29C528.938 3.52 529.646 3.256 530.354 3.256C531.41 3.256 532.046 3.748 532.046 4.936V9.496H530.858V5.212C530.858 4.54 530.594 4.264 529.838 4.264C529.406 4.264 528.938 4.42 528.446 4.66C528.458 4.768 528.47 4.852 528.47 4.984V9.496H527.294V5.212C527.294 4.54 527.042 4.264 526.286 4.264C525.818 4.264 525.326 4.432 524.906 4.648V9.496H523.729ZM536.201 9.604C534.221 9.604 533.237 8.428 533.237 6.508V6.352C533.237 4.252 534.497 3.256 535.973 3.256C537.701 3.256 538.505 4.252 538.505 6.184V6.76H534.449C534.533 8.164 535.217 8.632 536.417 8.632C537.221 8.632 537.749 8.44 538.313 8.188V9.016C537.929 9.292 537.221 9.604 536.201 9.604ZM535.925 4.192C535.277 4.192 534.545 4.528 534.449 5.896H537.269C537.269 4.66 536.813 4.192 535.925 4.192ZM539.702 9.496V3.376H540.842V3.904H540.89C541.406 3.544 542.198 3.256 542.942 3.256C544.13 3.256 544.706 3.748 544.706 4.936V9.496H543.518V5.212C543.518 4.54 543.326 4.264 542.402 4.264C541.886 4.264 541.298 4.444 540.878 4.648V9.496H539.702ZM548.281 9.556C547.261 9.556 546.589 9.136 546.589 8.02V4.324H545.725V3.376H546.589V1.936H547.777V3.376H549.253V4.324H547.777V7.852C547.777 8.404 547.957 8.608 548.617 8.608C548.869 8.608 549.133 8.572 549.373 8.536V9.328C549.121 9.436 548.845 9.556 548.281 9.556ZM552.054 9.604C550.95 9.604 550.158 9.052 550.158 7.864C550.158 6.772 550.878 6.232 552.066 6.076L553.602 5.896V5.368C553.602 4.456 553.218 4.252 552.138 4.252C551.538 4.252 551.034 4.348 550.662 4.432V3.604C551.226 3.376 551.85 3.256 552.606 3.256C553.986 3.256 554.79 3.832 554.79 5.068V9.496H553.818L553.71 8.98H553.638C553.35 9.34 552.846 9.604 552.054 9.604ZM552.366 8.74C552.87 8.74 553.362 8.572 553.602 8.344V6.712L552.33 6.844C551.682 6.916 551.358 7.18 551.358 7.816C551.358 8.44 551.754 8.74 552.366 8.74ZM558.359 9.556C557.339 9.556 556.667 9.136 556.667 8.02V4.324H555.803V3.376H556.667V1.936H557.855V3.376H559.331V4.324H557.855V7.852C557.855 8.404 558.035 8.608 558.695 8.608C558.947 8.608 559.211 8.572 559.451 8.536V9.328C559.199 9.436 558.923 9.556 558.359 9.556ZM560.644 9.496V3.376H561.82V9.496H560.644ZM560.632 2.236V1.084H561.832V2.236H560.632ZM565.94 9.604C564.128 9.604 563.096 8.476 563.096 6.568V6.364C563.096 4.42 564.248 3.256 565.952 3.256C567.728 3.256 568.772 4.396 568.772 6.328V6.508C568.772 8.452 567.608 9.604 565.94 9.604ZM565.952 8.68C566.948 8.68 567.536 7.972 567.536 6.628V6.304C567.536 4.684 566.816 4.204 565.928 4.204C564.896 4.204 564.308 4.912 564.308 6.256V6.58C564.308 8.2 565.04 8.68 565.952 8.68ZM569.983 9.496V3.376H571.123V3.904H571.171C571.687 3.544 572.479 3.256 573.223 3.256C574.411 3.256 574.987 3.748 574.987 4.936V9.496H573.799V5.212C573.799 4.54 573.607 4.264 572.683 4.264C572.167 4.264 571.579 4.444 571.159 4.648V9.496H569.983ZM576.726 4.468V3.196H578.034V4.468H576.726ZM576.726 8.896V7.624H578.034V8.896H576.726ZM586.196 9.64C584.18 9.64 583.052 8.668 583.052 6.628V1.276H584.324V6.556C584.324 8.188 584.984 8.692 586.244 8.692C587.492 8.692 588.092 8.2 588.092 6.544V1.276H589.22V6.592C589.22 8.704 588.224 9.64 586.196 9.64ZM590.937 9.496V3.376H592.077V3.904H592.125C592.641 3.544 593.433 3.256 594.177 3.256C595.365 3.256 595.941 3.748 595.941 4.936V9.496H594.753V5.212C594.753 4.54 594.561 4.264 593.637 4.264C593.121 4.264 592.533 4.444 592.113 4.648V9.496H590.937ZM599.659 9.604C598.471 9.604 597.163 8.86 597.163 6.628V6.472C597.163 4.228 598.303 3.256 599.875 3.256C600.619 3.256 601.111 3.46 601.399 3.628V0.736H602.587V9.496H601.579L601.471 9.004H601.411C601.051 9.364 600.463 9.604 599.659 9.604ZM600.067 8.668C600.703 8.668 601.147 8.404 601.399 8.212V4.576C601.159 4.372 600.631 4.24 600.055 4.24C599.011 4.24 598.375 4.768 598.375 6.328V6.58C598.375 8.188 599.059 8.668 600.067 8.668ZM606.759 9.604C604.779 9.604 603.795 8.428 603.795 6.508V6.352C603.795 4.252 605.055 3.256 606.531 3.256C608.259 3.256 609.063 4.252 609.063 6.184V6.76H605.007C605.091 8.164 605.775 8.632 606.975 8.632C607.779 8.632 608.307 8.44 608.871 8.188V9.016C608.487 9.292 607.779 9.604 606.759 9.604ZM606.483 4.192C605.835 4.192 605.103 4.528 605.007 5.896H607.827C607.827 4.66 607.371 4.192 606.483 4.192ZM610.261 9.496V3.376H611.401V4.06H611.449C611.809 3.652 612.433 3.304 613.093 3.304C613.237 3.304 613.417 3.316 613.477 3.352V4.408C613.321 4.384 613.117 4.372 612.997 4.372C612.421 4.372 611.857 4.54 611.437 4.816V9.496H610.261ZM616.111 9.592C615.319 9.592 614.611 9.46 614.119 9.16V8.272C614.623 8.464 615.079 8.656 615.943 8.656C616.819 8.656 617.203 8.356 617.203 7.84C617.203 7.372 616.975 7.144 616.231 6.976L615.667 6.82C614.755 6.604 614.131 6.16 614.131 5.08C614.131 3.988 614.827 3.256 616.315 3.256C617.155 3.256 617.671 3.436 618.031 3.616V4.528C617.707 4.396 617.083 4.228 616.411 4.228C615.643 4.228 615.259 4.456 615.259 4.984C615.259 5.452 615.499 5.632 616.111 5.8L616.687 5.944C617.887 6.232 618.367 6.664 618.367 7.756C618.367 8.968 617.503 9.592 616.111 9.592ZM621.605 9.556C620.585 9.556 619.913 9.136 619.913 8.02V4.324H619.049V3.376H619.913V1.936H621.101V3.376H622.577V4.324H621.101V7.852C621.101 8.404 621.281 8.608 621.941 8.608C622.193 8.608 622.457 8.572 622.697 8.536V9.328C622.445 9.436 622.169 9.556 621.605 9.556ZM625.379 9.604C624.275 9.604 623.483 9.052 623.483 7.864C623.483 6.772 624.203 6.232 625.391 6.076L626.927 5.896V5.368C626.927 4.456 626.543 4.252 625.463 4.252C624.863 4.252 624.359 4.348 623.987 4.432V3.604C624.551 3.376 625.175 3.256 625.931 3.256C627.311 3.256 628.115 3.832 628.115 5.068V9.496H627.143L627.035 8.98H626.963C626.675 9.34 626.171 9.604 625.379 9.604ZM625.691 8.74C626.195 8.74 626.687 8.572 626.927 8.344V6.712L625.655 6.844C625.007 6.916 624.683 7.18 624.683 7.816C624.683 8.44 625.079 8.74 625.691 8.74ZM629.655 9.496V3.376H630.795V3.904H630.843C631.359 3.544 632.151 3.256 632.895 3.256C634.083 3.256 634.659 3.748 634.659 4.936V9.496H633.471V5.212C633.471 4.54 633.279 4.264 632.355 4.264C631.839 4.264 631.251 4.444 630.831 4.648V9.496H629.655ZM638.378 9.604C637.19 9.604 635.882 8.86 635.882 6.628V6.472C635.882 4.228 637.022 3.256 638.594 3.256C639.338 3.256 639.83 3.46 640.118 3.628V0.736H641.306V9.496H640.298L640.19 9.004H640.13C639.77 9.364 639.182 9.604 638.378 9.604ZM638.786 8.668C639.422 8.668 639.866 8.404 640.118 8.212V4.576C639.878 4.372 639.35 4.24 638.774 4.24C637.73 4.24 637.094 4.768 637.094 6.328V6.58C637.094 8.188 637.778 8.668 638.786 8.668ZM642.91 9.496V3.376H644.086V9.496H642.91ZM642.898 2.236V1.084H644.098V2.236H642.898ZM645.722 9.496V3.376H646.862V3.904H646.91C647.426 3.544 648.218 3.256 648.962 3.256C650.15 3.256 650.726 3.748 650.726 4.936V9.496H649.538V5.212C649.538 4.54 649.346 4.264 648.422 4.264C647.906 4.264 647.318 4.444 646.898 4.648V9.496H645.722ZM654.468 11.272C652.584 11.272 651.672 10.864 651.672 9.952C651.672 9.316 652.188 8.908 652.812 8.692V8.632C652.464 8.512 652.188 8.368 652.188 7.96C652.188 7.528 652.416 7.168 652.896 6.832C652.44 6.52 652.128 6.04 652.128 5.356V5.236C652.128 3.964 653.112 3.256 654.504 3.256C654.84 3.256 655.14 3.292 655.428 3.352H657.504V4.204H656.52C656.736 4.444 656.844 4.78 656.844 5.188V5.308C656.844 6.592 655.824 7.204 654.492 7.204C654.144 7.204 653.808 7.168 653.496 7.072C653.364 7.204 653.268 7.36 653.268 7.516C653.268 7.828 653.436 7.852 653.832 7.852H655.512C656.652 7.852 657.468 8.26 657.468 9.448C657.468 10.576 656.592 11.272 654.468 11.272ZM654.444 10.396C655.776 10.396 656.244 10.216 656.244 9.628C656.244 9.124 655.956 8.92 655.236 8.92H653.592C653.184 9.052 652.884 9.328 652.884 9.784C652.884 10.264 653.328 10.396 654.444 10.396ZM654.492 6.388C655.26 6.388 655.692 6.052 655.692 5.356V5.188C655.692 4.42 655.224 4.096 654.492 4.096C653.748 4.096 653.292 4.468 653.292 5.164V5.332C653.292 6.052 653.772 6.388 654.492 6.388ZM663.629 9.556C662.609 9.556 661.937 9.136 661.937 8.02V4.324H661.073V3.376H661.937V1.936H663.125V3.376H664.601V4.324H663.125V7.852C663.125 8.404 663.305 8.608 663.965 8.608C664.217 8.608 664.481 8.572 664.721 8.536V9.328C664.469 9.436 664.193 9.556 663.629 9.556ZM665.878 9.496V0.736H667.054V3.88H667.114C667.618 3.532 668.374 3.256 669.118 3.256C670.306 3.256 670.882 3.748 670.882 4.936V9.496H669.694V5.212C669.694 4.54 669.502 4.264 668.578 4.264C668.062 4.264 667.474 4.444 667.054 4.648V9.496H665.878ZM675.033 9.604C673.053 9.604 672.069 8.428 672.069 6.508V6.352C672.069 4.252 673.329 3.256 674.805 3.256C676.533 3.256 677.337 4.252 677.337 6.184V6.76H673.281C673.365 8.164 674.049 8.632 675.249 8.632C676.053 8.632 676.581 8.44 677.145 8.188V9.016C676.761 9.292 676.053 9.604 675.033 9.604ZM674.757 4.192C674.109 4.192 673.377 4.528 673.281 5.896H676.101C676.101 4.66 675.645 4.192 674.757 4.192ZM681.855 9.496V1.276H686.847V2.308H683.091V4.756H686.007V5.776H683.091V8.464H686.895V9.496H681.855ZM688.468 9.496V4.324H687.58V3.376H688.468V2.548C688.468 1.216 689.284 0.64 690.412 0.64C690.94 0.64 691.288 0.736 691.504 0.844V1.648C691.348 1.612 691.06 1.564 690.676 1.564C690.028 1.564 689.656 1.888 689.656 2.656V3.376H691.012V4.324H689.656V9.496H688.468ZM692.453 9.496V4.324H691.565V3.376H692.453V2.548C692.453 1.216 693.269 0.64 694.397 0.64C694.925 0.64 695.273 0.736 695.489 0.844V1.648C695.333 1.612 695.045 1.564 694.661 1.564C694.013 1.564 693.641 1.888 693.641 2.656V3.376H694.997V4.324H693.641V9.496H692.453ZM698.681 9.604C696.701 9.604 695.717 8.428 695.717 6.508V6.352C695.717 4.252 696.977 3.256 698.453 3.256C700.181 3.256 700.985 4.252 700.985 6.184V6.76H696.929C697.013 8.164 697.697 8.632 698.897 8.632C699.701 8.632 700.229 8.44 700.793 8.188V9.016C700.409 9.292 699.701 9.604 698.681 9.604ZM698.405 4.192C697.757 4.192 697.025 4.528 696.929 5.896H699.749C699.749 4.66 699.293 4.192 698.405 4.192ZM704.691 9.604C702.939 9.604 701.823 8.608 701.823 6.58V6.376C701.823 4.24 703.107 3.256 704.763 3.256C705.567 3.256 706.035 3.412 706.443 3.652V4.624C705.903 4.396 705.531 4.252 704.751 4.252C703.707 4.252 703.047 4.936 703.047 6.22V6.532C703.047 8.008 703.671 8.632 704.871 8.632C705.651 8.632 706.191 8.38 706.515 8.224V9.124C706.107 9.388 705.543 9.604 704.691 9.604ZM709.765 9.556C708.745 9.556 708.073 9.136 708.073 8.02V4.324H707.209V3.376H708.073V1.936H709.261V3.376H710.737V4.324H709.261V7.852C709.261 8.404 709.441 8.608 710.101 8.608C710.353 8.608 710.617 8.572 710.857 8.536V9.328C710.605 9.436 710.329 9.556 709.765 9.556ZM717.651 9.604C715.839 9.604 714.807 8.476 714.807 6.568V6.364C714.807 4.42 715.959 3.256 717.663 3.256C719.439 3.256 720.483 4.396 720.483 6.328V6.508C720.483 8.452 719.319 9.604 717.651 9.604ZM717.663 8.68C718.659 8.68 719.247 7.972 719.247 6.628V6.304C719.247 4.684 718.527 4.204 717.639 4.204C716.607 4.204 716.019 4.912 716.019 6.256V6.58C716.019 8.2 716.751 8.68 717.663 8.68ZM722.054 9.496V4.324H721.166V3.376H722.054V2.548C722.054 1.216 722.87 0.64 723.998 0.64C724.526 0.64 724.874 0.736 725.09 0.844V1.648C724.934 1.612 724.646 1.564 724.262 1.564C723.614 1.564 723.242 1.888 723.242 2.656V3.376H724.598V4.324H723.242V9.496H722.054ZM728.999 9.496V1.276H731.567C733.391 1.276 734.363 2.068 734.363 3.652C734.363 4.816 733.775 5.428 732.827 5.788V5.848L734.927 9.496H733.547L731.627 6.076H730.235V9.496H728.999ZM730.235 5.164H731.447C732.599 5.164 733.067 4.684 733.067 3.688C733.067 2.692 732.575 2.284 731.435 2.284H730.235V5.164ZM738.548 9.604C736.568 9.604 735.584 8.428 735.584 6.508V6.352C735.584 4.252 736.844 3.256 738.32 3.256C740.048 3.256 740.852 4.252 740.852 6.184V6.76H736.796C736.88 8.164 737.564 8.632 738.764 8.632C739.568 8.632 740.096 8.44 740.66 8.188V9.016C740.276 9.292 739.568 9.604 738.548 9.604ZM738.272 4.192C737.624 4.192 736.892 4.528 736.796 5.896H739.616C739.616 4.66 739.16 4.192 738.272 4.192ZM742.41 9.496V4.324H741.522V3.376H742.41V2.548C742.41 1.216 743.226 0.64 744.354 0.64C744.882 0.64 745.23 0.736 745.446 0.844V1.648C745.29 1.612 745.002 1.564 744.618 1.564C743.97 1.564 743.598 1.888 743.598 2.656V3.376H744.954V4.324H743.598V9.496H742.41ZM746.07 9.496V0.736H747.246V9.496H746.07ZM751.486 9.604C749.506 9.604 748.522 8.428 748.522 6.508V6.352C748.522 4.252 749.782 3.256 751.258 3.256C752.986 3.256 753.79 4.252 753.79 6.184V6.76H749.734C749.818 8.164 750.502 8.632 751.702 8.632C752.506 8.632 753.034 8.44 753.598 8.188V9.016C753.214 9.292 752.506 9.604 751.486 9.604ZM751.21 4.192C750.562 4.192 749.83 4.528 749.734 5.896H752.554C752.554 4.66 752.098 4.192 751.21 4.192ZM757.495 9.604C755.743 9.604 754.627 8.608 754.627 6.58V6.376C754.627 4.24 755.911 3.256 757.567 3.256C758.371 3.256 758.839 3.412 759.247 3.652V4.624C758.707 4.396 758.335 4.252 757.555 4.252C756.511 4.252 755.851 4.936 755.851 6.22V6.532C755.851 8.008 756.475 8.632 757.675 8.632C758.455 8.632 758.995 8.38 759.319 8.224V9.124C758.911 9.388 758.347 9.604 757.495 9.604ZM762.57 9.556C761.55 9.556 760.878 9.136 760.878 8.02V4.324H760.014V3.376H760.878V1.936H762.066V3.376H763.542V4.324H762.066V7.852C762.066 8.404 762.246 8.608 762.906 8.608C763.158 8.608 763.422 8.572 763.662 8.536V9.328C763.41 9.436 763.134 9.556 762.57 9.556ZM764.855 9.496V3.376H766.031V9.496H764.855ZM764.843 2.236V1.084H766.043V2.236H764.843ZM769.323 9.496L767.079 3.376H768.351L769.947 8.02H769.983L771.603 3.376H772.755L770.523 9.496H769.323ZM776.353 9.604C774.373 9.604 773.389 8.428 773.389 6.508V6.352C773.389 4.252 774.649 3.256 776.125 3.256C777.853 3.256 778.657 4.252 778.657 6.184V6.76H774.601C774.685 8.164 775.369 8.632 776.569 8.632C777.373 8.632 777.901 8.44 778.465 8.188V9.016C778.081 9.292 777.373 9.604 776.353 9.604ZM776.077 4.192C775.429 4.192 774.697 4.528 774.601 5.896H777.421C777.421 4.66 776.965 4.192 776.077 4.192ZM783.211 9.496V1.276H784.459V9.496H783.211ZM788.269 9.556C787.249 9.556 786.577 9.136 786.577 8.02V4.324H785.713V3.376H786.577V1.936H787.765V3.376H789.241V4.324H787.765V7.852C787.765 8.404 787.945 8.608 788.605 8.608C788.857 8.608 789.121 8.572 789.361 8.536V9.328C789.109 9.436 788.833 9.556 788.269 9.556ZM793.123 9.604C791.143 9.604 790.159 8.428 790.159 6.508V6.352C790.159 4.252 791.419 3.256 792.895 3.256C794.623 3.256 795.427 4.252 795.427 6.184V6.76H791.371C791.455 8.164 792.139 8.632 793.339 8.632C794.143 8.632 794.671 8.44 795.235 8.188V9.016C794.851 9.292 794.143 9.604 793.123 9.604ZM792.847 4.192C792.199 4.192 791.467 4.528 791.371 5.896H794.191C794.191 4.66 793.735 4.192 792.847 4.192ZM796.624 9.496V3.376H797.764V4.06H797.812C798.172 3.652 798.796 3.304 799.456 3.304C799.6 3.304 799.78 3.316 799.84 3.352V4.408C799.684 4.384 799.48 4.372 799.36 4.372C798.784 4.372 798.22 4.54 797.8 4.816V9.496H796.624ZM802.238 9.604C801.134 9.604 800.342 9.052 800.342 7.864C800.342 6.772 801.062 6.232 802.25 6.076L803.786 5.896V5.368C803.786 4.456 803.402 4.252 802.322 4.252C801.722 4.252 801.218 4.348 800.846 4.432V3.604C801.41 3.376 802.034 3.256 802.79 3.256C804.17 3.256 804.974 3.832 804.974 5.068V9.496H804.002L803.894 8.98H803.822C803.534 9.34 803.03 9.604 802.238 9.604ZM802.55 8.74C803.054 8.74 803.546 8.572 803.786 8.344V6.712L802.514 6.844C801.866 6.916 801.542 7.18 801.542 7.816C801.542 8.44 801.938 8.74 802.55 8.74ZM808.543 9.556C807.523 9.556 806.851 9.136 806.851 8.02V4.324H805.987V3.376H806.851V1.936H808.039V3.376H809.515V4.324H808.039V7.852C808.039 8.404 808.219 8.608 808.879 8.608C809.131 8.608 809.395 8.572 809.635 8.536V9.328C809.383 9.436 809.107 9.556 808.543 9.556ZM810.828 9.496V3.376H812.004V9.496H810.828ZM810.816 2.236V1.084H812.016V2.236H810.816ZM816.124 9.604C814.312 9.604 813.28 8.476 813.28 6.568V6.364C813.28 4.42 814.432 3.256 816.136 3.256C817.912 3.256 818.956 4.396 818.956 6.328V6.508C818.956 8.452 817.792 9.604 816.124 9.604ZM816.136 8.68C817.132 8.68 817.72 7.972 817.72 6.628V6.304C817.72 4.684 817 4.204 816.112 4.204C815.08 4.204 814.492 4.912 814.492 6.256V6.58C814.492 8.2 815.224 8.68 816.136 8.68ZM820.167 9.496V3.376H821.307V3.904H821.355C821.871 3.544 822.663 3.256 823.407 3.256C824.595 3.256 825.171 3.748 825.171 4.936V9.496H823.983V5.212C823.983 4.54 823.791 4.264 822.867 4.264C822.351 4.264 821.763 4.444 821.343 4.648V9.496H820.167ZM832.354 9.604C830.542 9.604 829.51 8.476 829.51 6.568V6.364C829.51 4.42 830.662 3.256 832.366 3.256C834.142 3.256 835.186 4.396 835.186 6.328V6.508C835.186 8.452 834.022 9.604 832.354 9.604ZM832.366 8.68C833.362 8.68 833.95 7.972 833.95 6.628V6.304C833.95 4.684 833.23 4.204 832.342 4.204C831.31 4.204 830.722 4.912 830.722 6.256V6.58C830.722 8.2 831.454 8.68 832.366 8.68ZM836.397 9.496V3.376H837.537V3.904H837.585C838.101 3.544 838.893 3.256 839.637 3.256C840.825 3.256 841.401 3.748 841.401 4.936V9.496H840.213V5.212C840.213 4.54 840.021 4.264 839.097 4.264C838.581 4.264 837.993 4.444 837.573 4.648V9.496H836.397ZM846.305 9.496V1.276H847.553V9.496H846.305ZM849.335 9.496V3.376H850.475V3.904H850.523C851.039 3.544 851.831 3.256 852.575 3.256C853.763 3.256 854.339 3.748 854.339 4.936V9.496H853.151V5.212C853.151 4.54 852.959 4.264 852.035 4.264C851.519 4.264 850.931 4.444 850.511 4.648V9.496H849.335ZM858.058 9.604C856.87 9.604 855.562 8.86 855.562 6.628V6.472C855.562 4.228 856.702 3.256 858.274 3.256C859.018 3.256 859.51 3.46 859.798 3.628V0.736H860.986V9.496H859.978L859.87 9.004H859.81C859.45 9.364 858.862 9.604 858.058 9.604ZM858.466 8.668C859.102 8.668 859.546 8.404 859.798 8.212V4.576C859.558 4.372 859.03 4.24 858.454 4.24C857.41 4.24 856.774 4.768 856.774 6.328V6.58C856.774 8.188 857.458 8.668 858.466 8.668ZM862.59 9.496V3.376H863.766V9.496H862.59ZM862.578 2.236V1.084H863.778V2.236H862.578ZM867.057 9.496L864.813 3.376H866.085L867.681 8.02H867.717L869.337 3.376H870.489L868.257 9.496H867.057ZM871.519 9.496V3.376H872.695V9.496H871.519ZM871.507 2.236V1.084H872.707V2.236H871.507ZM876.503 9.604C875.315 9.604 874.007 8.86 874.007 6.628V6.472C874.007 4.228 875.147 3.256 876.719 3.256C877.463 3.256 877.955 3.46 878.243 3.628V0.736H879.431V9.496H878.423L878.315 9.004H878.255C877.895 9.364 877.307 9.604 876.503 9.604ZM876.911 8.668C877.547 8.668 877.991 8.404 878.243 8.212V4.576C878.003 4.372 877.475 4.24 876.899 4.24C875.855 4.24 875.219 4.768 875.219 6.328V6.58C875.219 8.188 875.903 8.668 876.911 8.668ZM882.823 9.604C881.623 9.604 880.963 9.004 880.963 7.816V3.376H882.151V7.612C882.151 8.332 882.391 8.608 883.219 8.608C883.819 8.608 884.299 8.404 884.719 8.212V3.376H885.895V9.496H884.887L884.767 8.968H884.707C884.203 9.328 883.591 9.604 882.823 9.604ZM889.004 9.604C887.9 9.604 887.108 9.052 887.108 7.864C887.108 6.772 887.828 6.232 889.016 6.076L890.552 5.896V5.368C890.552 4.456 890.168 4.252 889.088 4.252C888.488 4.252 887.984 4.348 887.612 4.432V3.604C888.176 3.376 888.8 3.256 889.556 3.256C890.936 3.256 891.74 3.832 891.74 5.068V9.496H890.768L890.66 8.98H890.588C890.3 9.34 889.796 9.604 889.004 9.604ZM889.316 8.74C889.82 8.74 890.312 8.572 890.552 8.344V6.712L889.28 6.844C888.632 6.916 888.308 7.18 888.308 7.816C888.308 8.44 888.704 8.74 889.316 8.74ZM893.316 9.496V0.736H894.492V9.496H893.316ZM897.748 9.592C896.956 9.592 896.248 9.46 895.756 9.16V8.272C896.26 8.464 896.716 8.656 897.58 8.656C898.456 8.656 898.84 8.356 898.84 7.84C898.84 7.372 898.612 7.144 897.868 6.976L897.304 6.82C896.392 6.604 895.768 6.16 895.768 5.08C895.768 3.988 896.464 3.256 897.952 3.256C898.792 3.256 899.308 3.436 899.668 3.616V4.528C899.344 4.396 898.72 4.228 898.048 4.228C897.28 4.228 896.896 4.456 896.896 4.984C896.896 5.452 897.136 5.632 897.748 5.8L898.324 5.944C899.524 6.232 900.004 6.664 900.004 7.756C900.004 8.968 899.14 9.592 897.748 9.592ZM902.27 0.676V2.032C902.27 2.896 901.694 3.64 900.878 3.82V3.184C901.334 3.052 901.622 2.68 901.634 2.104H900.854V0.676H902.27ZM0.96 27.496V19.276H3.672C5.556 19.276 6.48 20.164 6.48 21.748C6.48 23.44 5.4 24.328 3.78 24.328H2.196V27.496H0.96ZM2.196 23.356H3.54C4.728 23.356 5.172 22.852 5.172 21.844C5.172 20.728 4.74 20.284 3.564 20.284H2.196V23.356ZM7.64747 27.496V18.736H8.82347V21.88H8.88347C9.38747 21.532 10.1435 21.256 10.8875 21.256C12.0755 21.256 12.6515 21.748 12.6515 22.936V27.496H11.4635V23.212C11.4635 22.54 11.2715 22.264 10.3475 22.264C9.83147 22.264 9.24347 22.444 8.82347 22.648V27.496H7.64747ZM14.6903 29.284C14.4023 29.284 14.0423 29.2 13.8743 29.116V28.288C14.0183 28.336 14.2463 28.36 14.4503 28.36C15.0263 28.36 15.4583 28.312 15.6383 27.844L15.9023 27.16L13.5623 21.376H14.8223L16.4902 25.66H16.5143L18.0503 21.376H19.2023L16.7423 28.012C16.3223 29.164 15.7703 29.284 14.6903 29.284ZM21.7831 27.592C20.9911 27.592 20.2831 27.46 19.7911 27.16V26.272C20.2951 26.464 20.7511 26.656 21.6151 26.656C22.4911 26.656 22.8751 26.356 22.8751 25.84C22.8751 25.372 22.6471 25.144 21.9031 24.976L21.3391 24.82C20.4271 24.604 19.8031 24.16 19.8031 23.08C19.8031 21.988 20.4991 21.256 21.9871 21.256C22.8271 21.256 23.3431 21.436 23.7031 21.616V22.528C23.3791 22.396 22.7551 22.228 22.0831 22.228C21.3151 22.228 20.9311 22.456 20.9311 22.984C20.9311 23.452 21.1711 23.632 21.7831 23.8L22.3591 23.944C23.5591 24.232 24.0391 24.664 24.0391 25.756C24.0391 26.968 23.1751 27.592 21.7831 27.592ZM25.285 27.496V21.376H26.461V27.496H25.285ZM25.273 20.236V19.084H26.473V20.236H25.273ZM30.6047 27.604C28.8527 27.604 27.7367 26.608 27.7367 24.58V24.376C27.7367 22.24 29.0207 21.256 30.6767 21.256C31.4807 21.256 31.9487 21.412 32.3567 21.652V22.624C31.8167 22.396 31.4447 22.252 30.6647 22.252C29.6207 22.252 28.9607 22.936 28.9607 24.22V24.532C28.9607 26.008 29.5847 26.632 30.7847 26.632C31.5647 26.632 32.1047 26.38 32.4287 26.224V27.124C32.0207 27.388 31.4567 27.604 30.6047 27.604ZM35.0582 27.604C33.9542 27.604 33.1622 27.052 33.1622 25.864C33.1622 24.772 33.8822 24.232 35.0702 24.076L36.6062 23.896V23.368C36.6062 22.456 36.2222 22.252 35.1422 22.252C34.5422 22.252 34.0382 22.348 33.6662 22.432V21.604C34.2302 21.376 34.8542 21.256 35.6102 21.256C36.9902 21.256 37.7942 21.832 37.7942 23.068V27.496H36.8222L36.7142 26.98H36.6422C36.3542 27.34 35.8502 27.604 35.0582 27.604ZM35.3702 26.74C35.8742 26.74 36.3662 26.572 36.6062 26.344V24.712L35.3342 24.844C34.6862 24.916 34.3622 25.18 34.3622 25.816C34.3622 26.44 34.7582 26.74 35.3702 26.74ZM39.371 27.496V18.736H40.547V27.496H39.371ZM44.687 27.496L47.663 19.276H48.911L51.863 27.496H50.567L49.775 25.264H46.631L45.851 27.496H44.687ZM48.167 20.836L46.967 24.28H49.415L48.203 20.836H48.167ZM55.2961 27.604C53.5441 27.604 52.4281 26.608 52.4281 24.58V24.376C52.4281 22.24 53.7121 21.256 55.3681 21.256C56.1721 21.256 56.6401 21.412 57.0481 21.652V22.624C56.5081 22.396 56.1361 22.252 55.3561 22.252C54.3121 22.252 53.6521 22.936 53.6521 24.22V24.532C53.6521 26.008 54.2761 26.632 55.4761 26.632C56.2561 26.632 56.7961 26.38 57.1201 26.224V27.124C56.7121 27.388 56.1481 27.604 55.2961 27.604ZM60.3708 27.556C59.3508 27.556 58.6788 27.136 58.6788 26.02V22.324H57.8148V21.376H58.6788V19.936H59.8668V21.376H61.3428V22.324H59.8668V25.852C59.8668 26.404 60.0468 26.608 60.7068 26.608C60.9588 26.608 61.2228 26.572 61.4628 26.536V27.328C61.2108 27.436 60.9348 27.556 60.3708 27.556ZM62.6561 27.496V21.376H63.8321V27.496H62.6561ZM62.6441 20.236V19.084H63.8441V20.236H62.6441ZM67.1238 27.496L64.8798 21.376H66.1518L67.7478 26.02H67.7838L69.4038 21.376H70.5558L68.3238 27.496H67.1238ZM71.5858 27.496V21.376H72.7618V27.496H71.5858ZM71.5738 20.236V19.084H72.7738V20.236H71.5738ZM76.4255 27.556C75.4055 27.556 74.7335 27.136 74.7335 26.02V22.324H73.8695V21.376H74.7335V19.936H75.9215V21.376H77.3975V22.324H75.9215V25.852C75.9215 26.404 76.1015 26.608 76.7615 26.608C77.0135 26.608 77.2775 26.572 77.5175 26.536V27.328C77.2655 27.436 76.9895 27.556 76.4255 27.556ZM79.1668 29.284C78.8788 29.284 78.5188 29.2 78.3508 29.116V28.288C78.4948 28.336 78.7228 28.36 78.9268 28.36C79.5028 28.36 79.9348 28.312 80.1148 27.844L80.3788 27.16L78.0388 21.376H79.2988L80.9668 25.66H80.9908L82.5268 21.376H83.6788L81.2188 28.012C80.7988 29.164 80.2468 29.284 79.1668 29.284ZM87.96 27.496V19.276H90.672C92.556 19.276 93.48 20.164 93.48 21.748C93.48 23.44 92.4 24.328 90.78 24.328H89.196V27.496H87.96ZM89.196 23.356H90.54C91.728 23.356 92.172 22.852 92.172 21.844C92.172 20.728 91.74 20.284 90.564 20.284H89.196V23.356ZM94.6835 27.496V18.736H95.8595V27.496H94.6835ZM99.0191 27.604C97.9151 27.604 97.1231 27.052 97.1231 25.864C97.1231 24.772 97.8431 24.232 99.0311 24.076L100.567 23.896V23.368C100.567 22.456 100.183 22.252 99.1031 22.252C98.5031 22.252 97.9991 22.348 97.6271 22.432V21.604C98.1911 21.376 98.8151 21.256 99.5711 21.256C100.951 21.256 101.755 21.832 101.755 23.068V27.496H100.783L100.675 26.98H100.603C100.315 27.34 99.8111 27.604 99.0191 27.604ZM99.3311 26.74C99.8351 26.74 100.327 26.572 100.567 26.344V24.712L99.2951 24.844C98.6471 24.916 98.3231 25.18 98.3231 25.816C98.3231 26.44 98.7191 26.74 99.3311 26.74ZM103.296 27.496V21.376H104.436V21.904H104.484C105 21.544 105.792 21.256 106.536 21.256C107.724 21.256 108.3 21.748 108.3 22.936V27.496H107.112V23.212C107.112 22.54 106.92 22.264 105.996 22.264C105.48 22.264 104.892 22.444 104.472 22.648V27.496H103.296ZM109.847 27.496V21.376H110.987V21.904H111.035C111.551 21.544 112.343 21.256 113.087 21.256C114.275 21.256 114.851 21.748 114.851 22.936V27.496H113.663V23.212C113.663 22.54 113.471 22.264 112.547 22.264C112.031 22.264 111.443 22.444 111.023 22.648V27.496H109.847ZM116.433 27.496V21.376H117.609V27.496H116.433ZM116.421 20.236V19.084H117.621V20.236H116.421ZM119.245 27.496V21.376H120.385V21.904H120.433C120.949 21.544 121.741 21.256 122.485 21.256C123.673 21.256 124.249 21.748 124.249 22.936V27.496H123.061V23.212C123.061 22.54 122.869 22.264 121.945 22.264C121.429 22.264 120.841 22.444 120.421 22.648V27.496H119.245ZM127.992 29.272C126.108 29.272 125.196 28.864 125.196 27.952C125.196 27.316 125.712 26.908 126.336 26.692V26.632C125.988 26.512 125.712 26.368 125.712 25.96C125.712 25.528 125.94 25.168 126.42 24.832C125.964 24.52 125.652 24.04 125.652 23.356V23.236C125.652 21.964 126.636 21.256 128.028 21.256C128.364 21.256 128.664 21.292 128.952 21.352H131.028V22.204H130.044C130.26 22.444 130.368 22.78 130.368 23.188V23.308C130.368 24.592 129.348 25.204 128.016 25.204C127.668 25.204 127.332 25.168 127.02 25.072C126.888 25.204 126.792 25.36 126.792 25.516C126.792 25.828 126.96 25.852 127.356 25.852H129.036C130.176 25.852 130.992 26.26 130.992 27.448C130.992 28.576 130.116 29.272 127.992 29.272ZM127.968 28.396C129.3 28.396 129.768 28.216 129.768 27.628C129.768 27.124 129.48 26.92 128.76 26.92H127.116C126.708 27.052 126.408 27.328 126.408 27.784C126.408 28.264 126.852 28.396 127.968 28.396ZM128.016 24.388C128.784 24.388 129.216 24.052 129.216 23.356V23.188C129.216 22.42 128.748 22.096 128.016 22.096C127.272 22.096 126.816 22.468 126.816 23.164V23.332C126.816 24.052 127.296 24.388 128.016 24.388ZM132.02 27.628V26.332H133.34V27.628H132.02Z" fill="black"/>
</svg>
