<svg width="22" height="13" viewBox="0 0 22 13" fill="none" xmlns="http://www.w3.org/2000/svg">
<path d="M2.62793 10.708C1.52637 9.60059 0.975586 8.23242 0.975586 6.60352C0.975586 4.96875 1.52637 3.60059 2.62793 2.49902C3.72949 1.3916 5.12695 0.837891 6.82031 0.837891C8.64258 0.837891 10.1865 1.5 11.4521 2.82422L9.63281 4.54688C8.80664 3.74414 7.86914 3.34277 6.82031 3.34277C5.87109 3.34277 5.10645 3.65625 4.52637 4.2832C3.94629 4.9043 3.65625 5.67773 3.65625 6.60352C3.65625 7.52344 3.94629 8.29688 4.52637 8.92383C5.10645 9.54492 5.87109 9.85547 6.82031 9.85547C7.86328 9.85547 8.80078 9.4541 9.63281 8.65137L11.3906 10.3828C10.1309 11.7012 8.60742 12.3604 6.82031 12.3604C5.12695 12.3604 3.72949 11.8096 2.62793 10.708ZM16.4443 12.3604L11.6719 1.19824H14.4316L16.6113 6.40137L18.7822 1.19824H21.542L16.7695 12.3604H16.4443Z" fill="black"/>
</svg>
