<svg width="270" height="316" viewBox="0 0 270 316" fill="none" xmlns="http://www.w3.org/2000/svg">
<rect width="270" height="316" rx="11" transform="matrix(1 0 0 -1 0 316)" fill="black"/>
<path d="M32.472 115H30.24V102.52H27V100.432H35.712V102.52H32.472V115ZM45.6548 115H43.3748V114.136C42.7028 114.92 41.7028 115.312 40.3748 115.312C39.0468 115.312 37.9828 114.8 37.1828 113.776C36.3988 112.752 36.0068 111.552 36.0068 110.176C36.0068 108.8 36.4068 107.632 37.2068 106.672C38.0228 105.696 39.0628 105.208 40.3268 105.208C41.6708 105.208 42.6868 105.608 43.3748 106.408V105.52H45.6548V115ZM43.6388 110.248C43.6388 109.368 43.3908 108.648 42.8948 108.088C42.3988 107.512 41.7588 107.224 40.9748 107.224C40.2068 107.224 39.5748 107.504 39.0788 108.064C38.5988 108.608 38.3588 109.336 38.3588 110.248C38.3588 111.16 38.6068 111.896 39.1028 112.456C39.5988 113.016 40.2388 113.296 41.0228 113.296C41.8068 113.296 42.4388 113.024 42.9188 112.48C43.3988 111.936 43.6388 111.192 43.6388 110.248ZM49.9286 106.384C50.6006 105.6 51.6006 105.208 52.9286 105.208C54.1766 105.208 55.2086 105.704 56.0246 106.696C56.8566 107.688 57.2726 108.856 57.2726 110.2C57.2726 111.656 56.8646 112.872 56.0486 113.848C55.2326 114.824 54.1766 115.312 52.8806 115.312C51.4886 115.312 50.5206 114.912 49.9766 114.112L49.9286 119.008H47.6006V105.52H49.9286V106.384ZM54.8966 110.248C54.8966 109.432 54.6646 108.728 54.2006 108.136C53.7366 107.528 53.0966 107.224 52.2806 107.224C51.5286 107.224 50.9046 107.528 50.4086 108.136C49.9126 108.744 49.6646 109.448 49.6646 110.248C49.6646 111.032 49.9286 111.736 50.4566 112.36C50.9846 112.984 51.5926 113.296 52.2806 113.296C53.0966 113.296 53.7366 113.008 54.2006 112.432C54.6646 111.856 54.8966 111.128 54.8966 110.248ZM61.3785 115H59.0505V107.608H57.9225V105.712H59.0505V102.304H61.3785V105.712H63.2265V107.608H61.3785V115ZM73.1314 110.248C73.1314 111.736 72.6754 112.952 71.7634 113.896C70.8514 114.84 69.6514 115.312 68.1634 115.312C66.6914 115.312 65.4914 114.84 64.5634 113.896C63.6354 112.952 63.1714 111.744 63.1714 110.272C63.1714 108.784 63.6274 107.568 64.5394 106.624C65.4514 105.68 66.6514 105.208 68.1394 105.208C69.6274 105.208 70.8274 105.68 71.7394 106.624C72.6674 107.552 73.1314 108.76 73.1314 110.248ZM65.5234 110.296C65.5234 111.176 65.7714 111.896 66.2674 112.456C66.7634 113.016 67.4034 113.296 68.1874 113.296C68.9714 113.296 69.5954 113 70.0594 112.408C70.5394 111.8 70.7794 111.088 70.7794 110.272C70.7794 109.44 70.5394 108.728 70.0594 108.136C69.5794 107.528 68.9474 107.224 68.1634 107.224C67.3954 107.224 66.7634 107.512 66.2674 108.088C65.7714 108.664 65.5234 109.4 65.5234 110.296Z" fill="white"/>
<circle cx="40.9089" cy="35.7273" r="11.7273" fill="white"/>
<circle cx="45.2728" cy="57.5455" r="7.36364" fill="white"/>
<circle cx="61.6366" cy="41.7272" r="7.36364" fill="white"/>
<circle cx="51.5455" cy="47.4545" r="1.63636" fill="white"/>
<circle cx="30.8182" cy="51.8182" r="3.81818" fill="white"/>
<circle cx="57.8182" cy="28.8182" r="3.81818" fill="white"/>
<circle cx="59.1819" cy="55.6363" r="3.81818" fill="white"/>
<path d="M29.808 168.552L28.836 171H26.874L31.122 159.786H32.778L36.918 171H34.938L34.02 168.552H29.808ZM31.842 162.468L30.258 167.094H33.516L31.842 162.468ZM47.3383 165.366C46.9543 165.006 46.5523 164.826 46.1323 164.826C45.4963 164.826 45.1783 165.114 45.1783 165.69C45.1783 166.014 45.4663 166.278 46.0423 166.482C47.0983 166.866 47.7523 167.22 48.0043 167.544C48.2563 167.856 48.3823 168.246 48.3823 168.714C48.3823 169.482 48.1123 170.094 47.5723 170.55C47.0443 171.006 46.3903 171.234 45.6103 171.234C44.6023 171.234 43.7683 170.838 43.1083 170.046L43.8823 169.056C44.4823 169.656 45.0343 169.956 45.5383 169.956C46.2703 169.956 46.6363 169.602 46.6363 168.894C46.6363 168.534 46.4443 168.27 46.0603 168.102C45.6763 167.922 45.3823 167.79 45.1783 167.706C44.0743 167.226 43.5223 166.644 43.5223 165.96C43.5223 165.276 43.7263 164.724 44.1343 164.304C44.5543 163.872 45.1003 163.656 45.7723 163.656C46.7323 163.656 47.4943 163.902 48.0583 164.394L47.3383 165.366ZM56.4657 167.436C56.4657 168.552 56.1237 169.464 55.4397 170.172C54.7557 170.88 53.8557 171.234 52.7397 171.234C51.6357 171.234 50.7357 170.88 50.0397 170.172C49.3437 169.464 48.9957 168.558 48.9957 167.454C48.9957 166.338 49.3377 165.426 50.0217 164.718C50.7057 164.01 51.6057 163.656 52.7217 163.656C53.8377 163.656 54.7377 164.01 55.4217 164.718C56.1177 165.414 56.4657 166.32 56.4657 167.436ZM50.7597 167.472C50.7597 168.132 50.9457 168.672 51.3177 169.092C51.6897 169.512 52.1697 169.722 52.7577 169.722C53.3457 169.722 53.8137 169.5 54.1617 169.056C54.5217 168.6 54.7017 168.066 54.7017 167.454C54.7017 166.83 54.5217 166.296 54.1617 165.852C53.8017 165.396 53.3277 165.168 52.7397 165.168C52.1637 165.168 51.6897 165.384 51.3177 165.816C50.9457 166.248 50.7597 166.8 50.7597 167.472ZM62.269 165.744C61.825 165.3 61.327 165.078 60.775 165.078C60.127 165.078 59.617 165.312 59.245 165.78C58.873 166.248 58.687 166.824 58.687 167.508C58.687 168.18 58.897 168.732 59.317 169.164C59.737 169.596 60.247 169.812 60.847 169.812C61.363 169.812 61.837 169.584 62.269 169.128V170.802C61.765 171.09 61.183 171.234 60.523 171.234C59.491 171.234 58.633 170.868 57.949 170.136C57.265 169.404 56.923 168.51 56.923 167.454C56.923 166.398 57.271 165.504 57.967 164.772C58.675 164.028 59.557 163.656 60.613 163.656C61.237 163.656 61.789 163.806 62.269 164.106V165.744ZM65.6686 160.902C65.6686 161.178 65.5666 161.418 65.3626 161.622C65.1586 161.826 64.9186 161.928 64.6426 161.928C64.3666 161.928 64.1266 161.826 63.9226 161.622C63.7186 161.418 63.6166 161.178 63.6166 160.902C63.6166 160.626 63.7186 160.386 63.9226 160.182C64.1266 159.978 64.3666 159.876 64.6426 159.876C64.9186 159.876 65.1586 159.978 65.3626 160.182C65.5666 160.386 65.6686 160.626 65.6686 160.902ZM65.5246 171H63.7786V163.89H65.5246V171ZM73.9325 171H72.2225V170.352C71.7185 170.94 70.9685 171.234 69.9725 171.234C68.9765 171.234 68.1785 170.85 67.5785 170.082C66.9905 169.314 66.6965 168.414 66.6965 167.382C66.6965 166.35 66.9965 165.474 67.5965 164.754C68.2085 164.022 68.9885 163.656 69.9365 163.656C70.9445 163.656 71.7065 163.956 72.2225 164.556V163.89H73.9325V171ZM72.4205 167.436C72.4205 166.776 72.2345 166.236 71.8625 165.816C71.4905 165.384 71.0105 165.168 70.4225 165.168C69.8465 165.168 69.3725 165.378 69.0005 165.798C68.6405 166.206 68.4605 166.752 68.4605 167.436C68.4605 168.12 68.6465 168.672 69.0185 169.092C69.3905 169.512 69.8705 169.722 70.4585 169.722C71.0465 169.722 71.5205 169.518 71.8805 169.11C72.2405 168.702 72.4205 168.144 72.4205 167.436ZM77.2819 171H75.5359V158.706H77.2819V171ZM91.5985 171H89.8885V170.352C89.3845 170.94 88.6345 171.234 87.6385 171.234C86.6425 171.234 85.8445 170.85 85.2445 170.082C84.6565 169.314 84.3625 168.414 84.3625 167.382C84.3625 166.35 84.6625 165.474 85.2625 164.754C85.8745 164.022 86.6545 163.656 87.6025 163.656C88.6105 163.656 89.3725 163.956 89.8885 164.556V163.89H91.5985V171ZM90.0865 167.436C90.0865 166.776 89.9005 166.236 89.5285 165.816C89.1565 165.384 88.6765 165.168 88.0885 165.168C87.5125 165.168 87.0385 165.378 86.6665 165.798C86.3065 166.206 86.1265 166.752 86.1265 167.436C86.1265 168.12 86.3125 168.672 86.6845 169.092C87.0565 169.512 87.5365 169.722 88.1245 169.722C88.7125 169.722 89.1865 169.518 89.5465 169.11C89.9065 168.702 90.0865 168.144 90.0865 167.436ZM94.8039 164.538C95.3079 163.95 96.0579 163.656 97.0539 163.656C97.9899 163.656 98.7639 164.028 99.3759 164.772C99.9999 165.516 100.312 166.392 100.312 167.4C100.312 168.492 100.006 169.404 99.3939 170.136C98.7819 170.868 97.9899 171.234 97.0179 171.234C95.9739 171.234 95.2479 170.934 94.8399 170.334L94.8039 174.006H93.0579V163.89H94.8039V164.538ZM98.5299 167.436C98.5299 166.824 98.3559 166.296 98.0079 165.852C97.6599 165.396 97.1799 165.168 96.5679 165.168C96.0039 165.168 95.5359 165.396 95.1639 165.852C94.7919 166.308 94.6059 166.836 94.6059 167.436C94.6059 168.024 94.8039 168.552 95.1999 169.02C95.5959 169.488 96.0519 169.722 96.5679 169.722C97.1799 169.722 97.6599 169.506 98.0079 169.074C98.3559 168.642 98.5299 168.096 98.5299 167.436ZM102.995 164.538C103.499 163.95 104.249 163.656 105.245 163.656C106.181 163.656 106.955 164.028 107.567 164.772C108.191 165.516 108.503 166.392 108.503 167.4C108.503 168.492 108.197 169.404 107.585 170.136C106.973 170.868 106.181 171.234 105.209 171.234C104.165 171.234 103.439 170.934 103.031 170.334L102.995 174.006H101.249V163.89H102.995V164.538ZM106.721 167.436C106.721 166.824 106.547 166.296 106.199 165.852C105.851 165.396 105.371 165.168 104.759 165.168C104.195 165.168 103.727 165.396 103.355 165.852C102.983 166.308 102.797 166.836 102.797 167.436C102.797 168.024 102.995 168.552 103.391 169.02C103.787 169.488 104.243 169.722 104.759 169.722C105.371 169.722 105.851 169.506 106.199 169.074C106.547 168.642 106.721 168.096 106.721 167.436ZM118.152 168.534L120.042 163.656H120.672L122.652 168.516L124.416 163.89H126.342L123.03 171.144H122.148L120.51 166.59L118.638 171.144H117.738L114.48 163.89H116.406L118.152 168.534ZM128.536 158.706V164.484C128.992 163.932 129.718 163.656 130.714 163.656C131.458 163.656 132.052 163.944 132.496 164.52C132.94 165.096 133.162 165.81 133.162 166.662V171H131.434V167.238C131.434 165.738 130.972 164.988 130.048 164.988C129.04 164.988 128.536 165.816 128.536 167.472V171H126.79V158.706H128.536ZM136.755 160.902C136.755 161.178 136.653 161.418 136.449 161.622C136.245 161.826 136.005 161.928 135.729 161.928C135.453 161.928 135.213 161.826 135.009 161.622C134.805 161.418 134.703 161.178 134.703 160.902C134.703 160.626 134.805 160.386 135.009 160.182C135.213 159.978 135.453 159.876 135.729 159.876C136.005 159.876 136.245 159.978 136.449 160.182C136.653 160.386 136.755 160.626 136.755 160.902ZM136.611 171H134.865V163.89H136.611V171ZM143.128 165.744C142.684 165.3 142.186 165.078 141.634 165.078C140.986 165.078 140.476 165.312 140.104 165.78C139.732 166.248 139.546 166.824 139.546 167.508C139.546 168.18 139.756 168.732 140.176 169.164C140.596 169.596 141.106 169.812 141.706 169.812C142.222 169.812 142.696 169.584 143.128 169.128V170.802C142.624 171.09 142.042 171.234 141.382 171.234C140.35 171.234 139.492 170.868 138.808 170.136C138.124 169.404 137.782 168.51 137.782 167.454C137.782 166.398 138.13 165.504 138.826 164.772C139.534 164.028 140.416 163.656 141.472 163.656C142.096 163.656 142.648 163.806 143.128 164.106V165.744ZM146.132 158.706V164.484C146.588 163.932 147.314 163.656 148.31 163.656C149.054 163.656 149.648 163.944 150.092 164.52C150.536 165.096 150.758 165.81 150.758 166.662V171H149.03V167.238C149.03 165.738 148.568 164.988 147.644 164.988C146.636 164.988 146.132 165.816 146.132 167.472V171H144.386V158.706H146.132ZM159.966 164.538C160.47 163.95 161.22 163.656 162.216 163.656C163.152 163.656 163.926 164.028 164.538 164.772C165.162 165.516 165.474 166.392 165.474 167.4C165.474 168.492 165.168 169.404 164.556 170.136C163.944 170.868 163.152 171.234 162.18 171.234C161.136 171.234 160.41 170.934 160.002 170.334L159.966 174.006H158.22V163.89H159.966V164.538ZM163.692 167.436C163.692 166.824 163.518 166.296 163.17 165.852C162.822 165.396 162.342 165.168 161.73 165.168C161.166 165.168 160.698 165.396 160.326 165.852C159.954 166.308 159.768 166.836 159.768 167.436C159.768 168.024 159.966 168.552 160.362 169.02C160.758 169.488 161.214 169.722 161.73 169.722C162.342 169.722 162.822 169.506 163.17 169.074C163.518 168.642 163.692 168.096 163.692 167.436ZM168.157 164.628C168.601 163.98 169.297 163.656 170.245 163.656C170.545 163.656 170.821 163.716 171.073 163.836L170.857 165.42C170.593 165.252 170.305 165.168 169.993 165.168C168.769 165.168 168.157 166.044 168.157 167.796V171H166.411V163.89H168.157V164.628ZM178.704 167.436C178.704 168.552 178.362 169.464 177.678 170.172C176.994 170.88 176.094 171.234 174.978 171.234C173.874 171.234 172.974 170.88 172.278 170.172C171.582 169.464 171.234 168.558 171.234 167.454C171.234 166.338 171.576 165.426 172.26 164.718C172.944 164.01 173.844 163.656 174.96 163.656C176.076 163.656 176.976 164.01 177.66 164.718C178.356 165.414 178.704 166.32 178.704 167.436ZM172.998 167.472C172.998 168.132 173.184 168.672 173.556 169.092C173.928 169.512 174.408 169.722 174.996 169.722C175.584 169.722 176.052 169.5 176.4 169.056C176.76 168.6 176.94 168.066 176.94 167.454C176.94 166.83 176.76 166.296 176.4 165.852C176.04 165.396 175.566 165.168 174.978 165.168C174.402 165.168 173.928 165.384 173.556 165.816C173.184 166.248 172.998 166.8 172.998 167.472ZM182.581 168.39L184.327 163.89H186.271L182.995 171.144H181.951L178.693 163.89H180.619L182.581 168.39ZM188.874 160.902C188.874 161.178 188.772 161.418 188.568 161.622C188.364 161.826 188.124 161.928 187.848 161.928C187.572 161.928 187.332 161.826 187.128 161.622C186.924 161.418 186.822 161.178 186.822 160.902C186.822 160.626 186.924 160.386 187.128 160.182C187.332 159.978 187.572 159.876 187.848 159.876C188.124 159.876 188.364 159.978 188.568 160.182C188.772 160.386 188.874 160.626 188.874 160.902ZM188.73 171H186.984V163.89H188.73V171ZM195.41 170.334C194.942 170.934 194.204 171.234 193.196 171.234C192.188 171.234 191.384 170.85 190.784 170.082C190.196 169.314 189.902 168.414 189.902 167.382C189.902 166.35 190.202 165.474 190.802 164.754C191.414 164.022 192.194 163.656 193.142 163.656C194.15 163.656 194.894 163.95 195.374 164.538L195.41 158.706H197.156V171H195.41V170.334ZM195.608 167.436C195.608 166.812 195.416 166.278 195.032 165.834C194.648 165.39 194.186 165.168 193.646 165.168C193.106 165.168 192.638 165.39 192.242 165.834C191.858 166.266 191.666 166.806 191.666 167.454C191.666 168.09 191.852 168.63 192.224 169.074C192.608 169.506 193.088 169.722 193.664 169.722C194.24 169.722 194.708 169.512 195.068 169.092C195.428 168.66 195.608 168.108 195.608 167.436ZM199.947 167.616C199.947 168.3 200.097 168.864 200.397 169.308C200.697 169.752 201.111 169.974 201.639 169.974C202.467 169.974 202.995 169.566 203.223 168.75L204.879 169.02C204.339 170.496 203.259 171.234 201.639 171.234C200.559 171.234 199.695 170.892 199.047 170.208C198.411 169.512 198.093 168.612 198.093 167.508C198.093 166.344 198.399 165.414 199.011 164.718C199.635 164.01 200.475 163.656 201.531 163.656C202.599 163.656 203.427 163.992 204.015 164.664C204.615 165.324 204.915 166.23 204.915 167.382V167.616H199.947ZM203.295 166.644C203.295 166.152 203.139 165.72 202.827 165.348C202.527 164.976 202.131 164.79 201.639 164.79C201.159 164.79 200.763 164.988 200.451 165.384C200.151 165.768 200.001 166.188 200.001 166.644H203.295ZM209.655 165.366C209.271 165.006 208.869 164.826 208.449 164.826C207.813 164.826 207.495 165.114 207.495 165.69C207.495 166.014 207.783 166.278 208.359 166.482C209.415 166.866 210.069 167.22 210.321 167.544C210.573 167.856 210.699 168.246 210.699 168.714C210.699 169.482 210.429 170.094 209.889 170.55C209.361 171.006 208.707 171.234 207.927 171.234C206.919 171.234 206.085 170.838 205.425 170.046L206.199 169.056C206.799 169.656 207.351 169.956 207.855 169.956C208.587 169.956 208.953 169.602 208.953 168.894C208.953 168.534 208.761 168.27 208.377 168.102C207.993 167.922 207.699 167.79 207.495 167.706C206.391 167.226 205.839 166.644 205.839 165.96C205.839 165.276 206.043 164.724 206.451 164.304C206.871 163.872 207.417 163.656 208.089 163.656C209.049 163.656 209.811 163.902 210.375 164.394L209.655 165.366ZM34.452 189H32.742V188.352C32.238 188.94 31.488 189.234 30.492 189.234C29.496 189.234 28.698 188.85 28.098 188.082C27.51 187.314 27.216 186.414 27.216 185.382C27.216 184.35 27.516 183.474 28.116 182.754C28.728 182.022 29.508 181.656 30.456 181.656C31.464 181.656 32.226 181.956 32.742 182.556V181.89H34.452V189ZM32.94 185.436C32.94 184.776 32.754 184.236 32.382 183.816C32.01 183.384 31.53 183.168 30.942 183.168C30.366 183.168 29.892 183.378 29.52 183.798C29.16 184.206 28.98 184.752 28.98 185.436C28.98 186.12 29.166 186.672 29.538 187.092C29.91 187.512 30.39 187.722 30.978 187.722C31.566 187.722 32.04 187.518 32.4 187.11C32.76 186.702 32.94 186.144 32.94 185.436ZM43.6691 182.538C44.1611 181.95 44.8871 181.656 45.8471 181.656C47.4791 181.656 48.2951 182.658 48.2951 184.662V189H46.5671V185.238C46.5671 183.738 46.1051 182.988 45.1811 182.988C44.1731 182.988 43.6691 183.792 43.6691 185.4V189H41.9231V181.89H43.6691V182.538ZM51.0954 185.616C51.0954 186.3 51.2454 186.864 51.5454 187.308C51.8454 187.752 52.2594 187.974 52.7874 187.974C53.6154 187.974 54.1434 187.566 54.3714 186.75L56.0274 187.02C55.4874 188.496 54.4074 189.234 52.7874 189.234C51.7074 189.234 50.8434 188.892 50.1954 188.208C49.5594 187.512 49.2414 186.612 49.2414 185.508C49.2414 184.344 49.5474 183.414 50.1594 182.718C50.7834 182.01 51.6234 181.656 52.6794 181.656C53.7474 181.656 54.5754 181.992 55.1634 182.664C55.7634 183.324 56.0634 184.23 56.0634 185.382V185.616H51.0954ZM54.4434 184.644C54.4434 184.152 54.2874 183.72 53.9754 183.348C53.6754 182.976 53.2794 182.79 52.7874 182.79C52.3074 182.79 51.9114 182.988 51.5994 183.384C51.2994 183.768 51.1494 184.188 51.1494 184.644H54.4434ZM59.7052 186.534L61.5952 181.656H62.2252L64.2052 186.516L65.9692 181.89H67.8952L64.5832 189.144H63.7012L62.0632 184.59L60.1912 189.144H59.2912L56.0332 181.89H57.9592L59.7052 186.534ZM77.0548 186.534L78.9448 181.656H79.5748L81.5548 186.516L83.3188 181.89H85.2448L81.9328 189.144H81.0508L79.4128 184.59L77.5408 189.144H76.6408L73.3828 181.89H75.3088L77.0548 186.534ZM92.4247 189H90.7147V188.352C90.2107 188.94 89.4607 189.234 88.4647 189.234C87.4687 189.234 86.6707 188.85 86.0707 188.082C85.4827 187.314 85.1887 186.414 85.1887 185.382C85.1887 184.35 85.4887 183.474 86.0887 182.754C86.7007 182.022 87.4807 181.656 88.4287 181.656C89.4367 181.656 90.1987 181.956 90.7147 182.556V181.89H92.4247V189ZM90.9127 185.436C90.9127 184.776 90.7267 184.236 90.3547 183.816C89.9827 183.384 89.5027 183.168 88.9147 183.168C88.3387 183.168 87.8647 183.378 87.4927 183.798C87.1327 184.206 86.9527 184.752 86.9527 185.436C86.9527 186.12 87.1387 186.672 87.5107 187.092C87.8827 187.512 88.3627 187.722 88.9507 187.722C89.5387 187.722 90.0127 187.518 90.3727 187.11C90.7327 186.702 90.9127 186.144 90.9127 185.436ZM93.0561 181.89H95.0721L96.9261 186.156L98.8701 181.89H100.85L95.8101 191.97H93.8661L96.0621 187.902L93.0561 181.89ZM109.579 189H107.833V183.456H106.987V182.034H107.833V179.478H109.579V182.034H110.965V183.456H109.579V189ZM118.393 185.436C118.393 186.552 118.051 187.464 117.367 188.172C116.683 188.88 115.783 189.234 114.667 189.234C113.563 189.234 112.663 188.88 111.967 188.172C111.271 187.464 110.923 186.558 110.923 185.454C110.923 184.338 111.265 183.426 111.949 182.718C112.633 182.01 113.533 181.656 114.649 181.656C115.765 181.656 116.665 182.01 117.349 182.718C118.045 183.414 118.393 184.32 118.393 185.436ZM112.687 185.472C112.687 186.132 112.873 186.672 113.245 187.092C113.617 187.512 114.097 187.722 114.685 187.722C115.273 187.722 115.741 187.5 116.089 187.056C116.449 186.6 116.629 186.066 116.629 185.454C116.629 184.83 116.449 184.296 116.089 183.852C115.729 183.396 115.255 183.168 114.667 183.168C114.091 183.168 113.617 183.384 113.245 183.816C112.873 184.248 112.687 184.8 112.687 185.472ZM127.508 178.902C127.508 179.178 127.406 179.418 127.202 179.622C126.998 179.826 126.758 179.928 126.482 179.928C126.206 179.928 125.966 179.826 125.762 179.622C125.558 179.418 125.456 179.178 125.456 178.902C125.456 178.626 125.558 178.386 125.762 178.182C125.966 177.978 126.206 177.876 126.482 177.876C126.758 177.876 126.998 177.978 127.202 178.182C127.406 178.386 127.508 178.626 127.508 178.902ZM127.364 189H125.618V181.89H127.364V189ZM130.786 182.538C131.278 181.95 132.004 181.656 132.964 181.656C134.596 181.656 135.412 182.658 135.412 184.662V189H133.684V185.238C133.684 183.738 133.222 182.988 132.298 182.988C131.29 182.988 130.786 183.792 130.786 185.4V189H129.04V181.89H130.786V182.538ZM139.005 189H137.259V183.456H136.413V182.034H137.259V179.478H139.005V182.034H140.391V183.456H139.005V189ZM142.185 185.616C142.185 186.3 142.335 186.864 142.635 187.308C142.935 187.752 143.349 187.974 143.877 187.974C144.705 187.974 145.233 187.566 145.461 186.75L147.117 187.02C146.577 188.496 145.497 189.234 143.877 189.234C142.797 189.234 141.933 188.892 141.285 188.208C140.649 187.512 140.331 186.612 140.331 185.508C140.331 184.344 140.637 183.414 141.249 182.718C141.873 182.01 142.713 181.656 143.769 181.656C144.837 181.656 145.665 181.992 146.253 182.664C146.853 183.324 147.153 184.23 147.153 185.382V185.616H142.185ZM145.533 184.644C145.533 184.152 145.377 183.72 145.065 183.348C144.765 182.976 144.369 182.79 143.877 182.79C143.397 182.79 143.001 182.988 142.689 183.384C142.389 183.768 142.239 184.188 142.239 184.644H145.533ZM149.841 182.628C150.285 181.98 150.981 181.656 151.929 181.656C152.229 181.656 152.505 181.716 152.757 181.836L152.541 183.42C152.277 183.252 151.989 183.168 151.677 183.168C150.453 183.168 149.841 184.044 149.841 185.796V189H148.095V181.89H149.841V182.628ZM160.136 189H158.426V188.352C157.922 188.94 157.172 189.234 156.176 189.234C155.18 189.234 154.382 188.85 153.782 188.082C153.194 187.314 152.9 186.414 152.9 185.382C152.9 184.35 153.2 183.474 153.8 182.754C154.412 182.022 155.192 181.656 156.14 181.656C157.148 181.656 157.91 181.956 158.426 182.556V181.89H160.136V189ZM158.624 185.436C158.624 184.776 158.438 184.236 158.066 183.816C157.694 183.384 157.214 183.168 156.626 183.168C156.05 183.168 155.576 183.378 155.204 183.798C154.844 184.206 154.664 184.752 154.664 185.436C154.664 186.12 154.85 186.672 155.222 187.092C155.594 187.512 156.074 187.722 156.662 187.722C157.25 187.722 157.724 187.518 158.084 187.11C158.444 186.702 158.624 186.144 158.624 185.436ZM166.437 183.744C165.993 183.3 165.495 183.078 164.943 183.078C164.295 183.078 163.785 183.312 163.413 183.78C163.041 184.248 162.855 184.824 162.855 185.508C162.855 186.18 163.065 186.732 163.485 187.164C163.905 187.596 164.415 187.812 165.015 187.812C165.531 187.812 166.005 187.584 166.437 187.128V188.802C165.933 189.09 165.351 189.234 164.691 189.234C163.659 189.234 162.801 188.868 162.117 188.136C161.433 187.404 161.091 186.51 161.091 185.454C161.091 184.398 161.439 183.504 162.135 182.772C162.843 182.028 163.725 181.656 164.781 181.656C165.405 181.656 165.957 181.806 166.437 182.106V183.744ZM169.837 189H168.091V183.456H167.245V182.034H168.091V179.478H169.837V182.034H171.223V183.456H169.837V189ZM180.379 186.534L182.269 181.656H182.899L184.879 186.516L186.643 181.89H188.569L185.257 189.144H184.375L182.737 184.59L180.865 189.144H179.965L176.707 181.89H178.633L180.379 186.534ZM191.159 178.902C191.159 179.178 191.057 179.418 190.853 179.622C190.649 179.826 190.409 179.928 190.133 179.928C189.857 179.928 189.617 179.826 189.413 179.622C189.209 179.418 189.107 179.178 189.107 178.902C189.107 178.626 189.209 178.386 189.413 178.182C189.617 177.978 189.857 177.876 190.133 177.876C190.409 177.876 190.649 177.978 190.853 178.182C191.057 178.386 191.159 178.626 191.159 178.902ZM191.015 189H189.269V181.89H191.015V189ZM194.833 189H193.087V183.456H192.241V182.034H193.087V179.478H194.833V182.034H196.219V183.456H194.833V189ZM198.409 176.706V182.484C198.865 181.932 199.591 181.656 200.587 181.656C201.331 181.656 201.925 181.944 202.369 182.52C202.813 183.096 203.035 183.81 203.035 184.662V189H201.307V185.238C201.307 183.738 200.845 182.988 199.921 182.988C198.913 182.988 198.409 183.816 198.409 185.472V189H196.663V176.706H198.409ZM29.682 207H27.936V201.456H27.108V200.034H27.936V197.802C27.936 195.63 28.782 194.544 30.474 194.544C30.822 194.544 31.146 194.622 31.446 194.778V196.29C31.134 196.134 30.858 196.056 30.618 196.056C30.294 196.056 30.054 196.176 29.898 196.416C29.754 196.644 29.682 197.202 29.682 198.09V200.034H31.446V201.456H29.682V207ZM33.8605 200.628C34.3045 199.98 35.0005 199.656 35.9485 199.656C36.2485 199.656 36.5245 199.716 36.7765 199.836L36.5605 201.42C36.2965 201.252 36.0085 201.168 35.6965 201.168C34.4725 201.168 33.8605 202.044 33.8605 203.796V207H32.1145V199.89H33.8605V200.628ZM39.5651 196.902C39.5651 197.178 39.4631 197.418 39.2591 197.622C39.0551 197.826 38.8151 197.928 38.5391 197.928C38.2631 197.928 38.0231 197.826 37.8191 197.622C37.6151 197.418 37.5131 197.178 37.5131 196.902C37.5131 196.626 37.6151 196.386 37.8191 196.182C38.0231 195.978 38.2631 195.876 38.5391 195.876C38.8151 195.876 39.0551 195.978 39.2591 196.182C39.4631 196.386 39.5651 196.626 39.5651 196.902ZM39.4211 207H37.6751V199.89H39.4211V207ZM42.447 203.616C42.447 204.3 42.597 204.864 42.897 205.308C43.197 205.752 43.611 205.974 44.139 205.974C44.967 205.974 45.495 205.566 45.723 204.75L47.379 205.02C46.839 206.496 45.759 207.234 44.139 207.234C43.059 207.234 42.195 206.892 41.547 206.208C40.911 205.512 40.593 204.612 40.593 203.508C40.593 202.344 40.899 201.414 41.511 200.718C42.135 200.01 42.975 199.656 44.031 199.656C45.099 199.656 45.927 199.992 46.515 200.664C47.115 201.324 47.415 202.23 47.415 203.382V203.616H42.447ZM45.795 202.644C45.795 202.152 45.639 201.72 45.327 201.348C45.027 200.976 44.631 200.79 44.139 200.79C43.659 200.79 43.263 200.988 42.951 201.384C42.651 201.768 42.501 202.188 42.501 202.644H45.795ZM50.1027 200.538C50.5947 199.95 51.3207 199.656 52.2807 199.656C53.9127 199.656 54.7287 200.658 54.7287 202.662V207H53.0007V203.238C53.0007 201.738 52.5387 200.988 51.6147 200.988C50.6067 200.988 50.1027 201.792 50.1027 203.4V207H48.3567V199.89H50.1027V200.538ZM61.183 206.334C60.715 206.934 59.977 207.234 58.969 207.234C57.961 207.234 57.157 206.85 56.557 206.082C55.969 205.314 55.675 204.414 55.675 203.382C55.675 202.35 55.975 201.474 56.575 200.754C57.187 200.022 57.967 199.656 58.915 199.656C59.923 199.656 60.667 199.95 61.147 200.538L61.183 194.706H62.929V207H61.183V206.334ZM61.381 203.436C61.381 202.812 61.189 202.278 60.805 201.834C60.421 201.39 59.959 201.168 59.419 201.168C58.879 201.168 58.411 201.39 58.015 201.834C57.631 202.266 57.439 202.806 57.439 203.454C57.439 204.09 57.625 204.63 57.997 205.074C58.381 205.506 58.861 205.722 59.437 205.722C60.013 205.722 60.481 205.512 60.841 205.092C61.201 204.66 61.381 204.108 61.381 203.436ZM68.1684 201.366C67.7844 201.006 67.3824 200.826 66.9624 200.826C66.3264 200.826 66.0084 201.114 66.0084 201.69C66.0084 202.014 66.2964 202.278 66.8724 202.482C67.9284 202.866 68.5824 203.22 68.8344 203.544C69.0864 203.856 69.2124 204.246 69.2124 204.714C69.2124 205.482 68.9424 206.094 68.4024 206.55C67.8744 207.006 67.2204 207.234 66.4404 207.234C65.4324 207.234 64.5984 206.838 63.9384 206.046L64.7124 205.056C65.3124 205.656 65.8644 205.956 66.3684 205.956C67.1004 205.956 67.4664 205.602 67.4664 204.894C67.4664 204.534 67.2744 204.27 66.8904 204.102C66.5064 203.922 66.2124 203.79 66.0084 203.706C64.9044 203.226 64.3524 202.644 64.3524 201.96C64.3524 201.276 64.5564 200.724 64.9644 200.304C65.3844 199.872 65.9304 199.656 66.6024 199.656C67.5624 199.656 68.3244 199.902 68.8884 200.394L68.1684 201.366ZM72.9758 205.974C72.9758 206.334 72.8498 206.646 72.5978 206.91C72.3578 207.162 72.0578 207.288 71.6978 207.288C71.3378 207.288 71.0318 207.162 70.7798 206.91C70.5278 206.658 70.4018 206.358 70.4018 206.01C70.4018 205.65 70.5278 205.344 70.7798 205.092C71.0318 204.84 71.3318 204.714 71.6798 204.714C72.0398 204.714 72.3458 204.834 72.5978 205.074C72.8498 205.314 72.9758 205.614 72.9758 205.974Z" fill="white"/>
<path d="M229.758 298.434V300H222.414L225.186 296.49C226.506 294.858 227.28 293.838 227.508 293.43C227.748 293.01 227.868 292.668 227.868 292.404C227.88 292.332 227.886 292.26 227.886 292.188C227.886 291.708 227.724 291.282 227.4 290.91C227.088 290.538 226.674 290.352 226.158 290.352C225.642 290.352 225.234 290.562 224.934 290.982C224.646 291.402 224.502 291.912 224.502 292.512H222.558C222.558 291.432 222.876 290.544 223.512 289.848C224.16 289.14 225.036 288.786 226.14 288.786C227.136 288.786 227.976 289.122 228.66 289.794C229.344 290.466 229.686 291.306 229.686 292.314C229.686 293.262 228.96 294.582 227.508 296.274L225.654 298.434H229.758ZM238.467 294.546C238.467 296.13 238.119 297.486 237.423 298.614C236.727 299.73 235.767 300.288 234.543 300.288C233.331 300.288 232.377 299.724 231.681 298.596C230.985 297.468 230.637 296.118 230.637 294.546C230.637 292.914 230.985 291.546 231.681 290.442C232.389 289.338 233.349 288.786 234.561 288.786C235.773 288.786 236.727 289.35 237.423 290.478C238.119 291.594 238.467 292.95 238.467 294.546ZM232.437 294.528C232.437 295.632 232.629 296.61 233.013 297.462C233.397 298.302 233.919 298.722 234.579 298.722C235.239 298.722 235.749 298.326 236.109 297.534C236.481 296.742 236.667 295.74 236.667 294.528C236.667 293.412 236.475 292.44 236.091 291.612C235.707 290.772 235.191 290.352 234.543 290.352C233.907 290.352 233.397 290.79 233.013 291.666C232.629 292.53 232.437 293.484 232.437 294.528ZM240.84 290.64V289.074H244.26V300H242.406V290.64H240.84ZM249.568 299.46L251.89 296.112C251.494 296.22 251.104 296.274 250.72 296.274C249.748 296.274 248.962 295.92 248.362 295.212C247.774 294.504 247.48 293.652 247.48 292.656C247.48 291.516 247.84 290.586 248.56 289.866C249.28 289.146 250.204 288.786 251.332 288.786C252.424 288.786 253.336 289.134 254.068 289.83C254.8 290.526 255.166 291.426 255.166 292.53C255.166 293.634 254.722 294.846 253.834 296.166L250.936 300.468L249.568 299.46ZM249.334 292.602C249.334 293.226 249.514 293.766 249.874 294.222C250.246 294.678 250.738 294.906 251.35 294.906C251.962 294.906 252.448 294.678 252.808 294.222C253.18 293.754 253.366 293.202 253.366 292.566C253.366 291.93 253.186 291.384 252.826 290.928C252.466 290.472 251.974 290.244 251.35 290.244C250.738 290.244 250.246 290.478 249.874 290.946C249.514 291.414 249.334 291.966 249.334 292.602Z" fill="white"/>
</svg>
