<svg width="270" height="316" viewBox="0 0 270 316" fill="none" xmlns="http://www.w3.org/2000/svg">
<rect width="270" height="316" rx="11" transform="matrix(1 0 0 -1 0 316)" fill="black"/>
<path d="M30.504 140H28.032V125.432H31.896C35.272 125.432 36.96 126.936 36.96 129.944C36.96 133.016 35.408 134.552 32.304 134.552H30.504V140ZM30.504 132.584H31.728C33.536 132.584 34.44 131.704 34.44 129.944C34.44 128.248 33.512 127.4 31.656 127.4H30.504V132.584ZM40.6753 140H38.3473V123.608H40.6753V140ZM51.7485 140H49.4685V139.136C48.7965 139.92 47.7965 140.312 46.4685 140.312C45.1405 140.312 44.0765 139.8 43.2765 138.776C42.4925 137.752 42.1005 136.552 42.1005 135.176C42.1005 133.8 42.5005 132.632 43.3005 131.672C44.1165 130.696 45.1565 130.208 46.4205 130.208C47.7645 130.208 48.7805 130.608 49.4685 131.408V130.52H51.7485V140ZM49.7325 135.248C49.7325 134.368 49.4845 133.648 48.9885 133.088C48.4925 132.512 47.8525 132.224 47.0685 132.224C46.3005 132.224 45.6685 132.504 45.1725 133.064C44.6925 133.608 44.4525 134.336 44.4525 135.248C44.4525 136.16 44.7005 136.896 45.1965 137.456C45.6925 138.016 46.3325 138.296 47.1165 138.296C47.9005 138.296 48.5325 138.024 49.0125 137.48C49.4925 136.936 49.7325 136.192 49.7325 135.248ZM56.0224 131.384C56.6784 130.6 57.6464 130.208 58.9264 130.208C61.1024 130.208 62.1904 131.544 62.1904 134.216V140H59.8864V134.984C59.8864 132.984 59.2704 131.984 58.0384 131.984C56.6944 131.984 56.0224 133.056 56.0224 135.2V140H53.6944V130.52H56.0224V131.384ZM66.4521 131.384C67.1081 130.6 68.0761 130.208 69.3561 130.208C71.5321 130.208 72.6201 131.544 72.6201 134.216V140H70.3161V134.984C70.3161 132.984 69.7001 131.984 68.4681 131.984C67.1241 131.984 66.4521 133.056 66.4521 135.2V140H64.1241V130.52H66.4521V131.384ZM76.3538 135.488C76.3538 136.4 76.5538 137.152 76.9538 137.744C77.3538 138.336 77.9058 138.632 78.6098 138.632C79.7138 138.632 80.4178 138.088 80.7218 137L82.9298 137.36C82.2098 139.328 80.7698 140.312 78.6098 140.312C77.1698 140.312 76.0178 139.856 75.1538 138.944C74.3058 138.016 73.8818 136.816 73.8818 135.344C73.8818 133.792 74.2898 132.552 75.1058 131.624C75.9378 130.68 77.0578 130.208 78.4658 130.208C79.8898 130.208 80.9938 130.656 81.7778 131.552C82.5778 132.432 82.9778 133.64 82.9778 135.176V135.488H76.3538ZM80.8178 134.192C80.8178 133.536 80.6098 132.96 80.1938 132.464C79.7938 131.968 79.2658 131.72 78.6098 131.72C77.9698 131.72 77.4418 131.984 77.0258 132.512C76.6258 133.024 76.4258 133.584 76.4258 134.192H80.8178ZM86.5614 131.504C87.1534 130.64 88.0814 130.208 89.3454 130.208C89.7454 130.208 90.1134 130.288 90.4494 130.448L90.1614 132.56C89.8094 132.336 89.4254 132.224 89.0094 132.224C87.3774 132.224 86.5614 133.392 86.5614 135.728V140H84.2334V130.52H86.5614V131.504ZM93.1116 135.488C93.1116 136.4 93.3116 137.152 93.7116 137.744C94.1116 138.336 94.6636 138.632 95.3676 138.632C96.4716 138.632 97.1756 138.088 97.4796 137L99.6876 137.36C98.9676 139.328 97.5276 140.312 95.3676 140.312C93.9276 140.312 92.7756 139.856 91.9116 138.944C91.0636 138.016 90.6396 136.816 90.6396 135.344C90.6396 133.792 91.0476 132.552 91.8636 131.624C92.6956 130.68 93.8156 130.208 95.2236 130.208C96.6476 130.208 97.7516 130.656 98.5356 131.552C99.3356 132.432 99.7356 133.64 99.7356 135.176V135.488H93.1116ZM97.5756 134.192C97.5756 133.536 97.3676 132.96 96.9516 132.464C96.5516 131.968 96.0236 131.72 95.3676 131.72C94.7276 131.72 94.1996 131.984 93.7836 132.512C93.3836 133.024 93.1836 133.584 93.1836 134.192H97.5756ZM110.015 139.184C110.015 142.432 108.503 144.056 105.479 144.056C104.135 144.056 102.999 143.688 102.071 142.952C101.143 142.232 100.679 141.288 100.679 140.12H103.151C103.151 140.584 103.383 141.04 103.847 141.488C104.311 141.936 104.831 142.16 105.407 142.16C106.927 142.16 107.687 141.248 107.687 139.424V138.824C107.031 139.656 106.031 140.072 104.687 140.072C103.359 140.072 102.311 139.608 101.543 138.68C100.791 137.752 100.415 136.616 100.415 135.272C100.415 133.816 100.823 132.6 101.639 131.624C102.455 130.648 103.511 130.16 104.807 130.16C106.119 130.16 107.079 130.568 107.687 131.384V130.472H110.015V139.184ZM108.023 135.056C108.023 134.192 107.783 133.496 107.303 132.968C106.823 132.44 106.191 132.176 105.407 132.176C104.623 132.176 103.983 132.464 103.487 133.04C103.007 133.616 102.767 134.344 102.767 135.224C102.767 137.112 103.647 138.056 105.407 138.056C106.207 138.056 106.839 137.776 107.303 137.216C107.783 136.64 108.023 135.92 108.023 135.056ZM110.739 130.52H113.427L115.899 136.208L118.491 130.52H121.131L114.411 143.96H111.819L114.747 138.536L110.739 130.52Z" fill="white"/>
<path d="M29.808 191.552L28.836 194H26.874L31.122 182.786H32.778L36.918 194H34.938L34.02 191.552H29.808ZM31.842 185.468L30.258 190.094H33.516L31.842 185.468ZM45.2863 187.52C45.7303 186.944 46.4143 186.656 47.3383 186.656C48.1423 186.656 48.7783 187.028 49.2463 187.772C49.7023 187.028 50.4403 186.656 51.4603 186.656C52.9603 186.656 53.7103 187.628 53.7103 189.572V194H51.9823V190.256C51.9823 188.744 51.5683 187.988 50.7403 187.988C49.9123 187.988 49.4983 188.828 49.4983 190.508V194H47.7523V190.4C47.7523 188.792 47.3863 187.988 46.6543 187.988C45.7423 187.988 45.2863 188.828 45.2863 190.508V194H43.5403V186.89H45.2863V187.52ZM62.161 190.436C62.161 191.552 61.819 192.464 61.135 193.172C60.451 193.88 59.551 194.234 58.435 194.234C57.331 194.234 56.431 193.88 55.735 193.172C55.039 192.464 54.691 191.558 54.691 190.454C54.691 189.338 55.033 188.426 55.717 187.718C56.401 187.01 57.301 186.656 58.417 186.656C59.533 186.656 60.433 187.01 61.117 187.718C61.813 188.414 62.161 189.32 62.161 190.436ZM56.455 190.472C56.455 191.132 56.641 191.672 57.013 192.092C57.385 192.512 57.865 192.722 58.453 192.722C59.041 192.722 59.509 192.5 59.857 192.056C60.217 191.6 60.397 191.066 60.397 190.454C60.397 189.83 60.217 189.296 59.857 188.852C59.497 188.396 59.023 188.168 58.435 188.168C57.859 188.168 57.385 188.384 57.013 188.816C56.641 189.248 56.455 189.8 56.455 190.472ZM63.1223 181.706H64.8683V187.538C65.3723 186.95 66.1223 186.656 67.1183 186.656C68.0543 186.656 68.8283 187.028 69.4403 187.772C70.0643 188.516 70.3763 189.392 70.3763 190.4C70.3763 191.492 70.0703 192.404 69.4583 193.136C68.8463 193.868 68.0543 194.234 67.0823 194.234C66.0383 194.234 65.3123 193.934 64.9043 193.334L64.8683 194H63.1223V181.706ZM68.5943 190.436C68.5943 189.836 68.4083 189.308 68.0363 188.852C67.6643 188.396 67.1903 188.168 66.6143 188.168C66.0383 188.168 65.5703 188.396 65.2103 188.852C64.8503 189.296 64.6703 189.83 64.6703 190.454C64.6703 191.066 64.8563 191.6 65.2283 192.056C65.6123 192.5 66.0803 192.722 66.6323 192.722C67.2323 192.722 67.7063 192.506 68.0543 192.074C68.4143 191.63 68.5943 191.084 68.5943 190.436ZM73.4558 183.902C73.4558 184.178 73.3538 184.418 73.1498 184.622C72.9458 184.826 72.7058 184.928 72.4298 184.928C72.1538 184.928 71.9138 184.826 71.7098 184.622C71.5058 184.418 71.4038 184.178 71.4038 183.902C71.4038 183.626 71.5058 183.386 71.7098 183.182C71.9138 182.978 72.1538 182.876 72.4298 182.876C72.7058 182.876 72.9458 182.978 73.1498 183.182C73.3538 183.386 73.4558 183.626 73.4558 183.902ZM73.3118 194H71.5658V186.89H73.3118V194ZM76.8776 194H75.1316V181.706H76.8776V194ZM79.8005 190.616C79.8005 191.3 79.9505 191.864 80.2505 192.308C80.5505 192.752 80.9645 192.974 81.4925 192.974C82.3205 192.974 82.8485 192.566 83.0765 191.75L84.7325 192.02C84.1925 193.496 83.1125 194.234 81.4925 194.234C80.4125 194.234 79.5485 193.892 78.9005 193.208C78.2645 192.512 77.9465 191.612 77.9465 190.508C77.9465 189.344 78.2525 188.414 78.8645 187.718C79.4885 187.01 80.3285 186.656 81.3845 186.656C82.4525 186.656 83.2805 186.992 83.8685 187.664C84.4685 188.324 84.7685 189.23 84.7685 190.382V190.616H79.8005ZM83.1485 189.644C83.1485 189.152 82.9925 188.72 82.6805 188.348C82.3805 187.976 81.9845 187.79 81.4925 187.79C81.0125 187.79 80.6165 187.988 80.3045 188.384C80.0045 188.768 79.8545 189.188 79.8545 189.644H83.1485ZM98.454 194H96.744V193.352C96.24 193.94 95.49 194.234 94.494 194.234C93.498 194.234 92.7 193.85 92.1 193.082C91.512 192.314 91.218 191.414 91.218 190.382C91.218 189.35 91.518 188.474 92.118 187.754C92.73 187.022 93.51 186.656 94.458 186.656C95.466 186.656 96.228 186.956 96.744 187.556V186.89H98.454V194ZM96.942 190.436C96.942 189.776 96.756 189.236 96.384 188.816C96.012 188.384 95.532 188.168 94.944 188.168C94.368 188.168 93.894 188.378 93.522 188.798C93.162 189.206 92.982 189.752 92.982 190.436C92.982 191.12 93.168 191.672 93.54 192.092C93.912 192.512 94.392 192.722 94.98 192.722C95.568 192.722 96.042 192.518 96.402 192.11C96.762 191.702 96.942 191.144 96.942 190.436ZM101.659 187.538C102.163 186.95 102.913 186.656 103.909 186.656C104.845 186.656 105.619 187.028 106.231 187.772C106.855 188.516 107.167 189.392 107.167 190.4C107.167 191.492 106.861 192.404 106.249 193.136C105.637 193.868 104.845 194.234 103.873 194.234C102.829 194.234 102.103 193.934 101.695 193.334L101.659 197.006H99.9134V186.89H101.659V187.538ZM105.385 190.436C105.385 189.824 105.211 189.296 104.863 188.852C104.515 188.396 104.035 188.168 103.423 188.168C102.859 188.168 102.391 188.396 102.019 188.852C101.647 189.308 101.461 189.836 101.461 190.436C101.461 191.024 101.659 191.552 102.055 192.02C102.451 192.488 102.907 192.722 103.423 192.722C104.035 192.722 104.515 192.506 104.863 192.074C105.211 191.642 105.385 191.096 105.385 190.436ZM109.851 187.538C110.355 186.95 111.105 186.656 112.101 186.656C113.037 186.656 113.811 187.028 114.423 187.772C115.047 188.516 115.359 189.392 115.359 190.4C115.359 191.492 115.053 192.404 114.441 193.136C113.829 193.868 113.037 194.234 112.065 194.234C111.021 194.234 110.295 193.934 109.887 193.334L109.851 197.006H108.105V186.89H109.851V187.538ZM113.577 190.436C113.577 189.824 113.403 189.296 113.055 188.852C112.707 188.396 112.227 188.168 111.615 188.168C111.051 188.168 110.583 188.396 110.211 188.852C109.839 189.308 109.653 189.836 109.653 190.436C109.653 191.024 109.851 191.552 110.247 192.02C110.643 192.488 111.099 192.722 111.615 192.722C112.227 192.722 112.707 192.506 113.055 192.074C113.403 191.642 113.577 191.096 113.577 190.436ZM124.45 194H122.704V188.456H121.858V187.034H122.704V184.478H124.45V187.034H125.836V188.456H124.45V194ZM133.265 190.436C133.265 191.552 132.923 192.464 132.239 193.172C131.555 193.88 130.655 194.234 129.539 194.234C128.435 194.234 127.535 193.88 126.839 193.172C126.143 192.464 125.795 191.558 125.795 190.454C125.795 189.338 126.137 188.426 126.821 187.718C127.505 187.01 128.405 186.656 129.521 186.656C130.637 186.656 131.537 187.01 132.221 187.718C132.917 188.414 133.265 189.32 133.265 190.436ZM127.559 190.472C127.559 191.132 127.745 191.672 128.117 192.092C128.489 192.512 128.969 192.722 129.557 192.722C130.145 192.722 130.613 192.5 130.961 192.056C131.321 191.6 131.501 191.066 131.501 190.454C131.501 189.83 131.321 189.296 130.961 188.852C130.601 188.396 130.127 188.168 129.539 188.168C128.963 188.168 128.489 188.384 128.117 188.816C127.745 189.248 127.559 189.8 127.559 190.472ZM29.862 201.902C29.862 202.178 29.76 202.418 29.556 202.622C29.352 202.826 29.112 202.928 28.836 202.928C28.56 202.928 28.32 202.826 28.116 202.622C27.912 202.418 27.81 202.178 27.81 201.902C27.81 201.626 27.912 201.386 28.116 201.182C28.32 200.978 28.56 200.876 28.836 200.876C29.112 200.876 29.352 200.978 29.556 201.182C29.76 201.386 29.862 201.626 29.862 201.902ZM29.718 212H27.972V204.89H29.718V212ZM33.1398 205.538C33.6318 204.95 34.3578 204.656 35.3178 204.656C36.9498 204.656 37.7658 205.658 37.7658 207.662V212H36.0378V208.238C36.0378 206.738 35.5758 205.988 34.6518 205.988C33.6438 205.988 33.1398 206.792 33.1398 208.4V212H31.3938V204.89H33.1398V205.538ZM42.1321 209.39L43.8781 204.89H45.8221L42.5461 212.144H41.5021L38.2441 204.89H40.1701L42.1321 209.39ZM47.6325 208.616C47.6325 209.3 47.7825 209.864 48.0825 210.308C48.3825 210.752 48.7965 210.974 49.3245 210.974C50.1525 210.974 50.6805 210.566 50.9085 209.75L52.5645 210.02C52.0245 211.496 50.9445 212.234 49.3245 212.234C48.2445 212.234 47.3805 211.892 46.7325 211.208C46.0965 210.512 45.7785 209.612 45.7785 208.508C45.7785 207.344 46.0845 206.414 46.6965 205.718C47.3205 205.01 48.1605 204.656 49.2165 204.656C50.2845 204.656 51.1125 204.992 51.7005 205.664C52.3005 206.324 52.6005 207.23 52.6005 208.382V208.616H47.6325ZM50.9805 207.644C50.9805 207.152 50.8245 206.72 50.5125 206.348C50.2125 205.976 49.8165 205.79 49.3245 205.79C48.8445 205.79 48.4485 205.988 48.1365 206.384C47.8365 206.768 47.6865 207.188 47.6865 207.644H50.9805ZM57.3403 206.366C56.9563 206.006 56.5543 205.826 56.1343 205.826C55.4983 205.826 55.1803 206.114 55.1803 206.69C55.1803 207.014 55.4683 207.278 56.0443 207.482C57.1003 207.866 57.7543 208.22 58.0063 208.544C58.2583 208.856 58.3843 209.246 58.3843 209.714C58.3843 210.482 58.1143 211.094 57.5743 211.55C57.0463 212.006 56.3923 212.234 55.6123 212.234C54.6043 212.234 53.7703 211.838 53.1103 211.046L53.8843 210.056C54.4843 210.656 55.0363 210.956 55.5403 210.956C56.2723 210.956 56.6383 210.602 56.6383 209.894C56.6383 209.534 56.4463 209.27 56.0623 209.102C55.6783 208.922 55.3843 208.79 55.1803 208.706C54.0763 208.226 53.5243 207.644 53.5243 206.96C53.5243 206.276 53.7283 205.724 54.1363 205.304C54.5563 204.872 55.1023 204.656 55.7743 204.656C56.7343 204.656 57.4963 204.902 58.0603 205.394L57.3403 206.366ZM61.6257 212H59.8797V206.456H59.0337V205.034H59.8797V202.478H61.6257V205.034H63.0117V206.456H61.6257V212ZM65.5983 201.902C65.5983 202.178 65.4963 202.418 65.2923 202.622C65.0883 202.826 64.8483 202.928 64.5723 202.928C64.2963 202.928 64.0563 202.826 63.8523 202.622C63.6483 202.418 63.5463 202.178 63.5463 201.902C63.5463 201.626 63.6483 201.386 63.8523 201.182C64.0563 200.978 64.2963 200.876 64.5723 200.876C64.8483 200.876 65.0883 200.978 65.2923 201.182C65.4963 201.386 65.5983 201.626 65.5983 201.902ZM65.4543 212H63.7083V204.89H65.4543V212ZM73.8982 211.388C73.8982 213.824 72.7642 215.042 70.4962 215.042C69.4882 215.042 68.6362 214.766 67.9402 214.214C67.2442 213.674 66.8962 212.966 66.8962 212.09H68.7502C68.7502 212.438 68.9242 212.78 69.2722 213.116C69.6202 213.452 70.0102 213.62 70.4422 213.62C71.5822 213.62 72.1522 212.936 72.1522 211.568V211.118C71.6602 211.742 70.9102 212.054 69.9022 212.054C68.9062 212.054 68.1202 211.706 67.5442 211.01C66.9802 210.314 66.6982 209.462 66.6982 208.454C66.6982 207.362 67.0042 206.45 67.6162 205.718C68.2282 204.986 69.0202 204.62 69.9922 204.62C70.9762 204.62 71.6962 204.926 72.1522 205.538V204.854H73.8982V211.388ZM72.4042 208.292C72.4042 207.644 72.2242 207.122 71.8642 206.726C71.5042 206.33 71.0302 206.132 70.4422 206.132C69.8542 206.132 69.3742 206.348 69.0022 206.78C68.6422 207.212 68.4622 207.758 68.4622 208.418C68.4622 209.834 69.1222 210.542 70.4422 210.542C71.0422 210.542 71.5162 210.332 71.8642 209.912C72.2242 209.48 72.4042 208.94 72.4042 208.292ZM82.0008 212H80.2908V211.352C79.7868 211.94 79.0368 212.234 78.0408 212.234C77.0448 212.234 76.2468 211.85 75.6468 211.082C75.0588 210.314 74.7648 209.414 74.7648 208.382C74.7648 207.35 75.0648 206.474 75.6648 205.754C76.2768 205.022 77.0568 204.656 78.0048 204.656C79.0128 204.656 79.7748 204.956 80.2908 205.556V204.89H82.0008V212ZM80.4888 208.436C80.4888 207.776 80.3028 207.236 79.9308 206.816C79.5588 206.384 79.0788 206.168 78.4908 206.168C77.9148 206.168 77.4408 206.378 77.0688 206.798C76.7088 207.206 76.5288 207.752 76.5288 208.436C76.5288 209.12 76.7148 209.672 77.0868 210.092C77.4588 210.512 77.9388 210.722 78.5268 210.722C79.1148 210.722 79.5888 210.518 79.9488 210.11C80.3088 209.702 80.4888 209.144 80.4888 208.436ZM85.6022 212H83.8562V206.456H83.0102V205.034H83.8562V202.478H85.6022V205.034H86.9882V206.456H85.6022V212ZM88.7829 208.616C88.7829 209.3 88.9329 209.864 89.2329 210.308C89.5329 210.752 89.9469 210.974 90.4749 210.974C91.3029 210.974 91.8309 210.566 92.0589 209.75L93.7149 210.02C93.1749 211.496 92.0949 212.234 90.4749 212.234C89.3949 212.234 88.5309 211.892 87.8829 211.208C87.2469 210.512 86.9289 209.612 86.9289 208.508C86.9289 207.344 87.2349 206.414 87.8469 205.718C88.4709 205.01 89.3109 204.656 90.3669 204.656C91.4349 204.656 92.2629 204.992 92.8509 205.664C93.4509 206.324 93.7509 207.23 93.7509 208.382V208.616H88.7829ZM92.1309 207.644C92.1309 207.152 91.9749 206.72 91.6629 206.348C91.3629 205.976 90.9669 205.79 90.4749 205.79C89.9949 205.79 89.5989 205.988 89.2869 206.384C88.9869 206.768 88.8369 207.188 88.8369 207.644H92.1309ZM102.846 201.902C102.846 202.178 102.744 202.418 102.54 202.622C102.336 202.826 102.096 202.928 101.82 202.928C101.544 202.928 101.304 202.826 101.1 202.622C100.896 202.418 100.794 202.178 100.794 201.902C100.794 201.626 100.896 201.386 101.1 201.182C101.304 200.978 101.544 200.876 101.82 200.876C102.096 200.876 102.336 200.978 102.54 201.182C102.744 201.386 102.846 201.626 102.846 201.902ZM102.702 212H100.956V204.89H102.702V212ZM106.124 205.538C106.616 204.95 107.342 204.656 108.302 204.656C109.934 204.656 110.75 205.658 110.75 207.662V212H109.022V208.238C109.022 206.738 108.56 205.988 107.636 205.988C106.628 205.988 106.124 206.792 106.124 208.4V212H104.378V204.89H106.124V205.538ZM117.204 211.334C116.736 211.934 115.998 212.234 114.99 212.234C113.982 212.234 113.178 211.85 112.578 211.082C111.99 210.314 111.696 209.414 111.696 208.382C111.696 207.35 111.996 206.474 112.596 205.754C113.208 205.022 113.988 204.656 114.936 204.656C115.944 204.656 116.688 204.95 117.168 205.538L117.204 199.706H118.95V212H117.204V211.334ZM117.402 208.436C117.402 207.812 117.21 207.278 116.826 206.834C116.442 206.39 115.98 206.168 115.44 206.168C114.9 206.168 114.432 206.39 114.036 206.834C113.652 207.266 113.46 207.806 113.46 208.454C113.46 209.09 113.646 209.63 114.018 210.074C114.402 210.506 114.882 210.722 115.458 210.722C116.034 210.722 116.502 210.512 116.862 210.092C117.222 209.66 117.402 209.108 117.402 208.436ZM122.534 201.902C122.534 202.178 122.432 202.418 122.228 202.622C122.024 202.826 121.784 202.928 121.508 202.928C121.232 202.928 120.992 202.826 120.788 202.622C120.584 202.418 120.482 202.178 120.482 201.902C120.482 201.626 120.584 201.386 120.788 201.182C120.992 200.978 121.232 200.876 121.508 200.876C121.784 200.876 122.024 200.978 122.228 201.182C122.432 201.386 122.534 201.626 122.534 201.902ZM122.39 212H120.644V204.89H122.39V212ZM126.982 209.39L128.728 204.89H130.672L127.396 212.144H126.352L123.094 204.89H125.02L126.982 209.39ZM133.274 201.902C133.274 202.178 133.172 202.418 132.968 202.622C132.764 202.826 132.524 202.928 132.248 202.928C131.972 202.928 131.732 202.826 131.528 202.622C131.324 202.418 131.222 202.178 131.222 201.902C131.222 201.626 131.324 201.386 131.528 201.182C131.732 200.978 131.972 200.876 132.248 200.876C132.524 200.876 132.764 200.978 132.968 201.182C133.172 201.386 133.274 201.626 133.274 201.902ZM133.13 212H131.384V204.89H133.13V212ZM139.81 211.334C139.342 211.934 138.604 212.234 137.596 212.234C136.588 212.234 135.784 211.85 135.184 211.082C134.596 210.314 134.302 209.414 134.302 208.382C134.302 207.35 134.602 206.474 135.202 205.754C135.814 205.022 136.594 204.656 137.542 204.656C138.55 204.656 139.294 204.95 139.774 205.538L139.81 199.706H141.556V212H139.81V211.334ZM140.008 208.436C140.008 207.812 139.816 207.278 139.432 206.834C139.048 206.39 138.586 206.168 138.046 206.168C137.506 206.168 137.038 206.39 136.642 206.834C136.258 207.266 136.066 207.806 136.066 208.454C136.066 209.09 136.252 209.63 136.624 210.074C137.008 210.506 137.488 210.722 138.064 210.722C138.64 210.722 139.108 210.512 139.468 210.092C139.828 209.66 140.008 209.108 140.008 208.436ZM144.707 204.89V208.742C144.707 210.122 145.187 210.812 146.147 210.812C147.107 210.812 147.587 210.122 147.587 208.742V204.89H149.333V209.066C149.333 211.178 148.271 212.234 146.147 212.234C144.023 212.234 142.961 211.178 142.961 209.066V204.89H144.707ZM157.481 212H155.771V211.352C155.267 211.94 154.517 212.234 153.521 212.234C152.525 212.234 151.727 211.85 151.127 211.082C150.539 210.314 150.245 209.414 150.245 208.382C150.245 207.35 150.545 206.474 151.145 205.754C151.757 205.022 152.537 204.656 153.485 204.656C154.493 204.656 155.255 204.956 155.771 205.556V204.89H157.481V212ZM155.969 208.436C155.969 207.776 155.783 207.236 155.411 206.816C155.039 206.384 154.559 206.168 153.971 206.168C153.395 206.168 152.921 206.378 152.549 206.798C152.189 207.206 152.009 207.752 152.009 208.436C152.009 209.12 152.195 209.672 152.567 210.092C152.939 210.512 153.419 210.722 154.007 210.722C154.595 210.722 155.069 210.518 155.429 210.11C155.789 209.702 155.969 209.144 155.969 208.436ZM160.831 212H159.085V199.706H160.831V212ZM166.202 206.366C165.818 206.006 165.416 205.826 164.996 205.826C164.36 205.826 164.042 206.114 164.042 206.69C164.042 207.014 164.33 207.278 164.906 207.482C165.962 207.866 166.616 208.22 166.868 208.544C167.12 208.856 167.246 209.246 167.246 209.714C167.246 210.482 166.976 211.094 166.436 211.55C165.908 212.006 165.254 212.234 164.474 212.234C163.466 212.234 162.632 211.838 161.972 211.046L162.746 210.056C163.346 210.656 163.898 210.956 164.402 210.956C165.134 210.956 165.5 210.602 165.5 209.894C165.5 209.534 165.308 209.27 164.924 209.102C164.54 208.922 164.246 208.79 164.042 208.706C162.938 208.226 162.386 207.644 162.386 206.96C162.386 206.276 162.59 205.724 162.998 205.304C163.418 204.872 163.964 204.656 164.636 204.656C165.596 204.656 166.358 204.902 166.922 205.394L166.202 206.366ZM173.529 200.174C173.529 201.182 172.929 202.1 171.729 202.928L171.099 202.172C171.219 202.1 171.315 202.046 171.387 202.01C171.891 201.722 172.233 201.386 172.413 201.002C172.425 200.966 172.443 200.924 172.467 200.876H171.423V198.662H173.529V200.174ZM29.862 219.902C29.862 220.178 29.76 220.418 29.556 220.622C29.352 220.826 29.112 220.928 28.836 220.928C28.56 220.928 28.32 220.826 28.116 220.622C27.912 220.418 27.81 220.178 27.81 219.902C27.81 219.626 27.912 219.386 28.116 219.182C28.32 218.978 28.56 218.876 28.836 218.876C29.112 218.876 29.352 218.978 29.556 219.182C29.76 219.386 29.862 219.626 29.862 219.902ZM29.718 230H27.972V222.89H29.718V230ZM33.5358 230H31.7898V224.456H30.9438V223.034H31.7898V220.478H33.5358V223.034H34.9218V224.456H33.5358V230ZM36.7165 226.616C36.7165 227.3 36.8665 227.864 37.1665 228.308C37.4665 228.752 37.8805 228.974 38.4085 228.974C39.2365 228.974 39.7645 228.566 39.9925 227.75L41.6485 228.02C41.1085 229.496 40.0285 230.234 38.4085 230.234C37.3285 230.234 36.4645 229.892 35.8165 229.208C35.1805 228.512 34.8625 227.612 34.8625 226.508C34.8625 225.344 35.1685 224.414 35.7805 223.718C36.4045 223.01 37.2445 222.656 38.3005 222.656C39.3685 222.656 40.1965 222.992 40.7845 223.664C41.3845 224.324 41.6845 225.23 41.6845 226.382V226.616H36.7165ZM40.0645 225.644C40.0645 225.152 39.9085 224.72 39.5965 224.348C39.2965 223.976 38.9005 223.79 38.4085 223.79C37.9285 223.79 37.5325 223.988 37.2205 224.384C36.9205 224.768 36.7705 225.188 36.7705 225.644H40.0645ZM44.3723 223.628C44.8163 222.98 45.5123 222.656 46.4603 222.656C46.7603 222.656 47.0363 222.716 47.2883 222.836L47.0723 224.42C46.8083 224.252 46.5203 224.168 46.2083 224.168C44.9843 224.168 44.3723 225.044 44.3723 226.796V230H42.6263V222.89H44.3723V223.628ZM54.6668 230H52.9568V229.352C52.4528 229.94 51.7028 230.234 50.7068 230.234C49.7108 230.234 48.9128 229.85 48.3128 229.082C47.7248 228.314 47.4308 227.414 47.4308 226.382C47.4308 225.35 47.7308 224.474 48.3308 223.754C48.9428 223.022 49.7228 222.656 50.6708 222.656C51.6788 222.656 52.4408 222.956 52.9568 223.556V222.89H54.6668V230ZM53.1548 226.436C53.1548 225.776 52.9688 225.236 52.5968 224.816C52.2248 224.384 51.7448 224.168 51.1568 224.168C50.5808 224.168 50.1068 224.378 49.7348 224.798C49.3748 225.206 49.1948 225.752 49.1948 226.436C49.1948 227.12 49.3808 227.672 49.7528 228.092C50.1248 228.512 50.6048 228.722 51.1928 228.722C51.7808 228.722 52.2548 228.518 52.6148 228.11C52.9748 227.702 53.1548 227.144 53.1548 226.436ZM58.2683 230H56.5223V224.456H55.6763V223.034H56.5223V220.478H58.2683V223.034H59.6543V224.456H58.2683V230ZM62.2409 219.902C62.2409 220.178 62.1389 220.418 61.9349 220.622C61.7309 220.826 61.4909 220.928 61.2149 220.928C60.9389 220.928 60.6989 220.826 60.4949 220.622C60.2909 220.418 60.1889 220.178 60.1889 219.902C60.1889 219.626 60.2909 219.386 60.4949 219.182C60.6989 218.978 60.9389 218.876 61.2149 218.876C61.4909 218.876 61.7309 218.978 61.9349 219.182C62.1389 219.386 62.2409 219.626 62.2409 219.902ZM62.0969 230H60.3509V222.89H62.0969V230ZM70.7567 226.436C70.7567 227.552 70.4147 228.464 69.7307 229.172C69.0467 229.88 68.1467 230.234 67.0307 230.234C65.9267 230.234 65.0267 229.88 64.3307 229.172C63.6347 228.464 63.2867 227.558 63.2867 226.454C63.2867 225.338 63.6287 224.426 64.3127 223.718C64.9967 223.01 65.8967 222.656 67.0127 222.656C68.1287 222.656 69.0287 223.01 69.7127 223.718C70.4087 224.414 70.7567 225.32 70.7567 226.436ZM65.0507 226.472C65.0507 227.132 65.2367 227.672 65.6087 228.092C65.9807 228.512 66.4607 228.722 67.0487 228.722C67.6367 228.722 68.1047 228.5 68.4527 228.056C68.8127 227.6 68.9927 227.066 68.9927 226.454C68.9927 225.83 68.8127 225.296 68.4527 224.852C68.0927 224.396 67.6187 224.168 67.0307 224.168C66.4547 224.168 65.9807 224.384 65.6087 224.816C65.2367 225.248 65.0507 225.8 65.0507 226.472ZM73.464 223.538C73.956 222.95 74.682 222.656 75.642 222.656C77.274 222.656 78.09 223.658 78.09 225.662V230H76.362V226.238C76.362 224.738 75.9 223.988 74.976 223.988C73.968 223.988 73.464 224.792 73.464 226.4V230H71.718V222.89H73.464V223.538ZM83.3383 224.366C82.9543 224.006 82.5523 223.826 82.1323 223.826C81.4963 223.826 81.1783 224.114 81.1783 224.69C81.1783 225.014 81.4663 225.278 82.0423 225.482C83.0983 225.866 83.7523 226.22 84.0043 226.544C84.2563 226.856 84.3823 227.246 84.3823 227.714C84.3823 228.482 84.1123 229.094 83.5723 229.55C83.0443 230.006 82.3903 230.234 81.6103 230.234C80.6023 230.234 79.7683 229.838 79.1083 229.046L79.8823 228.056C80.4823 228.656 81.0343 228.956 81.5383 228.956C82.2703 228.956 82.6363 228.602 82.6363 227.894C82.6363 227.534 82.4443 227.27 82.0603 227.102C81.6763 226.922 81.3823 226.79 81.1783 226.706C80.0743 226.226 79.5223 225.644 79.5223 224.96C79.5223 224.276 79.7263 223.724 80.1343 223.304C80.5543 222.872 81.1003 222.656 81.7723 222.656C82.7323 222.656 83.4943 222.902 84.0583 223.394L83.3383 224.366ZM98.4774 226.436C98.4774 227.552 98.1354 228.464 97.4514 229.172C96.7674 229.88 95.8674 230.234 94.7514 230.234C93.6474 230.234 92.7474 229.88 92.0514 229.172C91.3554 228.464 91.0074 227.558 91.0074 226.454C91.0074 225.338 91.3494 224.426 92.0334 223.718C92.7174 223.01 93.6174 222.656 94.7334 222.656C95.8494 222.656 96.7494 223.01 97.4334 223.718C98.1294 224.414 98.4774 225.32 98.4774 226.436ZM92.7714 226.472C92.7714 227.132 92.9574 227.672 93.3294 228.092C93.7014 228.512 94.1814 228.722 94.7694 228.722C95.3574 228.722 95.8254 228.5 96.1734 228.056C96.5334 227.6 96.7134 227.066 96.7134 226.454C96.7134 225.83 96.5334 225.296 96.1734 224.852C95.8134 224.396 95.3394 224.168 94.7514 224.168C94.1754 224.168 93.7014 224.384 93.3294 224.816C92.9574 225.248 92.7714 225.8 92.7714 226.472ZM101.401 230H99.6548V224.456H98.8268V223.034H99.6548V220.802C99.6548 218.63 100.501 217.544 102.193 217.544C102.541 217.544 102.865 217.622 103.165 217.778V219.29C102.853 219.134 102.577 219.056 102.337 219.056C102.013 219.056 101.773 219.176 101.617 219.416C101.473 219.644 101.401 220.202 101.401 221.09V223.034H103.165V224.456H101.401V230ZM111.591 223.538C112.095 222.95 112.845 222.656 113.841 222.656C114.777 222.656 115.551 223.028 116.163 223.772C116.787 224.516 117.099 225.392 117.099 226.4C117.099 227.492 116.793 228.404 116.181 229.136C115.569 229.868 114.777 230.234 113.805 230.234C112.761 230.234 112.035 229.934 111.627 229.334L111.591 233.006H109.845V222.89H111.591V223.538ZM115.317 226.436C115.317 225.824 115.143 225.296 114.795 224.852C114.447 224.396 113.967 224.168 113.355 224.168C112.791 224.168 112.323 224.396 111.951 224.852C111.579 225.308 111.393 225.836 111.393 226.436C111.393 227.024 111.591 227.552 111.987 228.02C112.383 228.488 112.839 228.722 113.355 228.722C113.967 228.722 114.447 228.506 114.795 228.074C115.143 227.642 115.317 227.096 115.317 226.436ZM119.782 217.706V223.484C120.238 222.932 120.964 222.656 121.96 222.656C122.704 222.656 123.298 222.944 123.742 223.52C124.186 224.096 124.408 224.81 124.408 225.662V230H122.68V226.238C122.68 224.738 122.218 223.988 121.294 223.988C120.286 223.988 119.782 224.816 119.782 226.472V230H118.036V217.706H119.782ZM125.031 222.89H127.047L128.901 227.156L130.845 222.89H132.825L127.785 232.97H125.841L128.037 228.902L125.031 222.89ZM137.198 224.366C136.814 224.006 136.412 223.826 135.992 223.826C135.356 223.826 135.038 224.114 135.038 224.69C135.038 225.014 135.326 225.278 135.902 225.482C136.958 225.866 137.612 226.22 137.864 226.544C138.116 226.856 138.242 227.246 138.242 227.714C138.242 228.482 137.972 229.094 137.432 229.55C136.904 230.006 136.25 230.234 135.47 230.234C134.462 230.234 133.628 229.838 132.968 229.046L133.742 228.056C134.342 228.656 134.894 228.956 135.398 228.956C136.13 228.956 136.496 228.602 136.496 227.894C136.496 227.534 136.304 227.27 135.92 227.102C135.536 226.922 135.242 226.79 135.038 226.706C133.934 226.226 133.382 225.644 133.382 224.96C133.382 224.276 133.586 223.724 133.994 223.304C134.414 222.872 134.96 222.656 135.632 222.656C136.592 222.656 137.354 222.902 137.918 223.394L137.198 224.366ZM141.483 219.902C141.483 220.178 141.381 220.418 141.177 220.622C140.973 220.826 140.733 220.928 140.457 220.928C140.181 220.928 139.941 220.826 139.737 220.622C139.533 220.418 139.431 220.178 139.431 219.902C139.431 219.626 139.533 219.386 139.737 219.182C139.941 218.978 140.181 218.876 140.457 218.876C140.733 218.876 140.973 218.978 141.177 219.182C141.381 219.386 141.483 219.626 141.483 219.902ZM141.339 230H139.593V222.89H141.339V230ZM147.857 224.744C147.413 224.3 146.915 224.078 146.363 224.078C145.715 224.078 145.205 224.312 144.833 224.78C144.461 225.248 144.275 225.824 144.275 226.508C144.275 227.18 144.485 227.732 144.905 228.164C145.325 228.596 145.835 228.812 146.435 228.812C146.951 228.812 147.425 228.584 147.857 228.128V229.802C147.353 230.09 146.771 230.234 146.111 230.234C145.079 230.234 144.221 229.868 143.537 229.136C142.853 228.404 142.511 227.51 142.511 226.454C142.511 225.398 142.859 224.504 143.555 223.772C144.263 223.028 145.145 222.656 146.201 222.656C146.825 222.656 147.377 222.806 147.857 223.106V224.744ZM155.847 230H154.137V229.352C153.633 229.94 152.883 230.234 151.887 230.234C150.891 230.234 150.093 229.85 149.493 229.082C148.905 228.314 148.611 227.414 148.611 226.382C148.611 225.35 148.911 224.474 149.511 223.754C150.123 223.022 150.903 222.656 151.851 222.656C152.859 222.656 153.621 222.956 154.137 223.556V222.89H155.847V230ZM154.335 226.436C154.335 225.776 154.149 225.236 153.777 224.816C153.405 224.384 152.925 224.168 152.337 224.168C151.761 224.168 151.287 224.378 150.915 224.798C150.555 225.206 150.375 225.752 150.375 226.436C150.375 227.12 150.561 227.672 150.933 228.092C151.305 228.512 151.785 228.722 152.373 228.722C152.961 228.722 153.435 228.518 153.795 228.11C154.155 227.702 154.335 227.144 154.335 226.436ZM159.196 230H157.45V217.706H159.196V230ZM34.452 248H32.742V247.352C32.238 247.94 31.488 248.234 30.492 248.234C29.496 248.234 28.698 247.85 28.098 247.082C27.51 246.314 27.216 245.414 27.216 244.382C27.216 243.35 27.516 242.474 28.116 241.754C28.728 241.022 29.508 240.656 30.456 240.656C31.464 240.656 32.226 240.956 32.742 241.556V240.89H34.452V248ZM32.94 244.436C32.94 243.776 32.754 243.236 32.382 242.816C32.01 242.384 31.53 242.168 30.942 242.168C30.366 242.168 29.892 242.378 29.52 242.798C29.16 243.206 28.98 243.752 28.98 244.436C28.98 245.12 29.166 245.672 29.538 246.092C29.91 246.512 30.39 246.722 30.978 246.722C31.566 246.722 32.04 246.518 32.4 246.11C32.76 245.702 32.94 245.144 32.94 244.436ZM40.7534 242.744C40.3094 242.3 39.8114 242.078 39.2594 242.078C38.6114 242.078 38.1014 242.312 37.7294 242.78C37.3574 243.248 37.1714 243.824 37.1714 244.508C37.1714 245.18 37.3814 245.732 37.8014 246.164C38.2214 246.596 38.7314 246.812 39.3314 246.812C39.8474 246.812 40.3214 246.584 40.7534 246.128V247.802C40.2494 248.09 39.6674 248.234 39.0074 248.234C37.9754 248.234 37.1174 247.868 36.4334 247.136C35.7494 246.404 35.4074 245.51 35.4074 244.454C35.4074 243.398 35.7554 242.504 36.4514 241.772C37.1594 241.028 38.0414 240.656 39.0974 240.656C39.7214 240.656 40.2734 240.806 40.7534 241.106V242.744ZM44.153 248H42.407V242.456H41.561V241.034H42.407V238.478H44.153V241.034H45.539V242.456H44.153V248ZM48.1257 237.902C48.1257 238.178 48.0237 238.418 47.8197 238.622C47.6157 238.826 47.3757 238.928 47.0997 238.928C46.8237 238.928 46.5837 238.826 46.3797 238.622C46.1757 238.418 46.0737 238.178 46.0737 237.902C46.0737 237.626 46.1757 237.386 46.3797 237.182C46.5837 236.978 46.8237 236.876 47.0997 236.876C47.3757 236.876 47.6157 236.978 47.8197 237.182C48.0237 237.386 48.1257 237.626 48.1257 237.902ZM47.9817 248H46.2357V240.89H47.9817V248ZM52.5735 245.39L54.3195 240.89H56.2635L52.9875 248.144H51.9435L48.6855 240.89H50.6115L52.5735 245.39ZM58.8659 237.902C58.8659 238.178 58.7639 238.418 58.5599 238.622C58.3559 238.826 58.1159 238.928 57.8399 238.928C57.5639 238.928 57.3239 238.826 57.1199 238.622C56.9159 238.418 56.8139 238.178 56.8139 237.902C56.8139 237.626 56.9159 237.386 57.1199 237.182C57.3239 236.978 57.5639 236.876 57.8399 236.876C58.1159 236.876 58.3559 236.978 58.5599 237.182C58.7639 237.386 58.8659 237.626 58.8659 237.902ZM58.7219 248H56.9759V240.89H58.7219V248ZM62.5397 248H60.7937V242.456H59.9477V241.034H60.7937V238.478H62.5397V241.034H63.9257V242.456H62.5397V248ZM63.5424 240.89H65.5584L67.4124 245.156L69.3564 240.89H71.3364L66.2964 250.97H64.3524L66.5484 246.902L63.5424 240.89ZM79.6691 241.538C80.1731 240.95 80.9231 240.656 81.9191 240.656C82.8551 240.656 83.6291 241.028 84.2411 241.772C84.8651 242.516 85.1771 243.392 85.1771 244.4C85.1771 245.492 84.8711 246.404 84.2591 247.136C83.6471 247.868 82.8551 248.234 81.8831 248.234C80.8391 248.234 80.1131 247.934 79.7051 247.334L79.6691 251.006H77.9231V240.89H79.6691V241.538ZM83.3951 244.436C83.3951 243.824 83.2211 243.296 82.8731 242.852C82.5251 242.396 82.0451 242.168 81.4331 242.168C80.8691 242.168 80.4011 242.396 80.0291 242.852C79.6571 243.308 79.4711 243.836 79.4711 244.436C79.4711 245.024 79.6691 245.552 80.0651 246.02C80.4611 246.488 80.9171 246.722 81.4331 246.722C82.0451 246.722 82.5251 246.506 82.8731 246.074C83.2211 245.642 83.3951 245.096 83.3951 244.436ZM88.0045 248H86.2585V235.706H88.0045V248ZM96.3094 248H94.5994V247.352C94.0954 247.94 93.3454 248.234 92.3494 248.234C91.3534 248.234 90.5554 247.85 89.9554 247.082C89.3674 246.314 89.0734 245.414 89.0734 244.382C89.0734 243.35 89.3734 242.474 89.9734 241.754C90.5854 241.022 91.3654 240.656 92.3134 240.656C93.3214 240.656 94.0834 240.956 94.5994 241.556V240.89H96.3094V248ZM94.7974 244.436C94.7974 243.776 94.6114 243.236 94.2394 242.816C93.8674 242.384 93.3874 242.168 92.7994 242.168C92.2234 242.168 91.7494 242.378 91.3774 242.798C91.0174 243.206 90.8374 243.752 90.8374 244.436C90.8374 245.12 91.0234 245.672 91.3954 246.092C91.7674 246.512 92.2474 246.722 92.8354 246.722C93.4234 246.722 93.8974 246.518 94.2574 246.11C94.6174 245.702 94.7974 245.144 94.7974 244.436ZM99.5148 241.538C100.007 240.95 100.733 240.656 101.693 240.656C103.325 240.656 104.141 241.658 104.141 243.662V248H102.413V244.238C102.413 242.738 101.951 241.988 101.027 241.988C100.019 241.988 99.5148 242.792 99.5148 244.4V248H97.7688V240.89H99.5148V241.538ZM107.337 241.538C107.829 240.95 108.555 240.656 109.515 240.656C111.147 240.656 111.963 241.658 111.963 243.662V248H110.235V244.238C110.235 242.738 109.773 241.988 108.849 241.988C107.841 241.988 107.337 242.792 107.337 244.4V248H105.591V240.89H107.337V241.538ZM115.555 237.902C115.555 238.178 115.453 238.418 115.249 238.622C115.045 238.826 114.805 238.928 114.529 238.928C114.253 238.928 114.013 238.826 113.809 238.622C113.605 238.418 113.503 238.178 113.503 237.902C113.503 237.626 113.605 237.386 113.809 237.182C114.013 236.978 114.253 236.876 114.529 236.876C114.805 236.876 115.045 236.978 115.249 237.182C115.453 237.386 115.555 237.626 115.555 237.902ZM115.411 248H113.665V240.89H115.411V248ZM118.833 241.538C119.325 240.95 120.051 240.656 121.011 240.656C122.643 240.656 123.459 241.658 123.459 243.662V248H121.731V244.238C121.731 242.738 121.269 241.988 120.345 241.988C119.337 241.988 118.833 242.792 118.833 244.4V248H117.087V240.89H118.833V241.538ZM131.677 247.388C131.677 249.824 130.543 251.042 128.275 251.042C127.267 251.042 126.415 250.766 125.719 250.214C125.023 249.674 124.675 248.966 124.675 248.09H126.529C126.529 248.438 126.703 248.78 127.051 249.116C127.399 249.452 127.789 249.62 128.221 249.62C129.361 249.62 129.931 248.936 129.931 247.568V247.118C129.439 247.742 128.689 248.054 127.681 248.054C126.685 248.054 125.899 247.706 125.323 247.01C124.759 246.314 124.477 245.462 124.477 244.454C124.477 243.362 124.783 242.45 125.395 241.718C126.007 240.986 126.799 240.62 127.771 240.62C128.755 240.62 129.475 240.926 129.931 241.538V240.854H131.677V247.388ZM130.183 244.292C130.183 243.644 130.003 243.122 129.643 242.726C129.283 242.33 128.809 242.132 128.221 242.132C127.633 242.132 127.153 242.348 126.781 242.78C126.421 243.212 126.241 243.758 126.241 244.418C126.241 245.834 126.901 246.542 128.221 246.542C128.821 246.542 129.295 246.332 129.643 245.912C130.003 245.48 130.183 244.94 130.183 244.292ZM142.858 242.366C142.474 242.006 142.072 241.826 141.652 241.826C141.016 241.826 140.698 242.114 140.698 242.69C140.698 243.014 140.986 243.278 141.562 243.482C142.618 243.866 143.272 244.22 143.524 244.544C143.776 244.856 143.902 245.246 143.902 245.714C143.902 246.482 143.632 247.094 143.092 247.55C142.564 248.006 141.91 248.234 141.13 248.234C140.122 248.234 139.288 247.838 138.628 247.046L139.402 246.056C140.002 246.656 140.554 246.956 141.058 246.956C141.79 246.956 142.156 246.602 142.156 245.894C142.156 245.534 141.964 245.27 141.58 245.102C141.196 244.922 140.902 244.79 140.698 244.706C139.594 244.226 139.042 243.644 139.042 242.96C139.042 242.276 139.246 241.724 139.654 241.304C140.074 240.872 140.62 240.656 141.292 240.656C142.252 240.656 143.014 240.902 143.578 241.394L142.858 242.366ZM149.843 242.744C149.399 242.3 148.901 242.078 148.349 242.078C147.701 242.078 147.191 242.312 146.819 242.78C146.447 243.248 146.261 243.824 146.261 244.508C146.261 245.18 146.471 245.732 146.891 246.164C147.311 246.596 147.821 246.812 148.421 246.812C148.937 246.812 149.411 246.584 149.843 246.128V247.802C149.339 248.09 148.757 248.234 148.097 248.234C147.065 248.234 146.207 247.868 145.523 247.136C144.839 246.404 144.497 245.51 144.497 244.454C144.497 243.398 144.845 242.504 145.541 241.772C146.249 241.028 147.131 240.656 148.187 240.656C148.811 240.656 149.363 240.806 149.843 241.106V242.744ZM152.847 235.706V241.484C153.303 240.932 154.029 240.656 155.025 240.656C155.769 240.656 156.363 240.944 156.807 241.52C157.251 242.096 157.473 242.81 157.473 243.662V248H155.745V244.238C155.745 242.738 155.283 241.988 154.359 241.988C153.351 241.988 152.847 242.816 152.847 244.472V248H151.101V235.706H152.847ZM160.273 244.616C160.273 245.3 160.423 245.864 160.723 246.308C161.023 246.752 161.437 246.974 161.965 246.974C162.793 246.974 163.321 246.566 163.549 245.75L165.205 246.02C164.665 247.496 163.585 248.234 161.965 248.234C160.885 248.234 160.021 247.892 159.373 247.208C158.737 246.512 158.419 245.612 158.419 244.508C158.419 243.344 158.725 242.414 159.337 241.718C159.961 241.01 160.801 240.656 161.857 240.656C162.925 240.656 163.753 240.992 164.341 241.664C164.941 242.324 165.241 243.23 165.241 244.382V244.616H160.273ZM163.621 243.644C163.621 243.152 163.465 242.72 163.153 242.348C162.853 241.976 162.457 241.79 161.965 241.79C161.485 241.79 161.089 241.988 160.777 242.384C160.477 242.768 160.327 243.188 160.327 243.644H163.621ZM167.929 241.52C168.373 240.944 169.057 240.656 169.981 240.656C170.785 240.656 171.421 241.028 171.889 241.772C172.345 241.028 173.083 240.656 174.103 240.656C175.603 240.656 176.353 241.628 176.353 243.572V248H174.625V244.256C174.625 242.744 174.211 241.988 173.383 241.988C172.555 241.988 172.141 242.828 172.141 244.508V248H170.395V244.4C170.395 242.792 170.029 241.988 169.297 241.988C168.385 241.988 167.929 242.828 167.929 244.508V248H166.183V240.89H167.929V241.52ZM184.552 248H182.842V247.352C182.338 247.94 181.588 248.234 180.592 248.234C179.596 248.234 178.798 247.85 178.198 247.082C177.61 246.314 177.316 245.414 177.316 244.382C177.316 243.35 177.616 242.474 178.216 241.754C178.828 241.022 179.608 240.656 180.556 240.656C181.564 240.656 182.326 240.956 182.842 241.556V240.89H184.552V248ZM183.04 244.436C183.04 243.776 182.854 243.236 182.482 242.816C182.11 242.384 181.63 242.168 181.042 242.168C180.466 242.168 179.992 242.378 179.62 242.798C179.26 243.206 179.08 243.752 179.08 244.436C179.08 245.12 179.266 245.672 179.638 246.092C180.01 246.512 180.49 246.722 181.078 246.722C181.666 246.722 182.14 246.518 182.5 246.11C182.86 245.702 183.04 245.144 183.04 244.436ZM188.675 246.974C188.675 247.334 188.549 247.646 188.297 247.91C188.057 248.162 187.757 248.288 187.397 248.288C187.037 248.288 186.731 248.162 186.479 247.91C186.227 247.658 186.101 247.358 186.101 247.01C186.101 246.65 186.227 246.344 186.479 246.092C186.731 245.84 187.031 245.714 187.379 245.714C187.739 245.714 188.045 245.834 188.297 246.074C188.549 246.314 188.675 246.614 188.675 246.974Z" fill="white"/>
<path fill-rule="evenodd" clip-rule="evenodd" d="M54.2577 48.5479C52.4339 45.2515 48.9326 43.0211 44.9126 43.0211C42.4319 43.0211 40.4042 43.4694 38.8293 44.3662C37.2442 45.2526 36.0708 46.4534 35.3091 47.9686C34.5474 49.4838 34.1665 51.1742 34.1665 53.0399C34.1665 54.9055 34.5474 56.6011 35.3091 58.1266C35.9711 59.4707 36.9528 60.5747 38.2541 61.4387C36.9572 62.2831 35.9755 63.3681 35.3091 64.6938C34.5474 66.209 34.1665 67.8994 34.1665 69.7651C34.1665 71.6307 34.5474 73.3263 35.3091 74.8519C36.0605 76.3773 37.2235 77.5936 38.7984 78.5006C39.513 78.9076 41.0764 79.2045 42.5714 79.4076C44.2119 79.6305 45.4255 78.0043 44.8509 76.4443C44.8509 76.4443 41.9121 76.1506 40.8829 75.563C39.8535 74.9755 39.1073 74.1819 38.6441 73.182C38.1706 72.1719 37.9338 71.0329 37.9338 69.7651C37.9338 68.4972 38.1706 67.3635 38.6441 66.3637C39.1073 65.3639 39.8587 64.5805 40.8983 64.0136C41.9379 63.4364 43.3172 63.1477 45.0362 63.1477C48.754 63.1477 51.7679 66.1759 51.7679 69.9113V89.4872C51.7679 90.5495 52.6251 91.4108 53.6824 91.4108C53.8829 91.4108 54.0761 91.3797 54.2577 91.3225C54.4391 91.3797 54.6323 91.4108 54.8328 91.4108C55.8902 91.4108 56.7473 90.5495 56.7473 89.4872V72.7659V72.762V69.9039C56.7513 66.1719 59.7637 63.1477 63.4791 63.1477C65.1981 63.1477 66.5773 63.4364 67.6169 64.0136C68.6566 64.5805 69.408 65.3639 69.8712 66.3637C70.3447 67.3635 70.5814 68.4972 70.5814 69.7651C70.5814 71.0329 70.3447 72.1719 69.8712 73.182C69.408 74.1819 68.6617 74.9755 67.6324 75.563C66.6031 76.1506 63.6643 76.4443 63.6643 76.4443C63.0722 78.0521 64.2611 79.7573 65.9527 79.5328C67.4424 79.335 68.8385 79.0008 69.7168 78.5006C71.2916 77.5936 72.4548 76.3773 73.2062 74.8519C73.9679 73.3263 74.3488 71.6307 74.3488 69.7651C74.3488 67.8994 73.9679 66.209 73.2062 64.6938C72.5397 63.3681 71.5581 62.2831 70.2612 61.4387C71.5625 60.5747 72.5442 59.4707 73.2062 58.1266C73.9679 56.6011 74.3488 54.9055 74.3488 53.0399C74.3488 51.1742 73.9679 49.4838 73.2062 47.9686C72.4444 46.4534 71.2711 45.2526 69.6859 44.3662C68.111 43.4694 66.0833 43.0211 63.6025 43.0211C59.5827 43.0211 56.0813 45.2515 54.2577 48.5479ZM44.9126 59.7462C44.8872 59.7462 44.8618 59.7464 44.8365 59.7464C44.5006 59.7077 41.8462 59.3877 40.8829 58.8378C39.8535 58.2503 39.1073 57.4566 38.6441 56.4568C38.1706 55.4467 37.9338 54.3077 37.9338 53.0399C37.9338 51.7721 38.1706 50.6383 38.6441 49.6384C39.1073 48.6386 39.8587 47.8552 40.8983 47.2883C41.9379 46.7111 43.3172 46.4225 45.0362 46.4225C48.7541 46.4225 51.7679 49.4507 51.7679 53.1861V62.247C49.9126 60.686 47.5218 59.7462 44.9126 59.7462ZM63.6025 59.7462C60.9934 59.7462 58.6026 60.686 56.7473 62.2469V53.1861C56.7473 49.4507 59.7612 46.4225 63.4791 46.4225C65.1981 46.4225 66.5773 46.7111 67.6169 47.2883C68.6566 47.8552 69.408 48.6386 69.8712 49.6384C70.3447 50.6383 70.5814 51.7721 70.5814 53.0399C70.5814 54.3077 70.3447 55.4467 69.8712 56.4568C69.408 57.4566 68.6617 58.2503 67.6324 58.8378C66.6678 59.3884 64.0365 59.7085 63.7093 59.7465C63.6738 59.7464 63.6382 59.7462 63.6025 59.7462Z" fill="white"/>
<path d="M54.3696 98.807C55.7373 98.807 56.8461 97.693 56.8461 96.3188C56.8461 94.9446 55.7373 93.8306 54.3696 93.8306C53.0018 93.8306 51.8931 94.9446 51.8931 96.3188C51.8931 97.693 53.0018 98.807 54.3696 98.807Z" fill="white"/>
<path d="M54.2392 92.1281C55.6069 92.1281 56.7157 91.0141 56.7157 89.6399C56.7157 88.2657 55.6069 87.1517 54.2392 87.1517C52.8715 87.1517 51.7627 88.2657 51.7627 89.6399C51.7627 91.0141 52.8715 92.1281 54.2392 92.1281Z" fill="white"/>
<path d="M30.6122 47.9764C31.98 47.9764 33.0887 46.8624 33.0887 45.4882C33.0887 44.114 31.98 43 30.6122 43C29.2445 43 28.1357 44.114 28.1357 45.4882C28.1357 46.8624 29.2445 47.9764 30.6122 47.9764Z" fill="white"/>
<path d="M223.758 292.434V294H216.414L219.186 290.49C220.506 288.858 221.28 287.838 221.508 287.43C221.748 287.01 221.868 286.668 221.868 286.404C221.88 286.332 221.886 286.26 221.886 286.188C221.886 285.708 221.724 285.282 221.4 284.91C221.088 284.538 220.674 284.352 220.158 284.352C219.642 284.352 219.234 284.562 218.934 284.982C218.646 285.402 218.502 285.912 218.502 286.512H216.558C216.558 285.432 216.876 284.544 217.512 283.848C218.16 283.14 219.036 282.786 220.14 282.786C221.136 282.786 221.976 283.122 222.66 283.794C223.344 284.466 223.686 285.306 223.686 286.314C223.686 287.262 222.96 288.582 221.508 290.274L219.654 292.434H223.758ZM232.467 288.546C232.467 290.13 232.119 291.486 231.423 292.614C230.727 293.73 229.767 294.288 228.543 294.288C227.331 294.288 226.377 293.724 225.681 292.596C224.985 291.468 224.637 290.118 224.637 288.546C224.637 286.914 224.985 285.546 225.681 284.442C226.389 283.338 227.349 282.786 228.561 282.786C229.773 282.786 230.727 283.35 231.423 284.478C232.119 285.594 232.467 286.95 232.467 288.546ZM226.437 288.528C226.437 289.632 226.629 290.61 227.013 291.462C227.397 292.302 227.919 292.722 228.579 292.722C229.239 292.722 229.749 292.326 230.109 291.534C230.481 290.742 230.667 289.74 230.667 288.528C230.667 287.412 230.475 286.44 230.091 285.612C229.707 284.772 229.191 284.352 228.543 284.352C227.907 284.352 227.397 284.79 227.013 285.666C226.629 286.53 226.437 287.484 226.437 288.528ZM240.492 292.434V294H233.148L235.92 290.49C237.24 288.858 238.014 287.838 238.242 287.43C238.482 287.01 238.602 286.668 238.602 286.404C238.614 286.332 238.62 286.26 238.62 286.188C238.62 285.708 238.458 285.282 238.134 284.91C237.822 284.538 237.408 284.352 236.892 284.352C236.376 284.352 235.968 284.562 235.668 284.982C235.38 285.402 235.236 285.912 235.236 286.512H233.292C233.292 285.432 233.61 284.544 234.246 283.848C234.894 283.14 235.77 282.786 236.874 282.786C237.87 282.786 238.71 283.122 239.394 283.794C240.078 284.466 240.42 285.306 240.42 286.314C240.42 287.262 239.694 288.582 238.242 290.274L236.388 292.434H240.492ZM248.86 292.434V294H241.516L244.288 290.49C245.608 288.858 246.382 287.838 246.61 287.43C246.85 287.01 246.97 286.668 246.97 286.404C246.982 286.332 246.988 286.26 246.988 286.188C246.988 285.708 246.826 285.282 246.502 284.91C246.19 284.538 245.776 284.352 245.26 284.352C244.744 284.352 244.336 284.562 244.036 284.982C243.748 285.402 243.604 285.912 243.604 286.512H241.66C241.66 285.432 241.978 284.544 242.614 283.848C243.262 283.14 244.138 282.786 245.242 282.786C246.238 282.786 247.078 283.122 247.762 283.794C248.446 284.466 248.788 285.306 248.788 286.314C248.788 287.262 248.062 288.582 246.61 290.274L244.756 292.434H248.86Z" fill="white"/>
<path d="M151.276 24.788L153.11 18.39H153.866L155.784 24.788L157.66 18.502H159.172L156.288 27.168H155.196L153.39 21.33L151.654 27.168H150.548L147.846 18.502H149.358L151.276 24.788ZM159.202 22.772C159.202 21.5307 159.599 20.4713 160.392 19.594C161.195 18.7167 162.203 18.278 163.416 18.278C164.629 18.278 165.633 18.7167 166.426 19.594C167.219 20.4713 167.616 21.526 167.616 22.758C167.616 23.99 167.219 25.0447 166.426 25.922C165.642 26.79 164.639 27.224 163.416 27.224C162.193 27.224 161.185 26.79 160.392 25.922C159.599 25.054 159.202 24.004 159.202 22.772ZM160.7 22.674C160.7 23.5047 160.961 24.2373 161.484 24.872C162.007 25.4973 162.651 25.81 163.416 25.81C164.237 25.81 164.895 25.5113 165.39 24.914C165.885 24.3073 166.132 23.5607 166.132 22.674C166.132 21.834 165.885 21.1293 165.39 20.56C164.895 19.9813 164.233 19.692 163.402 19.692C162.581 19.692 161.923 19.9813 161.428 20.56C160.943 21.1387 160.7 21.8433 160.7 22.674ZM174.068 27H172.29L169.882 23.22L169.868 27H168.426V18.502H170.68C172.575 18.502 173.522 19.356 173.522 21.064C173.522 21.708 173.354 22.2447 173.018 22.674C172.692 23.1033 172.244 23.3507 171.674 23.416L174.068 27ZM169.868 22.632H170.302C171.488 22.632 172.08 22.1233 172.08 21.106C172.08 20.126 171.492 19.636 170.316 19.636H169.868V22.632ZM179.251 18.502H181.071L177.837 22.422L181.253 27H179.335L176.269 22.786L176.255 27H174.813V18.502H176.255V22.478L179.251 18.502ZM187.931 27H186.489V18.502H187.931V27ZM189.235 18.278H190.327L195.129 24.676L195.157 18.502H196.585V27.168H195.507L190.691 20.784L190.677 27H189.235V18.278ZM203.911 27H202.469V18.502H204.723C206.693 18.502 207.677 19.3793 207.677 21.134C207.677 22.926 206.772 23.822 204.961 23.822H203.911V27ZM203.911 22.674H204.625C205.68 22.674 206.207 22.1607 206.207 21.134C206.207 20.1447 205.666 19.65 204.583 19.65H203.911V22.674ZM214.058 27H212.28L209.872 23.22L209.858 27H208.416V18.502H210.67C212.565 18.502 213.512 19.356 213.512 21.064C213.512 21.708 213.344 22.2447 213.008 22.674C212.682 23.1033 212.234 23.3507 211.664 23.416L214.058 27ZM209.858 22.632H210.292C211.478 22.632 212.07 22.1233 212.07 21.106C212.07 20.126 211.482 19.636 210.306 19.636H209.858V22.632ZM214.3 22.772C214.3 21.5307 214.696 20.4713 215.49 19.594C216.292 18.7167 217.3 18.278 218.514 18.278C219.727 18.278 220.73 18.7167 221.524 19.594C222.317 20.4713 222.714 21.526 222.714 22.758C222.714 23.99 222.317 25.0447 221.524 25.922C220.74 26.79 219.736 27.224 218.514 27.224C217.291 27.224 216.283 26.79 215.49 25.922C214.696 25.054 214.3 24.004 214.3 22.772ZM215.798 22.674C215.798 23.5047 216.059 24.2373 216.582 24.872C217.104 25.4973 217.748 25.81 218.514 25.81C219.335 25.81 219.993 25.5113 220.488 24.914C220.982 24.3073 221.23 23.5607 221.23 22.674C221.23 21.834 220.982 21.1293 220.488 20.56C219.993 19.9813 219.33 19.692 218.5 19.692C217.678 19.692 217.02 19.9813 216.526 20.56C216.04 21.1387 215.798 21.8433 215.798 22.674ZM231.042 22.478V22.688C231.042 24.0413 230.697 25.138 230.006 25.978C229.315 26.8087 228.368 27.224 227.164 27.224C225.997 27.224 225.031 26.7947 224.266 25.936C223.501 25.0773 223.118 24.0273 223.118 22.786C223.118 21.498 223.505 20.4247 224.28 19.566C225.064 18.7073 226.063 18.278 227.276 18.278C228.844 18.278 229.964 18.9547 230.636 20.308L229.348 20.994C228.919 20.014 228.214 19.524 227.234 19.524C226.478 19.524 225.853 19.8507 225.358 20.504C224.863 21.148 224.616 21.9133 224.616 22.8C224.616 23.6867 224.859 24.438 225.344 25.054C225.829 25.67 226.459 25.978 227.234 25.978C227.897 25.978 228.424 25.7447 228.816 25.278C229.208 24.8113 229.404 24.256 229.404 23.612H227.374V22.478H231.042ZM237.492 27H235.714L233.306 23.22L233.292 27H231.85V18.502H234.104C235.999 18.502 236.946 19.356 236.946 21.064C236.946 21.708 236.778 22.2447 236.442 22.674C236.115 23.1033 235.667 23.3507 235.098 23.416L237.492 27ZM233.292 22.632H233.726C234.911 22.632 235.504 22.1233 235.504 21.106C235.504 20.126 234.916 19.636 233.74 19.636H233.292V22.632ZM239.581 19.72V21.932H242.437V23.15H239.581V25.782H242.535V27H238.139V18.502H242.535V19.72H239.581ZM247.751 20.224C247.387 19.7107 246.925 19.454 246.365 19.454C246.011 19.454 245.712 19.5613 245.469 19.776C245.227 19.9907 245.105 20.28 245.105 20.644C245.105 20.9987 245.544 21.4233 246.421 21.918C247.308 22.4127 247.756 22.66 247.765 22.66C248.391 23.1267 248.703 23.6773 248.703 24.312C248.703 25.18 248.451 25.8847 247.947 26.426C247.453 26.958 246.771 27.224 245.903 27.224C244.802 27.224 243.934 26.6733 243.299 25.572L244.209 24.676C244.331 25.0027 244.555 25.3013 244.881 25.572C245.208 25.8427 245.544 25.978 245.889 25.978C246.3 25.978 246.622 25.838 246.855 25.558C247.098 25.278 247.219 24.9373 247.219 24.536C247.219 24.2467 247.131 23.9947 246.953 23.78C246.776 23.556 246.174 23.22 245.147 22.772C244.13 22.3147 243.621 21.666 243.621 20.826C243.621 20.1073 243.855 19.5053 244.321 19.02C244.797 18.5253 245.39 18.278 246.099 18.278C247.079 18.278 247.854 18.5953 248.423 19.23L247.751 20.224ZM253.671 20.224C253.307 19.7107 252.845 19.454 252.285 19.454C251.93 19.454 251.632 19.5613 251.389 19.776C251.146 19.9907 251.025 20.28 251.025 20.644C251.025 20.9987 251.464 21.4233 252.341 21.918C253.228 22.4127 253.676 22.66 253.685 22.66C254.31 23.1267 254.623 23.6773 254.623 24.312C254.623 25.18 254.371 25.8847 253.867 26.426C253.372 26.958 252.691 27.224 251.823 27.224C250.722 27.224 249.854 26.6733 249.219 25.572L250.129 24.676C250.25 25.0027 250.474 25.3013 250.801 25.572C251.128 25.8427 251.464 25.978 251.809 25.978C252.22 25.978 252.542 25.838 252.775 25.558C253.018 25.278 253.139 24.9373 253.139 24.536C253.139 24.2467 253.05 23.9947 252.873 23.78C252.696 23.556 252.094 23.22 251.067 22.772C250.05 22.3147 249.541 21.666 249.541 20.826C249.541 20.1073 249.774 19.5053 250.241 19.02C250.717 18.5253 251.31 18.278 252.019 18.278C252.999 18.278 253.774 18.5953 254.343 19.23L253.671 20.224Z" fill="white"/>
</svg>
