<svg width="211" height="148" viewBox="0 0 211 148" fill="none" xmlns="http://www.w3.org/2000/svg">
<path d="M4.24 17.16C3.48267 17.16 2.77867 17 2.128 16.68C1.47733 16.36 0.954667 15.912 0.56 15.336L1.6 14.312C1.93067 14.7387 2.34667 15.0853 2.848 15.352C3.36 15.608 3.85067 15.736 4.32 15.736C4.90667 15.736 5.376 15.592 5.728 15.304C6.09067 15.016 6.272 14.6373 6.272 14.168C6.272 13.848 6.208 13.576 6.08 13.352C5.96267 13.128 5.74933 12.9093 5.44 12.696C5.13067 12.472 4.67733 12.2107 4.08 11.912C2.928 11.3467 2.11733 10.8133 1.648 10.312C1.17867 9.8 0.944 9.19733 0.944 8.504C0.944 7.93867 1.088 7.43733 1.376 7C1.664 6.56267 2.07467 6.22667 2.608 5.992C3.14133 5.75733 3.75467 5.64 4.448 5.64C5.19467 5.64 5.86667 5.8 6.464 6.12C7.072 6.42933 7.50933 6.84533 7.776 7.368L6.656 8.2C6.4 7.83733 6.08 7.56 5.696 7.368C5.32267 7.16533 4.91733 7.064 4.48 7.064C3.92533 7.064 3.488 7.192 3.168 7.448C2.848 7.69333 2.688 8.03467 2.688 8.472C2.688 8.73867 2.752 8.968 2.88 9.16C3.01867 9.352 3.25867 9.56 3.6 9.784C3.952 9.99733 4.49067 10.28 5.216 10.632C6.22933 11.1227 6.944 11.6293 7.36 12.152C7.78667 12.664 8 13.2933 8 14.04C8 14.6587 7.84533 15.208 7.536 15.688C7.22667 16.1573 6.784 16.52 6.208 16.776C5.64267 17.032 4.98667 17.16 4.24 17.16ZM16.4501 13.608H10.7541C10.8395 14.3333 11.0688 14.8827 11.4421 15.256C11.8261 15.6293 12.3488 15.816 13.0101 15.816C13.9488 15.816 14.7061 15.448 15.2821 14.712L16.1621 15.56C15.8528 16.0613 15.4101 16.456 14.8341 16.744C14.2581 17.0213 13.6235 17.16 12.9301 17.16C11.7355 17.16 10.8021 16.7973 10.1301 16.072C9.46879 15.336 9.13813 14.3173 9.13813 13.016C9.13813 11.7147 9.47413 10.696 10.1461 9.96C10.8181 9.21333 11.7408 8.84 12.9141 8.84C14.0235 8.84 14.8875 9.208 15.5061 9.944C16.1355 10.6693 16.4501 11.688 16.4501 13V13.608ZM14.9461 12.36C14.9461 11.6667 14.7595 11.1227 14.3861 10.728C14.0128 10.3333 13.5008 10.136 12.8501 10.136C12.2421 10.136 11.7568 10.3387 11.3941 10.744C11.0315 11.1493 10.8128 11.7253 10.7381 12.472H14.9461V12.36ZM19.896 17.16C19.288 17.16 18.8293 16.9893 18.52 16.648C18.2107 16.296 18.056 15.7787 18.056 15.096V5.128H19.64V15.096C19.64 15.4267 19.6987 15.6613 19.816 15.8C19.944 15.9387 20.1467 16.008 20.424 16.008C20.648 16.008 20.9253 15.9387 21.256 15.8L21.496 16.712C21.08 17.0107 20.5467 17.16 19.896 17.16ZM23.1751 10.12H21.8471V9H23.1751V8.008C23.1751 7.24 23.4045 6.63733 23.8631 6.2C24.3218 5.752 24.9565 5.528 25.7671 5.528C26.1085 5.528 26.4285 5.58133 26.7271 5.688C27.0365 5.79467 27.2871 5.944 27.4791 6.136L26.9031 7.096C26.6365 6.86133 26.3058 6.744 25.9111 6.744C25.5591 6.744 25.2765 6.86667 25.0631 7.112C24.8605 7.34667 24.7591 7.672 24.7591 8.088V9H27.0311V10.12H24.7591V17H23.1751V10.12ZM27.7144 12.184H32.1944V13.304H27.7144V12.184ZM36.3519 7.128H32.9279V5.8H41.5039V7.128H38.0959V17H36.3519V7.128ZM42.7893 10.952C42.7893 10.0453 42.7733 9.39467 42.7413 9H44.2293C44.2719 9.42667 44.2933 9.896 44.2933 10.408V10.568H44.3413C44.5546 10.024 44.8906 9.60267 45.3493 9.304C45.8186 8.99467 46.3679 8.84 46.9973 8.84C47.1679 8.84 47.3226 8.856 47.4613 8.888V10.168C47.3866 10.1467 47.2213 10.136 46.9653 10.136C46.4959 10.136 46.0586 10.2747 45.6533 10.552C45.2586 10.8187 44.9439 11.1867 44.7093 11.656C44.4853 12.1147 44.3733 12.6213 44.3733 13.176V17H42.7893V10.952ZM50.9366 17.16C50.414 17.16 49.9446 17.0533 49.5286 16.84C49.1233 16.6267 48.8033 16.3333 48.5686 15.96C48.3446 15.576 48.2326 15.144 48.2326 14.664C48.2326 13.8533 48.542 13.2347 49.1606 12.808C49.7793 12.3707 50.6593 12.152 51.8006 12.152H53.3046V11.752C53.3046 11.2187 53.1606 10.808 52.8726 10.52C52.5846 10.232 52.1633 10.088 51.6086 10.088C51.1286 10.088 50.6806 10.184 50.2646 10.376C49.8486 10.5573 49.5073 10.824 49.2406 11.176L48.4886 10.232C48.8726 9.784 49.3366 9.44267 49.8806 9.208C50.4353 8.96267 51.0326 8.84 51.6726 8.84C52.6966 8.84 53.4913 9.09067 54.0566 9.592C54.622 10.0827 54.9046 10.7813 54.9046 11.688V15.4C54.9046 15.88 54.9686 16.4133 55.0966 17H53.7046C53.598 16.744 53.5233 16.3867 53.4806 15.928H53.4486C52.8406 16.7493 52.0033 17.16 50.9366 17.16ZM51.2406 15.928C51.8166 15.928 52.302 15.7733 52.6966 15.464C53.102 15.144 53.3046 14.76 53.3046 14.312V13.256H51.7366C51.1073 13.256 50.622 13.3787 50.2806 13.624C49.95 13.8587 49.7846 14.2053 49.7846 14.664C49.7846 15.0587 49.9126 15.368 50.1686 15.592C50.4353 15.816 50.7926 15.928 51.2406 15.928ZM60.2735 17.16C59.0682 17.16 58.1295 16.792 57.4575 16.056C56.7855 15.32 56.4495 14.3013 56.4495 13C56.4495 11.688 56.7855 10.6693 57.4575 9.944C58.1295 9.208 59.0682 8.84 60.2735 8.84C60.9668 8.84 61.5748 8.97333 62.0975 9.24C62.6308 9.50667 63.0468 9.89067 63.3455 10.392L62.4015 11.24C62.1775 10.8773 61.8842 10.5947 61.5215 10.392C61.1588 10.1893 60.7642 10.088 60.3375 10.088C59.6122 10.088 59.0468 10.344 58.6415 10.856C58.2362 11.368 58.0335 12.0827 58.0335 13C58.0335 13.9067 58.2362 14.6213 58.6415 15.144C59.0468 15.656 59.6122 15.912 60.3375 15.912C60.7642 15.912 61.1588 15.8107 61.5215 15.608C61.8842 15.4053 62.1775 15.1227 62.4015 14.76L63.3455 15.608C63.0468 16.1093 62.6308 16.4933 62.0975 16.76C61.5748 17.0267 60.9668 17.16 60.2735 17.16ZM69.7538 17L67.2098 13.08L66.1058 14.168V17H64.5058V5.128H66.1058V12.264L69.3698 9H71.3058L68.2818 12.008L71.5458 17H69.7538ZM73.657 7.768C73.3263 7.768 73.065 7.67733 72.873 7.496C72.681 7.31467 72.585 7.06933 72.585 6.76C72.585 6.45067 72.681 6.20533 72.873 6.024C73.065 5.84267 73.3263 5.752 73.657 5.752C73.9877 5.752 74.249 5.84267 74.441 6.024C74.6437 6.20533 74.745 6.45067 74.745 6.76C74.745 7.06933 74.6437 7.31467 74.441 7.496C74.249 7.67733 73.9877 7.768 73.657 7.768ZM72.873 9H74.457V17H72.873V9ZM76.5835 11.048C76.5835 10.056 76.5622 9.37333 76.5195 9H77.9915C78.0448 9.39467 78.0715 9.864 78.0715 10.408H78.1195C78.3328 9.928 78.6795 9.54933 79.1595 9.272C79.6502 8.984 80.1942 8.84 80.7915 8.84C82.6688 8.84 83.6075 10.056 83.6075 12.488V17H82.0235V12.472C82.0235 11.672 81.8902 11.08 81.6235 10.696C81.3568 10.312 80.9462 10.12 80.3915 10.12C79.7408 10.12 79.2075 10.3547 78.7915 10.824C78.3755 11.2933 78.1675 11.8907 78.1675 12.616V17H76.5835V11.048ZM92.3709 9V16.728C92.3709 18.0293 92.0455 19.016 91.3949 19.688C90.7549 20.36 89.8109 20.696 88.5629 20.696C87.9869 20.696 87.4375 20.6267 86.9149 20.488C86.4029 20.36 85.9442 20.168 85.5389 19.912L86.0669 18.792C86.8775 19.1867 87.6882 19.384 88.4989 19.384C90.0775 19.384 90.8669 18.4187 90.8669 16.488V15.928C90.6535 16.3013 90.3389 16.5893 89.9229 16.792C89.5175 16.9947 89.0429 17.096 88.4989 17.096C87.4215 17.096 86.5789 16.7227 85.9709 15.976C85.3629 15.2293 85.0589 14.1947 85.0589 12.872C85.0589 11.6133 85.3575 10.6267 85.9549 9.912C86.5522 9.19733 87.3735 8.84 88.4189 8.84C88.9735 8.84 89.4589 8.952 89.8749 9.176C90.2909 9.38933 90.6215 9.69867 90.8669 10.104H90.8989L91.0589 9H92.3709ZM90.7869 12.488C90.7869 11.7093 90.6055 11.1067 90.2429 10.68C89.8909 10.2533 89.3949 10.04 88.7549 10.04C88.0935 10.04 87.5762 10.296 87.2029 10.808C86.8295 11.3093 86.6429 12.0133 86.6429 12.92C86.6429 13.848 86.8242 14.568 87.1869 15.08C87.5602 15.5813 88.0829 15.832 88.7549 15.832C89.3949 15.832 89.8909 15.64 90.2429 15.256C90.6055 14.872 90.7869 14.3333 90.7869 13.64V12.488Z" fill="black"/>
<path d="M1.157 47.454V38.731H2.002V47.454H1.157ZM4.11013 47.454V41.045H4.89013V41.617H4.94213C5.57913 41.201 6.43713 40.928 7.24313 40.928C8.46513 40.928 9.08913 41.422 9.08913 42.644V47.454H8.27013V42.826C8.27013 41.968 7.93213 41.63 6.89213 41.63C6.22913 41.63 5.50113 41.851 4.92913 42.176V47.454H4.11013ZM12.9289 47.519C11.9409 47.519 11.3299 47.103 11.3299 46.063V41.734H10.3939V41.045H11.3299V39.524H12.1489V41.045H13.8519V41.734H12.1489V45.946C12.1489 46.583 12.3569 46.856 13.1369 46.856C13.4099 46.856 13.7349 46.804 13.9689 46.726V47.272C13.7479 47.402 13.4489 47.519 12.9289 47.519ZM17.9966 47.558C15.9816 47.558 14.9676 46.362 14.9676 44.321V44.165C14.9676 41.929 16.2676 40.928 17.7626 40.928C19.5046 40.928 20.3106 41.968 20.3106 43.918V44.386H15.8126C15.8386 46.141 16.6186 46.856 18.1266 46.856C18.9846 46.856 19.5826 46.661 20.1156 46.388V47.012C19.7256 47.272 19.0106 47.558 17.9966 47.558ZM17.7366 41.591C16.8136 41.591 15.9296 42.15 15.8256 43.736H19.4526C19.4526 42.267 18.8936 41.591 17.7366 41.591ZM21.8334 47.454V38.146H22.6524V47.454H21.8334ZM24.601 47.454V38.146H25.42V47.454H24.601ZM27.3686 47.454V41.045H28.1876V47.454H27.3686ZM27.3556 39.706V38.809H28.2006V39.706H27.3556ZM32.3071 49.404C30.3311 49.404 29.4601 48.806 29.4601 47.883C29.4601 47.168 30.0191 46.778 30.7081 46.531V46.479C30.3571 46.388 30.0581 46.102 30.0581 45.686C30.0581 45.283 30.2921 44.984 30.7471 44.62C30.2661 44.295 29.9411 43.775 29.9411 43.034V42.956C29.9411 41.656 30.9551 40.902 32.3331 40.902C32.6451 40.902 32.9311 40.941 33.2041 41.006H35.3621V41.63H34.1141C34.4781 41.942 34.6731 42.371 34.6731 42.93V42.995C34.6731 44.36 33.6461 45.036 32.3201 45.036C31.9041 45.036 31.5141 44.971 31.1761 44.841C30.9941 45.01 30.8381 45.179 30.8381 45.413C30.8381 45.777 31.0721 45.946 31.5141 45.946H33.3341C34.4781 45.946 35.3361 46.284 35.3361 47.467C35.3361 48.533 34.4521 49.404 32.3071 49.404ZM32.2811 48.741C33.8931 48.741 34.4781 48.286 34.4781 47.584C34.4781 46.869 34.0751 46.7 33.2041 46.7H31.3191C30.7601 46.882 30.3311 47.168 30.3311 47.766C30.3311 48.403 30.8641 48.741 32.2811 48.741ZM32.3201 44.412C33.2821 44.412 33.8541 43.944 33.8541 43.034V42.917C33.8541 41.968 33.2431 41.539 32.3201 41.539C31.3711 41.539 30.7731 42.033 30.7731 42.891V43.008C30.7731 43.944 31.3971 44.412 32.3201 44.412ZM39.1597 47.558C37.1447 47.558 36.1307 46.362 36.1307 44.321V44.165C36.1307 41.929 37.4307 40.928 38.9257 40.928C40.6677 40.928 41.4737 41.968 41.4737 43.918V44.386H36.9757C37.0017 46.141 37.7817 46.856 39.2897 46.856C40.1477 46.856 40.7457 46.661 41.2787 46.388V47.012C40.8887 47.272 40.1737 47.558 39.1597 47.558ZM38.8997 41.591C37.9767 41.591 37.0927 42.15 36.9887 43.736H40.6157C40.6157 42.267 40.0567 41.591 38.8997 41.591ZM42.9705 47.454V41.045H43.7505V41.617H43.8025C44.4395 41.201 45.2975 40.928 46.1035 40.928C47.3255 40.928 47.9495 41.422 47.9495 42.644V47.454H47.1305V42.826C47.1305 41.968 46.7925 41.63 45.7525 41.63C45.0895 41.63 44.3615 41.851 43.7895 42.176V47.454H42.9705ZM51.7893 47.519C50.8013 47.519 50.1903 47.103 50.1903 46.063V41.734H49.2543V41.045H50.1903V39.524H51.0093V41.045H52.7123V41.734H51.0093V45.946C51.0093 46.583 51.2173 46.856 51.9973 46.856C52.2703 46.856 52.5953 46.804 52.8293 46.726V47.272C52.6083 47.402 52.3093 47.519 51.7893 47.519ZM59.921 47.558C58.608 47.558 57.282 46.765 57.282 44.399V44.23C57.282 41.929 58.465 40.928 60.116 40.928C60.948 40.928 61.507 41.162 61.871 41.396V38.146H62.69V47.454H62.001L61.923 46.895H61.871C61.442 47.285 60.831 47.558 59.921 47.558ZM60.155 46.895C60.961 46.895 61.52 46.596 61.871 46.284V42.085C61.546 41.825 60.922 41.63 60.246 41.63C58.946 41.63 58.127 42.306 58.127 44.139V44.373C58.127 46.245 58.959 46.895 60.155 46.895ZM67.2036 47.558C65.1886 47.558 64.1746 46.362 64.1746 44.321V44.165C64.1746 41.929 65.4746 40.928 66.9696 40.928C68.7116 40.928 69.5176 41.968 69.5176 43.918V44.386H65.0196C65.0456 46.141 65.8256 46.856 67.3336 46.856C68.1916 46.856 68.7896 46.661 69.3226 46.388V47.012C68.9326 47.272 68.2176 47.558 67.2036 47.558ZM66.9436 41.591C66.0206 41.591 65.1366 42.15 65.0326 43.736H68.6596C68.6596 42.267 68.1006 41.591 66.9436 41.591ZM72.732 47.454L70.314 41.032H71.198L73.148 46.388H73.174L75.137 41.032H75.956L73.551 47.454H72.732ZM77.2484 47.454V41.045H78.0674V47.454H77.2484ZM77.2354 39.706V38.809H78.0804V39.706H77.2354ZM82.499 47.558C80.64 47.558 79.574 46.44 79.574 44.347V44.178C79.574 41.903 80.887 40.928 82.538 40.928C83.37 40.928 83.851 41.071 84.306 41.357V42.033C83.76 41.773 83.318 41.63 82.486 41.63C81.264 41.63 80.419 42.423 80.419 44.048V44.334C80.419 46.011 81.134 46.856 82.59 46.856C83.474 46.856 84.033 46.583 84.384 46.388V47.051C83.968 47.311 83.422 47.558 82.499 47.558ZM88.4048 47.558C86.3898 47.558 85.3758 46.362 85.3758 44.321V44.165C85.3758 41.929 86.6758 40.928 88.1708 40.928C89.9128 40.928 90.7188 41.968 90.7188 43.918V44.386H86.2208C86.2468 46.141 87.0268 46.856 88.5348 46.856C89.3928 46.856 89.9908 46.661 90.5238 46.388V47.012C90.1338 47.272 89.4188 47.558 88.4048 47.558ZM88.1448 41.591C87.2218 41.591 86.3378 42.15 86.2338 43.736H89.8608C89.8608 42.267 89.3018 41.591 88.1448 41.591ZM93.8146 47.545C92.9696 47.545 92.2676 47.363 91.7736 47.09V46.44C92.3066 46.661 92.8006 46.856 93.7236 46.856C94.8156 46.856 95.2316 46.427 95.2316 45.79C95.2316 45.114 94.9066 44.841 94.0356 44.607L93.3856 44.412C92.4236 44.165 91.8256 43.736 91.8256 42.67C91.8256 41.643 92.5276 40.928 93.9706 40.928C94.8026 40.928 95.3356 41.123 95.6866 41.305V41.968C95.3226 41.786 94.6856 41.617 94.0096 41.617C93.0736 41.617 92.6056 41.968 92.6056 42.605C92.6056 43.216 92.9046 43.476 93.6456 43.697L94.3346 43.879C95.5176 44.217 96.0506 44.607 96.0506 45.725C96.0506 46.856 95.2446 47.545 93.8146 47.545ZM103.563 47.558C101.548 47.558 100.534 46.362 100.534 44.321V44.165C100.534 41.929 101.834 40.928 103.329 40.928C105.071 40.928 105.877 41.968 105.877 43.918V44.386H101.379C101.405 46.141 102.185 46.856 103.693 46.856C104.551 46.856 105.149 46.661 105.682 46.388V47.012C105.292 47.272 104.577 47.558 103.563 47.558ZM103.303 41.591C102.38 41.591 101.496 42.15 101.392 43.736H105.019C105.019 42.267 104.46 41.591 103.303 41.591ZM107.374 47.454V41.045H108.154V41.617H108.206C108.83 41.214 109.571 40.928 110.286 40.928C111.014 40.928 111.534 41.162 111.807 41.643H111.859C112.626 41.162 113.38 40.928 114.095 40.928C115.2 40.928 115.863 41.422 115.863 42.644V47.454H115.057V42.826C115.057 41.968 114.667 41.63 113.796 41.63C113.25 41.63 112.639 41.812 111.989 42.176C112.015 42.332 112.028 42.475 112.028 42.644V47.454H111.209V42.826C111.209 41.968 110.858 41.63 109.987 41.63C109.376 41.63 108.765 41.838 108.193 42.176V47.454H107.374ZM117.72 49.378V41.045H118.5V41.565H118.552C118.994 41.227 119.67 40.928 120.541 40.928C121.958 40.928 123.141 41.695 123.141 44.113V44.256C123.141 46.57 122.01 47.558 120.242 47.558C119.488 47.558 118.903 47.35 118.526 47.116V49.378H117.72ZM120.164 46.895C121.503 46.895 122.283 46.18 122.283 44.386V44.152C122.283 42.189 121.568 41.63 120.333 41.63C119.527 41.63 118.89 41.916 118.526 42.163V46.427C118.877 46.661 119.475 46.895 120.164 46.895ZM127.109 47.558C125.354 47.558 124.236 46.427 124.236 44.36V44.178C124.236 42.098 125.432 40.928 127.122 40.928C128.89 40.928 130.008 42.059 130.008 44.139V44.308C130.008 46.375 128.812 47.558 127.109 47.558ZM127.135 46.882C128.357 46.882 129.163 46.037 129.163 44.386V44.113C129.163 42.254 128.279 41.591 127.109 41.591C125.874 41.591 125.081 42.475 125.081 44.087V44.386C125.081 46.219 125.978 46.882 127.135 46.882ZM132.769 47.454L130.923 41.032H131.794L133.237 46.375H133.276L134.901 41.032H135.616L137.241 46.375H137.293L138.723 41.032H139.516L137.67 47.454H136.825L135.252 42.293H135.226L133.614 47.454H132.769ZM143.452 47.558C141.437 47.558 140.423 46.362 140.423 44.321V44.165C140.423 41.929 141.723 40.928 143.218 40.928C144.96 40.928 145.766 41.968 145.766 43.918V44.386H141.268C141.294 46.141 142.074 46.856 143.582 46.856C144.44 46.856 145.038 46.661 145.571 46.388V47.012C145.181 47.272 144.466 47.558 143.452 47.558ZM143.192 41.591C142.269 41.591 141.385 42.15 141.281 43.736H144.908C144.908 42.267 144.349 41.591 143.192 41.591ZM147.262 47.454V41.032H148.042V41.773H148.094C148.471 41.357 149.186 40.954 149.94 40.954C150.083 40.954 150.252 40.967 150.33 40.993V41.747C150.174 41.721 149.992 41.708 149.875 41.708C149.199 41.708 148.536 41.981 148.081 42.358V47.454H147.262ZM155.083 47.454V41.045H155.902V47.454H155.083ZM155.07 39.706V38.809H155.915V39.706H155.07ZM157.825 47.454V41.045H158.605V41.617H158.657C159.294 41.201 160.152 40.928 160.958 40.928C162.18 40.928 162.804 41.422 162.804 42.644V47.454H161.985V42.826C161.985 41.968 161.647 41.63 160.607 41.63C159.944 41.63 159.216 41.851 158.644 42.176V47.454H157.825ZM166.93 47.558C165.617 47.558 164.291 46.765 164.291 44.399V44.23C164.291 41.929 165.474 40.928 167.125 40.928C167.957 40.928 168.516 41.162 168.88 41.396V38.146H169.699V47.454H169.01L168.932 46.895H168.88C168.451 47.285 167.84 47.558 166.93 47.558ZM167.164 46.895C167.97 46.895 168.529 46.596 168.88 46.284V42.085C168.555 41.825 167.931 41.63 167.255 41.63C165.955 41.63 165.136 42.306 165.136 44.139V44.373C165.136 46.245 165.968 46.895 167.164 46.895ZM171.625 47.454V41.045H172.444V47.454H171.625ZM171.612 39.706V38.809H172.457V39.706H171.612ZM176.148 47.454L173.73 41.032H174.614L176.564 46.388H176.59L178.553 41.032H179.372L176.967 47.454H176.148ZM180.664 47.454V41.045H181.483V47.454H180.664ZM180.651 39.706V38.809H181.496V39.706H180.651ZM185.668 47.558C184.355 47.558 183.029 46.765 183.029 44.399V44.23C183.029 41.929 184.212 40.928 185.863 40.928C186.695 40.928 187.254 41.162 187.618 41.396V38.146H188.437V47.454H187.748L187.67 46.895H187.618C187.189 47.285 186.578 47.558 185.668 47.558ZM185.902 46.895C186.708 46.895 187.267 46.596 187.618 46.284V42.085C187.293 41.825 186.669 41.63 185.993 41.63C184.693 41.63 183.874 42.306 183.874 44.139V44.373C183.874 46.245 184.706 46.895 185.902 46.895ZM192.249 47.558C191.014 47.558 190.299 46.96 190.299 45.725V41.032H191.118V45.621C191.118 46.505 191.495 46.856 192.483 46.856C193.172 46.856 193.835 46.622 194.407 46.284V41.032H195.213V47.454H194.511L194.433 46.856H194.394C193.757 47.272 193.016 47.558 192.249 47.558ZM198.677 47.558C197.52 47.558 196.701 46.934 196.701 45.79C196.701 44.672 197.39 44.087 198.625 43.944L200.445 43.736V42.982C200.445 41.929 199.977 41.63 198.833 41.63C198.196 41.63 197.689 41.747 197.247 41.851V41.266C197.806 41.045 198.417 40.928 199.132 40.928C200.51 40.928 201.264 41.487 201.264 42.787V47.454H200.601L200.523 46.882H200.471C200.146 47.233 199.574 47.558 198.677 47.558ZM198.885 46.908C199.548 46.908 200.146 46.674 200.445 46.401V44.347L198.846 44.529C197.962 44.62 197.546 44.984 197.546 45.764C197.546 46.505 198.066 46.908 198.885 46.908ZM203.161 47.454V38.146H203.98V47.454H203.161ZM207.501 47.545C206.656 47.545 205.954 47.363 205.46 47.09V46.44C205.993 46.661 206.487 46.856 207.41 46.856C208.502 46.856 208.918 46.427 208.918 45.79C208.918 45.114 208.593 44.841 207.722 44.607L207.072 44.412C206.11 44.165 205.512 43.736 205.512 42.67C205.512 41.643 206.214 40.928 207.657 40.928C208.489 40.928 209.022 41.123 209.373 41.305V41.968C209.009 41.786 208.372 41.617 207.696 41.617C206.76 41.617 206.292 41.968 206.292 42.605C206.292 43.216 206.591 43.476 207.332 43.697L208.021 43.879C209.204 44.217 209.737 44.607 209.737 45.725C209.737 46.856 208.931 47.545 207.501 47.545ZM2.925 63.519C1.937 63.519 1.326 63.103 1.326 62.063V57.734H0.39V57.045H1.326V55.524H2.145V57.045H3.848V57.734H2.145V61.946C2.145 62.583 2.353 62.856 3.133 62.856C3.406 62.856 3.731 62.804 3.965 62.726V63.272C3.744 63.402 3.445 63.519 2.925 63.519ZM7.83666 63.558C6.08166 63.558 4.96366 62.427 4.96366 60.36V60.178C4.96366 58.098 6.15966 56.928 7.84966 56.928C9.61766 56.928 10.7357 58.059 10.7357 60.139V60.308C10.7357 62.375 9.53966 63.558 7.83666 63.558ZM7.86266 62.882C9.08466 62.882 9.89066 62.037 9.89066 60.386V60.113C9.89066 58.254 9.00666 57.591 7.83666 57.591C6.60166 57.591 5.80866 58.475 5.80866 60.087V60.386C5.80866 62.219 6.70566 62.882 7.86266 62.882ZM15.6375 63.454V57.045H16.4175V57.617H16.4695C17.0935 57.214 17.8345 56.928 18.5495 56.928C19.2775 56.928 19.7975 57.162 20.0705 57.643H20.1225C20.8895 57.162 21.6435 56.928 22.3585 56.928C23.4635 56.928 24.1265 57.422 24.1265 58.644V63.454H23.3205V58.826C23.3205 57.968 22.9305 57.63 22.0595 57.63C21.5135 57.63 20.9025 57.812 20.2525 58.176C20.2785 58.332 20.2915 58.475 20.2915 58.644V63.454H19.4725V58.826C19.4725 57.968 19.1215 57.63 18.2505 57.63C17.6395 57.63 17.0285 57.838 16.4565 58.176V63.454H15.6375ZM28.4412 63.558C26.6862 63.558 25.5682 62.427 25.5682 60.36V60.178C25.5682 58.098 26.7642 56.928 28.4542 56.928C30.2222 56.928 31.3402 58.059 31.3402 60.139V60.308C31.3402 62.375 30.1442 63.558 28.4412 63.558ZM28.4672 62.882C29.6892 62.882 30.4952 62.037 30.4952 60.386V60.113C30.4952 58.254 29.6112 57.591 28.4412 57.591C27.2062 57.591 26.4132 58.475 26.4132 60.087V60.386C26.4132 62.219 27.3102 62.882 28.4672 62.882ZM32.8269 63.454V57.045H33.6069V57.617H33.6589C34.2959 57.201 35.1539 56.928 35.9599 56.928C37.1819 56.928 37.8059 57.422 37.8059 58.644V63.454H36.9869V58.826C36.9869 57.968 36.6489 57.63 35.6089 57.63C34.9459 57.63 34.2179 57.851 33.6459 58.176V63.454H32.8269ZM39.6957 63.454V57.045H40.5147V63.454H39.6957ZM39.6827 55.706V54.809H40.5277V55.706H39.6827ZM44.4133 63.519C43.4253 63.519 42.8143 63.103 42.8143 62.063V57.734H41.8783V57.045H42.8143V55.524H43.6333V57.045H45.3363V57.734H43.6333V61.946C43.6333 62.583 43.8413 62.856 44.6213 62.856C44.8943 62.856 45.2193 62.804 45.4533 62.726V63.272C45.2323 63.402 44.9333 63.519 44.4133 63.519ZM49.3249 63.558C47.5699 63.558 46.4519 62.427 46.4519 60.36V60.178C46.4519 58.098 47.6479 56.928 49.3379 56.928C51.1059 56.928 52.2239 58.059 52.2239 60.139V60.308C52.2239 62.375 51.0279 63.558 49.3249 63.558ZM49.3509 62.882C50.5729 62.882 51.3789 62.037 51.3789 60.386V60.113C51.3789 58.254 50.4949 57.591 49.3249 57.591C48.0899 57.591 47.2969 58.475 47.2969 60.087V60.386C47.2969 62.219 48.1939 62.882 49.3509 62.882ZM53.7107 63.454V57.032H54.4907V57.773H54.5427C54.9197 57.357 55.6347 56.954 56.3887 56.954C56.5317 56.954 56.7007 56.967 56.7787 56.993V57.747C56.6227 57.721 56.4407 57.708 56.3237 57.708C55.6477 57.708 54.9847 57.981 54.5297 58.358V63.454H53.7107ZM63.4816 63.519C62.4936 63.519 61.8826 63.103 61.8826 62.063V57.734H60.9466V57.045H61.8826V55.524H62.7016V57.045H64.4046V57.734H62.7016V61.946C62.7016 62.583 62.9096 62.856 63.6896 62.856C63.9626 62.856 64.2876 62.804 64.5216 62.726V63.272C64.3006 63.402 64.0016 63.519 63.4816 63.519ZM65.9363 63.454V54.146H66.7553V57.604H66.8073C67.4313 57.188 68.2633 56.941 69.0693 56.941C70.2913 56.941 70.9153 57.435 70.9153 58.657V63.454H70.0963V58.826C70.0963 57.968 69.7583 57.63 68.7183 57.63C68.0553 57.63 67.3273 57.864 66.7553 58.176V63.454H65.9363ZM75.3921 63.558C73.3771 63.558 72.3631 62.362 72.3631 60.321V60.165C72.3631 57.929 73.6631 56.928 75.1581 56.928C76.9001 56.928 77.7061 57.968 77.7061 59.918V60.386H73.2081C73.2341 62.141 74.0141 62.856 75.5221 62.856C76.3801 62.856 76.9781 62.661 77.5111 62.388V63.012C77.1211 63.272 76.4061 63.558 75.3921 63.558ZM75.1321 57.591C74.2091 57.591 73.3251 58.15 73.2211 59.736H76.8481C76.8481 58.267 76.2891 57.591 75.1321 57.591ZM79.2289 63.454V57.045H80.0479V63.454H79.2289ZM79.2159 55.706V54.809H80.0609V55.706H79.2159ZM81.9705 63.454V57.032H82.7505V57.773H82.8025C83.1795 57.357 83.8945 56.954 84.6485 56.954C84.7915 56.954 84.9605 56.967 85.0385 56.993V57.747C84.8825 57.721 84.7005 57.708 84.5835 57.708C83.9075 57.708 83.2445 57.981 82.7895 58.358V63.454H81.9705ZM89.7654 65.378V57.045H90.5454V57.565H90.5974C91.0394 57.227 91.7154 56.928 92.5864 56.928C94.0034 56.928 95.1864 57.695 95.1864 60.113V60.256C95.1864 62.57 94.0554 63.558 92.2874 63.558C91.5334 63.558 90.9484 63.35 90.5714 63.116V65.378H89.7654ZM92.2094 62.895C93.5484 62.895 94.3284 62.18 94.3284 60.386V60.152C94.3284 58.189 93.6134 57.63 92.3784 57.63C91.5724 57.63 90.9354 57.916 90.5714 58.163V62.427C90.9224 62.661 91.5204 62.895 92.2094 62.895ZM96.697 63.454V54.146H97.516V57.604H97.568C98.192 57.188 99.024 56.941 99.83 56.941C101.052 56.941 101.676 57.435 101.676 58.657V63.454H100.857V58.826C100.857 57.968 100.519 57.63 99.479 57.63C98.816 57.63 98.088 57.864 97.516 58.176V63.454H96.697ZM104.034 65.404C103.748 65.404 103.436 65.326 103.254 65.235V64.624C103.423 64.663 103.67 64.715 103.904 64.715C104.541 64.715 104.905 64.429 105.152 63.753L105.36 63.142L102.89 57.032H103.748L105.763 62.076H105.789L107.661 57.032H108.467L105.919 63.844C105.529 64.897 105.061 65.404 104.034 65.404ZM111.283 63.545C110.438 63.545 109.736 63.363 109.242 63.09V62.44C109.775 62.661 110.269 62.856 111.192 62.856C112.284 62.856 112.7 62.427 112.7 61.79C112.7 61.114 112.375 60.841 111.504 60.607L110.854 60.412C109.892 60.165 109.294 59.736 109.294 58.67C109.294 57.643 109.996 56.928 111.439 56.928C112.271 56.928 112.804 57.123 113.155 57.305V57.968C112.791 57.786 112.154 57.617 111.478 57.617C110.542 57.617 110.074 57.968 110.074 58.605C110.074 59.216 110.373 59.476 111.114 59.697L111.803 59.879C112.986 60.217 113.519 60.607 113.519 61.725C113.519 62.856 112.713 63.545 111.283 63.545ZM115.03 63.454V57.045H115.849V63.454H115.03ZM115.017 55.706V54.809H115.862V55.706H115.017ZM120.28 63.558C118.421 63.558 117.355 62.44 117.355 60.347V60.178C117.355 57.903 118.668 56.928 120.319 56.928C121.151 56.928 121.632 57.071 122.087 57.357V58.033C121.541 57.773 121.099 57.63 120.267 57.63C119.045 57.63 118.2 58.423 118.2 60.048V60.334C118.2 62.011 118.915 62.856 120.371 62.856C121.255 62.856 121.814 62.583 122.165 62.388V63.051C121.749 63.311 121.203 63.558 120.28 63.558ZM125.12 63.558C123.963 63.558 123.144 62.934 123.144 61.79C123.144 60.672 123.833 60.087 125.068 59.944L126.888 59.736V58.982C126.888 57.929 126.42 57.63 125.276 57.63C124.639 57.63 124.132 57.747 123.69 57.851V57.266C124.249 57.045 124.86 56.928 125.575 56.928C126.953 56.928 127.707 57.487 127.707 58.787V63.454H127.044L126.966 62.882H126.914C126.589 63.233 126.017 63.558 125.12 63.558ZM125.328 62.908C125.991 62.908 126.589 62.674 126.888 62.401V60.347L125.289 60.529C124.405 60.62 123.989 60.984 123.989 61.764C123.989 62.505 124.509 62.908 125.328 62.908ZM129.604 63.454V54.146H130.423V63.454H129.604ZM137.308 63.558C136.151 63.558 135.332 62.934 135.332 61.79C135.332 60.672 136.021 60.087 137.256 59.944L139.076 59.736V58.982C139.076 57.929 138.608 57.63 137.464 57.63C136.827 57.63 136.32 57.747 135.878 57.851V57.266C136.437 57.045 137.048 56.928 137.763 56.928C139.141 56.928 139.895 57.487 139.895 58.787V63.454H139.232L139.154 62.882H139.102C138.777 63.233 138.205 63.558 137.308 63.558ZM137.516 62.908C138.179 62.908 138.777 62.674 139.076 62.401V60.347L137.477 60.529C136.593 60.62 136.177 60.984 136.177 61.764C136.177 62.505 136.697 62.908 137.516 62.908ZM144.274 63.558C142.415 63.558 141.349 62.44 141.349 60.347V60.178C141.349 57.903 142.662 56.928 144.313 56.928C145.145 56.928 145.626 57.071 146.081 57.357V58.033C145.535 57.773 145.093 57.63 144.261 57.63C143.039 57.63 142.194 58.423 142.194 60.048V60.334C142.194 62.011 142.909 62.856 144.365 62.856C145.249 62.856 145.808 62.583 146.159 62.388V63.051C145.743 63.311 145.197 63.558 144.274 63.558ZM149.632 63.519C148.644 63.519 148.033 63.103 148.033 62.063V57.734H147.097V57.045H148.033V55.524H148.852V57.045H150.555V57.734H148.852V61.946C148.852 62.583 149.06 62.856 149.84 62.856C150.113 62.856 150.438 62.804 150.672 62.726V63.272C150.451 63.402 150.152 63.519 149.632 63.519ZM152.113 63.454V57.045H152.932V63.454H152.113ZM152.1 55.706V54.809H152.945V55.706H152.1ZM156.635 63.454L154.217 57.032H155.101L157.051 62.388H157.077L159.04 57.032H159.859L157.454 63.454H156.635ZM161.152 63.454V57.045H161.971V63.454H161.152ZM161.139 55.706V54.809H161.984V55.706H161.139ZM165.869 63.519C164.881 63.519 164.27 63.103 164.27 62.063V57.734H163.334V57.045H164.27V55.524H165.089V57.045H166.792V57.734H165.089V61.946C165.089 62.583 165.297 62.856 166.077 62.856C166.35 62.856 166.675 62.804 166.909 62.726V63.272C166.688 63.402 166.389 63.519 165.869 63.519ZM168.35 63.454V57.045H169.169V63.454H168.35ZM168.337 55.706V54.809H169.182V55.706H168.337ZM173.705 63.558C171.69 63.558 170.676 62.362 170.676 60.321V60.165C170.676 57.929 171.976 56.928 173.471 56.928C175.213 56.928 176.019 57.968 176.019 59.918V60.386H171.521C171.547 62.141 172.327 62.856 173.835 62.856C174.693 62.856 175.291 62.661 175.824 62.388V63.012C175.434 63.272 174.719 63.558 173.705 63.558ZM173.445 57.591C172.522 57.591 171.638 58.15 171.534 59.736H175.161C175.161 58.267 174.602 57.591 173.445 57.591ZM179.114 63.545C178.269 63.545 177.567 63.363 177.073 63.09V62.44C177.606 62.661 178.1 62.856 179.023 62.856C180.115 62.856 180.531 62.427 180.531 61.79C180.531 61.114 180.206 60.841 179.335 60.607L178.685 60.412C177.723 60.165 177.125 59.736 177.125 58.67C177.125 57.643 177.827 56.928 179.27 56.928C180.102 56.928 180.635 57.123 180.986 57.305V57.968C180.622 57.786 179.985 57.617 179.309 57.617C178.373 57.617 177.905 57.968 177.905 58.605C177.905 59.216 178.204 59.476 178.945 59.697L179.634 59.879C180.817 60.217 181.35 60.607 181.35 61.725C181.35 62.856 180.544 63.545 179.114 63.545ZM182.445 63.714V62.622H183.524V63.714H182.445ZM1.118 79.454V70.731H2.132L6.63 78.037H6.656V70.731H7.436V79.454H6.552L1.924 71.888H1.898V79.454H1.118ZM12.1186 79.558C10.1036 79.558 9.08964 78.362 9.08964 76.321V76.165C9.08964 73.929 10.3896 72.928 11.8846 72.928C13.6266 72.928 14.4326 73.968 14.4326 75.918V76.386H9.93464C9.96064 78.141 10.7406 78.856 12.2486 78.856C13.1066 78.856 13.7046 78.661 14.2376 78.388V79.012C13.8476 79.272 13.1326 79.558 12.1186 79.558ZM11.8586 73.591C10.9356 73.591 10.0516 74.15 9.94764 75.736H13.5746C13.5746 74.267 13.0156 73.591 11.8586 73.591ZM17.647 79.454L15.229 73.032H16.113L18.063 78.388H18.089L20.052 73.032H20.871L18.466 79.454H17.647ZM24.7505 79.558C22.7355 79.558 21.7215 78.362 21.7215 76.321V76.165C21.7215 73.929 23.0215 72.928 24.5165 72.928C26.2585 72.928 27.0645 73.968 27.0645 75.918V76.386H22.5665C22.5925 78.141 23.3725 78.856 24.8805 78.856C25.7385 78.856 26.3365 78.661 26.8695 78.388V79.012C26.4795 79.272 25.7645 79.558 24.7505 79.558ZM24.4905 73.591C23.5675 73.591 22.6835 74.15 22.5795 75.736H26.2065C26.2065 74.267 25.6475 73.591 24.4905 73.591ZM28.5613 79.454V73.032H29.3413V73.773H29.3933C29.7703 73.357 30.4853 72.954 31.2393 72.954C31.3823 72.954 31.5513 72.967 31.6293 72.993V73.747C31.4733 73.721 31.2913 73.708 31.1743 73.708C30.4983 73.708 29.8353 73.981 29.3803 74.358V79.454H28.5613ZM35.0061 79.519C34.0181 79.519 33.4071 79.103 33.4071 78.063V73.734H32.4711V73.045H33.4071V71.524H34.2261V73.045H35.9291V73.734H34.2261V77.946C34.2261 78.583 34.4341 78.856 35.2141 78.856C35.4871 78.856 35.8121 78.804 36.0461 78.726V79.272C35.8251 79.402 35.5261 79.519 35.0061 79.519ZM37.4607 79.454V70.146H38.2797V73.604H38.3317C38.9557 73.188 39.7877 72.941 40.5937 72.941C41.8157 72.941 42.4397 73.435 42.4397 74.657V79.454H41.6207V74.826C41.6207 73.968 41.2827 73.63 40.2427 73.63C39.5797 73.63 38.8517 73.864 38.2797 74.176V79.454H37.4607ZM46.9165 79.558C44.9015 79.558 43.8875 78.362 43.8875 76.321V76.165C43.8875 73.929 45.1875 72.928 46.6825 72.928C48.4245 72.928 49.2305 73.968 49.2305 75.918V76.386H44.7325C44.7585 78.141 45.5385 78.856 47.0465 78.856C47.9045 78.856 48.5025 78.661 49.0355 78.388V79.012C48.6455 79.272 47.9305 79.558 46.9165 79.558ZM46.6565 73.591C45.7335 73.591 44.8495 74.15 44.7455 75.736H48.3725C48.3725 74.267 47.8135 73.591 46.6565 73.591ZM50.7533 79.454V70.146H51.5723V79.454H50.7533ZM56.1079 79.558C54.0929 79.558 53.0789 78.362 53.0789 76.321V76.165C53.0789 73.929 54.3789 72.928 55.8739 72.928C57.6159 72.928 58.4219 73.968 58.4219 75.918V76.386H53.9239C53.9499 78.141 54.7299 78.856 56.2379 78.856C57.0959 78.856 57.6939 78.661 58.2269 78.388V79.012C57.8369 79.272 57.1219 79.558 56.1079 79.558ZM55.8479 73.591C54.9249 73.591 54.0409 74.15 53.9369 75.736H57.5639C57.5639 74.267 57.0049 73.591 55.8479 73.591ZM61.5177 79.545C60.6727 79.545 59.9707 79.363 59.4767 79.09V78.44C60.0097 78.661 60.5037 78.856 61.4267 78.856C62.5187 78.856 62.9347 78.427 62.9347 77.79C62.9347 77.114 62.6097 76.841 61.7387 76.607L61.0887 76.412C60.1267 76.165 59.5287 75.736 59.5287 74.67C59.5287 73.643 60.2307 72.928 61.6737 72.928C62.5057 72.928 63.0387 73.123 63.3897 73.305V73.968C63.0257 73.786 62.3887 73.617 61.7127 73.617C60.7767 73.617 60.3087 73.968 60.3087 74.605C60.3087 75.216 60.6077 75.476 61.3487 75.697L62.0377 75.879C63.2207 76.217 63.7537 76.607 63.7537 77.725C63.7537 78.856 62.9477 79.545 61.5177 79.545ZM66.8371 79.545C65.9921 79.545 65.2901 79.363 64.7961 79.09V78.44C65.3291 78.661 65.8231 78.856 66.7461 78.856C67.8381 78.856 68.2541 78.427 68.2541 77.79C68.2541 77.114 67.9291 76.841 67.0581 76.607L66.4081 76.412C65.4461 76.165 64.8481 75.736 64.8481 74.67C64.8481 73.643 65.5501 72.928 66.9931 72.928C67.8251 72.928 68.3581 73.123 68.7091 73.305V73.968C68.3451 73.786 67.7081 73.617 67.0321 73.617C66.0961 73.617 65.6281 73.968 65.6281 74.605C65.6281 75.216 65.9271 75.476 66.6681 75.697L67.3571 75.879C68.5401 76.217 69.0731 76.607 69.0731 77.725C69.0731 78.856 68.2671 79.545 66.8371 79.545ZM69.8034 81.144L70.3104 78.609H71.3634L70.4144 81.144H69.8034ZM78.7033 79.519C77.7153 79.519 77.1043 79.103 77.1043 78.063V73.734H76.1683V73.045H77.1043V71.524H77.9233V73.045H79.6263V73.734H77.9233V77.946C77.9233 78.583 78.1313 78.856 78.9113 78.856C79.1843 78.856 79.5093 78.804 79.7433 78.726V79.272C79.5223 79.402 79.2233 79.519 78.7033 79.519ZM81.158 79.454V70.146H81.977V73.604H82.029C82.653 73.188 83.485 72.941 84.291 72.941C85.513 72.941 86.137 73.435 86.137 74.657V79.454H85.318V74.826C85.318 73.968 84.98 73.63 83.94 73.63C83.277 73.63 82.549 73.864 81.977 74.176V79.454H81.158ZM90.6138 79.558C88.5988 79.558 87.5848 78.362 87.5848 76.321V76.165C87.5848 73.929 88.8848 72.928 90.3798 72.928C92.1218 72.928 92.9278 73.968 92.9278 75.918V76.386H88.4298C88.4558 78.141 89.2358 78.856 90.7438 78.856C91.6018 78.856 92.1998 78.661 92.7328 78.388V79.012C92.3428 79.272 91.6278 79.558 90.6138 79.558ZM90.3538 73.591C89.4308 73.591 88.5468 74.15 88.4428 75.736H92.0698C92.0698 74.267 91.5108 73.591 90.3538 73.591ZM102.052 81.391V78.999H102.013C101.636 79.272 101.038 79.558 100.102 79.558C98.7886 79.558 97.4626 78.765 97.4626 76.399V76.23C97.4626 73.747 98.8406 72.928 100.531 72.928C101.584 72.928 102.351 73.136 102.884 73.409V81.391H102.052ZM100.336 78.856C101.142 78.856 101.701 78.596 102.052 78.284V73.877C101.701 73.721 101.142 73.591 100.492 73.591C99.2046 73.591 98.3076 74.306 98.3076 76.139V76.36C98.3076 78.245 99.1136 78.856 100.336 78.856ZM106.67 79.558C105.435 79.558 104.72 78.96 104.72 77.725V73.032H105.539V77.621C105.539 78.505 105.916 78.856 106.904 78.856C107.593 78.856 108.256 78.622 108.828 78.284V73.032H109.634V79.454H108.932L108.854 78.856H108.815C108.178 79.272 107.437 79.558 106.67 79.558ZM114.164 79.558C112.149 79.558 111.135 78.362 111.135 76.321V76.165C111.135 73.929 112.435 72.928 113.93 72.928C115.672 72.928 116.478 73.968 116.478 75.918V76.386H111.98C112.006 78.141 112.786 78.856 114.294 78.856C115.152 78.856 115.75 78.661 116.283 78.388V79.012C115.893 79.272 115.178 79.558 114.164 79.558ZM113.904 73.591C112.981 73.591 112.097 74.15 111.993 75.736H115.62C115.62 74.267 115.061 73.591 113.904 73.591ZM119.573 79.545C118.728 79.545 118.026 79.363 117.532 79.09V78.44C118.065 78.661 118.559 78.856 119.482 78.856C120.574 78.856 120.99 78.427 120.99 77.79C120.99 77.114 120.665 76.841 119.794 76.607L119.144 76.412C118.182 76.165 117.584 75.736 117.584 74.67C117.584 73.643 118.286 72.928 119.729 72.928C120.561 72.928 121.094 73.123 121.445 73.305V73.968C121.081 73.786 120.444 73.617 119.768 73.617C118.832 73.617 118.364 73.968 118.364 74.605C118.364 75.216 118.663 75.476 119.404 75.697L120.093 75.879C121.276 76.217 121.809 76.607 121.809 77.725C121.809 78.856 121.003 79.545 119.573 79.545ZM125.27 79.519C124.282 79.519 123.671 79.103 123.671 78.063V73.734H122.735V73.045H123.671V71.524H124.49V73.045H126.193V73.734H124.49V77.946C124.49 78.583 124.698 78.856 125.478 78.856C125.751 78.856 126.076 78.804 126.31 78.726V79.272C126.089 79.402 125.79 79.519 125.27 79.519ZM133.115 79.519C132.127 79.519 131.516 79.103 131.516 78.063V73.734H130.58V73.045H131.516V71.524H132.335V73.045H134.038V73.734H132.335V77.946C132.335 78.583 132.543 78.856 133.323 78.856C133.596 78.856 133.921 78.804 134.155 78.726V79.272C133.934 79.402 133.635 79.519 133.115 79.519ZM138.027 79.558C136.272 79.558 135.154 78.427 135.154 76.36V76.178C135.154 74.098 136.35 72.928 138.04 72.928C139.808 72.928 140.926 74.059 140.926 76.139V76.308C140.926 78.375 139.73 79.558 138.027 79.558ZM138.053 78.882C139.275 78.882 140.081 78.037 140.081 76.386V76.113C140.081 74.254 139.197 73.591 138.027 73.591C136.792 73.591 135.999 74.475 135.999 76.087V76.386C135.999 78.219 136.896 78.882 138.053 78.882ZM3.458 95.558C1.599 95.558 0.533 94.44 0.533 92.347V92.178C0.533 89.903 1.846 88.928 3.497 88.928C4.329 88.928 4.81 89.071 5.265 89.357V90.033C4.719 89.773 4.277 89.63 3.445 89.63C2.223 89.63 1.378 90.423 1.378 92.048V92.334C1.378 94.011 2.093 94.856 3.549 94.856C4.433 94.856 4.992 94.583 5.343 94.388V95.051C4.927 95.311 4.381 95.558 3.458 95.558ZM9.20776 95.558C7.45276 95.558 6.33476 94.427 6.33476 92.36V92.178C6.33476 90.098 7.53076 88.928 9.22076 88.928C10.9888 88.928 12.1068 90.059 12.1068 92.139V92.308C12.1068 94.375 10.9108 95.558 9.20776 95.558ZM9.23376 94.882C10.4558 94.882 11.2618 94.037 11.2618 92.386V92.113C11.2618 90.254 10.3778 89.591 9.20776 89.591C7.97276 89.591 7.17976 90.475 7.17976 92.087V92.386C7.17976 94.219 8.07676 94.882 9.23376 94.882ZM13.5935 95.454V89.045H14.3735V89.617H14.4255C15.0495 89.214 15.7905 88.928 16.5055 88.928C17.2335 88.928 17.7535 89.162 18.0265 89.643H18.0785C18.8455 89.162 19.5995 88.928 20.3145 88.928C21.4195 88.928 22.0825 89.422 22.0825 90.644V95.454H21.2765V90.826C21.2765 89.968 20.8865 89.63 20.0155 89.63C19.4695 89.63 18.8585 89.812 18.2085 90.176C18.2345 90.332 18.2475 90.475 18.2475 90.644V95.454H17.4285V90.826C17.4285 89.968 17.0775 89.63 16.2065 89.63C15.5955 89.63 14.9845 89.838 14.4125 90.176V95.454H13.5935ZM23.9402 97.378V89.045H24.7202V89.565H24.7722C25.2142 89.227 25.8902 88.928 26.7612 88.928C28.1782 88.928 29.3612 89.695 29.3612 92.113V92.256C29.3612 94.57 28.2302 95.558 26.4622 95.558C25.7082 95.558 25.1232 95.35 24.7462 95.116V97.378H23.9402ZM26.3842 94.895C27.7232 94.895 28.5032 94.18 28.5032 92.386V92.152C28.5032 90.189 27.7882 89.63 26.5532 89.63C25.7472 89.63 25.1102 89.916 24.7462 90.163V94.427C25.0972 94.661 25.6952 94.895 26.3842 94.895ZM30.8719 95.454V89.032H31.6519V89.773H31.7039C32.0809 89.357 32.7959 88.954 33.5499 88.954C33.6929 88.954 33.8619 88.967 33.9399 88.993V89.747C33.7839 89.721 33.6019 89.708 33.4849 89.708C32.8089 89.708 32.1459 89.981 31.6909 90.358V95.454H30.8719ZM37.8647 95.558C35.8497 95.558 34.8357 94.362 34.8357 92.321V92.165C34.8357 89.929 36.1357 88.928 37.6307 88.928C39.3727 88.928 40.1787 89.968 40.1787 91.918V92.386H35.6807C35.7067 94.141 36.4867 94.856 37.9947 94.856C38.8527 94.856 39.4507 94.661 39.9837 94.388V95.012C39.5937 95.272 38.8787 95.558 37.8647 95.558ZM37.6047 89.591C36.6817 89.591 35.7977 90.15 35.6937 91.736H39.3207C39.3207 90.267 38.7617 89.591 37.6047 89.591ZM41.6756 95.454V86.146H42.4946V89.604H42.5466C43.1706 89.188 44.0026 88.941 44.8086 88.941C46.0306 88.941 46.6546 89.435 46.6546 90.657V95.454H45.8356V90.826C45.8356 89.968 45.4976 89.63 44.4576 89.63C43.7946 89.63 43.0666 89.864 42.4946 90.176V95.454H41.6756ZM51.1313 95.558C49.1163 95.558 48.1023 94.362 48.1023 92.321V92.165C48.1023 89.929 49.4023 88.928 50.8973 88.928C52.6393 88.928 53.4453 89.968 53.4453 91.918V92.386H48.9473C48.9733 94.141 49.7533 94.856 51.2613 94.856C52.1193 94.856 52.7173 94.661 53.2503 94.388V95.012C52.8603 95.272 52.1453 95.558 51.1313 95.558ZM50.8713 89.591C49.9483 89.591 49.0643 90.15 48.9603 91.736H52.5873C52.5873 90.267 52.0283 89.591 50.8713 89.591ZM54.9422 95.454V89.045H55.7222V89.617H55.7742C56.4112 89.201 57.2692 88.928 58.0752 88.928C59.2972 88.928 59.9212 89.422 59.9212 90.644V95.454H59.1022V90.826C59.1022 89.968 58.7642 89.63 57.7242 89.63C57.0612 89.63 56.3332 89.851 55.7612 90.176V95.454H54.9422ZM64.0469 95.558C62.7339 95.558 61.4079 94.765 61.4079 92.399V92.23C61.4079 89.929 62.5909 88.928 64.2419 88.928C65.0739 88.928 65.6329 89.162 65.9969 89.396V86.146H66.8159V95.454H66.1269L66.0489 94.895H65.9969C65.5679 95.285 64.9569 95.558 64.0469 95.558ZM64.2809 94.895C65.0869 94.895 65.6459 94.596 65.9969 94.284V90.085C65.6719 89.825 65.0479 89.63 64.3719 89.63C63.0719 89.63 62.2529 90.306 62.2529 92.139V92.373C62.2529 94.245 63.0849 94.895 64.2809 94.895ZM72.1316 95.454V86.146H72.9506V89.604H73.0026C73.6266 89.188 74.4586 88.941 75.2646 88.941C76.4866 88.941 77.1106 89.435 77.1106 90.657V95.454H76.2916V90.826C76.2916 89.968 75.9536 89.63 74.9136 89.63C74.2506 89.63 73.5226 89.864 72.9506 90.176V95.454H72.1316ZM81.4314 95.558C79.6764 95.558 78.5584 94.427 78.5584 92.36V92.178C78.5584 90.098 79.7544 88.928 81.4444 88.928C83.2124 88.928 84.3304 90.059 84.3304 92.139V92.308C84.3304 94.375 83.1344 95.558 81.4314 95.558ZM81.4574 94.882C82.6794 94.882 83.4854 94.037 83.4854 92.386V92.113C83.4854 90.254 82.6014 89.591 81.4314 89.591C80.1964 89.591 79.4034 90.475 79.4034 92.087V92.386C79.4034 94.219 80.3004 94.882 81.4574 94.882ZM87.0912 95.454L85.2452 89.032H86.1162L87.5592 94.375H87.5982L89.2232 89.032H89.9382L91.5632 94.375H91.6152L93.0452 89.032H93.8382L91.9922 95.454H91.1472L89.5742 90.293H89.5482L87.9362 95.454H87.0912ZM100.552 95.519C99.564 95.519 98.953 95.103 98.953 94.063V89.734H98.017V89.045H98.953V87.524H99.772V89.045H101.475V89.734H99.772V93.946C99.772 94.583 99.98 94.856 100.76 94.856C101.033 94.856 101.358 94.804 101.592 94.726V95.272C101.371 95.402 101.072 95.519 100.552 95.519ZM105.464 95.558C103.709 95.558 102.591 94.427 102.591 92.36V92.178C102.591 90.098 103.787 88.928 105.477 88.928C107.245 88.928 108.363 90.059 108.363 92.139V92.308C108.363 94.375 107.167 95.558 105.464 95.558ZM105.49 94.882C106.712 94.882 107.518 94.037 107.518 92.386V92.113C107.518 90.254 106.634 89.591 105.464 89.591C104.229 89.591 103.436 90.475 103.436 92.087V92.386C103.436 94.219 104.333 94.882 105.49 94.882ZM114.811 95.558C113.654 95.558 112.835 94.934 112.835 93.79C112.835 92.672 113.524 92.087 114.759 91.944L116.579 91.736V90.982C116.579 89.929 116.111 89.63 114.967 89.63C114.33 89.63 113.823 89.747 113.381 89.851V89.266C113.94 89.045 114.551 88.928 115.266 88.928C116.644 88.928 117.398 89.487 117.398 90.787V95.454H116.735L116.657 94.882H116.605C116.28 95.233 115.708 95.558 114.811 95.558ZM115.019 94.908C115.682 94.908 116.28 94.674 116.579 94.401V92.347L114.98 92.529C114.096 92.62 113.68 92.984 113.68 93.764C113.68 94.505 114.2 94.908 115.019 94.908ZM120.868 95.545C120.023 95.545 119.321 95.363 118.827 95.09V94.44C119.36 94.661 119.854 94.856 120.777 94.856C121.869 94.856 122.285 94.427 122.285 93.79C122.285 93.114 121.96 92.841 121.089 92.607L120.439 92.412C119.477 92.165 118.879 91.736 118.879 90.67C118.879 89.643 119.581 88.928 121.024 88.928C121.856 88.928 122.389 89.123 122.74 89.305V89.968C122.376 89.786 121.739 89.617 121.063 89.617C120.127 89.617 119.659 89.968 119.659 90.605C119.659 91.216 119.958 91.476 120.699 91.697L121.388 91.879C122.571 92.217 123.104 92.607 123.104 93.725C123.104 94.856 122.298 95.545 120.868 95.545ZM126.188 95.545C125.343 95.545 124.641 95.363 124.147 95.09V94.44C124.68 94.661 125.174 94.856 126.097 94.856C127.189 94.856 127.605 94.427 127.605 93.79C127.605 93.114 127.28 92.841 126.409 92.607L125.759 92.412C124.797 92.165 124.199 91.736 124.199 90.67C124.199 89.643 124.901 88.928 126.344 88.928C127.176 88.928 127.709 89.123 128.06 89.305V89.968C127.696 89.786 127.059 89.617 126.383 89.617C125.447 89.617 124.979 89.968 124.979 90.605C124.979 91.216 125.278 91.476 126.019 91.697L126.708 91.879C127.891 92.217 128.424 92.607 128.424 93.725C128.424 94.856 127.618 95.545 126.188 95.545ZM129.934 95.454V89.045H130.753V95.454H129.934ZM129.921 87.706V86.809H130.766V87.706H129.921ZM134.275 95.545C133.43 95.545 132.728 95.363 132.234 95.09V94.44C132.767 94.661 133.261 94.856 134.184 94.856C135.276 94.856 135.692 94.427 135.692 93.79C135.692 93.114 135.367 92.841 134.496 92.607L133.846 92.412C132.884 92.165 132.286 91.736 132.286 90.67C132.286 89.643 132.988 88.928 134.431 88.928C135.263 88.928 135.796 89.123 136.147 89.305V89.968C135.783 89.786 135.146 89.617 134.47 89.617C133.534 89.617 133.066 89.968 133.066 90.605C133.066 91.216 133.365 91.476 134.106 91.697L134.795 91.879C135.978 92.217 136.511 92.607 136.511 93.725C136.511 94.856 135.705 95.545 134.275 95.545ZM139.971 95.519C138.983 95.519 138.372 95.103 138.372 94.063V89.734H137.436V89.045H138.372V87.524H139.191V89.045H140.894V89.734H139.191V93.946C139.191 94.583 139.399 94.856 140.179 94.856C140.452 94.856 140.777 94.804 141.011 94.726V95.272C140.79 95.402 140.491 95.519 139.971 95.519ZM147.817 95.519C146.829 95.519 146.218 95.103 146.218 94.063V89.734H145.282V89.045H146.218V87.524H147.037V89.045H148.74V89.734H147.037V93.946C147.037 94.583 147.245 94.856 148.025 94.856C148.298 94.856 148.623 94.804 148.857 94.726V95.272C148.636 95.402 148.337 95.519 147.817 95.519ZM150.271 95.454V86.146H151.09V89.604H151.142C151.766 89.188 152.598 88.941 153.404 88.941C154.626 88.941 155.25 89.435 155.25 90.657V95.454H154.431V90.826C154.431 89.968 154.093 89.63 153.053 89.63C152.39 89.63 151.662 89.864 151.09 90.176V95.454H150.271ZM159.727 95.558C157.712 95.558 156.698 94.362 156.698 92.321V92.165C156.698 89.929 157.998 88.928 159.493 88.928C161.235 88.928 162.041 89.968 162.041 91.918V92.386H157.543C157.569 94.141 158.349 94.856 159.857 94.856C160.715 94.856 161.313 94.661 161.846 94.388V95.012C161.456 95.272 160.741 95.558 159.727 95.558ZM159.467 89.591C158.544 89.591 157.66 90.15 157.556 91.736H161.183C161.183 90.267 160.624 89.591 159.467 89.591ZM163.538 95.454V89.045H164.318V89.617H164.37C164.994 89.214 165.735 88.928 166.45 88.928C167.178 88.928 167.698 89.162 167.971 89.643H168.023C168.79 89.162 169.544 88.928 170.259 88.928C171.364 88.928 172.027 89.422 172.027 90.644V95.454H171.221V90.826C171.221 89.968 170.831 89.63 169.96 89.63C169.414 89.63 168.803 89.812 168.153 90.176C168.179 90.332 168.192 90.475 168.192 90.644V95.454H167.373V90.826C167.373 89.968 167.022 89.63 166.151 89.63C165.54 89.63 164.929 89.838 164.357 90.176V95.454H163.538ZM177.326 95.454V89.045H178.145V95.454H177.326ZM177.313 87.706V86.809H178.158V87.706H177.313ZM180.067 95.454V89.045H180.847V89.617H180.899C181.536 89.201 182.394 88.928 183.2 88.928C184.422 88.928 185.046 89.422 185.046 90.644V95.454H184.227V90.826C184.227 89.968 183.889 89.63 182.849 89.63C182.186 89.63 181.458 89.851 180.886 90.176V95.454H180.067ZM3.211 111.558C1.898 111.558 0.572 110.765 0.572 108.399V108.23C0.572 105.929 1.755 104.928 3.406 104.928C4.238 104.928 4.797 105.162 5.161 105.396V102.146H5.98V111.454H5.291L5.213 110.895H5.161C4.732 111.285 4.121 111.558 3.211 111.558ZM3.445 110.895C4.251 110.895 4.81 110.596 5.161 110.284V106.085C4.836 105.825 4.212 105.63 3.536 105.63C2.236 105.63 1.417 106.306 1.417 108.139V108.373C1.417 110.245 2.249 110.895 3.445 110.895ZM10.4936 111.558C8.47864 111.558 7.46464 110.362 7.46464 108.321V108.165C7.46464 105.929 8.76464 104.928 10.2596 104.928C12.0016 104.928 12.8076 105.968 12.8076 107.918V108.386H8.30964C8.33564 110.141 9.11564 110.856 10.6236 110.856C11.4816 110.856 12.0796 110.661 12.6126 110.388V111.012C12.2226 111.272 11.5076 111.558 10.4936 111.558ZM10.2336 105.591C9.31064 105.591 8.42664 106.15 8.32264 107.736H11.9496C11.9496 106.267 11.3906 105.591 10.2336 105.591ZM14.3045 111.454V105.032H15.0845V105.773H15.1365C15.5135 105.357 16.2285 104.954 16.9825 104.954C17.1255 104.954 17.2945 104.967 17.3725 104.993V105.747C17.2165 105.721 17.0345 105.708 16.9175 105.708C16.2415 105.708 15.5785 105.981 15.1235 106.358V111.454H14.3045ZM18.7104 111.454V105.045H19.5294V111.454H18.7104ZM18.6974 103.706V102.809H19.5424V103.706H18.6974ZM23.2329 111.454L20.8149 105.032H21.6989L23.6489 110.388H23.6749L25.6379 105.032H26.4569L24.0519 111.454H23.2329ZM27.7494 111.454V105.045H28.5684V111.454H27.7494ZM27.7364 103.706V102.809H28.5814V103.706H27.7364ZM30.491 111.454V105.045H31.271V105.617H31.323C31.96 105.201 32.818 104.928 33.624 104.928C34.846 104.928 35.47 105.422 35.47 106.644V111.454H34.651V106.826C34.651 105.968 34.313 105.63 33.273 105.63C32.61 105.63 31.882 105.851 31.31 106.176V111.454H30.491ZM39.5308 113.404C37.5548 113.404 36.6838 112.806 36.6838 111.883C36.6838 111.168 37.2428 110.778 37.9318 110.531V110.479C37.5808 110.388 37.2818 110.102 37.2818 109.686C37.2818 109.283 37.5158 108.984 37.9708 108.62C37.4898 108.295 37.1648 107.775 37.1648 107.034V106.956C37.1648 105.656 38.1788 104.902 39.5568 104.902C39.8688 104.902 40.1548 104.941 40.4278 105.006H42.5858V105.63H41.3378C41.7018 105.942 41.8968 106.371 41.8968 106.93V106.995C41.8968 108.36 40.8698 109.036 39.5438 109.036C39.1278 109.036 38.7378 108.971 38.3998 108.841C38.2178 109.01 38.0618 109.179 38.0618 109.413C38.0618 109.777 38.2958 109.946 38.7378 109.946H40.5578C41.7018 109.946 42.5598 110.284 42.5598 111.467C42.5598 112.533 41.6758 113.404 39.5308 113.404ZM39.5048 112.741C41.1168 112.741 41.7018 112.286 41.7018 111.584C41.7018 110.869 41.2988 110.7 40.4278 110.7H38.5428C37.9838 110.882 37.5548 111.168 37.5548 111.766C37.5548 112.403 38.0878 112.741 39.5048 112.741ZM39.5438 108.412C40.5058 108.412 41.0778 107.944 41.0778 107.034V106.917C41.0778 105.968 40.4668 105.539 39.5438 105.539C38.5948 105.539 37.9968 106.033 37.9968 106.891V107.008C37.9968 107.944 38.6208 108.412 39.5438 108.412ZM47.1853 111.454V105.045H47.9653V105.617H48.0173C48.6413 105.214 49.3823 104.928 50.0973 104.928C50.8253 104.928 51.3453 105.162 51.6183 105.643H51.6703C52.4373 105.162 53.1913 104.928 53.9063 104.928C55.0113 104.928 55.6743 105.422 55.6743 106.644V111.454H54.8683V106.826C54.8683 105.968 54.4783 105.63 53.6073 105.63C53.0613 105.63 52.4503 105.812 51.8003 106.176C51.8263 106.332 51.8393 106.475 51.8393 106.644V111.454H51.0203V106.826C51.0203 105.968 50.6693 105.63 49.7983 105.63C49.1873 105.63 48.5763 105.838 48.0043 106.176V111.454H47.1853ZM60.145 111.558C58.13 111.558 57.116 110.362 57.116 108.321V108.165C57.116 105.929 58.416 104.928 59.911 104.928C61.653 104.928 62.459 105.968 62.459 107.918V108.386H57.961C57.987 110.141 58.767 110.856 60.275 110.856C61.133 110.856 61.731 110.661 62.264 110.388V111.012C61.874 111.272 61.159 111.558 60.145 111.558ZM59.885 105.591C58.962 105.591 58.078 106.15 57.974 107.736H61.601C61.601 106.267 61.042 105.591 59.885 105.591ZM65.5028 111.558C64.3458 111.558 63.5268 110.934 63.5268 109.79C63.5268 108.672 64.2158 108.087 65.4508 107.944L67.2708 107.736V106.982C67.2708 105.929 66.8028 105.63 65.6588 105.63C65.0218 105.63 64.5148 105.747 64.0728 105.851V105.266C64.6318 105.045 65.2428 104.928 65.9578 104.928C67.3358 104.928 68.0898 105.487 68.0898 106.787V111.454H67.4268L67.3488 110.882H67.2968C66.9718 111.233 66.3998 111.558 65.5028 111.558ZM65.7108 110.908C66.3738 110.908 66.9718 110.674 67.2708 110.401V108.347L65.6718 108.529C64.7878 108.62 64.3718 108.984 64.3718 109.764C64.3718 110.505 64.8918 110.908 65.7108 110.908ZM69.9607 111.454V105.045H70.7407V105.617H70.7927C71.4297 105.201 72.2877 104.928 73.0937 104.928C74.3157 104.928 74.9397 105.422 74.9397 106.644V111.454H74.1207V106.826C74.1207 105.968 73.7827 105.63 72.7427 105.63C72.0797 105.63 71.3517 105.851 70.7797 106.176V111.454H69.9607ZM76.8295 111.454V105.045H77.6485V111.454H76.8295ZM76.8165 103.706V102.809H77.6615V103.706H76.8165ZM79.5711 111.454V105.045H80.3511V105.617H80.4031C81.0401 105.201 81.8981 104.928 82.7041 104.928C83.9261 104.928 84.5501 105.422 84.5501 106.644V111.454H83.7311V106.826C83.7311 105.968 83.3931 105.63 82.3531 105.63C81.6901 105.63 80.9621 105.851 80.3901 106.176V111.454H79.5711ZM88.6108 113.404C86.6348 113.404 85.7638 112.806 85.7638 111.883C85.7638 111.168 86.3228 110.778 87.0118 110.531V110.479C86.6608 110.388 86.3618 110.102 86.3618 109.686C86.3618 109.283 86.5958 108.984 87.0508 108.62C86.5698 108.295 86.2448 107.775 86.2448 107.034V106.956C86.2448 105.656 87.2588 104.902 88.6368 104.902C88.9488 104.902 89.2348 104.941 89.5078 105.006H91.6658V105.63H90.4178C90.7818 105.942 90.9768 106.371 90.9768 106.93V106.995C90.9768 108.36 89.9498 109.036 88.6238 109.036C88.2078 109.036 87.8178 108.971 87.4798 108.841C87.2978 109.01 87.1418 109.179 87.1418 109.413C87.1418 109.777 87.3758 109.946 87.8178 109.946H89.6378C90.7818 109.946 91.6398 110.284 91.6398 111.467C91.6398 112.533 90.7558 113.404 88.6108 113.404ZM88.5848 112.741C90.1968 112.741 90.7818 112.286 90.7818 111.584C90.7818 110.869 90.3788 110.7 89.5078 110.7H87.6228C87.0638 110.882 86.6348 111.168 86.6348 111.766C86.6348 112.403 87.1678 112.741 88.5848 112.741ZM88.6238 108.412C89.5858 108.412 90.1578 107.944 90.1578 107.034V106.917C90.1578 105.968 89.5468 105.539 88.6238 105.539C87.6748 105.539 87.0768 106.033 87.0768 106.891V107.008C87.0768 107.944 87.7008 108.412 88.6238 108.412ZM93.3933 111.454V105.734H92.4053V105.045H93.3933V104.083C93.3933 102.679 94.1993 102.081 95.3693 102.081C95.8633 102.081 96.2013 102.159 96.4483 102.276V102.874C96.2403 102.822 95.9543 102.744 95.5123 102.744C94.7063 102.744 94.1993 103.134 94.1993 104.135V105.045H95.7463V105.734H94.1993V111.454H93.3933ZM99.0016 111.558C97.7666 111.558 97.0516 110.96 97.0516 109.725V105.032H97.8706V109.621C97.8706 110.505 98.2476 110.856 99.2356 110.856C99.9246 110.856 100.588 110.622 101.16 110.284V105.032H101.966V111.454H101.264L101.186 110.856H101.147C100.51 111.272 99.7686 111.558 99.0016 111.558ZM103.909 111.454V102.146H104.728V111.454H103.909ZM110.091 111.454V105.045H110.91V111.454H110.091ZM110.078 103.706V102.809H110.923V103.706H110.078ZM112.833 111.454V105.045H113.613V105.617H113.665C114.302 105.201 115.16 104.928 115.966 104.928C117.188 104.928 117.812 105.422 117.812 106.644V111.454H116.993V106.826C116.993 105.968 116.655 105.63 115.615 105.63C114.952 105.63 114.224 105.851 113.652 106.176V111.454H112.833ZM121.275 111.545C120.43 111.545 119.728 111.363 119.234 111.09V110.44C119.767 110.661 120.261 110.856 121.184 110.856C122.276 110.856 122.692 110.427 122.692 109.79C122.692 109.114 122.367 108.841 121.496 108.607L120.846 108.412C119.884 108.165 119.286 107.736 119.286 106.67C119.286 105.643 119.988 104.928 121.431 104.928C122.263 104.928 122.796 105.123 123.147 105.305V105.968C122.783 105.786 122.146 105.617 121.47 105.617C120.534 105.617 120.066 105.968 120.066 106.605C120.066 107.216 120.365 107.476 121.106 107.697L121.795 107.879C122.978 108.217 123.511 108.607 123.511 109.725C123.511 110.856 122.705 111.545 121.275 111.545ZM125.021 111.454V105.045H125.84V111.454H125.021ZM125.008 103.706V102.809H125.853V103.706H125.008ZM129.959 113.404C127.983 113.404 127.112 112.806 127.112 111.883C127.112 111.168 127.671 110.778 128.36 110.531V110.479C128.009 110.388 127.71 110.102 127.71 109.686C127.71 109.283 127.944 108.984 128.399 108.62C127.918 108.295 127.593 107.775 127.593 107.034V106.956C127.593 105.656 128.607 104.902 129.985 104.902C130.297 104.902 130.583 104.941 130.856 105.006H133.014V105.63H131.766C132.13 105.942 132.325 106.371 132.325 106.93V106.995C132.325 108.36 131.298 109.036 129.972 109.036C129.556 109.036 129.166 108.971 128.828 108.841C128.646 109.01 128.49 109.179 128.49 109.413C128.49 109.777 128.724 109.946 129.166 109.946H130.986C132.13 109.946 132.988 110.284 132.988 111.467C132.988 112.533 132.104 113.404 129.959 113.404ZM129.933 112.741C131.545 112.741 132.13 112.286 132.13 111.584C132.13 110.869 131.727 110.7 130.856 110.7H128.971C128.412 110.882 127.983 111.168 127.983 111.766C127.983 112.403 128.516 112.741 129.933 112.741ZM129.972 108.412C130.934 108.412 131.506 107.944 131.506 107.034V106.917C131.506 105.968 130.895 105.539 129.972 105.539C129.023 105.539 128.425 106.033 128.425 106.891V107.008C128.425 107.944 129.049 108.412 129.972 108.412ZM134.199 111.454V102.146H135.018V105.604H135.07C135.694 105.188 136.526 104.941 137.332 104.941C138.554 104.941 139.178 105.435 139.178 106.657V111.454H138.359V106.826C138.359 105.968 138.021 105.63 136.981 105.63C136.318 105.63 135.59 105.864 135.018 106.176V111.454H134.199ZM143.018 111.519C142.03 111.519 141.419 111.103 141.419 110.063V105.734H140.483V105.045H141.419V103.524H142.238V105.045H143.941V105.734H142.238V109.946C142.238 110.583 142.446 110.856 143.226 110.856C143.499 110.856 143.824 110.804 144.058 110.726V111.272C143.837 111.402 143.538 111.519 143.018 111.519ZM147.071 111.545C146.226 111.545 145.524 111.363 145.03 111.09V110.44C145.563 110.661 146.057 110.856 146.98 110.856C148.072 110.856 148.488 110.427 148.488 109.79C148.488 109.114 148.163 108.841 147.292 108.607L146.642 108.412C145.68 108.165 145.082 107.736 145.082 106.67C145.082 105.643 145.784 104.928 147.227 104.928C148.059 104.928 148.592 105.123 148.943 105.305V105.968C148.579 105.786 147.942 105.617 147.266 105.617C146.33 105.617 145.862 105.968 145.862 106.605C145.862 107.216 146.161 107.476 146.902 107.697L147.591 107.879C148.774 108.217 149.307 108.607 149.307 109.725C149.307 110.856 148.501 111.545 147.071 111.545ZM154.623 111.454V105.734H153.635V105.045H154.623V104.083C154.623 102.679 155.429 102.081 156.599 102.081C157.093 102.081 157.431 102.159 157.678 102.276V102.874C157.47 102.822 157.184 102.744 156.742 102.744C155.936 102.744 155.429 103.134 155.429 104.135V105.045H156.976V105.734H155.429V111.454H154.623ZM158.32 111.454V105.032H159.1V105.773H159.152C159.529 105.357 160.244 104.954 160.998 104.954C161.141 104.954 161.31 104.967 161.388 104.993V105.747C161.232 105.721 161.05 105.708 160.933 105.708C160.257 105.708 159.594 105.981 159.139 106.358V111.454H158.32ZM165.157 111.558C163.402 111.558 162.284 110.427 162.284 108.36V108.178C162.284 106.098 163.48 104.928 165.17 104.928C166.938 104.928 168.056 106.059 168.056 108.139V108.308C168.056 110.375 166.86 111.558 165.157 111.558ZM165.183 110.882C166.405 110.882 167.211 110.037 167.211 108.386V108.113C167.211 106.254 166.327 105.591 165.157 105.591C163.922 105.591 163.129 106.475 163.129 108.087V108.386C163.129 110.219 164.026 110.882 165.183 110.882ZM169.543 111.454V105.045H170.323V105.617H170.375C170.999 105.214 171.74 104.928 172.455 104.928C173.183 104.928 173.703 105.162 173.976 105.643H174.028C174.795 105.162 175.549 104.928 176.264 104.928C177.369 104.928 178.032 105.422 178.032 106.644V111.454H177.226V106.826C177.226 105.968 176.836 105.63 175.965 105.63C175.419 105.63 174.808 105.812 174.158 106.176C174.184 106.332 174.197 106.475 174.197 106.644V111.454H173.378V106.826C173.378 105.968 173.027 105.63 172.156 105.63C171.545 105.63 170.934 105.838 170.362 106.176V111.454H169.543ZM185.28 111.519C184.292 111.519 183.681 111.103 183.681 110.063V105.734H182.745V105.045H183.681V103.524H184.5V105.045H186.203V105.734H184.5V109.946C184.5 110.583 184.708 110.856 185.488 110.856C185.761 110.856 186.086 110.804 186.32 110.726V111.272C186.099 111.402 185.8 111.519 185.28 111.519ZM187.735 111.454V102.146H188.554V105.604H188.606C189.23 105.188 190.062 104.941 190.868 104.941C192.09 104.941 192.714 105.435 192.714 106.657V111.454H191.895V106.826C191.895 105.968 191.557 105.63 190.517 105.63C189.854 105.63 189.126 105.864 188.554 106.176V111.454H187.735ZM194.604 111.454V105.045H195.423V111.454H194.604ZM194.591 103.706V102.809H195.436V103.706H194.591ZM198.944 111.545C198.099 111.545 197.397 111.363 196.903 111.09V110.44C197.436 110.661 197.93 110.856 198.853 110.856C199.945 110.856 200.361 110.427 200.361 109.79C200.361 109.114 200.036 108.841 199.165 108.607L198.515 108.412C197.553 108.165 196.955 107.736 196.955 106.67C196.955 105.643 197.657 104.928 199.1 104.928C199.932 104.928 200.465 105.123 200.816 105.305V105.968C200.452 105.786 199.815 105.617 199.139 105.617C198.203 105.617 197.735 105.968 197.735 106.605C197.735 107.216 198.034 107.476 198.775 107.697L199.464 107.879C200.647 108.217 201.18 108.607 201.18 109.725C201.18 110.856 200.374 111.545 198.944 111.545ZM2.73 127.454L0.312 121.032H1.196L3.146 126.388H3.172L5.135 121.032H5.954L3.549 127.454H2.73ZM8.57705 127.558C7.42005 127.558 6.60105 126.934 6.60105 125.79C6.60105 124.672 7.29005 124.087 8.52505 123.944L10.3451 123.736V122.982C10.3451 121.929 9.87706 121.63 8.73305 121.63C8.09605 121.63 7.58905 121.747 7.14705 121.851V121.266C7.70605 121.045 8.31705 120.928 9.03205 120.928C10.4101 120.928 11.1641 121.487 11.1641 122.787V127.454H10.5011L10.4231 126.882H10.3711C10.0461 127.233 9.47405 127.558 8.57705 127.558ZM8.78505 126.908C9.44805 126.908 10.0461 126.674 10.3451 126.401V124.347L8.74605 124.529C7.86205 124.62 7.44605 124.984 7.44605 125.764C7.44605 126.505 7.96605 126.908 8.78505 126.908ZM14.6339 127.545C13.7889 127.545 13.0869 127.363 12.5929 127.09V126.44C13.1259 126.661 13.6199 126.856 14.5429 126.856C15.6349 126.856 16.0509 126.427 16.0509 125.79C16.0509 125.114 15.7259 124.841 14.8549 124.607L14.2049 124.412C13.2429 124.165 12.6449 123.736 12.6449 122.67C12.6449 121.643 13.3469 120.928 14.7899 120.928C15.6219 120.928 16.1549 121.123 16.5059 121.305V121.968C16.1419 121.786 15.5049 121.617 14.8289 121.617C13.8929 121.617 13.4249 121.968 13.4249 122.605C13.4249 123.216 13.7239 123.476 14.4649 123.697L15.1539 123.879C16.3369 124.217 16.8699 124.607 16.8699 125.725C16.8699 126.856 16.0639 127.545 14.6339 127.545ZM20.3303 127.519C19.3423 127.519 18.7313 127.103 18.7313 126.063V121.734H17.7953V121.045H18.7313V119.524H19.5503V121.045H21.2533V121.734H19.5503V125.946C19.5503 126.583 19.7583 126.856 20.5383 126.856C20.8113 126.856 21.1363 126.804 21.3703 126.726V127.272C21.1493 127.402 20.8503 127.519 20.3303 127.519ZM28.462 127.558C27.149 127.558 25.823 126.765 25.823 124.399V124.23C25.823 121.929 27.006 120.928 28.657 120.928C29.489 120.928 30.048 121.162 30.412 121.396V118.146H31.231V127.454H30.542L30.464 126.895H30.412C29.983 127.285 29.372 127.558 28.462 127.558ZM28.696 126.895C29.502 126.895 30.061 126.596 30.412 126.284V122.085C30.087 121.825 29.463 121.63 28.787 121.63C27.487 121.63 26.668 122.306 26.668 124.139V124.373C26.668 126.245 27.5 126.895 28.696 126.895ZM34.6786 127.558C33.5216 127.558 32.7026 126.934 32.7026 125.79C32.7026 124.672 33.3916 124.087 34.6266 123.944L36.4466 123.736V122.982C36.4466 121.929 35.9786 121.63 34.8346 121.63C34.1976 121.63 33.6906 121.747 33.2486 121.851V121.266C33.8076 121.045 34.4186 120.928 35.1336 120.928C36.5116 120.928 37.2656 121.487 37.2656 122.787V127.454H36.6026L36.5246 126.882H36.4726C36.1476 127.233 35.5756 127.558 34.6786 127.558ZM34.8866 126.908C35.5496 126.908 36.1476 126.674 36.4466 126.401V124.347L34.8476 124.529C33.9636 124.62 33.5476 124.984 33.5476 125.764C33.5476 126.505 34.0676 126.908 34.8866 126.908ZM41.1125 127.519C40.1245 127.519 39.5135 127.103 39.5135 126.063V121.734H38.5775V121.045H39.5135V119.524H40.3325V121.045H42.0355V121.734H40.3325V125.946C40.3325 126.583 40.5405 126.856 41.3205 126.856C41.5935 126.856 41.9185 126.804 42.1525 126.726V127.272C41.9315 127.402 41.6325 127.519 41.1125 127.519ZM45.1142 127.558C43.9572 127.558 43.1382 126.934 43.1382 125.79C43.1382 124.672 43.8272 124.087 45.0622 123.944L46.8822 123.736V122.982C46.8822 121.929 46.4142 121.63 45.2702 121.63C44.6332 121.63 44.1262 121.747 43.6842 121.851V121.266C44.2432 121.045 44.8542 120.928 45.5692 120.928C46.9472 120.928 47.7012 121.487 47.7012 122.787V127.454H47.0382L46.9602 126.882H46.9082C46.5832 127.233 46.0112 127.558 45.1142 127.558ZM45.3222 126.908C45.9852 126.908 46.5832 126.674 46.8822 126.401V124.347L45.2832 124.529C44.3992 124.62 43.9832 124.984 43.9832 125.764C43.9832 126.505 44.5032 126.908 45.3222 126.908ZM52.9871 127.454V121.032H53.7671V121.773H53.8191C54.1961 121.357 54.9111 120.954 55.6651 120.954C55.8081 120.954 55.9771 120.967 56.0551 120.993V121.747C55.8991 121.721 55.7171 121.708 55.6001 121.708C54.9241 121.708 54.2611 121.981 53.8061 122.358V127.454H52.9871ZM59.98 127.558C57.965 127.558 56.951 126.362 56.951 124.321V124.165C56.951 121.929 58.251 120.928 59.746 120.928C61.488 120.928 62.294 121.968 62.294 123.918V124.386H57.796C57.822 126.141 58.602 126.856 60.11 126.856C60.968 126.856 61.566 126.661 62.099 126.388V127.012C61.709 127.272 60.994 127.558 59.98 127.558ZM59.72 121.591C58.797 121.591 57.913 122.15 57.809 123.736H61.436C61.436 122.267 60.877 121.591 59.72 121.591ZM63.7908 127.454V121.045H64.5708V121.617H64.6228C65.2468 121.214 65.9878 120.928 66.7028 120.928C67.4308 120.928 67.9508 121.162 68.2238 121.643H68.2758C69.0428 121.162 69.7968 120.928 70.5118 120.928C71.6168 120.928 72.2798 121.422 72.2798 122.644V127.454H71.4738V122.826C71.4738 121.968 71.0838 121.63 70.2128 121.63C69.6668 121.63 69.0558 121.812 68.4058 122.176C68.4318 122.332 68.4448 122.475 68.4448 122.644V127.454H67.6258V122.826C67.6258 121.968 67.2748 121.63 66.4038 121.63C65.7928 121.63 65.1818 121.838 64.6098 122.176V127.454H63.7908ZM75.6845 127.558C74.5275 127.558 73.7085 126.934 73.7085 125.79C73.7085 124.672 74.3975 124.087 75.6325 123.944L77.4525 123.736V122.982C77.4525 121.929 76.9845 121.63 75.8405 121.63C75.2035 121.63 74.6965 121.747 74.2545 121.851V121.266C74.8135 121.045 75.4245 120.928 76.1395 120.928C77.5175 120.928 78.2715 121.487 78.2715 122.787V127.454H77.6085L77.5305 126.882H77.4785C77.1535 127.233 76.5815 127.558 75.6845 127.558ZM75.8925 126.908C76.5555 126.908 77.1535 126.674 77.4525 126.401V124.347L75.8535 124.529C74.9695 124.62 74.5535 124.984 74.5535 125.764C74.5535 126.505 75.0735 126.908 75.8925 126.908ZM80.1684 127.454V121.045H80.9874V127.454H80.1684ZM80.1554 119.706V118.809H81.0004V119.706H80.1554ZM82.9099 127.454V121.045H83.6899V121.617H83.7419C84.3789 121.201 85.2369 120.928 86.0429 120.928C87.2649 120.928 87.8889 121.422 87.8889 122.644V127.454H87.0699V122.826C87.0699 121.968 86.7319 121.63 85.6919 121.63C85.0289 121.63 84.3009 121.851 83.7289 122.176V127.454H82.9099ZM91.3517 127.545C90.5067 127.545 89.8047 127.363 89.3107 127.09V126.44C89.8437 126.661 90.3377 126.856 91.2607 126.856C92.3527 126.856 92.7687 126.427 92.7687 125.79C92.7687 125.114 92.4437 124.841 91.5727 124.607L90.9227 124.412C89.9607 124.165 89.3627 123.736 89.3627 122.67C89.3627 121.643 90.0647 120.928 91.5077 120.928C92.3397 120.928 92.8727 121.123 93.2237 121.305V121.968C92.8597 121.786 92.2227 121.617 91.5467 121.617C90.6107 121.617 90.1427 121.968 90.1427 122.605C90.1427 123.216 90.4417 123.476 91.1827 123.697L91.8717 123.879C93.0547 124.217 93.5877 124.607 93.5877 125.725C93.5877 126.856 92.7817 127.545 91.3517 127.545ZM100.034 127.558C98.8771 127.558 98.0581 126.934 98.0581 125.79C98.0581 124.672 98.7471 124.087 99.9821 123.944L101.802 123.736V122.982C101.802 121.929 101.334 121.63 100.19 121.63C99.5531 121.63 99.0461 121.747 98.6041 121.851V121.266C99.1631 121.045 99.7741 120.928 100.489 120.928C101.867 120.928 102.621 121.487 102.621 122.787V127.454H101.958L101.88 126.882H101.828C101.503 127.233 100.931 127.558 100.034 127.558ZM100.242 126.908C100.905 126.908 101.503 126.674 101.802 126.401V124.347L100.203 124.529C99.3191 124.62 98.9031 124.984 98.9031 125.764C98.9031 126.505 99.4231 126.908 100.242 126.908ZM107.907 129.378V121.045H108.687V121.565H108.739C109.181 121.227 109.857 120.928 110.728 120.928C112.145 120.928 113.328 121.695 113.328 124.113V124.256C113.328 126.57 112.197 127.558 110.429 127.558C109.675 127.558 109.09 127.35 108.713 127.116V129.378H107.907ZM110.351 126.895C111.69 126.895 112.47 126.18 112.47 124.386V124.152C112.47 122.189 111.755 121.63 110.52 121.63C109.714 121.63 109.077 121.916 108.713 122.163V126.427C109.064 126.661 109.662 126.895 110.351 126.895ZM114.865 127.454V121.045H115.684V127.454H114.865ZM114.852 119.706V118.809H115.697V119.706H114.852ZM119.387 127.454L116.969 121.032H117.853L119.803 126.388H119.829L121.792 121.032H122.611L120.206 127.454H119.387ZM126.335 127.558C124.58 127.558 123.462 126.427 123.462 124.36V124.178C123.462 122.098 124.658 120.928 126.348 120.928C128.116 120.928 129.234 122.059 129.234 124.139V124.308C129.234 126.375 128.038 127.558 126.335 127.558ZM126.361 126.882C127.583 126.882 128.389 126.037 128.389 124.386V124.113C128.389 122.254 127.505 121.591 126.335 121.591C125.1 121.591 124.307 122.475 124.307 124.087V124.386C124.307 126.219 125.204 126.882 126.361 126.882ZM132.696 127.519C131.708 127.519 131.097 127.103 131.097 126.063V121.734H130.161V121.045H131.097V119.524H131.916V121.045H133.619V121.734H131.916V125.946C131.916 126.583 132.124 126.856 132.904 126.856C133.177 126.856 133.502 126.804 133.736 126.726V127.272C133.515 127.402 133.216 127.519 132.696 127.519ZM136.698 127.558C135.541 127.558 134.722 126.934 134.722 125.79C134.722 124.672 135.411 124.087 136.646 123.944L138.466 123.736V122.982C138.466 121.929 137.998 121.63 136.854 121.63C136.217 121.63 135.71 121.747 135.268 121.851V121.266C135.827 121.045 136.438 120.928 137.153 120.928C138.531 120.928 139.285 121.487 139.285 122.787V127.454H138.622L138.544 126.882H138.492C138.167 127.233 137.595 127.558 136.698 127.558ZM136.906 126.908C137.569 126.908 138.167 126.674 138.466 126.401V124.347L136.867 124.529C135.983 124.62 135.567 124.984 135.567 125.764C135.567 126.505 136.087 126.908 136.906 126.908ZM141.182 127.454V118.146H142.001V127.454H141.182ZM147.339 129.378V121.045H148.119V121.565H148.171C148.613 121.227 149.289 120.928 150.16 120.928C151.577 120.928 152.76 121.695 152.76 124.113V124.256C152.76 126.57 151.629 127.558 149.861 127.558C149.107 127.558 148.522 127.35 148.145 127.116V129.378H147.339ZM149.783 126.895C151.122 126.895 151.902 126.18 151.902 124.386V124.152C151.902 122.189 151.187 121.63 149.952 121.63C149.146 121.63 148.509 121.916 148.145 122.163V126.427C148.496 126.661 149.094 126.895 149.783 126.895ZM156.181 127.558C154.946 127.558 154.231 126.96 154.231 125.725V121.032H155.05V125.621C155.05 126.505 155.427 126.856 156.415 126.856C157.104 126.856 157.767 126.622 158.339 126.284V121.032H159.145V127.454H158.443L158.365 126.856H158.326C157.689 127.272 156.948 127.558 156.181 127.558ZM161.062 127.454V121.032H161.842V121.773H161.894C162.271 121.357 162.986 120.954 163.74 120.954C163.883 120.954 164.052 120.967 164.13 120.993V121.747C163.974 121.721 163.792 121.708 163.675 121.708C162.999 121.708 162.336 121.981 161.881 122.358V127.454H161.062ZM167.041 127.545C166.196 127.545 165.494 127.363 165 127.09V126.44C165.533 126.661 166.027 126.856 166.95 126.856C168.042 126.856 168.458 126.427 168.458 125.79C168.458 125.114 168.133 124.841 167.262 124.607L166.612 124.412C165.65 124.165 165.052 123.736 165.052 122.67C165.052 121.643 165.754 120.928 167.197 120.928C168.029 120.928 168.562 121.123 168.913 121.305V121.968C168.549 121.786 167.912 121.617 167.236 121.617C166.3 121.617 165.832 121.968 165.832 122.605C165.832 123.216 166.131 123.476 166.872 123.697L167.561 123.879C168.744 124.217 169.277 124.607 169.277 125.725C169.277 126.856 168.471 127.545 167.041 127.545ZM172.673 127.558C171.438 127.558 170.723 126.96 170.723 125.725V121.032H171.542V125.621C171.542 126.505 171.919 126.856 172.907 126.856C173.596 126.856 174.259 126.622 174.831 126.284V121.032H175.637V127.454H174.935L174.857 126.856H174.818C174.181 127.272 173.44 127.558 172.673 127.558ZM177.579 127.454V121.045H178.398V127.454H177.579ZM177.566 119.706V118.809H178.411V119.706H177.566ZM182.297 127.519C181.309 127.519 180.698 127.103 180.698 126.063V121.734H179.762V121.045H180.698V119.524H181.517V121.045H183.22V121.734H181.517V125.946C181.517 126.583 181.725 126.856 182.505 126.856C182.778 126.856 183.103 126.804 183.337 126.726V127.272C183.116 127.402 182.817 127.519 182.297 127.519ZM184.362 127.714V126.622H185.441V127.714H184.362Z" fill="black"/>
</svg>
