<svg width="270" height="316" viewBox="0 0 270 316" fill="none" xmlns="http://www.w3.org/2000/svg">
<rect width="270" height="316" rx="11" transform="matrix(1 0 0 -1 0 316)" fill="black"/>
<path d="M33.528 134.36V128.432H35.976V143H33.528V136.304H27.504V143H25.032V128.432H27.504V134.36H33.528ZM46.9673 143H44.6873V142.136C44.0153 142.92 43.0153 143.312 41.6873 143.312C40.3593 143.312 39.2953 142.8 38.4953 141.776C37.7113 140.752 37.3193 139.552 37.3193 138.176C37.3193 136.8 37.7193 135.632 38.5193 134.672C39.3353 133.696 40.3753 133.208 41.6393 133.208C42.9833 133.208 43.9993 133.608 44.6873 134.408V133.52H46.9673V143ZM44.9513 138.248C44.9513 137.368 44.7033 136.648 44.2073 136.088C43.7113 135.512 43.0713 135.224 42.2873 135.224C41.5193 135.224 40.8873 135.504 40.3913 136.064C39.9113 136.608 39.6713 137.336 39.6713 138.248C39.6713 139.16 39.9193 139.896 40.4153 140.456C40.9113 141.016 41.5513 141.296 42.3353 141.296C43.1193 141.296 43.7513 141.024 44.2313 140.48C44.7113 139.936 44.9513 139.192 44.9513 138.248ZM51.2411 134.384C51.8971 133.6 52.8651 133.208 54.1451 133.208C56.3211 133.208 57.4091 134.544 57.4091 137.216V143H55.1051V137.984C55.1051 135.984 54.4891 134.984 53.2571 134.984C51.9131 134.984 51.2411 136.056 51.2411 138.2V143H48.9131V133.52H51.2411V134.384ZM66.0148 142.112C65.3908 142.912 64.4068 143.312 63.0628 143.312C61.7188 143.312 60.6468 142.8 59.8468 141.776C59.0628 140.752 58.6708 139.552 58.6708 138.176C58.6708 136.8 59.0708 135.632 59.8708 134.672C60.6868 133.696 61.7268 133.208 62.9908 133.208C64.3348 133.208 65.3268 133.6 65.9668 134.384L66.0148 126.608H68.3428V143H66.0148V142.112ZM66.2788 138.248C66.2788 137.416 66.0228 136.704 65.5108 136.112C64.9988 135.52 64.3828 135.224 63.6628 135.224C62.9428 135.224 62.3188 135.52 61.7908 136.112C61.2788 136.688 61.0228 137.408 61.0228 138.272C61.0228 139.12 61.2708 139.84 61.7668 140.432C62.2788 141.008 62.9188 141.296 63.6868 141.296C64.4548 141.296 65.0788 141.016 65.5588 140.456C66.0388 139.88 66.2788 139.144 66.2788 138.248ZM81.8803 139.712L84.4003 133.208H85.2403L87.8803 139.688L90.2323 133.52H92.8003L88.3843 143.192H87.2083L85.0243 137.12L82.5283 143.192H81.3283L76.9843 133.52H79.5523L81.8803 139.712ZM96.2535 129.536C96.2535 129.904 96.1175 130.224 95.8455 130.496C95.5735 130.768 95.2535 130.904 94.8855 130.904C94.5175 130.904 94.1975 130.768 93.9255 130.496C93.6535 130.224 93.5175 129.904 93.5175 129.536C93.5175 129.168 93.6535 128.848 93.9255 128.576C94.1975 128.304 94.5175 128.168 94.8855 128.168C95.2535 128.168 95.5735 128.304 95.8455 128.576C96.1175 128.848 96.2535 129.168 96.2535 129.536ZM96.0615 143H93.7335V133.52H96.0615V143ZM101.152 143H98.8239V135.608H97.6959V133.712H98.8239V130.304H101.152V133.712H103V135.608H101.152V143ZM105.921 126.608V134.312C106.529 133.576 107.497 133.208 108.825 133.208C109.817 133.208 110.609 133.592 111.201 134.36C111.793 135.128 112.089 136.08 112.089 137.216V143H109.785V137.984C109.785 135.984 109.169 134.984 107.937 134.984C106.593 134.984 105.921 136.088 105.921 138.296V143H103.593V126.608H105.921ZM130.606 134.36V128.432H133.054V143H130.606V136.304H124.582V143H122.11V128.432H124.582V134.36H130.606ZM136.869 138.488C136.869 139.4 137.069 140.152 137.469 140.744C137.869 141.336 138.421 141.632 139.125 141.632C140.229 141.632 140.933 141.088 141.237 140L143.445 140.36C142.725 142.328 141.285 143.312 139.125 143.312C137.685 143.312 136.533 142.856 135.669 141.944C134.821 141.016 134.397 139.816 134.397 138.344C134.397 136.792 134.805 135.552 135.621 134.624C136.453 133.68 137.573 133.208 138.981 133.208C140.405 133.208 141.509 133.656 142.293 134.552C143.093 135.432 143.493 136.64 143.493 138.176V138.488H136.869ZM141.333 137.192C141.333 136.536 141.125 135.96 140.709 135.464C140.309 134.968 139.781 134.72 139.125 134.72C138.485 134.72 137.957 134.984 137.541 135.512C137.141 136.024 136.941 136.584 136.941 137.192H141.333ZM153.725 143H151.445V142.136C150.773 142.92 149.773 143.312 148.445 143.312C147.117 143.312 146.053 142.8 145.253 141.776C144.469 140.752 144.077 139.552 144.077 138.176C144.077 136.8 144.477 135.632 145.277 134.672C146.093 133.696 147.133 133.208 148.397 133.208C149.741 133.208 150.757 133.608 151.445 134.408V133.52H153.725V143ZM151.709 138.248C151.709 137.368 151.461 136.648 150.965 136.088C150.469 135.512 149.829 135.224 149.045 135.224C148.277 135.224 147.645 135.504 147.149 136.064C146.669 136.608 146.429 137.336 146.429 138.248C146.429 139.16 146.677 139.896 147.173 140.456C147.669 141.016 148.309 141.296 149.093 141.296C149.877 141.296 150.509 141.024 150.989 140.48C151.469 139.936 151.709 139.192 151.709 138.248ZM157.999 134.504C158.591 133.64 159.519 133.208 160.783 133.208C161.183 133.208 161.551 133.288 161.887 133.448L161.599 135.56C161.247 135.336 160.863 135.224 160.447 135.224C158.815 135.224 157.999 136.392 157.999 138.728V143H155.671V133.52H157.999V134.504ZM165.605 143H163.277V135.608H162.149V133.712H163.277V130.304H165.605V133.712H167.453V135.608H165.605V143Z" fill="white"/>
<path d="M26.808 188.552L25.836 191H23.874L28.122 179.786H29.778L33.918 191H31.938L31.02 188.552H26.808ZM28.842 182.468L27.258 187.094H30.516L28.842 182.468ZM36.2746 184.538C36.7666 183.95 37.4926 183.656 38.4526 183.656C40.0846 183.656 40.9006 184.658 40.9006 186.662V191H39.1726V187.238C39.1726 185.738 38.7106 184.988 37.7866 184.988C36.7786 184.988 36.2746 185.792 36.2746 187.4V191H34.5286V183.89H36.2746V184.538ZM50.5046 180.902C50.5046 181.178 50.4026 181.418 50.1986 181.622C49.9946 181.826 49.7546 181.928 49.4786 181.928C49.2026 181.928 48.9626 181.826 48.7586 181.622C48.5546 181.418 48.4526 181.178 48.4526 180.902C48.4526 180.626 48.5546 180.386 48.7586 180.182C48.9626 179.978 49.2026 179.876 49.4786 179.876C49.7546 179.876 49.9946 179.978 50.1986 180.182C50.4026 180.386 50.5046 180.626 50.5046 180.902ZM50.3606 191H48.6146V183.89H50.3606V191ZM53.7824 184.538C54.2744 183.95 55.0004 183.656 55.9604 183.656C57.5924 183.656 58.4084 184.658 58.4084 186.662V191H56.6804V187.238C56.6804 185.738 56.2184 184.988 55.2944 184.988C54.2864 184.988 53.7824 185.792 53.7824 187.4V191H52.0364V183.89H53.7824V184.538ZM62.0007 191H60.2547V185.456H59.4087V184.034H60.2547V181.478H62.0007V184.034H63.3867V185.456H62.0007V191ZM65.1813 187.616C65.1813 188.3 65.3313 188.864 65.6313 189.308C65.9313 189.752 66.3453 189.974 66.8733 189.974C67.7013 189.974 68.2293 189.566 68.4573 188.75L70.1133 189.02C69.5733 190.496 68.4933 191.234 66.8733 191.234C65.7933 191.234 64.9293 190.892 64.2813 190.208C63.6453 189.512 63.3273 188.612 63.3273 187.508C63.3273 186.344 63.6333 185.414 64.2453 184.718C64.8693 184.01 65.7093 183.656 66.7653 183.656C67.8333 183.656 68.6613 183.992 69.2493 184.664C69.8493 185.324 70.1493 186.23 70.1493 187.382V187.616H65.1813ZM68.5293 186.644C68.5293 186.152 68.3733 185.72 68.0613 185.348C67.7613 184.976 67.3653 184.79 66.8733 184.79C66.3933 184.79 65.9973 184.988 65.6853 185.384C65.3853 185.768 65.2353 186.188 65.2353 186.644H68.5293ZM72.8371 184.628C73.2811 183.98 73.9771 183.656 74.9251 183.656C75.2251 183.656 75.5011 183.716 75.7531 183.836L75.5371 185.42C75.2731 185.252 74.9851 185.168 74.6731 185.168C73.4491 185.168 72.8371 186.044 72.8371 187.796V191H71.0911V183.89H72.8371V184.628ZM83.1317 191H81.4217V190.352C80.9177 190.94 80.1677 191.234 79.1717 191.234C78.1757 191.234 77.3777 190.85 76.7777 190.082C76.1897 189.314 75.8957 188.414 75.8957 187.382C75.8957 186.35 76.1957 185.474 76.7957 184.754C77.4077 184.022 78.1877 183.656 79.1357 183.656C80.1437 183.656 80.9057 183.956 81.4217 184.556V183.89H83.1317V191ZM81.6197 187.436C81.6197 186.776 81.4337 186.236 81.0617 185.816C80.6897 185.384 80.2097 185.168 79.6217 185.168C79.0457 185.168 78.5717 185.378 78.1997 185.798C77.8397 186.206 77.6597 186.752 77.6597 187.436C77.6597 188.12 77.8457 188.672 78.2177 189.092C78.5897 189.512 79.0697 189.722 79.6577 189.722C80.2457 189.722 80.7197 189.518 81.0797 189.11C81.4397 188.702 81.6197 188.144 81.6197 187.436ZM89.4331 185.744C88.9891 185.3 88.4911 185.078 87.9391 185.078C87.2911 185.078 86.7811 185.312 86.4091 185.78C86.0371 186.248 85.8511 186.824 85.8511 187.508C85.8511 188.18 86.0611 188.732 86.4811 189.164C86.9011 189.596 87.4111 189.812 88.0111 189.812C88.5271 189.812 89.0011 189.584 89.4331 189.128V190.802C88.9291 191.09 88.3471 191.234 87.6871 191.234C86.6551 191.234 85.7971 190.868 85.1131 190.136C84.4291 189.404 84.0871 188.51 84.0871 187.454C84.0871 186.398 84.4351 185.504 85.1311 184.772C85.8391 184.028 86.7211 183.656 87.7771 183.656C88.4011 183.656 88.9531 183.806 89.4331 184.106V185.744ZM92.8327 191H91.0867V185.456H90.2407V184.034H91.0867V181.478H92.8327V184.034H94.2187V185.456H92.8327V191ZM96.8054 180.902C96.8054 181.178 96.7034 181.418 96.4994 181.622C96.2954 181.826 96.0554 181.928 95.7794 181.928C95.5034 181.928 95.2634 181.826 95.0594 181.622C94.8554 181.418 94.7534 181.178 94.7534 180.902C94.7534 180.626 94.8554 180.386 95.0594 180.182C95.2634 179.978 95.5034 179.876 95.7794 179.876C96.0554 179.876 96.2954 179.978 96.4994 180.182C96.7034 180.386 96.8054 180.626 96.8054 180.902ZM96.6614 191H94.9154V183.89H96.6614V191ZM101.253 188.39L102.999 183.89H104.943L101.667 191.144H100.623L97.3652 183.89H99.2912L101.253 188.39ZM106.754 187.616C106.754 188.3 106.904 188.864 107.204 189.308C107.504 189.752 107.918 189.974 108.446 189.974C109.274 189.974 109.802 189.566 110.03 188.75L111.686 189.02C111.146 190.496 110.066 191.234 108.446 191.234C107.366 191.234 106.502 190.892 105.854 190.208C105.218 189.512 104.9 188.612 104.9 187.508C104.9 186.344 105.206 185.414 105.818 184.718C106.442 184.01 107.282 183.656 108.338 183.656C109.406 183.656 110.234 183.992 110.822 184.664C111.422 185.324 111.722 186.23 111.722 187.382V187.616H106.754ZM110.102 186.644C110.102 186.152 109.946 185.72 109.634 185.348C109.334 184.976 108.938 184.79 108.446 184.79C107.966 184.79 107.57 184.988 107.258 185.384C106.958 185.768 106.808 186.188 106.808 186.644H110.102ZM120.421 184.538C120.925 183.95 121.675 183.656 122.671 183.656C123.607 183.656 124.381 184.028 124.993 184.772C125.617 185.516 125.929 186.392 125.929 187.4C125.929 188.492 125.623 189.404 125.011 190.136C124.399 190.868 123.607 191.234 122.635 191.234C121.591 191.234 120.865 190.934 120.457 190.334L120.421 194.006H118.675V183.89H120.421V184.538ZM124.147 187.436C124.147 186.824 123.973 186.296 123.625 185.852C123.277 185.396 122.797 185.168 122.185 185.168C121.621 185.168 121.153 185.396 120.781 185.852C120.409 186.308 120.223 186.836 120.223 187.436C120.223 188.024 120.421 188.552 120.817 189.02C121.213 189.488 121.669 189.722 122.185 189.722C122.797 189.722 123.277 189.506 123.625 189.074C123.973 188.642 124.147 188.096 124.147 187.436ZM128.612 184.628C129.056 183.98 129.752 183.656 130.7 183.656C131 183.656 131.276 183.716 131.528 183.836L131.312 185.42C131.048 185.252 130.76 185.168 130.448 185.168C129.224 185.168 128.612 186.044 128.612 187.796V191H126.866V183.89H128.612V184.628ZM139.159 187.436C139.159 188.552 138.817 189.464 138.133 190.172C137.449 190.88 136.549 191.234 135.433 191.234C134.329 191.234 133.429 190.88 132.733 190.172C132.037 189.464 131.689 188.558 131.689 187.454C131.689 186.338 132.031 185.426 132.715 184.718C133.399 184.01 134.299 183.656 135.415 183.656C136.531 183.656 137.431 184.01 138.115 184.718C138.811 185.414 139.159 186.32 139.159 187.436ZM133.453 187.472C133.453 188.132 133.639 188.672 134.011 189.092C134.383 189.512 134.863 189.722 135.451 189.722C136.039 189.722 136.507 189.5 136.855 189.056C137.215 188.6 137.395 188.066 137.395 187.454C137.395 186.83 137.215 186.296 136.855 185.852C136.495 185.396 136.021 185.168 135.433 185.168C134.857 185.168 134.383 185.384 134.011 185.816C133.639 186.248 133.453 186.8 133.453 187.472ZM142.118 194.798H140.372V183.89H142.118V194.798ZM142.262 180.902C142.262 181.178 142.16 181.418 141.956 181.622C141.752 181.826 141.512 181.928 141.236 181.928C140.96 181.928 140.72 181.826 140.516 181.622C140.312 181.418 140.21 181.178 140.21 180.902C140.21 180.626 140.312 180.386 140.516 180.182C140.72 179.978 140.96 179.876 141.236 179.876C141.512 179.876 141.752 179.978 141.956 180.182C142.16 180.386 142.262 180.626 142.262 180.902ZM145.144 187.616C145.144 188.3 145.294 188.864 145.594 189.308C145.894 189.752 146.308 189.974 146.836 189.974C147.664 189.974 148.192 189.566 148.42 188.75L150.076 189.02C149.536 190.496 148.456 191.234 146.836 191.234C145.756 191.234 144.892 190.892 144.244 190.208C143.608 189.512 143.29 188.612 143.29 187.508C143.29 186.344 143.596 185.414 144.208 184.718C144.832 184.01 145.672 183.656 146.728 183.656C147.796 183.656 148.624 183.992 149.212 184.664C149.812 185.324 150.112 186.23 150.112 187.382V187.616H145.144ZM148.492 186.644C148.492 186.152 148.336 185.72 148.024 185.348C147.724 184.976 147.328 184.79 146.836 184.79C146.356 184.79 145.96 184.988 145.648 185.384C145.348 185.768 145.198 186.188 145.198 186.644H148.492ZM155.896 185.744C155.452 185.3 154.954 185.078 154.402 185.078C153.754 185.078 153.244 185.312 152.872 185.78C152.5 186.248 152.314 186.824 152.314 187.508C152.314 188.18 152.524 188.732 152.944 189.164C153.364 189.596 153.874 189.812 154.474 189.812C154.99 189.812 155.464 189.584 155.896 189.128V190.802C155.392 191.09 154.81 191.234 154.15 191.234C153.118 191.234 152.26 190.868 151.576 190.136C150.892 189.404 150.55 188.51 150.55 187.454C150.55 186.398 150.898 185.504 151.594 184.772C152.302 184.028 153.184 183.656 154.24 183.656C154.864 183.656 155.416 183.806 155.896 184.106V185.744ZM159.296 191H157.55V185.456H156.704V184.034H157.55V181.478H159.296V184.034H160.682V185.456H159.296V191ZM26.43 201.89V205.742C26.43 207.122 26.91 207.812 27.87 207.812C28.83 207.812 29.31 207.122 29.31 205.742V201.89H31.056V206.066C31.056 208.178 29.994 209.234 27.87 209.234C25.746 209.234 24.684 208.178 24.684 206.066V201.89H26.43ZM36.27 203.366C35.886 203.006 35.484 202.826 35.064 202.826C34.428 202.826 34.11 203.114 34.11 203.69C34.11 204.014 34.398 204.278 34.974 204.482C36.03 204.866 36.684 205.22 36.936 205.544C37.188 205.856 37.314 206.246 37.314 206.714C37.314 207.482 37.044 208.094 36.504 208.55C35.976 209.006 35.322 209.234 34.542 209.234C33.534 209.234 32.7 208.838 32.04 208.046L32.814 207.056C33.414 207.656 33.966 207.956 34.47 207.956C35.202 207.956 35.568 207.602 35.568 206.894C35.568 206.534 35.376 206.27 34.992 206.102C34.608 205.922 34.314 205.79 34.11 205.706C33.006 205.226 32.454 204.644 32.454 203.96C32.454 203.276 32.658 202.724 33.066 202.304C33.486 201.872 34.032 201.656 34.704 201.656C35.664 201.656 36.426 201.902 36.99 202.394L36.27 203.366ZM40.5554 198.902C40.5554 199.178 40.4534 199.418 40.2494 199.622C40.0454 199.826 39.8054 199.928 39.5294 199.928C39.2534 199.928 39.0134 199.826 38.8094 199.622C38.6054 199.418 38.5034 199.178 38.5034 198.902C38.5034 198.626 38.6054 198.386 38.8094 198.182C39.0134 197.978 39.2534 197.876 39.5294 197.876C39.8054 197.876 40.0454 197.978 40.2494 198.182C40.4534 198.386 40.5554 198.626 40.5554 198.902ZM40.4114 209H38.6654V201.89H40.4114V209ZM43.8332 202.538C44.3252 201.95 45.0512 201.656 46.0112 201.656C47.6432 201.656 48.4592 202.658 48.4592 204.662V209H46.7312V205.238C46.7312 203.738 46.2692 202.988 45.3452 202.988C44.3372 202.988 43.8332 203.792 43.8332 205.4V209H42.0872V201.89H43.8332V202.538ZM56.6775 208.388C56.6775 210.824 55.5435 212.042 53.2755 212.042C52.2675 212.042 51.4155 211.766 50.7195 211.214C50.0235 210.674 49.6755 209.966 49.6755 209.09H51.5295C51.5295 209.438 51.7035 209.78 52.0515 210.116C52.3995 210.452 52.7895 210.62 53.2215 210.62C54.3615 210.62 54.9315 209.936 54.9315 208.568V208.118C54.4395 208.742 53.6895 209.054 52.6815 209.054C51.6855 209.054 50.8995 208.706 50.3235 208.01C49.7595 207.314 49.4775 206.462 49.4775 205.454C49.4775 204.362 49.7835 203.45 50.3955 202.718C51.0075 201.986 51.7995 201.62 52.7715 201.62C53.7555 201.62 54.4755 201.926 54.9315 202.538V201.854H56.6775V208.388ZM55.1835 205.292C55.1835 204.644 55.0035 204.122 54.6435 203.726C54.2835 203.33 53.8095 203.132 53.2215 203.132C52.6335 203.132 52.1535 203.348 51.7815 203.78C51.4215 204.212 51.2415 204.758 51.2415 205.418C51.2415 206.834 51.9015 207.542 53.2215 207.542C53.8215 207.542 54.2955 207.332 54.6435 206.912C55.0035 206.48 55.1835 205.94 55.1835 205.292ZM65.8058 196.706V202.484C66.2618 201.932 66.9878 201.656 67.9838 201.656C68.7278 201.656 69.3218 201.944 69.7658 202.52C70.2098 203.096 70.4318 203.81 70.4318 204.662V209H68.7038V205.238C68.7038 203.738 68.2418 202.988 67.3178 202.988C66.3098 202.988 65.8058 203.816 65.8058 205.472V209H64.0598V196.706H65.8058ZM78.6141 209H76.9041V208.352C76.4001 208.94 75.6501 209.234 74.6541 209.234C73.6581 209.234 72.8601 208.85 72.2601 208.082C71.6721 207.314 71.3781 206.414 71.3781 205.382C71.3781 204.35 71.6781 203.474 72.2781 202.754C72.8901 202.022 73.6701 201.656 74.6181 201.656C75.6261 201.656 76.3881 201.956 76.9041 202.556V201.89H78.6141V209ZM77.1021 205.436C77.1021 204.776 76.9161 204.236 76.5441 203.816C76.1721 203.384 75.6921 203.168 75.1041 203.168C74.5281 203.168 74.0541 203.378 73.6821 203.798C73.3221 204.206 73.1421 204.752 73.1421 205.436C73.1421 206.12 73.3281 206.672 73.7001 207.092C74.0721 207.512 74.5521 207.722 75.1401 207.722C75.7281 207.722 76.2021 207.518 76.5621 207.11C76.9221 206.702 77.1021 206.144 77.1021 205.436ZM81.8195 202.538C82.3115 201.95 83.0375 201.656 83.9975 201.656C85.6295 201.656 86.4455 202.658 86.4455 204.662V209H84.7175V205.238C84.7175 203.738 84.2555 202.988 83.3315 202.988C82.3235 202.988 81.8195 203.792 81.8195 205.4V209H80.0735V201.89H81.8195V202.538ZM92.8998 208.334C92.4318 208.934 91.6938 209.234 90.6858 209.234C89.6778 209.234 88.8738 208.85 88.2738 208.082C87.6858 207.314 87.3918 206.414 87.3918 205.382C87.3918 204.35 87.6918 203.474 88.2918 202.754C88.9038 202.022 89.6838 201.656 90.6318 201.656C91.6398 201.656 92.3838 201.95 92.8638 202.538L92.8998 196.706H94.6458V209H92.8998V208.334ZM93.0978 205.436C93.0978 204.812 92.9058 204.278 92.5218 203.834C92.1378 203.39 91.6758 203.168 91.1358 203.168C90.5958 203.168 90.1278 203.39 89.7318 203.834C89.3478 204.266 89.1558 204.806 89.1558 205.454C89.1558 206.09 89.3418 206.63 89.7138 207.074C90.0978 207.506 90.5778 207.722 91.1538 207.722C91.7298 207.722 92.1978 207.512 92.5578 207.092C92.9178 206.66 93.0978 206.108 93.0978 205.436ZM103.845 202.52C104.289 201.944 104.973 201.656 105.897 201.656C106.701 201.656 107.337 202.028 107.805 202.772C108.261 202.028 108.999 201.656 110.019 201.656C111.519 201.656 112.269 202.628 112.269 204.572V209H110.541V205.256C110.541 203.744 110.127 202.988 109.299 202.988C108.471 202.988 108.057 203.828 108.057 205.508V209H106.311V205.4C106.311 203.792 105.945 202.988 105.213 202.988C104.301 202.988 103.845 203.828 103.845 205.508V209H102.099V201.89H103.845V202.52ZM120.72 205.436C120.72 206.552 120.378 207.464 119.694 208.172C119.01 208.88 118.11 209.234 116.994 209.234C115.89 209.234 114.99 208.88 114.294 208.172C113.598 207.464 113.25 206.558 113.25 205.454C113.25 204.338 113.592 203.426 114.276 202.718C114.96 202.01 115.86 201.656 116.976 201.656C118.092 201.656 118.992 202.01 119.676 202.718C120.372 203.414 120.72 204.32 120.72 205.436ZM115.014 205.472C115.014 206.132 115.2 206.672 115.572 207.092C115.944 207.512 116.424 207.722 117.012 207.722C117.6 207.722 118.068 207.5 118.416 207.056C118.776 206.6 118.956 206.066 118.956 205.454C118.956 204.83 118.776 204.296 118.416 203.852C118.056 203.396 117.582 203.168 116.994 203.168C116.418 203.168 115.944 203.384 115.572 203.816C115.2 204.248 115.014 204.8 115.014 205.472ZM124.597 206.39L126.343 201.89H128.287L125.011 209.144H123.967L120.709 201.89H122.635L124.597 206.39ZM130.097 205.616C130.097 206.3 130.247 206.864 130.547 207.308C130.847 207.752 131.261 207.974 131.789 207.974C132.617 207.974 133.145 207.566 133.373 206.75L135.029 207.02C134.489 208.496 133.409 209.234 131.789 209.234C130.709 209.234 129.845 208.892 129.197 208.208C128.561 207.512 128.243 206.612 128.243 205.508C128.243 204.344 128.549 203.414 129.161 202.718C129.785 202.01 130.625 201.656 131.681 201.656C132.749 201.656 133.577 201.992 134.165 202.664C134.765 203.324 135.065 204.23 135.065 205.382V205.616H130.097ZM133.445 204.644C133.445 204.152 133.289 203.72 132.977 203.348C132.677 202.976 132.281 202.79 131.789 202.79C131.309 202.79 130.913 202.988 130.601 203.384C130.301 203.768 130.151 204.188 130.151 204.644H133.445ZM137.753 202.52C138.197 201.944 138.881 201.656 139.805 201.656C140.609 201.656 141.245 202.028 141.713 202.772C142.169 202.028 142.907 201.656 143.927 201.656C145.427 201.656 146.177 202.628 146.177 204.572V209H144.449V205.256C144.449 203.744 144.035 202.988 143.207 202.988C142.379 202.988 141.965 203.828 141.965 205.508V209H140.219V205.4C140.219 203.792 139.853 202.988 139.121 202.988C138.209 202.988 137.753 203.828 137.753 205.508V209H136.007V201.89H137.753V202.52ZM148.994 205.616C148.994 206.3 149.144 206.864 149.444 207.308C149.744 207.752 150.158 207.974 150.686 207.974C151.514 207.974 152.042 207.566 152.27 206.75L153.926 207.02C153.386 208.496 152.306 209.234 150.686 209.234C149.606 209.234 148.742 208.892 148.094 208.208C147.458 207.512 147.14 206.612 147.14 205.508C147.14 204.344 147.446 203.414 148.058 202.718C148.682 202.01 149.522 201.656 150.578 201.656C151.646 201.656 152.474 201.992 153.062 202.664C153.662 203.324 153.962 204.23 153.962 205.382V205.616H148.994ZM152.342 204.644C152.342 204.152 152.186 203.72 151.874 203.348C151.574 202.976 151.178 202.79 150.686 202.79C150.206 202.79 149.81 202.988 149.498 203.384C149.198 203.768 149.048 204.188 149.048 204.644H152.342ZM156.65 202.538C157.142 201.95 157.868 201.656 158.828 201.656C160.46 201.656 161.276 202.658 161.276 204.662V209H159.548V205.238C159.548 203.738 159.086 202.988 158.162 202.988C157.154 202.988 156.65 203.792 156.65 205.4V209H154.904V201.89H156.65V202.538ZM164.868 209H163.122V203.456H162.276V202.034H163.122V199.478H164.868V202.034H166.254V203.456H164.868V209ZM31.452 227H29.742V226.352C29.238 226.94 28.488 227.234 27.492 227.234C26.496 227.234 25.698 226.85 25.098 226.082C24.51 225.314 24.216 224.414 24.216 223.382C24.216 222.35 24.516 221.474 25.116 220.754C25.728 220.022 26.508 219.656 27.456 219.656C28.464 219.656 29.226 219.956 29.742 220.556V219.89H31.452V227ZM29.94 223.436C29.94 222.776 29.754 222.236 29.382 221.816C29.01 221.384 28.53 221.168 27.942 221.168C27.366 221.168 26.892 221.378 26.52 221.798C26.16 222.206 25.98 222.752 25.98 223.436C25.98 224.12 26.166 224.672 26.538 225.092C26.91 225.512 27.39 225.722 27.978 225.722C28.566 225.722 29.04 225.518 29.4 225.11C29.76 224.702 29.94 224.144 29.94 223.436ZM34.6574 220.538C35.1494 219.95 35.8754 219.656 36.8354 219.656C38.4674 219.656 39.2834 220.658 39.2834 222.662V227H37.5554V223.238C37.5554 221.738 37.0934 220.988 36.1694 220.988C35.1614 220.988 34.6574 221.792 34.6574 223.4V227H32.9114V219.89H34.6574V220.538ZM45.7377 226.334C45.2697 226.934 44.5317 227.234 43.5237 227.234C42.5157 227.234 41.7117 226.85 41.1117 226.082C40.5237 225.314 40.2297 224.414 40.2297 223.382C40.2297 222.35 40.5297 221.474 41.1297 220.754C41.7417 220.022 42.5217 219.656 43.4697 219.656C44.4777 219.656 45.2217 219.95 45.7017 220.538L45.7377 214.706H47.4837V227H45.7377V226.334ZM45.9357 223.436C45.9357 222.812 45.7437 222.278 45.3597 221.834C44.9757 221.39 44.5137 221.168 43.9737 221.168C43.4337 221.168 42.9657 221.39 42.5697 221.834C42.1857 222.266 41.9937 222.806 41.9937 223.454C41.9937 224.09 42.1797 224.63 42.5517 225.074C42.9357 225.506 43.4157 225.722 43.9917 225.722C44.5677 225.722 45.0357 225.512 45.3957 225.092C45.7557 224.66 45.9357 224.108 45.9357 223.436ZM61.7048 226.388C61.7048 228.824 60.5708 230.042 58.3028 230.042C57.2948 230.042 56.4428 229.766 55.7468 229.214C55.0508 228.674 54.7028 227.966 54.7028 227.09H56.5568C56.5568 227.438 56.7308 227.78 57.0788 228.116C57.4268 228.452 57.8168 228.62 58.2488 228.62C59.3888 228.62 59.9588 227.936 59.9588 226.568V226.118C59.4668 226.742 58.7168 227.054 57.7088 227.054C56.7128 227.054 55.9268 226.706 55.3508 226.01C54.7868 225.314 54.5048 224.462 54.5048 223.454C54.5048 222.362 54.8108 221.45 55.4228 220.718C56.0348 219.986 56.8268 219.62 57.7988 219.62C58.7828 219.62 59.5028 219.926 59.9588 220.538V219.854H61.7048V226.388ZM60.2108 223.292C60.2108 222.644 60.0308 222.122 59.6708 221.726C59.3108 221.33 58.8368 221.132 58.2488 221.132C57.6608 221.132 57.1808 221.348 56.8088 221.78C56.4488 222.212 56.2688 222.758 56.2688 223.418C56.2688 224.834 56.9288 225.542 58.2488 225.542C58.8488 225.542 59.3228 225.332 59.6708 224.912C60.0308 224.48 60.2108 223.94 60.2108 223.292ZM64.4255 223.616C64.4255 224.3 64.5755 224.864 64.8755 225.308C65.1755 225.752 65.5895 225.974 66.1175 225.974C66.9455 225.974 67.4735 225.566 67.7015 224.75L69.3575 225.02C68.8175 226.496 67.7375 227.234 66.1175 227.234C65.0375 227.234 64.1735 226.892 63.5255 226.208C62.8895 225.512 62.5715 224.612 62.5715 223.508C62.5715 222.344 62.8775 221.414 63.4895 220.718C64.1135 220.01 64.9535 219.656 66.0095 219.656C67.0775 219.656 67.9055 219.992 68.4935 220.664C69.0935 221.324 69.3935 222.23 69.3935 223.382V223.616H64.4255ZM67.7735 222.644C67.7735 222.152 67.6175 221.72 67.3055 221.348C67.0055 220.976 66.6095 220.79 66.1175 220.79C65.6375 220.79 65.2415 220.988 64.9295 221.384C64.6295 221.768 64.4795 222.188 64.4795 222.644H67.7735ZM74.1332 221.366C73.7492 221.006 73.3472 220.826 72.9272 220.826C72.2912 220.826 71.9732 221.114 71.9732 221.69C71.9732 222.014 72.2612 222.278 72.8372 222.482C73.8932 222.866 74.5472 223.22 74.7992 223.544C75.0512 223.856 75.1772 224.246 75.1772 224.714C75.1772 225.482 74.9072 226.094 74.3672 226.55C73.8392 227.006 73.1852 227.234 72.4052 227.234C71.3972 227.234 70.5632 226.838 69.9032 226.046L70.6772 225.056C71.2772 225.656 71.8292 225.956 72.3332 225.956C73.0652 225.956 73.4312 225.602 73.4312 224.894C73.4312 224.534 73.2392 224.27 72.8552 224.102C72.4712 223.922 72.1772 223.79 71.9732 223.706C70.8692 223.226 70.3172 222.644 70.3172 221.96C70.3172 221.276 70.5212 220.724 70.9292 220.304C71.3492 219.872 71.8952 219.656 72.5672 219.656C73.5272 219.656 74.2892 219.902 74.8532 220.394L74.1332 221.366ZM78.4186 227H76.6726V221.456H75.8266V220.034H76.6726V217.478H78.4186V220.034H79.8046V221.456H78.4186V227ZM81.9593 219.89V223.742C81.9593 225.122 82.4393 225.812 83.3993 225.812C84.3593 225.812 84.8393 225.122 84.8393 223.742V219.89H86.5853V224.066C86.5853 226.178 85.5233 227.234 83.3993 227.234C81.2753 227.234 80.2133 226.178 80.2133 224.066V219.89H81.9593ZM89.7473 220.628C90.1913 219.98 90.8873 219.656 91.8353 219.656C92.1353 219.656 92.4113 219.716 92.6633 219.836L92.4473 221.42C92.1833 221.252 91.8953 221.168 91.5833 221.168C90.3593 221.168 89.7473 222.044 89.7473 223.796V227H88.0013V219.89H89.7473V220.628ZM94.6598 223.616C94.6598 224.3 94.8098 224.864 95.1098 225.308C95.4098 225.752 95.8238 225.974 96.3518 225.974C97.1798 225.974 97.7078 225.566 97.9358 224.75L99.5918 225.02C99.0518 226.496 97.9718 227.234 96.3518 227.234C95.2718 227.234 94.4078 226.892 93.7598 226.208C93.1238 225.512 92.8058 224.612 92.8058 223.508C92.8058 222.344 93.1118 221.414 93.7238 220.718C94.3478 220.01 95.1878 219.656 96.2438 219.656C97.3118 219.656 98.1398 219.992 98.7278 220.664C99.3278 221.324 99.6278 222.23 99.6278 223.382V223.616H94.6598ZM98.0078 222.644C98.0078 222.152 97.8518 221.72 97.5398 221.348C97.2398 220.976 96.8438 220.79 96.3518 220.79C95.8718 220.79 95.4758 220.988 95.1638 221.384C94.8638 221.768 94.7138 222.188 94.7138 222.644H98.0078ZM103.234 225.974C103.234 226.334 103.108 226.646 102.856 226.91C102.616 227.162 102.316 227.288 101.956 227.288C101.596 227.288 101.29 227.162 101.038 226.91C100.786 226.658 100.66 226.358 100.66 226.01C100.66 225.65 100.786 225.344 101.038 225.092C101.29 224.84 101.59 224.714 101.938 224.714C102.298 224.714 102.604 224.834 102.856 225.074C103.108 225.314 103.234 225.614 103.234 225.974Z" fill="white"/>
<path d="M222.758 296.434V298H215.414L218.186 294.49C219.506 292.858 220.28 291.838 220.508 291.43C220.748 291.01 220.868 290.668 220.868 290.404C220.88 290.332 220.886 290.26 220.886 290.188C220.886 289.708 220.724 289.282 220.4 288.91C220.088 288.538 219.674 288.352 219.158 288.352C218.642 288.352 218.234 288.562 217.934 288.982C217.646 289.402 217.502 289.912 217.502 290.512H215.558C215.558 289.432 215.876 288.544 216.512 287.848C217.16 287.14 218.036 286.786 219.14 286.786C220.136 286.786 220.976 287.122 221.66 287.794C222.344 288.466 222.686 289.306 222.686 290.314C222.686 291.262 221.96 292.582 220.508 294.274L218.654 296.434H222.758ZM231.467 292.546C231.467 294.13 231.119 295.486 230.423 296.614C229.727 297.73 228.767 298.288 227.543 298.288C226.331 298.288 225.377 297.724 224.681 296.596C223.985 295.468 223.637 294.118 223.637 292.546C223.637 290.914 223.985 289.546 224.681 288.442C225.389 287.338 226.349 286.786 227.561 286.786C228.773 286.786 229.727 287.35 230.423 288.478C231.119 289.594 231.467 290.95 231.467 292.546ZM225.437 292.528C225.437 293.632 225.629 294.61 226.013 295.462C226.397 296.302 226.919 296.722 227.579 296.722C228.239 296.722 228.749 296.326 229.109 295.534C229.481 294.742 229.667 293.74 229.667 292.528C229.667 291.412 229.475 290.44 229.091 289.612C228.707 288.772 228.191 288.352 227.543 288.352C226.907 288.352 226.397 288.79 226.013 289.666C225.629 290.53 225.437 291.484 225.437 292.528ZM233.84 288.64V287.074H237.26V298H235.406V288.64H233.84ZM243.846 288.64L243.414 290.602L244.26 290.566C245.304 290.566 246.15 290.938 246.798 291.682C247.458 292.414 247.788 293.308 247.788 294.364C247.788 295.54 247.422 296.488 246.69 297.208C245.958 297.928 244.998 298.288 243.81 298.288C242.49 298.288 241.41 297.808 240.57 296.848L241.11 295.264C241.806 296.236 242.658 296.722 243.666 296.722C244.29 296.722 244.818 296.506 245.25 296.074C245.694 295.63 245.916 295.036 245.916 294.292C245.916 293.536 245.688 292.948 245.232 292.528C244.776 292.108 244.2 291.898 243.504 291.898C242.808 291.898 242.238 292.138 241.794 292.618H241.452L242.586 287.074H247.338V288.64H243.846Z" fill="white"/>
<path d="M40.32 49.8662C37.8544 52.3546 37.8568 56.3586 40.32 58.8493L51.2322 69.8868C54.8738 66.2119 58.5154 62.537 62.1569 58.8621C64.6227 56.3738 64.6227 52.3673 62.1569 49.879C59.6912 47.3907 55.7211 47.3906 53.2553 49.879L51.2448 51.9078L49.2217 49.8662C46.7559 47.3779 42.7858 47.3779 40.32 49.8662Z" fill="white"/>
<path d="M31.2337 78.0851C33.1982 79.9778 36.3595 79.9759 38.326 78.0851L47.0402 69.7091C44.1388 66.9139 41.2374 64.1186 38.3361 61.3234C36.3715 59.4307 33.2083 59.4307 31.2438 61.3234C29.2792 63.2161 29.2792 66.2635 31.2438 68.1562L32.8456 69.6994L31.2337 71.2523C29.2691 73.145 29.2691 76.1924 31.2337 78.0851Z" fill="white"/>
<path d="M62.158 89.5425C64.6237 87.0541 64.6213 83.0501 62.158 80.5594L51.2459 69.5219C47.6043 73.1968 43.9626 76.8717 40.3211 80.5466C37.8553 83.0349 37.8553 87.0414 40.3211 89.5297C42.7868 92.018 46.7569 92.018 49.2227 89.5297L51.2332 87.5009L53.2563 89.5425C55.7221 92.0308 59.6922 92.0308 62.158 89.5425Z" fill="white"/>
<path d="M71.7666 61.3231C69.802 59.4305 66.6407 59.4323 64.6743 61.3231L55.96 69.6991C58.8614 72.4943 61.7628 75.2896 64.6642 78.0848C66.6288 79.9775 69.7919 79.9775 71.7565 78.0848C73.7211 76.1921 73.7211 73.1447 71.7565 71.252L70.1547 69.7088L71.7666 68.1559C73.7311 66.2632 73.7311 63.2158 71.7666 61.3231Z" fill="white"/>
</svg>
