<svg width="67" height="67" viewBox="0 0 67 67" fill="none" xmlns="http://www.w3.org/2000/svg">
<path fill-rule="evenodd" clip-rule="evenodd" d="M15.8553 17.7865C15.9606 17.6812 16.1013 17.5405 16.1714 17.4C16.295 17.2765 16.4008 17.1528 16.5068 17.029C16.6115 16.9066 16.7164 16.784 16.8387 16.6613C17.1874 16.3126 17.5706 15.9992 17.9541 15.6854L17.963 15.6782C21.0203 13.256 25.0664 12.8066 28.7295 14.4329C30.068 14.9987 31.1958 15.7752 32.1832 16.7626C32.7402 17.3196 33.2341 17.9277 33.6587 18.579C34.8207 16.8709 36.4583 15.4812 38.4471 14.6101C42.1104 12.984 46.1213 13.4686 49.2135 15.8554C49.3189 15.9607 49.4595 16.1013 49.6 16.1715C49.7236 16.2951 49.8472 16.4009 49.9711 16.5069C50.0935 16.6116 50.216 16.7165 50.3388 16.8388C50.6874 17.1874 51.0009 17.5706 51.3146 17.9542L51.3219 17.9631C53.744 21.0203 54.1935 25.0664 52.5672 28.7295C52.0013 30.068 51.2248 31.1959 50.2375 32.1832C49.7483 32.6724 49.2197 33.1129 48.6571 33.5005C49.2196 33.888 49.7481 34.3285 50.2372 34.8175C51.1893 35.7697 52.0011 36.9327 52.5669 38.2712C54.2279 41.8996 53.7433 45.9105 51.3216 49.0377C51.2514 49.1782 51.1461 49.2836 51.0407 49.3889C50.9177 49.5119 50.8036 49.6436 50.6895 49.7753C50.5753 49.9071 50.4612 50.0388 50.3382 50.1617C49.9896 50.5104 49.6064 50.8238 49.2229 51.1375L49.2139 51.1449C46.122 53.5318 42.1111 54.0165 38.4479 52.3901C37.1095 51.8243 35.9816 51.0478 34.9943 50.0605C34.4926 49.5588 34.0422 49.0157 33.6474 48.437C33.2252 49.0822 32.7349 49.6848 32.1825 50.2372C31.2303 51.1894 30.0673 52.0011 28.7288 52.5669C25.1005 54.228 21.0895 53.7434 17.9624 51.3216C17.8218 51.2515 17.7165 51.1461 17.6111 51.0408C17.4882 50.9178 17.3564 50.8037 17.2247 50.6895C17.093 50.5754 16.9613 50.4613 16.8383 50.3383C16.4897 49.9896 16.1762 49.6064 15.8625 49.2229L15.8552 49.214C13.4682 46.122 12.9836 42.1111 14.6099 38.448C15.1757 37.1095 15.9522 35.9817 16.9396 34.9943C17.5097 34.4243 18.1332 33.9203 18.8018 33.4891C16.9917 32.32 15.5187 30.6276 14.61 28.553C12.984 24.8896 13.4686 20.8787 15.8553 17.7865ZM30.9435 31.2772L30.9512 31.2767L30.9503 31.2639L30.4724 24.2564C30.3635 22.7429 29.7274 21.334 28.6694 20.2761C28.4172 20.0238 28.165 19.8281 27.8878 19.6128C27.8549 19.5873 27.8217 19.5616 27.7882 19.5354C27.4357 19.3236 27.1187 19.1472 26.7312 18.9704C24.7587 18.0512 22.6829 18.2935 21.0315 19.5923C20.7854 19.7675 20.5395 19.943 20.3288 20.1537C20.1196 20.363 19.9453 20.6071 19.771 20.8513L19.7674 20.8564C19.7052 20.9498 19.643 21.0433 19.5808 21.1368C19.5027 21.2541 19.4246 21.3715 19.3464 21.4889C18.4344 23.0355 18.3677 24.795 19.1455 26.5562C20.1001 28.7049 22.1438 30.1165 24.4318 30.2971L30.9503 31.2639L30.9435 31.2772ZM31.2895 36.2371L31.2751 36.2381L24.4328 36.7044C22.9193 36.8133 21.5104 37.4495 20.4525 38.5074C19.9233 39.0365 19.4644 39.7061 19.1463 40.4457C18.2977 42.4178 18.4694 44.4939 19.7682 46.1454C19.8735 46.2507 19.9701 46.3649 20.0666 46.479C20.1631 46.5931 20.2597 46.7073 20.365 46.8126C20.5757 47.0233 20.7864 47.234 21.0323 47.4095C21.2077 47.5849 21.4185 47.7254 21.6648 47.8305C23.1761 48.7072 24.9709 48.8091 26.7321 48.0314C28.8808 47.0768 30.3274 45.0681 30.473 42.745L31.2751 36.2381L31.2901 36.2454L31.2895 36.2371ZM36.2499 35.899L36.2981 35.8957L42.745 36.527C45.068 36.6726 47.0767 38.1193 48.0313 40.268C48.8091 42.0291 48.7072 43.8239 47.8304 45.3353C47.7253 45.5815 47.5848 45.7924 47.4094 45.9678C47.2339 46.2136 47.0232 46.4243 46.8126 46.635C46.7072 46.7403 46.5931 46.8369 46.4789 46.9335C46.3648 47.03 46.2507 47.1265 46.1453 47.2319C44.4939 48.5306 42.4177 48.7024 40.4456 47.8538C39.7061 47.5356 39.0365 47.0767 38.5074 46.5476C37.4494 45.4896 36.8133 44.0808 36.7044 42.5672L36.2499 35.899ZM35.9117 30.9384L35.9015 30.7887L36.7029 24.4319C36.8835 22.1439 38.2952 20.1001 40.4439 19.1456C42.205 18.3678 43.9645 18.4344 45.5112 19.3465C45.6284 19.4246 45.7456 19.5026 45.8629 19.5806C45.9565 19.6429 46.0501 19.7051 46.1437 19.7674L46.1487 19.771C46.3929 19.9454 46.6371 20.1197 46.8463 20.3289C47.057 20.5396 47.2325 20.7854 47.4078 21.0315C48.7065 22.683 48.9488 24.7587 48.0297 26.7313C47.8529 27.1187 47.6765 27.4358 47.4646 27.7882C47.4385 27.8218 47.4127 27.855 47.3872 27.8879C47.172 28.1651 46.9762 28.4173 46.724 28.6695C45.666 29.7275 44.2572 30.3636 42.7436 30.4725L35.9117 30.9384Z" fill="black"/>
<rect x="32" y="20.8248" width="4" height="43" rx="2" fill="black"/>
<rect x="24.1104" y="27.0498" width="4.15697" height="22.4476" rx="2.07848" transform="rotate(-45 24.1104 27.0498)" fill="black"/>
<rect x="27.0498" y="42.9227" width="4.15697" height="22.4476" rx="2.07848" transform="rotate(-135 27.0498 42.9227)" fill="black"/>
</svg>
