<svg width="42" height="53" viewBox="0 0 42 53" fill="none" xmlns="http://www.w3.org/2000/svg">
<rect x="19" y="24.5" width="4" height="28" rx="2" fill="black"/>
<path d="M30.8508 1.84761C29.6483 0.624176 28.0289 0 26.4337 0C24.8387 0 23.2435 0.624176 22.0166 1.84761L20.9859 2.89622L19.9553 1.84761C18.7528 0.624176 17.1333 0 15.5382 0C13.894 0 12.2499 0.649098 11.0229 1.97231C8.66703 4.49393 8.81444 8.4887 11.2192 10.9355L20.2252 20.0984C20.6424 20.5228 21.305 20.5228 21.6977 20.0984L30.8019 10.8356C33.2803 8.36414 33.2803 4.31965 30.8508 1.84792L30.8508 1.84761Z" fill="black"/>
<path d="M11.1494 40.2052C12.3519 41.3937 13.9714 42.0001 15.5665 42.0001C17.1615 42.0001 18.7567 41.3937 19.9836 40.2052L21.0143 39.1866L22.045 40.2052C23.2474 41.3937 24.8669 42.0001 26.4621 42.0001C28.1062 42.0001 29.7503 41.3695 30.9773 40.0841C33.3332 37.6345 33.1858 33.7539 30.781 31.377L21.775 22.4759C21.3579 22.0636 20.6952 22.0636 20.3025 22.4759L11.1984 31.474C8.71994 33.8749 8.71994 37.8038 11.1494 40.2049L11.1494 40.2052Z" fill="black"/>
<path d="M1.82121 11.4637C0.615259 12.6812 0 14.3209 0 15.936C0 17.5509 0.615259 19.1661 1.82121 20.4084L2.85485 21.4519L1.82121 22.4954C0.615259 23.7129 0 25.3527 0 26.9678C0 28.6325 0.639826 30.2971 1.94413 31.5395C4.42973 33.9248 8.36744 33.7755 10.7793 31.3407L19.8113 22.2221C20.2296 21.7997 20.2296 21.1288 19.8113 20.7312L10.6808 11.5133C8.24465 9.00386 4.25795 9.00386 1.82152 11.4637L1.82121 11.4637Z" fill="black"/>
<path d="M40.1788 31.4113C41.3847 30.1938 42 28.5541 42 26.939C42 25.3241 41.3847 23.7089 40.1788 22.4666L39.1452 21.4231L40.1788 20.3796C41.3847 19.1621 42 17.5223 42 15.9072C42 14.2425 41.3602 12.5779 40.0559 11.3355C37.5703 8.9502 33.6326 9.09946 31.2207 11.5343L22.1887 20.6529C21.7704 21.0753 21.7704 21.7462 22.1887 22.1438L31.3192 31.3617C33.7554 33.8711 37.7421 33.8711 40.1785 31.4113L40.1788 31.4113Z" fill="black"/>
</svg>
