<svg width="189" height="148" viewBox="0 0 189 148" fill="none" xmlns="http://www.w3.org/2000/svg">
<path d="M6.1805 17.16C5.17783 17.16 4.30316 16.9253 3.5565 16.456C2.8205 15.9867 2.24983 15.32 1.8445 14.456C1.43916 13.592 1.2365 12.5733 1.2365 11.4C1.2365 10.2267 1.43916 9.208 1.8445 8.344C2.24983 7.48 2.82583 6.81333 3.5725 6.344C4.32983 5.87467 5.21516 5.64 6.2285 5.64C7.04983 5.64 7.7805 5.8 8.4205 6.12C9.0605 6.44 9.52983 6.888 9.8285 7.464L8.8365 8.392C8.2605 7.50667 7.40183 7.064 6.2605 7.064C5.21516 7.064 4.40983 7.44267 3.8445 8.2C3.27916 8.94667 2.9965 10.0133 2.9965 11.4C2.9965 12.776 3.27383 13.8427 3.8285 14.6C4.38316 15.3573 5.16716 15.736 6.1805 15.736C6.79916 15.736 7.32716 15.6293 7.7645 15.416C8.20183 15.192 8.55916 14.856 8.8365 14.408L9.8285 15.336C9.51916 15.912 9.0445 16.36 8.4045 16.68C7.77516 17 7.03383 17.16 6.1805 17.16ZM13.5514 17.16C13.0287 17.16 12.5594 17.0533 12.1434 16.84C11.738 16.6267 11.418 16.3333 11.1834 15.96C10.9594 15.576 10.8474 15.144 10.8474 14.664C10.8474 13.8533 11.1567 13.2347 11.7754 12.808C12.394 12.3707 13.274 12.152 14.4154 12.152H15.9194V11.752C15.9194 11.2187 15.7754 10.808 15.4874 10.52C15.1994 10.232 14.778 10.088 14.2234 10.088C13.7434 10.088 13.2954 10.184 12.8794 10.376C12.4634 10.5573 12.122 10.824 11.8554 11.176L11.1034 10.232C11.4874 9.784 11.9514 9.44267 12.4954 9.208C13.05 8.96267 13.6474 8.84 14.2874 8.84C15.3114 8.84 16.106 9.09067 16.6714 9.592C17.2367 10.0827 17.5194 10.7813 17.5194 11.688V15.4C17.5194 15.88 17.5834 16.4133 17.7114 17H16.3194C16.2127 16.744 16.138 16.3867 16.0954 15.928H16.0634C15.4554 16.7493 14.618 17.16 13.5514 17.16ZM13.8554 15.928C14.4314 15.928 14.9167 15.7733 15.3114 15.464C15.7167 15.144 15.9194 14.76 15.9194 14.312V13.256H14.3514C13.722 13.256 13.2367 13.3787 12.8954 13.624C12.5647 13.8587 12.3994 14.2053 12.3994 14.664C12.3994 15.0587 12.5274 15.368 12.7834 15.592C13.05 15.816 13.4074 15.928 13.8554 15.928ZM19.5602 10.952C19.5602 10.0453 19.5442 9.39467 19.5122 9H21.0002C21.0429 9.42667 21.0642 9.896 21.0642 10.408V10.568H21.1122C21.3256 10.024 21.6616 9.60267 22.1202 9.304C22.5896 8.99467 23.1389 8.84 23.7682 8.84C23.9389 8.84 24.0936 8.856 24.2322 8.888V10.168C24.1576 10.1467 23.9922 10.136 23.7362 10.136C23.2669 10.136 22.8296 10.2747 22.4242 10.552C22.0296 10.8187 21.7149 11.1867 21.4802 11.656C21.2562 12.1147 21.1442 12.6213 21.1442 13.176V17H19.5602V10.952ZM32.2836 13.608H26.5876C26.673 14.3333 26.9023 14.8827 27.2756 15.256C27.6596 15.6293 28.1823 15.816 28.8436 15.816C29.7823 15.816 30.5396 15.448 31.1156 14.712L31.9956 15.56C31.6863 16.0613 31.2436 16.456 30.6676 16.744C30.0916 17.0213 29.457 17.16 28.7636 17.16C27.569 17.16 26.6356 16.7973 25.9636 16.072C25.3023 15.336 24.9716 14.3173 24.9716 13.016C24.9716 11.7147 25.3076 10.696 25.9796 9.96C26.6516 9.21333 27.5743 8.84 28.7476 8.84C29.857 8.84 30.721 9.208 31.3396 9.944C31.969 10.6693 32.2836 11.688 32.2836 13V13.608ZM30.7796 12.36C30.7796 11.6667 30.593 11.1227 30.2196 10.728C29.8463 10.3333 29.3343 10.136 28.6836 10.136C28.0756 10.136 27.5903 10.3387 27.2276 10.744C26.865 11.1493 26.6463 11.7253 26.5716 12.472H30.7796V12.36ZM40.6575 9V16.728C40.6575 18.0293 40.3322 19.016 39.6815 19.688C39.0415 20.36 38.0975 20.696 36.8495 20.696C36.2735 20.696 35.7242 20.6267 35.2015 20.488C34.6895 20.36 34.2308 20.168 33.8255 19.912L34.3535 18.792C35.1642 19.1867 35.9748 19.384 36.7855 19.384C38.3642 19.384 39.1535 18.4187 39.1535 16.488V15.928C38.9402 16.3013 38.6255 16.5893 38.2095 16.792C37.8042 16.9947 37.3295 17.096 36.7855 17.096C35.7082 17.096 34.8655 16.7227 34.2575 15.976C33.6495 15.2293 33.3455 14.1947 33.3455 12.872C33.3455 11.6133 33.6442 10.6267 34.2415 9.912C34.8388 9.19733 35.6602 8.84 36.7055 8.84C37.2602 8.84 37.7455 8.952 38.1615 9.176C38.5775 9.38933 38.9082 9.69867 39.1535 10.104H39.1855L39.3455 9H40.6575ZM39.0735 12.488C39.0735 11.7093 38.8922 11.1067 38.5295 10.68C38.1775 10.2533 37.6815 10.04 37.0415 10.04C36.3802 10.04 35.8628 10.296 35.4895 10.808C35.1162 11.3093 34.9295 12.0133 34.9295 12.92C34.9295 13.848 35.1108 14.568 35.4735 15.08C35.8468 15.5813 36.3695 15.832 37.0415 15.832C37.6815 15.832 38.1775 15.64 38.5295 15.256C38.8922 14.872 39.0735 14.3333 39.0735 13.64V12.488ZM43.5999 7.768C43.2692 7.768 43.0079 7.67733 42.8159 7.496C42.6239 7.31467 42.5279 7.06933 42.5279 6.76C42.5279 6.45067 42.6239 6.20533 42.8159 6.024C43.0079 5.84267 43.2692 5.752 43.5999 5.752C43.9305 5.752 44.1919 5.84267 44.3839 6.024C44.5865 6.20533 44.6879 6.45067 44.6879 6.76C44.6879 7.06933 44.5865 7.31467 44.3839 7.496C44.1919 7.67733 43.9305 7.768 43.5999 7.768ZM42.8159 9H44.3999V17H42.8159V9ZM53.3744 9L50.3024 17H48.8944L45.8224 9H47.4544L49.5984 15.112L51.7264 9H53.3744ZM55.5842 7.768C55.2536 7.768 54.9922 7.67733 54.8002 7.496C54.6082 7.31467 54.5122 7.06933 54.5122 6.76C54.5122 6.45067 54.6082 6.20533 54.8002 6.024C54.9922 5.84267 55.2536 5.752 55.5842 5.752C55.9149 5.752 56.1762 5.84267 56.3682 6.024C56.5709 6.20533 56.6722 6.45067 56.6722 6.76C56.6722 7.06933 56.5709 7.31467 56.3682 7.496C56.1762 7.67733 55.9149 7.768 55.5842 7.768ZM54.8002 9H56.3842V17H54.8002V9ZM58.5107 11.048C58.5107 10.056 58.4894 9.37333 58.4467 9H59.9187C59.9721 9.39467 59.9987 9.864 59.9987 10.408H60.0467C60.2601 9.928 60.6067 9.54933 61.0867 9.272C61.5774 8.984 62.1214 8.84 62.7187 8.84C64.5961 8.84 65.5347 10.056 65.5347 12.488V17H63.9507V12.472C63.9507 11.672 63.8174 11.08 63.5507 10.696C63.2841 10.312 62.8734 10.12 62.3187 10.12C61.6681 10.12 61.1347 10.3547 60.7187 10.824C60.3027 11.2933 60.0947 11.8907 60.0947 12.616V17H58.5107V11.048ZM74.2981 9V16.728C74.2981 18.0293 73.9728 19.016 73.3221 19.688C72.6821 20.36 71.7381 20.696 70.4901 20.696C69.9141 20.696 69.3648 20.6267 68.8421 20.488C68.3301 20.36 67.8715 20.168 67.4661 19.912L67.9941 18.792C68.8048 19.1867 69.6155 19.384 70.4261 19.384C72.0048 19.384 72.7941 18.4187 72.7941 16.488V15.928C72.5808 16.3013 72.2661 16.5893 71.8501 16.792C71.4448 16.9947 70.9701 17.096 70.4261 17.096C69.3488 17.096 68.5061 16.7227 67.8981 15.976C67.2901 15.2293 66.9861 14.1947 66.9861 12.872C66.9861 11.6133 67.2848 10.6267 67.8821 9.912C68.4795 9.19733 69.3008 8.84 70.3461 8.84C70.9008 8.84 71.3861 8.952 71.8021 9.176C72.2181 9.38933 72.5488 9.69867 72.7941 10.104H72.8261L72.9861 9H74.2981ZM72.7141 12.488C72.7141 11.7093 72.5328 11.1067 72.1701 10.68C71.8181 10.2533 71.3221 10.04 70.6821 10.04C70.0208 10.04 69.5035 10.296 69.1301 10.808C68.7568 11.3093 68.5701 12.0133 68.5701 12.92C68.5701 13.848 68.7515 14.568 69.1141 15.08C69.4875 15.5813 70.0101 15.832 70.6821 15.832C71.3221 15.832 71.8181 15.64 72.1701 15.256C72.5328 14.872 72.7141 14.3333 72.7141 13.64V12.488Z" fill="black"/>
<path d="M1.118 47.454V38.731H3.653C5.668 38.731 6.552 39.667 6.552 41.266C6.552 42.943 5.486 43.853 3.783 43.853H1.963V47.454H1.118ZM1.963 43.151H3.601C5.057 43.151 5.642 42.54 5.642 41.331C5.642 40.044 5.135 39.446 3.562 39.446H1.963V43.151ZM7.96951 47.454V41.032H8.74951V41.773H8.80151C9.17851 41.357 9.89351 40.954 10.6475 40.954C10.7905 40.954 10.9595 40.967 11.0375 40.993V41.747C10.8815 41.721 10.6995 41.708 10.5825 41.708C9.90651 41.708 9.24351 41.981 8.78851 42.358V47.454H7.96951ZM14.8064 47.558C13.0514 47.558 11.9334 46.427 11.9334 44.36V44.178C11.9334 42.098 13.1294 40.928 14.8194 40.928C16.5874 40.928 17.7054 42.059 17.7054 44.139V44.308C17.7054 46.375 16.5094 47.558 14.8064 47.558ZM14.8324 46.882C16.0544 46.882 16.8604 46.037 16.8604 44.386V44.113C16.8604 42.254 15.9764 41.591 14.8064 41.591C13.5714 41.591 12.7784 42.475 12.7784 44.087V44.386C12.7784 46.219 13.6754 46.882 14.8324 46.882ZM20.9732 47.454L18.5552 41.032H19.4392L21.3892 46.388H21.4152L23.3782 41.032H24.1972L21.7922 47.454H20.9732ZM25.4896 47.454V41.045H26.3086V47.454H25.4896ZM25.4766 39.706V38.809H26.3216V39.706H25.4766ZM30.4932 47.558C29.1802 47.558 27.8542 46.765 27.8542 44.399V44.23C27.8542 41.929 29.0372 40.928 30.6882 40.928C31.5202 40.928 32.0792 41.162 32.4432 41.396V38.146H33.2622V47.454H32.5732L32.4952 46.895H32.4432C32.0142 47.285 31.4032 47.558 30.4932 47.558ZM30.7272 46.895C31.5332 46.895 32.0922 46.596 32.4432 46.284V42.085C32.1182 41.825 31.4942 41.63 30.8182 41.63C29.5182 41.63 28.6992 42.306 28.6992 44.139V44.373C28.6992 46.245 29.5312 46.895 30.7272 46.895ZM35.1889 47.454V41.045H36.0079V47.454H35.1889ZM35.1759 39.706V38.809H36.0209V39.706H35.1759ZM37.9304 47.454V41.045H38.7104V41.617H38.7624C39.3994 41.201 40.2574 40.928 41.0634 40.928C42.2854 40.928 42.9094 41.422 42.9094 42.644V47.454H42.0904V42.826C42.0904 41.968 41.7524 41.63 40.7124 41.63C40.0494 41.63 39.3214 41.851 38.7494 42.176V47.454H37.9304ZM46.9702 49.404C44.9942 49.404 44.1232 48.806 44.1232 47.883C44.1232 47.168 44.6822 46.778 45.3712 46.531V46.479C45.0202 46.388 44.7212 46.102 44.7212 45.686C44.7212 45.283 44.9552 44.984 45.4102 44.62C44.9292 44.295 44.6042 43.775 44.6042 43.034V42.956C44.6042 41.656 45.6182 40.902 46.9962 40.902C47.3082 40.902 47.5942 40.941 47.8672 41.006H50.0252V41.63H48.7772C49.1412 41.942 49.3362 42.371 49.3362 42.93V42.995C49.3362 44.36 48.3092 45.036 46.9832 45.036C46.5672 45.036 46.1772 44.971 45.8392 44.841C45.6572 45.01 45.5012 45.179 45.5012 45.413C45.5012 45.777 45.7352 45.946 46.1772 45.946H47.9972C49.1412 45.946 49.9992 46.284 49.9992 47.467C49.9992 48.533 49.1152 49.404 46.9702 49.404ZM46.9442 48.741C48.5562 48.741 49.1412 48.286 49.1412 47.584C49.1412 46.869 48.7382 46.7 47.8672 46.7H45.9822C45.4232 46.882 44.9942 47.168 44.9942 47.766C44.9942 48.403 45.5272 48.741 46.9442 48.741ZM46.9832 44.412C47.9452 44.412 48.5172 43.944 48.5172 43.034V42.917C48.5172 41.968 47.9062 41.539 46.9832 41.539C46.0342 41.539 45.4362 42.033 45.4362 42.891V43.008C45.4362 43.944 46.0602 44.412 46.9832 44.412ZM57.1338 47.558C55.2748 47.558 54.2088 46.44 54.2088 44.347V44.178C54.2088 41.903 55.5218 40.928 57.1728 40.928C58.0048 40.928 58.4858 41.071 58.9408 41.357V42.033C58.3948 41.773 57.9528 41.63 57.1208 41.63C55.8988 41.63 55.0538 42.423 55.0538 44.048V44.334C55.0538 46.011 55.7688 46.856 57.2248 46.856C58.1088 46.856 58.6678 46.583 59.0188 46.388V47.051C58.6028 47.311 58.0568 47.558 57.1338 47.558ZM61.9735 47.558C60.8165 47.558 59.9975 46.934 59.9975 45.79C59.9975 44.672 60.6865 44.087 61.9215 43.944L63.7415 43.736V42.982C63.7415 41.929 63.2735 41.63 62.1295 41.63C61.4925 41.63 60.9855 41.747 60.5435 41.851V41.266C61.1025 41.045 61.7135 40.928 62.4285 40.928C63.8065 40.928 64.5605 41.487 64.5605 42.787V47.454H63.8975L63.8195 46.882H63.7675C63.4425 47.233 62.8705 47.558 61.9735 47.558ZM62.1815 46.908C62.8445 46.908 63.4425 46.674 63.7415 46.401V44.347L62.1425 44.529C61.2585 44.62 60.8425 44.984 60.8425 45.764C60.8425 46.505 61.3625 46.908 62.1815 46.908ZM66.4314 47.454V41.032H67.2114V41.773H67.2634C67.6404 41.357 68.3554 40.954 69.1094 40.954C69.2524 40.954 69.4214 40.967 69.4994 40.993V41.747C69.3434 41.721 69.1614 41.708 69.0444 41.708C68.3684 41.708 67.7054 41.981 67.2504 42.358V47.454H66.4314ZM73.4243 47.558C71.4093 47.558 70.3953 46.362 70.3953 44.321V44.165C70.3953 41.929 71.6953 40.928 73.1903 40.928C74.9323 40.928 75.7383 41.968 75.7383 43.918V44.386H71.2403C71.2663 46.141 72.0463 46.856 73.5543 46.856C74.4123 46.856 75.0103 46.661 75.5433 46.388V47.012C75.1533 47.272 74.4383 47.558 73.4243 47.558ZM73.1643 41.591C72.2413 41.591 71.3573 42.15 71.2533 43.736H74.8803C74.8803 42.267 74.3213 41.591 73.1643 41.591ZM82.6262 47.519C81.6382 47.519 81.0272 47.103 81.0272 46.063V41.734H80.0912V41.045H81.0272V39.524H81.8462V41.045H83.5492V41.734H81.8462V45.946C81.8462 46.583 82.0542 46.856 82.8342 46.856C83.1072 46.856 83.4322 46.804 83.6662 46.726V47.272C83.4452 47.402 83.1462 47.519 82.6262 47.519ZM87.5378 47.558C85.7828 47.558 84.6648 46.427 84.6648 44.36V44.178C84.6648 42.098 85.8608 40.928 87.5508 40.928C89.3188 40.928 90.4368 42.059 90.4368 44.139V44.308C90.4368 46.375 89.2408 47.558 87.5378 47.558ZM87.5638 46.882C88.7858 46.882 89.5918 46.037 89.5918 44.386V44.113C89.5918 42.254 88.7078 41.591 87.5378 41.591C86.3028 41.591 85.5098 42.475 85.5098 44.087V44.386C85.5098 46.219 86.4068 46.882 87.5638 46.882ZM97.3146 47.519C96.3266 47.519 95.7156 47.103 95.7156 46.063V41.734H94.7796V41.045H95.7156V39.524H96.5346V41.045H98.2376V41.734H96.5346V45.946C96.5346 46.583 96.7426 46.856 97.5226 46.856C97.7956 46.856 98.1206 46.804 98.3546 46.726V47.272C98.1336 47.402 97.8346 47.519 97.3146 47.519ZM99.7693 47.454V38.146H100.588V41.604H100.64C101.264 41.188 102.096 40.941 102.902 40.941C104.124 40.941 104.748 41.435 104.748 42.657V47.454H103.929V42.826C103.929 41.968 103.591 41.63 102.551 41.63C101.888 41.63 101.16 41.864 100.588 42.176V47.454H99.7693ZM109.069 47.558C107.314 47.558 106.196 46.427 106.196 44.36V44.178C106.196 42.098 107.392 40.928 109.082 40.928C110.85 40.928 111.968 42.059 111.968 44.139V44.308C111.968 46.375 110.772 47.558 109.069 47.558ZM109.095 46.882C110.317 46.882 111.123 46.037 111.123 44.386V44.113C111.123 42.254 110.239 41.591 109.069 41.591C107.834 41.591 107.041 42.475 107.041 44.087V44.386C107.041 46.219 107.938 46.882 109.095 46.882ZM115.054 47.545C114.209 47.545 113.507 47.363 113.013 47.09V46.44C113.546 46.661 114.04 46.856 114.963 46.856C116.055 46.856 116.471 46.427 116.471 45.79C116.471 45.114 116.146 44.841 115.275 44.607L114.625 44.412C113.663 44.165 113.065 43.736 113.065 42.67C113.065 41.643 113.767 40.928 115.21 40.928C116.042 40.928 116.575 41.123 116.926 41.305V41.968C116.562 41.786 115.925 41.617 115.249 41.617C114.313 41.617 113.845 41.968 113.845 42.605C113.845 43.216 114.144 43.476 114.885 43.697L115.574 43.879C116.757 44.217 117.29 44.607 117.29 45.725C117.29 46.856 116.484 47.545 115.054 47.545ZM121.387 47.558C119.372 47.558 118.358 46.362 118.358 44.321V44.165C118.358 41.929 119.658 40.928 121.153 40.928C122.895 40.928 123.701 41.968 123.701 43.918V44.386H119.203C119.229 46.141 120.009 46.856 121.517 46.856C122.375 46.856 122.973 46.661 123.506 46.388V47.012C123.116 47.272 122.401 47.558 121.387 47.558ZM121.127 41.591C120.204 41.591 119.32 42.15 119.216 43.736H122.843C122.843 42.267 122.284 41.591 121.127 41.591ZM128.613 47.454V41.045H129.393V41.617H129.445C130.069 41.214 130.81 40.928 131.525 40.928C132.253 40.928 132.773 41.162 133.046 41.643H133.098C133.865 41.162 134.619 40.928 135.334 40.928C136.439 40.928 137.102 41.422 137.102 42.644V47.454H136.296V42.826C136.296 41.968 135.906 41.63 135.035 41.63C134.489 41.63 133.878 41.812 133.228 42.176C133.254 42.332 133.267 42.475 133.267 42.644V47.454H132.448V42.826C132.448 41.968 132.097 41.63 131.226 41.63C130.615 41.63 130.004 41.838 129.432 42.176V47.454H128.613ZM140.507 47.558C139.35 47.558 138.531 46.934 138.531 45.79C138.531 44.672 139.22 44.087 140.455 43.944L142.275 43.736V42.982C142.275 41.929 141.807 41.63 140.663 41.63C140.026 41.63 139.519 41.747 139.077 41.851V41.266C139.636 41.045 140.247 40.928 140.962 40.928C142.34 40.928 143.094 41.487 143.094 42.787V47.454H142.431L142.353 46.882H142.301C141.976 47.233 141.404 47.558 140.507 47.558ZM140.715 46.908C141.378 46.908 141.976 46.674 142.275 46.401V44.347L140.676 44.529C139.792 44.62 139.376 44.984 139.376 45.764C139.376 46.505 139.896 46.908 140.715 46.908ZM144.965 47.454V41.045H145.745V41.617H145.797C146.434 41.201 147.292 40.928 148.098 40.928C149.32 40.928 149.944 41.422 149.944 42.644V47.454H149.125V42.826C149.125 41.968 148.787 41.63 147.747 41.63C147.084 41.63 146.356 41.851 145.784 42.176V47.454H144.965ZM153.354 47.558C152.197 47.558 151.378 46.934 151.378 45.79C151.378 44.672 152.067 44.087 153.302 43.944L155.122 43.736V42.982C155.122 41.929 154.654 41.63 153.51 41.63C152.873 41.63 152.366 41.747 151.924 41.851V41.266C152.483 41.045 153.094 40.928 153.809 40.928C155.187 40.928 155.941 41.487 155.941 42.787V47.454H155.278L155.2 46.882H155.148C154.823 47.233 154.251 47.558 153.354 47.558ZM153.562 46.908C154.225 46.908 154.823 46.674 155.122 46.401V44.347L153.523 44.529C152.639 44.62 152.223 44.984 152.223 45.764C152.223 46.505 152.743 46.908 153.562 46.908ZM159.946 49.404C157.97 49.404 157.099 48.806 157.099 47.883C157.099 47.168 157.658 46.778 158.347 46.531V46.479C157.996 46.388 157.697 46.102 157.697 45.686C157.697 45.283 157.931 44.984 158.386 44.62C157.905 44.295 157.58 43.775 157.58 43.034V42.956C157.58 41.656 158.594 40.902 159.972 40.902C160.284 40.902 160.57 40.941 160.843 41.006H163.001V41.63H161.753C162.117 41.942 162.312 42.371 162.312 42.93V42.995C162.312 44.36 161.285 45.036 159.959 45.036C159.543 45.036 159.153 44.971 158.815 44.841C158.633 45.01 158.477 45.179 158.477 45.413C158.477 45.777 158.711 45.946 159.153 45.946H160.973C162.117 45.946 162.975 46.284 162.975 47.467C162.975 48.533 162.091 49.404 159.946 49.404ZM159.92 48.741C161.532 48.741 162.117 48.286 162.117 47.584C162.117 46.869 161.714 46.7 160.843 46.7H158.958C158.399 46.882 157.97 47.168 157.97 47.766C157.97 48.403 158.503 48.741 159.92 48.741ZM159.959 44.412C160.921 44.412 161.493 43.944 161.493 43.034V42.917C161.493 41.968 160.882 41.539 159.959 41.539C159.01 41.539 158.412 42.033 158.412 42.891V43.008C158.412 43.944 159.036 44.412 159.959 44.412ZM164.211 47.454V41.045H165.03V47.454H164.211ZM164.198 39.706V38.809H165.043V39.706H164.198ZM166.953 47.454V41.045H167.733V41.617H167.785C168.422 41.201 169.28 40.928 170.086 40.928C171.308 40.928 171.932 41.422 171.932 42.644V47.454H171.113V42.826C171.113 41.968 170.775 41.63 169.735 41.63C169.072 41.63 168.344 41.851 167.772 42.176V47.454H166.953ZM175.993 49.404C174.017 49.404 173.146 48.806 173.146 47.883C173.146 47.168 173.705 46.778 174.394 46.531V46.479C174.043 46.388 173.744 46.102 173.744 45.686C173.744 45.283 173.978 44.984 174.433 44.62C173.952 44.295 173.627 43.775 173.627 43.034V42.956C173.627 41.656 174.641 40.902 176.019 40.902C176.331 40.902 176.617 40.941 176.89 41.006H179.048V41.63H177.8C178.164 41.942 178.359 42.371 178.359 42.93V42.995C178.359 44.36 177.332 45.036 176.006 45.036C175.59 45.036 175.2 44.971 174.862 44.841C174.68 45.01 174.524 45.179 174.524 45.413C174.524 45.777 174.758 45.946 175.2 45.946H177.02C178.164 45.946 179.022 46.284 179.022 47.467C179.022 48.533 178.138 49.404 175.993 49.404ZM175.967 48.741C177.579 48.741 178.164 48.286 178.164 47.584C178.164 46.869 177.761 46.7 176.89 46.7H175.005C174.446 46.882 174.017 47.168 174.017 47.766C174.017 48.403 174.55 48.741 175.967 48.741ZM176.006 44.412C176.968 44.412 177.54 43.944 177.54 43.034V42.917C177.54 41.968 176.929 41.539 176.006 41.539C175.057 41.539 174.459 42.033 174.459 42.891V43.008C174.459 43.944 175.083 44.412 176.006 44.412ZM3.458 63.558C1.599 63.558 0.533 62.44 0.533 60.347V60.178C0.533 57.903 1.846 56.928 3.497 56.928C4.329 56.928 4.81 57.071 5.265 57.357V58.033C4.719 57.773 4.277 57.63 3.445 57.63C2.223 57.63 1.378 58.423 1.378 60.048V60.334C1.378 62.011 2.093 62.856 3.549 62.856C4.433 62.856 4.992 62.583 5.343 62.388V63.051C4.927 63.311 4.381 63.558 3.458 63.558ZM6.75076 63.454V54.146H7.56976V57.604H7.62176C8.24576 57.188 9.07776 56.941 9.88376 56.941C11.1058 56.941 11.7298 57.435 11.7298 58.657V63.454H10.9108V58.826C10.9108 57.968 10.5728 57.63 9.53276 57.63C8.86976 57.63 8.14176 57.864 7.56976 58.176V63.454H6.75076ZM13.5935 63.454V57.032H14.3735V57.773H14.4255C14.8025 57.357 15.5175 56.954 16.2715 56.954C16.4145 56.954 16.5835 56.967 16.6615 56.993V57.747C16.5055 57.721 16.3235 57.708 16.2065 57.708C15.5305 57.708 14.8675 57.981 14.4125 58.358V63.454H13.5935ZM20.4304 63.558C18.6754 63.558 17.5574 62.427 17.5574 60.36V60.178C17.5574 58.098 18.7534 56.928 20.4434 56.928C22.2114 56.928 23.3294 58.059 23.3294 60.139V60.308C23.3294 62.375 22.1334 63.558 20.4304 63.558ZM20.4564 62.882C21.6784 62.882 22.4844 62.037 22.4844 60.386V60.113C22.4844 58.254 21.6004 57.591 20.4304 57.591C19.1954 57.591 18.4024 58.475 18.4024 60.087V60.386C18.4024 62.219 19.2994 62.882 20.4564 62.882ZM24.8162 63.454V57.045H25.5962V57.617H25.6482C26.2852 57.201 27.1432 56.928 27.9492 56.928C29.1712 56.928 29.7952 57.422 29.7952 58.644V63.454H28.9762V58.826C28.9762 57.968 28.6382 57.63 27.5982 57.63C26.9352 57.63 26.2072 57.851 25.6352 58.176V63.454H24.8162ZM31.685 63.454V57.045H32.504V63.454H31.685ZM31.672 55.706V54.809H32.517V55.706H31.672ZM36.9355 63.558C35.0765 63.558 34.0105 62.44 34.0105 60.347V60.178C34.0105 57.903 35.3235 56.928 36.9745 56.928C37.8065 56.928 38.2875 57.071 38.7425 57.357V58.033C38.1965 57.773 37.7545 57.63 36.9225 57.63C35.7005 57.63 34.8555 58.423 34.8555 60.048V60.334C34.8555 62.011 35.5705 62.856 37.0265 62.856C37.9105 62.856 38.4695 62.583 38.8205 62.388V63.051C38.4045 63.311 37.8585 63.558 36.9355 63.558ZM46.1523 63.558C44.2933 63.558 43.2273 62.44 43.2273 60.347V60.178C43.2273 57.903 44.5403 56.928 46.1913 56.928C47.0233 56.928 47.5043 57.071 47.9593 57.357V58.033C47.4133 57.773 46.9713 57.63 46.1393 57.63C44.9173 57.63 44.0723 58.423 44.0723 60.048V60.334C44.0723 62.011 44.7873 62.856 46.2433 62.856C47.1273 62.856 47.6863 62.583 48.0373 62.388V63.051C47.6213 63.311 47.0753 63.558 46.1523 63.558ZM51.9021 63.558C50.1471 63.558 49.0291 62.427 49.0291 60.36V60.178C49.0291 58.098 50.2251 56.928 51.9151 56.928C53.6831 56.928 54.8011 58.059 54.8011 60.139V60.308C54.8011 62.375 53.6051 63.558 51.9021 63.558ZM51.9281 62.882C53.1501 62.882 53.9561 62.037 53.9561 60.386V60.113C53.9561 58.254 53.0721 57.591 51.9021 57.591C50.6671 57.591 49.8741 58.475 49.8741 60.087V60.386C49.8741 62.219 50.7711 62.882 51.9281 62.882ZM56.2879 63.454V57.045H57.0679V57.617H57.1199C57.7569 57.201 58.6149 56.928 59.4209 56.928C60.6429 56.928 61.2669 57.422 61.2669 58.644V63.454H60.4479V58.826C60.4479 57.968 60.1099 57.63 59.0699 57.63C58.4069 57.63 57.6789 57.851 57.1069 58.176V63.454H56.2879ZM65.3926 63.558C64.0796 63.558 62.7536 62.765 62.7536 60.399V60.23C62.7536 57.929 63.9366 56.928 65.5876 56.928C66.4196 56.928 66.9786 57.162 67.3426 57.396V54.146H68.1616V63.454H67.4726L67.3946 62.895H67.3426C66.9136 63.285 66.3026 63.558 65.3926 63.558ZM65.6266 62.895C66.4326 62.895 66.9916 62.596 67.3426 62.284V58.085C67.0176 57.825 66.3936 57.63 65.7176 57.63C64.4176 57.63 63.5986 58.306 63.5986 60.139V60.373C63.5986 62.245 64.4306 62.895 65.6266 62.895ZM70.0883 63.454V57.045H70.9073V63.454H70.0883ZM70.0753 55.706V54.809H70.9203V55.706H70.0753ZM74.8059 63.519C73.8179 63.519 73.2069 63.103 73.2069 62.063V57.734H72.2709V57.045H73.2069V55.524H74.0259V57.045H75.7289V57.734H74.0259V61.946C74.0259 62.583 74.2339 62.856 75.0139 62.856C75.2869 62.856 75.6119 62.804 75.8459 62.726V63.272C75.6249 63.402 75.3259 63.519 74.8059 63.519ZM77.2865 63.454V57.045H78.1055V63.454H77.2865ZM77.2735 55.706V54.809H78.1185V55.706H77.2735ZM82.4851 63.558C80.7301 63.558 79.6121 62.427 79.6121 60.36V60.178C79.6121 58.098 80.8081 56.928 82.4981 56.928C84.2661 56.928 85.3841 58.059 85.3841 60.139V60.308C85.3841 62.375 84.1881 63.558 82.4851 63.558ZM82.5111 62.882C83.7331 62.882 84.5391 62.037 84.5391 60.386V60.113C84.5391 58.254 83.6551 57.591 82.4851 57.591C81.2501 57.591 80.4571 58.475 80.4571 60.087V60.386C80.4571 62.219 81.3541 62.882 82.5111 62.882ZM86.8709 63.454V57.045H87.6509V57.617H87.7029C88.3399 57.201 89.1979 56.928 90.0039 56.928C91.2259 56.928 91.8499 57.422 91.8499 58.644V63.454H91.0309V58.826C91.0309 57.968 90.6929 57.63 89.6529 57.63C88.9899 57.63 88.2619 57.851 87.6899 58.176V63.454H86.8709ZM95.3126 63.545C94.4676 63.545 93.7656 63.363 93.2716 63.09V62.44C93.8046 62.661 94.2986 62.856 95.2216 62.856C96.3136 62.856 96.7296 62.427 96.7296 61.79C96.7296 61.114 96.4046 60.841 95.5336 60.607L94.8836 60.412C93.9216 60.165 93.3236 59.736 93.3236 58.67C93.3236 57.643 94.0256 56.928 95.4686 56.928C96.3006 56.928 96.8336 57.123 97.1846 57.305V57.968C96.8206 57.786 96.1836 57.617 95.5076 57.617C94.5716 57.617 94.1036 57.968 94.1036 58.605C94.1036 59.216 94.4026 59.476 95.1436 59.697L95.8326 59.879C97.0156 60.217 97.5486 60.607 97.5486 61.725C97.5486 62.856 96.7426 63.545 95.3126 63.545ZM102.474 63.454V57.045H103.293V63.454H102.474ZM102.461 55.706V54.809H103.306V55.706H102.461ZM106.815 63.545C105.97 63.545 105.268 63.363 104.774 63.09V62.44C105.307 62.661 105.801 62.856 106.724 62.856C107.816 62.856 108.232 62.427 108.232 61.79C108.232 61.114 107.907 60.841 107.036 60.607L106.386 60.412C105.424 60.165 104.826 59.736 104.826 58.67C104.826 57.643 105.528 56.928 106.971 56.928C107.803 56.928 108.336 57.123 108.687 57.305V57.968C108.323 57.786 107.686 57.617 107.01 57.617C106.074 57.617 105.606 57.968 105.606 58.605C105.606 59.216 105.905 59.476 106.646 59.697L107.335 59.879C108.518 60.217 109.051 60.607 109.051 61.725C109.051 62.856 108.245 63.545 106.815 63.545ZM115.497 63.558C114.34 63.558 113.521 62.934 113.521 61.79C113.521 60.672 114.21 60.087 115.445 59.944L117.265 59.736V58.982C117.265 57.929 116.797 57.63 115.653 57.63C115.016 57.63 114.509 57.747 114.067 57.851V57.266C114.626 57.045 115.237 56.928 115.952 56.928C117.33 56.928 118.084 57.487 118.084 58.787V63.454H117.421L117.343 62.882H117.291C116.966 63.233 116.394 63.558 115.497 63.558ZM115.705 62.908C116.368 62.908 116.966 62.674 117.265 62.401V60.347L115.666 60.529C114.782 60.62 114.366 60.984 114.366 61.764C114.366 62.505 114.886 62.908 115.705 62.908ZM123.37 65.378V57.045H124.15V57.565H124.202C124.644 57.227 125.32 56.928 126.191 56.928C127.608 56.928 128.791 57.695 128.791 60.113V60.256C128.791 62.57 127.66 63.558 125.892 63.558C125.138 63.558 124.553 63.35 124.176 63.116V65.378H123.37ZM125.814 62.895C127.153 62.895 127.933 62.18 127.933 60.386V60.152C127.933 58.189 127.218 57.63 125.983 57.63C125.177 57.63 124.54 57.916 124.176 58.163V62.427C124.527 62.661 125.125 62.895 125.814 62.895ZM132.915 63.558C130.9 63.558 129.886 62.362 129.886 60.321V60.165C129.886 57.929 131.186 56.928 132.681 56.928C134.423 56.928 135.229 57.968 135.229 59.918V60.386H130.731C130.757 62.141 131.537 62.856 133.045 62.856C133.903 62.856 134.501 62.661 135.034 62.388V63.012C134.644 63.272 133.929 63.558 132.915 63.558ZM132.655 57.591C131.732 57.591 130.848 58.15 130.744 59.736H134.371C134.371 58.267 133.812 57.591 132.655 57.591ZM136.725 63.454V57.032H137.505V57.773H137.557C137.934 57.357 138.649 56.954 139.403 56.954C139.546 56.954 139.715 56.967 139.793 56.993V57.747C139.637 57.721 139.455 57.708 139.338 57.708C138.662 57.708 137.999 57.981 137.544 58.358V63.454H136.725ZM143.013 63.454L140.595 57.032H141.479L143.429 62.388H143.455L145.418 57.032H146.237L143.832 63.454H143.013ZM148.86 63.558C147.703 63.558 146.884 62.934 146.884 61.79C146.884 60.672 147.573 60.087 148.808 59.944L150.628 59.736V58.982C150.628 57.929 150.16 57.63 149.016 57.63C148.379 57.63 147.872 57.747 147.43 57.851V57.266C147.989 57.045 148.6 56.928 149.315 56.928C150.693 56.928 151.447 57.487 151.447 58.787V63.454H150.784L150.706 62.882H150.654C150.329 63.233 149.757 63.558 148.86 63.558ZM149.068 62.908C149.731 62.908 150.329 62.674 150.628 62.401V60.347L149.029 60.529C148.145 60.62 147.729 60.984 147.729 61.764C147.729 62.505 148.249 62.908 149.068 62.908ZM154.917 63.545C154.072 63.545 153.37 63.363 152.876 63.09V62.44C153.409 62.661 153.903 62.856 154.826 62.856C155.918 62.856 156.334 62.427 156.334 61.79C156.334 61.114 156.009 60.841 155.138 60.607L154.488 60.412C153.526 60.165 152.928 59.736 152.928 58.67C152.928 57.643 153.63 56.928 155.073 56.928C155.905 56.928 156.438 57.123 156.789 57.305V57.968C156.425 57.786 155.788 57.617 155.112 57.617C154.176 57.617 153.708 57.968 153.708 58.605C153.708 59.216 154.007 59.476 154.748 59.697L155.437 59.879C156.62 60.217 157.153 60.607 157.153 61.725C157.153 62.856 156.347 63.545 154.917 63.545ZM158.663 63.454V57.045H159.482V63.454H158.663ZM158.65 55.706V54.809H159.495V55.706H158.65ZM163.186 63.454L160.768 57.032H161.652L163.602 62.388H163.628L165.591 57.032H166.41L164.005 63.454H163.186ZM170.29 63.558C168.275 63.558 167.261 62.362 167.261 60.321V60.165C167.261 57.929 168.561 56.928 170.056 56.928C171.798 56.928 172.604 57.968 172.604 59.918V60.386H168.106C168.132 62.141 168.912 62.856 170.42 62.856C171.278 62.856 171.876 62.661 172.409 62.388V63.012C172.019 63.272 171.304 63.558 170.29 63.558ZM170.03 57.591C169.107 57.591 168.223 58.15 168.119 59.736H171.746C171.746 58.267 171.187 57.591 170.03 57.591ZM0.949 79.454V73.045H1.729V73.617H1.781C2.418 73.201 3.276 72.928 4.082 72.928C5.304 72.928 5.928 73.422 5.928 74.644V79.454H5.109V74.826C5.109 73.968 4.771 73.63 3.731 73.63C3.068 73.63 2.34 73.851 1.768 74.176V79.454H0.949ZM9.33877 79.558C8.18177 79.558 7.36277 78.934 7.36277 77.79C7.36277 76.672 8.05177 76.087 9.28677 75.944L11.1068 75.736V74.982C11.1068 73.929 10.6388 73.63 9.49477 73.63C8.85777 73.63 8.35077 73.747 7.90877 73.851V73.266C8.46777 73.045 9.07877 72.928 9.79377 72.928C11.1718 72.928 11.9258 73.487 11.9258 74.787V79.454H11.2628L11.1848 78.882H11.1328C10.8078 79.233 10.2358 79.558 9.33877 79.558ZM9.54677 78.908C10.2098 78.908 10.8078 78.674 11.1068 78.401V76.347L9.50777 76.529C8.62377 76.62 8.20777 76.984 8.20777 77.764C8.20777 78.505 8.72777 78.908 9.54677 78.908ZM13.7967 79.454V73.032H14.5767V73.773H14.6287C15.0057 73.357 15.7207 72.954 16.4747 72.954C16.6177 72.954 16.7867 72.967 16.8647 72.993V73.747C16.7087 73.721 16.5267 73.708 16.4097 73.708C15.7337 73.708 15.0707 73.981 14.6157 74.358V79.454H13.7967ZM18.1765 79.454V73.032H18.9565V73.773H19.0085C19.3855 73.357 20.1005 72.954 20.8545 72.954C20.9975 72.954 21.1665 72.967 21.2445 72.993V73.747C21.0885 73.721 20.9065 73.708 20.7895 73.708C20.1135 73.708 19.4505 73.981 18.9955 74.358V79.454H18.1765ZM23.9384 79.558C22.7814 79.558 21.9624 78.934 21.9624 77.79C21.9624 76.672 22.6514 76.087 23.8864 75.944L25.7064 75.736V74.982C25.7064 73.929 25.2384 73.63 24.0944 73.63C23.4574 73.63 22.9504 73.747 22.5084 73.851V73.266C23.0674 73.045 23.6784 72.928 24.3934 72.928C25.7714 72.928 26.5254 73.487 26.5254 74.787V79.454H25.8624L25.7844 78.882H25.7324C25.4074 79.233 24.8354 79.558 23.9384 79.558ZM24.1464 78.908C24.8094 78.908 25.4074 78.674 25.7064 78.401V76.347L24.1074 76.529C23.2234 76.62 22.8074 76.984 22.8074 77.764C22.8074 78.505 23.3274 78.908 24.1464 78.908ZM30.3723 79.519C29.3843 79.519 28.7733 79.103 28.7733 78.063V73.734H27.8373V73.045H28.7733V71.524H29.5923V73.045H31.2953V73.734H29.5923V77.946C29.5923 78.583 29.8003 78.856 30.5803 78.856C30.8533 78.856 31.1783 78.804 31.4123 78.726V79.272C31.1913 79.402 30.8923 79.519 30.3723 79.519ZM32.8529 79.454V73.045H33.6719V79.454H32.8529ZM32.8399 71.706V70.809H33.6849V71.706H32.8399ZM37.3755 79.454L34.9575 73.032H35.8415L37.7915 78.388H37.8175L39.7805 73.032H40.5995L38.1945 79.454H37.3755ZM44.479 79.558C42.464 79.558 41.45 78.362 41.45 76.321V76.165C41.45 73.929 42.75 72.928 44.245 72.928C45.987 72.928 46.793 73.968 46.793 75.918V76.386H42.295C42.321 78.141 43.101 78.856 44.609 78.856C45.467 78.856 46.065 78.661 46.598 78.388V79.012C46.208 79.272 45.493 79.558 44.479 79.558ZM44.219 73.591C43.296 73.591 42.412 74.15 42.308 75.736H45.935C45.935 74.267 45.376 73.591 44.219 73.591ZM47.8998 79.714V78.622H48.9788V79.714H47.8998ZM58.1387 79.597C55.6427 79.597 54.1347 78.193 54.1347 75.242V75.034C54.1347 71.862 55.9157 70.588 58.1777 70.588C59.2957 70.588 59.9327 70.848 60.4267 71.095V71.823C59.9067 71.589 59.2697 71.329 58.1257 71.329C55.9157 71.329 55.0447 72.902 55.0447 74.917V75.229C55.0447 77.413 55.7727 78.856 58.1517 78.856C58.8277 78.856 59.4517 78.765 59.9197 78.596V76.035H57.9827V75.333H60.7517V79.116C60.0627 79.376 59.1917 79.597 58.1387 79.597ZM64.1444 79.558C62.9874 79.558 62.1684 78.934 62.1684 77.79C62.1684 76.672 62.8574 76.087 64.0924 75.944L65.9124 75.736V74.982C65.9124 73.929 65.4444 73.63 64.3004 73.63C63.6634 73.63 63.1564 73.747 62.7144 73.851V73.266C63.2734 73.045 63.8844 72.928 64.5994 72.928C65.9774 72.928 66.7314 73.487 66.7314 74.787V79.454H66.0684L65.9904 78.882H65.9384C65.6134 79.233 65.0414 79.558 64.1444 79.558ZM64.3524 78.908C65.0154 78.908 65.6134 78.674 65.9124 78.401V76.347L64.3134 76.529C63.4294 76.62 63.0134 76.984 63.0134 77.764C63.0134 78.505 63.5334 78.908 64.3524 78.908ZM68.6283 79.454V73.045H69.4473V79.454H68.6283ZM68.6153 71.706V70.809H69.4603V71.706H68.6153ZM71.3699 79.454V73.045H72.1499V73.617H72.2019C72.8389 73.201 73.6969 72.928 74.5029 72.928C75.7249 72.928 76.3489 73.422 76.3489 74.644V79.454H75.5299V74.826C75.5299 73.968 75.1919 73.63 74.1519 73.63C73.4889 73.63 72.7609 73.851 72.1889 74.176V79.454H71.3699ZM78.2387 79.454V73.045H79.0577V79.454H78.2387ZM78.2257 71.706V70.809H79.0707V71.706H78.2257ZM80.9803 79.454V73.045H81.7603V73.617H81.8123C82.4493 73.201 83.3073 72.928 84.1133 72.928C85.3353 72.928 85.9593 73.422 85.9593 74.644V79.454H85.1403V74.826C85.1403 73.968 84.8023 73.63 83.7623 73.63C83.0993 73.63 82.3713 73.851 81.7993 74.176V79.454H80.9803ZM90.02 81.404C88.044 81.404 87.173 80.806 87.173 79.883C87.173 79.168 87.732 78.778 88.421 78.531V78.479C88.07 78.388 87.771 78.102 87.771 77.686C87.771 77.283 88.005 76.984 88.46 76.62C87.979 76.295 87.654 75.775 87.654 75.034V74.956C87.654 73.656 88.668 72.902 90.046 72.902C90.358 72.902 90.644 72.941 90.917 73.006H93.075V73.63H91.827C92.191 73.942 92.386 74.371 92.386 74.93V74.995C92.386 76.36 91.359 77.036 90.033 77.036C89.617 77.036 89.227 76.971 88.889 76.841C88.707 77.01 88.551 77.179 88.551 77.413C88.551 77.777 88.785 77.946 89.227 77.946H91.047C92.191 77.946 93.049 78.284 93.049 79.467C93.049 80.533 92.165 81.404 90.02 81.404ZM89.994 80.741C91.606 80.741 92.191 80.286 92.191 79.584C92.191 78.869 91.788 78.7 90.917 78.7H89.032C88.473 78.882 88.044 79.168 88.044 79.766C88.044 80.403 88.577 80.741 89.994 80.741ZM90.033 76.412C90.995 76.412 91.567 75.944 91.567 75.034V74.917C91.567 73.968 90.956 73.539 90.033 73.539C89.084 73.539 88.486 74.033 88.486 74.891V75.008C88.486 75.944 89.11 76.412 90.033 76.412ZM99.9366 79.558C98.6236 79.558 97.2976 78.765 97.2976 76.399V76.23C97.2976 73.929 98.4806 72.928 100.132 72.928C100.964 72.928 101.523 73.162 101.887 73.396V70.146H102.706V79.454H102.017L101.939 78.895H101.887C101.458 79.285 100.847 79.558 99.9366 79.558ZM100.171 78.895C100.977 78.895 101.536 78.596 101.887 78.284V74.085C101.562 73.825 100.938 73.63 100.262 73.63C98.9616 73.63 98.1426 74.306 98.1426 76.139V76.373C98.1426 78.245 98.9746 78.895 100.171 78.895ZM107.219 79.558C105.204 79.558 104.19 78.362 104.19 76.321V76.165C104.19 73.929 105.49 72.928 106.985 72.928C108.727 72.928 109.533 73.968 109.533 75.918V76.386H105.035C105.061 78.141 105.841 78.856 107.349 78.856C108.207 78.856 108.805 78.661 109.338 78.388V79.012C108.948 79.272 108.233 79.558 107.219 79.558ZM106.959 73.591C106.036 73.591 105.152 74.15 105.048 75.736H108.675C108.675 74.267 108.116 73.591 106.959 73.591ZM113.643 79.558C111.628 79.558 110.614 78.362 110.614 76.321V76.165C110.614 73.929 111.914 72.928 113.409 72.928C115.151 72.928 115.957 73.968 115.957 75.918V76.386H111.459C111.485 78.141 112.265 78.856 113.773 78.856C114.631 78.856 115.229 78.661 115.762 78.388V79.012C115.372 79.272 114.657 79.558 113.643 79.558ZM113.383 73.591C112.46 73.591 111.576 74.15 111.472 75.736H115.099C115.099 74.267 114.54 73.591 113.383 73.591ZM117.454 81.378V73.045H118.234V73.565H118.286C118.728 73.227 119.404 72.928 120.275 72.928C121.692 72.928 122.875 73.695 122.875 76.113V76.256C122.875 78.57 121.744 79.558 119.976 79.558C119.222 79.558 118.637 79.35 118.26 79.116V81.378H117.454ZM119.898 78.895C121.237 78.895 122.017 78.18 122.017 76.386V76.152C122.017 74.189 121.302 73.63 120.067 73.63C119.261 73.63 118.624 73.916 118.26 74.163V78.427C118.611 78.661 119.209 78.895 119.898 78.895ZM126.999 79.558C124.984 79.558 123.97 78.362 123.97 76.321V76.165C123.97 73.929 125.27 72.928 126.765 72.928C128.507 72.928 129.313 73.968 129.313 75.918V76.386H124.815C124.841 78.141 125.621 78.856 127.129 78.856C127.987 78.856 128.585 78.661 129.118 78.388V79.012C128.728 79.272 128.013 79.558 126.999 79.558ZM126.739 73.591C125.816 73.591 124.932 74.15 124.828 75.736H128.455C128.455 74.267 127.896 73.591 126.739 73.591ZM130.809 79.454V73.032H131.589V73.773H131.641C132.018 73.357 132.733 72.954 133.487 72.954C133.63 72.954 133.799 72.967 133.877 72.993V73.747C133.721 73.721 133.539 73.708 133.422 73.708C132.746 73.708 132.083 73.981 131.628 74.358V79.454H130.809ZM138.63 79.454V73.045H139.449V79.454H138.63ZM138.617 71.706V70.809H139.462V71.706H138.617ZM141.372 79.454V73.045H142.152V73.617H142.204C142.841 73.201 143.699 72.928 144.505 72.928C145.727 72.928 146.351 73.422 146.351 74.644V79.454H145.532V74.826C145.532 73.968 145.194 73.63 144.154 73.63C143.491 73.63 142.763 73.851 142.191 74.176V79.454H141.372ZM149.814 79.545C148.969 79.545 148.267 79.363 147.773 79.09V78.44C148.306 78.661 148.8 78.856 149.723 78.856C150.815 78.856 151.231 78.427 151.231 77.79C151.231 77.114 150.906 76.841 150.035 76.607L149.385 76.412C148.423 76.165 147.825 75.736 147.825 74.67C147.825 73.643 148.527 72.928 149.97 72.928C150.802 72.928 151.335 73.123 151.686 73.305V73.968C151.322 73.786 150.685 73.617 150.009 73.617C149.073 73.617 148.605 73.968 148.605 74.605C148.605 75.216 148.904 75.476 149.645 75.697L150.334 75.879C151.517 76.217 152.05 76.607 152.05 77.725C152.05 78.856 151.244 79.545 149.814 79.545ZM153.56 79.454V73.045H154.379V79.454H153.56ZM153.547 71.706V70.809H154.392V71.706H153.547ZM158.499 81.404C156.523 81.404 155.652 80.806 155.652 79.883C155.652 79.168 156.211 78.778 156.9 78.531V78.479C156.549 78.388 156.25 78.102 156.25 77.686C156.25 77.283 156.484 76.984 156.939 76.62C156.458 76.295 156.133 75.775 156.133 75.034V74.956C156.133 73.656 157.147 72.902 158.525 72.902C158.837 72.902 159.123 72.941 159.396 73.006H161.554V73.63H160.306C160.67 73.942 160.865 74.371 160.865 74.93V74.995C160.865 76.36 159.838 77.036 158.512 77.036C158.096 77.036 157.706 76.971 157.368 76.841C157.186 77.01 157.03 77.179 157.03 77.413C157.03 77.777 157.264 77.946 157.706 77.946H159.526C160.67 77.946 161.528 78.284 161.528 79.467C161.528 80.533 160.644 81.404 158.499 81.404ZM158.473 80.741C160.085 80.741 160.67 80.286 160.67 79.584C160.67 78.869 160.267 78.7 159.396 78.7H157.511C156.952 78.882 156.523 79.168 156.523 79.766C156.523 80.403 157.056 80.741 158.473 80.741ZM158.512 76.412C159.474 76.412 160.046 75.944 160.046 75.034V74.917C160.046 73.968 159.435 73.539 158.512 73.539C157.563 73.539 156.965 74.033 156.965 74.891V75.008C156.965 75.944 157.589 76.412 158.512 76.412ZM162.738 79.454V70.146H163.557V73.604H163.609C164.233 73.188 165.065 72.941 165.871 72.941C167.093 72.941 167.717 73.435 167.717 74.657V79.454H166.898V74.826C166.898 73.968 166.56 73.63 165.52 73.63C164.857 73.63 164.129 73.864 163.557 74.176V79.454H162.738ZM171.557 79.519C170.569 79.519 169.958 79.103 169.958 78.063V73.734H169.022V73.045H169.958V71.524H170.777V73.045H172.48V73.734H170.777V77.946C170.777 78.583 170.985 78.856 171.765 78.856C172.038 78.856 172.363 78.804 172.597 78.726V79.272C172.376 79.402 172.077 79.519 171.557 79.519ZM175.611 79.545C174.766 79.545 174.064 79.363 173.57 79.09V78.44C174.103 78.661 174.597 78.856 175.52 78.856C176.612 78.856 177.028 78.427 177.028 77.79C177.028 77.114 176.703 76.841 175.832 76.607L175.182 76.412C174.22 76.165 173.622 75.736 173.622 74.67C173.622 73.643 174.324 72.928 175.767 72.928C176.599 72.928 177.132 73.123 177.483 73.305V73.968C177.119 73.786 176.482 73.617 175.806 73.617C174.87 73.617 174.402 73.968 174.402 74.605C174.402 75.216 174.701 75.476 175.442 75.697L176.131 75.879C177.314 76.217 177.847 76.607 177.847 77.725C177.847 78.856 177.041 79.545 175.611 79.545ZM0.975 95.454V89.045H1.794V95.454H0.975ZM0.962 87.706V86.809H1.807V87.706H0.962ZM3.71658 95.454V89.045H4.49658V89.617H4.54858C5.18558 89.201 6.04358 88.928 6.84958 88.928C8.07158 88.928 8.69558 89.422 8.69558 90.644V95.454H7.87658V90.826C7.87658 89.968 7.53858 89.63 6.49858 89.63C5.83558 89.63 5.10758 89.851 4.53558 90.176V95.454H3.71658ZM12.5354 95.519C11.5474 95.519 10.9364 95.103 10.9364 94.063V89.734H10.0004V89.045H10.9364V87.524H11.7554V89.045H13.4584V89.734H11.7554V93.946C11.7554 94.583 11.9634 94.856 12.7434 94.856C13.0164 94.856 13.3414 94.804 13.5754 94.726V95.272C13.3544 95.402 13.0554 95.519 12.5354 95.519ZM17.447 95.558C15.692 95.558 14.574 94.427 14.574 92.36V92.178C14.574 90.098 15.77 88.928 17.46 88.928C19.228 88.928 20.346 90.059 20.346 92.139V92.308C20.346 94.375 19.15 95.558 17.447 95.558ZM17.473 94.882C18.695 94.882 19.501 94.037 19.501 92.386V92.113C19.501 90.254 18.617 89.591 17.447 89.591C16.212 89.591 15.419 90.475 15.419 92.087V92.386C15.419 94.219 16.316 94.882 17.473 94.882ZM27.7568 95.558C25.8978 95.558 24.8318 94.44 24.8318 92.347V92.178C24.8318 89.903 26.1448 88.928 27.7958 88.928C28.6278 88.928 29.1088 89.071 29.5638 89.357V90.033C29.0178 89.773 28.5758 89.63 27.7438 89.63C26.5218 89.63 25.6768 90.423 25.6768 92.048V92.334C25.6768 94.011 26.3918 94.856 27.8478 94.856C28.7318 94.856 29.2908 94.583 29.6418 94.388V95.051C29.2258 95.311 28.6798 95.558 27.7568 95.558ZM32.5966 95.558C31.4396 95.558 30.6206 94.934 30.6206 93.79C30.6206 92.672 31.3096 92.087 32.5446 91.944L34.3646 91.736V90.982C34.3646 89.929 33.8966 89.63 32.7526 89.63C32.1156 89.63 31.6086 89.747 31.1666 89.851V89.266C31.7256 89.045 32.3366 88.928 33.0516 88.928C34.4296 88.928 35.1836 89.487 35.1836 90.787V95.454H34.5206L34.4426 94.882H34.3906C34.0656 95.233 33.4936 95.558 32.5966 95.558ZM32.8046 94.908C33.4676 94.908 34.0656 94.674 34.3646 94.401V92.347L32.7656 92.529C31.8816 92.62 31.4656 92.984 31.4656 93.764C31.4656 94.505 31.9856 94.908 32.8046 94.908ZM37.0545 95.454V89.032H37.8345V89.773H37.8865C38.2635 89.357 38.9785 88.954 39.7325 88.954C39.8755 88.954 40.0445 88.967 40.1225 88.993V89.747C39.9665 89.721 39.7845 89.708 39.6675 89.708C38.9915 89.708 38.3285 89.981 37.8735 90.358V95.454H37.0545ZM44.0474 95.558C42.0324 95.558 41.0184 94.362 41.0184 92.321V92.165C41.0184 89.929 42.3184 88.928 43.8134 88.928C45.5554 88.928 46.3614 89.968 46.3614 91.918V92.386H41.8634C41.8894 94.141 42.6694 94.856 44.1774 94.856C45.0354 94.856 45.6334 94.661 46.1664 94.388V95.012C45.7764 95.272 45.0614 95.558 44.0474 95.558ZM43.7874 89.591C42.8644 89.591 41.9804 90.15 41.8764 91.736H45.5034C45.5034 90.267 44.9444 89.591 43.7874 89.591ZM50.0552 97.404C48.0792 97.404 47.2082 96.806 47.2082 95.883C47.2082 95.168 47.7672 94.778 48.4562 94.531V94.479C48.1052 94.388 47.8062 94.102 47.8062 93.686C47.8062 93.283 48.0402 92.984 48.4952 92.62C48.0142 92.295 47.6892 91.775 47.6892 91.034V90.956C47.6892 89.656 48.7032 88.902 50.0812 88.902C50.3932 88.902 50.6792 88.941 50.9522 89.006H53.1102V89.63H51.8622C52.2262 89.942 52.4212 90.371 52.4212 90.93V90.995C52.4212 92.36 51.3942 93.036 50.0682 93.036C49.6522 93.036 49.2622 92.971 48.9242 92.841C48.7422 93.01 48.5862 93.179 48.5862 93.413C48.5862 93.777 48.8202 93.946 49.2622 93.946H51.0822C52.2262 93.946 53.0842 94.284 53.0842 95.467C53.0842 96.533 52.2002 97.404 50.0552 97.404ZM50.0292 96.741C51.6412 96.741 52.2262 96.286 52.2262 95.584C52.2262 94.869 51.8232 94.7 50.9522 94.7H49.0672C48.5082 94.882 48.0792 95.168 48.0792 95.766C48.0792 96.403 48.6122 96.741 50.0292 96.741ZM50.0682 92.412C51.0302 92.412 51.6022 91.944 51.6022 91.034V90.917C51.6022 89.968 50.9912 89.539 50.0682 89.539C49.1192 89.539 48.5212 90.033 48.5212 90.891V91.008C48.5212 91.944 49.1452 92.412 50.0682 92.412ZM54.3207 95.454V89.045H55.1397V95.454H54.3207ZM54.3077 87.706V86.809H55.1527V87.706H54.3077ZM58.8433 95.454L56.4253 89.032H57.3093L59.2593 94.388H59.2853L61.2483 89.032H62.0673L59.6623 95.454H58.8433ZM63.3598 95.454V89.045H64.1788V95.454H63.3598ZM63.3468 87.706V86.809H64.1918V87.706H63.3468ZM66.1013 95.454V89.045H66.8813V89.617H66.9333C67.5703 89.201 68.4283 88.928 69.2343 88.928C70.4563 88.928 71.0803 89.422 71.0803 90.644V95.454H70.2613V90.826C70.2613 89.968 69.9233 89.63 68.8833 89.63C68.2203 89.63 67.4923 89.851 66.9203 90.176V95.454H66.1013ZM75.1411 97.404C73.1651 97.404 72.2941 96.806 72.2941 95.883C72.2941 95.168 72.8531 94.778 73.5421 94.531V94.479C73.1911 94.388 72.8921 94.102 72.8921 93.686C72.8921 93.283 73.1261 92.984 73.5811 92.62C73.1001 92.295 72.7751 91.775 72.7751 91.034V90.956C72.7751 89.656 73.7891 88.902 75.1671 88.902C75.4791 88.902 75.7651 88.941 76.0381 89.006H78.1961V89.63H76.9481C77.3121 89.942 77.5071 90.371 77.5071 90.93V90.995C77.5071 92.36 76.4801 93.036 75.1541 93.036C74.7381 93.036 74.3481 92.971 74.0101 92.841C73.8281 93.01 73.6721 93.179 73.6721 93.413C73.6721 93.777 73.9061 93.946 74.3481 93.946H76.1681C77.3121 93.946 78.1701 94.284 78.1701 95.467C78.1701 96.533 77.2861 97.404 75.1411 97.404ZM75.1151 96.741C76.7271 96.741 77.3121 96.286 77.3121 95.584C77.3121 94.869 76.9091 94.7 76.0381 94.7H74.1531C73.5941 94.882 73.1651 95.168 73.1651 95.766C73.1651 96.403 73.6981 96.741 75.1151 96.741ZM75.1541 92.412C76.1161 92.412 76.6881 91.944 76.6881 91.034V90.917C76.6881 89.968 76.0771 89.539 75.1541 89.539C74.2051 89.539 73.6071 90.033 73.6071 90.891V91.008C73.6071 91.944 74.2311 92.412 75.1541 92.412ZM85.4087 95.558C83.3937 95.558 82.3797 94.362 82.3797 92.321V92.165C82.3797 89.929 83.6797 88.928 85.1747 88.928C86.9167 88.928 87.7227 89.968 87.7227 91.918V92.386H83.2247C83.2507 94.141 84.0307 94.856 85.5387 94.856C86.3967 94.856 86.9947 94.661 87.5277 94.388V95.012C87.1377 95.272 86.4227 95.558 85.4087 95.558ZM85.1487 89.591C84.2257 89.591 83.3417 90.15 83.2377 91.736H86.8647C86.8647 90.267 86.3057 89.591 85.1487 89.591ZM89.2195 95.454V89.045H89.9995V89.617H90.0515C90.6885 89.201 91.5465 88.928 92.3525 88.928C93.5745 88.928 94.1985 89.422 94.1985 90.644V95.454H93.3795V90.826C93.3795 89.968 93.0415 89.63 92.0015 89.63C91.3385 89.63 90.6105 89.851 90.0385 90.176V95.454H89.2195ZM96.0623 95.454V86.146H96.8813V89.604H96.9333C97.5573 89.188 98.3893 88.941 99.1953 88.941C100.417 88.941 101.041 89.435 101.041 90.657V95.454H100.222V90.826C100.222 89.968 99.8843 89.63 98.8443 89.63C98.1813 89.63 97.4533 89.864 96.8813 90.176V95.454H96.0623ZM104.452 95.558C103.295 95.558 102.476 94.934 102.476 93.79C102.476 92.672 103.165 92.087 104.4 91.944L106.22 91.736V90.982C106.22 89.929 105.752 89.63 104.608 89.63C103.971 89.63 103.464 89.747 103.022 89.851V89.266C103.581 89.045 104.192 88.928 104.907 88.928C106.285 88.928 107.039 89.487 107.039 90.787V95.454H106.376L106.298 94.882H106.246C105.921 95.233 105.349 95.558 104.452 95.558ZM104.66 94.908C105.323 94.908 105.921 94.674 106.22 94.401V92.347L104.621 92.529C103.737 92.62 103.321 92.984 103.321 93.764C103.321 94.505 103.841 94.908 104.66 94.908ZM108.91 95.454V89.045H109.69V89.617H109.742C110.379 89.201 111.237 88.928 112.043 88.928C113.265 88.928 113.889 89.422 113.889 90.644V95.454H113.07V90.826C113.07 89.968 112.732 89.63 111.692 89.63C111.029 89.63 110.301 89.851 109.729 90.176V95.454H108.91ZM118.262 95.558C116.403 95.558 115.337 94.44 115.337 92.347V92.178C115.337 89.903 116.65 88.928 118.301 88.928C119.133 88.928 119.614 89.071 120.069 89.357V90.033C119.523 89.773 119.081 89.63 118.249 89.63C117.027 89.63 116.182 90.423 116.182 92.048V92.334C116.182 94.011 116.897 94.856 118.353 94.856C119.237 94.856 119.796 94.583 120.147 94.388V95.051C119.731 95.311 119.185 95.558 118.262 95.558ZM124.167 95.558C122.152 95.558 121.138 94.362 121.138 92.321V92.165C121.138 89.929 122.438 88.928 123.933 88.928C125.675 88.928 126.481 89.968 126.481 91.918V92.386H121.983C122.009 94.141 122.789 94.856 124.297 94.856C125.155 94.856 125.753 94.661 126.286 94.388V95.012C125.896 95.272 125.181 95.558 124.167 95.558ZM123.907 89.591C122.984 89.591 122.1 90.15 121.996 91.736H125.623C125.623 90.267 125.064 89.591 123.907 89.591ZM129.577 95.545C128.732 95.545 128.03 95.363 127.536 95.09V94.44C128.069 94.661 128.563 94.856 129.486 94.856C130.578 94.856 130.994 94.427 130.994 93.79C130.994 93.114 130.669 92.841 129.798 92.607L129.148 92.412C128.186 92.165 127.588 91.736 127.588 90.67C127.588 89.643 128.29 88.928 129.733 88.928C130.565 88.928 131.098 89.123 131.449 89.305V89.968C131.085 89.786 130.448 89.617 129.772 89.617C128.836 89.617 128.368 89.968 128.368 90.605C128.368 91.216 128.667 91.476 129.408 91.697L130.097 91.879C131.28 92.217 131.813 92.607 131.813 93.725C131.813 94.856 131.007 95.545 129.577 95.545ZM138.689 95.519C137.701 95.519 137.09 95.103 137.09 94.063V89.734H136.154V89.045H137.09V87.524H137.909V89.045H139.612V89.734H137.909V93.946C137.909 94.583 138.117 94.856 138.897 94.856C139.17 94.856 139.495 94.804 139.729 94.726V95.272C139.508 95.402 139.209 95.519 138.689 95.519ZM141.143 95.454V86.146H141.962V89.604H142.014C142.638 89.188 143.47 88.941 144.276 88.941C145.498 88.941 146.122 89.435 146.122 90.657V95.454H145.303V90.826C145.303 89.968 144.965 89.63 143.925 89.63C143.262 89.63 142.534 89.864 141.962 90.176V95.454H141.143ZM150.599 95.558C148.584 95.558 147.57 94.362 147.57 92.321V92.165C147.57 89.929 148.87 88.928 150.365 88.928C152.107 88.928 152.913 89.968 152.913 91.918V92.386H148.415C148.441 94.141 149.221 94.856 150.729 94.856C151.587 94.856 152.185 94.661 152.718 94.388V95.012C152.328 95.272 151.613 95.558 150.599 95.558ZM150.339 89.591C149.416 89.591 148.532 90.15 148.428 91.736H152.055C152.055 90.267 151.496 89.591 150.339 89.591ZM0.949 111.454V102.146H1.768V105.604H1.82C2.444 105.188 3.276 104.941 4.082 104.941C5.304 104.941 5.928 105.435 5.928 106.657V111.454H5.109V106.826C5.109 105.968 4.771 105.63 3.731 105.63C3.068 105.63 2.34 105.864 1.768 106.176V111.454H0.949ZM10.2488 111.558C8.49377 111.558 7.37577 110.427 7.37577 108.36V108.178C7.37577 106.098 8.57177 104.928 10.2618 104.928C12.0298 104.928 13.1478 106.059 13.1478 108.139V108.308C13.1478 110.375 11.9518 111.558 10.2488 111.558ZM10.2748 110.882C11.4968 110.882 12.3028 110.037 12.3028 108.386V108.113C12.3028 106.254 11.4188 105.591 10.2488 105.591C9.01377 105.591 8.22077 106.475 8.22077 108.087V108.386C8.22077 110.219 9.11777 110.882 10.2748 110.882ZM14.6605 111.454V102.146H15.4795V111.454H14.6605ZM17.4281 111.454V105.045H18.2471V111.454H17.4281ZM17.4151 103.706V102.809H18.2601V103.706H17.4151ZM21.7687 111.545C20.9237 111.545 20.2217 111.363 19.7277 111.09V110.44C20.2607 110.661 20.7547 110.856 21.6777 110.856C22.7697 110.856 23.1857 110.427 23.1857 109.79C23.1857 109.114 22.8607 108.841 21.9897 108.607L21.3397 108.412C20.3777 108.165 19.7797 107.736 19.7797 106.67C19.7797 105.643 20.4817 104.928 21.9247 104.928C22.7567 104.928 23.2897 105.123 23.6407 105.305V105.968C23.2767 105.786 22.6397 105.617 21.9637 105.617C21.0277 105.617 20.5597 105.968 20.5597 106.605C20.5597 107.216 20.8587 107.476 21.5997 107.697L22.2887 107.879C23.4717 108.217 24.0047 108.607 24.0047 109.725C24.0047 110.856 23.1987 111.545 21.7687 111.545ZM27.465 111.519C26.477 111.519 25.866 111.103 25.866 110.063V105.734H24.93V105.045H25.866V103.524H26.685V105.045H28.388V105.734H26.685V109.946C26.685 110.583 26.893 110.856 27.673 110.856C27.946 110.856 28.271 110.804 28.505 110.726V111.272C28.284 111.402 27.985 111.519 27.465 111.519ZM29.9457 111.454V105.045H30.7647V111.454H29.9457ZM29.9327 103.706V102.809H30.7777V103.706H29.9327ZM35.1963 111.558C33.3373 111.558 32.2713 110.44 32.2713 108.347V108.178C32.2713 105.903 33.5843 104.928 35.2353 104.928C36.0673 104.928 36.5483 105.071 37.0033 105.357V106.033C36.4573 105.773 36.0153 105.63 35.1833 105.63C33.9613 105.63 33.1163 106.423 33.1163 108.048V108.334C33.1163 110.011 33.8313 110.856 35.2873 110.856C36.1713 110.856 36.7303 110.583 37.0813 110.388V111.051C36.6653 111.311 36.1193 111.558 35.1963 111.558ZM43.1781 111.454L41.3321 105.032H42.2031L43.6461 110.375H43.6851L45.3101 105.032H46.0251L47.6501 110.375H47.7021L49.1321 105.032H49.9251L48.0791 111.454H47.2341L45.6611 106.293H45.6351L44.0231 111.454H43.1781ZM53.8608 111.558C51.8458 111.558 50.8318 110.362 50.8318 108.321V108.165C50.8318 105.929 52.1318 104.928 53.6268 104.928C55.3688 104.928 56.1748 105.968 56.1748 107.918V108.386H51.6768C51.7028 110.141 52.4828 110.856 53.9908 110.856C54.8488 110.856 55.4468 110.661 55.9798 110.388V111.012C55.5898 111.272 54.8748 111.558 53.8608 111.558ZM53.6008 105.591C52.6778 105.591 51.7938 106.15 51.6898 107.736H55.3168C55.3168 106.267 54.7578 105.591 53.6008 105.591ZM57.6977 111.454V102.146H58.5167V111.454H57.6977ZM60.4652 111.454V102.146H61.2842V111.454H60.4652ZM62.9468 106.865H67.2238V107.554H62.9468V106.865ZM71.1058 111.597C70.3258 111.597 69.3768 111.467 68.8308 111.22V102.146H69.6368V105.5H69.7018C70.2088 105.188 70.8328 104.928 71.7428 104.928C73.0428 104.928 74.2518 105.656 74.2518 108.1V108.256C74.2518 110.414 73.1208 111.597 71.1058 111.597ZM71.1578 110.895C72.4058 110.895 73.3938 110.258 73.3938 108.386V108.152C73.3938 106.215 72.7048 105.63 71.3918 105.63C70.6508 105.63 70.0138 105.916 69.6368 106.111V110.648C69.9878 110.778 70.4558 110.895 71.1578 110.895ZM78.3882 111.558C76.3732 111.558 75.3592 110.362 75.3592 108.321V108.165C75.3592 105.929 76.6592 104.928 78.1542 104.928C79.8962 104.928 80.7022 105.968 80.7022 107.918V108.386H76.2042C76.2302 110.141 77.0102 110.856 78.5182 110.856C79.3762 110.856 79.9742 110.661 80.5072 110.388V111.012C80.1172 111.272 79.4022 111.558 78.3882 111.558ZM78.1282 105.591C77.2052 105.591 76.3212 106.15 76.2172 107.736H79.8442C79.8442 106.267 79.2852 105.591 78.1282 105.591ZM82.225 111.454V105.045H83.044V111.454H82.225ZM82.212 103.706V102.809H83.057V103.706H82.212ZM84.9666 111.454V105.045H85.7466V105.617H85.7986C86.4356 105.201 87.2936 104.928 88.0996 104.928C89.3216 104.928 89.9456 105.422 89.9456 106.644V111.454H89.1266V106.826C89.1266 105.968 88.7886 105.63 87.7486 105.63C87.0856 105.63 86.3576 105.851 85.7856 106.176V111.454H84.9666ZM94.0064 113.404C92.0304 113.404 91.1594 112.806 91.1594 111.883C91.1594 111.168 91.7184 110.778 92.4074 110.531V110.479C92.0564 110.388 91.7574 110.102 91.7574 109.686C91.7574 109.283 91.9914 108.984 92.4464 108.62C91.9654 108.295 91.6404 107.775 91.6404 107.034V106.956C91.6404 105.656 92.6544 104.902 94.0324 104.902C94.3444 104.902 94.6304 104.941 94.9034 105.006H97.0614V105.63H95.8134C96.1774 105.942 96.3724 106.371 96.3724 106.93V106.995C96.3724 108.36 95.3454 109.036 94.0194 109.036C93.6034 109.036 93.2134 108.971 92.8754 108.841C92.6934 109.01 92.5374 109.179 92.5374 109.413C92.5374 109.777 92.7714 109.946 93.2134 109.946H95.0334C96.1774 109.946 97.0354 110.284 97.0354 111.467C97.0354 112.533 96.1514 113.404 94.0064 113.404ZM93.9804 112.741C95.5924 112.741 96.1774 112.286 96.1774 111.584C96.1774 110.869 95.7744 110.7 94.9034 110.7H93.0184C92.4594 110.882 92.0304 111.168 92.0304 111.766C92.0304 112.403 92.5634 112.741 93.9804 112.741ZM94.0194 108.412C94.9814 108.412 95.5534 107.944 95.5534 107.034V106.917C95.5534 105.968 94.9424 105.539 94.0194 105.539C93.0704 105.539 92.4724 106.033 92.4724 106.891V107.008C92.4724 107.944 93.0964 108.412 94.0194 108.412ZM104.118 111.558C102.363 111.558 101.245 110.427 101.245 108.36V108.178C101.245 106.098 102.441 104.928 104.131 104.928C105.899 104.928 107.017 106.059 107.017 108.139V108.308C107.017 110.375 105.821 111.558 104.118 111.558ZM104.144 110.882C105.366 110.882 106.172 110.037 106.172 108.386V108.113C106.172 106.254 105.288 105.591 104.118 105.591C102.883 105.591 102.09 106.475 102.09 108.087V108.386C102.09 110.219 102.987 110.882 104.144 110.882ZM108.92 111.454V105.734H107.932V105.045H108.92V104.083C108.92 102.679 109.726 102.081 110.896 102.081C111.39 102.081 111.728 102.159 111.975 102.276V102.874C111.767 102.822 111.481 102.744 111.039 102.744C110.233 102.744 109.726 103.134 109.726 104.135V105.045H111.273V105.734H109.726V111.454H108.92ZM118.307 111.597C117.527 111.597 116.578 111.467 116.032 111.22V102.146H116.838V105.5H116.903C117.41 105.188 118.034 104.928 118.944 104.928C120.244 104.928 121.453 105.656 121.453 108.1V108.256C121.453 110.414 120.322 111.597 118.307 111.597ZM118.359 110.895C119.607 110.895 120.595 110.258 120.595 108.386V108.152C120.595 106.215 119.906 105.63 118.593 105.63C117.852 105.63 117.215 105.916 116.838 106.111V110.648C117.189 110.778 117.657 110.895 118.359 110.895ZM125.433 111.558C123.678 111.558 122.56 110.427 122.56 108.36V108.178C122.56 106.098 123.756 104.928 125.446 104.928C127.214 104.928 128.332 106.059 128.332 108.139V108.308C128.332 110.375 127.136 111.558 125.433 111.558ZM125.459 110.882C126.681 110.882 127.487 110.037 127.487 108.386V108.113C127.487 106.254 126.603 105.591 125.433 105.591C124.198 105.591 123.405 106.475 123.405 108.087V108.386C123.405 110.219 124.302 110.882 125.459 110.882ZM131.795 111.519C130.807 111.519 130.196 111.103 130.196 110.063V105.734H129.26V105.045H130.196V103.524H131.015V105.045H132.718V105.734H131.015V109.946C131.015 110.583 131.223 110.856 132.003 110.856C132.276 110.856 132.601 110.804 132.835 110.726V111.272C132.614 111.402 132.315 111.519 131.795 111.519ZM134.25 111.454V102.146H135.069V105.604H135.121C135.745 105.188 136.577 104.941 137.383 104.941C138.605 104.941 139.229 105.435 139.229 106.657V111.454H138.41V106.826C138.41 105.968 138.072 105.63 137.032 105.63C136.369 105.63 135.641 105.864 135.069 106.176V111.454H134.25ZM144.508 113.378V105.045H145.288V105.565H145.34C145.782 105.227 146.458 104.928 147.329 104.928C148.746 104.928 149.929 105.695 149.929 108.113V108.256C149.929 110.57 148.798 111.558 147.03 111.558C146.276 111.558 145.691 111.35 145.314 111.116V113.378H144.508ZM146.952 110.895C148.291 110.895 149.071 110.18 149.071 108.386V108.152C149.071 106.189 148.356 105.63 147.121 105.63C146.315 105.63 145.678 105.916 145.314 106.163V110.427C145.665 110.661 146.263 110.895 146.952 110.895ZM152.986 111.558C151.829 111.558 151.01 110.934 151.01 109.79C151.01 108.672 151.699 108.087 152.934 107.944L154.754 107.736V106.982C154.754 105.929 154.286 105.63 153.142 105.63C152.505 105.63 151.998 105.747 151.556 105.851V105.266C152.115 105.045 152.726 104.928 153.441 104.928C154.819 104.928 155.573 105.487 155.573 106.787V111.454H154.91L154.832 110.882H154.78C154.455 111.233 153.883 111.558 152.986 111.558ZM153.194 110.908C153.857 110.908 154.455 110.674 154.754 110.401V108.347L153.155 108.529C152.271 108.62 151.855 108.984 151.855 109.764C151.855 110.505 152.375 110.908 153.194 110.908ZM159.42 111.519C158.432 111.519 157.821 111.103 157.821 110.063V105.734H156.885V105.045H157.821V103.524H158.64V105.045H160.343V105.734H158.64V109.946C158.64 110.583 158.848 110.856 159.628 110.856C159.901 110.856 160.226 110.804 160.46 110.726V111.272C160.239 111.402 159.94 111.519 159.42 111.519ZM161.901 111.454V105.045H162.72V111.454H161.901ZM161.888 103.706V102.809H162.733V103.706H161.888ZM167.255 111.558C165.24 111.558 164.226 110.362 164.226 108.321V108.165C164.226 105.929 165.526 104.928 167.021 104.928C168.763 104.928 169.569 105.968 169.569 107.918V108.386H165.071C165.097 110.141 165.877 110.856 167.385 110.856C168.243 110.856 168.841 110.661 169.374 110.388V111.012C168.984 111.272 168.269 111.558 167.255 111.558ZM166.995 105.591C166.072 105.591 165.188 106.15 165.084 107.736H168.711C168.711 106.267 168.152 105.591 166.995 105.591ZM171.066 111.454V105.045H171.846V105.617H171.898C172.535 105.201 173.393 104.928 174.199 104.928C175.421 104.928 176.045 105.422 176.045 106.644V111.454H175.226V106.826C175.226 105.968 174.888 105.63 173.848 105.63C173.185 105.63 172.457 105.851 171.885 106.176V111.454H171.066ZM179.885 111.519C178.897 111.519 178.286 111.103 178.286 110.063V105.734H177.35V105.045H178.286V103.524H179.105V105.045H180.808V105.734H179.105V109.946C179.105 110.583 179.313 110.856 180.093 110.856C180.366 110.856 180.691 110.804 180.925 110.726V111.272C180.704 111.402 180.405 111.519 179.885 111.519ZM183.939 111.545C183.094 111.545 182.392 111.363 181.898 111.09V110.44C182.431 110.661 182.925 110.856 183.848 110.856C184.94 110.856 185.356 110.427 185.356 109.79C185.356 109.114 185.031 108.841 184.16 108.607L183.51 108.412C182.548 108.165 181.95 107.736 181.95 106.67C181.95 105.643 182.652 104.928 184.095 104.928C184.927 104.928 185.46 105.123 185.811 105.305V105.968C185.447 105.786 184.81 105.617 184.134 105.617C183.198 105.617 182.73 105.968 182.73 106.605C182.73 107.216 183.029 107.476 183.77 107.697L184.459 107.879C185.642 108.217 186.175 108.607 186.175 109.725C186.175 110.856 185.369 111.545 183.939 111.545ZM2.496 127.558C1.339 127.558 0.52 126.934 0.52 125.79C0.52 124.672 1.209 124.087 2.444 123.944L4.264 123.736V122.982C4.264 121.929 3.796 121.63 2.652 121.63C2.015 121.63 1.508 121.747 1.066 121.851V121.266C1.625 121.045 2.236 120.928 2.951 120.928C4.329 120.928 5.083 121.487 5.083 122.787V127.454H4.42L4.342 126.882H4.29C3.965 127.233 3.393 127.558 2.496 127.558ZM2.704 126.908C3.367 126.908 3.965 126.674 4.264 126.401V124.347L2.665 124.529C1.781 124.62 1.365 124.984 1.365 125.764C1.365 126.505 1.885 126.908 2.704 126.908ZM6.95388 127.454V121.045H7.73388V121.617H7.78588C8.42288 121.201 9.28088 120.928 10.0869 120.928C11.3089 120.928 11.9329 121.422 11.9329 122.644V127.454H11.1139V122.826C11.1139 121.968 10.7759 121.63 9.73588 121.63C9.07288 121.63 8.34488 121.851 7.77288 122.176V127.454H6.95388ZM16.0587 127.558C14.7457 127.558 13.4197 126.765 13.4197 124.399V124.23C13.4197 121.929 14.6027 120.928 16.2537 120.928C17.0857 120.928 17.6447 121.162 18.0087 121.396V118.146H18.8277V127.454H18.1387L18.0607 126.895H18.0087C17.5797 127.285 16.9687 127.558 16.0587 127.558ZM16.2927 126.895C17.0987 126.895 17.6577 126.596 18.0087 126.284V122.085C17.6837 121.825 17.0597 121.63 16.3837 121.63C15.0837 121.63 14.2647 122.306 14.2647 124.139V124.373C14.2647 126.245 15.0967 126.895 16.2927 126.895ZM26.1193 127.519C25.1313 127.519 24.5203 127.103 24.5203 126.063V121.734H23.5843V121.045H24.5203V119.524H25.3393V121.045H27.0423V121.734H25.3393V125.946C25.3393 126.583 25.5473 126.856 26.3273 126.856C26.6003 126.856 26.9253 126.804 27.1593 126.726V127.272C26.9383 127.402 26.6393 127.519 26.1193 127.519ZM28.574 127.454V118.146H29.393V121.604H29.445C30.069 121.188 30.901 120.941 31.707 120.941C32.929 120.941 33.553 121.435 33.553 122.657V127.454H32.734V122.826C32.734 121.968 32.396 121.63 31.356 121.63C30.693 121.63 29.965 121.864 29.393 122.176V127.454H28.574ZM38.0298 127.558C36.0148 127.558 35.0008 126.362 35.0008 124.321V124.165C35.0008 121.929 36.3008 120.928 37.7958 120.928C39.5378 120.928 40.3438 121.968 40.3438 123.918V124.386H35.8458C35.8718 126.141 36.6518 126.856 38.1598 126.856C39.0178 126.856 39.6158 126.661 40.1488 126.388V127.012C39.7588 127.272 39.0438 127.558 38.0298 127.558ZM37.7698 121.591C36.8468 121.591 35.9628 122.15 35.8588 123.736H39.4858C39.4858 122.267 38.9268 121.591 37.7698 121.591ZM41.8666 127.454V121.045H42.6856V127.454H41.8666ZM41.8536 119.706V118.809H42.6986V119.706H41.8536ZM44.6082 127.454V121.032H45.3882V121.773H45.4402C45.8172 121.357 46.5322 120.954 47.2862 120.954C47.4292 120.954 47.5982 120.967 47.6762 120.993V121.747C47.5202 121.721 47.3382 121.708 47.2212 121.708C46.5452 121.708 45.8822 121.981 45.4272 122.358V127.454H44.6082ZM54.9121 127.558C53.0531 127.558 51.9871 126.44 51.9871 124.347V124.178C51.9871 121.903 53.3001 120.928 54.9511 120.928C55.7831 120.928 56.2641 121.071 56.7191 121.357V122.033C56.1731 121.773 55.7311 121.63 54.8991 121.63C53.6771 121.63 52.8321 122.423 52.8321 124.048V124.334C52.8321 126.011 53.5471 126.856 55.0031 126.856C55.8871 126.856 56.4461 126.583 56.7971 126.388V127.051C56.3811 127.311 55.8351 127.558 54.9121 127.558ZM59.7519 127.558C58.5949 127.558 57.7759 126.934 57.7759 125.79C57.7759 124.672 58.4649 124.087 59.6999 123.944L61.5199 123.736V122.982C61.5199 121.929 61.0519 121.63 59.9079 121.63C59.2709 121.63 58.7639 121.747 58.3219 121.851V121.266C58.8809 121.045 59.4919 120.928 60.2069 120.928C61.5849 120.928 62.3389 121.487 62.3389 122.787V127.454H61.6759L61.5979 126.882H61.5459C61.2209 127.233 60.6489 127.558 59.7519 127.558ZM59.9599 126.908C60.6229 126.908 61.2209 126.674 61.5199 126.401V124.347L59.9209 124.529C59.0369 124.62 58.6209 124.984 58.6209 125.764C58.6209 126.505 59.1409 126.908 59.9599 126.908ZM64.2097 127.454V121.032H64.9897V121.773H65.0417C65.4187 121.357 66.1337 120.954 66.8877 120.954C67.0307 120.954 67.1997 120.967 67.2777 120.993V121.747C67.1217 121.721 66.9397 121.708 66.8227 121.708C66.1467 121.708 65.4837 121.981 65.0287 122.358V127.454H64.2097ZM71.2026 127.558C69.1876 127.558 68.1736 126.362 68.1736 124.321V124.165C68.1736 121.929 69.4736 120.928 70.9686 120.928C72.7106 120.928 73.5166 121.968 73.5166 123.918V124.386H69.0186C69.0446 126.141 69.8246 126.856 71.3326 126.856C72.1906 126.856 72.7886 126.661 73.3216 126.388V127.012C72.9316 127.272 72.2166 127.558 71.2026 127.558ZM70.9426 121.591C70.0196 121.591 69.1356 122.15 69.0316 123.736H72.6586C72.6586 122.267 72.0996 121.591 70.9426 121.591ZM77.2105 129.404C75.2345 129.404 74.3635 128.806 74.3635 127.883C74.3635 127.168 74.9225 126.778 75.6115 126.531V126.479C75.2605 126.388 74.9615 126.102 74.9615 125.686C74.9615 125.283 75.1955 124.984 75.6505 124.62C75.1695 124.295 74.8445 123.775 74.8445 123.034V122.956C74.8445 121.656 75.8585 120.902 77.2365 120.902C77.5485 120.902 77.8345 120.941 78.1075 121.006H80.2655V121.63H79.0175C79.3815 121.942 79.5765 122.371 79.5765 122.93V122.995C79.5765 124.36 78.5495 125.036 77.2235 125.036C76.8075 125.036 76.4175 124.971 76.0795 124.841C75.8975 125.01 75.7415 125.179 75.7415 125.413C75.7415 125.777 75.9755 125.946 76.4175 125.946H78.2375C79.3815 125.946 80.2395 126.284 80.2395 127.467C80.2395 128.533 79.3555 129.404 77.2105 129.404ZM77.1845 128.741C78.7965 128.741 79.3815 128.286 79.3815 127.584C79.3815 126.869 78.9785 126.7 78.1075 126.7H76.2225C75.6635 126.882 75.2345 127.168 75.2345 127.766C75.2345 128.403 75.7675 128.741 77.1845 128.741ZM77.2235 124.412C78.1855 124.412 78.7575 123.944 78.7575 123.034V122.917C78.7575 121.968 78.1465 121.539 77.2235 121.539C76.2745 121.539 75.6765 122.033 75.6765 122.891V123.008C75.6765 123.944 76.3005 124.412 77.2235 124.412ZM81.476 127.454V121.045H82.295V127.454H81.476ZM81.463 119.706V118.809H82.308V119.706H81.463ZM85.9986 127.454L83.5806 121.032H84.4646L86.4146 126.388H86.4406L88.4036 121.032H89.2226L86.8176 127.454H85.9986ZM93.102 127.558C91.087 127.558 90.073 126.362 90.073 124.321V124.165C90.073 121.929 91.373 120.928 92.868 120.928C94.61 120.928 95.416 121.968 95.416 123.918V124.386H90.918C90.944 126.141 91.724 126.856 93.232 126.856C94.09 126.856 94.688 126.661 95.221 126.388V127.012C94.831 127.272 94.116 127.558 93.102 127.558ZM92.842 121.591C91.919 121.591 91.035 122.15 90.931 123.736H94.558C94.558 122.267 93.999 121.591 92.842 121.591ZM96.9129 127.454V121.032H97.6929V121.773H97.7449C98.1219 121.357 98.8369 120.954 99.5909 120.954C99.7339 120.954 99.9029 120.967 99.9809 120.993V121.747C99.8249 121.721 99.6429 121.708 99.5259 121.708C98.8499 121.708 98.1869 121.981 97.7319 122.358V127.454H96.9129ZM102.892 127.545C102.047 127.545 101.345 127.363 100.851 127.09V126.44C101.384 126.661 101.878 126.856 102.801 126.856C103.893 126.856 104.309 126.427 104.309 125.79C104.309 125.114 103.984 124.841 103.113 124.607L102.463 124.412C101.501 124.165 100.903 123.736 100.903 122.67C100.903 121.643 101.605 120.928 103.048 120.928C103.88 120.928 104.413 121.123 104.764 121.305V121.968C104.4 121.786 103.763 121.617 103.087 121.617C102.151 121.617 101.683 121.968 101.683 122.605C101.683 123.216 101.982 123.476 102.723 123.697L103.412 123.879C104.595 124.217 105.128 124.607 105.128 125.725C105.128 126.856 104.322 127.545 102.892 127.545ZM106.222 127.714V126.622H107.301V127.714H106.222Z" fill="black"/>
</svg>
