<svg width="270" height="316" viewBox="0 0 270 316" fill="none" xmlns="http://www.w3.org/2000/svg">
<rect width="270" height="316" rx="11" transform="matrix(1 0 0 -1 0 316)" fill="black"/>
<path d="M33.504 146H31.032V131.432H34.896C38.272 131.432 39.96 132.936 39.96 135.944C39.96 139.016 38.408 140.552 35.304 140.552H33.504V146ZM33.504 138.584H34.728C36.536 138.584 37.44 137.704 37.44 135.944C37.44 134.248 36.512 133.4 34.656 133.4H33.504V138.584ZM50.5393 143.912V146H40.7473L44.4433 141.32C46.2033 139.144 47.2353 137.784 47.5393 137.24C47.8593 136.68 48.0193 136.224 48.0193 135.872C48.0353 135.776 48.0433 135.68 48.0433 135.584C48.0433 134.944 47.8273 134.376 47.3953 133.88C46.9793 133.384 46.4273 133.136 45.7393 133.136C45.0513 133.136 44.5073 133.416 44.1073 133.976C43.7233 134.536 43.5313 135.216 43.5313 136.016H40.9393C40.9393 134.576 41.3633 133.392 42.2113 132.464C43.0753 131.52 44.2433 131.048 45.7153 131.048C47.0433 131.048 48.1633 131.496 49.0753 132.392C49.9873 133.288 50.4433 134.408 50.4433 135.752C50.4433 137.016 49.4753 138.776 47.5393 141.032L45.0673 143.912H50.5393ZM54.8556 146H52.3836V131.432H56.2476C59.6236 131.432 61.3116 132.936 61.3116 135.944C61.3116 139.016 59.7596 140.552 56.6556 140.552H54.8556V146ZM54.8556 138.584H56.0796C57.8876 138.584 58.7916 137.704 58.7916 135.944C58.7916 134.248 57.8636 133.4 56.0076 133.4H54.8556V138.584ZM73.0665 143.912H77.4585V146H70.5945V131.432H73.0665V143.912ZM87.6158 141.248C87.6158 142.736 87.1598 143.952 86.2478 144.896C85.3358 145.84 84.1358 146.312 82.6478 146.312C81.1758 146.312 79.9758 145.84 79.0478 144.896C78.1198 143.952 77.6558 142.744 77.6558 141.272C77.6558 139.784 78.1118 138.568 79.0238 137.624C79.9358 136.68 81.1358 136.208 82.6238 136.208C84.1118 136.208 85.3118 136.68 86.2238 137.624C87.1518 138.552 87.6158 139.76 87.6158 141.248ZM80.0078 141.296C80.0078 142.176 80.2558 142.896 80.7518 143.456C81.2478 144.016 81.8878 144.296 82.6718 144.296C83.4558 144.296 84.0798 144 84.5438 143.408C85.0238 142.8 85.2638 142.088 85.2638 141.272C85.2638 140.44 85.0238 139.728 84.5438 139.136C84.0638 138.528 83.4318 138.224 82.6478 138.224C81.8798 138.224 81.2478 138.512 80.7518 139.088C80.2558 139.664 80.0078 140.4 80.0078 141.296ZM97.8735 146H95.5935V145.136C94.9215 145.92 93.9215 146.312 92.5935 146.312C91.2655 146.312 90.2015 145.8 89.4015 144.776C88.6175 143.752 88.2255 142.552 88.2255 141.176C88.2255 139.8 88.6255 138.632 89.4255 137.672C90.2415 136.696 91.2815 136.208 92.5455 136.208C93.8895 136.208 94.9055 136.608 95.5935 137.408V136.52H97.8735V146ZM95.8575 141.248C95.8575 140.368 95.6095 139.648 95.1135 139.088C94.6175 138.512 93.9775 138.224 93.1935 138.224C92.4255 138.224 91.7935 138.504 91.2975 139.064C90.8175 139.608 90.5775 140.336 90.5775 141.248C90.5775 142.16 90.8255 142.896 91.3215 143.456C91.8175 144.016 92.4575 144.296 93.2415 144.296C94.0255 144.296 94.6575 144.024 95.1375 143.48C95.6175 142.936 95.8575 142.192 95.8575 141.248ZM102.147 137.384C102.803 136.6 103.771 136.208 105.051 136.208C107.227 136.208 108.315 137.544 108.315 140.216V146H106.011V140.984C106.011 138.984 105.395 137.984 104.163 137.984C102.819 137.984 102.147 139.056 102.147 141.2V146H99.8194V136.52H102.147V137.384ZM115.313 138.488C114.801 138.008 114.265 137.768 113.705 137.768C112.857 137.768 112.433 138.152 112.433 138.92C112.433 139.352 112.817 139.704 113.585 139.976C114.993 140.488 115.865 140.96 116.201 141.392C116.537 141.808 116.705 142.328 116.705 142.952C116.705 143.976 116.345 144.792 115.625 145.4C114.921 146.008 114.049 146.312 113.009 146.312C111.665 146.312 110.553 145.784 109.673 144.728L110.705 143.408C111.505 144.208 112.241 144.608 112.913 144.608C113.889 144.608 114.377 144.136 114.377 143.192C114.377 142.712 114.121 142.36 113.609 142.136C113.097 141.896 112.705 141.72 112.433 141.608C110.961 140.968 110.225 140.192 110.225 139.28C110.225 138.368 110.497 137.632 111.041 137.072C111.601 136.496 112.329 136.208 113.225 136.208C114.505 136.208 115.521 136.536 116.273 137.192L115.313 138.488ZM128.971 142.736L127.675 146H125.059L130.723 131.048H132.931L138.451 146H135.811L134.587 142.736H128.971ZM131.683 134.624L129.571 140.792H133.915L131.683 134.624ZM141.593 137.384C142.249 136.6 143.217 136.208 144.497 136.208C146.673 136.208 147.761 137.544 147.761 140.216V146H145.457V140.984C145.457 138.984 144.841 137.984 143.609 137.984C142.265 137.984 141.593 139.056 141.593 141.2V146H139.265V136.52H141.593V137.384ZM158.67 146H156.39V145.136C155.718 145.92 154.718 146.312 153.39 146.312C152.062 146.312 150.998 145.8 150.198 144.776C149.414 143.752 149.022 142.552 149.022 141.176C149.022 139.8 149.422 138.632 150.222 137.672C151.038 136.696 152.078 136.208 153.342 136.208C154.686 136.208 155.702 136.608 156.39 137.408V136.52H158.67V146ZM156.654 141.248C156.654 140.368 156.406 139.648 155.91 139.088C155.414 138.512 154.774 138.224 153.99 138.224C153.222 138.224 152.59 138.504 152.094 139.064C151.614 139.608 151.374 140.336 151.374 141.248C151.374 142.16 151.622 142.896 152.118 143.456C152.614 144.016 153.254 144.296 154.038 144.296C154.822 144.296 155.454 144.024 155.934 143.48C156.414 142.936 156.654 142.192 156.654 141.248ZM163.136 146H160.808V129.608H163.136V146ZM164.129 136.52H166.817L169.289 142.208L171.881 136.52H174.521L167.801 149.96H165.209L168.137 144.536L164.129 136.52ZM180.352 138.488C179.84 138.008 179.304 137.768 178.744 137.768C177.896 137.768 177.472 138.152 177.472 138.92C177.472 139.352 177.856 139.704 178.624 139.976C180.032 140.488 180.904 140.96 181.24 141.392C181.576 141.808 181.744 142.328 181.744 142.952C181.744 143.976 181.384 144.792 180.664 145.4C179.96 146.008 179.088 146.312 178.048 146.312C176.704 146.312 175.592 145.784 174.712 144.728L175.744 143.408C176.544 144.208 177.28 144.608 177.952 144.608C178.928 144.608 179.416 144.136 179.416 143.192C179.416 142.712 179.16 142.36 178.648 142.136C178.136 141.896 177.744 141.72 177.472 141.608C176 140.968 175.264 140.192 175.264 139.28C175.264 138.368 175.536 137.632 176.08 137.072C176.64 136.496 177.368 136.208 178.264 136.208C179.544 136.208 180.56 136.536 181.312 137.192L180.352 138.488ZM186.066 132.536C186.066 132.904 185.93 133.224 185.658 133.496C185.386 133.768 185.066 133.904 184.698 133.904C184.33 133.904 184.01 133.768 183.738 133.496C183.466 133.224 183.33 132.904 183.33 132.536C183.33 132.168 183.466 131.848 183.738 131.576C184.01 131.304 184.33 131.168 184.698 131.168C185.066 131.168 185.386 131.304 185.658 131.576C185.93 131.848 186.066 132.168 186.066 132.536ZM185.874 146H183.546V136.52H185.874V146ZM193.172 138.488C192.66 138.008 192.124 137.768 191.564 137.768C190.716 137.768 190.292 138.152 190.292 138.92C190.292 139.352 190.676 139.704 191.444 139.976C192.852 140.488 193.724 140.96 194.06 141.392C194.396 141.808 194.564 142.328 194.564 142.952C194.564 143.976 194.204 144.792 193.484 145.4C192.78 146.008 191.908 146.312 190.868 146.312C189.524 146.312 188.412 145.784 187.532 144.728L188.564 143.408C189.364 144.208 190.1 144.608 190.772 144.608C191.748 144.608 192.236 144.136 192.236 143.192C192.236 142.712 191.98 142.36 191.468 142.136C190.956 141.896 190.564 141.72 190.292 141.608C188.82 140.968 188.084 140.192 188.084 139.28C188.084 138.368 188.356 137.632 188.9 137.072C189.46 136.496 190.188 136.208 191.084 136.208C192.364 136.208 193.38 136.536 194.132 137.192L193.172 138.488Z" fill="white"/>
<g clip-path="url(#clip0_3284_268)">
<path d="M31 32H45.1438C48.2222 32 50.5283 32.7318 52.0621 34.1954C53.5959 35.659 54.3584 37.7433 54.3497 40.4484C54.3497 43.2297 53.5142 45.4011 51.8431 46.9627C50.1721 48.5243 47.6253 49.3084 44.2026 49.3149H39.5458V59.5242H31V32ZM39.5458 43.7349H41.6307C43.2712 43.7349 44.4227 43.4496 45.085 42.879C45.4026 42.6122 45.6558 42.277 45.8256 41.8985C45.9954 41.52 46.0774 41.108 46.0654 40.6934C46.0744 40.2881 46.0027 39.885 45.8546 39.5075C45.7065 39.1301 45.4849 38.7858 45.2026 38.4947C44.6253 37.898 43.5414 37.5985 41.951 37.5963H39.5458V43.7349Z" fill="white"/>
<path d="M46.0815 32H59.9541C62.9781 32 65.2417 32.7318 66.7449 34.1954C68.2482 35.659 68.9998 37.7433 68.9998 40.4484C68.9998 43.2297 68.1807 45.4011 66.5423 46.9627C64.904 48.5243 62.4007 49.3084 59.0325 49.3149H54.4574V59.5242H46.0815V32ZM54.4639 43.7349H56.5096C58.1175 43.7349 59.2471 43.4496 59.8985 42.879C60.2149 42.6111 60.4672 42.2757 60.6369 41.8975C60.8066 41.5192 60.8893 41.1078 60.8789 40.6934C60.8986 39.8775 60.5943 39.087 60.0325 38.4947C59.4661 37.898 58.4029 37.5985 56.843 37.5963H54.4639V43.7349Z" fill="white"/>
<path d="M54.4706 59.5242H31C31.2926 61.6443 32.1366 63.6506 33.4477 65.3426C34.8137 67.1591 37.3747 69.3033 41.1307 71.7753C43.4227 73.2999 44.8889 74.4499 45.5294 75.2252C46.183 76.0126 46.4902 76.7574 46.4902 77.4664C46.4912 77.8439 46.406 78.2166 46.2412 78.5563C46.0765 78.8959 45.8364 79.1936 45.5392 79.4265C44.8687 79.9819 44.0173 80.2714 43.1471 80.24C42.2556 80.2745 41.3832 79.9764 40.6993 79.4037C40.0654 78.8439 39.6394 77.8584 39.4216 76.4471L31.5784 77.009C31.8856 78.9692 32.4488 80.4992 33.268 81.5991C34.1625 82.7515 35.3644 83.628 36.7353 84.1277C38.2298 84.7136 40.2996 85.0065 42.9444 85.0065C45.6961 85.0065 47.8366 84.7277 49.366 84.1702C50.7906 83.6808 52.0404 82.7847 52.9608 81.5925C53.8204 80.4799 54.2808 79.1106 54.268 77.7048C54.2489 76.1227 53.7207 74.5889 52.7614 73.3304C51.7549 71.943 49.927 70.4184 47.2778 68.7566C45.7026 67.7896 44.6492 67.1122 44.1176 66.7246C43.5861 66.3369 42.9619 65.8305 42.2451 65.2054H54.4706V59.5242Z" fill="white"/>
</g>
<path d="M32.628 194H30.774V183.074H33.672C36.204 183.074 37.47 184.202 37.47 186.458C37.47 188.762 36.306 189.914 33.978 189.914H32.628V194ZM32.628 188.438H33.546C34.902 188.438 35.58 187.778 35.58 186.458C35.58 185.186 34.884 184.55 33.492 184.55H32.628V188.438ZM40.1125 187.628C40.5565 186.98 41.2525 186.656 42.2005 186.656C42.5005 186.656 42.7765 186.716 43.0285 186.836L42.8125 188.42C42.5485 188.252 42.2605 188.168 41.9485 188.168C40.7245 188.168 40.1125 189.044 40.1125 190.796V194H38.3665V186.89H40.1125V187.628ZM45.0251 190.616C45.0251 191.3 45.1751 191.864 45.4751 192.308C45.7751 192.752 46.1891 192.974 46.7171 192.974C47.5451 192.974 48.0731 192.566 48.3011 191.75L49.9571 192.02C49.4171 193.496 48.3371 194.234 46.7171 194.234C45.6371 194.234 44.7731 193.892 44.1251 193.208C43.4891 192.512 43.1711 191.612 43.1711 190.508C43.1711 189.344 43.4771 188.414 44.0891 187.718C44.7131 187.01 45.5531 186.656 46.6091 186.656C47.6771 186.656 48.5051 186.992 49.0931 187.664C49.6931 188.324 49.9931 189.23 49.9931 190.382V190.616H45.0251ZM48.3731 189.644C48.3731 189.152 48.2171 188.72 47.9051 188.348C47.6051 187.976 47.2091 187.79 46.7171 187.79C46.2371 187.79 45.8411 187.988 45.5291 188.384C45.2291 188.768 45.0791 189.188 45.0791 189.644H48.3731ZM55.9388 193.334C55.4708 193.934 54.7328 194.234 53.7248 194.234C52.7168 194.234 51.9128 193.85 51.3128 193.082C50.7248 192.314 50.4308 191.414 50.4308 190.382C50.4308 189.35 50.7308 188.474 51.3308 187.754C51.9428 187.022 52.7228 186.656 53.6708 186.656C54.6788 186.656 55.4228 186.95 55.9028 187.538L55.9388 181.706H57.6848V194H55.9388V193.334ZM56.1368 190.436C56.1368 189.812 55.9448 189.278 55.5608 188.834C55.1768 188.39 54.7148 188.168 54.1748 188.168C53.6348 188.168 53.1668 188.39 52.7708 188.834C52.3868 189.266 52.1948 189.806 52.1948 190.454C52.1948 191.09 52.3808 191.63 52.7528 192.074C53.1368 192.506 53.6168 192.722 54.1928 192.722C54.7688 192.722 55.2368 192.512 55.5968 192.092C55.9568 191.66 56.1368 191.108 56.1368 190.436ZM61.2683 183.902C61.2683 184.178 61.1663 184.418 60.9623 184.622C60.7583 184.826 60.5183 184.928 60.2423 184.928C59.9663 184.928 59.7263 184.826 59.5223 184.622C59.3183 184.418 59.2163 184.178 59.2163 183.902C59.2163 183.626 59.3183 183.386 59.5223 183.182C59.7263 182.978 59.9663 182.876 60.2423 182.876C60.5183 182.876 60.7583 182.978 60.9623 183.182C61.1663 183.386 61.2683 183.626 61.2683 183.902ZM61.1243 194H59.3783V186.89H61.1243V194ZM67.6421 188.744C67.1981 188.3 66.7001 188.078 66.1481 188.078C65.5001 188.078 64.9901 188.312 64.6181 188.78C64.2461 189.248 64.0601 189.824 64.0601 190.508C64.0601 191.18 64.2701 191.732 64.6901 192.164C65.1101 192.596 65.6201 192.812 66.2201 192.812C66.7361 192.812 67.2101 192.584 67.6421 192.128V193.802C67.1381 194.09 66.5561 194.234 65.8961 194.234C64.8641 194.234 64.0061 193.868 63.3221 193.136C62.6381 192.404 62.2961 191.51 62.2961 190.454C62.2961 189.398 62.6441 188.504 63.3401 187.772C64.0481 187.028 64.9301 186.656 65.9861 186.656C66.6101 186.656 67.1621 186.806 67.6421 187.106V188.744ZM71.0417 194H69.2957V188.456H68.4497V187.034H69.2957V184.478H71.0417V187.034H72.4277V188.456H71.0417V194ZM81.0261 194H79.2801V188.456H78.4341V187.034H79.2801V184.478H81.0261V187.034H82.4121V188.456H81.0261V194ZM84.6027 181.706V187.484C85.0587 186.932 85.7847 186.656 86.7807 186.656C87.5247 186.656 88.1187 186.944 88.5627 187.52C89.0067 188.096 89.2287 188.81 89.2287 189.662V194H87.5007V190.238C87.5007 188.738 87.0387 187.988 86.1147 187.988C85.1067 187.988 84.6027 188.816 84.6027 190.472V194H82.8567V181.706H84.6027ZM92.029 190.616C92.029 191.3 92.179 191.864 92.479 192.308C92.779 192.752 93.193 192.974 93.721 192.974C94.549 192.974 95.077 192.566 95.305 191.75L96.961 192.02C96.421 193.496 95.341 194.234 93.721 194.234C92.641 194.234 91.777 193.892 91.129 193.208C90.493 192.512 90.175 191.612 90.175 190.508C90.175 189.344 90.481 188.414 91.093 187.718C91.717 187.01 92.557 186.656 93.613 186.656C94.681 186.656 95.509 186.992 96.097 187.664C96.697 188.324 96.997 189.23 96.997 190.382V190.616H92.029ZM95.377 189.644C95.377 189.152 95.221 188.72 94.909 188.348C94.609 187.976 94.213 187.79 93.721 187.79C93.241 187.79 92.845 187.988 92.533 188.384C92.233 188.768 92.083 189.188 92.083 189.644H95.377ZM105.696 187.628C106.14 186.98 106.836 186.656 107.784 186.656C108.084 186.656 108.36 186.716 108.612 186.836L108.396 188.42C108.132 188.252 107.844 188.168 107.532 188.168C106.308 188.168 105.696 189.044 105.696 190.796V194H103.95V186.89H105.696V187.628ZM111.401 183.902C111.401 184.178 111.299 184.418 111.095 184.622C110.891 184.826 110.651 184.928 110.375 184.928C110.099 184.928 109.859 184.826 109.655 184.622C109.451 184.418 109.349 184.178 109.349 183.902C109.349 183.626 109.451 183.386 109.655 183.182C109.859 182.978 110.099 182.876 110.375 182.876C110.651 182.876 110.891 182.978 111.095 183.182C111.299 183.386 111.401 183.626 111.401 183.902ZM111.257 194H109.511V186.89H111.257V194ZM116.731 188.366C116.347 188.006 115.945 187.826 115.525 187.826C114.889 187.826 114.571 188.114 114.571 188.69C114.571 189.014 114.859 189.278 115.435 189.482C116.491 189.866 117.145 190.22 117.397 190.544C117.649 190.856 117.775 191.246 117.775 191.714C117.775 192.482 117.505 193.094 116.965 193.55C116.437 194.006 115.783 194.234 115.003 194.234C113.995 194.234 113.161 193.838 112.501 193.046L113.275 192.056C113.875 192.656 114.427 192.956 114.931 192.956C115.663 192.956 116.029 192.602 116.029 191.894C116.029 191.534 115.837 191.27 115.453 191.102C115.069 190.922 114.775 190.79 114.571 190.706C113.467 190.226 112.915 189.644 112.915 188.96C112.915 188.276 113.119 187.724 113.527 187.304C113.947 186.872 114.493 186.656 115.165 186.656C116.125 186.656 116.887 186.902 117.451 187.394L116.731 188.366ZM120.728 189.878L123.212 186.89H125.552L122.564 190.022L125.786 194H123.41L120.764 190.544L120.728 194H118.982V181.706H120.728V189.878ZM139.481 190.436C139.481 191.552 139.139 192.464 138.455 193.172C137.771 193.88 136.871 194.234 135.755 194.234C134.651 194.234 133.751 193.88 133.055 193.172C132.359 192.464 132.011 191.558 132.011 190.454C132.011 189.338 132.353 188.426 133.037 187.718C133.721 187.01 134.621 186.656 135.737 186.656C136.853 186.656 137.753 187.01 138.437 187.718C139.133 188.414 139.481 189.32 139.481 190.436ZM133.775 190.472C133.775 191.132 133.961 191.672 134.333 192.092C134.705 192.512 135.185 192.722 135.773 192.722C136.361 192.722 136.829 192.5 137.177 192.056C137.537 191.6 137.717 191.066 137.717 190.454C137.717 189.83 137.537 189.296 137.177 188.852C136.817 188.396 136.343 188.168 135.755 188.168C135.179 188.168 134.705 188.384 134.333 188.816C133.961 189.248 133.775 189.8 133.775 190.472ZM142.405 194H140.659V188.456H139.831V187.034H140.659V184.802C140.659 182.63 141.505 181.544 143.197 181.544C143.545 181.544 143.869 181.622 144.169 181.778V183.29C143.857 183.134 143.581 183.056 143.341 183.056C143.017 183.056 142.777 183.176 142.621 183.416C142.477 183.644 142.405 184.202 142.405 185.09V187.034H144.169V188.456H142.405V194ZM152.757 194H150.903V183.074H153.801C156.333 183.074 157.599 184.202 157.599 186.458C157.599 188.762 156.435 189.914 154.107 189.914H152.757V194ZM152.757 188.438H153.675C155.031 188.438 155.709 187.778 155.709 186.458C155.709 185.186 155.013 184.55 153.621 184.55H152.757V188.438ZM165.533 192.434V194H158.189L160.961 190.49C162.281 188.858 163.055 187.838 163.283 187.43C163.523 187.01 163.643 186.668 163.643 186.404C163.655 186.332 163.661 186.26 163.661 186.188C163.661 185.708 163.499 185.282 163.175 184.91C162.863 184.538 162.449 184.352 161.933 184.352C161.417 184.352 161.009 184.562 160.709 184.982C160.421 185.402 160.277 185.912 160.277 186.512H158.333C158.333 185.432 158.651 184.544 159.287 183.848C159.935 183.14 160.811 182.786 161.915 182.786C162.911 182.786 163.751 183.122 164.435 183.794C165.119 184.466 165.461 185.306 165.461 186.314C165.461 187.262 164.735 188.582 163.283 190.274L161.429 192.434H165.533ZM168.771 194H166.917V183.074H169.815C172.347 183.074 173.613 184.202 173.613 186.458C173.613 188.762 172.449 189.914 170.121 189.914H168.771V194ZM168.771 188.438H169.689C171.045 188.438 171.723 187.778 171.723 186.458C171.723 185.186 171.027 184.55 169.635 184.55H168.771V188.438ZM182.411 194H180.665V181.706H182.411V194ZM190.968 190.436C190.968 191.552 190.626 192.464 189.942 193.172C189.258 193.88 188.358 194.234 187.242 194.234C186.138 194.234 185.238 193.88 184.542 193.172C183.846 192.464 183.498 191.558 183.498 190.454C183.498 189.338 183.84 188.426 184.524 187.718C185.208 187.01 186.108 186.656 187.224 186.656C188.34 186.656 189.24 187.01 189.924 187.718C190.62 188.414 190.968 189.32 190.968 190.436ZM185.262 190.472C185.262 191.132 185.448 191.672 185.82 192.092C186.192 192.512 186.672 192.722 187.26 192.722C187.848 192.722 188.316 192.5 188.664 192.056C189.024 191.6 189.204 191.066 189.204 190.454C189.204 189.83 189.024 189.296 188.664 188.852C188.304 188.396 187.83 188.168 187.242 188.168C186.666 188.168 186.192 188.384 185.82 188.816C185.448 189.248 185.262 189.8 185.262 190.472ZM198.661 194H196.951V193.352C196.447 193.94 195.697 194.234 194.701 194.234C193.705 194.234 192.907 193.85 192.307 193.082C191.719 192.314 191.425 191.414 191.425 190.382C191.425 189.35 191.725 188.474 192.325 187.754C192.937 187.022 193.717 186.656 194.665 186.656C195.673 186.656 196.435 186.956 196.951 187.556V186.89H198.661V194ZM197.149 190.436C197.149 189.776 196.963 189.236 196.591 188.816C196.219 188.384 195.739 188.168 195.151 188.168C194.575 188.168 194.101 188.378 193.729 188.798C193.369 189.206 193.189 189.752 193.189 190.436C193.189 191.12 193.375 191.672 193.747 192.092C194.119 192.512 194.599 192.722 195.187 192.722C195.775 192.722 196.249 192.518 196.609 192.11C196.969 191.702 197.149 191.144 197.149 190.436ZM201.866 187.538C202.358 186.95 203.084 186.656 204.044 186.656C205.676 186.656 206.492 187.658 206.492 189.662V194H204.764V190.238C204.764 188.738 204.302 187.988 203.378 187.988C202.37 187.988 201.866 188.792 201.866 190.4V194H200.12V186.89H201.866V187.538ZM211.741 188.366C211.357 188.006 210.955 187.826 210.535 187.826C209.899 187.826 209.581 188.114 209.581 188.69C209.581 189.014 209.869 189.278 210.445 189.482C211.501 189.866 212.155 190.22 212.407 190.544C212.659 190.856 212.785 191.246 212.785 191.714C212.785 192.482 212.515 193.094 211.975 193.55C211.447 194.006 210.793 194.234 210.013 194.234C209.005 194.234 208.171 193.838 207.511 193.046L208.285 192.056C208.885 192.656 209.437 192.956 209.941 192.956C210.673 192.956 211.039 192.602 211.039 191.894C211.039 191.534 210.847 191.27 210.463 191.102C210.079 190.922 209.785 190.79 209.581 190.706C208.477 190.226 207.925 189.644 207.925 188.96C207.925 188.276 208.129 187.724 208.537 187.304C208.957 186.872 209.503 186.656 210.175 186.656C211.135 186.656 211.897 186.902 212.461 187.394L211.741 188.366ZM32.43 204.89V208.742C32.43 210.122 32.91 210.812 33.87 210.812C34.83 210.812 35.31 210.122 35.31 208.742V204.89H37.056V209.066C37.056 211.178 35.994 212.234 33.87 212.234C31.746 212.234 30.684 211.178 30.684 209.066V204.89H32.43ZM42.27 206.366C41.886 206.006 41.484 205.826 41.064 205.826C40.428 205.826 40.11 206.114 40.11 206.69C40.11 207.014 40.398 207.278 40.974 207.482C42.03 207.866 42.684 208.22 42.936 208.544C43.188 208.856 43.314 209.246 43.314 209.714C43.314 210.482 43.044 211.094 42.504 211.55C41.976 212.006 41.322 212.234 40.542 212.234C39.534 212.234 38.7 211.838 38.04 211.046L38.814 210.056C39.414 210.656 39.966 210.956 40.47 210.956C41.202 210.956 41.568 210.602 41.568 209.894C41.568 209.534 41.376 209.27 40.992 209.102C40.608 208.922 40.314 208.79 40.11 208.706C39.006 208.226 38.454 207.644 38.454 206.96C38.454 206.276 38.658 205.724 39.066 205.304C39.486 204.872 40.032 204.656 40.704 204.656C41.664 204.656 42.426 204.902 42.99 205.394L42.27 206.366ZM46.5554 201.902C46.5554 202.178 46.4534 202.418 46.2494 202.622C46.0454 202.826 45.8054 202.928 45.5294 202.928C45.2534 202.928 45.0134 202.826 44.8094 202.622C44.6054 202.418 44.5034 202.178 44.5034 201.902C44.5034 201.626 44.6054 201.386 44.8094 201.182C45.0134 200.978 45.2534 200.876 45.5294 200.876C45.8054 200.876 46.0454 200.978 46.2494 201.182C46.4534 201.386 46.5554 201.626 46.5554 201.902ZM46.4114 212H44.6654V204.89H46.4114V212ZM49.8332 205.538C50.3252 204.95 51.0512 204.656 52.0112 204.656C53.6432 204.656 54.4592 205.658 54.4592 207.662V212H52.7312V208.238C52.7312 206.738 52.2692 205.988 51.3452 205.988C50.3372 205.988 49.8332 206.792 49.8332 208.4V212H48.0872V204.89H49.8332V205.538ZM62.6775 211.388C62.6775 213.824 61.5435 215.042 59.2755 215.042C58.2675 215.042 57.4155 214.766 56.7195 214.214C56.0235 213.674 55.6755 212.966 55.6755 212.09H57.5295C57.5295 212.438 57.7035 212.78 58.0515 213.116C58.3995 213.452 58.7895 213.62 59.2215 213.62C60.3615 213.62 60.9315 212.936 60.9315 211.568V211.118C60.4395 211.742 59.6895 212.054 58.6815 212.054C57.6855 212.054 56.8995 211.706 56.3235 211.01C55.7595 210.314 55.4775 209.462 55.4775 208.454C55.4775 207.362 55.7835 206.45 56.3955 205.718C57.0075 204.986 57.7995 204.62 58.7715 204.62C59.7555 204.62 60.4755 204.926 60.9315 205.538V204.854H62.6775V211.388ZM61.1835 208.292C61.1835 207.644 61.0035 207.122 60.6435 206.726C60.2835 206.33 59.8095 206.132 59.2215 206.132C58.6335 206.132 58.1535 206.348 57.7815 206.78C57.4215 207.212 57.2415 207.758 57.2415 208.418C57.2415 209.834 57.9015 210.542 59.2215 210.542C59.8215 210.542 60.2955 210.332 60.6435 209.912C61.0035 209.48 61.1835 208.94 61.1835 208.292ZM71.8058 205.52C72.2498 204.944 72.9338 204.656 73.8578 204.656C74.6618 204.656 75.2978 205.028 75.7658 205.772C76.2218 205.028 76.9598 204.656 77.9798 204.656C79.4798 204.656 80.2298 205.628 80.2298 207.572V212H78.5018V208.256C78.5018 206.744 78.0878 205.988 77.2598 205.988C76.4318 205.988 76.0178 206.828 76.0178 208.508V212H74.2718V208.4C74.2718 206.792 73.9058 205.988 73.1738 205.988C72.2618 205.988 71.8058 206.828 71.8058 208.508V212H70.0598V204.89H71.8058V205.52ZM88.4286 212H86.7186V211.352C86.2146 211.94 85.4646 212.234 84.4686 212.234C83.4726 212.234 82.6746 211.85 82.0746 211.082C81.4866 210.314 81.1926 209.414 81.1926 208.382C81.1926 207.35 81.4926 206.474 82.0926 205.754C82.7046 205.022 83.4846 204.656 84.4326 204.656C85.4406 204.656 86.2026 204.956 86.7186 205.556V204.89H88.4286V212ZM86.9166 208.436C86.9166 207.776 86.7306 207.236 86.3586 206.816C85.9866 206.384 85.5066 206.168 84.9186 206.168C84.3426 206.168 83.8686 206.378 83.4966 206.798C83.1366 207.206 82.9566 207.752 82.9566 208.436C82.9566 209.12 83.1426 209.672 83.5146 210.092C83.8866 210.512 84.3666 210.722 84.9546 210.722C85.5426 210.722 86.0166 210.518 86.3766 210.11C86.7366 209.702 86.9166 209.144 86.9166 208.436ZM94.73 206.744C94.286 206.3 93.788 206.078 93.236 206.078C92.588 206.078 92.078 206.312 91.706 206.78C91.334 207.248 91.148 207.824 91.148 208.508C91.148 209.18 91.358 209.732 91.778 210.164C92.198 210.596 92.708 210.812 93.308 210.812C93.824 210.812 94.298 210.584 94.73 210.128V211.802C94.226 212.09 93.644 212.234 92.984 212.234C91.952 212.234 91.094 211.868 90.41 211.136C89.726 210.404 89.384 209.51 89.384 208.454C89.384 207.398 89.732 206.504 90.428 205.772C91.136 205.028 92.018 204.656 93.074 204.656C93.698 204.656 94.25 204.806 94.73 205.106V206.744ZM97.7336 199.706V205.484C98.1896 204.932 98.9156 204.656 99.9116 204.656C100.656 204.656 101.25 204.944 101.694 205.52C102.138 206.096 102.36 206.81 102.36 207.662V212H100.632V208.238C100.632 206.738 100.17 205.988 99.2456 205.988C98.2376 205.988 97.7336 206.816 97.7336 208.472V212H95.9876V199.706H97.7336ZM105.952 201.902C105.952 202.178 105.85 202.418 105.646 202.622C105.442 202.826 105.202 202.928 104.926 202.928C104.65 202.928 104.41 202.826 104.206 202.622C104.002 202.418 103.9 202.178 103.9 201.902C103.9 201.626 104.002 201.386 104.206 201.182C104.41 200.978 104.65 200.876 104.926 200.876C105.202 200.876 105.442 200.978 105.646 201.182C105.85 201.386 105.952 201.626 105.952 201.902ZM105.808 212H104.062V204.89H105.808V212ZM109.23 205.538C109.722 204.95 110.448 204.656 111.408 204.656C113.04 204.656 113.856 205.658 113.856 207.662V212H112.128V208.238C112.128 206.738 111.666 205.988 110.742 205.988C109.734 205.988 109.23 206.792 109.23 208.4V212H107.484V204.89H109.23V205.538ZM116.656 208.616C116.656 209.3 116.806 209.864 117.106 210.308C117.406 210.752 117.82 210.974 118.348 210.974C119.176 210.974 119.704 210.566 119.932 209.75L121.588 210.02C121.048 211.496 119.968 212.234 118.348 212.234C117.268 212.234 116.404 211.892 115.756 211.208C115.12 210.512 114.802 209.612 114.802 208.508C114.802 207.344 115.108 206.414 115.72 205.718C116.344 205.01 117.184 204.656 118.24 204.656C119.308 204.656 120.136 204.992 120.724 205.664C121.324 206.324 121.624 207.23 121.624 208.382V208.616H116.656ZM120.004 207.644C120.004 207.152 119.848 206.72 119.536 206.348C119.236 205.976 118.84 205.79 118.348 205.79C117.868 205.79 117.472 205.988 117.16 206.384C116.86 206.768 116.71 207.188 116.71 207.644H120.004ZM130.467 212H128.721V199.706H130.467V212ZM133.39 208.616C133.39 209.3 133.54 209.864 133.84 210.308C134.14 210.752 134.554 210.974 135.082 210.974C135.91 210.974 136.438 210.566 136.666 209.75L138.322 210.02C137.782 211.496 136.702 212.234 135.082 212.234C134.002 212.234 133.138 211.892 132.49 211.208C131.854 210.512 131.536 209.612 131.536 208.508C131.536 207.344 131.842 206.414 132.454 205.718C133.078 205.01 133.918 204.656 134.974 204.656C136.042 204.656 136.87 204.992 137.458 205.664C138.058 206.324 138.358 207.23 138.358 208.382V208.616H133.39ZM136.738 207.644C136.738 207.152 136.582 206.72 136.27 206.348C135.97 205.976 135.574 205.79 135.082 205.79C134.602 205.79 134.206 205.988 133.894 206.384C133.594 206.768 133.444 207.188 133.444 207.644H136.738ZM146.032 212H144.322V211.352C143.818 211.94 143.068 212.234 142.072 212.234C141.076 212.234 140.278 211.85 139.678 211.082C139.09 210.314 138.796 209.414 138.796 208.382C138.796 207.35 139.096 206.474 139.696 205.754C140.308 205.022 141.088 204.656 142.036 204.656C143.044 204.656 143.806 204.956 144.322 205.556V204.89H146.032V212ZM144.52 208.436C144.52 207.776 144.334 207.236 143.962 206.816C143.59 206.384 143.11 206.168 142.522 206.168C141.946 206.168 141.472 206.378 141.1 206.798C140.74 207.206 140.56 207.752 140.56 208.436C140.56 209.12 140.746 209.672 141.118 210.092C141.49 210.512 141.97 210.722 142.558 210.722C143.146 210.722 143.62 210.518 143.98 210.11C144.34 209.702 144.52 209.144 144.52 208.436ZM149.237 205.628C149.681 204.98 150.377 204.656 151.325 204.656C151.625 204.656 151.901 204.716 152.153 204.836L151.937 206.42C151.673 206.252 151.385 206.168 151.073 206.168C149.849 206.168 149.237 207.044 149.237 208.796V212H147.491V204.89H149.237V205.628ZM154.546 205.538C155.038 204.95 155.764 204.656 156.724 204.656C158.356 204.656 159.172 205.658 159.172 207.662V212H157.444V208.238C157.444 206.738 156.982 205.988 156.058 205.988C155.05 205.988 154.546 206.792 154.546 208.4V212H152.8V204.89H154.546V205.538ZM162.764 201.902C162.764 202.178 162.662 202.418 162.458 202.622C162.254 202.826 162.014 202.928 161.738 202.928C161.462 202.928 161.222 202.826 161.018 202.622C160.814 202.418 160.712 202.178 160.712 201.902C160.712 201.626 160.814 201.386 161.018 201.182C161.222 200.978 161.462 200.876 161.738 200.876C162.014 200.876 162.254 200.978 162.458 201.182C162.662 201.386 162.764 201.626 162.764 201.902ZM162.62 212H160.874V204.89H162.62V212ZM166.042 205.538C166.534 204.95 167.26 204.656 168.22 204.656C169.852 204.656 170.668 205.658 170.668 207.662V212H168.94V208.238C168.94 206.738 168.478 205.988 167.554 205.988C166.546 205.988 166.042 206.792 166.042 208.4V212H164.296V204.89H166.042V205.538ZM178.886 211.388C178.886 213.824 177.752 215.042 175.484 215.042C174.476 215.042 173.624 214.766 172.928 214.214C172.232 213.674 171.884 212.966 171.884 212.09H173.738C173.738 212.438 173.912 212.78 174.26 213.116C174.608 213.452 174.998 213.62 175.43 213.62C176.57 213.62 177.14 212.936 177.14 211.568V211.118C176.648 211.742 175.898 212.054 174.89 212.054C173.894 212.054 173.108 211.706 172.532 211.01C171.968 210.314 171.686 209.462 171.686 208.454C171.686 207.362 171.992 206.45 172.604 205.718C173.216 204.986 174.008 204.62 174.98 204.62C175.964 204.62 176.684 204.926 177.14 205.538V204.854H178.886V211.388ZM177.392 208.292C177.392 207.644 177.212 207.122 176.852 206.726C176.492 206.33 176.018 206.132 175.43 206.132C174.842 206.132 174.362 206.348 173.99 206.78C173.63 207.212 173.45 207.758 173.45 208.418C173.45 209.834 174.11 210.542 175.43 210.542C176.03 210.542 176.504 210.332 176.852 209.912C177.212 209.48 177.392 208.94 177.392 208.292ZM182.921 210.974C182.921 211.334 182.795 211.646 182.543 211.91C182.303 212.162 182.003 212.288 181.643 212.288C181.283 212.288 180.977 212.162 180.725 211.91C180.473 211.658 180.347 211.358 180.347 211.01C180.347 210.65 180.473 210.344 180.725 210.092C180.977 209.84 181.277 209.714 181.625 209.714C181.985 209.714 182.291 209.834 182.543 210.074C182.795 210.314 182.921 210.614 182.921 210.974Z" fill="white"/>
<path d="M226.758 294.434V296H219.414L222.186 292.49C223.506 290.858 224.28 289.838 224.508 289.43C224.748 289.01 224.868 288.668 224.868 288.404C224.88 288.332 224.886 288.26 224.886 288.188C224.886 287.708 224.724 287.282 224.4 286.91C224.088 286.538 223.674 286.352 223.158 286.352C222.642 286.352 222.234 286.562 221.934 286.982C221.646 287.402 221.502 287.912 221.502 288.512H219.558C219.558 287.432 219.876 286.544 220.512 285.848C221.16 285.14 222.036 284.786 223.14 284.786C224.136 284.786 224.976 285.122 225.66 285.794C226.344 286.466 226.686 287.306 226.686 288.314C226.686 289.262 225.96 290.582 224.508 292.274L222.654 294.434H226.758ZM235.467 290.546C235.467 292.13 235.119 293.486 234.423 294.614C233.727 295.73 232.767 296.288 231.543 296.288C230.331 296.288 229.377 295.724 228.681 294.596C227.985 293.468 227.637 292.118 227.637 290.546C227.637 288.914 227.985 287.546 228.681 286.442C229.389 285.338 230.349 284.786 231.561 284.786C232.773 284.786 233.727 285.35 234.423 286.478C235.119 287.594 235.467 288.95 235.467 290.546ZM229.437 290.528C229.437 291.632 229.629 292.61 230.013 293.462C230.397 294.302 230.919 294.722 231.579 294.722C232.239 294.722 232.749 294.326 233.109 293.534C233.481 292.742 233.667 291.74 233.667 290.528C233.667 289.412 233.475 288.44 233.091 287.612C232.707 286.772 232.191 286.352 231.543 286.352C230.907 286.352 230.397 286.79 230.013 287.666C229.629 288.53 229.437 289.484 229.437 290.528ZM243.492 294.434V296H236.148L238.92 292.49C240.24 290.858 241.014 289.838 241.242 289.43C241.482 289.01 241.602 288.668 241.602 288.404C241.614 288.332 241.62 288.26 241.62 288.188C241.62 287.708 241.458 287.282 241.134 286.91C240.822 286.538 240.408 286.352 239.892 286.352C239.376 286.352 238.968 286.562 238.668 286.982C238.38 287.402 238.236 287.912 238.236 288.512H236.292C236.292 287.432 236.61 286.544 237.246 285.848C237.894 285.14 238.77 284.786 239.874 284.786C240.87 284.786 241.71 285.122 242.394 285.794C243.078 286.466 243.42 287.306 243.42 288.314C243.42 289.262 242.694 290.582 241.242 292.274L239.388 294.434H243.492ZM246.208 286.64V285.074H249.628V296H247.774V286.64H246.208Z" fill="white"/>
<defs>
<clipPath id="clip0_3284_268">
<rect width="38" height="53" fill="white" transform="translate(31 32)"/>
</clipPath>
</defs>
</svg>
