<svg width="270" height="316" viewBox="0 0 270 316" fill="none" xmlns="http://www.w3.org/2000/svg">
<path d="M241.758 310.434V312H234.414L237.186 308.49C238.506 306.858 239.28 305.838 239.508 305.43C239.748 305.01 239.868 304.668 239.868 304.404C239.88 304.332 239.886 304.26 239.886 304.188C239.886 303.708 239.724 303.282 239.4 302.91C239.088 302.538 238.674 302.352 238.158 302.352C237.642 302.352 237.234 302.562 236.934 302.982C236.646 303.402 236.502 303.912 236.502 304.512H234.558C234.558 303.432 234.876 302.544 235.512 301.848C236.16 301.14 237.036 300.786 238.14 300.786C239.136 300.786 239.976 301.122 240.66 301.794C241.344 302.466 241.686 303.306 241.686 304.314C241.686 305.262 240.96 306.582 239.508 308.274L237.654 310.434H241.758ZM250.467 306.546C250.467 308.13 250.119 309.486 249.423 310.614C248.727 311.73 247.767 312.288 246.543 312.288C245.331 312.288 244.377 311.724 243.681 310.596C242.985 309.468 242.637 308.118 242.637 306.546C242.637 304.914 242.985 303.546 243.681 302.442C244.389 301.338 245.349 300.786 246.561 300.786C247.773 300.786 248.727 301.35 249.423 302.478C250.119 303.594 250.467 304.95 250.467 306.546ZM244.437 306.528C244.437 307.632 244.629 308.61 245.013 309.462C245.397 310.302 245.919 310.722 246.579 310.722C247.239 310.722 247.749 310.326 248.109 309.534C248.481 308.742 248.667 307.74 248.667 306.528C248.667 305.412 248.475 304.44 248.091 303.612C247.707 302.772 247.191 302.352 246.543 302.352C245.907 302.352 245.397 302.79 245.013 303.666C244.629 304.53 244.437 305.484 244.437 306.528ZM258.492 310.434V312H251.148L253.92 308.49C255.24 306.858 256.014 305.838 256.242 305.43C256.482 305.01 256.602 304.668 256.602 304.404C256.614 304.332 256.62 304.26 256.62 304.188C256.62 303.708 256.458 303.282 256.134 302.91C255.822 302.538 255.408 302.352 254.892 302.352C254.376 302.352 253.968 302.562 253.668 302.982C253.38 303.402 253.236 303.912 253.236 304.512H251.292C251.292 303.432 251.61 302.544 252.246 301.848C252.894 301.14 253.77 300.786 254.874 300.786C255.87 300.786 256.71 301.122 257.394 301.794C258.078 302.466 258.42 303.306 258.42 304.314C258.42 305.262 257.694 306.582 256.242 308.274L254.388 310.434H258.492ZM266.86 310.434V312H259.516L262.288 308.49C263.608 306.858 264.382 305.838 264.61 305.43C264.85 305.01 264.97 304.668 264.97 304.404C264.982 304.332 264.988 304.26 264.988 304.188C264.988 303.708 264.826 303.282 264.502 302.91C264.19 302.538 263.776 302.352 263.26 302.352C262.744 302.352 262.336 302.562 262.036 302.982C261.748 303.402 261.604 303.912 261.604 304.512H259.66C259.66 303.432 259.978 302.544 260.614 301.848C261.262 301.14 262.138 300.786 263.242 300.786C264.238 300.786 265.078 301.122 265.762 301.794C266.446 302.466 266.788 303.306 266.788 304.314C266.788 305.262 266.062 306.582 264.61 308.274L262.756 310.434H266.86Z" fill="white"/>
<rect width="270" height="316" rx="11" transform="matrix(1 0 0 -1 0 316)" fill="black"/>
<path d="M29.504 111H27.032V96.432H30.896C34.272 96.432 35.96 97.936 35.96 100.944C35.96 104.016 34.408 105.552 31.304 105.552H29.504V111ZM29.504 103.584H30.728C32.536 103.584 33.44 102.704 33.44 100.944C33.44 99.248 32.512 98.4 30.656 98.4H29.504V103.584ZM39.4833 102.504C40.0753 101.64 41.0033 101.208 42.2673 101.208C42.6673 101.208 43.0353 101.288 43.3713 101.448L43.0833 103.56C42.7313 103.336 42.3473 103.224 41.9313 103.224C40.2993 103.224 39.4833 104.392 39.4833 106.728V111H37.1553V101.52H39.4833V102.504ZM47.0894 97.536C47.0894 97.904 46.9534 98.224 46.6814 98.496C46.4094 98.768 46.0894 98.904 45.7214 98.904C45.3534 98.904 45.0334 98.768 44.7614 98.496C44.4894 98.224 44.3534 97.904 44.3534 97.536C44.3534 97.168 44.4894 96.848 44.7614 96.576C45.0334 96.304 45.3534 96.168 45.7214 96.168C46.0894 96.168 46.4094 96.304 46.6814 96.576C46.9534 96.848 47.0894 97.168 47.0894 97.536ZM46.8974 111H44.5694V101.52H46.8974V111ZM51.4599 102.384C52.1159 101.6 53.0839 101.208 54.3639 101.208C56.5399 101.208 57.6279 102.544 57.6279 105.216V111H55.3239V105.984C55.3239 103.984 54.7079 102.984 53.4759 102.984C52.1319 102.984 51.4599 104.056 51.4599 106.2V111H49.1319V101.52H51.4599V102.384ZM66.0176 103.992C65.4256 103.4 64.7616 103.104 64.0256 103.104C63.1616 103.104 62.4816 103.416 61.9856 104.04C61.4896 104.664 61.2416 105.432 61.2416 106.344C61.2416 107.24 61.5216 107.976 62.0816 108.552C62.6416 109.128 63.3216 109.416 64.1216 109.416C64.8096 109.416 65.4416 109.112 66.0176 108.504V110.736C65.3456 111.12 64.5696 111.312 63.6896 111.312C62.3136 111.312 61.1696 110.824 60.2576 109.848C59.3456 108.872 58.8896 107.68 58.8896 106.272C58.8896 104.864 59.3536 103.672 60.2816 102.696C61.2256 101.704 62.4016 101.208 63.8096 101.208C64.6416 101.208 65.3776 101.408 66.0176 101.808V103.992ZM70.5504 97.536C70.5504 97.904 70.4144 98.224 70.1424 98.496C69.8704 98.768 69.5504 98.904 69.1824 98.904C68.8144 98.904 68.4944 98.768 68.2224 98.496C67.9504 98.224 67.8144 97.904 67.8144 97.536C67.8144 97.168 67.9504 96.848 68.2224 96.576C68.4944 96.304 68.8144 96.168 69.1824 96.168C69.5504 96.168 69.8704 96.304 70.1424 96.576C70.4144 96.848 70.5504 97.168 70.5504 97.536ZM70.3584 111H68.0304V101.52H70.3584V111ZM74.9208 102.384C75.5928 101.6 76.5928 101.208 77.9208 101.208C79.1688 101.208 80.2008 101.704 81.0168 102.696C81.8488 103.688 82.2648 104.856 82.2648 106.2C82.2648 107.656 81.8568 108.872 81.0408 109.848C80.2248 110.824 79.1688 111.312 77.8728 111.312C76.4808 111.312 75.5128 110.912 74.9688 110.112L74.9208 115.008H72.5928V101.52H74.9208V102.384ZM79.8888 106.248C79.8888 105.432 79.6568 104.728 79.1928 104.136C78.7288 103.528 78.0888 103.224 77.2728 103.224C76.5208 103.224 75.8968 103.528 75.4008 104.136C74.9048 104.744 74.6568 105.448 74.6568 106.248C74.6568 107.032 74.9208 107.736 75.4488 108.36C75.9768 108.984 76.5848 109.296 77.2728 109.296C78.0888 109.296 78.7288 109.008 79.1928 108.432C79.6568 107.856 79.8888 107.128 79.8888 106.248ZM92.4907 111H90.2107V110.136C89.5387 110.92 88.5387 111.312 87.2107 111.312C85.8827 111.312 84.8187 110.8 84.0187 109.776C83.2347 108.752 82.8427 107.552 82.8427 106.176C82.8427 104.8 83.2427 103.632 84.0427 102.672C84.8587 101.696 85.8987 101.208 87.1627 101.208C88.5067 101.208 89.5227 101.608 90.2107 102.408V101.52H92.4907V111ZM90.4747 106.248C90.4747 105.368 90.2267 104.648 89.7307 104.088C89.2347 103.512 88.5947 103.224 87.8107 103.224C87.0427 103.224 86.4107 103.504 85.9147 104.064C85.4347 104.608 85.1947 105.336 85.1947 106.248C85.1947 107.16 85.4427 107.896 85.9387 108.456C86.4347 109.016 87.0747 109.296 87.8587 109.296C88.6427 109.296 89.2747 109.024 89.7547 108.48C90.2347 107.936 90.4747 107.192 90.4747 106.248ZM96.9566 111H94.6286V94.608H96.9566V111Z" fill="white"/>
<path fill-rule="evenodd" clip-rule="evenodd" d="M27 31C26.4477 31 26 31.4477 26 32V46.5342H48.0068V31H27ZM31.7464 35.3151C31.1942 35.3151 30.7464 35.7628 30.7464 36.3151V41.2192C30.7464 41.7715 31.1942 42.2192 31.7464 42.2192H42.2601C42.8124 42.2192 43.2601 41.7715 43.2601 41.2192V36.3151C43.2601 35.7628 42.8124 35.3151 42.2601 35.3151H31.7464Z" fill="white"/>
<path d="M26 46.1643H32.9164L26 63.141V46.1643Z" fill="white"/>
<path fill-rule="evenodd" clip-rule="evenodd" d="M48.0068 46.7932H26V62.7712H48.0068V46.7932ZM31.7464 51.2316C31.1942 51.2316 30.7464 51.6793 30.7464 52.2316V57.3329C30.7464 57.8852 31.1942 58.3329 31.7464 58.3329H42.2601C42.8124 58.3329 43.2601 57.8852 43.2601 57.3329V52.2316C43.2601 51.6793 42.8124 51.2316 42.2601 51.2316H31.7464Z" fill="white"/>
<path d="M26 62H33L26 70V62Z" fill="white"/>
<path fill-rule="evenodd" clip-rule="evenodd" d="M69.0068 31H48V46.5342H70.0068V32C70.0068 31.4477 69.5591 31 69.0068 31ZM53.7464 35.3151C53.1942 35.3151 52.7464 35.7628 52.7464 36.3151V41.2192C52.7464 41.7715 53.1942 42.2192 53.7464 42.2192H64.2601C64.8124 42.2192 65.2601 41.7715 65.2601 41.2192V36.3151C65.2601 35.7628 64.8124 35.3151 64.2601 35.3151H53.7464Z" fill="white"/>
<path d="M48 46.1643H54.9164L48 63.141V46.1643Z" fill="white"/>
<path fill-rule="evenodd" clip-rule="evenodd" d="M70.0068 46.7932H48V62.7712H69.0068C69.5591 62.7712 70.0068 62.3235 70.0068 61.7712V46.7932ZM53.7464 51.2316C53.1942 51.2316 52.7464 51.6793 52.7464 52.2316V57.3329C52.7464 57.8852 53.1942 58.3329 53.7464 58.3329H64.2601C64.8124 58.3329 65.2601 57.8852 65.2601 57.3329V52.2316C65.2601 51.6793 64.8124 51.2316 64.2601 51.2316H53.7464Z" fill="white"/>
<path d="M48 62H55L48 70V62Z" fill="white"/>
<path d="M26.808 168.552L25.836 171H23.874L28.122 159.786H29.778L33.918 171H31.938L31.02 168.552H26.808ZM28.842 162.468L27.258 167.094H30.516L28.842 162.468ZM42.5023 171H40.7563V165.456H39.9283V164.034H40.7563V161.802C40.7563 159.63 41.6023 158.544 43.2943 158.544C43.6423 158.544 43.9663 158.622 44.2663 158.778V160.29C43.9543 160.134 43.6783 160.056 43.4383 160.056C43.1143 160.056 42.8743 160.176 42.7183 160.416C42.5743 160.644 42.5023 161.202 42.5023 162.09V164.034H44.2663V165.456H42.5023V171ZM47.0768 160.902C47.0768 161.178 46.9748 161.418 46.7708 161.622C46.5668 161.826 46.3268 161.928 46.0508 161.928C45.7748 161.928 45.5348 161.826 45.3308 161.622C45.1268 161.418 45.0248 161.178 45.0248 160.902C45.0248 160.626 45.1268 160.386 45.3308 160.182C45.5348 159.978 45.7748 159.876 46.0508 159.876C46.3268 159.876 46.5668 159.978 46.7708 160.182C46.9748 160.386 47.0768 160.626 47.0768 160.902ZM46.9328 171H45.1868V163.89H46.9328V171ZM50.3547 164.538C50.8467 163.95 51.5727 163.656 52.5327 163.656C54.1647 163.656 54.9807 164.658 54.9807 166.662V171H53.2527V167.238C53.2527 165.738 52.7907 164.988 51.8667 164.988C50.8587 164.988 50.3547 165.792 50.3547 167.4V171H48.6087V163.89H50.3547V164.538ZM63.1629 171H61.4529V170.352C60.9489 170.94 60.1989 171.234 59.2029 171.234C58.2069 171.234 57.4089 170.85 56.8089 170.082C56.2209 169.314 55.9269 168.414 55.9269 167.382C55.9269 166.35 56.2269 165.474 56.8269 164.754C57.4389 164.022 58.2189 163.656 59.1669 163.656C60.1749 163.656 60.9369 163.956 61.4529 164.556V163.89H63.1629V171ZM61.6509 167.436C61.6509 166.776 61.4649 166.236 61.0929 165.816C60.7209 165.384 60.2409 165.168 59.6529 165.168C59.0769 165.168 58.6029 165.378 58.2309 165.798C57.8709 166.206 57.6909 166.752 57.6909 167.436C57.6909 168.12 57.8769 168.672 58.2489 169.092C58.6209 169.512 59.1009 169.722 59.6889 169.722C60.2769 169.722 60.7509 169.518 61.1109 169.11C61.4709 168.702 61.6509 168.144 61.6509 167.436ZM66.3683 164.538C66.8603 163.95 67.5863 163.656 68.5463 163.656C70.1783 163.656 70.9943 164.658 70.9943 166.662V171H69.2663V167.238C69.2663 165.738 68.8043 164.988 67.8803 164.988C66.8723 164.988 66.3683 165.792 66.3683 167.4V171H64.6223V163.89H66.3683V164.538ZM77.2866 165.744C76.8426 165.3 76.3446 165.078 75.7926 165.078C75.1446 165.078 74.6346 165.312 74.2626 165.78C73.8906 166.248 73.7046 166.824 73.7046 167.508C73.7046 168.18 73.9146 168.732 74.3346 169.164C74.7546 169.596 75.2646 169.812 75.8646 169.812C76.3806 169.812 76.8546 169.584 77.2866 169.128V170.802C76.7826 171.09 76.2006 171.234 75.5406 171.234C74.5086 171.234 73.6506 170.868 72.9666 170.136C72.2826 169.404 71.9406 168.51 71.9406 167.454C71.9406 166.398 72.2886 165.504 72.9846 164.772C73.6926 164.028 74.5746 163.656 75.6306 163.656C76.2546 163.656 76.8066 163.806 77.2866 164.106V165.744ZM80.6862 160.902C80.6862 161.178 80.5842 161.418 80.3802 161.622C80.1762 161.826 79.9362 161.928 79.6602 161.928C79.3842 161.928 79.1442 161.826 78.9402 161.622C78.7362 161.418 78.6342 161.178 78.6342 160.902C78.6342 160.626 78.7362 160.386 78.9402 160.182C79.1442 159.978 79.3842 159.876 79.6602 159.876C79.9362 159.876 80.1762 159.978 80.3802 160.182C80.5842 160.386 80.6862 160.626 80.6862 160.902ZM80.5422 171H78.7962V163.89H80.5422V171ZM88.95 171H87.24V170.352C86.736 170.94 85.986 171.234 84.99 171.234C83.994 171.234 83.196 170.85 82.596 170.082C82.008 169.314 81.714 168.414 81.714 167.382C81.714 166.35 82.014 165.474 82.614 164.754C83.226 164.022 84.006 163.656 84.954 163.656C85.962 163.656 86.724 163.956 87.24 164.556V163.89H88.95V171ZM87.438 167.436C87.438 166.776 87.252 166.236 86.88 165.816C86.508 165.384 86.028 165.168 85.44 165.168C84.864 165.168 84.39 165.378 84.018 165.798C83.658 166.206 83.478 166.752 83.478 167.436C83.478 168.12 83.664 168.672 84.036 169.092C84.408 169.512 84.888 169.722 85.476 169.722C86.064 169.722 86.538 169.518 86.898 169.11C87.258 168.702 87.438 168.144 87.438 167.436ZM92.2995 171H90.5535V158.706H92.2995V171ZM101.63 164.538C102.134 163.95 102.884 163.656 103.88 163.656C104.816 163.656 105.59 164.028 106.202 164.772C106.826 165.516 107.138 166.392 107.138 167.4C107.138 168.492 106.832 169.404 106.22 170.136C105.608 170.868 104.816 171.234 103.844 171.234C102.8 171.234 102.074 170.934 101.666 170.334L101.63 174.006H99.8841V163.89H101.63V164.538ZM105.356 167.436C105.356 166.824 105.182 166.296 104.834 165.852C104.486 165.396 104.006 165.168 103.394 165.168C102.83 165.168 102.362 165.396 101.99 165.852C101.618 166.308 101.432 166.836 101.432 167.436C101.432 168.024 101.63 168.552 102.026 169.02C102.422 169.488 102.878 169.722 103.394 169.722C104.006 169.722 104.486 169.506 104.834 169.074C105.182 168.642 105.356 168.096 105.356 167.436ZM109.965 171H108.219V158.706H109.965V171ZM118.27 171H116.56V170.352C116.056 170.94 115.306 171.234 114.31 171.234C113.314 171.234 112.516 170.85 111.916 170.082C111.328 169.314 111.034 168.414 111.034 167.382C111.034 166.35 111.334 165.474 111.934 164.754C112.546 164.022 113.326 163.656 114.274 163.656C115.282 163.656 116.044 163.956 116.56 164.556V163.89H118.27V171ZM116.758 167.436C116.758 166.776 116.572 166.236 116.2 165.816C115.828 165.384 115.348 165.168 114.76 165.168C114.184 165.168 113.71 165.378 113.338 165.798C112.978 166.206 112.798 166.752 112.798 167.436C112.798 168.12 112.984 168.672 113.356 169.092C113.728 169.512 114.208 169.722 114.796 169.722C115.384 169.722 115.858 169.518 116.218 169.11C116.578 168.702 116.758 168.144 116.758 167.436ZM121.872 171H120.126V165.456H119.28V164.034H120.126V161.478H121.872V164.034H123.258V165.456H121.872V171ZM125.664 171H123.918V165.456H123.09V164.034H123.918V161.802C123.918 159.63 124.764 158.544 126.456 158.544C126.804 158.544 127.128 158.622 127.428 158.778V160.29C127.116 160.134 126.84 160.056 126.6 160.056C126.276 160.056 126.036 160.176 125.88 160.416C125.736 160.644 125.664 161.202 125.664 162.09V164.034H127.428V165.456H125.664V171ZM135.081 167.436C135.081 168.552 134.739 169.464 134.055 170.172C133.371 170.88 132.471 171.234 131.355 171.234C130.251 171.234 129.351 170.88 128.655 170.172C127.959 169.464 127.611 168.558 127.611 167.454C127.611 166.338 127.953 165.426 128.637 164.718C129.321 164.01 130.221 163.656 131.337 163.656C132.453 163.656 133.353 164.01 134.037 164.718C134.733 165.414 135.081 166.32 135.081 167.436ZM129.375 167.472C129.375 168.132 129.561 168.672 129.933 169.092C130.305 169.512 130.785 169.722 131.373 169.722C131.961 169.722 132.429 169.5 132.777 169.056C133.137 168.6 133.317 168.066 133.317 167.454C133.317 166.83 133.137 166.296 132.777 165.852C132.417 165.396 131.943 165.168 131.355 165.168C130.779 165.168 130.305 165.384 129.933 165.816C129.561 166.248 129.375 166.8 129.375 167.472ZM137.788 164.628C138.232 163.98 138.928 163.656 139.876 163.656C140.176 163.656 140.452 163.716 140.704 163.836L140.488 165.42C140.224 165.252 139.936 165.168 139.624 165.168C138.4 165.168 137.788 166.044 137.788 167.796V171H136.042V163.89H137.788V164.628ZM143.097 164.52C143.541 163.944 144.225 163.656 145.149 163.656C145.953 163.656 146.589 164.028 147.057 164.772C147.513 164.028 148.251 163.656 149.271 163.656C150.771 163.656 151.521 164.628 151.521 166.572V171H149.793V167.256C149.793 165.744 149.379 164.988 148.551 164.988C147.723 164.988 147.309 165.828 147.309 167.508V171H145.563V167.4C145.563 165.792 145.197 164.988 144.465 164.988C143.553 164.988 143.097 165.828 143.097 167.508V171H141.351V163.89H143.097V164.52ZM161.141 171H159.395V165.456H158.549V164.034H159.395V161.478H161.141V164.034H162.527V165.456H161.141V171ZM169.956 167.436C169.956 168.552 169.614 169.464 168.93 170.172C168.246 170.88 167.346 171.234 166.23 171.234C165.126 171.234 164.226 170.88 163.53 170.172C162.834 169.464 162.486 168.558 162.486 167.454C162.486 166.338 162.828 165.426 163.512 164.718C164.196 164.01 165.096 163.656 166.212 163.656C167.328 163.656 168.228 164.01 168.912 164.718C169.608 165.414 169.956 166.32 169.956 167.436ZM164.25 167.472C164.25 168.132 164.436 168.672 164.808 169.092C165.18 169.512 165.66 169.722 166.248 169.722C166.836 169.722 167.304 169.5 167.652 169.056C168.012 168.6 168.192 168.066 168.192 167.454C168.192 166.83 168.012 166.296 167.652 165.852C167.292 165.396 166.818 165.168 166.23 165.168C165.654 165.168 165.18 165.384 164.808 165.816C164.436 166.248 164.25 166.8 164.25 167.472ZM24.72 176.706H26.466V182.538C26.97 181.95 27.72 181.656 28.716 181.656C29.652 181.656 30.426 182.028 31.038 182.772C31.662 183.516 31.974 184.392 31.974 185.4C31.974 186.492 31.668 187.404 31.056 188.136C30.444 188.868 29.652 189.234 28.68 189.234C27.636 189.234 26.91 188.934 26.502 188.334L26.466 189H24.72V176.706ZM30.192 185.436C30.192 184.836 30.006 184.308 29.634 183.852C29.262 183.396 28.788 183.168 28.212 183.168C27.636 183.168 27.168 183.396 26.808 183.852C26.448 184.296 26.268 184.83 26.268 185.454C26.268 186.066 26.454 186.6 26.826 187.056C27.21 187.5 27.678 187.722 28.23 187.722C28.83 187.722 29.304 187.506 29.652 187.074C30.012 186.63 30.192 186.084 30.192 185.436ZM34.2614 185.616C34.2614 186.3 34.4114 186.864 34.7114 187.308C35.0114 187.752 35.4254 187.974 35.9534 187.974C36.7814 187.974 37.3094 187.566 37.5374 186.75L39.1934 187.02C38.6534 188.496 37.5734 189.234 35.9534 189.234C34.8734 189.234 34.0094 188.892 33.3614 188.208C32.7254 187.512 32.4074 186.612 32.4074 185.508C32.4074 184.344 32.7134 183.414 33.3254 182.718C33.9494 182.01 34.7894 181.656 35.8454 181.656C36.9134 181.656 37.7414 181.992 38.3294 182.664C38.9294 183.324 39.2294 184.23 39.2294 185.382V185.616H34.2614ZM37.6094 184.644C37.6094 184.152 37.4534 183.72 37.1414 183.348C36.8414 182.976 36.4454 182.79 35.9534 182.79C35.4734 182.79 35.0774 182.988 34.7654 183.384C34.4654 183.768 34.3154 184.188 34.3154 184.644H37.6094ZM42.3132 189H40.5672V183.456H39.7212V182.034H40.5672V179.478H42.3132V182.034H43.6992V183.456H42.3132V189ZM46.2858 189H44.5398V183.456H43.6938V182.034H44.5398V179.478H46.2858V182.034H47.6718V183.456H46.2858V189ZM49.4665 185.616C49.4665 186.3 49.6165 186.864 49.9165 187.308C50.2165 187.752 50.6305 187.974 51.1585 187.974C51.9865 187.974 52.5145 187.566 52.7425 186.75L54.3985 187.02C53.8585 188.496 52.7785 189.234 51.1585 189.234C50.0785 189.234 49.2145 188.892 48.5665 188.208C47.9305 187.512 47.6125 186.612 47.6125 185.508C47.6125 184.344 47.9185 183.414 48.5305 182.718C49.1545 182.01 49.9945 181.656 51.0505 181.656C52.1185 181.656 52.9465 181.992 53.5345 182.664C54.1345 183.324 54.4345 184.23 54.4345 185.382V185.616H49.4665ZM52.8145 184.644C52.8145 184.152 52.6585 183.72 52.3465 183.348C52.0465 182.976 51.6505 182.79 51.1585 182.79C50.6785 182.79 50.2825 182.988 49.9705 183.384C49.6705 183.768 49.5205 184.188 49.5205 184.644H52.8145ZM57.1223 182.628C57.5663 181.98 58.2623 181.656 59.2103 181.656C59.5103 181.656 59.7863 181.716 60.0383 181.836L59.8223 183.42C59.5583 183.252 59.2703 183.168 58.9583 183.168C57.7343 183.168 57.1223 184.044 57.1223 185.796V189H55.3763V181.89H57.1223V182.628ZM70.4946 183.366C70.1106 183.006 69.7086 182.826 69.2886 182.826C68.6526 182.826 68.3346 183.114 68.3346 183.69C68.3346 184.014 68.6226 184.278 69.1986 184.482C70.2546 184.866 70.9086 185.22 71.1606 185.544C71.4126 185.856 71.5386 186.246 71.5386 186.714C71.5386 187.482 71.2686 188.094 70.7286 188.55C70.2006 189.006 69.5466 189.234 68.7666 189.234C67.7586 189.234 66.9246 188.838 66.2646 188.046L67.0386 187.056C67.6386 187.656 68.1906 187.956 68.6946 187.956C69.4266 187.956 69.7926 187.602 69.7926 186.894C69.7926 186.534 69.6006 186.27 69.2166 186.102C68.8326 185.922 68.5386 185.79 68.3346 185.706C67.2306 185.226 66.6786 184.644 66.6786 183.96C66.6786 183.276 66.8826 182.724 67.2906 182.304C67.7106 181.872 68.2566 181.656 68.9286 181.656C69.8886 181.656 70.6506 181.902 71.2146 182.394L70.4946 183.366ZM73.988 185.616C73.988 186.3 74.138 186.864 74.438 187.308C74.738 187.752 75.152 187.974 75.68 187.974C76.508 187.974 77.036 187.566 77.264 186.75L78.92 187.02C78.38 188.496 77.3 189.234 75.68 189.234C74.6 189.234 73.736 188.892 73.088 188.208C72.452 187.512 72.134 186.612 72.134 185.508C72.134 184.344 72.44 183.414 73.052 182.718C73.676 182.01 74.516 181.656 75.572 181.656C76.64 181.656 77.468 181.992 78.056 182.664C78.656 183.324 78.956 184.23 78.956 185.382V185.616H73.988ZM77.336 184.644C77.336 184.152 77.18 183.72 76.868 183.348C76.568 182.976 76.172 182.79 75.68 182.79C75.2 182.79 74.804 182.988 74.492 183.384C74.192 183.768 74.042 184.188 74.042 184.644H77.336ZM81.6437 182.628C82.0877 181.98 82.7837 181.656 83.7317 181.656C84.0317 181.656 84.3077 181.716 84.5597 181.836L84.3437 183.42C84.0797 183.252 83.7917 183.168 83.4797 183.168C82.2557 183.168 81.6437 184.044 81.6437 185.796V189H79.8977V181.89H81.6437V182.628ZM88.1223 186.39L89.8683 181.89H91.8123L88.5363 189.144H87.4923L84.2343 181.89H86.1603L88.1223 186.39ZM93.6227 185.616C93.6227 186.3 93.7727 186.864 94.0727 187.308C94.3727 187.752 94.7867 187.974 95.3147 187.974C96.1427 187.974 96.6707 187.566 96.8987 186.75L98.5547 187.02C98.0147 188.496 96.9347 189.234 95.3147 189.234C94.2347 189.234 93.3707 188.892 92.7227 188.208C92.0867 187.512 91.7687 186.612 91.7687 185.508C91.7687 184.344 92.0747 183.414 92.6867 182.718C93.3107 182.01 94.1507 181.656 95.2067 181.656C96.2747 181.656 97.1027 181.992 97.6907 182.664C98.2907 183.324 98.5907 184.23 98.5907 185.382V185.616H93.6227ZM96.9707 184.644C96.9707 184.152 96.8147 183.72 96.5027 183.348C96.2027 182.976 95.8067 182.79 95.3147 182.79C94.8347 182.79 94.4387 182.988 94.1267 183.384C93.8267 183.768 93.6767 184.188 93.6767 184.644H96.9707ZM107.686 189H105.94V183.456H105.094V182.034H105.94V179.478H107.686V182.034H109.072V183.456H107.686V189ZM111.263 176.706V182.484C111.719 181.932 112.445 181.656 113.441 181.656C114.185 181.656 114.779 181.944 115.223 182.52C115.667 183.096 115.889 183.81 115.889 184.662V189H114.161V185.238C114.161 183.738 113.699 182.988 112.775 182.988C111.767 182.988 111.263 183.816 111.263 185.472V189H109.517V176.706H111.263ZM118.689 185.616C118.689 186.3 118.839 186.864 119.139 187.308C119.439 187.752 119.853 187.974 120.381 187.974C121.209 187.974 121.737 187.566 121.965 186.75L123.621 187.02C123.081 188.496 122.001 189.234 120.381 189.234C119.301 189.234 118.437 188.892 117.789 188.208C117.153 187.512 116.835 186.612 116.835 185.508C116.835 184.344 117.141 183.414 117.753 182.718C118.377 182.01 119.217 181.656 120.273 181.656C121.341 181.656 122.169 181.992 122.757 182.664C123.357 183.324 123.657 184.23 123.657 185.382V185.616H118.689ZM122.037 184.644C122.037 184.152 121.881 183.72 121.569 183.348C121.269 182.976 120.873 182.79 120.381 182.79C119.901 182.79 119.505 182.988 119.193 183.384C118.893 183.768 118.743 184.188 118.743 184.644H122.037ZM132.357 182.538C132.849 181.95 133.575 181.656 134.535 181.656C136.167 181.656 136.983 182.658 136.983 184.662V189H135.255V185.238C135.255 183.738 134.793 182.988 133.869 182.988C132.861 182.988 132.357 183.792 132.357 185.4V189H130.611V181.89H132.357V182.538ZM139.783 185.616C139.783 186.3 139.933 186.864 140.233 187.308C140.533 187.752 140.947 187.974 141.475 187.974C142.303 187.974 142.831 187.566 143.059 186.75L144.715 187.02C144.175 188.496 143.095 189.234 141.475 189.234C140.395 189.234 139.531 188.892 138.883 188.208C138.247 187.512 137.929 186.612 137.929 185.508C137.929 184.344 138.235 183.414 138.847 182.718C139.471 182.01 140.311 181.656 141.367 181.656C142.435 181.656 143.263 181.992 143.851 182.664C144.451 183.324 144.751 184.23 144.751 185.382V185.616H139.783ZM143.131 184.644C143.131 184.152 142.975 183.72 142.663 183.348C142.363 182.976 141.967 182.79 141.475 182.79C140.995 182.79 140.599 182.988 140.287 183.384C139.987 183.768 139.837 184.188 139.837 184.644H143.131ZM147.043 185.616C147.043 186.3 147.193 186.864 147.493 187.308C147.793 187.752 148.207 187.974 148.735 187.974C149.563 187.974 150.091 187.566 150.319 186.75L151.975 187.02C151.435 188.496 150.355 189.234 148.735 189.234C147.655 189.234 146.791 188.892 146.143 188.208C145.507 187.512 145.189 186.612 145.189 185.508C145.189 184.344 145.495 183.414 146.107 182.718C146.731 182.01 147.571 181.656 148.627 181.656C149.695 181.656 150.523 181.992 151.111 182.664C151.711 183.324 152.011 184.23 152.011 185.382V185.616H147.043ZM150.391 184.644C150.391 184.152 150.235 183.72 149.923 183.348C149.623 182.976 149.227 182.79 148.735 182.79C148.255 182.79 147.859 182.988 147.547 183.384C147.247 183.768 147.097 184.188 147.097 184.644H150.391ZM157.956 188.334C157.488 188.934 156.75 189.234 155.742 189.234C154.734 189.234 153.93 188.85 153.33 188.082C152.742 187.314 152.448 186.414 152.448 185.382C152.448 184.35 152.748 183.474 153.348 182.754C153.96 182.022 154.74 181.656 155.688 181.656C156.696 181.656 157.44 181.95 157.92 182.538L157.956 176.706H159.702V189H157.956V188.334ZM158.154 185.436C158.154 184.812 157.962 184.278 157.578 183.834C157.194 183.39 156.732 183.168 156.192 183.168C155.652 183.168 155.184 183.39 154.788 183.834C154.404 184.266 154.212 184.806 154.212 185.454C154.212 186.09 154.398 186.63 154.77 187.074C155.154 187.506 155.634 187.722 156.21 187.722C156.786 187.722 157.254 187.512 157.614 187.092C157.974 186.66 158.154 186.108 158.154 185.436ZM164.942 183.366C164.558 183.006 164.156 182.826 163.736 182.826C163.1 182.826 162.782 183.114 162.782 183.69C162.782 184.014 163.07 184.278 163.646 184.482C164.702 184.866 165.356 185.22 165.608 185.544C165.86 185.856 165.986 186.246 165.986 186.714C165.986 187.482 165.716 188.094 165.176 188.55C164.648 189.006 163.994 189.234 163.214 189.234C162.206 189.234 161.372 188.838 160.712 188.046L161.486 187.056C162.086 187.656 162.638 187.956 163.142 187.956C163.874 187.956 164.24 187.602 164.24 186.894C164.24 186.534 164.048 186.27 163.664 186.102C163.28 185.922 162.986 185.79 162.782 185.706C161.678 185.226 161.126 184.644 161.126 183.96C161.126 183.276 161.33 182.724 161.738 182.304C162.158 181.872 162.704 181.656 163.376 181.656C164.336 181.656 165.098 181.902 165.662 182.394L164.942 183.366ZM180.081 185.436C180.081 186.552 179.739 187.464 179.055 188.172C178.371 188.88 177.471 189.234 176.355 189.234C175.251 189.234 174.351 188.88 173.655 188.172C172.959 187.464 172.611 186.558 172.611 185.454C172.611 184.338 172.953 183.426 173.637 182.718C174.321 182.01 175.221 181.656 176.337 181.656C177.453 181.656 178.353 182.01 179.037 182.718C179.733 183.414 180.081 184.32 180.081 185.436ZM174.375 185.472C174.375 186.132 174.561 186.672 174.933 187.092C175.305 187.512 175.785 187.722 176.373 187.722C176.961 187.722 177.429 187.5 177.777 187.056C178.137 186.6 178.317 186.066 178.317 185.454C178.317 184.83 178.137 184.296 177.777 183.852C177.417 183.396 176.943 183.168 176.355 183.168C175.779 183.168 175.305 183.384 174.933 183.816C174.561 184.248 174.375 184.8 174.375 185.472ZM183.004 189H181.258V183.456H180.43V182.034H181.258V179.802C181.258 177.63 182.104 176.544 183.796 176.544C184.144 176.544 184.468 176.622 184.768 176.778V178.29C184.456 178.134 184.18 178.056 183.94 178.056C183.616 178.056 183.376 178.176 183.22 178.416C183.076 178.644 183.004 179.202 183.004 180.09V182.034H184.768V183.456H183.004V189ZM26.466 200.52C26.91 199.944 27.594 199.656 28.518 199.656C29.322 199.656 29.958 200.028 30.426 200.772C30.882 200.028 31.62 199.656 32.64 199.656C34.14 199.656 34.89 200.628 34.89 202.572V207H33.162V203.256C33.162 201.744 32.748 200.988 31.92 200.988C31.092 200.988 30.678 201.828 30.678 203.508V207H28.932V203.4C28.932 201.792 28.566 200.988 27.834 200.988C26.922 200.988 26.466 201.828 26.466 203.508V207H24.72V199.89H26.466V200.52ZM38.4987 196.902C38.4987 197.178 38.3967 197.418 38.1927 197.622C37.9887 197.826 37.7487 197.928 37.4727 197.928C37.1967 197.928 36.9567 197.826 36.7527 197.622C36.5487 197.418 36.4467 197.178 36.4467 196.902C36.4467 196.626 36.5487 196.386 36.7527 196.182C36.9567 195.978 37.1967 195.876 37.4727 195.876C37.7487 195.876 37.9887 195.978 38.1927 196.182C38.3967 196.386 38.4987 196.626 38.4987 196.902ZM38.3547 207H36.6087V199.89H38.3547V207ZM44.8725 201.744C44.4285 201.3 43.9305 201.078 43.3785 201.078C42.7305 201.078 42.2205 201.312 41.8485 201.78C41.4765 202.248 41.2905 202.824 41.2905 203.508C41.2905 204.18 41.5005 204.732 41.9205 205.164C42.3405 205.596 42.8505 205.812 43.4505 205.812C43.9665 205.812 44.4405 205.584 44.8725 205.128V206.802C44.3685 207.09 43.7865 207.234 43.1265 207.234C42.0945 207.234 41.2365 206.868 40.5525 206.136C39.8685 205.404 39.5265 204.51 39.5265 203.454C39.5265 202.398 39.8745 201.504 40.5705 200.772C41.2785 200.028 42.1605 199.656 43.2165 199.656C43.8405 199.656 44.3925 199.806 44.8725 200.106V201.744ZM47.8762 200.628C48.3202 199.98 49.0162 199.656 49.9642 199.656C50.2642 199.656 50.5402 199.716 50.7922 199.836L50.5762 201.42C50.3122 201.252 50.0242 201.168 49.7122 201.168C48.4882 201.168 47.8762 202.044 47.8762 203.796V207H46.1302V199.89H47.8762V200.628ZM58.4228 203.436C58.4228 204.552 58.0808 205.464 57.3968 206.172C56.7128 206.88 55.8128 207.234 54.6968 207.234C53.5928 207.234 52.6928 206.88 51.9968 206.172C51.3008 205.464 50.9528 204.558 50.9528 203.454C50.9528 202.338 51.2948 201.426 51.9788 200.718C52.6628 200.01 53.5628 199.656 54.6788 199.656C55.7948 199.656 56.6948 200.01 57.3788 200.718C58.0748 201.414 58.4228 202.32 58.4228 203.436ZM52.7168 203.472C52.7168 204.132 52.9028 204.672 53.2748 205.092C53.6468 205.512 54.1268 205.722 54.7148 205.722C55.3028 205.722 55.7708 205.5 56.1188 205.056C56.4788 204.6 56.6588 204.066 56.6588 203.454C56.6588 202.83 56.4788 202.296 56.1188 201.852C55.7588 201.396 55.2848 201.168 54.6968 201.168C54.1208 201.168 53.6468 201.384 53.2748 201.816C52.9028 202.248 52.7168 202.8 52.7168 203.472ZM62.8221 201.528V203.184H59.2941V201.528H62.8221ZM64.1653 194.706H65.9113V200.538C66.4153 199.95 67.1653 199.656 68.1613 199.656C69.0973 199.656 69.8713 200.028 70.4833 200.772C71.1073 201.516 71.4193 202.392 71.4193 203.4C71.4193 204.492 71.1133 205.404 70.5013 206.136C69.8893 206.868 69.0973 207.234 68.1253 207.234C67.0813 207.234 66.3553 206.934 65.9473 206.334L65.9113 207H64.1653V194.706ZM69.6373 203.436C69.6373 202.836 69.4513 202.308 69.0793 201.852C68.7073 201.396 68.2333 201.168 67.6573 201.168C67.0813 201.168 66.6133 201.396 66.2533 201.852C65.8933 202.296 65.7133 202.83 65.7133 203.454C65.7133 204.066 65.8993 204.6 66.2713 205.056C66.6553 205.5 67.1233 205.722 67.6753 205.722C68.2753 205.722 68.7493 205.506 69.0973 205.074C69.4573 204.63 69.6373 204.084 69.6373 203.436ZM74.0667 199.89V203.742C74.0667 205.122 74.5467 205.812 75.5067 205.812C76.4667 205.812 76.9467 205.122 76.9467 203.742V199.89H78.6927V204.066C78.6927 206.178 77.6307 207.234 75.5067 207.234C73.3827 207.234 72.3207 206.178 72.3207 204.066V199.89H74.0667ZM83.9067 201.366C83.5227 201.006 83.1207 200.826 82.7007 200.826C82.0647 200.826 81.7467 201.114 81.7467 201.69C81.7467 202.014 82.0347 202.278 82.6107 202.482C83.6667 202.866 84.3207 203.22 84.5727 203.544C84.8247 203.856 84.9507 204.246 84.9507 204.714C84.9507 205.482 84.6807 206.094 84.1407 206.55C83.6127 207.006 82.9587 207.234 82.1787 207.234C81.1707 207.234 80.3367 206.838 79.6767 206.046L80.4507 205.056C81.0507 205.656 81.6027 205.956 82.1067 205.956C82.8387 205.956 83.2047 205.602 83.2047 204.894C83.2047 204.534 83.0127 204.27 82.6287 204.102C82.2447 203.922 81.9507 203.79 81.7467 203.706C80.6427 203.226 80.0907 202.644 80.0907 201.96C80.0907 201.276 80.2947 200.724 80.7027 200.304C81.1227 199.872 81.6687 199.656 82.3407 199.656C83.3007 199.656 84.0627 199.902 84.6267 200.394L83.9067 201.366ZM88.1921 196.902C88.1921 197.178 88.0901 197.418 87.8861 197.622C87.6821 197.826 87.4421 197.928 87.1661 197.928C86.8901 197.928 86.6501 197.826 86.4461 197.622C86.2421 197.418 86.1401 197.178 86.1401 196.902C86.1401 196.626 86.2421 196.386 86.4461 196.182C86.6501 195.978 86.8901 195.876 87.1661 195.876C87.4421 195.876 87.6821 195.978 87.8861 196.182C88.0901 196.386 88.1921 196.626 88.1921 196.902ZM88.0481 207H86.3021V199.89H88.0481V207ZM91.4699 200.538C91.9619 199.95 92.6879 199.656 93.6479 199.656C95.2799 199.656 96.0959 200.658 96.0959 202.662V207H94.3679V203.238C94.3679 201.738 93.9059 200.988 92.9819 200.988C91.9739 200.988 91.4699 201.792 91.4699 203.4V207H89.7239V199.89H91.4699V200.538ZM98.8962 203.616C98.8962 204.3 99.0462 204.864 99.3462 205.308C99.6462 205.752 100.06 205.974 100.588 205.974C101.416 205.974 101.944 205.566 102.172 204.75L103.828 205.02C103.288 206.496 102.208 207.234 100.588 207.234C99.5082 207.234 98.6442 206.892 97.9962 206.208C97.3602 205.512 97.0422 204.612 97.0422 203.508C97.0422 202.344 97.3482 201.414 97.9602 200.718C98.5842 200.01 99.4242 199.656 100.48 199.656C101.548 199.656 102.376 199.992 102.964 200.664C103.564 201.324 103.864 202.23 103.864 203.382V203.616H98.8962ZM102.244 202.644C102.244 202.152 102.088 201.72 101.776 201.348C101.476 200.976 101.08 200.79 100.588 200.79C100.108 200.79 99.7122 200.988 99.4002 201.384C99.1002 201.768 98.9502 202.188 98.9502 202.644H102.244ZM108.604 201.366C108.22 201.006 107.818 200.826 107.398 200.826C106.762 200.826 106.444 201.114 106.444 201.69C106.444 202.014 106.732 202.278 107.308 202.482C108.364 202.866 109.018 203.22 109.27 203.544C109.522 203.856 109.648 204.246 109.648 204.714C109.648 205.482 109.378 206.094 108.838 206.55C108.31 207.006 107.656 207.234 106.876 207.234C105.868 207.234 105.034 206.838 104.374 206.046L105.148 205.056C105.748 205.656 106.3 205.956 106.804 205.956C107.536 205.956 107.902 205.602 107.902 204.894C107.902 204.534 107.71 204.27 107.326 204.102C106.942 203.922 106.648 203.79 106.444 203.706C105.34 203.226 104.788 202.644 104.788 201.96C104.788 201.276 104.992 200.724 105.4 200.304C105.82 199.872 106.366 199.656 107.038 199.656C107.998 199.656 108.76 199.902 109.324 200.394L108.604 201.366ZM114.545 201.366C114.161 201.006 113.759 200.826 113.339 200.826C112.703 200.826 112.385 201.114 112.385 201.69C112.385 202.014 112.673 202.278 113.249 202.482C114.305 202.866 114.959 203.22 115.211 203.544C115.463 203.856 115.589 204.246 115.589 204.714C115.589 205.482 115.319 206.094 114.779 206.55C114.251 207.006 113.597 207.234 112.817 207.234C111.809 207.234 110.975 206.838 110.315 206.046L111.089 205.056C111.689 205.656 112.241 205.956 112.745 205.956C113.477 205.956 113.843 205.602 113.843 204.894C113.843 204.534 113.651 204.27 113.267 204.102C112.883 203.922 112.589 203.79 112.385 203.706C111.281 203.226 110.729 202.644 110.729 201.96C110.729 201.276 110.933 200.724 111.341 200.304C111.761 199.872 112.307 199.656 112.979 199.656C113.939 199.656 114.701 199.902 115.265 200.394L114.545 201.366ZM129.684 203.436C129.684 204.552 129.342 205.464 128.658 206.172C127.974 206.88 127.074 207.234 125.958 207.234C124.854 207.234 123.954 206.88 123.258 206.172C122.562 205.464 122.214 204.558 122.214 203.454C122.214 202.338 122.556 201.426 123.24 200.718C123.924 200.01 124.824 199.656 125.94 199.656C127.056 199.656 127.956 200.01 128.64 200.718C129.336 201.414 129.684 202.32 129.684 203.436ZM123.978 203.472C123.978 204.132 124.164 204.672 124.536 205.092C124.908 205.512 125.388 205.722 125.976 205.722C126.564 205.722 127.032 205.5 127.38 205.056C127.74 204.6 127.92 204.066 127.92 203.454C127.92 202.83 127.74 202.296 127.38 201.852C127.02 201.396 126.546 201.168 125.958 201.168C125.382 201.168 124.908 201.384 124.536 201.816C124.164 202.248 123.978 202.8 123.978 203.472ZM133.346 204.534L135.236 199.656H135.866L137.846 204.516L139.61 199.89H141.536L138.224 207.144H137.342L135.704 202.59L133.832 207.144H132.932L129.674 199.89H131.6L133.346 204.534ZM143.73 200.538C144.222 199.95 144.948 199.656 145.908 199.656C147.54 199.656 148.356 200.658 148.356 202.662V207H146.628V203.238C146.628 201.738 146.166 200.988 145.242 200.988C144.234 200.988 143.73 201.792 143.73 203.4V207H141.984V199.89H143.73V200.538ZM151.156 203.616C151.156 204.3 151.306 204.864 151.606 205.308C151.906 205.752 152.32 205.974 152.848 205.974C153.676 205.974 154.204 205.566 154.432 204.75L156.088 205.02C155.548 206.496 154.468 207.234 152.848 207.234C151.768 207.234 150.904 206.892 150.256 206.208C149.62 205.512 149.302 204.612 149.302 203.508C149.302 202.344 149.608 201.414 150.22 200.718C150.844 200.01 151.684 199.656 152.74 199.656C153.808 199.656 154.636 199.992 155.224 200.664C155.824 201.324 156.124 202.23 156.124 203.382V203.616H151.156ZM154.504 202.644C154.504 202.152 154.348 201.72 154.036 201.348C153.736 200.976 153.34 200.79 152.848 200.79C152.368 200.79 151.972 200.988 151.66 201.384C151.36 201.768 151.21 202.188 151.21 202.644H154.504ZM158.812 200.628C159.256 199.98 159.952 199.656 160.9 199.656C161.2 199.656 161.476 199.716 161.728 199.836L161.512 201.42C161.248 201.252 160.96 201.168 160.648 201.168C159.424 201.168 158.812 202.044 158.812 203.796V207H157.066V199.89H158.812V200.628ZM166.172 201.366C165.788 201.006 165.386 200.826 164.966 200.826C164.33 200.826 164.012 201.114 164.012 201.69C164.012 202.014 164.3 202.278 164.876 202.482C165.932 202.866 166.586 203.22 166.838 203.544C167.09 203.856 167.216 204.246 167.216 204.714C167.216 205.482 166.946 206.094 166.406 206.55C165.878 207.006 165.224 207.234 164.444 207.234C163.436 207.234 162.602 206.838 161.942 206.046L162.716 205.056C163.316 205.656 163.868 205.956 164.372 205.956C165.104 205.956 165.47 205.602 165.47 204.894C165.47 204.534 165.278 204.27 164.894 204.102C164.51 203.922 164.216 203.79 164.012 203.706C162.908 203.226 162.356 202.644 162.356 201.96C162.356 201.276 162.56 200.724 162.968 200.304C163.388 199.872 163.934 199.656 164.606 199.656C165.566 199.656 166.328 199.902 166.892 200.394L166.172 201.366ZM170.98 205.974C170.98 206.334 170.854 206.646 170.602 206.91C170.362 207.162 170.062 207.288 169.702 207.288C169.342 207.288 169.036 207.162 168.784 206.91C168.532 206.658 168.406 206.358 168.406 206.01C168.406 205.65 168.532 205.344 168.784 205.092C169.036 204.84 169.336 204.714 169.684 204.714C170.044 204.714 170.35 204.834 170.602 205.074C170.854 205.314 170.98 205.614 170.98 205.974Z" fill="white"/>
<path d="M229.758 297.434V299H222.414L225.186 295.49C226.506 293.858 227.28 292.838 227.508 292.43C227.748 292.01 227.868 291.668 227.868 291.404C227.88 291.332 227.886 291.26 227.886 291.188C227.886 290.708 227.724 290.282 227.4 289.91C227.088 289.538 226.674 289.352 226.158 289.352C225.642 289.352 225.234 289.562 224.934 289.982C224.646 290.402 224.502 290.912 224.502 291.512H222.558C222.558 290.432 222.876 289.544 223.512 288.848C224.16 288.14 225.036 287.786 226.14 287.786C227.136 287.786 227.976 288.122 228.66 288.794C229.344 289.466 229.686 290.306 229.686 291.314C229.686 292.262 228.96 293.582 227.508 295.274L225.654 297.434H229.758ZM238.467 293.546C238.467 295.13 238.119 296.486 237.423 297.614C236.727 298.73 235.767 299.288 234.543 299.288C233.331 299.288 232.377 298.724 231.681 297.596C230.985 296.468 230.637 295.118 230.637 293.546C230.637 291.914 230.985 290.546 231.681 289.442C232.389 288.338 233.349 287.786 234.561 287.786C235.773 287.786 236.727 288.35 237.423 289.478C238.119 290.594 238.467 291.95 238.467 293.546ZM232.437 293.528C232.437 294.632 232.629 295.61 233.013 296.462C233.397 297.302 233.919 297.722 234.579 297.722C235.239 297.722 235.749 297.326 236.109 296.534C236.481 295.742 236.667 294.74 236.667 293.528C236.667 292.412 236.475 291.44 236.091 290.612C235.707 289.772 235.191 289.352 234.543 289.352C233.907 289.352 233.397 289.79 233.013 290.666C232.629 291.53 232.437 292.484 232.437 293.528ZM246.492 297.434V299H239.148L241.92 295.49C243.24 293.858 244.014 292.838 244.242 292.43C244.482 292.01 244.602 291.668 244.602 291.404C244.614 291.332 244.62 291.26 244.62 291.188C244.62 290.708 244.458 290.282 244.134 289.91C243.822 289.538 243.408 289.352 242.892 289.352C242.376 289.352 241.968 289.562 241.668 289.982C241.38 290.402 241.236 290.912 241.236 291.512H239.292C239.292 290.432 239.61 289.544 240.246 288.848C240.894 288.14 241.77 287.786 242.874 287.786C243.87 287.786 244.71 288.122 245.394 288.794C246.078 289.466 246.42 290.306 246.42 291.314C246.42 292.262 245.694 293.582 244.242 295.274L242.388 297.434H246.492ZM255.202 293.546C255.202 295.13 254.854 296.486 254.158 297.614C253.462 298.73 252.502 299.288 251.278 299.288C250.066 299.288 249.112 298.724 248.416 297.596C247.72 296.468 247.372 295.118 247.372 293.546C247.372 291.914 247.72 290.546 248.416 289.442C249.124 288.338 250.084 287.786 251.296 287.786C252.508 287.786 253.462 288.35 254.158 289.478C254.854 290.594 255.202 291.95 255.202 293.546ZM249.172 293.528C249.172 294.632 249.364 295.61 249.748 296.462C250.132 297.302 250.654 297.722 251.314 297.722C251.974 297.722 252.484 297.326 252.844 296.534C253.216 295.742 253.402 294.74 253.402 293.528C253.402 292.412 253.21 291.44 252.826 290.612C252.442 289.772 251.926 289.352 251.278 289.352C250.642 289.352 250.132 289.79 249.748 290.666C249.364 291.53 249.172 292.484 249.172 293.528Z" fill="white"/>
</svg>
