<svg width="80" height="574" viewBox="0 0 80 574" fill="none" xmlns="http://www.w3.org/2000/svg">
<path d="M16.16 143L18.89 136H20.11L22.82 143H21.47L19.97 139.02C19.9367 138.94 19.89 138.813 19.83 138.64C19.7767 138.467 19.7167 138.28 19.65 138.08C19.5833 137.873 19.5233 137.683 19.47 137.51C19.4167 137.33 19.3767 137.2 19.35 137.12L19.6 137.11C19.56 137.243 19.5133 137.393 19.46 137.56C19.4067 137.727 19.35 137.9 19.29 138.08C19.23 138.26 19.17 138.433 19.11 138.6C19.0567 138.767 19.0067 138.917 18.96 139.05L17.46 143H16.16ZM17.4 141.4L17.85 140.27H21.04L21.52 141.4H17.4ZM23.9224 143V136H26.9024C27.3624 136 27.7491 136.067 28.0624 136.2C28.3824 136.333 28.6224 136.533 28.7824 136.8C28.9491 137.06 29.0324 137.377 29.0324 137.75C29.0324 138.137 28.9291 138.463 28.7224 138.73C28.5158 138.997 28.2258 139.18 27.8524 139.28L27.8424 139.08C28.1558 139.147 28.4291 139.267 28.6624 139.44C28.8958 139.607 29.0758 139.817 29.2024 140.07C29.3358 140.317 29.4024 140.6 29.4024 140.92C29.4024 141.26 29.3458 141.56 29.2324 141.82C29.1258 142.08 28.9658 142.297 28.7524 142.47C28.5391 142.643 28.2858 142.777 27.9924 142.87C27.6991 142.957 27.3691 143 27.0024 143H23.9224ZM25.1924 141.83H26.9424C27.1891 141.83 27.3958 141.793 27.5624 141.72C27.7358 141.647 27.8658 141.54 27.9524 141.4C28.0458 141.253 28.0924 141.08 28.0924 140.88C28.0924 140.693 28.0424 140.533 27.9424 140.4C27.8491 140.267 27.7124 140.167 27.5324 140.1C27.3524 140.027 27.1391 139.99 26.8924 139.99H25.1924V141.83ZM25.1924 138.87H26.7824C26.9758 138.87 27.1424 138.833 27.2824 138.76C27.4291 138.687 27.5424 138.587 27.6224 138.46C27.7024 138.333 27.7424 138.187 27.7424 138.02C27.7424 137.753 27.6524 137.547 27.4724 137.4C27.2924 137.247 27.0291 137.17 26.6824 137.17H25.1924V138.87ZM33.8272 143.1C33.3272 143.1 32.8639 143.01 32.4372 142.83C32.0105 142.65 31.6372 142.4 31.3172 142.08C31.0039 141.753 30.7605 141.37 30.5872 140.93C30.4139 140.49 30.3272 140.01 30.3272 139.49C30.3272 138.97 30.4139 138.49 30.5872 138.05C30.7605 137.61 31.0039 137.23 31.3172 136.91C31.6372 136.583 32.0105 136.33 32.4372 136.15C32.8639 135.97 33.3272 135.88 33.8272 135.88C34.3339 135.88 34.8005 135.97 35.2272 136.15C35.6539 136.33 36.0239 136.583 36.3372 136.91C36.6505 137.237 36.8939 137.62 37.0672 138.06C37.2405 138.493 37.3272 138.97 37.3272 139.49C37.3272 140.003 37.2405 140.48 37.0672 140.92C36.8939 141.36 36.6505 141.743 36.3372 142.07C36.0239 142.397 35.6539 142.65 35.2272 142.83C34.8005 143.01 34.3339 143.1 33.8272 143.1ZM33.8272 141.86C34.1472 141.86 34.4372 141.803 34.6972 141.69C34.9639 141.57 35.1939 141.403 35.3872 141.19C35.5805 140.97 35.7305 140.717 35.8372 140.43C35.9505 140.143 36.0072 139.83 36.0072 139.49C36.0072 139.15 35.9505 138.837 35.8372 138.55C35.7305 138.263 35.5805 138.013 35.3872 137.8C35.1939 137.58 34.9639 137.413 34.6972 137.3C34.4372 137.18 34.1472 137.12 33.8272 137.12C33.5139 137.12 33.2239 137.18 32.9572 137.3C32.6905 137.413 32.4605 137.577 32.2672 137.79C32.0739 138.003 31.9239 138.253 31.8172 138.54C31.7105 138.827 31.6572 139.143 31.6572 139.49C31.6572 139.83 31.7105 140.147 31.8172 140.44C31.9239 140.727 32.0739 140.977 32.2672 141.19C32.4605 141.403 32.6905 141.57 32.9572 141.69C33.2239 141.803 33.5139 141.86 33.8272 141.86ZM41.5369 143.06C40.9835 143.06 40.4902 142.943 40.0569 142.71C39.6235 142.47 39.2802 142.143 39.0269 141.73C38.7802 141.31 38.6569 140.837 38.6569 140.31V135.99H39.9669V140.22C39.9669 140.533 40.0369 140.813 40.1769 141.06C40.3235 141.3 40.5169 141.493 40.7569 141.64C40.9969 141.787 41.2569 141.86 41.5369 141.86C41.8435 141.86 42.1202 141.787 42.3669 141.64C42.6135 141.493 42.8069 141.3 42.9469 141.06C43.0935 140.813 43.1669 140.533 43.1669 140.22V135.99H44.4269V140.31C44.4269 140.837 44.3002 141.31 44.0469 141.73C43.8002 142.143 43.4602 142.47 43.0269 142.71C42.5935 142.943 42.0969 143.06 41.5369 143.06ZM47.6271 143V137.2H45.6271V136H50.9871V137.2H48.9271V143H47.6271Z" fill="black"/>
<path d="M16.94 264V257H19.98C20.4 257 20.7833 257.1 21.13 257.3C21.4767 257.493 21.75 257.76 21.95 258.1C22.1567 258.433 22.26 258.81 22.26 259.23C22.26 259.63 22.1567 260 21.95 260.34C21.75 260.673 21.4767 260.94 21.13 261.14C20.79 261.333 20.4067 261.43 19.98 261.43H18.21V264H16.94ZM21 264L19.22 260.84L20.56 260.59L22.54 264.01L21 264ZM18.21 260.3H19.99C20.1833 260.3 20.35 260.257 20.49 260.17C20.6367 260.077 20.75 259.95 20.83 259.79C20.91 259.63 20.95 259.453 20.95 259.26C20.95 259.04 20.9 258.85 20.8 258.69C20.7 258.53 20.56 258.403 20.38 258.31C20.2 258.217 19.9933 258.17 19.76 258.17H18.21V260.3ZM23.9127 264V257H28.4927V258.18H25.1927V262.82H28.5327V264H23.9127ZM24.5127 261V259.84H27.9827V261H24.5127ZM32.3827 264.1C31.976 264.1 31.6027 264.05 31.2627 263.95C30.9227 263.843 30.616 263.687 30.3427 263.48C30.0693 263.273 29.826 263.023 29.6127 262.73L30.4627 261.77C30.7893 262.223 31.1093 262.537 31.4227 262.71C31.736 262.883 32.0893 262.97 32.4827 262.97C32.7093 262.97 32.916 262.937 33.1027 262.87C33.2893 262.797 33.436 262.7 33.5427 262.58C33.6493 262.453 33.7027 262.31 33.7027 262.15C33.7027 262.037 33.6793 261.933 33.6327 261.84C33.5927 261.74 33.5293 261.653 33.4427 261.58C33.356 261.5 33.2493 261.427 33.1227 261.36C32.996 261.293 32.8527 261.237 32.6927 261.19C32.5327 261.143 32.356 261.1 32.1627 261.06C31.796 260.987 31.476 260.89 31.2027 260.77C30.9293 260.643 30.6993 260.49 30.5127 260.31C30.326 260.123 30.1893 259.917 30.1027 259.69C30.016 259.457 29.9727 259.193 29.9727 258.9C29.9727 258.607 30.036 258.337 30.1627 258.09C30.296 257.843 30.476 257.63 30.7027 257.45C30.9293 257.27 31.1927 257.13 31.4927 257.03C31.7927 256.93 32.116 256.88 32.4627 256.88C32.856 256.88 33.206 256.927 33.5127 257.02C33.826 257.113 34.0993 257.253 34.3327 257.44C34.5727 257.62 34.7693 257.84 34.9227 258.1L34.0627 258.95C33.9293 258.743 33.7793 258.573 33.6127 258.44C33.446 258.3 33.266 258.197 33.0727 258.13C32.8793 258.057 32.676 258.02 32.4627 258.02C32.2227 258.02 32.0127 258.053 31.8327 258.12C31.6593 258.187 31.5227 258.283 31.4227 258.41C31.3227 258.53 31.2727 258.677 31.2727 258.85C31.2727 258.983 31.3027 259.103 31.3627 259.21C31.4227 259.31 31.506 259.4 31.6127 259.48C31.726 259.56 31.8693 259.63 32.0427 259.69C32.216 259.75 32.4127 259.803 32.6327 259.85C32.9993 259.923 33.3293 260.023 33.6227 260.15C33.916 260.27 34.166 260.417 34.3727 260.59C34.5793 260.757 34.736 260.95 34.8427 261.17C34.9493 261.383 35.0027 261.623 35.0027 261.89C35.0027 262.35 34.8927 262.747 34.6727 263.08C34.4593 263.407 34.156 263.66 33.7627 263.84C33.3693 264.013 32.9093 264.1 32.3827 264.1ZM36.4322 264V257H41.0122V258.18H37.7122V262.82H41.0522V264H36.4322ZM37.0322 261V259.84H40.5022V261H37.0322ZM41.9022 264L44.6322 257H45.8522L48.5622 264H47.2122L45.7122 260.02C45.6789 259.94 45.6322 259.813 45.5722 259.64C45.5189 259.467 45.4589 259.28 45.3922 259.08C45.3255 258.873 45.2655 258.683 45.2122 258.51C45.1589 258.33 45.1189 258.2 45.0922 258.12L45.3422 258.11C45.3022 258.243 45.2555 258.393 45.2022 258.56C45.1489 258.727 45.0922 258.9 45.0322 259.08C44.9722 259.26 44.9122 259.433 44.8522 259.6C44.7989 259.767 44.7489 259.917 44.7022 260.05L43.2022 264H41.9022ZM43.1422 262.4L43.5922 261.27H46.7822L47.2622 262.4H43.1422ZM49.6646 264V257H52.7046C53.1246 257 53.5079 257.1 53.8546 257.3C54.2013 257.493 54.4746 257.76 54.6746 258.1C54.8813 258.433 54.9846 258.81 54.9846 259.23C54.9846 259.63 54.8813 260 54.6746 260.34C54.4746 260.673 54.2013 260.94 53.8546 261.14C53.5146 261.333 53.1313 261.43 52.7046 261.43H50.9346V264H49.6646ZM53.7246 264L51.9446 260.84L53.2846 260.59L55.2646 264.01L53.7246 264ZM50.9346 260.3H52.7146C52.9079 260.3 53.0746 260.257 53.2146 260.17C53.3613 260.077 53.4746 259.95 53.5546 259.79C53.6346 259.63 53.6746 259.453 53.6746 259.26C53.6746 259.04 53.6246 258.85 53.5246 258.69C53.4246 258.53 53.2846 258.403 53.1046 258.31C52.9246 258.217 52.7179 258.17 52.4846 258.17H50.9346V260.3ZM59.5096 264.1C59.0029 264.1 58.5396 264.013 58.1196 263.84C57.6996 263.667 57.3363 263.42 57.0296 263.1C56.7229 262.773 56.4829 262.39 56.3096 261.95C56.1429 261.503 56.0596 261.017 56.0596 260.49C56.0596 259.983 56.1496 259.513 56.3296 259.08C56.5096 258.647 56.7596 258.267 57.0796 257.94C57.3996 257.613 57.7729 257.36 58.1996 257.18C58.6263 257 59.0896 256.91 59.5896 256.91C59.9296 256.91 60.2596 256.96 60.5796 257.06C60.8996 257.16 61.1929 257.3 61.4596 257.48C61.7263 257.653 61.9496 257.857 62.1296 258.09L61.2996 259C61.1263 258.82 60.9463 258.67 60.7596 258.55C60.5796 258.423 60.3896 258.33 60.1896 258.27C59.9963 258.203 59.7963 258.17 59.5896 258.17C59.2829 258.17 58.9929 258.227 58.7196 258.34C58.4529 258.453 58.2196 258.613 58.0196 258.82C57.8263 259.027 57.6729 259.273 57.5596 259.56C57.4463 259.84 57.3896 260.153 57.3896 260.5C57.3896 260.853 57.4429 261.173 57.5496 261.46C57.6629 261.747 57.8196 261.993 58.0196 262.2C58.2263 262.407 58.4696 262.567 58.7496 262.68C59.0363 262.787 59.3496 262.84 59.6896 262.84C59.9096 262.84 60.1229 262.81 60.3296 262.75C60.5363 262.69 60.7263 262.607 60.8996 262.5C61.0796 262.387 61.2429 262.257 61.3896 262.11L62.0296 263.14C61.8696 263.32 61.6563 263.483 61.3896 263.63C61.1229 263.777 60.8229 263.893 60.4896 263.98C60.1629 264.06 59.8363 264.1 59.5096 264.1ZM67.8655 264V257H69.1655V264H67.8655ZM63.3755 264V257H64.6755V264H63.3755ZM63.9155 261.12V259.9H68.4955V261.12H63.9155Z" fill="black"/>
<path d="M16.94 389V382H18.11L22.17 387.47L21.95 387.51C21.9233 387.323 21.9 387.133 21.88 386.94C21.86 386.74 21.84 386.533 21.82 386.32C21.8067 386.107 21.7933 385.883 21.78 385.65C21.7733 385.417 21.7667 385.173 21.76 384.92C21.7533 384.66 21.75 384.387 21.75 384.1V382H23.04V389H21.85L17.77 383.61L18.03 383.54C18.0633 383.913 18.09 384.233 18.11 384.5C18.1367 384.76 18.1567 384.987 18.17 385.18C18.1833 385.367 18.1933 385.523 18.2 385.65C18.2133 385.777 18.22 385.893 18.22 386C18.2267 386.1 18.23 386.197 18.23 386.29V389H16.94ZM24.9185 389V382H29.4985V383.18H26.1985V387.82H29.5385V389H24.9185ZM25.5185 386V384.84H28.9885V386H25.5185ZM32.5785 389L30.3985 382H31.7585L32.9985 386.13C33.0385 386.257 33.0752 386.397 33.1085 386.55C33.1418 386.703 33.1718 386.857 33.1985 387.01C33.2252 387.157 33.2485 387.293 33.2685 387.42C33.2885 387.547 33.3085 387.653 33.3285 387.74L33.0585 387.73C33.1385 387.417 33.2018 387.163 33.2485 386.97C33.2952 386.777 33.3352 386.617 33.3685 386.49C33.4085 386.357 33.4485 386.233 33.4885 386.12L34.6685 383.1H35.7785L36.9285 386.12C36.9952 386.307 37.0552 386.487 37.1085 386.66C37.1618 386.827 37.2052 386.993 37.2385 387.16C37.2785 387.32 37.3152 387.487 37.3485 387.66L37.1085 387.71C37.1352 387.55 37.1552 387.42 37.1685 387.32C37.1818 387.22 37.1952 387.13 37.2085 387.05C37.2218 386.97 37.2352 386.893 37.2485 386.82C37.2618 386.74 37.2818 386.647 37.3085 386.54C37.3418 386.427 37.3818 386.283 37.4285 386.11L38.6585 382H40.0085L37.8185 389H36.8785L35.0985 384.74L35.2185 384.78L33.5285 389H32.5785ZM43.242 389.1C42.8354 389.1 42.462 389.05 42.122 388.95C41.782 388.843 41.4754 388.687 41.202 388.48C40.9287 388.273 40.6854 388.023 40.472 387.73L41.322 386.77C41.6487 387.223 41.9687 387.537 42.282 387.71C42.5954 387.883 42.9487 387.97 43.342 387.97C43.5687 387.97 43.7754 387.937 43.962 387.87C44.1487 387.797 44.2954 387.7 44.402 387.58C44.5087 387.453 44.562 387.31 44.562 387.15C44.562 387.037 44.5387 386.933 44.492 386.84C44.452 386.74 44.3887 386.653 44.302 386.58C44.2154 386.5 44.1087 386.427 43.982 386.36C43.8554 386.293 43.712 386.237 43.552 386.19C43.392 386.143 43.2154 386.1 43.022 386.06C42.6554 385.987 42.3354 385.89 42.062 385.77C41.7887 385.643 41.5587 385.49 41.372 385.31C41.1854 385.123 41.0487 384.917 40.962 384.69C40.8754 384.457 40.832 384.193 40.832 383.9C40.832 383.607 40.8954 383.337 41.022 383.09C41.1554 382.843 41.3354 382.63 41.562 382.45C41.7887 382.27 42.052 382.13 42.352 382.03C42.652 381.93 42.9754 381.88 43.322 381.88C43.7154 381.88 44.0654 381.927 44.372 382.02C44.6854 382.113 44.9587 382.253 45.192 382.44C45.432 382.62 45.6287 382.84 45.782 383.1L44.922 383.95C44.7887 383.743 44.6387 383.573 44.472 383.44C44.3054 383.3 44.1254 383.197 43.932 383.13C43.7387 383.057 43.5354 383.02 43.322 383.02C43.082 383.02 42.872 383.053 42.692 383.12C42.5187 383.187 42.382 383.283 42.282 383.41C42.182 383.53 42.132 383.677 42.132 383.85C42.132 383.983 42.162 384.103 42.222 384.21C42.282 384.31 42.3654 384.4 42.472 384.48C42.5854 384.56 42.7287 384.63 42.902 384.69C43.0754 384.75 43.272 384.803 43.492 384.85C43.8587 384.923 44.1887 385.023 44.482 385.15C44.7754 385.27 45.0254 385.417 45.232 385.59C45.4387 385.757 45.5954 385.95 45.702 386.17C45.8087 386.383 45.862 386.623 45.862 386.89C45.862 387.35 45.752 387.747 45.532 388.08C45.3187 388.407 45.0154 388.66 44.622 388.84C44.2287 389.013 43.7687 389.1 43.242 389.1Z" fill="black"/>
<line x1="0.5" y1="2.18557e-08" x2="0.499975" y2="574" stroke="url(#paint0_linear_2679_8621)"/>
<defs>
<linearGradient id="paint0_linear_2679_8621" x1="0" y1="0" x2="7.86581e-06" y2="574" gradientUnits="userSpaceOnUse">
<stop stop-opacity="0"/>
<stop offset="0.270833"/>
<stop offset="0.489583"/>
<stop offset="0.729167"/>
<stop offset="1" stop-opacity="0"/>
</linearGradient>
</defs>
</svg>
