<svg width="198" height="148" viewBox="0 0 198 148" fill="none" xmlns="http://www.w3.org/2000/svg">
<path d="M6.16255 17.16C5.15989 17.16 4.28522 16.9253 3.53855 16.456C2.80255 15.9867 2.23189 15.32 1.82655 14.456C1.42122 13.592 1.21855 12.5733 1.21855 11.4C1.21855 10.2267 1.42122 9.208 1.82655 8.344C2.23189 7.48 2.80789 6.81333 3.55455 6.344C4.31189 5.87467 5.19722 5.64 6.21055 5.64C7.03189 5.64 7.76255 5.8 8.40255 6.12C9.04255 6.44 9.51189 6.888 9.81055 7.464L8.81855 8.392C8.24255 7.50667 7.38389 7.064 6.24255 7.064C5.19722 7.064 4.39189 7.44267 3.82655 8.2C3.26122 8.94667 2.97855 10.0133 2.97855 11.4C2.97855 12.776 3.25589 13.8427 3.81055 14.6C4.36522 15.3573 5.14922 15.736 6.16255 15.736C6.78122 15.736 7.30922 15.6293 7.74655 15.416C8.18389 15.192 8.54122 14.856 8.81855 14.408L9.81055 15.336C9.50122 15.912 9.02655 16.36 8.38655 16.68C7.75722 17 7.01589 17.16 6.16255 17.16ZM11.1494 5.128H12.7334V10.152C12.9681 9.74667 13.3201 9.42667 13.7894 9.192C14.2588 8.95733 14.7761 8.84 15.3414 8.84C16.2694 8.84 16.9948 9.14933 17.5174 9.768C18.0401 10.3867 18.3014 11.2453 18.3014 12.344V17H16.7174V12.392C16.7174 11.6347 16.5681 11.0533 16.2694 10.648C15.9814 10.2427 15.5601 10.04 15.0054 10.04C14.3441 10.04 13.8001 10.28 13.3734 10.76C12.9468 11.24 12.7334 11.864 12.7334 12.632V17H11.1494V5.128ZM20.2142 10.952C20.2142 10.0453 20.1982 9.39467 20.1662 9H21.6542C21.6968 9.42667 21.7182 9.896 21.7182 10.408V10.568H21.7662C21.9795 10.024 22.3155 9.60267 22.7742 9.304C23.2435 8.99467 23.7928 8.84 24.4222 8.84C24.5928 8.84 24.7475 8.856 24.8862 8.888V10.168C24.8115 10.1467 24.6462 10.136 24.3902 10.136C23.9208 10.136 23.4835 10.2747 23.0782 10.552C22.6835 10.8187 22.3688 11.1867 22.1342 11.656C21.9102 12.1147 21.7982 12.6213 21.7982 13.176V17H20.2142V10.952ZM29.4213 17.16C28.1946 17.16 27.2293 16.792 26.5253 16.056C25.8213 15.3093 25.4693 14.2907 25.4693 13C25.4693 11.7093 25.8213 10.696 26.5253 9.96C27.2293 9.21333 28.1946 8.84 29.4213 8.84C30.648 8.84 31.6133 9.21333 32.3173 9.96C33.032 10.696 33.3893 11.7093 33.3893 13C33.3893 14.2907 33.032 15.3093 32.3173 16.056C31.6133 16.792 30.648 17.16 29.4213 17.16ZM29.4213 15.96C30.1573 15.96 30.7386 15.6987 31.1653 15.176C31.592 14.6427 31.8053 13.9173 31.8053 13C31.8053 12.0827 31.592 11.3627 31.1653 10.84C30.7386 10.3067 30.1573 10.04 29.4213 10.04C28.6746 10.04 28.0933 10.3067 27.6773 10.84C27.2613 11.3627 27.0533 12.0827 27.0533 13C27.0533 13.9173 27.2613 14.6427 27.6773 15.176C28.0933 15.6987 28.6746 15.96 29.4213 15.96ZM34.8366 11.048C34.8366 10.056 34.8152 9.37333 34.7726 9H36.2446C36.2979 9.39467 36.3246 9.864 36.3246 10.408H36.3726C36.5859 9.928 36.9326 9.54933 37.4126 9.272C37.9032 8.984 38.4472 8.84 39.0446 8.84C40.9219 8.84 41.8606 10.056 41.8606 12.488V17H40.2766V12.472C40.2766 11.672 40.1432 11.08 39.8766 10.696C39.6099 10.312 39.1992 10.12 38.6446 10.12C37.9939 10.12 37.4606 10.3547 37.0446 10.824C36.6286 11.2933 36.4206 11.8907 36.4206 12.616V17H34.8366V11.048ZM44.8319 7.768C44.5013 7.768 44.2399 7.67733 44.0479 7.496C43.8559 7.31467 43.7599 7.06933 43.7599 6.76C43.7599 6.45067 43.8559 6.20533 44.0479 6.024C44.2399 5.84267 44.5013 5.752 44.8319 5.752C45.1626 5.752 45.4239 5.84267 45.6159 6.024C45.8186 6.20533 45.9199 6.45067 45.9199 6.76C45.9199 7.06933 45.8186 7.31467 45.6159 7.496C45.4239 7.67733 45.1626 7.768 44.8319 7.768ZM44.0479 9H45.6319V17H44.0479V9ZM51.1984 17.16C49.9931 17.16 49.0544 16.792 48.3824 16.056C47.7104 15.32 47.3744 14.3013 47.3744 13C47.3744 11.688 47.7104 10.6693 48.3824 9.944C49.0544 9.208 49.9931 8.84 51.1984 8.84C51.8918 8.84 52.4998 8.97333 53.0224 9.24C53.5558 9.50667 53.9718 9.89067 54.2704 10.392L53.3264 11.24C53.1024 10.8773 52.8091 10.5947 52.4464 10.392C52.0838 10.1893 51.6891 10.088 51.2624 10.088C50.5371 10.088 49.9718 10.344 49.5664 10.856C49.1611 11.368 48.9584 12.0827 48.9584 13C48.9584 13.9067 49.1611 14.6213 49.5664 15.144C49.9718 15.656 50.5371 15.912 51.2624 15.912C51.6891 15.912 52.0838 15.8107 52.4464 15.608C52.8091 15.4053 53.1024 15.1227 53.3264 14.76L54.2704 15.608C53.9718 16.1093 53.5558 16.4933 53.0224 16.76C52.4998 17.0267 51.8918 17.16 51.1984 17.16ZM63.8344 17.16C62.8318 17.16 61.9571 16.9253 61.2104 16.456C60.4744 15.9867 59.9038 15.32 59.4984 14.456C59.0931 13.592 58.8904 12.5733 58.8904 11.4C58.8904 10.2267 59.0931 9.208 59.4984 8.344C59.9038 7.48 60.4798 6.81333 61.2264 6.344C61.9838 5.87467 62.8691 5.64 63.8824 5.64C64.7038 5.64 65.4344 5.8 66.0744 6.12C66.7144 6.44 67.1838 6.888 67.4824 7.464L66.4904 8.392C65.9144 7.50667 65.0558 7.064 63.9144 7.064C62.8691 7.064 62.0638 7.44267 61.4984 8.2C60.9331 8.94667 60.6504 10.0133 60.6504 11.4C60.6504 12.776 60.9278 13.8427 61.4824 14.6C62.0371 15.3573 62.8211 15.736 63.8344 15.736C64.4531 15.736 64.9811 15.6293 65.4184 15.416C65.8558 15.192 66.2131 14.856 66.4904 14.408L67.4824 15.336C67.1731 15.912 66.6984 16.36 66.0584 16.68C65.4291 17 64.6878 17.16 63.8344 17.16ZM71.2053 17.16C70.6826 17.16 70.2133 17.0533 69.7973 16.84C69.392 16.6267 69.072 16.3333 68.8373 15.96C68.6133 15.576 68.5013 15.144 68.5013 14.664C68.5013 13.8533 68.8106 13.2347 69.4293 12.808C70.048 12.3707 70.928 12.152 72.0693 12.152H73.5733V11.752C73.5733 11.2187 73.4293 10.808 73.1413 10.52C72.8533 10.232 72.432 10.088 71.8773 10.088C71.3973 10.088 70.9493 10.184 70.5333 10.376C70.1173 10.5573 69.776 10.824 69.5093 11.176L68.7573 10.232C69.1413 9.784 69.6053 9.44267 70.1493 9.208C70.704 8.96267 71.3013 8.84 71.9413 8.84C72.9653 8.84 73.76 9.09067 74.3253 9.592C74.8906 10.0827 75.1733 10.7813 75.1733 11.688V15.4C75.1733 15.88 75.2373 16.4133 75.3653 17H73.9733C73.8666 16.744 73.792 16.3867 73.7493 15.928H73.7173C73.1093 16.7493 72.272 17.16 71.2053 17.16ZM71.5093 15.928C72.0853 15.928 72.5706 15.7733 72.9653 15.464C73.3706 15.144 73.5733 14.76 73.5733 14.312V13.256H72.0053C71.376 13.256 70.8906 13.3787 70.5493 13.624C70.2186 13.8587 70.0533 14.2053 70.0533 14.664C70.0533 15.0587 70.1813 15.368 70.4373 15.592C70.704 15.816 71.0613 15.928 71.5093 15.928ZM77.2142 10.952C77.2142 10.0453 77.1982 9.39467 77.1662 9H78.6542C78.6968 9.42667 78.7182 9.896 78.7182 10.408V10.568H78.7662C78.9795 10.024 79.3155 9.60267 79.7742 9.304C80.2435 8.99467 80.7928 8.84 81.4222 8.84C81.5928 8.84 81.7475 8.856 81.8862 8.888V10.168C81.8115 10.1467 81.6462 10.136 81.3902 10.136C80.9208 10.136 80.4835 10.2747 80.0782 10.552C79.6835 10.8187 79.3688 11.1867 79.1342 11.656C78.9102 12.1147 78.7982 12.6213 78.7982 13.176V17H77.2142V10.952ZM89.9376 13.608H84.2416C84.3269 14.3333 84.5562 14.8827 84.9296 15.256C85.3136 15.6293 85.8362 15.816 86.4976 15.816C87.4362 15.816 88.1936 15.448 88.7696 14.712L89.6496 15.56C89.3402 16.0613 88.8976 16.456 88.3216 16.744C87.7456 17.0213 87.1109 17.16 86.4176 17.16C85.2229 17.16 84.2896 16.7973 83.6176 16.072C82.9562 15.336 82.6256 14.3173 82.6256 13.016C82.6256 11.7147 82.9616 10.696 83.6336 9.96C84.3056 9.21333 85.2282 8.84 86.4016 8.84C87.5109 8.84 88.3749 9.208 88.9936 9.944C89.6229 10.6693 89.9376 11.688 89.9376 13V13.608ZM88.4336 12.36C88.4336 11.6667 88.2469 11.1227 87.8736 10.728C87.5002 10.3333 86.9882 10.136 86.3376 10.136C85.7296 10.136 85.2442 10.3387 84.8816 10.744C84.5189 11.1493 84.3002 11.7253 84.2256 12.472H88.4336V12.36Z" fill="black"/>
<path d="M3.12 47.454V39.446H0.364V38.731H6.721V39.446H3.965V47.454H3.12ZM8.51358 47.558C7.35658 47.558 6.53758 46.934 6.53758 45.79C6.53758 44.672 7.22658 44.087 8.46158 43.944L10.2816 43.736V42.982C10.2816 41.929 9.81358 41.63 8.66958 41.63C8.03258 41.63 7.52558 41.747 7.08358 41.851V41.266C7.64258 41.045 8.25358 40.928 8.96858 40.928C10.3466 40.928 11.1006 41.487 11.1006 42.787V47.454H10.4376L10.3596 46.882H10.3076C9.98258 47.233 9.41058 47.558 8.51358 47.558ZM8.72158 46.908C9.38458 46.908 9.98258 46.674 10.2816 46.401V44.347L8.68258 44.529C7.79858 44.62 7.38258 44.984 7.38258 45.764C7.38258 46.505 7.90258 46.908 8.72158 46.908ZM15.4805 47.558C13.6215 47.558 12.5555 46.44 12.5555 44.347V44.178C12.5555 41.903 13.8685 40.928 15.5195 40.928C16.3515 40.928 16.8325 41.071 17.2875 41.357V42.033C16.7415 41.773 16.2995 41.63 15.4675 41.63C14.2455 41.63 13.4005 42.423 13.4005 44.048V44.334C13.4005 46.011 14.1155 46.856 15.5715 46.856C16.4555 46.856 17.0145 46.583 17.3655 46.388V47.051C16.9495 47.311 16.4035 47.558 15.4805 47.558ZM18.7732 47.454V38.146H19.5922V47.454H18.7732ZM22.5822 47.454L19.8262 44.126L22.4392 41.045H23.3362L20.7622 44.074L23.5312 47.454H22.5822ZM24.8422 47.454V38.146H25.6612V47.454H24.8422ZM27.6098 47.454V41.045H28.4288V47.454H27.6098ZM27.5968 39.706V38.809H28.4418V39.706H27.5968ZM30.3513 47.454V41.045H31.1313V41.617H31.1833C31.8203 41.201 32.6783 40.928 33.4843 40.928C34.7063 40.928 35.3303 41.422 35.3303 42.644V47.454H34.5113V42.826C34.5113 41.968 34.1733 41.63 33.1333 41.63C32.4703 41.63 31.7423 41.851 31.1703 42.176V47.454H30.3513ZM39.3911 49.404C37.4151 49.404 36.5441 48.806 36.5441 47.883C36.5441 47.168 37.1031 46.778 37.7921 46.531V46.479C37.4411 46.388 37.1421 46.102 37.1421 45.686C37.1421 45.283 37.3761 44.984 37.8311 44.62C37.3501 44.295 37.0251 43.775 37.0251 43.034V42.956C37.0251 41.656 38.0391 40.902 39.4171 40.902C39.7291 40.902 40.0151 40.941 40.2881 41.006H42.4461V41.63H41.1981C41.5621 41.942 41.7571 42.371 41.7571 42.93V42.995C41.7571 44.36 40.7301 45.036 39.4041 45.036C38.9881 45.036 38.5981 44.971 38.2601 44.841C38.0781 45.01 37.9221 45.179 37.9221 45.413C37.9221 45.777 38.1561 45.946 38.5981 45.946H40.4181C41.5621 45.946 42.4201 46.284 42.4201 47.467C42.4201 48.533 41.5361 49.404 39.3911 49.404ZM39.3651 48.741C40.9771 48.741 41.5621 48.286 41.5621 47.584C41.5621 46.869 41.1591 46.7 40.2881 46.7H38.4031C37.8441 46.882 37.4151 47.168 37.4151 47.766C37.4151 48.403 37.9481 48.741 39.3651 48.741ZM39.4041 44.412C40.3661 44.412 40.9381 43.944 40.9381 43.034V42.917C40.9381 41.968 40.3271 41.539 39.4041 41.539C38.4551 41.539 37.8571 42.033 37.8571 42.891V43.008C37.8571 43.944 38.4811 44.412 39.4041 44.412ZM49.5547 47.558C47.6957 47.558 46.6297 46.44 46.6297 44.347V44.178C46.6297 41.903 47.9427 40.928 49.5937 40.928C50.4257 40.928 50.9067 41.071 51.3617 41.357V42.033C50.8157 41.773 50.3737 41.63 49.5417 41.63C48.3197 41.63 47.4747 42.423 47.4747 44.048V44.334C47.4747 46.011 48.1897 46.856 49.6457 46.856C50.5297 46.856 51.0887 46.583 51.4397 46.388V47.051C51.0237 47.311 50.4777 47.558 49.5547 47.558ZM52.8474 47.454V38.146H53.6664V41.604H53.7184C54.3424 41.188 55.1744 40.941 55.9804 40.941C57.2024 40.941 57.8264 41.435 57.8264 42.657V47.454H57.0074V42.826C57.0074 41.968 56.6694 41.63 55.6294 41.63C54.9664 41.63 54.2384 41.864 53.6664 42.176V47.454H52.8474ZM59.6902 47.454V41.032H60.4702V41.773H60.5222C60.8992 41.357 61.6142 40.954 62.3682 40.954C62.5112 40.954 62.6802 40.967 62.7582 40.993V41.747C62.6022 41.721 62.4202 41.708 62.3032 41.708C61.6272 41.708 60.9642 41.981 60.5092 42.358V47.454H59.6902ZM66.5271 47.558C64.7721 47.558 63.6541 46.427 63.6541 44.36V44.178C63.6541 42.098 64.8501 40.928 66.5401 40.928C68.3081 40.928 69.4261 42.059 69.4261 44.139V44.308C69.4261 46.375 68.2301 47.558 66.5271 47.558ZM66.5531 46.882C67.7751 46.882 68.5811 46.037 68.5811 44.386V44.113C68.5811 42.254 67.6971 41.591 66.5271 41.591C65.2921 41.591 64.4991 42.475 64.4991 44.087V44.386C64.4991 46.219 65.3961 46.882 66.5531 46.882ZM70.9129 47.454V41.045H71.6929V41.617H71.7449C72.3819 41.201 73.2399 40.928 74.0459 40.928C75.2679 40.928 75.8919 41.422 75.8919 42.644V47.454H75.0729V42.826C75.0729 41.968 74.7349 41.63 73.6949 41.63C73.0319 41.63 72.3039 41.851 71.7319 42.176V47.454H70.9129ZM77.7816 47.454V41.045H78.6006V47.454H77.7816ZM77.7686 39.706V38.809H78.6136V39.706H77.7686ZM83.0322 47.558C81.1732 47.558 80.1072 46.44 80.1072 44.347V44.178C80.1072 41.903 81.4202 40.928 83.0712 40.928C83.9032 40.928 84.3842 41.071 84.8392 41.357V42.033C84.2932 41.773 83.8512 41.63 83.0192 41.63C81.7972 41.63 80.9522 42.423 80.9522 44.048V44.334C80.9522 46.011 81.6672 46.856 83.1232 46.856C84.0072 46.856 84.5662 46.583 84.9172 46.388V47.051C84.5012 47.311 83.9552 47.558 83.0322 47.558ZM89.74 47.454V38.146H90.559V41.604H90.611C91.235 41.188 92.067 40.941 92.873 40.941C94.095 40.941 94.719 41.435 94.719 42.657V47.454H93.9V42.826C93.9 41.968 93.562 41.63 92.522 41.63C91.859 41.63 91.131 41.864 90.559 42.176V47.454H89.74ZM99.1958 47.558C97.1808 47.558 96.1668 46.362 96.1668 44.321V44.165C96.1668 41.929 97.4668 40.928 98.9618 40.928C100.704 40.928 101.51 41.968 101.51 43.918V44.386H97.0118C97.0378 46.141 97.8178 46.856 99.3258 46.856C100.184 46.856 100.782 46.661 101.315 46.388V47.012C100.925 47.272 100.21 47.558 99.1958 47.558ZM98.9358 41.591C98.0128 41.591 97.1288 42.15 97.0248 43.736H100.652C100.652 42.267 100.093 41.591 98.9358 41.591ZM104.554 47.558C103.397 47.558 102.578 46.934 102.578 45.79C102.578 44.672 103.267 44.087 104.502 43.944L106.322 43.736V42.982C106.322 41.929 105.854 41.63 104.71 41.63C104.073 41.63 103.566 41.747 103.124 41.851V41.266C103.683 41.045 104.294 40.928 105.009 40.928C106.387 40.928 107.141 41.487 107.141 42.787V47.454H106.478L106.4 46.882H106.348C106.023 47.233 105.451 47.558 104.554 47.558ZM104.762 46.908C105.425 46.908 106.023 46.674 106.322 46.401V44.347L104.723 44.529C103.839 44.62 103.423 44.984 103.423 45.764C103.423 46.505 103.943 46.908 104.762 46.908ZM109.038 47.454V38.146H109.857V47.454H109.038ZM113.755 47.519C112.767 47.519 112.156 47.103 112.156 46.063V41.734H111.22V41.045H112.156V39.524H112.975V41.045H114.678V41.734H112.975V45.946C112.975 46.583 113.183 46.856 113.963 46.856C114.236 46.856 114.561 46.804 114.795 46.726V47.272C114.574 47.402 114.275 47.519 113.755 47.519ZM116.21 47.454V38.146H117.029V41.604H117.081C117.705 41.188 118.537 40.941 119.343 40.941C120.565 40.941 121.189 41.435 121.189 42.657V47.454H120.37V42.826C120.37 41.968 120.032 41.63 118.992 41.63C118.329 41.63 117.601 41.864 117.029 42.176V47.454H116.21ZM128.977 47.558C127.118 47.558 126.052 46.44 126.052 44.347V44.178C126.052 41.903 127.365 40.928 129.016 40.928C129.848 40.928 130.329 41.071 130.784 41.357V42.033C130.238 41.773 129.796 41.63 128.964 41.63C127.742 41.63 126.897 42.423 126.897 44.048V44.334C126.897 46.011 127.612 46.856 129.068 46.856C129.952 46.856 130.511 46.583 130.862 46.388V47.051C130.446 47.311 129.9 47.558 128.977 47.558ZM134.726 47.558C132.971 47.558 131.853 46.427 131.853 44.36V44.178C131.853 42.098 133.049 40.928 134.739 40.928C136.507 40.928 137.625 42.059 137.625 44.139V44.308C137.625 46.375 136.429 47.558 134.726 47.558ZM134.752 46.882C135.974 46.882 136.78 46.037 136.78 44.386V44.113C136.78 42.254 135.896 41.591 134.726 41.591C133.491 41.591 132.698 42.475 132.698 44.087V44.386C132.698 46.219 133.595 46.882 134.752 46.882ZM139.112 47.454V41.045H139.892V41.617H139.944C140.581 41.201 141.439 40.928 142.245 40.928C143.467 40.928 144.091 41.422 144.091 42.644V47.454H143.272V42.826C143.272 41.968 142.934 41.63 141.894 41.63C141.231 41.63 140.503 41.851 139.931 42.176V47.454H139.112ZM148.217 47.558C146.904 47.558 145.578 46.765 145.578 44.399V44.23C145.578 41.929 146.761 40.928 148.412 40.928C149.244 40.928 149.803 41.162 150.167 41.396V38.146H150.986V47.454H150.297L150.219 46.895H150.167C149.738 47.285 149.127 47.558 148.217 47.558ZM148.451 46.895C149.257 46.895 149.816 46.596 150.167 46.284V42.085C149.842 41.825 149.218 41.63 148.542 41.63C147.242 41.63 146.423 42.306 146.423 44.139V44.373C146.423 46.245 147.255 46.895 148.451 46.895ZM152.913 47.454V41.045H153.732V47.454H152.913ZM152.9 39.706V38.809H153.745V39.706H152.9ZM157.63 47.519C156.642 47.519 156.031 47.103 156.031 46.063V41.734H155.095V41.045H156.031V39.524H156.85V41.045H158.553V41.734H156.85V45.946C156.85 46.583 157.058 46.856 157.838 46.856C158.111 46.856 158.436 46.804 158.67 46.726V47.272C158.449 47.402 158.15 47.519 157.63 47.519ZM160.111 47.454V41.045H160.93V47.454H160.111ZM160.098 39.706V38.809H160.943V39.706H160.098ZM165.309 47.558C163.554 47.558 162.436 46.427 162.436 44.36V44.178C162.436 42.098 163.632 40.928 165.322 40.928C167.09 40.928 168.208 42.059 168.208 44.139V44.308C168.208 46.375 167.012 47.558 165.309 47.558ZM165.335 46.882C166.557 46.882 167.363 46.037 167.363 44.386V44.113C167.363 42.254 166.479 41.591 165.309 41.591C164.074 41.591 163.281 42.475 163.281 44.087V44.386C163.281 46.219 164.178 46.882 165.335 46.882ZM169.695 47.454V41.045H170.475V41.617H170.527C171.164 41.201 172.022 40.928 172.828 40.928C174.05 40.928 174.674 41.422 174.674 42.644V47.454H173.855V42.826C173.855 41.968 173.517 41.63 172.477 41.63C171.814 41.63 171.086 41.851 170.514 42.176V47.454H169.695ZM178.137 47.545C177.292 47.545 176.59 47.363 176.096 47.09V46.44C176.629 46.661 177.123 46.856 178.046 46.856C179.138 46.856 179.554 46.427 179.554 45.79C179.554 45.114 179.229 44.841 178.358 44.607L177.708 44.412C176.746 44.165 176.148 43.736 176.148 42.67C176.148 41.643 176.85 40.928 178.293 40.928C179.125 40.928 179.658 41.123 180.009 41.305V41.968C179.645 41.786 179.008 41.617 178.332 41.617C177.396 41.617 176.928 41.968 176.928 42.605C176.928 43.216 177.227 43.476 177.968 43.697L178.657 43.879C179.84 44.217 180.373 44.607 180.373 45.725C180.373 46.856 179.567 47.545 178.137 47.545ZM185.298 47.454V41.045H186.117V47.454H185.298ZM185.285 39.706V38.809H186.13V39.706H185.285ZM189.639 47.545C188.794 47.545 188.092 47.363 187.598 47.09V46.44C188.131 46.661 188.625 46.856 189.548 46.856C190.64 46.856 191.056 46.427 191.056 45.79C191.056 45.114 190.731 44.841 189.86 44.607L189.21 44.412C188.248 44.165 187.65 43.736 187.65 42.67C187.65 41.643 188.352 40.928 189.795 40.928C190.627 40.928 191.16 41.123 191.511 41.305V41.968C191.147 41.786 190.51 41.617 189.834 41.617C188.898 41.617 188.43 41.968 188.43 42.605C188.43 43.216 188.729 43.476 189.47 43.697L190.159 43.879C191.342 44.217 191.875 44.607 191.875 45.725C191.875 46.856 191.069 47.545 189.639 47.545ZM2.496 63.558C1.339 63.558 0.52 62.934 0.52 61.79C0.52 60.672 1.209 60.087 2.444 59.944L4.264 59.736V58.982C4.264 57.929 3.796 57.63 2.652 57.63C2.015 57.63 1.508 57.747 1.066 57.851V57.266C1.625 57.045 2.236 56.928 2.951 56.928C4.329 56.928 5.083 57.487 5.083 58.787V63.454H4.42L4.342 62.882H4.29C3.965 63.233 3.393 63.558 2.496 63.558ZM2.704 62.908C3.367 62.908 3.965 62.674 4.264 62.401V60.347L2.665 60.529C1.781 60.62 1.365 60.984 1.365 61.764C1.365 62.505 1.885 62.908 2.704 62.908ZM11.6429 63.454L9.79692 57.032H10.6679L12.1109 62.375H12.1499L13.7749 57.032H14.4899L16.1149 62.375H16.1669L17.5969 57.032H18.3899L16.5439 63.454H15.6989L14.1259 58.293H14.0999L12.4879 63.454H11.6429ZM19.7387 63.454V57.045H20.5577V63.454H19.7387ZM19.7257 55.706V54.809H20.5707V55.706H19.7257ZM24.7423 63.558C23.4293 63.558 22.1033 62.765 22.1033 60.399V60.23C22.1033 57.929 23.2863 56.928 24.9373 56.928C25.7693 56.928 26.3283 57.162 26.6923 57.396V54.146H27.5113V63.454H26.8223L26.7443 62.895H26.6923C26.2633 63.285 25.6523 63.558 24.7423 63.558ZM24.9763 62.895C25.7823 62.895 26.3413 62.596 26.6923 62.284V58.085C26.3673 57.825 25.7433 57.63 25.0673 57.63C23.7673 57.63 22.9483 58.306 22.9483 60.139V60.373C22.9483 62.245 23.7803 62.895 24.9763 62.895ZM32.0249 63.558C30.0099 63.558 28.9959 62.362 28.9959 60.321V60.165C28.9959 57.929 30.2959 56.928 31.7909 56.928C33.5329 56.928 34.3389 57.968 34.3389 59.918V60.386H29.8409C29.8669 62.141 30.6469 62.856 32.1549 62.856C33.0129 62.856 33.6109 62.661 34.1439 62.388V63.012C33.7539 63.272 33.0389 63.558 32.0249 63.558ZM31.7649 57.591C30.8419 57.591 29.9579 58.15 29.8539 59.736H33.4809C33.4809 58.267 32.9219 57.591 31.7649 57.591ZM37.4347 63.545C36.5897 63.545 35.8877 63.363 35.3937 63.09V62.44C35.9267 62.661 36.4207 62.856 37.3437 62.856C38.4357 62.856 38.8517 62.427 38.8517 61.79C38.8517 61.114 38.5267 60.841 37.6557 60.607L37.0057 60.412C36.0437 60.165 35.4457 59.736 35.4457 58.67C35.4457 57.643 36.1477 56.928 37.5907 56.928C38.4227 56.928 38.9557 57.123 39.3067 57.305V57.968C38.9427 57.786 38.3057 57.617 37.6297 57.617C36.6937 57.617 36.2257 57.968 36.2257 58.605C36.2257 59.216 36.5247 59.476 37.2657 59.697L37.9547 59.879C39.1377 60.217 39.6707 60.607 39.6707 61.725C39.6707 62.856 38.8647 63.545 37.4347 63.545ZM41.1551 65.378V57.045H41.9351V57.565H41.9871C42.4291 57.227 43.1051 56.928 43.9761 56.928C45.3931 56.928 46.5761 57.695 46.5761 60.113V60.256C46.5761 62.57 45.4451 63.558 43.6771 63.558C42.9231 63.558 42.3381 63.35 41.9611 63.116V65.378H41.1551ZM43.5991 62.895C44.9381 62.895 45.7181 62.18 45.7181 60.386V60.152C45.7181 58.189 45.0031 57.63 43.7681 57.63C42.9621 57.63 42.3251 57.916 41.9611 58.163V62.427C42.3121 62.661 42.9101 62.895 43.5991 62.895ZM48.0867 63.454V57.032H48.8667V57.773H48.9187C49.2957 57.357 50.0107 56.954 50.7647 56.954C50.9077 56.954 51.0767 56.967 51.1547 56.993V57.747C50.9987 57.721 50.8167 57.708 50.6997 57.708C50.0237 57.708 49.3607 57.981 48.9057 58.358V63.454H48.0867ZM55.0796 63.558C53.0646 63.558 52.0506 62.362 52.0506 60.321V60.165C52.0506 57.929 53.3506 56.928 54.8456 56.928C56.5876 56.928 57.3936 57.968 57.3936 59.918V60.386H52.8956C52.9216 62.141 53.7016 62.856 55.2096 62.856C56.0676 62.856 56.6656 62.661 57.1986 62.388V63.012C56.8086 63.272 56.0936 63.558 55.0796 63.558ZM54.8196 57.591C53.8966 57.591 53.0126 58.15 52.9086 59.736H56.5356C56.5356 58.267 55.9766 57.591 54.8196 57.591ZM60.4374 63.558C59.2804 63.558 58.4614 62.934 58.4614 61.79C58.4614 60.672 59.1504 60.087 60.3854 59.944L62.2054 59.736V58.982C62.2054 57.929 61.7374 57.63 60.5934 57.63C59.9564 57.63 59.4494 57.747 59.0074 57.851V57.266C59.5664 57.045 60.1774 56.928 60.8924 56.928C62.2704 56.928 63.0244 57.487 63.0244 58.787V63.454H62.3614L62.2834 62.882H62.2314C61.9064 63.233 61.3344 63.558 60.4374 63.558ZM60.6454 62.908C61.3084 62.908 61.9064 62.674 62.2054 62.401V60.347L60.6064 60.529C59.7224 60.62 59.3064 60.984 59.3064 61.764C59.3064 62.505 59.8264 62.908 60.6454 62.908ZM67.1573 63.558C65.8443 63.558 64.5183 62.765 64.5183 60.399V60.23C64.5183 57.929 65.7013 56.928 67.3523 56.928C68.1843 56.928 68.7433 57.162 69.1073 57.396V54.146H69.9263V63.454H69.2373L69.1593 62.895H69.1073C68.6783 63.285 68.0673 63.558 67.1573 63.558ZM67.3913 62.895C68.1973 62.895 68.7563 62.596 69.1073 62.284V58.085C68.7823 57.825 68.1583 57.63 67.4823 57.63C66.1823 57.63 65.3633 58.306 65.3633 60.139V60.373C65.3633 62.245 66.1953 62.895 67.3913 62.895ZM77.751 63.558C75.892 63.558 74.826 62.44 74.826 60.347V60.178C74.826 57.903 76.139 56.928 77.79 56.928C78.622 56.928 79.103 57.071 79.558 57.357V58.033C79.012 57.773 78.57 57.63 77.738 57.63C76.516 57.63 75.671 58.423 75.671 60.048V60.334C75.671 62.011 76.386 62.856 77.842 62.856C78.726 62.856 79.285 62.583 79.636 62.388V63.051C79.22 63.311 78.674 63.558 77.751 63.558ZM81.0437 63.454V54.146H81.8627V57.604H81.9147C82.5387 57.188 83.3707 56.941 84.1767 56.941C85.3987 56.941 86.0227 57.435 86.0227 58.657V63.454H85.2037V58.826C85.2037 57.968 84.8657 57.63 83.8257 57.63C83.1627 57.63 82.4347 57.864 81.8627 58.176V63.454H81.0437ZM89.4335 63.558C88.2765 63.558 87.4575 62.934 87.4575 61.79C87.4575 60.672 88.1465 60.087 89.3815 59.944L91.2015 59.736V58.982C91.2015 57.929 90.7335 57.63 89.5895 57.63C88.9525 57.63 88.4455 57.747 88.0035 57.851V57.266C88.5625 57.045 89.1735 56.928 89.8885 56.928C91.2665 56.928 92.0205 57.487 92.0205 58.787V63.454H91.3575L91.2795 62.882H91.2275C90.9025 63.233 90.3305 63.558 89.4335 63.558ZM89.6415 62.908C90.3045 62.908 90.9025 62.674 91.2015 62.401V60.347L89.6025 60.529C88.7185 60.62 88.3025 60.984 88.3025 61.764C88.3025 62.505 88.8225 62.908 89.6415 62.908ZM93.9174 63.454V54.146H94.7364V63.454H93.9174ZM96.685 63.454V54.146H97.504V63.454H96.685ZM102.04 63.558C100.025 63.558 99.0105 62.362 99.0105 60.321V60.165C99.0105 57.929 100.311 56.928 101.806 56.928C103.548 56.928 104.354 57.968 104.354 59.918V60.386H99.8555C99.8815 62.141 100.662 62.856 102.17 62.856C103.028 62.856 103.626 62.661 104.159 62.388V63.012C103.769 63.272 103.054 63.558 102.04 63.558ZM101.78 57.591C100.857 57.591 99.9725 58.15 99.8685 59.736H103.496C103.496 58.267 102.937 57.591 101.78 57.591ZM105.85 63.454V57.045H106.63V57.617H106.682C107.319 57.201 108.177 56.928 108.983 56.928C110.205 56.928 110.829 57.422 110.829 58.644V63.454H110.01V58.826C110.01 57.968 109.672 57.63 108.632 57.63C107.969 57.63 107.241 57.851 106.669 58.176V63.454H105.85ZM114.89 65.404C112.914 65.404 112.043 64.806 112.043 63.883C112.043 63.168 112.602 62.778 113.291 62.531V62.479C112.94 62.388 112.641 62.102 112.641 61.686C112.641 61.283 112.875 60.984 113.33 60.62C112.849 60.295 112.524 59.775 112.524 59.034V58.956C112.524 57.656 113.538 56.902 114.916 56.902C115.228 56.902 115.514 56.941 115.787 57.006H117.945V57.63H116.697C117.061 57.942 117.256 58.371 117.256 58.93V58.995C117.256 60.36 116.229 61.036 114.903 61.036C114.487 61.036 114.097 60.971 113.759 60.841C113.577 61.01 113.421 61.179 113.421 61.413C113.421 61.777 113.655 61.946 114.097 61.946H115.917C117.061 61.946 117.919 62.284 117.919 63.467C117.919 64.533 117.035 65.404 114.89 65.404ZM114.864 64.741C116.476 64.741 117.061 64.286 117.061 63.584C117.061 62.869 116.658 62.7 115.787 62.7H113.902C113.343 62.882 112.914 63.168 112.914 63.766C112.914 64.403 113.447 64.741 114.864 64.741ZM114.903 60.412C115.865 60.412 116.437 59.944 116.437 59.034V58.917C116.437 57.968 115.826 57.539 114.903 57.539C113.954 57.539 113.356 58.033 113.356 58.891V59.008C113.356 59.944 113.98 60.412 114.903 60.412ZM121.743 63.558C119.728 63.558 118.714 62.362 118.714 60.321V60.165C118.714 57.929 120.014 56.928 121.509 56.928C123.251 56.928 124.057 57.968 124.057 59.918V60.386H119.559C119.585 62.141 120.365 62.856 121.873 62.856C122.731 62.856 123.329 62.661 123.862 62.388V63.012C123.472 63.272 122.757 63.558 121.743 63.558ZM121.483 57.591C120.56 57.591 119.676 58.15 119.572 59.736H123.199C123.199 58.267 122.64 57.591 121.483 57.591ZM129.385 63.454V57.734H128.397V57.045H129.385V56.083C129.385 54.679 130.191 54.081 131.361 54.081C131.855 54.081 132.193 54.159 132.44 54.276V54.874C132.232 54.822 131.946 54.744 131.504 54.744C130.698 54.744 130.191 55.134 130.191 56.135V57.045H131.738V57.734H130.191V63.454H129.385ZM134.438 63.558C133.281 63.558 132.462 62.934 132.462 61.79C132.462 60.672 133.151 60.087 134.386 59.944L136.206 59.736V58.982C136.206 57.929 135.738 57.63 134.594 57.63C133.957 57.63 133.45 57.747 133.008 57.851V57.266C133.567 57.045 134.178 56.928 134.893 56.928C136.271 56.928 137.025 57.487 137.025 58.787V63.454H136.362L136.284 62.882H136.232C135.907 63.233 135.335 63.558 134.438 63.558ZM134.646 62.908C135.309 62.908 135.907 62.674 136.206 62.401V60.347L134.607 60.529C133.723 60.62 133.307 60.984 133.307 61.764C133.307 62.505 133.827 62.908 134.646 62.908ZM141.405 63.558C139.546 63.558 138.48 62.44 138.48 60.347V60.178C138.48 57.903 139.793 56.928 141.444 56.928C142.276 56.928 142.757 57.071 143.212 57.357V58.033C142.666 57.773 142.224 57.63 141.392 57.63C140.17 57.63 139.325 58.423 139.325 60.048V60.334C139.325 62.011 140.04 62.856 141.496 62.856C142.38 62.856 142.939 62.583 143.29 62.388V63.051C142.874 63.311 142.328 63.558 141.405 63.558ZM147.311 63.558C145.296 63.558 144.282 62.362 144.282 60.321V60.165C144.282 57.929 145.582 56.928 147.077 56.928C148.819 56.928 149.625 57.968 149.625 59.918V60.386H145.127C145.153 62.141 145.933 62.856 147.441 62.856C148.299 62.856 148.897 62.661 149.43 62.388V63.012C149.04 63.272 148.325 63.558 147.311 63.558ZM147.051 57.591C146.128 57.591 145.244 58.15 145.14 59.736H148.767C148.767 58.267 148.208 57.591 147.051 57.591ZM153.384 63.558C152.071 63.558 150.745 62.765 150.745 60.399V60.23C150.745 57.929 151.928 56.928 153.579 56.928C154.411 56.928 154.97 57.162 155.334 57.396V54.146H156.153V63.454H155.464L155.386 62.895H155.334C154.905 63.285 154.294 63.558 153.384 63.558ZM153.618 62.895C154.424 62.895 154.983 62.596 155.334 62.284V58.085C155.009 57.825 154.385 57.63 153.709 57.63C152.409 57.63 151.59 58.306 151.59 60.139V60.373C151.59 62.245 152.422 62.895 153.618 62.895ZM163.744 63.597C162.964 63.597 162.015 63.467 161.469 63.22V54.146H162.275V57.5H162.34C162.847 57.188 163.471 56.928 164.381 56.928C165.681 56.928 166.89 57.656 166.89 60.1V60.256C166.89 62.414 165.759 63.597 163.744 63.597ZM163.796 62.895C165.044 62.895 166.032 62.258 166.032 60.386V60.152C166.032 58.215 165.343 57.63 164.03 57.63C163.289 57.63 162.652 57.916 162.275 58.111V62.648C162.626 62.778 163.094 62.895 163.796 62.895ZM168.907 65.404C168.621 65.404 168.309 65.326 168.127 65.235V64.624C168.296 64.663 168.543 64.715 168.777 64.715C169.414 64.715 169.778 64.429 170.025 63.753L170.233 63.142L167.763 57.032H168.621L170.636 62.076H170.662L172.534 57.032H173.34L170.792 63.844C170.402 64.897 169.934 65.404 168.907 65.404ZM179.948 63.519C178.96 63.519 178.349 63.103 178.349 62.063V57.734H177.413V57.045H178.349V55.524H179.168V57.045H180.871V57.734H179.168V61.946C179.168 62.583 179.376 62.856 180.156 62.856C180.429 62.856 180.754 62.804 180.988 62.726V63.272C180.767 63.402 180.468 63.519 179.948 63.519ZM182.403 63.454V54.146H183.222V57.604H183.274C183.898 57.188 184.73 56.941 185.536 56.941C186.758 56.941 187.382 57.435 187.382 58.657V63.454H186.563V58.826C186.563 57.968 186.225 57.63 185.185 57.63C184.522 57.63 183.794 57.864 183.222 58.176V63.454H182.403ZM191.859 63.558C189.844 63.558 188.83 62.362 188.83 60.321V60.165C188.83 57.929 190.13 56.928 191.625 56.928C193.367 56.928 194.173 57.968 194.173 59.918V60.386H189.675C189.701 62.141 190.481 62.856 191.989 62.856C192.847 62.856 193.445 62.661 193.978 62.388V63.012C193.588 63.272 192.873 63.558 191.859 63.558ZM191.599 57.591C190.676 57.591 189.792 58.15 189.688 59.736H193.315C193.315 58.267 192.756 57.591 191.599 57.591ZM2.496 79.558C1.339 79.558 0.52 78.934 0.52 77.79C0.52 76.672 1.209 76.087 2.444 75.944L4.264 75.736V74.982C4.264 73.929 3.796 73.63 2.652 73.63C2.015 73.63 1.508 73.747 1.066 73.851V73.266C1.625 73.045 2.236 72.928 2.951 72.928C4.329 72.928 5.083 73.487 5.083 74.787V79.454H4.42L4.342 78.882H4.29C3.965 79.233 3.393 79.558 2.496 79.558ZM2.704 78.908C3.367 78.908 3.965 78.674 4.264 78.401V76.347L2.665 76.529C1.781 76.62 1.365 76.984 1.365 77.764C1.365 78.505 1.885 78.908 2.704 78.908ZM9.08741 81.404C7.11141 81.404 6.24041 80.806 6.24041 79.883C6.24041 79.168 6.79941 78.778 7.48841 78.531V78.479C7.13741 78.388 6.83841 78.102 6.83841 77.686C6.83841 77.283 7.07241 76.984 7.52741 76.62C7.04641 76.295 6.72141 75.775 6.72141 75.034V74.956C6.72141 73.656 7.73541 72.902 9.11341 72.902C9.42541 72.902 9.71141 72.941 9.98441 73.006H12.1424V73.63H10.8944C11.2584 73.942 11.4534 74.371 11.4534 74.93V74.995C11.4534 76.36 10.4264 77.036 9.10041 77.036C8.68441 77.036 8.29441 76.971 7.95641 76.841C7.77441 77.01 7.61841 77.179 7.61841 77.413C7.61841 77.777 7.85241 77.946 8.29441 77.946H10.1144C11.2584 77.946 12.1164 78.284 12.1164 79.467C12.1164 80.533 11.2324 81.404 9.08741 81.404ZM9.06141 80.741C10.6734 80.741 11.2584 80.286 11.2584 79.584C11.2584 78.869 10.8554 78.7 9.98441 78.7H8.09941C7.54041 78.882 7.11141 79.168 7.11141 79.766C7.11141 80.403 7.64441 80.741 9.06141 80.741ZM9.10041 76.412C10.0624 76.412 10.6344 75.944 10.6344 75.034V74.917C10.6344 73.968 10.0234 73.539 9.10041 73.539C8.15141 73.539 7.55341 74.033 7.55341 74.891V75.008C7.55341 75.944 8.17741 76.412 9.10041 76.412ZM13.3529 79.454V73.045H14.1719V79.454H13.3529ZM13.3399 71.706V70.809H14.1849V71.706H13.3399ZM16.0945 79.454V73.045H16.8745V73.617H16.9265C17.5635 73.201 18.4215 72.928 19.2275 72.928C20.4495 72.928 21.0735 73.422 21.0735 74.644V79.454H20.2545V74.826C20.2545 73.968 19.9165 73.63 18.8765 73.63C18.2135 73.63 17.4855 73.851 16.9135 74.176V79.454H16.0945ZM25.1343 81.404C23.1583 81.404 22.2873 80.806 22.2873 79.883C22.2873 79.168 22.8463 78.778 23.5353 78.531V78.479C23.1843 78.388 22.8853 78.102 22.8853 77.686C22.8853 77.283 23.1193 76.984 23.5743 76.62C23.0933 76.295 22.7683 75.775 22.7683 75.034V74.956C22.7683 73.656 23.7823 72.902 25.1603 72.902C25.4723 72.902 25.7583 72.941 26.0313 73.006H28.1893V73.63H26.9413C27.3053 73.942 27.5003 74.371 27.5003 74.93V74.995C27.5003 76.36 26.4733 77.036 25.1473 77.036C24.7313 77.036 24.3413 76.971 24.0033 76.841C23.8213 77.01 23.6653 77.179 23.6653 77.413C23.6653 77.777 23.8993 77.946 24.3413 77.946H26.1613C27.3053 77.946 28.1633 78.284 28.1633 79.467C28.1633 80.533 27.2793 81.404 25.1343 81.404ZM25.1083 80.741C26.7203 80.741 27.3053 80.286 27.3053 79.584C27.3053 78.869 26.9023 78.7 26.0313 78.7H24.1463C23.5873 78.882 23.1583 79.168 23.1583 79.766C23.1583 80.403 23.6913 80.741 25.1083 80.741ZM25.1473 76.412C26.1093 76.412 26.6813 75.944 26.6813 75.034V74.917C26.6813 73.968 26.0703 73.539 25.1473 73.539C24.1983 73.539 23.6003 74.033 23.6003 74.891V75.008C23.6003 75.944 24.2243 76.412 25.1473 76.412ZM32.7888 81.378V73.045H33.5688V73.565H33.6208C34.0628 73.227 34.7388 72.928 35.6098 72.928C37.0268 72.928 38.2098 73.695 38.2098 76.113V76.256C38.2098 78.57 37.0788 79.558 35.3108 79.558C34.5568 79.558 33.9718 79.35 33.5948 79.116V81.378H32.7888ZM35.2328 78.895C36.5718 78.895 37.3518 78.18 37.3518 76.386V76.152C37.3518 74.189 36.6368 73.63 35.4018 73.63C34.5958 73.63 33.9588 73.916 33.5948 74.163V78.427C33.9458 78.661 34.5438 78.895 35.2328 78.895ZM42.1775 79.558C40.4225 79.558 39.3045 78.427 39.3045 76.36V76.178C39.3045 74.098 40.5005 72.928 42.1905 72.928C43.9585 72.928 45.0765 74.059 45.0765 76.139V76.308C45.0765 78.375 43.8805 79.558 42.1775 79.558ZM42.2035 78.882C43.4255 78.882 44.2315 78.037 44.2315 76.386V76.113C44.2315 74.254 43.3475 73.591 42.1775 73.591C40.9425 73.591 40.1495 74.475 40.1495 76.087V76.386C40.1495 78.219 41.0465 78.882 42.2035 78.882ZM46.5633 81.378V73.045H47.3433V73.565H47.3953C47.8373 73.227 48.5133 72.928 49.3843 72.928C50.8013 72.928 51.9843 73.695 51.9843 76.113V76.256C51.9843 78.57 50.8533 79.558 49.0853 79.558C48.3313 79.558 47.7463 79.35 47.3693 79.116V81.378H46.5633ZM49.0073 78.895C50.3463 78.895 51.1263 78.18 51.1263 76.386V76.152C51.1263 74.189 50.4113 73.63 49.1763 73.63C48.3703 73.63 47.7333 73.916 47.3693 74.163V78.427C47.7203 78.661 48.3183 78.895 49.0073 78.895ZM55.4059 79.558C54.1709 79.558 53.4559 78.96 53.4559 77.725V73.032H54.2749V77.621C54.2749 78.505 54.6519 78.856 55.6399 78.856C56.3289 78.856 56.9919 78.622 57.5639 78.284V73.032H58.3699V79.454H57.6679L57.5899 78.856H57.5509C56.9139 79.272 56.1729 79.558 55.4059 79.558ZM60.3129 79.454V70.146H61.1319V79.454H60.3129ZM64.6015 79.558C63.4445 79.558 62.6255 78.934 62.6255 77.79C62.6255 76.672 63.3145 76.087 64.5495 75.944L66.3695 75.736V74.982C66.3695 73.929 65.9015 73.63 64.7575 73.63C64.1205 73.63 63.6135 73.747 63.1715 73.851V73.266C63.7305 73.045 64.3415 72.928 65.0565 72.928C66.4345 72.928 67.1885 73.487 67.1885 74.787V79.454H66.5255L66.4475 78.882H66.3955C66.0705 79.233 65.4985 79.558 64.6015 79.558ZM64.8095 78.908C65.4725 78.908 66.0705 78.674 66.3695 78.401V76.347L64.7705 76.529C63.8865 76.62 63.4705 76.984 63.4705 77.764C63.4705 78.505 63.9905 78.908 64.8095 78.908ZM71.0354 79.519C70.0474 79.519 69.4364 79.103 69.4364 78.063V73.734H68.5004V73.045H69.4364V71.524H70.2554V73.045H71.9584V73.734H70.2554V77.946C70.2554 78.583 70.4634 78.856 71.2434 78.856C71.5164 78.856 71.8414 78.804 72.0754 78.726V79.272C71.8544 79.402 71.5554 79.519 71.0354 79.519ZM73.516 79.454V73.045H74.335V79.454H73.516ZM73.503 71.706V70.809H74.348V71.706H73.503ZM78.7146 79.558C76.9596 79.558 75.8416 78.427 75.8416 76.36V76.178C75.8416 74.098 77.0376 72.928 78.7276 72.928C80.4956 72.928 81.6136 74.059 81.6136 76.139V76.308C81.6136 78.375 80.4176 79.558 78.7146 79.558ZM78.7406 78.882C79.9626 78.882 80.7686 78.037 80.7686 76.386V76.113C80.7686 74.254 79.8846 73.591 78.7146 73.591C77.4796 73.591 76.6866 74.475 76.6866 76.087V76.386C76.6866 78.219 77.5836 78.882 78.7406 78.882ZM83.1004 79.454V73.045H83.8804V73.617H83.9324C84.5694 73.201 85.4274 72.928 86.2334 72.928C87.4554 72.928 88.0794 73.422 88.0794 74.644V79.454H87.2604V74.826C87.2604 73.968 86.9224 73.63 85.8824 73.63C85.2194 73.63 84.4914 73.851 83.9194 74.176V79.454H83.1004ZM89.5531 79.714V78.622H90.6321V79.714H89.5531ZM98.2841 79.454V71.446H95.5281V70.731H101.885V71.446H99.1291V79.454H98.2841ZM103.197 79.454V70.146H104.016V73.604H104.068C104.692 73.188 105.524 72.941 106.33 72.941C107.552 72.941 108.176 73.435 108.176 74.657V79.454H107.357V74.826C107.357 73.968 107.019 73.63 105.979 73.63C105.316 73.63 104.588 73.864 104.016 74.176V79.454H103.197ZM112.653 79.558C110.638 79.558 109.624 78.362 109.624 76.321V76.165C109.624 73.929 110.924 72.928 112.419 72.928C114.161 72.928 114.967 73.968 114.967 75.918V76.386H110.469C110.495 78.141 111.275 78.856 112.783 78.856C113.641 78.856 114.239 78.661 114.772 78.388V79.012C114.382 79.272 113.667 79.558 112.653 79.558ZM112.393 73.591C111.47 73.591 110.586 74.15 110.482 75.736H114.109C114.109 74.267 113.55 73.591 112.393 73.591ZM122.492 79.558C120.477 79.558 119.463 78.362 119.463 76.321V76.165C119.463 73.929 120.763 72.928 122.258 72.928C124 72.928 124.806 73.968 124.806 75.918V76.386H120.308C120.334 78.141 121.114 78.856 122.622 78.856C123.48 78.856 124.078 78.661 124.611 78.388V79.012C124.221 79.272 123.506 79.558 122.492 79.558ZM122.232 73.591C121.309 73.591 120.425 74.15 120.321 75.736H123.948C123.948 74.267 123.389 73.591 122.232 73.591ZM125.552 79.454L127.749 76.191L125.643 73.032H126.592L128.295 75.606L129.894 73.032H130.804L128.776 76.191L130.934 79.454H129.972L128.217 76.776L126.449 79.454H125.552ZM132.206 81.378V73.045H132.986V73.565H133.038C133.48 73.227 134.156 72.928 135.027 72.928C136.444 72.928 137.627 73.695 137.627 76.113V76.256C137.627 78.57 136.496 79.558 134.728 79.558C133.974 79.558 133.389 79.35 133.012 79.116V81.378H132.206ZM134.65 78.895C135.989 78.895 136.769 78.18 136.769 76.386V76.152C136.769 74.189 136.054 73.63 134.819 73.63C134.013 73.63 133.376 73.916 133.012 74.163V78.427C133.363 78.661 133.961 78.895 134.65 78.895ZM139.163 79.454V70.146H139.982V79.454H139.163ZM144.362 79.558C142.607 79.558 141.489 78.427 141.489 76.36V76.178C141.489 74.098 142.685 72.928 144.375 72.928C146.143 72.928 147.261 74.059 147.261 76.139V76.308C147.261 78.375 146.065 79.558 144.362 79.558ZM144.388 78.882C145.61 78.882 146.416 78.037 146.416 76.386V76.113C146.416 74.254 145.532 73.591 144.362 73.591C143.127 73.591 142.334 74.475 142.334 76.087V76.386C142.334 78.219 143.231 78.882 144.388 78.882ZM148.748 79.454V73.032H149.528V73.773H149.58C149.957 73.357 150.672 72.954 151.426 72.954C151.569 72.954 151.738 72.967 151.816 72.993V73.747C151.66 73.721 151.478 73.708 151.361 73.708C150.685 73.708 150.022 73.981 149.567 74.358V79.454H148.748ZM154.51 79.558C153.353 79.558 152.534 78.934 152.534 77.79C152.534 76.672 153.223 76.087 154.458 75.944L156.278 75.736V74.982C156.278 73.929 155.81 73.63 154.666 73.63C154.029 73.63 153.522 73.747 153.08 73.851V73.266C153.639 73.045 154.25 72.928 154.965 72.928C156.343 72.928 157.097 73.487 157.097 74.787V79.454H156.434L156.356 78.882H156.304C155.979 79.233 155.407 79.558 154.51 79.558ZM154.718 78.908C155.381 78.908 155.979 78.674 156.278 78.401V76.347L154.679 76.529C153.795 76.62 153.379 76.984 153.379 77.764C153.379 78.505 153.899 78.908 154.718 78.908ZM160.944 79.519C159.956 79.519 159.345 79.103 159.345 78.063V73.734H158.409V73.045H159.345V71.524H160.164V73.045H161.867V73.734H160.164V77.946C160.164 78.583 160.372 78.856 161.152 78.856C161.425 78.856 161.75 78.804 161.984 78.726V79.272C161.763 79.402 161.464 79.519 160.944 79.519ZM163.424 79.454V73.045H164.243V79.454H163.424ZM163.411 71.706V70.809H164.256V71.706H163.411ZM168.623 79.558C166.868 79.558 165.75 78.427 165.75 76.36V76.178C165.75 74.098 166.946 72.928 168.636 72.928C170.404 72.928 171.522 74.059 171.522 76.139V76.308C171.522 78.375 170.326 79.558 168.623 79.558ZM168.649 78.882C169.871 78.882 170.677 78.037 170.677 76.386V76.113C170.677 74.254 169.793 73.591 168.623 73.591C167.388 73.591 166.595 74.475 166.595 76.087V76.386C166.595 78.219 167.492 78.882 168.649 78.882ZM173.009 79.454V73.045H173.789V73.617H173.841C174.478 73.201 175.336 72.928 176.142 72.928C177.364 72.928 177.988 73.422 177.988 74.644V79.454H177.169V74.826C177.169 73.968 176.831 73.63 175.791 73.63C175.128 73.63 174.4 73.851 173.828 74.176V79.454H173.009ZM185.723 79.558C183.968 79.558 182.85 78.427 182.85 76.36V76.178C182.85 74.098 184.046 72.928 185.736 72.928C187.504 72.928 188.622 74.059 188.622 76.139V76.308C188.622 78.375 187.426 79.558 185.723 79.558ZM185.749 78.882C186.971 78.882 187.777 78.037 187.777 76.386V76.113C187.777 74.254 186.893 73.591 185.723 73.591C184.488 73.591 183.695 74.475 183.695 76.087V76.386C183.695 78.219 184.592 78.882 185.749 78.882ZM190.525 79.454V73.734H189.537V73.045H190.525V72.083C190.525 70.679 191.331 70.081 192.501 70.081C192.995 70.081 193.333 70.159 193.58 70.276V70.874C193.372 70.822 193.086 70.744 192.644 70.744C191.838 70.744 191.331 71.134 191.331 72.135V73.045H192.878V73.734H191.331V79.454H190.525ZM2.925 95.519C1.937 95.519 1.326 95.103 1.326 94.063V89.734H0.39V89.045H1.326V87.524H2.145V89.045H3.848V89.734H2.145V93.946C2.145 94.583 2.353 94.856 3.133 94.856C3.406 94.856 3.731 94.804 3.965 94.726V95.272C3.744 95.402 3.445 95.519 2.925 95.519ZM7.99266 95.558C5.97766 95.558 4.96366 94.362 4.96366 92.321V92.165C4.96366 89.929 6.26366 88.928 7.75866 88.928C9.50066 88.928 10.3067 89.968 10.3067 91.918V92.386H5.80866C5.83466 94.141 6.61466 94.856 8.12266 94.856C8.98066 94.856 9.57866 94.661 10.1117 94.388V95.012C9.72166 95.272 9.00666 95.558 7.99266 95.558ZM7.73266 89.591C6.80966 89.591 5.92566 90.15 5.82166 91.736H9.44866C9.44866 90.267 8.88966 89.591 7.73266 89.591ZM14.3125 95.558C12.4535 95.558 11.3875 94.44 11.3875 92.347V92.178C11.3875 89.903 12.7005 88.928 14.3515 88.928C15.1835 88.928 15.6645 89.071 16.1195 89.357V90.033C15.5735 89.773 15.1315 89.63 14.2995 89.63C13.0775 89.63 12.2325 90.423 12.2325 92.048V92.334C12.2325 94.011 12.9475 94.856 14.4035 94.856C15.2875 94.856 15.8465 94.583 16.1975 94.388V95.051C15.7815 95.311 15.2355 95.558 14.3125 95.558ZM17.6053 95.454V86.146H18.4243V89.604H18.4763C19.1003 89.188 19.9323 88.941 20.7383 88.941C21.9603 88.941 22.5843 89.435 22.5843 90.657V95.454H21.7653V90.826C21.7653 89.968 21.4273 89.63 20.3873 89.63C19.7243 89.63 18.9963 89.864 18.4243 90.176V95.454H17.6053ZM24.448 95.454V89.045H25.228V89.617H25.28C25.917 89.201 26.775 88.928 27.581 88.928C28.803 88.928 29.427 89.422 29.427 90.644V95.454H28.608V90.826C28.608 89.968 28.27 89.63 27.23 89.63C26.567 89.63 25.839 89.851 25.267 90.176V95.454H24.448ZM33.7478 95.558C31.9928 95.558 30.8748 94.427 30.8748 92.36V92.178C30.8748 90.098 32.0708 88.928 33.7608 88.928C35.5288 88.928 36.6468 90.059 36.6468 92.139V92.308C36.6468 94.375 35.4508 95.558 33.7478 95.558ZM33.7738 94.882C34.9958 94.882 35.8018 94.037 35.8018 92.386V92.113C35.8018 90.254 34.9178 89.591 33.7478 89.591C32.5128 89.591 31.7198 90.475 31.7198 92.087V92.386C31.7198 94.219 32.6168 94.882 33.7738 94.882ZM38.1596 95.454V86.146H38.9786V95.454H38.1596ZM43.3581 95.558C41.6031 95.558 40.4851 94.427 40.4851 92.36V92.178C40.4851 90.098 41.6811 88.928 43.3711 88.928C45.1391 88.928 46.2571 90.059 46.2571 92.139V92.308C46.2571 94.375 45.0611 95.558 43.3581 95.558ZM43.3841 94.882C44.6061 94.882 45.4121 94.037 45.4121 92.386V92.113C45.4121 90.254 44.5281 89.591 43.3581 89.591C42.1231 89.591 41.3301 90.475 41.3301 92.087V92.386C41.3301 94.219 42.2271 94.882 43.3841 94.882ZM49.9409 97.404C47.9649 97.404 47.0939 96.806 47.0939 95.883C47.0939 95.168 47.6529 94.778 48.3419 94.531V94.479C47.9909 94.388 47.6919 94.102 47.6919 93.686C47.6919 93.283 47.9259 92.984 48.3809 92.62C47.8999 92.295 47.5749 91.775 47.5749 91.034V90.956C47.5749 89.656 48.5889 88.902 49.9669 88.902C50.2789 88.902 50.5649 88.941 50.8379 89.006H52.9959V89.63H51.7479C52.1119 89.942 52.3069 90.371 52.3069 90.93V90.995C52.3069 92.36 51.2799 93.036 49.9539 93.036C49.5379 93.036 49.1479 92.971 48.8099 92.841C48.6279 93.01 48.4719 93.179 48.4719 93.413C48.4719 93.777 48.7059 93.946 49.1479 93.946H50.9679C52.1119 93.946 52.9699 94.284 52.9699 95.467C52.9699 96.533 52.0859 97.404 49.9409 97.404ZM49.9149 96.741C51.5269 96.741 52.1119 96.286 52.1119 95.584C52.1119 94.869 51.7089 94.7 50.8379 94.7H48.9529C48.3939 94.882 47.9649 95.168 47.9649 95.766C47.9649 96.403 48.4979 96.741 49.9149 96.741ZM49.9539 92.412C50.9159 92.412 51.4879 91.944 51.4879 91.034V90.917C51.4879 89.968 50.8769 89.539 49.9539 89.539C49.0049 89.539 48.4069 90.033 48.4069 90.891V91.008C48.4069 91.944 49.0309 92.412 49.9539 92.412ZM54.6744 97.404C54.3884 97.404 54.0764 97.326 53.8944 97.235V96.624C54.0634 96.663 54.3104 96.715 54.5444 96.715C55.1814 96.715 55.5454 96.429 55.7924 95.753L56.0004 95.142L53.5304 89.032H54.3884L56.4034 94.076H56.4294L58.3014 89.032H59.1074L56.5594 95.844C56.1694 96.897 55.7014 97.404 54.6744 97.404ZM60.208 88.551L60.104 86.419H61.014L60.923 88.551H60.208ZM64.298 95.545C63.453 95.545 62.751 95.363 62.257 95.09V94.44C62.79 94.661 63.284 94.856 64.207 94.856C65.299 94.856 65.715 94.427 65.715 93.79C65.715 93.114 65.39 92.841 64.519 92.607L63.869 92.412C62.907 92.165 62.309 91.736 62.309 90.67C62.309 89.643 63.011 88.928 64.454 88.928C65.286 88.928 65.819 89.123 66.17 89.305V89.968C65.806 89.786 65.169 89.617 64.493 89.617C63.557 89.617 63.089 89.968 63.089 90.605C63.089 91.216 63.388 91.476 64.129 91.697L64.818 91.879C66.001 92.217 66.534 92.607 66.534 93.725C66.534 94.856 65.728 95.545 64.298 95.545ZM71.4334 95.454V89.032H72.2134V89.773H72.2654C72.6424 89.357 73.3574 88.954 74.1114 88.954C74.2544 88.954 74.4234 88.967 74.5014 88.993V89.747C74.3454 89.721 74.1634 89.708 74.0464 89.708C73.3704 89.708 72.7074 89.981 72.2524 90.358V95.454H71.4334ZM78.2703 95.558C76.5153 95.558 75.3973 94.427 75.3973 92.36V92.178C75.3973 90.098 76.5933 88.928 78.2833 88.928C80.0513 88.928 81.1693 90.059 81.1693 92.139V92.308C81.1693 94.375 79.9733 95.558 78.2703 95.558ZM78.2963 94.882C79.5183 94.882 80.3243 94.037 80.3243 92.386V92.113C80.3243 90.254 79.4403 89.591 78.2703 89.591C77.0353 89.591 76.2423 90.475 76.2423 92.087V92.386C76.2423 94.219 77.1393 94.882 78.2963 94.882ZM82.682 95.454V86.146H83.501V95.454H82.682ZM88.0366 95.558C86.0216 95.558 85.0076 94.362 85.0076 92.321V92.165C85.0076 89.929 86.3076 88.928 87.8026 88.928C89.5446 88.928 90.3506 89.968 90.3506 91.918V92.386H85.8526C85.8786 94.141 86.6586 94.856 88.1666 94.856C89.0246 94.856 89.6226 94.661 90.1556 94.388V95.012C89.7656 95.272 89.0506 95.558 88.0366 95.558ZM87.7766 89.591C86.8536 89.591 85.9696 90.15 85.8656 91.736H89.4926C89.4926 90.267 88.9336 89.591 87.7766 89.591ZM95.2885 95.454V89.045H96.1075V95.454H95.2885ZM95.2755 87.706V86.809H96.1205V87.706H95.2755ZM98.0301 95.454V89.045H98.8101V89.617H98.8621C99.4991 89.201 100.357 88.928 101.163 88.928C102.385 88.928 103.009 89.422 103.009 90.644V95.454H102.19V90.826C102.19 89.968 101.852 89.63 100.812 89.63C100.149 89.63 99.4211 89.851 98.8491 90.176V95.454H98.0301ZM109.887 95.545C109.042 95.545 108.34 95.363 107.846 95.09V94.44C108.379 94.661 108.873 94.856 109.796 94.856C110.888 94.856 111.304 94.427 111.304 93.79C111.304 93.114 110.979 92.841 110.108 92.607L109.458 92.412C108.496 92.165 107.898 91.736 107.898 90.67C107.898 89.643 108.6 88.928 110.043 88.928C110.875 88.928 111.408 89.123 111.759 89.305V89.968C111.395 89.786 110.758 89.617 110.082 89.617C109.146 89.617 108.678 89.968 108.678 90.605C108.678 91.216 108.977 91.476 109.718 91.697L110.407 91.879C111.59 92.217 112.123 92.607 112.123 93.725C112.123 94.856 111.317 95.545 109.887 95.545ZM115.518 95.558C114.283 95.558 113.568 94.96 113.568 93.725V89.032H114.387V93.621C114.387 94.505 114.764 94.856 115.752 94.856C116.441 94.856 117.104 94.622 117.676 94.284V89.032H118.482V95.454H117.78L117.702 94.856H117.663C117.026 95.272 116.285 95.558 115.518 95.558ZM120.399 97.378V89.045H121.179V89.565H121.231C121.673 89.227 122.349 88.928 123.22 88.928C124.637 88.928 125.82 89.695 125.82 92.113V92.256C125.82 94.57 124.689 95.558 122.921 95.558C122.167 95.558 121.582 95.35 121.205 95.116V97.378H120.399ZM122.843 94.895C124.182 94.895 124.962 94.18 124.962 92.386V92.152C124.962 90.189 124.247 89.63 123.012 89.63C122.206 89.63 121.569 89.916 121.205 90.163V94.427C121.556 94.661 122.154 94.895 122.843 94.895ZM127.331 97.378V89.045H128.111V89.565H128.163C128.605 89.227 129.281 88.928 130.152 88.928C131.569 88.928 132.752 89.695 132.752 92.113V92.256C132.752 94.57 131.621 95.558 129.853 95.558C129.099 95.558 128.514 95.35 128.137 95.116V97.378H127.331ZM129.775 94.895C131.114 94.895 131.894 94.18 131.894 92.386V92.152C131.894 90.189 131.179 89.63 129.944 89.63C129.138 89.63 128.501 89.916 128.137 90.163V94.427C128.488 94.661 129.086 94.895 129.775 94.895ZM136.719 95.558C134.964 95.558 133.846 94.427 133.846 92.36V92.178C133.846 90.098 135.042 88.928 136.732 88.928C138.5 88.928 139.618 90.059 139.618 92.139V92.308C139.618 94.375 138.422 95.558 136.719 95.558ZM136.745 94.882C137.967 94.882 138.773 94.037 138.773 92.386V92.113C138.773 90.254 137.889 89.591 136.719 89.591C135.484 89.591 134.691 90.475 134.691 92.087V92.386C134.691 94.219 135.588 94.882 136.745 94.882ZM141.105 95.454V89.032H141.885V89.773H141.937C142.314 89.357 143.029 88.954 143.783 88.954C143.926 88.954 144.095 88.967 144.173 88.993V89.747C144.017 89.721 143.835 89.708 143.718 89.708C143.042 89.708 142.379 89.981 141.924 90.358V95.454H141.105ZM147.55 95.519C146.562 95.519 145.951 95.103 145.951 94.063V89.734H145.015V89.045H145.951V87.524H146.77V89.045H148.473V89.734H146.77V93.946C146.77 94.583 146.978 94.856 147.758 94.856C148.031 94.856 148.356 94.804 148.59 94.726V95.272C148.369 95.402 148.07 95.519 147.55 95.519ZM150.031 95.454V89.045H150.85V95.454H150.031ZM150.018 87.706V86.809H150.863V87.706H150.018ZM152.772 95.454V89.045H153.552V89.617H153.604C154.241 89.201 155.099 88.928 155.905 88.928C157.127 88.928 157.751 89.422 157.751 90.644V95.454H156.932V90.826C156.932 89.968 156.594 89.63 155.554 89.63C154.891 89.63 154.163 89.851 153.591 90.176V95.454H152.772ZM161.812 97.404C159.836 97.404 158.965 96.806 158.965 95.883C158.965 95.168 159.524 94.778 160.213 94.531V94.479C159.862 94.388 159.563 94.102 159.563 93.686C159.563 93.283 159.797 92.984 160.252 92.62C159.771 92.295 159.446 91.775 159.446 91.034V90.956C159.446 89.656 160.46 88.902 161.838 88.902C162.15 88.902 162.436 88.941 162.709 89.006H164.867V89.63H163.619C163.983 89.942 164.178 90.371 164.178 90.93V90.995C164.178 92.36 163.151 93.036 161.825 93.036C161.409 93.036 161.019 92.971 160.681 92.841C160.499 93.01 160.343 93.179 160.343 93.413C160.343 93.777 160.577 93.946 161.019 93.946H162.839C163.983 93.946 164.841 94.284 164.841 95.467C164.841 96.533 163.957 97.404 161.812 97.404ZM161.786 96.741C163.398 96.741 163.983 96.286 163.983 95.584C163.983 94.869 163.58 94.7 162.709 94.7H160.824C160.265 94.882 159.836 95.168 159.836 95.766C159.836 96.403 160.369 96.741 161.786 96.741ZM161.825 92.412C162.787 92.412 163.359 91.944 163.359 91.034V90.917C163.359 89.968 162.748 89.539 161.825 89.539C160.876 89.539 160.278 90.033 160.278 90.891V91.008C160.278 91.944 160.902 92.412 161.825 92.412ZM171.443 95.519C170.455 95.519 169.844 95.103 169.844 94.063V89.734H168.908V89.045H169.844V87.524H170.663V89.045H172.366V89.734H170.663V93.946C170.663 94.583 170.871 94.856 171.651 94.856C171.924 94.856 172.249 94.804 172.483 94.726V95.272C172.262 95.402 171.963 95.519 171.443 95.519ZM173.897 95.454V86.146H174.716V89.604H174.768C175.392 89.188 176.224 88.941 177.03 88.941C178.252 88.941 178.876 89.435 178.876 90.657V95.454H178.057V90.826C178.057 89.968 177.719 89.63 176.679 89.63C176.016 89.63 175.288 89.864 174.716 90.176V95.454H173.897ZM183.353 95.558C181.338 95.558 180.324 94.362 180.324 92.321V92.165C180.324 89.929 181.624 88.928 183.119 88.928C184.861 88.928 185.667 89.968 185.667 91.918V92.386H181.169C181.195 94.141 181.975 94.856 183.483 94.856C184.341 94.856 184.939 94.661 185.472 94.388V95.012C185.082 95.272 184.367 95.558 183.353 95.558ZM183.093 89.591C182.17 89.591 181.286 90.15 181.182 91.736H184.809C184.809 90.267 184.25 89.591 183.093 89.591ZM187.19 95.454V89.045H188.009V95.454H187.19ZM187.177 87.706V86.809H188.022V87.706H187.177ZM189.931 95.454V89.032H190.711V89.773H190.763C191.14 89.357 191.855 88.954 192.609 88.954C192.752 88.954 192.921 88.967 192.999 88.993V89.747C192.843 89.721 192.661 89.708 192.544 89.708C191.868 89.708 191.205 89.981 190.75 90.358V95.454H189.931ZM2.548 111.545C1.703 111.545 1.001 111.363 0.507 111.09V110.44C1.04 110.661 1.534 110.856 2.457 110.856C3.549 110.856 3.965 110.427 3.965 109.79C3.965 109.114 3.64 108.841 2.769 108.607L2.119 108.412C1.157 108.165 0.559 107.736 0.559 106.67C0.559 105.643 1.261 104.928 2.704 104.928C3.536 104.928 4.069 105.123 4.42 105.305V105.968C4.056 105.786 3.419 105.617 2.743 105.617C1.807 105.617 1.339 105.968 1.339 106.605C1.339 107.216 1.638 107.476 2.379 107.697L3.068 107.879C4.251 108.217 4.784 108.607 4.784 109.725C4.784 110.856 3.978 111.545 2.548 111.545ZM8.88134 111.558C6.86634 111.558 5.85234 110.362 5.85234 108.321V108.165C5.85234 105.929 7.15234 104.928 8.64734 104.928C10.3893 104.928 11.1953 105.968 11.1953 107.918V108.386H6.69734C6.72334 110.141 7.50334 110.856 9.01134 110.856C9.86934 110.856 10.4673 110.661 11.0003 110.388V111.012C10.6103 111.272 9.89534 111.558 8.88134 111.558ZM8.62134 105.591C7.69834 105.591 6.81434 106.15 6.71034 107.736H10.3373C10.3373 106.267 9.77834 105.591 8.62134 105.591ZM12.7182 111.454V102.146H13.5372V111.454H12.7182ZM15.8757 111.454V105.734H14.8877V105.045H15.8757V104.083C15.8757 102.679 16.6817 102.081 17.8517 102.081C18.3457 102.081 18.6837 102.159 18.9307 102.276V102.874C18.7227 102.822 18.4367 102.744 17.9947 102.744C17.1887 102.744 16.6817 103.134 16.6817 104.135V105.045H18.2287V105.734H16.6817V111.454H15.8757ZM18.9449 106.865H23.2219V107.554H18.9449V106.865ZM24.8289 111.454V105.045H25.6089V105.617H25.6609C26.2849 105.214 27.0259 104.928 27.7409 104.928C28.4689 104.928 28.9889 105.162 29.2619 105.643H29.3139C30.0809 105.162 30.8349 104.928 31.5499 104.928C32.6549 104.928 33.3179 105.422 33.3179 106.644V111.454H32.5119V106.826C32.5119 105.968 32.1219 105.63 31.2509 105.63C30.7049 105.63 30.0939 105.812 29.4439 106.176C29.4699 106.332 29.4829 106.475 29.4829 106.644V111.454H28.6639V106.826C28.6639 105.968 28.3129 105.63 27.4419 105.63C26.8309 105.63 26.2199 105.838 25.6479 106.176V111.454H24.8289ZM36.7226 111.558C35.5656 111.558 34.7466 110.934 34.7466 109.79C34.7466 108.672 35.4356 108.087 36.6706 107.944L38.4906 107.736V106.982C38.4906 105.929 38.0226 105.63 36.8786 105.63C36.2416 105.63 35.7346 105.747 35.2926 105.851V105.266C35.8516 105.045 36.4626 104.928 37.1776 104.928C38.5556 104.928 39.3096 105.487 39.3096 106.787V111.454H38.6466L38.5686 110.882H38.5166C38.1916 111.233 37.6196 111.558 36.7226 111.558ZM36.9306 110.908C37.5936 110.908 38.1916 110.674 38.4906 110.401V108.347L36.8916 108.529C36.0076 108.62 35.5916 108.984 35.5916 109.764C35.5916 110.505 36.1116 110.908 36.9306 110.908ZM41.1804 111.454V105.045H41.9604V105.617H42.0124C42.6494 105.201 43.5074 104.928 44.3134 104.928C45.5354 104.928 46.1594 105.422 46.1594 106.644V111.454H45.3404V106.826C45.3404 105.968 45.0024 105.63 43.9624 105.63C43.2994 105.63 42.5714 105.851 41.9994 106.176V111.454H41.1804ZM49.5702 111.558C48.4132 111.558 47.5942 110.934 47.5942 109.79C47.5942 108.672 48.2832 108.087 49.5182 107.944L51.3382 107.736V106.982C51.3382 105.929 50.8702 105.63 49.7262 105.63C49.0892 105.63 48.5822 105.747 48.1402 105.851V105.266C48.6992 105.045 49.3102 104.928 50.0252 104.928C51.4032 104.928 52.1572 105.487 52.1572 106.787V111.454H51.4942L51.4162 110.882H51.3642C51.0392 111.233 50.4672 111.558 49.5702 111.558ZM49.7782 110.908C50.4412 110.908 51.0392 110.674 51.3382 110.401V108.347L49.7392 108.529C48.8552 108.62 48.4392 108.984 48.4392 109.764C48.4392 110.505 48.9592 110.908 49.7782 110.908ZM56.1616 113.404C54.1856 113.404 53.3146 112.806 53.3146 111.883C53.3146 111.168 53.8736 110.778 54.5626 110.531V110.479C54.2116 110.388 53.9126 110.102 53.9126 109.686C53.9126 109.283 54.1466 108.984 54.6016 108.62C54.1206 108.295 53.7956 107.775 53.7956 107.034V106.956C53.7956 105.656 54.8096 104.902 56.1876 104.902C56.4996 104.902 56.7856 104.941 57.0586 105.006H59.2166V105.63H57.9686C58.3326 105.942 58.5276 106.371 58.5276 106.93V106.995C58.5276 108.36 57.5006 109.036 56.1746 109.036C55.7586 109.036 55.3686 108.971 55.0306 108.841C54.8486 109.01 54.6926 109.179 54.6926 109.413C54.6926 109.777 54.9266 109.946 55.3686 109.946H57.1886C58.3326 109.946 59.1906 110.284 59.1906 111.467C59.1906 112.533 58.3066 113.404 56.1616 113.404ZM56.1356 112.741C57.7476 112.741 58.3326 112.286 58.3326 111.584C58.3326 110.869 57.9296 110.7 57.0586 110.7H55.1736C54.6146 110.882 54.1856 111.168 54.1856 111.766C54.1856 112.403 54.7186 112.741 56.1356 112.741ZM56.1746 108.412C57.1366 108.412 57.7086 107.944 57.7086 107.034V106.917C57.7086 105.968 57.0976 105.539 56.1746 105.539C55.2256 105.539 54.6276 106.033 54.6276 106.891V107.008C54.6276 107.944 55.2516 108.412 56.1746 108.412ZM63.0141 111.558C60.9991 111.558 59.9851 110.362 59.9851 108.321V108.165C59.9851 105.929 61.2851 104.928 62.7801 104.928C64.5221 104.928 65.3281 105.968 65.3281 107.918V108.386H60.8301C60.8561 110.141 61.6361 110.856 63.1441 110.856C64.0021 110.856 64.6001 110.661 65.1331 110.388V111.012C64.7431 111.272 64.0281 111.558 63.0141 111.558ZM62.7541 105.591C61.8311 105.591 60.9471 106.15 60.8431 107.736H64.4701C64.4701 106.267 63.9111 105.591 62.7541 105.591ZM66.825 111.454V105.045H67.605V105.617H67.657C68.281 105.214 69.022 104.928 69.737 104.928C70.465 104.928 70.985 105.162 71.258 105.643H71.31C72.077 105.162 72.831 104.928 73.546 104.928C74.651 104.928 75.314 105.422 75.314 106.644V111.454H74.508V106.826C74.508 105.968 74.118 105.63 73.247 105.63C72.701 105.63 72.09 105.812 71.44 106.176C71.466 106.332 71.479 106.475 71.479 106.644V111.454H70.66V106.826C70.66 105.968 70.309 105.63 69.438 105.63C68.827 105.63 68.216 105.838 67.644 106.176V111.454H66.825ZM79.7847 111.558C77.7697 111.558 76.7557 110.362 76.7557 108.321V108.165C76.7557 105.929 78.0557 104.928 79.5507 104.928C81.2927 104.928 82.0987 105.968 82.0987 107.918V108.386H77.6007C77.6267 110.141 78.4067 110.856 79.9147 110.856C80.7727 110.856 81.3707 110.661 81.9037 110.388V111.012C81.5137 111.272 80.7987 111.558 79.7847 111.558ZM79.5247 105.591C78.6017 105.591 77.7177 106.15 77.6137 107.736H81.2407C81.2407 106.267 80.6817 105.591 79.5247 105.591ZM83.5955 111.454V105.045H84.3755V105.617H84.4275C85.0645 105.201 85.9225 104.928 86.7285 104.928C87.9505 104.928 88.5745 105.422 88.5745 106.644V111.454H87.7555V106.826C87.7555 105.968 87.4175 105.63 86.3775 105.63C85.7145 105.63 84.9865 105.851 84.4145 106.176V111.454H83.5955ZM92.4143 111.519C91.4263 111.519 90.8153 111.103 90.8153 110.063V105.734H89.8793V105.045H90.8153V103.524H91.6343V105.045H93.3373V105.734H91.6343V109.946C91.6343 110.583 91.8423 110.856 92.6223 110.856C92.8953 110.856 93.2203 110.804 93.4543 110.726V111.272C93.2333 111.402 92.9343 111.519 92.4143 111.519ZM100.793 111.558C98.934 111.558 97.868 110.44 97.868 108.347V108.178C97.868 105.903 99.181 104.928 100.832 104.928C101.664 104.928 102.145 105.071 102.6 105.357V106.033C102.054 105.773 101.612 105.63 100.78 105.63C99.558 105.63 98.713 106.423 98.713 108.048V108.334C98.713 110.011 99.428 110.856 100.884 110.856C101.768 110.856 102.327 110.583 102.678 110.388V111.051C102.262 111.311 101.716 111.558 100.793 111.558ZM106.543 111.558C104.788 111.558 103.67 110.427 103.67 108.36V108.178C103.67 106.098 104.866 104.928 106.556 104.928C108.324 104.928 109.442 106.059 109.442 108.139V108.308C109.442 110.375 108.246 111.558 106.543 111.558ZM106.569 110.882C107.791 110.882 108.597 110.037 108.597 108.386V108.113C108.597 106.254 107.713 105.591 106.543 105.591C105.308 105.591 104.515 106.475 104.515 108.087V108.386C104.515 110.219 105.412 110.882 106.569 110.882ZM110.928 111.454V105.045H111.708V105.617H111.76C112.397 105.201 113.255 104.928 114.061 104.928C115.283 104.928 115.907 105.422 115.907 106.644V111.454H115.088V106.826C115.088 105.968 114.75 105.63 113.71 105.63C113.047 105.63 112.319 105.851 111.747 106.176V111.454H110.928ZM119.747 111.519C118.759 111.519 118.148 111.103 118.148 110.063V105.734H117.212V105.045H118.148V103.524H118.967V105.045H120.67V105.734H118.967V109.946C118.967 110.583 119.175 110.856 119.955 110.856C120.228 110.856 120.553 110.804 120.787 110.726V111.272C120.566 111.402 120.267 111.519 119.747 111.519ZM122.228 111.454V105.045H123.047V111.454H122.228ZM122.215 103.706V102.809H123.06V103.706H122.215ZM124.97 111.454V105.045H125.75V105.617H125.802C126.439 105.201 127.297 104.928 128.103 104.928C129.325 104.928 129.949 105.422 129.949 106.644V111.454H129.13V106.826C129.13 105.968 128.792 105.63 127.752 105.63C127.089 105.63 126.361 105.851 125.789 106.176V111.454H124.97ZM133.723 111.558C132.488 111.558 131.773 110.96 131.773 109.725V105.032H132.592V109.621C132.592 110.505 132.969 110.856 133.957 110.856C134.646 110.856 135.309 110.622 135.881 110.284V105.032H136.687V111.454H135.985L135.907 110.856H135.868C135.231 111.272 134.49 111.558 133.723 111.558ZM141.217 111.558C139.202 111.558 138.188 110.362 138.188 108.321V108.165C138.188 105.929 139.488 104.928 140.983 104.928C142.725 104.928 143.531 105.968 143.531 107.918V108.386H139.033C139.059 110.141 139.839 110.856 141.347 110.856C142.205 110.856 142.803 110.661 143.336 110.388V111.012C142.946 111.272 142.231 111.558 141.217 111.558ZM140.957 105.591C140.034 105.591 139.15 106.15 139.046 107.736H142.673C142.673 106.267 142.114 105.591 140.957 105.591ZM146.627 111.545C145.782 111.545 145.08 111.363 144.586 111.09V110.44C145.119 110.661 145.613 110.856 146.536 110.856C147.628 110.856 148.044 110.427 148.044 109.79C148.044 109.114 147.719 108.841 146.848 108.607L146.198 108.412C145.236 108.165 144.638 107.736 144.638 106.67C144.638 105.643 145.34 104.928 146.783 104.928C147.615 104.928 148.148 105.123 148.499 105.305V105.968C148.135 105.786 147.498 105.617 146.822 105.617C145.886 105.617 145.418 105.968 145.418 106.605C145.418 107.216 145.717 107.476 146.458 107.697L147.147 107.879C148.33 108.217 148.863 108.607 148.863 109.725C148.863 110.856 148.057 111.545 146.627 111.545ZM155.738 111.519C154.75 111.519 154.139 111.103 154.139 110.063V105.734H153.203V105.045H154.139V103.524H154.958V105.045H156.661V105.734H154.958V109.946C154.958 110.583 155.166 110.856 155.946 110.856C156.219 110.856 156.544 110.804 156.778 110.726V111.272C156.557 111.402 156.258 111.519 155.738 111.519ZM160.65 111.558C158.895 111.558 157.777 110.427 157.777 108.36V108.178C157.777 106.098 158.973 104.928 160.663 104.928C162.431 104.928 163.549 106.059 163.549 108.139V108.308C163.549 110.375 162.353 111.558 160.65 111.558ZM160.676 110.882C161.898 110.882 162.704 110.037 162.704 108.386V108.113C162.704 106.254 161.82 105.591 160.65 105.591C159.415 105.591 158.622 106.475 158.622 108.087V108.386C158.622 110.219 159.519 110.882 160.676 110.882ZM170.726 111.597C169.946 111.597 168.997 111.467 168.451 111.22V102.146H169.257V105.5H169.322C169.829 105.188 170.453 104.928 171.363 104.928C172.663 104.928 173.872 105.656 173.872 108.1V108.256C173.872 110.414 172.741 111.597 170.726 111.597ZM170.778 110.895C172.026 110.895 173.014 110.258 173.014 108.386V108.152C173.014 106.215 172.325 105.63 171.012 105.63C170.271 105.63 169.634 105.916 169.257 106.111V110.648C169.608 110.778 170.076 110.895 170.778 110.895ZM178.008 111.558C175.993 111.558 174.979 110.362 174.979 108.321V108.165C174.979 105.929 176.279 104.928 177.774 104.928C179.516 104.928 180.322 105.968 180.322 107.918V108.386H175.824C175.85 110.141 176.63 110.856 178.138 110.856C178.996 110.856 179.594 110.661 180.127 110.388V111.012C179.737 111.272 179.022 111.558 178.008 111.558ZM177.748 105.591C176.825 105.591 175.941 106.15 175.837 107.736H179.464C179.464 106.267 178.905 105.591 177.748 105.591ZM186.781 111.558C185.624 111.558 184.805 110.934 184.805 109.79C184.805 108.672 185.494 108.087 186.729 107.944L188.549 107.736V106.982C188.549 105.929 188.081 105.63 186.937 105.63C186.3 105.63 185.793 105.747 185.351 105.851V105.266C185.91 105.045 186.521 104.928 187.236 104.928C188.614 104.928 189.368 105.487 189.368 106.787V111.454H188.705L188.627 110.882H188.575C188.25 111.233 187.678 111.558 186.781 111.558ZM186.989 110.908C187.652 110.908 188.25 110.674 188.549 110.401V108.347L186.95 108.529C186.066 108.62 185.65 108.984 185.65 109.764C185.65 110.505 186.17 110.908 186.989 110.908ZM191.239 111.454V105.045H192.019V105.617H192.071C192.708 105.201 193.566 104.928 194.372 104.928C195.594 104.928 196.218 105.422 196.218 106.644V111.454H195.399V106.826C195.399 105.968 195.061 105.63 194.021 105.63C193.358 105.63 192.63 105.851 192.058 106.176V111.454H191.239ZM3.406 127.558C1.651 127.558 0.533 126.427 0.533 124.36V124.178C0.533 122.098 1.729 120.928 3.419 120.928C5.187 120.928 6.305 122.059 6.305 124.139V124.308C6.305 126.375 5.109 127.558 3.406 127.558ZM3.432 126.882C4.654 126.882 5.46 126.037 5.46 124.386V124.113C5.46 122.254 4.576 121.591 3.406 121.591C2.171 121.591 1.378 122.475 1.378 124.087V124.386C1.378 126.219 2.275 126.882 3.432 126.882ZM7.79177 129.378V121.045H8.57177V121.565H8.62377C9.06577 121.227 9.74177 120.928 10.6128 120.928C12.0298 120.928 13.2128 121.695 13.2128 124.113V124.256C13.2128 126.57 12.0818 127.558 10.3138 127.558C9.55977 127.558 8.97477 127.35 8.59777 127.116V129.378H7.79177ZM10.2358 126.895C11.5748 126.895 12.3548 126.18 12.3548 124.386V124.152C12.3548 122.189 11.6398 121.63 10.4048 121.63C9.59877 121.63 8.96177 121.916 8.59777 122.163V126.427C8.94877 126.661 9.54677 126.895 10.2358 126.895ZM17.3364 127.558C15.3214 127.558 14.3074 126.362 14.3074 124.321V124.165C14.3074 121.929 15.6074 120.928 17.1024 120.928C18.8444 120.928 19.6504 121.968 19.6504 123.918V124.386H15.1524C15.1784 126.141 15.9584 126.856 17.4664 126.856C18.3244 126.856 18.9224 126.661 19.4554 126.388V127.012C19.0654 127.272 18.3504 127.558 17.3364 127.558ZM17.0764 121.591C16.1534 121.591 15.2694 122.15 15.1654 123.736H18.7924C18.7924 122.267 18.2334 121.591 17.0764 121.591ZM21.1472 127.454V121.045H21.9272V121.617H21.9792C22.6162 121.201 23.4742 120.928 24.2802 120.928C25.5022 120.928 26.1262 121.422 26.1262 122.644V127.454H25.3072V122.826C25.3072 121.968 24.9692 121.63 23.9292 121.63C23.2662 121.63 22.5382 121.851 21.9662 122.176V127.454H21.1472ZM35.6171 129.391V126.999H35.5781C35.2011 127.272 34.6031 127.558 33.6671 127.558C32.3541 127.558 31.0281 126.765 31.0281 124.399V124.23C31.0281 121.747 32.4061 120.928 34.0961 120.928C35.1491 120.928 35.9161 121.136 36.4491 121.409V129.391H35.6171ZM33.9011 126.856C34.7071 126.856 35.2661 126.596 35.6171 126.284V121.877C35.2661 121.721 34.7071 121.591 34.0571 121.591C32.7701 121.591 31.8731 122.306 31.8731 124.139V124.36C31.8731 126.245 32.6791 126.856 33.9011 126.856ZM40.235 127.558C39 127.558 38.285 126.96 38.285 125.725V121.032H39.104V125.621C39.104 126.505 39.481 126.856 40.469 126.856C41.158 126.856 41.821 126.622 42.393 126.284V121.032H43.199V127.454H42.497L42.419 126.856H42.38C41.743 127.272 41.002 127.558 40.235 127.558ZM47.729 127.558C45.714 127.558 44.7 126.362 44.7 124.321V124.165C44.7 121.929 46 120.928 47.495 120.928C49.237 120.928 50.043 121.968 50.043 123.918V124.386H45.545C45.571 126.141 46.351 126.856 47.859 126.856C48.717 126.856 49.315 126.661 49.848 126.388V127.012C49.458 127.272 48.743 127.558 47.729 127.558ZM47.469 121.591C46.546 121.591 45.662 122.15 45.558 123.736H49.185C49.185 122.267 48.626 121.591 47.469 121.591ZM53.1388 127.545C52.2938 127.545 51.5918 127.363 51.0978 127.09V126.44C51.6308 126.661 52.1248 126.856 53.0478 126.856C54.1398 126.856 54.5558 126.427 54.5558 125.79C54.5558 125.114 54.2308 124.841 53.3598 124.607L52.7098 124.412C51.7478 124.165 51.1498 123.736 51.1498 122.67C51.1498 121.643 51.8518 120.928 53.2948 120.928C54.1268 120.928 54.6598 121.123 55.0108 121.305V121.968C54.6468 121.786 54.0098 121.617 53.3338 121.617C52.3978 121.617 51.9298 121.968 51.9298 122.605C51.9298 123.216 52.2288 123.476 52.9698 123.697L53.6588 123.879C54.8418 124.217 55.3748 124.607 55.3748 125.725C55.3748 126.856 54.5688 127.545 53.1388 127.545ZM58.8352 127.519C57.8472 127.519 57.2362 127.103 57.2362 126.063V121.734H56.3002V121.045H57.2362V119.524H58.0552V121.045H59.7582V121.734H58.0552V125.946C58.0552 126.583 58.2632 126.856 59.0432 126.856C59.3162 126.856 59.6412 126.804 59.8752 126.726V127.272C59.6542 127.402 59.3552 127.519 58.8352 127.519ZM61.3158 127.454V121.045H62.1348V127.454H61.3158ZM61.3028 119.706V118.809H62.1478V119.706H61.3028ZM66.5144 127.558C64.7594 127.558 63.6414 126.427 63.6414 124.36V124.178C63.6414 122.098 64.8374 120.928 66.5274 120.928C68.2954 120.928 69.4134 122.059 69.4134 124.139V124.308C69.4134 126.375 68.2174 127.558 66.5144 127.558ZM66.5404 126.882C67.7624 126.882 68.5684 126.037 68.5684 124.386V124.113C68.5684 122.254 67.6844 121.591 66.5144 121.591C65.2794 121.591 64.4864 122.475 64.4864 124.087V124.386C64.4864 126.219 65.3834 126.882 66.5404 126.882ZM70.9002 127.454V121.045H71.6802V121.617H71.7322C72.3692 121.201 73.2272 120.928 74.0332 120.928C75.2552 120.928 75.8792 121.422 75.8792 122.644V127.454H75.0602V122.826C75.0602 121.968 74.7222 121.63 73.6822 121.63C73.0192 121.63 72.2912 121.851 71.7192 122.176V127.454H70.9002ZM77.3529 127.714V126.622H78.4319V127.714H77.3529Z" fill="black"/>
</svg>
