<svg width="192" height="132" viewBox="0 0 192 132" fill="none" xmlns="http://www.w3.org/2000/svg">
<path d="M1.216 5.8H2.96V15.576H8.336V17H1.216V5.8ZM13.0589 17.16C11.8322 17.16 10.8669 16.792 10.1629 16.056C9.45888 15.3093 9.10688 14.2907 9.10688 13C9.10688 11.7093 9.45888 10.696 10.1629 9.96C10.8669 9.21333 11.8322 8.84 13.0589 8.84C14.2855 8.84 15.2509 9.21333 15.9549 9.96C16.6695 10.696 17.0269 11.7093 17.0269 13C17.0269 14.2907 16.6695 15.3093 15.9549 16.056C15.2509 16.792 14.2855 17.16 13.0589 17.16ZM13.0589 15.96C13.7949 15.96 14.3762 15.6987 14.8029 15.176C15.2295 14.6427 15.4429 13.9173 15.4429 13C15.4429 12.0827 15.2295 11.3627 14.8029 10.84C14.3762 10.3067 13.7949 10.04 13.0589 10.04C12.3122 10.04 11.7309 10.3067 11.3149 10.84C10.8989 11.3627 10.6909 12.0827 10.6909 13C10.6909 13.9173 10.8989 14.6427 11.3149 15.176C11.7309 15.6987 12.3122 15.96 13.0589 15.96ZM28.2821 9L26.2661 17H24.8581L23.0341 10.696L21.2101 17H19.7861L17.7701 9H19.4181L20.6181 14.76L22.3141 9H23.7381L25.4341 14.76L26.6341 9H28.2821ZM36.5525 17.16C35.7952 17.16 35.0912 17 34.4405 16.68C33.7898 16.36 33.2672 15.912 32.8725 15.336L33.9125 14.312C34.2432 14.7387 34.6592 15.0853 35.1605 15.352C35.6725 15.608 36.1632 15.736 36.6325 15.736C37.2192 15.736 37.6885 15.592 38.0405 15.304C38.4032 15.016 38.5845 14.6373 38.5845 14.168C38.5845 13.848 38.5205 13.576 38.3925 13.352C38.2752 13.128 38.0618 12.9093 37.7525 12.696C37.4432 12.472 36.9898 12.2107 36.3925 11.912C35.2405 11.3467 34.4298 10.8133 33.9605 10.312C33.4912 9.8 33.2565 9.19733 33.2565 8.504C33.2565 7.93867 33.4005 7.43733 33.6885 7C33.9765 6.56267 34.3872 6.22667 34.9205 5.992C35.4538 5.75733 36.0672 5.64 36.7605 5.64C37.5072 5.64 38.1792 5.8 38.7765 6.12C39.3845 6.42933 39.8218 6.84533 40.0885 7.368L38.9685 8.2C38.7125 7.83733 38.3925 7.56 38.0085 7.368C37.6352 7.16533 37.2298 7.064 36.7925 7.064C36.2378 7.064 35.8005 7.192 35.4805 7.448C35.1605 7.69333 35.0005 8.03467 35.0005 8.472C35.0005 8.73867 35.0645 8.968 35.1925 9.16C35.3312 9.352 35.5712 9.56 35.9125 9.784C36.2645 9.99733 36.8032 10.28 37.5285 10.632C38.5418 11.1227 39.2565 11.6293 39.6725 12.152C40.0992 12.664 40.3125 13.2933 40.3125 14.04C40.3125 14.6587 40.1578 15.208 39.8485 15.688C39.5392 16.1573 39.0965 16.52 38.5205 16.776C37.9552 17.032 37.2992 17.16 36.5525 17.16ZM42.1226 5.8H49.0826V7.224H43.8666V10.408H48.5226V11.832H43.8666V15.576H49.0826V17H42.1226V5.8ZM54.0525 17.16C53.2952 17.16 52.5912 17 51.9405 16.68C51.2898 16.36 50.7672 15.912 50.3725 15.336L51.4125 14.312C51.7432 14.7387 52.1592 15.0853 52.6605 15.352C53.1725 15.608 53.6632 15.736 54.1325 15.736C54.7192 15.736 55.1885 15.592 55.5405 15.304C55.9032 15.016 56.0845 14.6373 56.0845 14.168C56.0845 13.848 56.0205 13.576 55.8925 13.352C55.7752 13.128 55.5618 12.9093 55.2525 12.696C54.9432 12.472 54.4898 12.2107 53.8925 11.912C52.7405 11.3467 51.9298 10.8133 51.4605 10.312C50.9912 9.8 50.7565 9.19733 50.7565 8.504C50.7565 7.93867 50.9005 7.43733 51.1885 7C51.4765 6.56267 51.8872 6.22667 52.4205 5.992C52.9538 5.75733 53.5672 5.64 54.2605 5.64C55.0072 5.64 55.6792 5.8 56.2765 6.12C56.8845 6.42933 57.3218 6.84533 57.5885 7.368L56.4685 8.2C56.2125 7.83733 55.8925 7.56 55.5085 7.368C55.1352 7.16533 54.7298 7.064 54.2925 7.064C53.7378 7.064 53.3005 7.192 52.9805 7.448C52.6605 7.69333 52.5005 8.03467 52.5005 8.472C52.5005 8.73867 52.5645 8.968 52.6925 9.16C52.8312 9.352 53.0712 9.56 53.4125 9.784C53.7645 9.99733 54.3032 10.28 55.0285 10.632C56.0418 11.1227 56.7565 11.6293 57.1725 12.152C57.5992 12.664 57.8125 13.2933 57.8125 14.04C57.8125 14.6587 57.6578 15.208 57.3485 15.688C57.0392 16.1573 56.5965 16.52 56.0205 16.776C55.4552 17.032 54.7992 17.16 54.0525 17.16ZM63.4664 5.8H66.9064C68.165 5.8 69.1197 6.09333 69.7704 6.68C70.421 7.26667 70.7464 8.12533 70.7464 9.256C70.7464 10.4507 70.4104 11.3627 69.7384 11.992C69.0664 12.6213 68.0957 12.936 66.8264 12.936H65.2104V17H63.4664V5.8ZM67.0184 11.512C67.6797 11.512 68.1864 11.3253 68.5384 10.952C68.8904 10.568 69.0664 10.024 69.0664 9.32C69.0664 8.63733 68.8797 8.12 68.5064 7.768C68.133 7.40533 67.5944 7.224 66.8904 7.224H65.2104V11.512H67.0184ZM75.5276 17.16C74.301 17.16 73.3356 16.792 72.6316 16.056C71.9276 15.3093 71.5756 14.2907 71.5756 13C71.5756 11.7093 71.9276 10.696 72.6316 9.96C73.3356 9.21333 74.301 8.84 75.5276 8.84C76.7543 8.84 77.7196 9.21333 78.4236 9.96C79.1383 10.696 79.4956 11.7093 79.4956 13C79.4956 14.2907 79.1383 15.3093 78.4236 16.056C77.7196 16.792 76.7543 17.16 75.5276 17.16ZM75.5276 15.96C76.2636 15.96 76.845 15.6987 77.2716 15.176C77.6983 14.6427 77.9116 13.9173 77.9116 13C77.9116 12.0827 77.6983 11.3627 77.2716 10.84C76.845 10.3067 76.2636 10.04 75.5276 10.04C74.781 10.04 74.1996 10.3067 73.7836 10.84C73.3676 11.3627 73.1596 12.0827 73.1596 13C73.1596 13.9173 73.3676 14.6427 73.7836 15.176C74.1996 15.6987 74.781 15.96 75.5276 15.96ZM81.0069 11.048C81.0069 10.3013 80.9855 9.61867 80.9429 9H82.4149C82.4469 9.36267 82.4629 9.76267 82.4629 10.2H82.4949C82.7295 9.784 83.0709 9.45333 83.5189 9.208C83.9775 8.96267 84.4789 8.84 85.0229 8.84C86.0469 8.84 86.8522 9.21333 87.4389 9.96C88.0255 10.696 88.3189 11.7093 88.3189 13C88.3189 14.28 88.0149 15.2933 87.4069 16.04C86.8095 16.7867 85.9935 17.16 84.9589 17.16C84.4255 17.16 83.9509 17.064 83.5349 16.872C83.1295 16.6693 82.8309 16.3867 82.6389 16.024H82.5909V20.872H81.0069V11.048ZM84.6709 15.96C85.3109 15.96 85.8122 15.6933 86.1749 15.16C86.5482 14.6267 86.7349 13.8907 86.7349 12.952C86.7349 12.024 86.5589 11.3147 86.2069 10.824C85.8549 10.3333 85.3535 10.088 84.7029 10.088C84.0842 10.088 83.5775 10.2853 83.1829 10.68C82.7882 11.064 82.5909 11.5707 82.5909 12.2V13.72C82.5909 14.3707 82.7829 14.9093 83.1669 15.336C83.5615 15.752 84.0629 15.96 84.6709 15.96ZM92.587 17.16C91.6697 17.16 90.971 16.8613 90.491 16.264C90.0217 15.656 89.787 14.7653 89.787 13.592V9H91.371V13.608C91.371 14.376 91.5043 14.9467 91.771 15.32C92.0377 15.6933 92.443 15.88 92.987 15.88C93.627 15.88 94.155 15.64 94.571 15.16C94.9977 14.68 95.211 14.072 95.211 13.336V9H96.795V15.192C96.795 15.768 96.843 16.3707 96.939 17H95.451C95.3657 16.5413 95.3177 16.0667 95.307 15.576H95.259C95.0457 16.0667 94.6937 16.456 94.203 16.744C93.723 17.0213 93.1843 17.16 92.587 17.16ZM100.646 17.16C100.038 17.16 99.5793 16.9893 99.27 16.648C98.9607 16.296 98.806 15.7787 98.806 15.096V5.128H100.39V15.096C100.39 15.4267 100.449 15.6613 100.566 15.8C100.694 15.9387 100.897 16.008 101.174 16.008C101.398 16.008 101.675 15.9387 102.006 15.8L102.246 16.712C101.83 17.0107 101.297 17.16 100.646 17.16ZM105.749 17.16C105.226 17.16 104.757 17.0533 104.341 16.84C103.936 16.6267 103.616 16.3333 103.381 15.96C103.157 15.576 103.045 15.144 103.045 14.664C103.045 13.8533 103.354 13.2347 103.973 12.808C104.592 12.3707 105.472 12.152 106.613 12.152H108.117V11.752C108.117 11.2187 107.973 10.808 107.685 10.52C107.397 10.232 106.976 10.088 106.421 10.088C105.941 10.088 105.493 10.184 105.077 10.376C104.661 10.5573 104.32 10.824 104.053 11.176L103.301 10.232C103.685 9.784 104.149 9.44267 104.693 9.208C105.248 8.96267 105.845 8.84 106.485 8.84C107.509 8.84 108.304 9.09067 108.869 9.592C109.434 10.0827 109.717 10.7813 109.717 11.688V15.4C109.717 15.88 109.781 16.4133 109.909 17H108.517C108.41 16.744 108.336 16.3867 108.293 15.928H108.261C107.653 16.7493 106.816 17.16 105.749 17.16ZM106.053 15.928C106.629 15.928 107.114 15.7733 107.509 15.464C107.914 15.144 108.117 14.76 108.117 14.312V13.256H106.549C105.92 13.256 105.434 13.3787 105.093 13.624C104.762 13.8587 104.597 14.2053 104.597 14.664C104.597 15.0587 104.725 15.368 104.981 15.592C105.248 15.816 105.605 15.928 106.053 15.928ZM114.75 17.16C114.003 17.16 113.417 16.936 112.99 16.488C112.574 16.0293 112.366 15.4 112.366 14.6V10.216H110.926V9H112.366V6.888L113.886 6.44H113.95V9H116.238V10.216H113.95V14.408C113.95 14.9307 114.051 15.3147 114.254 15.56C114.467 15.8053 114.787 15.928 115.214 15.928C115.641 15.928 116.019 15.864 116.35 15.736L116.446 16.872C116.051 17.064 115.486 17.16 114.75 17.16ZM119.032 7.768C118.701 7.768 118.44 7.67733 118.248 7.496C118.056 7.31467 117.96 7.06933 117.96 6.76C117.96 6.45067 118.056 6.20533 118.248 6.024C118.44 5.84267 118.701 5.752 119.032 5.752C119.363 5.752 119.624 5.84267 119.816 6.024C120.019 6.20533 120.12 6.45067 120.12 6.76C120.12 7.06933 120.019 7.31467 119.816 7.496C119.624 7.67733 119.363 7.768 119.032 7.768ZM118.248 9H119.832V17H118.248V9ZM125.575 17.16C124.348 17.16 123.383 16.792 122.679 16.056C121.975 15.3093 121.623 14.2907 121.623 13C121.623 11.7093 121.975 10.696 122.679 9.96C123.383 9.21333 124.348 8.84 125.575 8.84C126.801 8.84 127.767 9.21333 128.471 9.96C129.185 10.696 129.543 11.7093 129.543 13C129.543 14.2907 129.185 15.3093 128.471 16.056C127.767 16.792 126.801 17.16 125.575 17.16ZM125.575 15.96C126.311 15.96 126.892 15.6987 127.319 15.176C127.745 14.6427 127.959 13.9173 127.959 13C127.959 12.0827 127.745 11.3627 127.319 10.84C126.892 10.3067 126.311 10.04 125.575 10.04C124.828 10.04 124.247 10.3067 123.831 10.84C123.415 11.3627 123.207 12.0827 123.207 13C123.207 13.9173 123.415 14.6427 123.831 15.176C124.247 15.6987 124.828 15.96 125.575 15.96ZM130.99 11.048C130.99 10.056 130.968 9.37333 130.926 9H132.398C132.451 9.39467 132.478 9.864 132.478 10.408H132.526C132.739 9.928 133.086 9.54933 133.566 9.272C134.056 8.984 134.6 8.84 135.198 8.84C137.075 8.84 138.014 10.056 138.014 12.488V17H136.43V12.472C136.43 11.672 136.296 11.08 136.03 10.696C135.763 10.312 135.352 10.12 134.798 10.12C134.147 10.12 133.614 10.3547 133.198 10.824C132.782 11.2933 132.574 11.8907 132.574 12.616V17H130.99V11.048Z" fill="black"/>
<path d="M1.118 47.454V38.731H1.95V42.579H6.617V38.731H7.449V47.454H6.617V43.281H1.95V47.454H1.118ZM9.54434 47.454V41.045H10.3633V47.454H9.54434ZM9.53134 39.706V38.809H10.3763V39.706H9.53134ZM13.8849 47.545C13.0399 47.545 12.3379 47.363 11.8439 47.09V46.44C12.3769 46.661 12.8709 46.856 13.7939 46.856C14.8859 46.856 15.3019 46.427 15.3019 45.79C15.3019 45.114 14.9769 44.841 14.1059 44.607L13.4559 44.412C12.4939 44.165 11.8959 43.736 11.8959 42.67C11.8959 41.643 12.5979 40.928 14.0409 40.928C14.8729 40.928 15.4059 41.123 15.7569 41.305V41.968C15.3929 41.786 14.7559 41.617 14.0799 41.617C13.1439 41.617 12.6759 41.968 12.6759 42.605C12.6759 43.216 12.9749 43.476 13.7159 43.697L14.4049 43.879C15.5879 44.217 16.1209 44.607 16.1209 45.725C16.1209 46.856 15.3149 47.545 13.8849 47.545ZM19.5813 47.519C18.5933 47.519 17.9823 47.103 17.9823 46.063V41.734H17.0463V41.045H17.9823V39.524H18.8013V41.045H20.5043V41.734H18.8013V45.946C18.8013 46.583 19.0093 46.856 19.7893 46.856C20.0623 46.856 20.3873 46.804 20.6213 46.726V47.272C20.4003 47.402 20.1013 47.519 19.5813 47.519ZM24.4929 47.558C22.7379 47.558 21.6199 46.427 21.6199 44.36V44.178C21.6199 42.098 22.8159 40.928 24.5059 40.928C26.2739 40.928 27.3919 42.059 27.3919 44.139V44.308C27.3919 46.375 26.1959 47.558 24.4929 47.558ZM24.5189 46.882C25.7409 46.882 26.5469 46.037 26.5469 44.386V44.113C26.5469 42.254 25.6629 41.591 24.4929 41.591C23.2579 41.591 22.4649 42.475 22.4649 44.087V44.386C22.4649 46.219 23.3619 46.882 24.5189 46.882ZM28.8787 47.454V41.032H29.6587V41.773H29.7107C30.0877 41.357 30.8027 40.954 31.5567 40.954C31.6997 40.954 31.8687 40.967 31.9467 40.993V41.747C31.7907 41.721 31.6087 41.708 31.4917 41.708C30.8157 41.708 30.1527 41.981 29.6977 42.358V47.454H28.8787ZM33.2846 47.454V41.045H34.1036V47.454H33.2846ZM33.2716 39.706V38.809H34.1166V39.706H33.2716ZM38.5351 47.558C36.6761 47.558 35.6101 46.44 35.6101 44.347V44.178C35.6101 41.903 36.9231 40.928 38.5741 40.928C39.4061 40.928 39.8871 41.071 40.3421 41.357V42.033C39.7961 41.773 39.3541 41.63 38.5221 41.63C37.3001 41.63 36.4551 42.423 36.4551 44.048V44.334C36.4551 46.011 37.1701 46.856 38.6261 46.856C39.5101 46.856 40.0691 46.583 40.4201 46.388V47.051C40.0041 47.311 39.4581 47.558 38.5351 47.558ZM43.3749 47.558C42.2179 47.558 41.3989 46.934 41.3989 45.79C41.3989 44.672 42.0879 44.087 43.3229 43.944L45.1429 43.736V42.982C45.1429 41.929 44.6749 41.63 43.5309 41.63C42.8939 41.63 42.3869 41.747 41.9449 41.851V41.266C42.5039 41.045 43.1149 40.928 43.8299 40.928C45.2079 40.928 45.9619 41.487 45.9619 42.787V47.454H45.2989L45.2209 46.882H45.1689C44.8439 47.233 44.2719 47.558 43.3749 47.558ZM43.5829 46.908C44.2459 46.908 44.8439 46.674 45.1429 46.401V44.347L43.5439 44.529C42.6599 44.62 42.2439 44.984 42.2439 45.764C42.2439 46.505 42.7639 46.908 43.5829 46.908ZM47.8588 47.454V38.146H48.6778V47.454H47.8588ZM50.6264 47.454V38.146H51.4454V47.454H50.6264ZM53.8619 49.404C53.5759 49.404 53.2639 49.326 53.0819 49.235V48.624C53.2509 48.663 53.4979 48.715 53.7319 48.715C54.3689 48.715 54.7329 48.429 54.9799 47.753L55.1879 47.142L52.7179 41.032H53.5759L55.5909 46.076H55.6169L57.4889 41.032H58.2949L55.7469 47.844C55.3569 48.897 54.8889 49.404 53.8619 49.404ZM64.8385 47.558C63.6035 47.558 62.8885 46.96 62.8885 45.725V41.032H63.7075V45.621C63.7075 46.505 64.0845 46.856 65.0725 46.856C65.7615 46.856 66.4245 46.622 66.9965 46.284V41.032H67.8025V47.454H67.1005L67.0225 46.856H66.9835C66.3465 47.272 65.6055 47.558 64.8385 47.558ZM69.7195 47.454V41.045H70.4995V41.617H70.5515C71.1885 41.201 72.0465 40.928 72.8525 40.928C74.0745 40.928 74.6985 41.422 74.6985 42.644V47.454H73.8795V42.826C73.8795 41.968 73.5415 41.63 72.5015 41.63C71.8385 41.63 71.1105 41.851 70.5385 42.176V47.454H69.7195ZM78.8243 47.558C77.5113 47.558 76.1853 46.765 76.1853 44.399V44.23C76.1853 41.929 77.3683 40.928 79.0193 40.928C79.8513 40.928 80.4103 41.162 80.7743 41.396V38.146H81.5933V47.454H80.9043L80.8263 46.895H80.7743C80.3453 47.285 79.7343 47.558 78.8243 47.558ZM79.0583 46.895C79.8643 46.895 80.4233 46.596 80.7743 46.284V42.085C80.4493 41.825 79.8253 41.63 79.1493 41.63C77.8493 41.63 77.0303 42.306 77.0303 44.139V44.373C77.0303 46.245 77.8623 46.895 79.0583 46.895ZM86.1069 47.558C84.0919 47.558 83.0779 46.362 83.0779 44.321V44.165C83.0779 41.929 84.3779 40.928 85.8729 40.928C87.6149 40.928 88.4209 41.968 88.4209 43.918V44.386H83.9229C83.9489 46.141 84.7289 46.856 86.2369 46.856C87.0949 46.856 87.6929 46.661 88.2259 46.388V47.012C87.8359 47.272 87.1209 47.558 86.1069 47.558ZM85.8469 41.591C84.9239 41.591 84.0399 42.15 83.9359 43.736H87.5629C87.5629 42.267 87.0039 41.591 85.8469 41.591ZM89.9178 47.454V41.032H90.6978V41.773H90.7498C91.1268 41.357 91.8418 40.954 92.5958 40.954C92.7388 40.954 92.9078 40.967 92.9858 40.993V41.747C92.8298 41.721 92.6478 41.708 92.5308 41.708C91.8548 41.708 91.1918 41.981 90.7368 42.358V47.454H89.9178ZM95.8966 47.545C95.0516 47.545 94.3496 47.363 93.8556 47.09V46.44C94.3886 46.661 94.8826 46.856 95.8056 46.856C96.8976 46.856 97.3136 46.427 97.3136 45.79C97.3136 45.114 96.9886 44.841 96.1176 44.607L95.4676 44.412C94.5056 44.165 93.9076 43.736 93.9076 42.67C93.9076 41.643 94.6096 40.928 96.0526 40.928C96.8846 40.928 97.4176 41.123 97.7686 41.305V41.968C97.4046 41.786 96.7676 41.617 96.0916 41.617C95.1556 41.617 94.6876 41.968 94.6876 42.605C94.6876 43.216 94.9866 43.476 95.7276 43.697L96.4166 43.879C97.5996 44.217 98.1326 44.607 98.1326 45.725C98.1326 46.856 97.3266 47.545 95.8966 47.545ZM102.23 47.558C100.215 47.558 99.201 46.362 99.201 44.321V44.165C99.201 41.929 100.501 40.928 101.996 40.928C103.738 40.928 104.544 41.968 104.544 43.918V44.386H100.046C100.072 46.141 100.852 46.856 102.36 46.856C103.218 46.856 103.816 46.661 104.349 46.388V47.012C103.959 47.272 103.244 47.558 102.23 47.558ZM101.97 41.591C101.047 41.591 100.163 42.15 100.059 43.736H103.686C103.686 42.267 103.127 41.591 101.97 41.591ZM106.041 47.454V41.032H106.821V41.773H106.873C107.25 41.357 107.965 40.954 108.719 40.954C108.862 40.954 109.031 40.967 109.109 40.993V41.747C108.953 41.721 108.771 41.708 108.654 41.708C107.978 41.708 107.315 41.981 106.86 42.358V47.454H106.041ZM112.329 47.454L109.911 41.032H110.795L112.745 46.388H112.771L114.734 41.032H115.553L113.148 47.454H112.329ZM119.432 47.558C117.417 47.558 116.403 46.362 116.403 44.321V44.165C116.403 41.929 117.703 40.928 119.198 40.928C120.94 40.928 121.746 41.968 121.746 43.918V44.386H117.248C117.274 46.141 118.054 46.856 119.562 46.856C120.42 46.856 121.018 46.661 121.551 46.388V47.012C121.161 47.272 120.446 47.558 119.432 47.558ZM119.172 41.591C118.249 41.591 117.365 42.15 117.261 43.736H120.888C120.888 42.267 120.329 41.591 119.172 41.591ZM125.505 47.558C124.192 47.558 122.866 46.765 122.866 44.399V44.23C122.866 41.929 124.049 40.928 125.7 40.928C126.532 40.928 127.091 41.162 127.455 41.396V38.146H128.274V47.454H127.585L127.507 46.895H127.455C127.026 47.285 126.415 47.558 125.505 47.558ZM125.739 46.895C126.545 46.895 127.104 46.596 127.455 46.284V42.085C127.13 41.825 126.506 41.63 125.83 41.63C124.53 41.63 123.711 42.306 123.711 44.139V44.373C123.711 46.245 124.543 46.895 125.739 46.895ZM129.421 49.144L129.928 46.609H130.981L130.032 49.144H129.421ZM138.321 47.519C137.333 47.519 136.722 47.103 136.722 46.063V41.734H135.786V41.045H136.722V39.524H137.541V41.045H139.244V41.734H137.541V45.946C137.541 46.583 137.749 46.856 138.529 46.856C138.802 46.856 139.127 46.804 139.361 46.726V47.272C139.14 47.402 138.841 47.519 138.321 47.519ZM140.775 47.454V38.146H141.594V41.604H141.646C142.27 41.188 143.102 40.941 143.908 40.941C145.13 40.941 145.754 41.435 145.754 42.657V47.454H144.935V42.826C144.935 41.968 144.597 41.63 143.557 41.63C142.894 41.63 142.166 41.864 141.594 42.176V47.454H140.775ZM150.231 47.558C148.216 47.558 147.202 46.362 147.202 44.321V44.165C147.202 41.929 148.502 40.928 149.997 40.928C151.739 40.928 152.545 41.968 152.545 43.918V44.386H148.047C148.073 46.141 148.853 46.856 150.361 46.856C151.219 46.856 151.817 46.661 152.35 46.388V47.012C151.96 47.272 151.245 47.558 150.231 47.558ZM149.971 41.591C149.048 41.591 148.164 42.15 148.06 43.736H151.687C151.687 42.267 151.128 41.591 149.971 41.591ZM157.483 47.454V38.146H158.302V47.454H157.483ZM162.681 47.558C160.926 47.558 159.808 46.427 159.808 44.36V44.178C159.808 42.098 161.004 40.928 162.694 40.928C164.462 40.928 165.58 42.059 165.58 44.139V44.308C165.58 46.375 164.384 47.558 162.681 47.558ZM162.707 46.882C163.929 46.882 164.735 46.037 164.735 44.386V44.113C164.735 42.254 163.851 41.591 162.681 41.591C161.446 41.591 160.653 42.475 160.653 44.087V44.386C160.653 46.219 161.55 46.882 162.707 46.882ZM168.341 47.454L166.495 41.032H167.366L168.809 46.375H168.848L170.473 41.032H171.188L172.813 46.375H172.865L174.295 41.032H175.088L173.242 47.454H172.397L170.824 42.293H170.798L169.186 47.454H168.341ZM175.872 42.865H180.149V43.554H175.872V42.865ZM2.548 63.545C1.703 63.545 1.001 63.363 0.507 63.09V62.44C1.04 62.661 1.534 62.856 2.457 62.856C3.549 62.856 3.965 62.427 3.965 61.79C3.965 61.114 3.64 60.841 2.769 60.607L2.119 60.412C1.157 60.165 0.559 59.736 0.559 58.67C0.559 57.643 1.261 56.928 2.704 56.928C3.536 56.928 4.069 57.123 4.42 57.305V57.968C4.056 57.786 3.419 57.617 2.743 57.617C1.807 57.617 1.339 57.968 1.339 58.605C1.339 59.216 1.638 59.476 2.379 59.697L3.068 59.879C4.251 60.217 4.784 60.607 4.784 61.725C4.784 62.856 3.978 63.545 2.548 63.545ZM8.72534 63.558C6.97034 63.558 5.85234 62.427 5.85234 60.36V60.178C5.85234 58.098 7.04834 56.928 8.73834 56.928C10.5063 56.928 11.6243 58.059 11.6243 60.139V60.308C11.6243 62.375 10.4283 63.558 8.72534 63.558ZM8.75134 62.882C9.97334 62.882 10.7793 62.037 10.7793 60.386V60.113C10.7793 58.254 9.89534 57.591 8.72534 57.591C7.49034 57.591 6.69734 58.475 6.69734 60.087V60.386C6.69734 62.219 7.59434 62.882 8.75134 62.882ZM15.6201 63.558C13.7611 63.558 12.6951 62.44 12.6951 60.347V60.178C12.6951 57.903 14.0081 56.928 15.6591 56.928C16.4911 56.928 16.9721 57.071 17.4271 57.357V58.033C16.8811 57.773 16.4391 57.63 15.6071 57.63C14.3851 57.63 13.5401 58.423 13.5401 60.048V60.334C13.5401 62.011 14.2551 62.856 15.7111 62.856C16.5951 62.856 17.1541 62.583 17.5051 62.388V63.051C17.0891 63.311 16.5431 63.558 15.6201 63.558ZM18.9389 63.454V57.045H19.7579V63.454H18.9389ZM18.9259 55.706V54.809H19.7709V55.706H18.9259ZM24.1374 63.558C22.3824 63.558 21.2644 62.427 21.2644 60.36V60.178C21.2644 58.098 22.4604 56.928 24.1504 56.928C25.9184 56.928 27.0364 58.059 27.0364 60.139V60.308C27.0364 62.375 25.8404 63.558 24.1374 63.558ZM24.1634 62.882C25.3854 62.882 26.1914 62.037 26.1914 60.386V60.113C26.1914 58.254 25.3074 57.591 24.1374 57.591C22.9024 57.591 22.1094 58.475 22.1094 60.087V60.386C22.1094 62.219 23.0064 62.882 24.1634 62.882ZM31.1362 63.558C29.1212 63.558 28.1072 62.362 28.1072 60.321V60.165C28.1072 57.929 29.4072 56.928 30.9022 56.928C32.6442 56.928 33.4502 57.968 33.4502 59.918V60.386H28.9522C28.9782 62.141 29.7582 62.856 31.2662 62.856C32.1242 62.856 32.7222 62.661 33.2552 62.388V63.012C32.8652 63.272 32.1502 63.558 31.1362 63.558ZM30.8762 57.591C29.9532 57.591 29.0692 58.15 28.9652 59.736H32.5922C32.5922 58.267 32.0332 57.591 30.8762 57.591ZM37.456 63.558C35.597 63.558 34.531 62.44 34.531 60.347V60.178C34.531 57.903 35.844 56.928 37.495 56.928C38.327 56.928 38.808 57.071 39.263 57.357V58.033C38.717 57.773 38.275 57.63 37.443 57.63C36.221 57.63 35.376 58.423 35.376 60.048V60.334C35.376 62.011 36.091 62.856 37.547 62.856C38.431 62.856 38.99 62.583 39.341 62.388V63.051C38.925 63.311 38.379 63.558 37.456 63.558ZM43.2058 63.558C41.4508 63.558 40.3328 62.427 40.3328 60.36V60.178C40.3328 58.098 41.5288 56.928 43.2188 56.928C44.9868 56.928 46.1048 58.059 46.1048 60.139V60.308C46.1048 62.375 44.9088 63.558 43.2058 63.558ZM43.2318 62.882C44.4538 62.882 45.2598 62.037 45.2598 60.386V60.113C45.2598 58.254 44.3758 57.591 43.2058 57.591C41.9708 57.591 41.1778 58.475 41.1778 60.087V60.386C41.1778 62.219 42.0748 62.882 43.2318 62.882ZM47.5916 63.454V57.045H48.3716V57.617H48.4236C49.0606 57.201 49.9186 56.928 50.7246 56.928C51.9466 56.928 52.5706 57.422 52.5706 58.644V63.454H51.7516V58.826C51.7516 57.968 51.4136 57.63 50.3736 57.63C49.7106 57.63 48.9826 57.851 48.4106 58.176V63.454H47.5916ZM56.8914 63.558C55.1364 63.558 54.0184 62.427 54.0184 60.36V60.178C54.0184 58.098 55.2144 56.928 56.9044 56.928C58.6724 56.928 59.7904 58.059 59.7904 60.139V60.308C59.7904 62.375 58.5944 63.558 56.8914 63.558ZM56.9174 62.882C58.1394 62.882 58.9454 62.037 58.9454 60.386V60.113C58.9454 58.254 58.0614 57.591 56.8914 57.591C55.6564 57.591 54.8634 58.475 54.8634 60.087V60.386C54.8634 62.219 55.7604 62.882 56.9174 62.882ZM61.2771 63.454V57.045H62.0571V57.617H62.1091C62.7331 57.214 63.4741 56.928 64.1891 56.928C64.9171 56.928 65.4371 57.162 65.7101 57.643H65.7621C66.5291 57.162 67.2831 56.928 67.9981 56.928C69.1031 56.928 69.7661 57.422 69.7661 58.644V63.454H68.9601V58.826C68.9601 57.968 68.5701 57.63 67.6991 57.63C67.1531 57.63 66.5421 57.812 65.8921 58.176C65.9181 58.332 65.9311 58.475 65.9311 58.644V63.454H65.1121V58.826C65.1121 57.968 64.7611 57.63 63.8901 57.63C63.2791 57.63 62.6681 57.838 62.0961 58.176V63.454H61.2771ZM71.6498 63.454V57.045H72.4688V63.454H71.6498ZM71.6368 55.706V54.809H72.4818V55.706H71.6368ZM76.9004 63.558C75.0414 63.558 73.9754 62.44 73.9754 60.347V60.178C73.9754 57.903 75.2884 56.928 76.9394 56.928C77.7714 56.928 78.2524 57.071 78.7074 57.357V58.033C78.1614 57.773 77.7194 57.63 76.8874 57.63C75.6654 57.63 74.8204 58.423 74.8204 60.048V60.334C74.8204 62.011 75.5354 62.856 76.9914 62.856C77.8754 62.856 78.4344 62.583 78.7854 62.388V63.051C78.3694 63.311 77.8234 63.558 76.9004 63.558ZM85.8702 63.558C84.5572 63.558 83.2312 62.765 83.2312 60.399V60.23C83.2312 57.929 84.4142 56.928 86.0652 56.928C86.8972 56.928 87.4562 57.162 87.8202 57.396V54.146H88.6392V63.454H87.9502L87.8722 62.895H87.8202C87.3912 63.285 86.7802 63.558 85.8702 63.558ZM86.1042 62.895C86.9102 62.895 87.4692 62.596 87.8202 62.284V58.085C87.4952 57.825 86.8712 57.63 86.1952 57.63C84.8952 57.63 84.0762 58.306 84.0762 60.139V60.373C84.0762 62.245 84.9082 62.895 86.1042 62.895ZM93.1528 63.558C91.1378 63.558 90.1238 62.362 90.1238 60.321V60.165C90.1238 57.929 91.4238 56.928 92.9188 56.928C94.6608 56.928 95.4668 57.968 95.4668 59.918V60.386H90.9688C90.9948 62.141 91.7748 62.856 93.2828 62.856C94.1408 62.856 94.7388 62.661 95.2718 62.388V63.012C94.8818 63.272 94.1668 63.558 93.1528 63.558ZM92.8928 57.591C91.9698 57.591 91.0858 58.15 90.9818 59.736H94.6088C94.6088 58.267 94.0498 57.591 92.8928 57.591ZM96.9636 63.454V57.045H97.7436V57.617H97.7956C98.4196 57.214 99.1606 56.928 99.8756 56.928C100.604 56.928 101.124 57.162 101.397 57.643H101.449C102.216 57.162 102.97 56.928 103.685 56.928C104.79 56.928 105.453 57.422 105.453 58.644V63.454H104.647V58.826C104.647 57.968 104.257 57.63 103.386 57.63C102.84 57.63 102.229 57.812 101.579 58.176C101.605 58.332 101.618 58.475 101.618 58.644V63.454H100.799V58.826C100.799 57.968 100.448 57.63 99.5766 57.63C98.9656 57.63 98.3546 57.838 97.7826 58.176V63.454H96.9636ZM109.767 63.558C108.012 63.558 106.894 62.427 106.894 60.36V60.178C106.894 58.098 108.09 56.928 109.78 56.928C111.548 56.928 112.666 58.059 112.666 60.139V60.308C112.666 62.375 111.47 63.558 109.767 63.558ZM109.793 62.882C111.015 62.882 111.821 62.037 111.821 60.386V60.113C111.821 58.254 110.937 57.591 109.767 57.591C108.532 57.591 107.739 58.475 107.739 60.087V60.386C107.739 62.219 108.636 62.882 109.793 62.882ZM116.35 65.404C114.374 65.404 113.503 64.806 113.503 63.883C113.503 63.168 114.062 62.778 114.751 62.531V62.479C114.4 62.388 114.101 62.102 114.101 61.686C114.101 61.283 114.335 60.984 114.79 60.62C114.309 60.295 113.984 59.775 113.984 59.034V58.956C113.984 57.656 114.998 56.902 116.376 56.902C116.688 56.902 116.974 56.941 117.247 57.006H119.405V57.63H118.157C118.521 57.942 118.716 58.371 118.716 58.93V58.995C118.716 60.36 117.689 61.036 116.363 61.036C115.947 61.036 115.557 60.971 115.219 60.841C115.037 61.01 114.881 61.179 114.881 61.413C114.881 61.777 115.115 61.946 115.557 61.946H117.377C118.521 61.946 119.379 62.284 119.379 63.467C119.379 64.533 118.495 65.404 116.35 65.404ZM116.324 64.741C117.936 64.741 118.521 64.286 118.521 63.584C118.521 62.869 118.118 62.7 117.247 62.7H115.362C114.803 62.882 114.374 63.168 114.374 63.766C114.374 64.403 114.907 64.741 116.324 64.741ZM116.363 60.412C117.325 60.412 117.897 59.944 117.897 59.034V58.917C117.897 57.968 117.286 57.539 116.363 57.539C115.414 57.539 114.816 58.033 114.816 58.891V59.008C114.816 59.944 115.44 60.412 116.363 60.412ZM120.59 63.454V57.032H121.37V57.773H121.422C121.799 57.357 122.514 56.954 123.268 56.954C123.411 56.954 123.58 56.967 123.658 56.993V57.747C123.502 57.721 123.32 57.708 123.203 57.708C122.527 57.708 121.864 57.981 121.409 58.358V63.454H120.59ZM126.351 63.558C125.194 63.558 124.375 62.934 124.375 61.79C124.375 60.672 125.064 60.087 126.299 59.944L128.119 59.736V58.982C128.119 57.929 127.651 57.63 126.507 57.63C125.87 57.63 125.363 57.747 124.921 57.851V57.266C125.48 57.045 126.091 56.928 126.806 56.928C128.184 56.928 128.938 57.487 128.938 58.787V63.454H128.275L128.197 62.882H128.145C127.82 63.233 127.248 63.558 126.351 63.558ZM126.559 62.908C127.222 62.908 127.82 62.674 128.119 62.401V60.347L126.52 60.529C125.636 60.62 125.22 60.984 125.22 61.764C125.22 62.505 125.74 62.908 126.559 62.908ZM130.809 65.378V57.045H131.589V57.565H131.641C132.083 57.227 132.759 56.928 133.63 56.928C135.047 56.928 136.23 57.695 136.23 60.113V60.256C136.23 62.57 135.099 63.558 133.331 63.558C132.577 63.558 131.992 63.35 131.615 63.116V65.378H130.809ZM133.253 62.895C134.592 62.895 135.372 62.18 135.372 60.386V60.152C135.372 58.189 134.657 57.63 133.422 57.63C132.616 57.63 131.979 57.916 131.615 58.163V62.427C131.966 62.661 132.564 62.895 133.253 62.895ZM137.741 63.454V54.146H138.56V57.604H138.612C139.236 57.188 140.068 56.941 140.874 56.941C142.096 56.941 142.72 57.435 142.72 58.657V63.454H141.901V58.826C141.901 57.968 141.563 57.63 140.523 57.63C139.86 57.63 139.132 57.864 138.56 58.176V63.454H137.741ZM144.61 63.454V57.045H145.429V63.454H144.61ZM144.597 55.706V54.809H145.442V55.706H144.597ZM149.86 63.558C148.001 63.558 146.935 62.44 146.935 60.347V60.178C146.935 57.903 148.248 56.928 149.899 56.928C150.731 56.928 151.212 57.071 151.667 57.357V58.033C151.121 57.773 150.679 57.63 149.847 57.63C148.625 57.63 147.78 58.423 147.78 60.048V60.334C147.78 62.011 148.495 62.856 149.951 62.856C150.835 62.856 151.394 62.583 151.745 62.388V63.051C151.329 63.311 150.783 63.558 149.86 63.558ZM0.949 79.454V73.032H1.729V73.773H1.781C2.158 73.357 2.873 72.954 3.627 72.954C3.77 72.954 3.939 72.967 4.017 72.993V73.747C3.861 73.721 3.679 73.708 3.562 73.708C2.886 73.708 2.223 73.981 1.768 74.358V79.454H0.949ZM7.94188 79.558C5.92688 79.558 4.91288 78.362 4.91288 76.321V76.165C4.91288 73.929 6.21288 72.928 7.70788 72.928C9.44988 72.928 10.2559 73.968 10.2559 75.918V76.386H5.75788C5.78388 78.141 6.56388 78.856 8.07188 78.856C8.92988 78.856 9.52788 78.661 10.0609 78.388V79.012C9.67088 79.272 8.95588 79.558 7.94188 79.558ZM7.68188 73.591C6.75888 73.591 5.87488 74.15 5.77088 75.736H9.39788C9.39788 74.267 8.83888 73.591 7.68188 73.591ZM15.9647 81.391V78.999H15.9257C15.5487 79.272 14.9507 79.558 14.0147 79.558C12.7017 79.558 11.3757 78.765 11.3757 76.399V76.23C11.3757 73.747 12.7537 72.928 14.4437 72.928C15.4967 72.928 16.2637 73.136 16.7967 73.409V81.391H15.9647ZM14.2487 78.856C15.0547 78.856 15.6137 78.596 15.9647 78.284V73.877C15.6137 73.721 15.0547 73.591 14.4047 73.591C13.1177 73.591 12.2207 74.306 12.2207 76.139V76.36C12.2207 78.245 13.0267 78.856 14.2487 78.856ZM20.5827 79.558C19.3477 79.558 18.6327 78.96 18.6327 77.725V73.032H19.4517V77.621C19.4517 78.505 19.8287 78.856 20.8167 78.856C21.5057 78.856 22.1687 78.622 22.7407 78.284V73.032H23.5467V79.454H22.8447L22.7667 78.856H22.7277C22.0907 79.272 21.3497 79.558 20.5827 79.558ZM25.4896 79.454V73.045H26.3086V79.454H25.4896ZM25.4766 71.706V70.809H26.3216V71.706H25.4766ZM28.2312 79.454V73.032H29.0112V73.773H29.0632C29.4402 73.357 30.1552 72.954 30.9092 72.954C31.0522 72.954 31.2212 72.967 31.2992 72.993V73.747C31.1432 73.721 30.9612 73.708 30.8442 73.708C30.1682 73.708 29.5052 73.981 29.0502 74.358V79.454H28.2312ZM35.2241 79.558C33.2091 79.558 32.1951 78.362 32.1951 76.321V76.165C32.1951 73.929 33.4951 72.928 34.9901 72.928C36.7321 72.928 37.5381 73.968 37.5381 75.918V76.386H33.0401C33.0661 78.141 33.8461 78.856 35.3541 78.856C36.2121 78.856 36.8101 78.661 37.3431 78.388V79.012C36.9531 79.272 36.2381 79.558 35.2241 79.558ZM34.9641 73.591C34.0411 73.591 33.1571 74.15 33.0531 75.736H36.6801C36.6801 74.267 36.1211 73.591 34.9641 73.591ZM40.6339 79.545C39.7889 79.545 39.0869 79.363 38.5929 79.09V78.44C39.1259 78.661 39.6199 78.856 40.5429 78.856C41.6349 78.856 42.0509 78.427 42.0509 77.79C42.0509 77.114 41.7259 76.841 40.8549 76.607L40.2049 76.412C39.2429 76.165 38.6449 75.736 38.6449 74.67C38.6449 73.643 39.3469 72.928 40.7899 72.928C41.6219 72.928 42.1549 73.123 42.5059 73.305V73.968C42.1419 73.786 41.5049 73.617 40.8289 73.617C39.8929 73.617 39.4249 73.968 39.4249 74.605C39.4249 75.216 39.7239 75.476 40.4649 75.697L41.1539 75.879C42.3369 76.217 42.8699 76.607 42.8699 77.725C42.8699 78.856 42.0639 79.545 40.6339 79.545ZM47.7693 79.454V73.032H48.5493V73.773H48.6013C48.9783 73.357 49.6933 72.954 50.4473 72.954C50.5903 72.954 50.7593 72.967 50.8373 72.993V73.747C50.6813 73.721 50.4993 73.708 50.3823 73.708C49.7063 73.708 49.0433 73.981 48.5883 74.358V79.454H47.7693ZM54.7622 79.558C52.7472 79.558 51.7332 78.362 51.7332 76.321V76.165C51.7332 73.929 53.0332 72.928 54.5282 72.928C56.2702 72.928 57.0762 73.968 57.0762 75.918V76.386H52.5782C52.6042 78.141 53.3842 78.856 54.8922 78.856C55.7502 78.856 56.3482 78.661 56.8812 78.388V79.012C56.4912 79.272 55.7762 79.558 54.7622 79.558ZM54.5022 73.591C53.5792 73.591 52.6952 74.15 52.5912 75.736H56.2182C56.2182 74.267 55.6592 73.591 54.5022 73.591ZM58.573 79.454V73.045H59.353V73.617H59.405C60.042 73.201 60.9 72.928 61.706 72.928C62.928 72.928 63.552 73.422 63.552 74.644V79.454H62.733V74.826C62.733 73.968 62.395 73.63 61.355 73.63C60.692 73.63 59.964 73.851 59.392 74.176V79.454H58.573ZM68.0288 79.558C66.0138 79.558 64.9998 78.362 64.9998 76.321V76.165C64.9998 73.929 66.2998 72.928 67.7948 72.928C69.5368 72.928 70.3428 73.968 70.3428 75.918V76.386H65.8448C65.8708 78.141 66.6508 78.856 68.1588 78.856C69.0168 78.856 69.6148 78.661 70.1478 78.388V79.012C69.7578 79.272 69.0428 79.558 68.0288 79.558ZM67.7688 73.591C66.8458 73.591 65.9618 74.15 65.8578 75.736H69.4848C69.4848 74.267 68.9258 73.591 67.7688 73.591ZM73.1136 79.454L71.2676 73.032H72.1386L73.5816 78.375H73.6206L75.2456 73.032H75.9606L77.5856 78.375H77.6376L79.0676 73.032H79.8606L78.0146 79.454H77.1696L75.5966 74.293H75.5706L73.9586 79.454H73.1136ZM83.7964 79.558C81.7814 79.558 80.7674 78.362 80.7674 76.321V76.165C80.7674 73.929 82.0674 72.928 83.5624 72.928C85.3044 72.928 86.1104 73.968 86.1104 75.918V76.386H81.6124C81.6384 78.141 82.4184 78.856 83.9264 78.856C84.7844 78.856 85.3824 78.661 85.9154 78.388V79.012C85.5254 79.272 84.8104 79.558 83.7964 79.558ZM83.5364 73.591C82.6134 73.591 81.7294 74.15 81.6254 75.736H85.2524C85.2524 74.267 84.6934 73.591 83.5364 73.591ZM89.8692 79.558C88.5562 79.558 87.2302 78.765 87.2302 76.399V76.23C87.2302 73.929 88.4132 72.928 90.0642 72.928C90.8962 72.928 91.4552 73.162 91.8192 73.396V70.146H92.6382V79.454H91.9492L91.8712 78.895H91.8192C91.3902 79.285 90.7792 79.558 89.8692 79.558ZM90.1032 78.895C90.9092 78.895 91.4682 78.596 91.8192 78.284V74.085C91.4942 73.825 90.8702 73.63 90.1942 73.63C88.8942 73.63 88.0752 74.306 88.0752 76.139V76.373C88.0752 78.245 88.9072 78.895 90.1032 78.895ZM99.5009 79.558C98.3439 79.558 97.5249 78.934 97.5249 77.79C97.5249 76.672 98.2139 76.087 99.4489 75.944L101.269 75.736V74.982C101.269 73.929 100.801 73.63 99.6569 73.63C99.0199 73.63 98.5129 73.747 98.0709 73.851V73.266C98.6299 73.045 99.2409 72.928 99.9559 72.928C101.334 72.928 102.088 73.487 102.088 74.787V79.454H101.425L101.347 78.882H101.295C100.97 79.233 100.398 79.558 99.5009 79.558ZM99.7089 78.908C100.372 78.908 100.97 78.674 101.269 78.401V76.347L99.6699 76.529C98.7859 76.62 98.3699 76.984 98.3699 77.764C98.3699 78.505 98.8899 78.908 99.7089 78.908ZM105.935 79.519C104.947 79.519 104.336 79.103 104.336 78.063V73.734H103.4V73.045H104.336V71.524H105.155V73.045H106.858V73.734H105.155V77.946C105.155 78.583 105.363 78.856 106.143 78.856C106.416 78.856 106.741 78.804 106.975 78.726V79.272C106.754 79.402 106.455 79.519 105.935 79.519ZM110.238 79.519C109.25 79.519 108.639 79.103 108.639 78.063V73.734H107.703V73.045H108.639V71.524H109.458V73.045H111.161V73.734H109.458V77.946C109.458 78.583 109.666 78.856 110.446 78.856C110.719 78.856 111.044 78.804 111.278 78.726V79.272C111.057 79.402 110.758 79.519 110.238 79.519ZM115.306 79.558C113.291 79.558 112.277 78.362 112.277 76.321V76.165C112.277 73.929 113.577 72.928 115.072 72.928C116.814 72.928 117.62 73.968 117.62 75.918V76.386H113.122C113.148 78.141 113.928 78.856 115.436 78.856C116.294 78.856 116.892 78.661 117.425 78.388V79.012C117.035 79.272 116.32 79.558 115.306 79.558ZM115.046 73.591C114.123 73.591 113.239 74.15 113.135 75.736H116.762C116.762 74.267 116.203 73.591 115.046 73.591ZM119.117 79.454V73.045H119.897V73.617H119.949C120.586 73.201 121.444 72.928 122.25 72.928C123.472 72.928 124.096 73.422 124.096 74.644V79.454H123.277V74.826C123.277 73.968 122.939 73.63 121.899 73.63C121.236 73.63 120.508 73.851 119.936 74.176V79.454H119.117ZM127.936 79.519C126.948 79.519 126.337 79.103 126.337 78.063V73.734H125.401V73.045H126.337V71.524H127.156V73.045H128.859V73.734H127.156V77.946C127.156 78.583 127.364 78.856 128.144 78.856C128.417 78.856 128.742 78.804 128.976 78.726V79.272C128.755 79.402 128.456 79.519 127.936 79.519ZM130.416 79.454V73.045H131.235V79.454H130.416ZM130.403 71.706V70.809H131.248V71.706H130.403ZM135.615 79.558C133.86 79.558 132.742 78.427 132.742 76.36V76.178C132.742 74.098 133.938 72.928 135.628 72.928C137.396 72.928 138.514 74.059 138.514 76.139V76.308C138.514 78.375 137.318 79.558 135.615 79.558ZM135.641 78.882C136.863 78.882 137.669 78.037 137.669 76.386V76.113C137.669 74.254 136.785 73.591 135.615 73.591C134.38 73.591 133.587 74.475 133.587 76.087V76.386C133.587 78.219 134.484 78.882 135.641 78.882ZM140.001 79.454V73.045H140.781V73.617H140.833C141.47 73.201 142.328 72.928 143.134 72.928C144.356 72.928 144.98 73.422 144.98 74.644V79.454H144.161V74.826C144.161 73.968 143.823 73.63 142.783 73.63C142.12 73.63 141.392 73.851 140.82 74.176V79.454H140.001ZM146.454 79.714V78.622H147.533V79.714H146.454ZM153.221 79.454V70.731H154.066V79.454H153.221ZM158.151 79.519C157.163 79.519 156.552 79.103 156.552 78.063V73.734H155.616V73.045H156.552V71.524H157.371V73.045H159.074V73.734H157.371V77.946C157.371 78.583 157.579 78.856 158.359 78.856C158.632 78.856 158.957 78.804 159.191 78.726V79.272C158.97 79.402 158.671 79.519 158.151 79.519ZM164.046 79.454V73.045H164.865V79.454H164.046ZM164.033 71.706V70.809H164.878V71.706H164.033ZM168.387 79.545C167.542 79.545 166.84 79.363 166.346 79.09V78.44C166.879 78.661 167.373 78.856 168.296 78.856C169.388 78.856 169.804 78.427 169.804 77.79C169.804 77.114 169.479 76.841 168.608 76.607L167.958 76.412C166.996 76.165 166.398 75.736 166.398 74.67C166.398 73.643 167.1 72.928 168.543 72.928C169.375 72.928 169.908 73.123 170.259 73.305V73.968C169.895 73.786 169.258 73.617 168.582 73.617C167.646 73.617 167.178 73.968 167.178 74.605C167.178 75.216 167.477 75.476 168.218 75.697L168.907 75.879C170.09 76.217 170.623 76.607 170.623 77.725C170.623 78.856 169.817 79.545 168.387 79.545ZM0.975 95.454V89.045H1.794V95.454H0.975ZM0.962 87.706V86.809H1.807V87.706H0.962ZM3.71658 95.454V89.045H4.49658V89.617H4.54858C5.17258 89.214 5.91358 88.928 6.62858 88.928C7.35658 88.928 7.87658 89.162 8.14958 89.643H8.20158C8.96858 89.162 9.72258 88.928 10.4376 88.928C11.5426 88.928 12.2056 89.422 12.2056 90.644V95.454H11.3996V90.826C11.3996 89.968 11.0096 89.63 10.1386 89.63C9.59258 89.63 8.98158 89.812 8.33158 90.176C8.35758 90.332 8.37058 90.475 8.37058 90.644V95.454H7.55158V90.826C7.55158 89.968 7.20058 89.63 6.32958 89.63C5.71858 89.63 5.10758 89.838 4.53558 90.176V95.454H3.71658ZM14.0633 97.378V89.045H14.8433V89.565H14.8953C15.3373 89.227 16.0133 88.928 16.8843 88.928C18.3013 88.928 19.4843 89.695 19.4843 92.113V92.256C19.4843 94.57 18.3533 95.558 16.5853 95.558C15.8313 95.558 15.2463 95.35 14.8693 95.116V97.378H14.0633ZM16.5073 94.895C17.8463 94.895 18.6263 94.18 18.6263 92.386V92.152C18.6263 90.189 17.9113 89.63 16.6763 89.63C15.8703 89.63 15.2333 89.916 14.8693 90.163V94.427C15.2203 94.661 15.8183 94.895 16.5073 94.895ZM23.6079 95.558C21.5929 95.558 20.5789 94.362 20.5789 92.321V92.165C20.5789 89.929 21.8789 88.928 23.3739 88.928C25.1159 88.928 25.9219 89.968 25.9219 91.918V92.386H21.4239C21.4499 94.141 22.2299 94.856 23.7379 94.856C24.5959 94.856 25.1939 94.661 25.7269 94.388V95.012C25.3369 95.272 24.6219 95.558 23.6079 95.558ZM23.3479 89.591C22.4249 89.591 21.5409 90.15 21.4369 91.736H25.0639C25.0639 90.267 24.5049 89.591 23.3479 89.591ZM27.4187 95.454V89.032H28.1987V89.773H28.2507C28.6277 89.357 29.3427 88.954 30.0967 88.954C30.2397 88.954 30.4087 88.967 30.4867 88.993V89.747C30.3307 89.721 30.1487 89.708 30.0317 89.708C29.3557 89.708 28.6927 89.981 28.2377 90.358V95.454H27.4187ZM33.1806 95.558C32.0236 95.558 31.2046 94.934 31.2046 93.79C31.2046 92.672 31.8936 92.087 33.1286 91.944L34.9486 91.736V90.982C34.9486 89.929 34.4806 89.63 33.3366 89.63C32.6996 89.63 32.1926 89.747 31.7506 89.851V89.266C32.3096 89.045 32.9206 88.928 33.6356 88.928C35.0136 88.928 35.7676 89.487 35.7676 90.787V95.454H35.1046L35.0266 94.882H34.9746C34.6496 95.233 34.0776 95.558 33.1806 95.558ZM33.3886 94.908C34.0516 94.908 34.6496 94.674 34.9486 94.401V92.347L33.3496 92.529C32.4656 92.62 32.0496 92.984 32.0496 93.764C32.0496 94.505 32.5696 94.908 33.3886 94.908ZM39.6145 95.519C38.6265 95.519 38.0155 95.103 38.0155 94.063V89.734H37.0795V89.045H38.0155V87.524H38.8345V89.045H40.5375V89.734H38.8345V93.946C38.8345 94.583 39.0425 94.856 39.8225 94.856C40.0955 94.856 40.4205 94.804 40.6545 94.726V95.272C40.4335 95.402 40.1345 95.519 39.6145 95.519ZM42.0951 95.454V89.045H42.9141V95.454H42.0951ZM42.0821 87.706V86.809H42.9271V87.706H42.0821ZM46.6177 95.454L44.1997 89.032H45.0837L47.0337 94.388H47.0597L49.0227 89.032H49.8417L47.4367 95.454H46.6177ZM53.7212 95.558C51.7062 95.558 50.6922 94.362 50.6922 92.321V92.165C50.6922 89.929 51.9922 88.928 53.4872 88.928C55.2292 88.928 56.0352 89.968 56.0352 91.918V92.386H51.5372C51.5632 94.141 52.3432 94.856 53.8512 94.856C54.7092 94.856 55.3072 94.661 55.8402 94.388V95.012C55.4502 95.272 54.7352 95.558 53.7212 95.558ZM53.4612 89.591C52.5382 89.591 51.6542 90.15 51.5502 91.736H55.1772C55.1772 90.267 54.6182 89.591 53.4612 89.591ZM62.923 95.519C61.935 95.519 61.324 95.103 61.324 94.063V89.734H60.388V89.045H61.324V87.524H62.143V89.045H63.846V89.734H62.143V93.946C62.143 94.583 62.351 94.856 63.131 94.856C63.404 94.856 63.729 94.804 63.963 94.726V95.272C63.742 95.402 63.443 95.519 62.923 95.519ZM67.8347 95.558C66.0797 95.558 64.9617 94.427 64.9617 92.36V92.178C64.9617 90.098 66.1577 88.928 67.8477 88.928C69.6157 88.928 70.7337 90.059 70.7337 92.139V92.308C70.7337 94.375 69.5377 95.558 67.8347 95.558ZM67.8607 94.882C69.0827 94.882 69.8887 94.037 69.8887 92.386V92.113C69.8887 90.254 69.0047 89.591 67.8347 89.591C66.5997 89.591 65.8067 90.475 65.8067 92.087V92.386C65.8067 94.219 66.7037 94.882 67.8607 94.882ZM77.8325 97.404C75.8565 97.404 74.9855 96.806 74.9855 95.883C74.9855 95.168 75.5445 94.778 76.2335 94.531V94.479C75.8825 94.388 75.5835 94.102 75.5835 93.686C75.5835 93.283 75.8175 92.984 76.2725 92.62C75.7915 92.295 75.4665 91.775 75.4665 91.034V90.956C75.4665 89.656 76.4805 88.902 77.8585 88.902C78.1705 88.902 78.4565 88.941 78.7295 89.006H80.8875V89.63H79.6395C80.0035 89.942 80.1985 90.371 80.1985 90.93V90.995C80.1985 92.36 79.1715 93.036 77.8455 93.036C77.4295 93.036 77.0395 92.971 76.7015 92.841C76.5195 93.01 76.3635 93.179 76.3635 93.413C76.3635 93.777 76.5975 93.946 77.0395 93.946H78.8595C80.0035 93.946 80.8615 94.284 80.8615 95.467C80.8615 96.533 79.9775 97.404 77.8325 97.404ZM77.8065 96.741C79.4185 96.741 80.0035 96.286 80.0035 95.584C80.0035 94.869 79.6005 94.7 78.7295 94.7H76.8445C76.2855 94.882 75.8565 95.168 75.8565 95.766C75.8565 96.403 76.3895 96.741 77.8065 96.741ZM77.8455 92.412C78.8075 92.412 79.3795 91.944 79.3795 91.034V90.917C79.3795 89.968 78.7685 89.539 77.8455 89.539C76.8965 89.539 76.2985 90.033 76.2985 90.891V91.008C76.2985 91.944 76.9225 92.412 77.8455 92.412ZM82.072 95.454V89.032H82.852V89.773H82.904C83.281 89.357 83.996 88.954 84.75 88.954C84.893 88.954 85.062 88.967 85.14 88.993V89.747C84.984 89.721 84.802 89.708 84.685 89.708C84.009 89.708 83.346 89.981 82.891 90.358V95.454H82.072ZM87.8339 95.558C86.6769 95.558 85.8579 94.934 85.8579 93.79C85.8579 92.672 86.5469 92.087 87.7819 91.944L89.6019 91.736V90.982C89.6019 89.929 89.1339 89.63 87.9899 89.63C87.3529 89.63 86.8459 89.747 86.4039 89.851V89.266C86.9629 89.045 87.5739 88.928 88.2889 88.928C89.6669 88.928 90.4209 89.487 90.4209 90.787V95.454H89.7579L89.6799 94.882H89.6279C89.3029 95.233 88.7309 95.558 87.8339 95.558ZM88.0419 94.908C88.7049 94.908 89.3029 94.674 89.6019 94.401V92.347L88.0029 92.529C87.1189 92.62 86.7029 92.984 86.7029 93.764C86.7029 94.505 87.2229 94.908 88.0419 94.908ZM93.8908 95.545C93.0458 95.545 92.3438 95.363 91.8498 95.09V94.44C92.3828 94.661 92.8768 94.856 93.7998 94.856C94.8918 94.856 95.3078 94.427 95.3078 93.79C95.3078 93.114 94.9828 92.841 94.1118 92.607L93.4618 92.412C92.4998 92.165 91.9018 91.736 91.9018 90.67C91.9018 89.643 92.6038 88.928 94.0468 88.928C94.8788 88.928 95.4118 89.123 95.7628 89.305V89.968C95.3988 89.786 94.7618 89.617 94.0858 89.617C93.1498 89.617 92.6818 89.968 92.6818 90.605C92.6818 91.216 92.9808 91.476 93.7218 91.697L94.4108 91.879C95.5938 92.217 96.1268 92.607 96.1268 93.725C96.1268 94.856 95.3208 95.545 93.8908 95.545ZM97.6111 97.378V89.045H98.3911V89.565H98.4431C98.8851 89.227 99.5611 88.928 100.432 88.928C101.849 88.928 103.032 89.695 103.032 92.113V92.256C103.032 94.57 101.901 95.558 100.133 95.558C99.3791 95.558 98.7941 95.35 98.4171 95.116V97.378H97.6111ZM100.055 94.895C101.394 94.895 102.174 94.18 102.174 92.386V92.152C102.174 90.189 101.459 89.63 100.224 89.63C99.4181 89.63 98.7811 89.916 98.4171 90.163V94.427C98.7681 94.661 99.3661 94.895 100.055 94.895ZM109.934 95.519C108.946 95.519 108.335 95.103 108.335 94.063V89.734H107.399V89.045H108.335V87.524H109.154V89.045H110.857V89.734H109.154V93.946C109.154 94.583 109.362 94.856 110.142 94.856C110.415 94.856 110.74 94.804 110.974 94.726V95.272C110.753 95.402 110.454 95.519 109.934 95.519ZM112.388 95.454V86.146H113.207V89.604H113.259C113.883 89.188 114.715 88.941 115.521 88.941C116.743 88.941 117.367 89.435 117.367 90.657V95.454H116.548V90.826C116.548 89.968 116.21 89.63 115.17 89.63C114.507 89.63 113.779 89.864 113.207 90.176V95.454H112.388ZM121.844 95.558C119.829 95.558 118.815 94.362 118.815 92.321V92.165C118.815 89.929 120.115 88.928 121.61 88.928C123.352 88.928 124.158 89.968 124.158 91.918V92.386H119.66C119.686 94.141 120.466 94.856 121.974 94.856C122.832 94.856 123.43 94.661 123.963 94.388V95.012C123.573 95.272 122.858 95.558 121.844 95.558ZM121.584 89.591C120.661 89.591 119.777 90.15 119.673 91.736H123.3C123.3 90.267 122.741 89.591 121.584 89.591ZM125.681 95.454V89.045H126.5V95.454H125.681ZM125.668 87.706V86.809H126.513V87.706H125.668ZM128.423 95.454V89.032H129.203V89.773H129.255C129.632 89.357 130.347 88.954 131.101 88.954C131.244 88.954 131.413 88.967 131.491 88.993V89.747C131.335 89.721 131.153 89.708 131.036 89.708C130.36 89.708 129.697 89.981 129.242 90.358V95.454H128.423ZM136.218 95.454V89.045H136.998V89.617H137.05C137.687 89.201 138.545 88.928 139.351 88.928C140.573 88.928 141.197 89.422 141.197 90.644V95.454H140.378V90.826C140.378 89.968 140.04 89.63 139 89.63C138.337 89.63 137.609 89.851 137.037 90.176V95.454H136.218ZM145.673 95.558C143.658 95.558 142.644 94.362 142.644 92.321V92.165C142.644 89.929 143.944 88.928 145.439 88.928C147.181 88.928 147.987 89.968 147.987 91.918V92.386H143.489C143.515 94.141 144.295 94.856 145.803 94.856C146.661 94.856 147.259 94.661 147.792 94.388V95.012C147.402 95.272 146.687 95.558 145.673 95.558ZM145.413 89.591C144.49 89.591 143.606 90.15 143.502 91.736H147.129C147.129 90.267 146.57 89.591 145.413 89.591ZM152.097 95.558C150.082 95.558 149.068 94.362 149.068 92.321V92.165C149.068 89.929 150.368 88.928 151.863 88.928C153.605 88.928 154.411 89.968 154.411 91.918V92.386H149.913C149.939 94.141 150.719 94.856 152.227 94.856C153.085 94.856 153.683 94.661 154.216 94.388V95.012C153.826 95.272 153.111 95.558 152.097 95.558ZM151.837 89.591C150.914 89.591 150.03 90.15 149.926 91.736H153.553C153.553 90.267 152.994 89.591 151.837 89.591ZM158.17 95.558C156.857 95.558 155.531 94.765 155.531 92.399V92.23C155.531 89.929 156.714 88.928 158.365 88.928C159.197 88.928 159.756 89.162 160.12 89.396V86.146H160.939V95.454H160.25L160.172 94.895H160.12C159.691 95.285 159.08 95.558 158.17 95.558ZM158.404 94.895C159.21 94.895 159.769 94.596 160.12 94.284V90.085C159.795 89.825 159.171 89.63 158.495 89.63C157.195 89.63 156.376 90.306 156.376 92.139V92.373C156.376 94.245 157.208 94.895 158.404 94.895ZM164.439 95.545C163.594 95.545 162.892 95.363 162.398 95.09V94.44C162.931 94.661 163.425 94.856 164.348 94.856C165.44 94.856 165.856 94.427 165.856 93.79C165.856 93.114 165.531 92.841 164.66 92.607L164.01 92.412C163.048 92.165 162.45 91.736 162.45 90.67C162.45 89.643 163.152 88.928 164.595 88.928C165.427 88.928 165.96 89.123 166.311 89.305V89.968C165.947 89.786 165.31 89.617 164.634 89.617C163.698 89.617 163.23 89.968 163.23 90.605C163.23 91.216 163.529 91.476 164.27 91.697L164.959 91.879C166.142 92.217 166.675 92.607 166.675 93.725C166.675 94.856 165.869 95.545 164.439 95.545ZM2.223 111.454L0.377 105.032H1.248L2.691 110.375H2.73L4.355 105.032H5.07L6.695 110.375H6.747L8.177 105.032H8.97L7.124 111.454H6.279L4.706 106.293H4.68L3.068 111.454H2.223ZM10.2928 111.454V102.146H11.1118V105.604H11.1638C11.7878 105.188 12.6198 104.941 13.4258 104.941C14.6478 104.941 15.2718 105.435 15.2718 106.657V111.454H14.4528V106.826C14.4528 105.968 14.1148 105.63 13.0748 105.63C12.4118 105.63 11.6838 105.864 11.1118 106.176V111.454H10.2928ZM19.7485 111.558C17.7335 111.558 16.7195 110.362 16.7195 108.321V108.165C16.7195 105.929 18.0195 104.928 19.5145 104.928C21.2565 104.928 22.0625 105.968 22.0625 107.918V108.386H17.5645C17.5905 110.141 18.3705 110.856 19.8785 110.856C20.7365 110.856 21.3345 110.661 21.8675 110.388V111.012C21.4775 111.272 20.7625 111.558 19.7485 111.558ZM19.4885 105.591C18.5655 105.591 17.6815 106.15 17.5775 107.736H21.2045C21.2045 106.267 20.6455 105.591 19.4885 105.591ZM23.5594 111.454V105.045H24.3394V105.617H24.3914C25.0284 105.201 25.8864 104.928 26.6924 104.928C27.9144 104.928 28.5384 105.422 28.5384 106.644V111.454H27.7194V106.826C27.7194 105.968 27.3814 105.63 26.3414 105.63C25.6784 105.63 24.9504 105.851 24.3784 106.176V111.454H23.5594ZM36.3262 111.558C34.4672 111.558 33.4012 110.44 33.4012 108.347V108.178C33.4012 105.903 34.7142 104.928 36.3652 104.928C37.1972 104.928 37.6782 105.071 38.1332 105.357V106.033C37.5872 105.773 37.1452 105.63 36.3132 105.63C35.0912 105.63 34.2462 106.423 34.2462 108.048V108.334C34.2462 110.011 34.9612 110.856 36.4172 110.856C37.3012 110.856 37.8602 110.583 38.2112 110.388V111.051C37.7952 111.311 37.2492 111.558 36.3262 111.558ZM39.6189 111.454V105.032H40.3989V105.773H40.4509C40.8279 105.357 41.5429 104.954 42.2969 104.954C42.4399 104.954 42.6089 104.967 42.6869 104.993V105.747C42.5309 105.721 42.3489 105.708 42.2319 105.708C41.5559 105.708 40.8929 105.981 40.4379 106.358V111.454H39.6189ZM45.3808 111.558C44.2238 111.558 43.4048 110.934 43.4048 109.79C43.4048 108.672 44.0938 108.087 45.3288 107.944L47.1488 107.736V106.982C47.1488 105.929 46.6808 105.63 45.5368 105.63C44.8998 105.63 44.3928 105.747 43.9508 105.851V105.266C44.5098 105.045 45.1208 104.928 45.8358 104.928C47.2138 104.928 47.9678 105.487 47.9678 106.787V111.454H47.3048L47.2268 110.882H47.1748C46.8498 111.233 46.2778 111.558 45.3808 111.558ZM45.5888 110.908C46.2518 110.908 46.8498 110.674 47.1488 110.401V108.347L45.5498 108.529C44.6658 108.62 44.2498 108.984 44.2498 109.764C44.2498 110.505 44.7698 110.908 45.5888 110.908ZM50.2546 111.454V105.734H49.2666V105.045H50.2546V104.083C50.2546 102.679 51.0606 102.081 52.2306 102.081C52.7246 102.081 53.0626 102.159 53.3096 102.276V102.874C53.1016 102.822 52.8156 102.744 52.3736 102.744C51.5676 102.744 51.0606 103.134 51.0606 104.135V105.045H52.6076V105.734H51.0606V111.454H50.2546ZM56.0168 111.519C55.0288 111.519 54.4178 111.103 54.4178 110.063V105.734H53.4818V105.045H54.4178V103.524H55.2368V105.045H56.9398V105.734H55.2368V109.946C55.2368 110.583 55.4448 110.856 56.2248 110.856C56.4978 110.856 56.8228 110.804 57.0568 110.726V111.272C56.8358 111.402 56.5368 111.519 56.0168 111.519ZM58.4975 111.454V105.045H59.3165V111.454H58.4975ZM58.4845 103.706V102.809H59.3295V103.706H58.4845ZM61.239 111.454V105.045H62.019V105.617H62.071C62.708 105.201 63.566 104.928 64.372 104.928C65.594 104.928 66.218 105.422 66.218 106.644V111.454H65.399V106.826C65.399 105.968 65.061 105.63 64.021 105.63C63.358 105.63 62.63 105.851 62.058 106.176V111.454H61.239ZM70.2788 113.404C68.3028 113.404 67.4318 112.806 67.4318 111.883C67.4318 111.168 67.9908 110.778 68.6798 110.531V110.479C68.3288 110.388 68.0298 110.102 68.0298 109.686C68.0298 109.283 68.2638 108.984 68.7188 108.62C68.2378 108.295 67.9128 107.775 67.9128 107.034V106.956C67.9128 105.656 68.9268 104.902 70.3048 104.902C70.6168 104.902 70.9028 104.941 71.1758 105.006H73.3338V105.63H72.0858C72.4498 105.942 72.6448 106.371 72.6448 106.93V106.995C72.6448 108.36 71.6178 109.036 70.2918 109.036C69.8758 109.036 69.4858 108.971 69.1478 108.841C68.9658 109.01 68.8098 109.179 68.8098 109.413C68.8098 109.777 69.0438 109.946 69.4858 109.946H71.3058C72.4498 109.946 73.3078 110.284 73.3078 111.467C73.3078 112.533 72.4238 113.404 70.2788 113.404ZM70.2528 112.741C71.8648 112.741 72.4498 112.286 72.4498 111.584C72.4498 110.869 72.0468 110.7 71.1758 110.7H69.2908C68.7318 110.882 68.3028 111.168 68.3028 111.766C68.3028 112.403 68.8358 112.741 70.2528 112.741ZM70.2918 108.412C71.2538 108.412 71.8258 107.944 71.8258 107.034V106.917C71.8258 105.968 71.2148 105.539 70.2918 105.539C69.3428 105.539 68.7448 106.033 68.7448 106.891V107.008C68.7448 107.944 69.3688 108.412 70.2918 108.412ZM79.9094 111.519C78.9214 111.519 78.3104 111.103 78.3104 110.063V105.734H77.3744V105.045H78.3104V103.524H79.1294V105.045H80.8324V105.734H79.1294V109.946C79.1294 110.583 79.3374 110.856 80.1174 110.856C80.3904 110.856 80.7154 110.804 80.9494 110.726V111.272C80.7284 111.402 80.4294 111.519 79.9094 111.519ZM84.977 111.558C82.962 111.558 81.948 110.362 81.948 108.321V108.165C81.948 105.929 83.248 104.928 84.743 104.928C86.485 104.928 87.291 105.968 87.291 107.918V108.386H82.793C82.819 110.141 83.599 110.856 85.107 110.856C85.965 110.856 86.563 110.661 87.096 110.388V111.012C86.706 111.272 85.991 111.558 84.977 111.558ZM84.717 105.591C83.794 105.591 82.91 106.15 82.806 107.736H86.433C86.433 106.267 85.874 105.591 84.717 105.591ZM91.2969 111.558C89.4379 111.558 88.3719 110.44 88.3719 108.347V108.178C88.3719 105.903 89.6849 104.928 91.3359 104.928C92.1679 104.928 92.6489 105.071 93.1039 105.357V106.033C92.5579 105.773 92.1159 105.63 91.2839 105.63C90.0619 105.63 89.2169 106.423 89.2169 108.048V108.334C89.2169 110.011 89.9319 110.856 91.3879 110.856C92.2719 110.856 92.8309 110.583 93.1819 110.388V111.051C92.7659 111.311 92.2199 111.558 91.2969 111.558ZM94.5896 111.454V102.146H95.4086V105.604H95.4606C96.0846 105.188 96.9166 104.941 97.7226 104.941C98.9446 104.941 99.5686 105.435 99.5686 106.657V111.454H98.7496V106.826C98.7496 105.968 98.4116 105.63 97.3716 105.63C96.7086 105.63 95.9806 105.864 95.4086 106.176V111.454H94.5896ZM101.432 111.454V105.045H102.212V105.617H102.264C102.901 105.201 103.759 104.928 104.565 104.928C105.787 104.928 106.411 105.422 106.411 106.644V111.454H105.592V106.826C105.592 105.968 105.254 105.63 104.214 105.63C103.551 105.63 102.823 105.851 102.251 106.176V111.454H101.432ZM110.732 111.558C108.977 111.558 107.859 110.427 107.859 108.36V108.178C107.859 106.098 109.055 104.928 110.745 104.928C112.513 104.928 113.631 106.059 113.631 108.139V108.308C113.631 110.375 112.435 111.558 110.732 111.558ZM110.758 110.882C111.98 110.882 112.786 110.037 112.786 108.386V108.113C112.786 106.254 111.902 105.591 110.732 105.591C109.497 105.591 108.704 106.475 108.704 108.087V108.386C108.704 110.219 109.601 110.882 110.758 110.882ZM115.144 111.454V102.146H115.963V111.454H115.144ZM120.343 111.558C118.588 111.558 117.47 110.427 117.47 108.36V108.178C117.47 106.098 118.666 104.928 120.356 104.928C122.124 104.928 123.242 106.059 123.242 108.139V108.308C123.242 110.375 122.046 111.558 120.343 111.558ZM120.369 110.882C121.591 110.882 122.397 110.037 122.397 108.386V108.113C122.397 106.254 121.513 105.591 120.343 105.591C119.108 105.591 118.315 106.475 118.315 108.087V108.386C118.315 110.219 119.212 110.882 120.369 110.882ZM126.925 113.404C124.949 113.404 124.078 112.806 124.078 111.883C124.078 111.168 124.637 110.778 125.326 110.531V110.479C124.975 110.388 124.676 110.102 124.676 109.686C124.676 109.283 124.91 108.984 125.365 108.62C124.884 108.295 124.559 107.775 124.559 107.034V106.956C124.559 105.656 125.573 104.902 126.951 104.902C127.263 104.902 127.549 104.941 127.822 105.006H129.98V105.63H128.732C129.096 105.942 129.291 106.371 129.291 106.93V106.995C129.291 108.36 128.264 109.036 126.938 109.036C126.522 109.036 126.132 108.971 125.794 108.841C125.612 109.01 125.456 109.179 125.456 109.413C125.456 109.777 125.69 109.946 126.132 109.946H127.952C129.096 109.946 129.954 110.284 129.954 111.467C129.954 112.533 129.07 113.404 126.925 113.404ZM126.899 112.741C128.511 112.741 129.096 112.286 129.096 111.584C129.096 110.869 128.693 110.7 127.822 110.7H125.937C125.378 110.882 124.949 111.168 124.949 111.766C124.949 112.403 125.482 112.741 126.899 112.741ZM126.938 108.412C127.9 108.412 128.472 107.944 128.472 107.034V106.917C128.472 105.968 127.861 105.539 126.938 105.539C125.989 105.539 125.391 106.033 125.391 106.891V107.008C125.391 107.944 126.015 108.412 126.938 108.412ZM131.659 113.404C131.373 113.404 131.061 113.326 130.879 113.235V112.624C131.048 112.663 131.295 112.715 131.529 112.715C132.166 112.715 132.53 112.429 132.777 111.753L132.985 111.142L130.515 105.032H131.373L133.388 110.076H133.414L135.286 105.032H136.092L133.544 111.844C133.154 112.897 132.686 113.404 131.659 113.404ZM142.7 111.519C141.712 111.519 141.101 111.103 141.101 110.063V105.734H140.165V105.045H141.101V103.524H141.92V105.045H143.623V105.734H141.92V109.946C141.92 110.583 142.128 110.856 142.908 110.856C143.181 110.856 143.506 110.804 143.74 110.726V111.272C143.519 111.402 143.22 111.519 142.7 111.519ZM146.702 111.558C145.545 111.558 144.726 110.934 144.726 109.79C144.726 108.672 145.415 108.087 146.65 107.944L148.47 107.736V106.982C148.47 105.929 148.002 105.63 146.858 105.63C146.221 105.63 145.714 105.747 145.272 105.851V105.266C145.831 105.045 146.442 104.928 147.157 104.928C148.535 104.928 149.289 105.487 149.289 106.787V111.454H148.626L148.548 110.882H148.496C148.171 111.233 147.599 111.558 146.702 111.558ZM146.91 110.908C147.573 110.908 148.171 110.674 148.47 110.401V108.347L146.871 108.529C145.987 108.62 145.571 108.984 145.571 109.764C145.571 110.505 146.091 110.908 146.91 110.908ZM151.186 111.454V105.045H152.005V111.454H151.186ZM151.173 103.706V102.809H152.018V103.706H151.173ZM153.954 111.454V102.146H154.773V111.454H153.954ZM159.152 111.558C157.397 111.558 156.279 110.427 156.279 108.36V108.178C156.279 106.098 157.475 104.928 159.165 104.928C160.933 104.928 162.051 106.059 162.051 108.139V108.308C162.051 110.375 160.855 111.558 159.152 111.558ZM159.178 110.882C160.4 110.882 161.206 110.037 161.206 108.386V108.113C161.206 106.254 160.322 105.591 159.152 105.591C157.917 105.591 157.124 106.475 157.124 108.087V108.386C157.124 110.219 158.021 110.882 159.178 110.882ZM163.538 111.454V105.032H164.318V105.773H164.37C164.747 105.357 165.462 104.954 166.216 104.954C166.359 104.954 166.528 104.967 166.606 104.993V105.747C166.45 105.721 166.268 105.708 166.151 105.708C165.475 105.708 164.812 105.981 164.357 106.358V111.454H163.538ZM170.531 111.558C168.516 111.558 167.502 110.362 167.502 108.321V108.165C167.502 105.929 168.802 104.928 170.297 104.928C172.039 104.928 172.845 105.968 172.845 107.918V108.386H168.347C168.373 110.141 169.153 110.856 170.661 110.856C171.519 110.856 172.117 110.661 172.65 110.388V111.012C172.26 111.272 171.545 111.558 170.531 111.558ZM170.271 105.591C169.348 105.591 168.464 106.15 168.36 107.736H171.987C171.987 106.267 171.428 105.591 170.271 105.591ZM176.604 111.558C175.291 111.558 173.965 110.765 173.965 108.399V108.23C173.965 105.929 175.148 104.928 176.799 104.928C177.631 104.928 178.19 105.162 178.554 105.396V102.146H179.373V111.454H178.684L178.606 110.895H178.554C178.125 111.285 177.514 111.558 176.604 111.558ZM176.838 110.895C177.644 110.895 178.203 110.596 178.554 110.284V106.085C178.229 105.825 177.605 105.63 176.929 105.63C175.629 105.63 174.81 106.306 174.81 108.139V108.373C174.81 110.245 175.642 110.895 176.838 110.895ZM2.925 127.519C1.937 127.519 1.326 127.103 1.326 126.063V121.734H0.39V121.045H1.326V119.524H2.145V121.045H3.848V121.734H2.145V125.946C2.145 126.583 2.353 126.856 3.133 126.856C3.406 126.856 3.731 126.804 3.965 126.726V127.272C3.744 127.402 3.445 127.519 2.925 127.519ZM7.83666 127.558C6.08166 127.558 4.96366 126.427 4.96366 124.36V124.178C4.96366 122.098 6.15966 120.928 7.84966 120.928C9.61766 120.928 10.7357 122.059 10.7357 124.139V124.308C10.7357 126.375 9.53966 127.558 7.83666 127.558ZM7.86266 126.882C9.08466 126.882 9.89066 126.037 9.89066 124.386V124.113C9.89066 122.254 9.00666 121.591 7.83666 121.591C6.60166 121.591 5.80866 122.475 5.80866 124.087V124.386C5.80866 126.219 6.70566 126.882 7.86266 126.882ZM17.6135 127.519C16.6255 127.519 16.0145 127.103 16.0145 126.063V121.734H15.0785V121.045H16.0145V119.524H16.8335V121.045H18.5365V121.734H16.8335V125.946C16.8335 126.583 17.0415 126.856 17.8215 126.856C18.0945 126.856 18.4195 126.804 18.6535 126.726V127.272C18.4325 127.402 18.1335 127.519 17.6135 127.519ZM20.0681 127.454V118.146H20.8871V121.604H20.9391C21.5631 121.188 22.3951 120.941 23.2011 120.941C24.4231 120.941 25.0471 121.435 25.0471 122.657V127.454H24.2281V122.826C24.2281 121.968 23.8901 121.63 22.8501 121.63C22.1871 121.63 21.4591 121.864 20.8871 122.176V127.454H20.0681ZM29.5239 127.558C27.5089 127.558 26.4949 126.362 26.4949 124.321V124.165C26.4949 121.929 27.7949 120.928 29.2899 120.928C31.0319 120.928 31.8379 121.968 31.8379 123.918V124.386H27.3399C27.3659 126.141 28.1459 126.856 29.6539 126.856C30.5119 126.856 31.1099 126.661 31.6429 126.388V127.012C31.2529 127.272 30.5379 127.558 29.5239 127.558ZM29.2639 121.591C28.3409 121.591 27.4569 122.15 27.3529 123.736H30.9799C30.9799 122.267 30.4209 121.591 29.2639 121.591ZM33.3607 127.454V121.045H34.1797V127.454H33.3607ZM33.3477 119.706V118.809H34.1927V119.706H33.3477ZM36.1023 127.454V121.032H36.8823V121.773H36.9343C37.3113 121.357 38.0263 120.954 38.7803 120.954C38.9233 120.954 39.0923 120.967 39.1703 120.993V121.747C39.0143 121.721 38.8323 121.708 38.7153 121.708C38.0393 121.708 37.3763 121.981 36.9213 122.358V127.454H36.1023ZM45.8082 127.558C44.5732 127.558 43.8582 126.96 43.8582 125.725V121.032H44.6772V125.621C44.6772 126.505 45.0542 126.856 46.0422 126.856C46.7312 126.856 47.3942 126.622 47.9662 126.284V121.032H48.7722V127.454H48.0702L47.9922 126.856H47.9532C47.3162 127.272 46.5752 127.558 45.8082 127.558ZM50.6892 127.454V121.045H51.4692V121.617H51.5212C52.1582 121.201 53.0162 120.928 53.8222 120.928C55.0442 120.928 55.6682 121.422 55.6682 122.644V127.454H54.8492V122.826C54.8492 121.968 54.5112 121.63 53.4712 121.63C52.8082 121.63 52.0802 121.851 51.5082 122.176V127.454H50.6892ZM57.558 127.454V121.045H58.377V127.454H57.558ZM57.545 119.706V118.809H58.39V119.706H57.545ZM64.5116 129.391V126.999H64.4726C64.0956 127.272 63.4976 127.558 62.5616 127.558C61.2486 127.558 59.9226 126.765 59.9226 124.399V124.23C59.9226 121.747 61.3006 120.928 62.9906 120.928C64.0436 120.928 64.8106 121.136 65.3436 121.409V129.391H64.5116ZM62.7956 126.856C63.6016 126.856 64.1606 126.596 64.5116 126.284V121.877C64.1606 121.721 63.6016 121.591 62.9516 121.591C61.6646 121.591 60.7676 122.306 60.7676 124.139V124.36C60.7676 126.245 61.5736 126.856 62.7956 126.856ZM69.1295 127.558C67.8945 127.558 67.1795 126.96 67.1795 125.725V121.032H67.9985V125.621C67.9985 126.505 68.3755 126.856 69.3635 126.856C70.0525 126.856 70.7155 126.622 71.2875 126.284V121.032H72.0935V127.454H71.3915L71.3135 126.856H71.2745C70.6375 127.272 69.8965 127.558 69.1295 127.558ZM76.6235 127.558C74.6085 127.558 73.5945 126.362 73.5945 124.321V124.165C73.5945 121.929 74.8945 120.928 76.3895 120.928C78.1315 120.928 78.9375 121.968 78.9375 123.918V124.386H74.4395C74.4655 126.141 75.2455 126.856 76.7535 126.856C77.6115 126.856 78.2095 126.661 78.7425 126.388V127.012C78.3525 127.272 77.6375 127.558 76.6235 127.558ZM76.3635 121.591C75.4405 121.591 74.5565 122.15 74.4525 123.736H78.0795C78.0795 122.267 77.5205 121.591 76.3635 121.591ZM86.3584 127.558C84.4994 127.558 83.4334 126.44 83.4334 124.347V124.178C83.4334 121.903 84.7464 120.928 86.3974 120.928C87.2294 120.928 87.7104 121.071 88.1654 121.357V122.033C87.6194 121.773 87.1774 121.63 86.3454 121.63C85.1234 121.63 84.2784 122.423 84.2784 124.048V124.334C84.2784 126.011 84.9934 126.856 86.4494 126.856C87.3334 126.856 87.8924 126.583 88.2434 126.388V127.051C87.8274 127.311 87.2814 127.558 86.3584 127.558ZM89.6771 127.454V121.045H90.4961V127.454H89.6771ZM89.6641 119.706V118.809H90.5091V119.706H89.6641ZM92.4187 127.454V121.032H93.1987V121.773H93.2507C93.6277 121.357 94.3427 120.954 95.0967 120.954C95.2397 120.954 95.4087 120.967 95.4867 120.993V121.747C95.3307 121.721 95.1487 121.708 95.0317 121.708C94.3557 121.708 93.6927 121.981 93.2377 122.358V127.454H92.4187ZM99.3076 127.558C97.4486 127.558 96.3826 126.44 96.3826 124.347V124.178C96.3826 121.903 97.6956 120.928 99.3466 120.928C100.179 120.928 100.66 121.071 101.115 121.357V122.033C100.569 121.773 100.127 121.63 99.2946 121.63C98.0726 121.63 97.2276 122.423 97.2276 124.048V124.334C97.2276 126.011 97.9426 126.856 99.3986 126.856C100.283 126.856 100.842 126.583 101.193 126.388V127.051C100.777 127.311 100.231 127.558 99.3076 127.558ZM104.511 127.558C103.276 127.558 102.561 126.96 102.561 125.725V121.032H103.38V125.621C103.38 126.505 103.757 126.856 104.745 126.856C105.434 126.856 106.097 126.622 106.669 126.284V121.032H107.475V127.454H106.773L106.695 126.856H106.656C106.019 127.272 105.278 127.558 104.511 127.558ZM109.392 127.454V121.045H110.172V121.617H110.224C110.848 121.214 111.589 120.928 112.304 120.928C113.032 120.928 113.552 121.162 113.825 121.643H113.877C114.644 121.162 115.398 120.928 116.113 120.928C117.218 120.928 117.881 121.422 117.881 122.644V127.454H117.075V122.826C117.075 121.968 116.685 121.63 115.814 121.63C115.268 121.63 114.657 121.812 114.007 122.176C114.033 122.332 114.046 122.475 114.046 122.644V127.454H113.227V122.826C113.227 121.968 112.876 121.63 112.005 121.63C111.394 121.63 110.783 121.838 110.211 122.176V127.454H109.392ZM121.338 127.545C120.493 127.545 119.791 127.363 119.297 127.09V126.44C119.83 126.661 120.324 126.856 121.247 126.856C122.339 126.856 122.755 126.427 122.755 125.79C122.755 125.114 122.43 124.841 121.559 124.607L120.909 124.412C119.947 124.165 119.349 123.736 119.349 122.67C119.349 121.643 120.051 120.928 121.494 120.928C122.326 120.928 122.859 121.123 123.21 121.305V121.968C122.846 121.786 122.209 121.617 121.533 121.617C120.597 121.617 120.129 121.968 120.129 122.605C120.129 123.216 120.428 123.476 121.169 123.697L121.858 123.879C123.041 124.217 123.574 124.607 123.574 125.725C123.574 126.856 122.768 127.545 121.338 127.545ZM127.034 127.519C126.046 127.519 125.435 127.103 125.435 126.063V121.734H124.499V121.045H125.435V119.524H126.254V121.045H127.957V121.734H126.254V125.946C126.254 126.583 126.462 126.856 127.242 126.856C127.515 126.856 127.84 126.804 128.074 126.726V127.272C127.853 127.402 127.554 127.519 127.034 127.519ZM131.036 127.558C129.879 127.558 129.06 126.934 129.06 125.79C129.06 124.672 129.749 124.087 130.984 123.944L132.804 123.736V122.982C132.804 121.929 132.336 121.63 131.192 121.63C130.555 121.63 130.048 121.747 129.606 121.851V121.266C130.165 121.045 130.776 120.928 131.491 120.928C132.869 120.928 133.623 121.487 133.623 122.787V127.454H132.96L132.882 126.882H132.83C132.505 127.233 131.933 127.558 131.036 127.558ZM131.244 126.908C131.907 126.908 132.505 126.674 132.804 126.401V124.347L131.205 124.529C130.321 124.62 129.905 124.984 129.905 125.764C129.905 126.505 130.425 126.908 131.244 126.908ZM135.494 127.454V121.045H136.274V121.617H136.326C136.963 121.201 137.821 120.928 138.627 120.928C139.849 120.928 140.473 121.422 140.473 122.644V127.454H139.654V122.826C139.654 121.968 139.316 121.63 138.276 121.63C137.613 121.63 136.885 121.851 136.313 122.176V127.454H135.494ZM144.846 127.558C142.987 127.558 141.921 126.44 141.921 124.347V124.178C141.921 121.903 143.234 120.928 144.885 120.928C145.717 120.928 146.198 121.071 146.653 121.357V122.033C146.107 121.773 145.665 121.63 144.833 121.63C143.611 121.63 142.766 122.423 142.766 124.048V124.334C142.766 126.011 143.481 126.856 144.937 126.856C145.821 126.856 146.38 126.583 146.731 126.388V127.051C146.315 127.311 145.769 127.558 144.846 127.558ZM150.751 127.558C148.736 127.558 147.722 126.362 147.722 124.321V124.165C147.722 121.929 149.022 120.928 150.517 120.928C152.259 120.928 153.065 121.968 153.065 123.918V124.386H148.567C148.593 126.141 149.373 126.856 150.881 126.856C151.739 126.856 152.337 126.661 152.87 126.388V127.012C152.48 127.272 151.765 127.558 150.751 127.558ZM150.491 121.591C149.568 121.591 148.684 122.15 148.58 123.736H152.207C152.207 122.267 151.648 121.591 150.491 121.591ZM156.161 127.545C155.316 127.545 154.614 127.363 154.12 127.09V126.44C154.653 126.661 155.147 126.856 156.07 126.856C157.162 126.856 157.578 126.427 157.578 125.79C157.578 125.114 157.253 124.841 156.382 124.607L155.732 124.412C154.77 124.165 154.172 123.736 154.172 122.67C154.172 121.643 154.874 120.928 156.317 120.928C157.149 120.928 157.682 121.123 158.033 121.305V121.968C157.669 121.786 157.032 121.617 156.356 121.617C155.42 121.617 154.952 121.968 154.952 122.605C154.952 123.216 155.251 123.476 155.992 123.697L156.681 123.879C157.864 124.217 158.397 124.607 158.397 125.725C158.397 126.856 157.591 127.545 156.161 127.545ZM159.492 127.714V126.622H160.571V127.714H159.492Z" fill="black"/>
</svg>
