<svg width="190" height="148" viewBox="0 0 190 148" fill="none" xmlns="http://www.w3.org/2000/svg">
<path d="M1.232 5.8H4.672C5.93067 5.8 6.88533 6.09333 7.536 6.68C8.18667 7.26667 8.512 8.12533 8.512 9.256C8.512 10.4507 8.176 11.3627 7.504 11.992C6.832 12.6213 5.86133 12.936 4.592 12.936H2.976V17H1.232V5.8ZM4.784 11.512C5.44533 11.512 5.952 11.3253 6.304 10.952C6.656 10.568 6.832 10.024 6.832 9.32C6.832 8.63733 6.64533 8.12 6.272 7.768C5.89867 7.40533 5.36 7.224 4.656 7.224H2.976V11.512H4.784ZM10.1776 5.128H11.7616V10.152C11.9963 9.74667 12.3483 9.42667 12.8176 9.192C13.287 8.95733 13.8043 8.84 14.3696 8.84C15.2976 8.84 16.023 9.14933 16.5456 9.768C17.0683 10.3867 17.3296 11.2453 17.3296 12.344V17H15.7456V12.392C15.7456 11.6347 15.5963 11.0533 15.2976 10.648C15.0096 10.2427 14.5883 10.04 14.0336 10.04C13.3723 10.04 12.8283 10.28 12.4016 10.76C11.975 11.24 11.7616 11.864 11.7616 12.632V17H10.1776V5.128ZM25.6744 9L22.7144 17.224C21.9997 19.1973 20.8584 20.184 19.2904 20.184C18.9917 20.184 18.6504 20.136 18.2664 20.04V18.808C18.4904 18.8933 18.757 18.936 19.0664 18.936C19.589 18.936 20.0317 18.7493 20.3944 18.376C20.757 18.0027 21.1037 17.384 21.4344 16.52L18.4584 9H20.1544L22.1704 14.808L23.9624 9H25.6744ZM29.1078 17.16C28.4784 17.16 27.9131 17.032 27.4118 16.776C26.9104 16.52 26.5584 16.1787 26.3558 15.752L27.3638 15.064C27.5451 15.3413 27.7904 15.56 28.0998 15.72C28.4091 15.88 28.7451 15.96 29.1078 15.96C29.5238 15.96 29.8651 15.8427 30.1318 15.608C30.4091 15.3733 30.5477 15.0747 30.5477 14.712C30.5477 14.424 30.4411 14.1893 30.2278 14.008C30.0144 13.816 29.6198 13.6133 29.0438 13.4C28.1158 13.048 27.4598 12.6907 27.0758 12.328C26.7024 11.9547 26.5158 11.496 26.5158 10.952C26.5158 10.312 26.7664 9.8 27.2678 9.416C27.7798 9.032 28.4571 8.84 29.2998 8.84C29.8438 8.84 30.3398 8.952 30.7878 9.176C31.2358 9.4 31.5878 9.71467 31.8438 10.12L30.8998 10.824C30.7184 10.568 30.4891 10.376 30.2118 10.248C29.9451 10.1093 29.6464 10.04 29.3158 10.04C28.9531 10.04 28.6544 10.12 28.4198 10.28C28.1958 10.44 28.0838 10.648 28.0838 10.904C28.0838 11.1707 28.2011 11.3947 28.4358 11.576C28.6704 11.7467 29.1291 11.9653 29.8118 12.232C30.6651 12.5627 31.2624 12.9093 31.6038 13.272C31.9558 13.624 32.1318 14.0827 32.1318 14.648C32.1318 15.4053 31.8544 16.0133 31.2998 16.472C30.7451 16.9307 30.0144 17.16 29.1078 17.16ZM34.657 7.768C34.3263 7.768 34.065 7.67733 33.873 7.496C33.681 7.31467 33.585 7.06933 33.585 6.76C33.585 6.45067 33.681 6.20533 33.873 6.024C34.065 5.84267 34.3263 5.752 34.657 5.752C34.9877 5.752 35.249 5.84267 35.441 6.024C35.6437 6.20533 35.745 6.45067 35.745 6.76C35.745 7.06933 35.6437 7.31467 35.441 7.496C35.249 7.67733 34.9877 7.768 34.657 7.768ZM33.873 9H35.457V17H33.873V9ZM41.0235 17.16C39.8182 17.16 38.8795 16.792 38.2075 16.056C37.5355 15.32 37.1995 14.3013 37.1995 13C37.1995 11.688 37.5355 10.6693 38.2075 9.944C38.8795 9.208 39.8182 8.84 41.0235 8.84C41.7168 8.84 42.3248 8.97333 42.8475 9.24C43.3808 9.50667 43.7968 9.89067 44.0955 10.392L43.1515 11.24C42.9275 10.8773 42.6342 10.5947 42.2715 10.392C41.9088 10.1893 41.5142 10.088 41.0875 10.088C40.3622 10.088 39.7968 10.344 39.3915 10.856C38.9862 11.368 38.7835 12.0827 38.7835 13C38.7835 13.9067 38.9862 14.6213 39.3915 15.144C39.7968 15.656 40.3622 15.912 41.0875 15.912C41.5142 15.912 41.9088 15.8107 42.2715 15.608C42.6342 15.4053 42.9275 15.1227 43.1515 14.76L44.0955 15.608C43.7968 16.1093 43.3808 16.4933 42.8475 16.76C42.3248 17.0267 41.7168 17.16 41.0235 17.16ZM47.6398 17.16C47.1171 17.16 46.6478 17.0533 46.2318 16.84C45.8264 16.6267 45.5064 16.3333 45.2718 15.96C45.0478 15.576 44.9358 15.144 44.9358 14.664C44.9358 13.8533 45.2451 13.2347 45.8638 12.808C46.4824 12.3707 47.3624 12.152 48.5038 12.152H50.0078V11.752C50.0078 11.2187 49.8638 10.808 49.5758 10.52C49.2878 10.232 48.8664 10.088 48.3118 10.088C47.8318 10.088 47.3838 10.184 46.9678 10.376C46.5518 10.5573 46.2104 10.824 45.9438 11.176L45.1918 10.232C45.5758 9.784 46.0398 9.44267 46.5838 9.208C47.1384 8.96267 47.7358 8.84 48.3758 8.84C49.3998 8.84 50.1944 9.09067 50.7598 9.592C51.3251 10.0827 51.6078 10.7813 51.6078 11.688V15.4C51.6078 15.88 51.6718 16.4133 51.7998 17H50.4078C50.3011 16.744 50.2264 16.3867 50.1838 15.928H50.1518C49.5438 16.7493 48.7064 17.16 47.6398 17.16ZM47.9438 15.928C48.5198 15.928 49.0051 15.7733 49.3998 15.464C49.8051 15.144 50.0078 14.76 50.0078 14.312V13.256H48.4398C47.8104 13.256 47.3251 13.3787 46.9838 13.624C46.6531 13.8587 46.4878 14.2053 46.4878 14.664C46.4878 15.0587 46.6158 15.368 46.8718 15.592C47.1384 15.816 47.4958 15.928 47.9438 15.928ZM55.5366 17.16C54.9286 17.16 54.47 16.9893 54.1606 16.648C53.8513 16.296 53.6966 15.7787 53.6966 15.096V5.128H55.2806V15.096C55.2806 15.4267 55.3393 15.6613 55.4566 15.8C55.5846 15.9387 55.7873 16.008 56.0646 16.008C56.2886 16.008 56.566 15.9387 56.8966 15.8L57.1366 16.712C56.7206 17.0107 56.1873 17.16 55.5366 17.16ZM68.1635 14.776H63.9875L63.2995 17H61.4435L65.2835 5.8H66.8675L70.7075 17H68.8515L68.1635 14.776ZM67.7155 13.352L66.0835 8.056L64.4355 13.352H67.7155ZM74.8204 17.16C73.615 17.16 72.6764 16.792 72.0044 16.056C71.3324 15.32 70.9964 14.3013 70.9964 13C70.9964 11.688 71.3324 10.6693 72.0044 9.944C72.6764 9.208 73.615 8.84 74.8204 8.84C75.5137 8.84 76.1217 8.97333 76.6444 9.24C77.1777 9.50667 77.5937 9.89067 77.8924 10.392L76.9484 11.24C76.7244 10.8773 76.431 10.5947 76.0684 10.392C75.7057 10.1893 75.311 10.088 74.8844 10.088C74.159 10.088 73.5937 10.344 73.1884 10.856C72.783 11.368 72.5804 12.0827 72.5804 13C72.5804 13.9067 72.783 14.6213 73.1884 15.144C73.5937 15.656 74.159 15.912 74.8844 15.912C75.311 15.912 75.7057 15.8107 76.0684 15.608C76.431 15.4053 76.7244 15.1227 76.9484 14.76L77.8924 15.608C77.5937 16.1093 77.1777 16.4933 76.6444 16.76C76.1217 17.0267 75.5137 17.16 74.8204 17.16ZM82.1406 17.16C81.394 17.16 80.8073 16.936 80.3806 16.488C79.9646 16.0293 79.7566 15.4 79.7566 14.6V10.216H78.3166V9H79.7566V6.888L81.2766 6.44H81.3406V9H83.6286V10.216H81.3406V14.408C81.3406 14.9307 81.442 15.3147 81.6446 15.56C81.858 15.8053 82.178 15.928 82.6046 15.928C83.0313 15.928 83.41 15.864 83.7406 15.736L83.8366 16.872C83.442 17.064 82.8766 17.16 82.1406 17.16ZM86.4226 7.768C86.092 7.768 85.8306 7.67733 85.6386 7.496C85.4466 7.31467 85.3506 7.06933 85.3506 6.76C85.3506 6.45067 85.4466 6.20533 85.6386 6.024C85.8306 5.84267 86.092 5.752 86.4226 5.752C86.7533 5.752 87.0146 5.84267 87.2066 6.024C87.4093 6.20533 87.5106 6.45067 87.5106 6.76C87.5106 7.06933 87.4093 7.31467 87.2066 7.496C87.0146 7.67733 86.7533 7.768 86.4226 7.768ZM85.6386 9H87.2226V17H85.6386V9ZM96.1971 9L93.1251 17H91.7171L88.6451 9H90.2771L92.4211 15.112L94.5491 9H96.1971ZM98.407 7.768C98.0763 7.768 97.815 7.67733 97.623 7.496C97.431 7.31467 97.335 7.06933 97.335 6.76C97.335 6.45067 97.431 6.20533 97.623 6.024C97.815 5.84267 98.0763 5.752 98.407 5.752C98.7377 5.752 98.999 5.84267 99.191 6.024C99.3937 6.20533 99.495 6.45067 99.495 6.76C99.495 7.06933 99.3937 7.31467 99.191 7.496C98.999 7.67733 98.7377 7.768 98.407 7.768ZM97.623 9H99.207V17H97.623V9ZM104.438 17.16C103.691 17.16 103.104 16.936 102.678 16.488C102.262 16.0293 102.054 15.4 102.054 14.6V10.216H100.614V9H102.054V6.888L103.574 6.44H103.638V9H105.926V10.216H103.638V14.408C103.638 14.9307 103.739 15.3147 103.942 15.56C104.155 15.8053 104.475 15.928 104.902 15.928C105.328 15.928 105.707 15.864 106.038 15.736L106.134 16.872C105.739 17.064 105.174 17.16 104.438 17.16ZM114.128 9L111.168 17.224C110.453 19.1973 109.312 20.184 107.743 20.184C107.445 20.184 107.104 20.136 106.72 20.04V18.808C106.944 18.8933 107.21 18.936 107.52 18.936C108.042 18.936 108.485 18.7493 108.848 18.376C109.21 18.0027 109.557 17.384 109.888 16.52L106.912 9H108.608L110.624 14.808L112.416 9H114.128Z" fill="black"/>
<path d="M1.118 47.454V38.731H6.24V39.446H1.95V42.605H5.252V43.333H1.95V46.739H6.279V47.454H1.118ZM7.96951 47.454V41.045H8.74951V41.617H8.80151C9.42551 41.214 10.1665 40.928 10.8815 40.928C11.6095 40.928 12.1295 41.162 12.4025 41.643H12.4545C13.2215 41.162 13.9755 40.928 14.6905 40.928C15.7955 40.928 16.4585 41.422 16.4585 42.644V47.454H15.6525V42.826C15.6525 41.968 15.2625 41.63 14.3915 41.63C13.8455 41.63 13.2345 41.812 12.5845 42.176C12.6105 42.332 12.6235 42.475 12.6235 42.644V47.454H11.8045V42.826C11.8045 41.968 11.4535 41.63 10.5825 41.63C9.97151 41.63 9.36051 41.838 8.78851 42.176V47.454H7.96951ZM20.5912 47.597C19.8112 47.597 18.8622 47.467 18.3162 47.22V38.146H19.1222V41.5H19.1872C19.6942 41.188 20.3182 40.928 21.2282 40.928C22.5282 40.928 23.7372 41.656 23.7372 44.1V44.256C23.7372 46.414 22.6062 47.597 20.5912 47.597ZM20.6432 46.895C21.8912 46.895 22.8792 46.258 22.8792 44.386V44.152C22.8792 42.215 22.1902 41.63 20.8772 41.63C20.1362 41.63 19.4992 41.916 19.1222 42.111V46.648C19.4732 46.778 19.9412 46.895 20.6432 46.895ZM27.8735 47.558C25.8585 47.558 24.8445 46.362 24.8445 44.321V44.165C24.8445 41.929 26.1445 40.928 27.6395 40.928C29.3815 40.928 30.1875 41.968 30.1875 43.918V44.386H25.6895C25.7155 46.141 26.4955 46.856 28.0035 46.856C28.8615 46.856 29.4595 46.661 29.9925 46.388V47.012C29.6025 47.272 28.8875 47.558 27.8735 47.558ZM27.6135 41.591C26.6905 41.591 25.8065 42.15 25.7025 43.736H29.3295C29.3295 42.267 28.7705 41.591 27.6135 41.591ZM33.9464 47.558C32.6334 47.558 31.3074 46.765 31.3074 44.399V44.23C31.3074 41.929 32.4904 40.928 34.1414 40.928C34.9734 40.928 35.5324 41.162 35.8964 41.396V38.146H36.7154V47.454H36.0264L35.9484 46.895H35.8964C35.4674 47.285 34.8564 47.558 33.9464 47.558ZM34.1804 46.895C34.9864 46.895 35.5454 46.596 35.8964 46.284V42.085C35.5714 41.825 34.9474 41.63 34.2714 41.63C32.9714 41.63 32.1524 42.306 32.1524 44.139V44.373C32.1524 46.245 32.9844 46.895 34.1804 46.895ZM40.878 47.558C39.565 47.558 38.239 46.765 38.239 44.399V44.23C38.239 41.929 39.422 40.928 41.073 40.928C41.905 40.928 42.464 41.162 42.828 41.396V38.146H43.647V47.454H42.958L42.88 46.895H42.828C42.399 47.285 41.788 47.558 40.878 47.558ZM41.112 46.895C41.918 46.895 42.477 46.596 42.828 46.284V42.085C42.503 41.825 41.879 41.63 41.203 41.63C39.903 41.63 39.084 42.306 39.084 44.139V44.373C39.084 46.245 39.916 46.895 41.112 46.895ZM45.5736 47.454V41.045H46.3926V47.454H45.5736ZM45.5606 39.706V38.809H46.4056V39.706H45.5606ZM48.3152 47.454V41.045H49.0952V41.617H49.1472C49.7842 41.201 50.6422 40.928 51.4482 40.928C52.6702 40.928 53.2942 41.422 53.2942 42.644V47.454H52.4752V42.826C52.4752 41.968 52.1372 41.63 51.0972 41.63C50.4342 41.63 49.7062 41.851 49.1342 42.176V47.454H48.3152ZM57.355 49.404C55.379 49.404 54.508 48.806 54.508 47.883C54.508 47.168 55.067 46.778 55.756 46.531V46.479C55.405 46.388 55.106 46.102 55.106 45.686C55.106 45.283 55.34 44.984 55.795 44.62C55.314 44.295 54.989 43.775 54.989 43.034V42.956C54.989 41.656 56.003 40.902 57.381 40.902C57.693 40.902 57.979 40.941 58.252 41.006H60.41V41.63H59.162C59.526 41.942 59.721 42.371 59.721 42.93V42.995C59.721 44.36 58.694 45.036 57.368 45.036C56.952 45.036 56.562 44.971 56.224 44.841C56.042 45.01 55.886 45.179 55.886 45.413C55.886 45.777 56.12 45.946 56.562 45.946H58.382C59.526 45.946 60.384 46.284 60.384 47.467C60.384 48.533 59.5 49.404 57.355 49.404ZM57.329 48.741C58.941 48.741 59.526 48.286 59.526 47.584C59.526 46.869 59.123 46.7 58.252 46.7H56.367C55.808 46.882 55.379 47.168 55.379 47.766C55.379 48.403 55.912 48.741 57.329 48.741ZM57.368 44.412C58.33 44.412 58.902 43.944 58.902 43.034V42.917C58.902 41.968 58.291 41.539 57.368 41.539C56.419 41.539 55.821 42.033 55.821 42.891V43.008C55.821 43.944 56.445 44.412 57.368 44.412ZM65.0095 49.378V41.045H65.7895V41.565H65.8415C66.2835 41.227 66.9595 40.928 67.8305 40.928C69.2475 40.928 70.4305 41.695 70.4305 44.113V44.256C70.4305 46.57 69.2995 47.558 67.5315 47.558C66.7775 47.558 66.1925 47.35 65.8155 47.116V49.378H65.0095ZM67.4535 46.895C68.7925 46.895 69.5725 46.18 69.5725 44.386V44.152C69.5725 42.189 68.8575 41.63 67.6225 41.63C66.8165 41.63 66.1795 41.916 65.8155 42.163V46.427C66.1665 46.661 66.7645 46.895 67.4535 46.895ZM71.9412 47.454V38.146H72.7602V41.604H72.8122C73.4362 41.188 74.2682 40.941 75.0742 40.941C76.2962 40.941 76.9202 41.435 76.9202 42.657V47.454H76.1012V42.826C76.1012 41.968 75.7632 41.63 74.7232 41.63C74.0602 41.63 73.3322 41.864 72.7602 42.176V47.454H71.9412ZM79.278 49.404C78.992 49.404 78.68 49.326 78.498 49.235V48.624C78.667 48.663 78.914 48.715 79.148 48.715C79.785 48.715 80.149 48.429 80.396 47.753L80.604 47.142L78.134 41.032H78.992L81.007 46.076H81.033L82.905 41.032H83.711L81.163 47.844C80.773 48.897 80.305 49.404 79.278 49.404ZM86.5275 47.545C85.6825 47.545 84.9805 47.363 84.4865 47.09V46.44C85.0195 46.661 85.5135 46.856 86.4365 46.856C87.5285 46.856 87.9445 46.427 87.9445 45.79C87.9445 45.114 87.6195 44.841 86.7485 44.607L86.0985 44.412C85.1365 44.165 84.5385 43.736 84.5385 42.67C84.5385 41.643 85.2405 40.928 86.6835 40.928C87.5155 40.928 88.0485 41.123 88.3995 41.305V41.968C88.0355 41.786 87.3985 41.617 86.7225 41.617C85.7865 41.617 85.3185 41.968 85.3185 42.605C85.3185 43.216 85.6175 43.476 86.3585 43.697L87.0475 43.879C88.2305 44.217 88.7635 44.607 88.7635 45.725C88.7635 46.856 87.9575 47.545 86.5275 47.545ZM90.2738 47.454V41.045H91.0928V47.454H90.2738ZM90.2608 39.706V38.809H91.1058V39.706H90.2608ZM95.5244 47.558C93.6654 47.558 92.5994 46.44 92.5994 44.347V44.178C92.5994 41.903 93.9124 40.928 95.5634 40.928C96.3954 40.928 96.8764 41.071 97.3314 41.357V42.033C96.7854 41.773 96.3434 41.63 95.5114 41.63C94.2894 41.63 93.4444 42.423 93.4444 44.048V44.334C93.4444 46.011 94.1594 46.856 95.6154 46.856C96.4994 46.856 97.0584 46.583 97.4094 46.388V47.051C96.9934 47.311 96.4474 47.558 95.5244 47.558ZM100.364 47.558C99.2072 47.558 98.3882 46.934 98.3882 45.79C98.3882 44.672 99.0772 44.087 100.312 43.944L102.132 43.736V42.982C102.132 41.929 101.664 41.63 100.52 41.63C99.8832 41.63 99.3762 41.747 98.9342 41.851V41.266C99.4932 41.045 100.104 40.928 100.819 40.928C102.197 40.928 102.951 41.487 102.951 42.787V47.454H102.288L102.21 46.882H102.158C101.833 47.233 101.261 47.558 100.364 47.558ZM100.572 46.908C101.235 46.908 101.833 46.674 102.132 46.401V44.347L100.533 44.529C99.6492 44.62 99.2332 44.984 99.2332 45.764C99.2332 46.505 99.7532 46.908 100.572 46.908ZM104.848 47.454V38.146H105.667V47.454H104.848ZM112.552 47.558C111.395 47.558 110.576 46.934 110.576 45.79C110.576 44.672 111.265 44.087 112.5 43.944L114.32 43.736V42.982C114.32 41.929 113.852 41.63 112.708 41.63C112.071 41.63 111.564 41.747 111.122 41.851V41.266C111.681 41.045 112.292 40.928 113.007 40.928C114.385 40.928 115.139 41.487 115.139 42.787V47.454H114.476L114.398 46.882H114.346C114.021 47.233 113.449 47.558 112.552 47.558ZM112.76 46.908C113.423 46.908 114.021 46.674 114.32 46.401V44.347L112.721 44.529C111.837 44.62 111.421 44.984 111.421 45.764C111.421 46.505 111.941 46.908 112.76 46.908ZM119.519 47.558C117.66 47.558 116.594 46.44 116.594 44.347V44.178C116.594 41.903 117.907 40.928 119.558 40.928C120.39 40.928 120.871 41.071 121.326 41.357V42.033C120.78 41.773 120.338 41.63 119.506 41.63C118.284 41.63 117.439 42.423 117.439 44.048V44.334C117.439 46.011 118.154 46.856 119.61 46.856C120.494 46.856 121.053 46.583 121.404 46.388V47.051C120.988 47.311 120.442 47.558 119.519 47.558ZM124.876 47.519C123.888 47.519 123.277 47.103 123.277 46.063V41.734H122.341V41.045H123.277V39.524H124.096V41.045H125.799V41.734H124.096V45.946C124.096 46.583 124.304 46.856 125.084 46.856C125.357 46.856 125.682 46.804 125.916 46.726V47.272C125.695 47.402 125.396 47.519 124.876 47.519ZM127.357 47.454V41.045H128.176V47.454H127.357ZM127.344 39.706V38.809H128.189V39.706H127.344ZM131.879 47.454L129.461 41.032H130.345L132.295 46.388H132.321L134.284 41.032H135.103L132.698 47.454H131.879ZM136.396 47.454V41.045H137.215V47.454H136.396ZM136.383 39.706V38.809H137.228V39.706H136.383ZM141.113 47.519C140.125 47.519 139.514 47.103 139.514 46.063V41.734H138.578V41.045H139.514V39.524H140.333V41.045H142.036V41.734H140.333V45.946C140.333 46.583 140.541 46.856 141.321 46.856C141.594 46.856 141.919 46.804 142.153 46.726V47.272C141.932 47.402 141.633 47.519 141.113 47.519ZM144.062 49.404C143.776 49.404 143.464 49.326 143.282 49.235V48.624C143.451 48.663 143.698 48.715 143.932 48.715C144.569 48.715 144.933 48.429 145.18 47.753L145.388 47.142L142.918 41.032H143.776L145.791 46.076H145.817L147.689 41.032H148.495L145.947 47.844C145.557 48.897 145.089 49.404 144.062 49.404ZM154.402 47.454L152.556 41.032H153.427L154.87 46.375H154.909L156.534 41.032H157.249L158.874 46.375H158.926L160.356 41.032H161.149L159.303 47.454H158.458L156.885 42.293H156.859L155.247 47.454H154.402ZM162.497 47.454V41.045H163.316V47.454H162.497ZM162.484 39.706V38.809H163.329V39.706H162.484ZM167.215 47.519C166.227 47.519 165.616 47.103 165.616 46.063V41.734H164.68V41.045H165.616V39.524H166.435V41.045H168.138V41.734H166.435V45.946C166.435 46.583 166.643 46.856 167.423 46.856C167.696 46.856 168.021 46.804 168.255 46.726V47.272C168.034 47.402 167.735 47.519 167.215 47.519ZM169.67 47.454V38.146H170.489V41.604H170.541C171.165 41.188 171.997 40.941 172.803 40.941C174.025 40.941 174.649 41.435 174.649 42.657V47.454H173.83V42.826C173.83 41.968 173.492 41.63 172.452 41.63C171.789 41.63 171.061 41.864 170.489 42.176V47.454H169.67ZM176.538 47.454V41.045H177.357V47.454H176.538ZM176.525 39.706V38.809H177.37V39.706H176.525ZM179.28 47.454V41.045H180.06V41.617H180.112C180.749 41.201 181.607 40.928 182.413 40.928C183.635 40.928 184.259 41.422 184.259 42.644V47.454H183.44V42.826C183.44 41.968 183.102 41.63 182.062 41.63C181.399 41.63 180.671 41.851 180.099 42.176V47.454H179.28ZM3.211 63.558C1.898 63.558 0.572 62.765 0.572 60.399V60.23C0.572 57.929 1.755 56.928 3.406 56.928C4.238 56.928 4.797 57.162 5.161 57.396V54.146H5.98V63.454H5.291L5.213 62.895H5.161C4.732 63.285 4.121 63.558 3.211 63.558ZM3.445 62.895C4.251 62.895 4.81 62.596 5.161 62.284V58.085C4.836 57.825 4.212 57.63 3.536 57.63C2.236 57.63 1.417 58.306 1.417 60.139V60.373C1.417 62.245 2.249 62.895 3.445 62.895ZM9.42764 63.558C8.27064 63.558 7.45164 62.934 7.45164 61.79C7.45164 60.672 8.14064 60.087 9.37564 59.944L11.1956 59.736V58.982C11.1956 57.929 10.7276 57.63 9.58364 57.63C8.94664 57.63 8.43964 57.747 7.99764 57.851V57.266C8.55664 57.045 9.16764 56.928 9.88264 56.928C11.2606 56.928 12.0146 57.487 12.0146 58.787V63.454H11.3516L11.2736 62.882H11.2216C10.8966 63.233 10.3246 63.558 9.42764 63.558ZM9.63564 62.908C10.2986 62.908 10.8966 62.674 11.1956 62.401V60.347L9.59664 60.529C8.71264 60.62 8.29664 60.984 8.29664 61.764C8.29664 62.505 8.81664 62.908 9.63564 62.908ZM13.9115 63.454V57.045H14.7305V63.454H13.9115ZM13.8985 55.706V54.809H14.7435V55.706H13.8985ZM16.6791 63.454V54.146H17.4981V63.454H16.6791ZM19.9147 65.404C19.6287 65.404 19.3167 65.326 19.1347 65.235V64.624C19.3037 64.663 19.5507 64.715 19.7847 64.715C20.4217 64.715 20.7857 64.429 21.0327 63.753L21.2407 63.142L18.7707 57.032H19.6287L21.6437 62.076H21.6697L23.5417 57.032H24.3477L21.7997 63.844C21.4097 64.897 20.9417 65.404 19.9147 65.404ZM28.9803 63.454V57.032H29.7603V57.773H29.8123C30.1893 57.357 30.9043 56.954 31.6583 56.954C31.8013 56.954 31.9703 56.967 32.0483 56.993V57.747C31.8923 57.721 31.7103 57.708 31.5933 57.708C30.9173 57.708 30.2543 57.981 29.7993 58.358V63.454H28.9803ZM35.8171 63.558C34.0621 63.558 32.9441 62.427 32.9441 60.36V60.178C32.9441 58.098 34.1401 56.928 35.8301 56.928C37.5981 56.928 38.7161 58.059 38.7161 60.139V60.308C38.7161 62.375 37.5201 63.558 35.8171 63.558ZM35.8431 62.882C37.0651 62.882 37.8711 62.037 37.8711 60.386V60.113C37.8711 58.254 36.9871 57.591 35.8171 57.591C34.5821 57.591 33.7891 58.475 33.7891 60.087V60.386C33.7891 62.219 34.6861 62.882 35.8431 62.882ZM42.1139 63.558C40.8789 63.558 40.1639 62.96 40.1639 61.725V57.032H40.9829V61.621C40.9829 62.505 41.3599 62.856 42.3479 62.856C43.0369 62.856 43.6999 62.622 44.2719 62.284V57.032H45.0779V63.454H44.3759L44.2979 62.856H44.2589C43.6219 63.272 42.8809 63.558 42.1139 63.558ZM48.9709 63.519C47.9829 63.519 47.3719 63.103 47.3719 62.063V57.734H46.4359V57.045H47.3719V55.524H48.1909V57.045H49.8939V57.734H48.1909V61.946C48.1909 62.583 48.3989 62.856 49.1789 62.856C49.4519 62.856 49.7769 62.804 50.0109 62.726V63.272C49.7899 63.402 49.4909 63.519 48.9709 63.519ZM51.4516 63.454V57.045H52.2706V63.454H51.4516ZM51.4386 55.706V54.809H52.2836V55.706H51.4386ZM54.1931 63.454V57.045H54.9731V57.617H55.0251C55.6621 57.201 56.5201 56.928 57.3261 56.928C58.5481 56.928 59.1721 57.422 59.1721 58.644V63.454H58.3531V58.826C58.3531 57.968 58.0151 57.63 56.9751 57.63C56.3121 57.63 55.5841 57.851 55.0121 58.176V63.454H54.1931ZM63.6489 63.558C61.6339 63.558 60.6199 62.362 60.6199 60.321V60.165C60.6199 57.929 61.9199 56.928 63.4149 56.928C65.1569 56.928 65.9629 57.968 65.9629 59.918V60.386H61.4649C61.4909 62.141 62.2709 62.856 63.7789 62.856C64.6369 62.856 65.2349 62.661 65.7679 62.388V63.012C65.3779 63.272 64.6629 63.558 63.6489 63.558ZM63.3889 57.591C62.4659 57.591 61.5819 58.15 61.4779 59.736H65.1049C65.1049 58.267 64.5459 57.591 63.3889 57.591ZM69.0587 63.545C68.2137 63.545 67.5117 63.363 67.0177 63.09V62.44C67.5507 62.661 68.0447 62.856 68.9677 62.856C70.0597 62.856 70.4757 62.427 70.4757 61.79C70.4757 61.114 70.1507 60.841 69.2797 60.607L68.6297 60.412C67.6677 60.165 67.0697 59.736 67.0697 58.67C67.0697 57.643 67.7717 56.928 69.2147 56.928C70.0467 56.928 70.5797 57.123 70.9307 57.305V57.968C70.5667 57.786 69.9297 57.617 69.2537 57.617C68.3177 57.617 67.8497 57.968 67.8497 58.605C67.8497 59.216 68.1487 59.476 68.8897 59.697L69.5787 59.879C70.7617 60.217 71.2947 60.607 71.2947 61.725C71.2947 62.856 70.4887 63.545 69.0587 63.545ZM77.7931 63.545C76.9481 63.545 76.2461 63.363 75.7521 63.09V62.44C76.2851 62.661 76.7791 62.856 77.7021 62.856C78.7941 62.856 79.2101 62.427 79.2101 61.79C79.2101 61.114 78.8851 60.841 78.0141 60.607L77.3641 60.412C76.4021 60.165 75.8041 59.736 75.8041 58.67C75.8041 57.643 76.5061 56.928 77.9491 56.928C78.7811 56.928 79.3141 57.123 79.6651 57.305V57.968C79.3011 57.786 78.6641 57.617 77.9881 57.617C77.0521 57.617 76.5841 57.968 76.5841 58.605C76.5841 59.216 76.8831 59.476 77.6241 59.697L78.3131 59.879C79.4961 60.217 80.0291 60.607 80.0291 61.725C80.0291 62.856 79.2231 63.545 77.7931 63.545ZM83.4895 63.519C82.5015 63.519 81.8905 63.103 81.8905 62.063V57.734H80.9545V57.045H81.8905V55.524H82.7095V57.045H84.4125V57.734H82.7095V61.946C82.7095 62.583 82.9175 62.856 83.6975 62.856C83.9705 62.856 84.2955 62.804 84.5295 62.726V63.272C84.3085 63.402 84.0095 63.519 83.4895 63.519ZM87.4911 63.558C86.3341 63.558 85.5151 62.934 85.5151 61.79C85.5151 60.672 86.2041 60.087 87.4391 59.944L89.2591 59.736V58.982C89.2591 57.929 88.7911 57.63 87.6471 57.63C87.0101 57.63 86.5031 57.747 86.0611 57.851V57.266C86.6201 57.045 87.2311 56.928 87.9461 56.928C89.3241 56.928 90.0781 57.487 90.0781 58.787V63.454H89.4151L89.3371 62.882H89.2851C88.9601 63.233 88.3881 63.558 87.4911 63.558ZM87.6991 62.908C88.3621 62.908 88.9601 62.674 89.2591 62.401V60.347L87.6601 60.529C86.7761 60.62 86.3601 60.984 86.3601 61.764C86.3601 62.505 86.8801 62.908 87.6991 62.908ZM91.949 63.454V57.045H92.729V57.617H92.781C93.418 57.201 94.276 56.928 95.082 56.928C96.304 56.928 96.928 57.422 96.928 58.644V63.454H96.109V58.826C96.109 57.968 95.771 57.63 94.731 57.63C94.068 57.63 93.34 57.851 92.768 58.176V63.454H91.949ZM101.054 63.558C99.7408 63.558 98.4148 62.765 98.4148 60.399V60.23C98.4148 57.929 99.5978 56.928 101.249 56.928C102.081 56.928 102.64 57.162 103.004 57.396V54.146H103.823V63.454H103.134L103.056 62.895H103.004C102.575 63.285 101.964 63.558 101.054 63.558ZM101.288 62.895C102.094 62.895 102.653 62.596 103.004 62.284V58.085C102.679 57.825 102.055 57.63 101.379 57.63C100.079 57.63 99.2598 58.306 99.2598 60.139V60.373C99.2598 62.245 100.092 62.895 101.288 62.895ZM107.322 63.545C106.477 63.545 105.775 63.363 105.281 63.09V62.44C105.814 62.661 106.308 62.856 107.231 62.856C108.323 62.856 108.739 62.427 108.739 61.79C108.739 61.114 108.414 60.841 107.543 60.607L106.893 60.412C105.931 60.165 105.333 59.736 105.333 58.67C105.333 57.643 106.035 56.928 107.478 56.928C108.31 56.928 108.843 57.123 109.194 57.305V57.968C108.83 57.786 108.193 57.617 107.517 57.617C106.581 57.617 106.113 57.968 106.113 58.605C106.113 59.216 106.412 59.476 107.153 59.697L107.842 59.879C109.025 60.217 109.558 60.607 109.558 61.725C109.558 62.856 108.752 63.545 107.322 63.545ZM116.005 63.558C114.848 63.558 114.029 62.934 114.029 61.79C114.029 60.672 114.718 60.087 115.953 59.944L117.773 59.736V58.982C117.773 57.929 117.305 57.63 116.161 57.63C115.524 57.63 115.017 57.747 114.575 57.851V57.266C115.134 57.045 115.745 56.928 116.46 56.928C117.838 56.928 118.592 57.487 118.592 58.787V63.454H117.929L117.851 62.882H117.799C117.474 63.233 116.902 63.558 116.005 63.558ZM116.213 62.908C116.876 62.908 117.474 62.674 117.773 62.401V60.347L116.174 60.529C115.29 60.62 114.874 60.984 114.874 61.764C114.874 62.505 115.394 62.908 116.213 62.908ZM122.062 63.545C121.217 63.545 120.515 63.363 120.021 63.09V62.44C120.554 62.661 121.048 62.856 121.971 62.856C123.063 62.856 123.479 62.427 123.479 61.79C123.479 61.114 123.154 60.841 122.283 60.607L121.633 60.412C120.671 60.165 120.073 59.736 120.073 58.67C120.073 57.643 120.775 56.928 122.218 56.928C123.05 56.928 123.583 57.123 123.934 57.305V57.968C123.57 57.786 122.933 57.617 122.257 57.617C121.321 57.617 120.853 57.968 120.853 58.605C120.853 59.216 121.152 59.476 121.893 59.697L122.582 59.879C123.765 60.217 124.298 60.607 124.298 61.725C124.298 62.856 123.492 63.545 122.062 63.545ZM130.744 63.558C129.587 63.558 128.768 62.934 128.768 61.79C128.768 60.672 129.457 60.087 130.692 59.944L132.512 59.736V58.982C132.512 57.929 132.044 57.63 130.9 57.63C130.263 57.63 129.756 57.747 129.314 57.851V57.266C129.873 57.045 130.484 56.928 131.199 56.928C132.577 56.928 133.331 57.487 133.331 58.787V63.454H132.668L132.59 62.882H132.538C132.213 63.233 131.641 63.558 130.744 63.558ZM130.952 62.908C131.615 62.908 132.213 62.674 132.512 62.401V60.347L130.913 60.529C130.029 60.62 129.613 60.984 129.613 61.764C129.613 62.505 130.133 62.908 130.952 62.908ZM3.458 79.558C1.599 79.558 0.533 78.44 0.533 76.347V76.178C0.533 73.903 1.846 72.928 3.497 72.928C4.329 72.928 4.81 73.071 5.265 73.357V74.033C4.719 73.773 4.277 73.63 3.445 73.63C2.223 73.63 1.378 74.423 1.378 76.048V76.334C1.378 78.011 2.093 78.856 3.549 78.856C4.433 78.856 4.992 78.583 5.343 78.388V79.051C4.927 79.311 4.381 79.558 3.458 79.558ZM9.20776 79.558C7.45276 79.558 6.33476 78.427 6.33476 76.36V76.178C6.33476 74.098 7.53076 72.928 9.22076 72.928C10.9888 72.928 12.1068 74.059 12.1068 76.139V76.308C12.1068 78.375 10.9108 79.558 9.20776 79.558ZM9.23376 78.882C10.4558 78.882 11.2618 78.037 11.2618 76.386V76.113C11.2618 74.254 10.3778 73.591 9.20776 73.591C7.97276 73.591 7.17976 74.475 7.17976 76.087V76.386C7.17976 78.219 8.07676 78.882 9.23376 78.882ZM13.5935 79.454V73.032H14.3735V73.773H14.4255C14.8025 73.357 15.5175 72.954 16.2715 72.954C16.4145 72.954 16.5835 72.967 16.6615 72.993V73.747C16.5055 73.721 16.3235 73.708 16.2065 73.708C15.5305 73.708 14.8675 73.981 14.4125 74.358V79.454H13.5935ZM17.9734 79.454V73.045H18.7534V73.617H18.8054C19.4424 73.201 20.3004 72.928 21.1064 72.928C22.3284 72.928 22.9524 73.422 22.9524 74.644V79.454H22.1334V74.826C22.1334 73.968 21.7954 73.63 20.7554 73.63C20.0924 73.63 19.3644 73.851 18.7924 74.176V79.454H17.9734ZM27.4292 79.558C25.4142 79.558 24.4002 78.362 24.4002 76.321V76.165C24.4002 73.929 25.7002 72.928 27.1952 72.928C28.9372 72.928 29.7432 73.968 29.7432 75.918V76.386H25.2452C25.2712 78.141 26.0512 78.856 27.5592 78.856C28.4172 78.856 29.0152 78.661 29.5482 78.388V79.012C29.1582 79.272 28.4432 79.558 27.4292 79.558ZM27.1692 73.591C26.2462 73.591 25.3622 74.15 25.2582 75.736H28.8852C28.8852 74.267 28.3262 73.591 27.1692 73.591ZM31.24 79.454V73.032H32.02V73.773H32.072C32.449 73.357 33.164 72.954 33.918 72.954C34.061 72.954 34.23 72.967 34.308 72.993V73.747C34.152 73.721 33.97 73.708 33.853 73.708C33.177 73.708 32.514 73.981 32.059 74.358V79.454H31.24ZM37.2189 79.545C36.3739 79.545 35.6719 79.363 35.1779 79.09V78.44C35.7109 78.661 36.2049 78.856 37.1279 78.856C38.2199 78.856 38.6359 78.427 38.6359 77.79C38.6359 77.114 38.3109 76.841 37.4399 76.607L36.7899 76.412C35.8279 76.165 35.2299 75.736 35.2299 74.67C35.2299 73.643 35.9319 72.928 37.3749 72.928C38.2069 72.928 38.7399 73.123 39.0909 73.305V73.968C38.7269 73.786 38.0899 73.617 37.4139 73.617C36.4779 73.617 36.0099 73.968 36.0099 74.605C36.0099 75.216 36.3089 75.476 37.0499 75.697L37.7389 75.879C38.9219 76.217 39.4549 76.607 39.4549 77.725C39.4549 78.856 38.6489 79.545 37.2189 79.545ZM42.9152 79.519C41.9272 79.519 41.3162 79.103 41.3162 78.063V73.734H40.3802V73.045H41.3162V71.524H42.1352V73.045H43.8382V73.734H42.1352V77.946C42.1352 78.583 42.3432 78.856 43.1232 78.856C43.3962 78.856 43.7212 78.804 43.9552 78.726V79.272C43.7342 79.402 43.4352 79.519 42.9152 79.519ZM47.8269 79.558C46.0719 79.558 44.9539 78.427 44.9539 76.36V76.178C44.9539 74.098 46.1499 72.928 47.8399 72.928C49.6079 72.928 50.7259 74.059 50.7259 76.139V76.308C50.7259 78.375 49.5299 79.558 47.8269 79.558ZM47.8529 78.882C49.0749 78.882 49.8809 78.037 49.8809 76.386V76.113C49.8809 74.254 48.9969 73.591 47.8269 73.591C46.5919 73.591 45.7989 74.475 45.7989 76.087V76.386C45.7989 78.219 46.6959 78.882 47.8529 78.882ZM52.2127 79.454V73.045H52.9927V73.617H53.0447C53.6817 73.201 54.5397 72.928 55.3457 72.928C56.5677 72.928 57.1917 73.422 57.1917 74.644V79.454H56.3727V74.826C56.3727 73.968 56.0347 73.63 54.9947 73.63C54.3317 73.63 53.6037 73.851 53.0317 74.176V79.454H52.2127ZM61.6684 79.558C59.6534 79.558 58.6394 78.362 58.6394 76.321V76.165C58.6394 73.929 59.9394 72.928 61.4344 72.928C63.1764 72.928 63.9824 73.968 63.9824 75.918V76.386H59.4844C59.5104 78.141 60.2904 78.856 61.7984 78.856C62.6564 78.856 63.2544 78.661 63.7874 78.388V79.012C63.3974 79.272 62.6824 79.558 61.6684 79.558ZM61.4084 73.591C60.4854 73.591 59.6014 74.15 59.4974 75.736H63.1244C63.1244 74.267 62.5654 73.591 61.4084 73.591ZM65.0893 79.714V78.622H66.1683V79.714H65.0893ZM71.8182 79.454V70.731H76.9402V71.446H72.6502V74.605H75.9522V75.333H72.6502V78.739H76.9792V79.454H71.8182ZM77.9188 79.454L80.1158 76.191L78.0098 73.032H78.9588L80.6618 75.606L82.2608 73.032H83.1708L81.1428 76.191L83.3008 79.454H82.3388L80.5838 76.776L78.8158 79.454H77.9188ZM84.573 81.378V73.045H85.353V73.565H85.405C85.847 73.227 86.523 72.928 87.394 72.928C88.811 72.928 89.994 73.695 89.994 76.113V76.256C89.994 78.57 88.863 79.558 87.095 79.558C86.341 79.558 85.756 79.35 85.379 79.116V81.378H84.573ZM87.017 78.895C88.356 78.895 89.136 78.18 89.136 76.386V76.152C89.136 74.189 88.421 73.63 87.186 73.63C86.38 73.63 85.743 73.916 85.379 74.163V78.427C85.73 78.661 86.328 78.895 87.017 78.895ZM91.5307 79.454V70.146H92.3497V79.454H91.5307ZM96.7292 79.558C94.9742 79.558 93.8562 78.427 93.8562 76.36V76.178C93.8562 74.098 95.0522 72.928 96.7422 72.928C98.5102 72.928 99.6282 74.059 99.6282 76.139V76.308C99.6282 78.375 98.4322 79.558 96.7292 79.558ZM96.7552 78.882C97.9772 78.882 98.7832 78.037 98.7832 76.386V76.113C98.7832 74.254 97.8992 73.591 96.7292 73.591C95.4942 73.591 94.7012 74.475 94.7012 76.087V76.386C94.7012 78.219 95.5982 78.882 96.7552 78.882ZM101.115 79.454V73.032H101.895V73.773H101.947C102.324 73.357 103.039 72.954 103.793 72.954C103.936 72.954 104.105 72.967 104.183 72.993V73.747C104.027 73.721 103.845 73.708 103.728 73.708C103.052 73.708 102.389 73.981 101.934 74.358V79.454H101.115ZM105.521 79.454V73.045H106.34V79.454H105.521ZM105.508 71.706V70.809H106.353V71.706H105.508ZM108.262 79.454V73.045H109.042V73.617H109.094C109.731 73.201 110.589 72.928 111.395 72.928C112.617 72.928 113.241 73.422 113.241 74.644V79.454H112.422V74.826C112.422 73.968 112.084 73.63 111.044 73.63C110.381 73.63 109.653 73.851 109.081 74.176V79.454H108.262ZM117.302 81.404C115.326 81.404 114.455 80.806 114.455 79.883C114.455 79.168 115.014 78.778 115.703 78.531V78.479C115.352 78.388 115.053 78.102 115.053 77.686C115.053 77.283 115.287 76.984 115.742 76.62C115.261 76.295 114.936 75.775 114.936 75.034V74.956C114.936 73.656 115.95 72.902 117.328 72.902C117.64 72.902 117.926 72.941 118.199 73.006H120.357V73.63H119.109C119.473 73.942 119.668 74.371 119.668 74.93V74.995C119.668 76.36 118.641 77.036 117.315 77.036C116.899 77.036 116.509 76.971 116.171 76.841C115.989 77.01 115.833 77.179 115.833 77.413C115.833 77.777 116.067 77.946 116.509 77.946H118.329C119.473 77.946 120.331 78.284 120.331 79.467C120.331 80.533 119.447 81.404 117.302 81.404ZM117.276 80.741C118.888 80.741 119.473 80.286 119.473 79.584C119.473 78.869 119.07 78.7 118.199 78.7H116.314C115.755 78.882 115.326 79.168 115.326 79.766C115.326 80.403 115.859 80.741 117.276 80.741ZM117.315 76.412C118.277 76.412 118.849 75.944 118.849 75.034V74.917C118.849 73.968 118.238 73.539 117.315 73.539C116.366 73.539 115.768 74.033 115.768 74.891V75.008C115.768 75.944 116.392 76.412 117.315 76.412ZM126.933 79.519C125.945 79.519 125.334 79.103 125.334 78.063V73.734H124.398V73.045H125.334V71.524H126.153V73.045H127.856V73.734H126.153V77.946C126.153 78.583 126.361 78.856 127.141 78.856C127.414 78.856 127.739 78.804 127.973 78.726V79.272C127.752 79.402 127.453 79.519 126.933 79.519ZM129.387 79.454V70.146H130.206V73.604H130.258C130.882 73.188 131.714 72.941 132.52 72.941C133.742 72.941 134.366 73.435 134.366 74.657V79.454H133.547V74.826C133.547 73.968 133.209 73.63 132.169 73.63C131.506 73.63 130.778 73.864 130.206 74.176V79.454H129.387ZM138.843 79.558C136.828 79.558 135.814 78.362 135.814 76.321V76.165C135.814 73.929 137.114 72.928 138.609 72.928C140.351 72.928 141.157 73.968 141.157 75.918V76.386H136.659C136.685 78.141 137.465 78.856 138.973 78.856C139.831 78.856 140.429 78.661 140.962 78.388V79.012C140.572 79.272 139.857 79.558 138.843 79.558ZM138.583 73.591C137.66 73.591 136.776 74.15 136.672 75.736H140.299C140.299 74.267 139.74 73.591 138.583 73.591ZM147.616 79.558C146.459 79.558 145.64 78.934 145.64 77.79C145.64 76.672 146.329 76.087 147.564 75.944L149.384 75.736V74.982C149.384 73.929 148.916 73.63 147.772 73.63C147.135 73.63 146.628 73.747 146.186 73.851V73.266C146.745 73.045 147.356 72.928 148.071 72.928C149.449 72.928 150.203 73.487 150.203 74.787V79.454H149.54L149.462 78.882H149.41C149.085 79.233 148.513 79.558 147.616 79.558ZM147.824 78.908C148.487 78.908 149.085 78.674 149.384 78.401V76.347L147.785 76.529C146.901 76.62 146.485 76.984 146.485 77.764C146.485 78.505 147.005 78.908 147.824 78.908ZM153.792 79.454L151.374 73.032H152.258L154.208 78.388H154.234L156.197 73.032H157.016L154.611 79.454H153.792ZM160.895 79.558C158.88 79.558 157.866 78.362 157.866 76.321V76.165C157.866 73.929 159.166 72.928 160.661 72.928C162.403 72.928 163.209 73.968 163.209 75.918V76.386H158.711C158.737 78.141 159.517 78.856 161.025 78.856C161.883 78.856 162.481 78.661 163.014 78.388V79.012C162.624 79.272 161.909 79.558 160.895 79.558ZM160.635 73.591C159.712 73.591 158.828 74.15 158.724 75.736H162.351C162.351 74.267 161.792 73.591 160.635 73.591ZM164.706 79.454V73.045H165.486V73.617H165.538C166.175 73.201 167.033 72.928 167.839 72.928C169.061 72.928 169.685 73.422 169.685 74.644V79.454H168.866V74.826C168.866 73.968 168.528 73.63 167.488 73.63C166.825 73.63 166.097 73.851 165.525 74.176V79.454H164.706ZM173.46 79.558C172.225 79.558 171.51 78.96 171.51 77.725V73.032H172.329V77.621C172.329 78.505 172.706 78.856 173.694 78.856C174.383 78.856 175.046 78.622 175.618 78.284V73.032H176.424V79.454H175.722L175.644 78.856H175.605C174.968 79.272 174.227 79.558 173.46 79.558ZM180.954 79.558C178.939 79.558 177.925 78.362 177.925 76.321V76.165C177.925 73.929 179.225 72.928 180.72 72.928C182.462 72.928 183.268 73.968 183.268 75.918V76.386H178.77C178.796 78.141 179.576 78.856 181.084 78.856C181.942 78.856 182.54 78.661 183.073 78.388V79.012C182.683 79.272 181.968 79.558 180.954 79.558ZM180.694 73.591C179.771 73.591 178.887 74.15 178.783 75.736H182.41C182.41 74.267 181.851 73.591 180.694 73.591ZM186.363 79.545C185.518 79.545 184.816 79.363 184.322 79.09V78.44C184.855 78.661 185.349 78.856 186.272 78.856C187.364 78.856 187.78 78.427 187.78 77.79C187.78 77.114 187.455 76.841 186.584 76.607L185.934 76.412C184.972 76.165 184.374 75.736 184.374 74.67C184.374 73.643 185.076 72.928 186.519 72.928C187.351 72.928 187.884 73.123 188.235 73.305V73.968C187.871 73.786 187.234 73.617 186.558 73.617C185.622 73.617 185.154 73.968 185.154 74.605C185.154 75.216 185.453 75.476 186.194 75.697L186.883 75.879C188.066 76.217 188.599 76.607 188.599 77.725C188.599 78.856 187.793 79.545 186.363 79.545ZM2.925 95.519C1.937 95.519 1.326 95.103 1.326 94.063V89.734H0.39V89.045H1.326V87.524H2.145V89.045H3.848V89.734H2.145V93.946C2.145 94.583 2.353 94.856 3.133 94.856C3.406 94.856 3.731 94.804 3.965 94.726V95.272C3.744 95.402 3.445 95.519 2.925 95.519ZM5.37966 95.454V86.146H6.19866V89.604H6.25066C6.87466 89.188 7.70666 88.941 8.51266 88.941C9.73466 88.941 10.3587 89.435 10.3587 90.657V95.454H9.53966V90.826C9.53966 89.968 9.20166 89.63 8.16166 89.63C7.49866 89.63 6.77066 89.864 6.19866 90.176V95.454H5.37966ZM12.2224 95.454V89.032H13.0024V89.773H13.0544C13.4314 89.357 14.1464 88.954 14.9004 88.954C15.0434 88.954 15.2124 88.967 15.2904 88.993V89.747C15.1344 89.721 14.9524 89.708 14.8354 89.708C14.1594 89.708 13.4964 89.981 13.0414 90.358V95.454H12.2224ZM19.0593 95.558C17.3043 95.558 16.1863 94.427 16.1863 92.36V92.178C16.1863 90.098 17.3823 88.928 19.0723 88.928C20.8403 88.928 21.9583 90.059 21.9583 92.139V92.308C21.9583 94.375 20.7623 95.558 19.0593 95.558ZM19.0853 94.882C20.3073 94.882 21.1133 94.037 21.1133 92.386V92.113C21.1133 90.254 20.2293 89.591 19.0593 89.591C17.8243 89.591 17.0313 90.475 17.0313 92.087V92.386C17.0313 94.219 17.9283 94.882 19.0853 94.882ZM25.3561 95.558C24.1211 95.558 23.4061 94.96 23.4061 93.725V89.032H24.2251V93.621C24.2251 94.505 24.6021 94.856 25.5901 94.856C26.2791 94.856 26.9421 94.622 27.5141 94.284V89.032H28.3201V95.454H27.6181L27.5401 94.856H27.5011C26.8641 95.272 26.1231 95.558 25.3561 95.558ZM32.4341 97.404C30.4581 97.404 29.5871 96.806 29.5871 95.883C29.5871 95.168 30.1461 94.778 30.8351 94.531V94.479C30.4841 94.388 30.1851 94.102 30.1851 93.686C30.1851 93.283 30.4191 92.984 30.8741 92.62C30.3931 92.295 30.0681 91.775 30.0681 91.034V90.956C30.0681 89.656 31.0821 88.902 32.4601 88.902C32.7721 88.902 33.0581 88.941 33.3311 89.006H35.4891V89.63H34.2411C34.6051 89.942 34.8001 90.371 34.8001 90.93V90.995C34.8001 92.36 33.7731 93.036 32.4471 93.036C32.0311 93.036 31.6411 92.971 31.3031 92.841C31.1211 93.01 30.9651 93.179 30.9651 93.413C30.9651 93.777 31.1991 93.946 31.6411 93.946H33.4611C34.6051 93.946 35.4631 94.284 35.4631 95.467C35.4631 96.533 34.5791 97.404 32.4341 97.404ZM32.4081 96.741C34.0201 96.741 34.6051 96.286 34.6051 95.584C34.6051 94.869 34.2021 94.7 33.3311 94.7H31.4461C30.8871 94.882 30.4581 95.168 30.4581 95.766C30.4581 96.403 30.9911 96.741 32.4081 96.741ZM32.4471 92.412C33.4091 92.412 33.9811 91.944 33.9811 91.034V90.917C33.9811 89.968 33.3701 89.539 32.4471 89.539C31.4981 89.539 30.9001 90.033 30.9001 90.891V91.008C30.9001 91.944 31.5241 92.412 32.4471 92.412ZM36.6736 95.454V86.146H37.4926V89.604H37.5446C38.1686 89.188 39.0006 88.941 39.8066 88.941C41.0286 88.941 41.6526 89.435 41.6526 90.657V95.454H40.8336V90.826C40.8336 89.968 40.4956 89.63 39.4556 89.63C38.7926 89.63 38.0646 89.864 37.4926 90.176V95.454H36.6736ZM48.2054 95.454L46.3594 89.032H47.2304L48.6734 94.375H48.7124L50.3374 89.032H51.0524L52.6774 94.375H52.7294L54.1594 89.032H54.9524L53.1064 95.454H52.2614L50.6884 90.293H50.6624L49.0504 95.454H48.2054ZM56.2752 95.454V86.146H57.0942V89.604H57.1462C57.7702 89.188 58.6022 88.941 59.4082 88.941C60.6302 88.941 61.2542 89.435 61.2542 90.657V95.454H60.4352V90.826C60.4352 89.968 60.0972 89.63 59.0572 89.63C58.3942 89.63 57.6662 89.864 57.0942 90.176V95.454H56.2752ZM63.1439 95.454V89.045H63.9629V95.454H63.1439ZM63.1309 87.706V86.809H63.9759V87.706H63.1309ZM68.3945 95.558C66.5355 95.558 65.4695 94.44 65.4695 92.347V92.178C65.4695 89.903 66.7825 88.928 68.4335 88.928C69.2655 88.928 69.7465 89.071 70.2015 89.357V90.033C69.6555 89.773 69.2135 89.63 68.3815 89.63C67.1595 89.63 66.3145 90.423 66.3145 92.048V92.334C66.3145 94.011 67.0295 94.856 68.4855 94.856C69.3695 94.856 69.9285 94.583 70.2795 94.388V95.051C69.8635 95.311 69.3175 95.558 68.3945 95.558ZM71.6873 95.454V86.146H72.5063V89.604H72.5583C73.1823 89.188 74.0143 88.941 74.8203 88.941C76.0423 88.941 76.6663 89.435 76.6663 90.657V95.454H75.8473V90.826C75.8473 89.968 75.5093 89.63 74.4693 89.63C73.8063 89.63 73.0783 89.864 72.5063 90.176V95.454H71.6873ZM83.9211 95.519C82.9331 95.519 82.3221 95.103 82.3221 94.063V89.734H81.3861V89.045H82.3221V87.524H83.1411V89.045H84.8441V89.734H83.1411V93.946C83.1411 94.583 83.3491 94.856 84.1291 94.856C84.4021 94.856 84.7271 94.804 84.9611 94.726V95.272C84.7401 95.402 84.4411 95.519 83.9211 95.519ZM88.9888 95.558C86.9738 95.558 85.9598 94.362 85.9598 92.321V92.165C85.9598 89.929 87.2598 88.928 88.7548 88.928C90.4968 88.928 91.3028 89.968 91.3028 91.918V92.386H86.8048C86.8308 94.141 87.6108 94.856 89.1188 94.856C89.9768 94.856 90.5748 94.661 91.1078 94.388V95.012C90.7178 95.272 90.0028 95.558 88.9888 95.558ZM88.7288 89.591C87.8058 89.591 86.9218 90.15 86.8178 91.736H90.4448C90.4448 90.267 89.8858 89.591 88.7288 89.591ZM95.3086 95.558C93.4496 95.558 92.3836 94.44 92.3836 92.347V92.178C92.3836 89.903 93.6966 88.928 95.3476 88.928C96.1796 88.928 96.6606 89.071 97.1156 89.357V90.033C96.5696 89.773 96.1276 89.63 95.2956 89.63C94.0736 89.63 93.2286 90.423 93.2286 92.048V92.334C93.2286 94.011 93.9436 94.856 95.3996 94.856C96.2836 94.856 96.8426 94.583 97.1936 94.388V95.051C96.7776 95.311 96.2316 95.558 95.3086 95.558ZM98.6013 95.454V86.146H99.4203V89.604H99.4723C100.096 89.188 100.928 88.941 101.734 88.941C102.956 88.941 103.58 89.435 103.58 90.657V95.454H102.761V90.826C102.761 89.968 102.423 89.63 101.383 89.63C100.72 89.63 99.9923 89.864 99.4203 90.176V95.454H98.6013ZM105.444 95.454V89.045H106.224V89.617H106.276C106.913 89.201 107.771 88.928 108.577 88.928C109.799 88.928 110.423 89.422 110.423 90.644V95.454H109.604V90.826C109.604 89.968 109.266 89.63 108.226 89.63C107.563 89.63 106.835 89.851 106.263 90.176V95.454H105.444ZM114.744 95.558C112.989 95.558 111.871 94.427 111.871 92.36V92.178C111.871 90.098 113.067 88.928 114.757 88.928C116.525 88.928 117.643 90.059 117.643 92.139V92.308C117.643 94.375 116.447 95.558 114.744 95.558ZM114.77 94.882C115.992 94.882 116.798 94.037 116.798 92.386V92.113C116.798 90.254 115.914 89.591 114.744 89.591C113.509 89.591 112.716 90.475 112.716 92.087V92.386C112.716 94.219 113.613 94.882 114.77 94.882ZM119.156 95.454V86.146H119.975V95.454H119.156ZM124.354 95.558C122.599 95.558 121.481 94.427 121.481 92.36V92.178C121.481 90.098 122.677 88.928 124.367 88.928C126.135 88.928 127.253 90.059 127.253 92.139V92.308C127.253 94.375 126.057 95.558 124.354 95.558ZM124.38 94.882C125.602 94.882 126.408 94.037 126.408 92.386V92.113C126.408 90.254 125.524 89.591 124.354 89.591C123.119 89.591 122.326 90.475 122.326 92.087V92.386C122.326 94.219 123.223 94.882 124.38 94.882ZM130.937 97.404C128.961 97.404 128.09 96.806 128.09 95.883C128.09 95.168 128.649 94.778 129.338 94.531V94.479C128.987 94.388 128.688 94.102 128.688 93.686C128.688 93.283 128.922 92.984 129.377 92.62C128.896 92.295 128.571 91.775 128.571 91.034V90.956C128.571 89.656 129.585 88.902 130.963 88.902C131.275 88.902 131.561 88.941 131.834 89.006H133.992V89.63H132.744C133.108 89.942 133.303 90.371 133.303 90.93V90.995C133.303 92.36 132.276 93.036 130.95 93.036C130.534 93.036 130.144 92.971 129.806 92.841C129.624 93.01 129.468 93.179 129.468 93.413C129.468 93.777 129.702 93.946 130.144 93.946H131.964C133.108 93.946 133.966 94.284 133.966 95.467C133.966 96.533 133.082 97.404 130.937 97.404ZM130.911 96.741C132.523 96.741 133.108 96.286 133.108 95.584C133.108 94.869 132.705 94.7 131.834 94.7H129.949C129.39 94.882 128.961 95.168 128.961 95.766C128.961 96.403 129.494 96.741 130.911 96.741ZM130.95 92.412C131.912 92.412 132.484 91.944 132.484 91.034V90.917C132.484 89.968 131.873 89.539 130.95 89.539C130.001 89.539 129.403 90.033 129.403 90.891V91.008C129.403 91.944 130.027 92.412 130.95 92.412ZM135.671 97.404C135.385 97.404 135.073 97.326 134.891 97.235V96.624C135.06 96.663 135.307 96.715 135.541 96.715C136.178 96.715 136.542 96.429 136.789 95.753L136.997 95.142L134.527 89.032H135.385L137.4 94.076H137.426L139.298 89.032H140.104L137.556 95.844C137.166 96.897 136.698 97.404 135.671 97.404ZM147.245 95.558C145.386 95.558 144.32 94.44 144.32 92.347V92.178C144.32 89.903 145.633 88.928 147.284 88.928C148.116 88.928 148.597 89.071 149.052 89.357V90.033C148.506 89.773 148.064 89.63 147.232 89.63C146.01 89.63 145.165 90.423 145.165 92.048V92.334C145.165 94.011 145.88 94.856 147.336 94.856C148.22 94.856 148.779 94.583 149.13 94.388V95.051C148.714 95.311 148.168 95.558 147.245 95.558ZM152.085 95.558C150.928 95.558 150.109 94.934 150.109 93.79C150.109 92.672 150.798 92.087 152.033 91.944L153.853 91.736V90.982C153.853 89.929 153.385 89.63 152.241 89.63C151.604 89.63 151.097 89.747 150.655 89.851V89.266C151.214 89.045 151.825 88.928 152.54 88.928C153.918 88.928 154.672 89.487 154.672 90.787V95.454H154.009L153.931 94.882H153.879C153.554 95.233 152.982 95.558 152.085 95.558ZM152.293 94.908C152.956 94.908 153.554 94.674 153.853 94.401V92.347L152.254 92.529C151.37 92.62 150.954 92.984 150.954 93.764C150.954 94.505 151.474 94.908 152.293 94.908ZM156.543 95.454V89.045H157.323V89.617H157.375C158.012 89.201 158.87 88.928 159.676 88.928C160.898 88.928 161.522 89.422 161.522 90.644V95.454H160.703V90.826C160.703 89.968 160.365 89.63 159.325 89.63C158.662 89.63 157.934 89.851 157.362 90.176V95.454H156.543ZM1.365 111.454V105.734H0.377V105.045H1.365V104.083C1.365 102.679 2.171 102.081 3.341 102.081C3.835 102.081 4.173 102.159 4.42 102.276V102.874C4.212 102.822 3.926 102.744 3.484 102.744C2.678 102.744 2.171 103.134 2.171 104.135V105.045H3.718V105.734H2.171V111.454H1.365ZM7.51928 111.558C5.76428 111.558 4.64628 110.427 4.64628 108.36V108.178C4.64628 106.098 5.84228 104.928 7.53228 104.928C9.30028 104.928 10.4183 106.059 10.4183 108.139V108.308C10.4183 110.375 9.22228 111.558 7.51928 111.558ZM7.54528 110.882C8.76728 110.882 9.57328 110.037 9.57328 108.386V108.113C9.57328 106.254 8.68928 105.591 7.51928 105.591C6.28428 105.591 5.49128 106.475 5.49128 108.087V108.386C5.49128 110.219 6.38828 110.882 7.54528 110.882ZM13.5041 111.545C12.6591 111.545 11.9571 111.363 11.4631 111.09V110.44C11.9961 110.661 12.4901 110.856 13.4131 110.856C14.5051 110.856 14.9211 110.427 14.9211 109.79C14.9211 109.114 14.5961 108.841 13.7251 108.607L13.0751 108.412C12.1131 108.165 11.5151 107.736 11.5151 106.67C11.5151 105.643 12.2171 104.928 13.6601 104.928C14.4921 104.928 15.0251 105.123 15.3761 105.305V105.968C15.0121 105.786 14.3751 105.617 13.6991 105.617C12.7631 105.617 12.2951 105.968 12.2951 106.605C12.2951 107.216 12.5941 107.476 13.3351 107.697L14.0241 107.879C15.2071 108.217 15.7401 108.607 15.7401 109.725C15.7401 110.856 14.9341 111.545 13.5041 111.545ZM19.2004 111.519C18.2124 111.519 17.6014 111.103 17.6014 110.063V105.734H16.6654V105.045H17.6014V103.524H18.4204V105.045H20.1234V105.734H18.4204V109.946C18.4204 110.583 18.6284 110.856 19.4084 110.856C19.6814 110.856 20.0064 110.804 20.2404 110.726V111.272C20.0194 111.402 19.7204 111.519 19.2004 111.519ZM24.2681 111.558C22.2531 111.558 21.2391 110.362 21.2391 108.321V108.165C21.2391 105.929 22.5391 104.928 24.0341 104.928C25.7761 104.928 26.5821 105.968 26.5821 107.918V108.386H22.0841C22.1101 110.141 22.8901 110.856 24.3981 110.856C25.2561 110.856 25.8541 110.661 26.3871 110.388V111.012C25.9971 111.272 25.2821 111.558 24.2681 111.558ZM24.0081 105.591C23.0851 105.591 22.2011 106.15 22.0971 107.736H25.7241C25.7241 106.267 25.1651 105.591 24.0081 105.591ZM28.0789 111.454V105.032H28.8589V105.773H28.9109C29.2879 105.357 30.0029 104.954 30.7569 104.954C30.8999 104.954 31.0689 104.967 31.1469 104.993V105.747C30.9909 105.721 30.8089 105.708 30.6919 105.708C30.0159 105.708 29.3529 105.981 28.8979 106.358V111.454H28.0789ZM37.4208 111.558C36.2638 111.558 35.4448 110.934 35.4448 109.79C35.4448 108.672 36.1338 108.087 37.3688 107.944L39.1888 107.736V106.982C39.1888 105.929 38.7208 105.63 37.5768 105.63C36.9398 105.63 36.4328 105.747 35.9908 105.851V105.266C36.5498 105.045 37.1608 104.928 37.8758 104.928C39.2538 104.928 40.0078 105.487 40.0078 106.787V111.454H39.3448L39.2668 110.882H39.2148C38.8898 111.233 38.3178 111.558 37.4208 111.558ZM37.6288 110.908C38.2918 110.908 38.8898 110.674 39.1888 110.401V108.347L37.5898 108.529C36.7058 108.62 36.2898 108.984 36.2898 109.764C36.2898 110.505 36.8098 110.908 37.6288 110.908ZM41.8787 111.454V105.045H42.6587V105.617H42.7107C43.3477 105.201 44.2057 104.928 45.0117 104.928C46.2337 104.928 46.8577 105.422 46.8577 106.644V111.454H46.0387V106.826C46.0387 105.968 45.7007 105.63 44.6607 105.63C43.9977 105.63 43.2697 105.851 42.6977 106.176V111.454H41.8787ZM50.9835 111.558C49.6705 111.558 48.3445 110.765 48.3445 108.399V108.23C48.3445 105.929 49.5275 104.928 51.1785 104.928C52.0105 104.928 52.5695 105.162 52.9335 105.396V102.146H53.7525V111.454H53.0635L52.9855 110.895H52.9335C52.5045 111.285 51.8935 111.558 50.9835 111.558ZM51.2175 110.895C52.0235 110.895 52.5825 110.596 52.9335 110.284V106.085C52.6085 105.825 51.9845 105.63 51.3085 105.63C50.0085 105.63 49.1895 106.306 49.1895 108.139V108.373C49.1895 110.245 50.0215 110.895 51.2175 110.895ZM61.6811 111.558C59.6661 111.558 58.6521 110.362 58.6521 108.321V108.165C58.6521 105.929 59.9521 104.928 61.4471 104.928C63.1891 104.928 63.9951 105.968 63.9951 107.918V108.386H59.4971C59.5231 110.141 60.3031 110.856 61.8111 110.856C62.6691 110.856 63.2671 110.661 63.8001 110.388V111.012C63.4101 111.272 62.6951 111.558 61.6811 111.558ZM61.4211 105.591C60.4981 105.591 59.6141 106.15 59.5101 107.736H63.1371C63.1371 106.267 62.5781 105.591 61.4211 105.591ZM65.492 111.454V105.045H66.272V105.617H66.324C66.961 105.201 67.819 104.928 68.625 104.928C69.847 104.928 70.471 105.422 70.471 106.644V111.454H69.652V106.826C69.652 105.968 69.314 105.63 68.274 105.63C67.611 105.63 66.883 105.851 66.311 106.176V111.454H65.492ZM74.8437 111.558C72.9847 111.558 71.9187 110.44 71.9187 108.347V108.178C71.9187 105.903 73.2317 104.928 74.8827 104.928C75.7147 104.928 76.1957 105.071 76.6507 105.357V106.033C76.1047 105.773 75.6627 105.63 74.8307 105.63C73.6087 105.63 72.7637 106.423 72.7637 108.048V108.334C72.7637 110.011 73.4787 110.856 74.9347 110.856C75.8187 110.856 76.3777 110.583 76.7287 110.388V111.051C76.3127 111.311 75.7667 111.558 74.8437 111.558ZM80.5935 111.558C78.8385 111.558 77.7205 110.427 77.7205 108.36V108.178C77.7205 106.098 78.9165 104.928 80.6065 104.928C82.3745 104.928 83.4925 106.059 83.4925 108.139V108.308C83.4925 110.375 82.2965 111.558 80.5935 111.558ZM80.6195 110.882C81.8415 110.882 82.6475 110.037 82.6475 108.386V108.113C82.6475 106.254 81.7635 105.591 80.5935 105.591C79.3585 105.591 78.5655 106.475 78.5655 108.087V108.386C78.5655 110.219 79.4625 110.882 80.6195 110.882ZM86.8903 111.558C85.6553 111.558 84.9403 110.96 84.9403 109.725V105.032H85.7593V109.621C85.7593 110.505 86.1363 110.856 87.1243 110.856C87.8133 110.856 88.4763 110.622 89.0483 110.284V105.032H89.8543V111.454H89.1523L89.0743 110.856H89.0353C88.3983 111.272 87.6573 111.558 86.8903 111.558ZM91.7713 111.454V105.032H92.5513V105.773H92.6033C92.9803 105.357 93.6953 104.954 94.4493 104.954C94.5923 104.954 94.7613 104.967 94.8393 104.993V105.747C94.6833 105.721 94.5013 105.708 94.3843 105.708C93.7083 105.708 93.0453 105.981 92.5903 106.358V111.454H91.7713ZM97.5331 111.558C96.3761 111.558 95.5571 110.934 95.5571 109.79C95.5571 108.672 96.2461 108.087 97.4811 107.944L99.3011 107.736V106.982C99.3011 105.929 98.8331 105.63 97.6891 105.63C97.0521 105.63 96.5451 105.747 96.1031 105.851V105.266C96.6621 105.045 97.2731 104.928 97.9881 104.928C99.3661 104.928 100.12 105.487 100.12 106.787V111.454H99.4571L99.3791 110.882H99.3271C99.0021 111.233 98.4301 111.558 97.5331 111.558ZM97.7411 110.908C98.4041 110.908 99.0021 110.674 99.3011 110.401V108.347L97.7021 108.529C96.8181 108.62 96.4021 108.984 96.4021 109.764C96.4021 110.505 96.9221 110.908 97.7411 110.908ZM104.125 113.404C102.149 113.404 101.278 112.806 101.278 111.883C101.278 111.168 101.837 110.778 102.526 110.531V110.479C102.175 110.388 101.876 110.102 101.876 109.686C101.876 109.283 102.11 108.984 102.565 108.62C102.084 108.295 101.759 107.775 101.759 107.034V106.956C101.759 105.656 102.773 104.902 104.151 104.902C104.463 104.902 104.749 104.941 105.022 105.006H107.18V105.63H105.932C106.296 105.942 106.491 106.371 106.491 106.93V106.995C106.491 108.36 105.464 109.036 104.138 109.036C103.722 109.036 103.332 108.971 102.994 108.841C102.812 109.01 102.656 109.179 102.656 109.413C102.656 109.777 102.89 109.946 103.332 109.946H105.152C106.296 109.946 107.154 110.284 107.154 111.467C107.154 112.533 106.27 113.404 104.125 113.404ZM104.099 112.741C105.711 112.741 106.296 112.286 106.296 111.584C106.296 110.869 105.893 110.7 105.022 110.7H103.137C102.578 110.882 102.149 111.168 102.149 111.766C102.149 112.403 102.682 112.741 104.099 112.741ZM104.138 108.412C105.1 108.412 105.672 107.944 105.672 107.034V106.917C105.672 105.968 105.061 105.539 104.138 105.539C103.189 105.539 102.591 106.033 102.591 106.891V107.008C102.591 107.944 103.215 108.412 104.138 108.412ZM110.977 111.558C108.962 111.558 107.948 110.362 107.948 108.321V108.165C107.948 105.929 109.248 104.928 110.743 104.928C112.485 104.928 113.291 105.968 113.291 107.918V108.386H108.793C108.819 110.141 109.599 110.856 111.107 110.856C111.965 110.856 112.563 110.661 113.096 110.388V111.012C112.706 111.272 111.991 111.558 110.977 111.558ZM110.717 105.591C109.794 105.591 108.91 106.15 108.806 107.736H112.433C112.433 106.267 111.874 105.591 110.717 105.591ZM118.203 113.378V105.045H118.983V105.565H119.035C119.477 105.227 120.153 104.928 121.024 104.928C122.441 104.928 123.624 105.695 123.624 108.113V108.256C123.624 110.57 122.493 111.558 120.725 111.558C119.971 111.558 119.386 111.35 119.009 111.116V113.378H118.203ZM120.647 110.895C121.986 110.895 122.766 110.18 122.766 108.386V108.152C122.766 106.189 122.051 105.63 120.816 105.63C120.01 105.63 119.373 105.916 119.009 106.163V110.427C119.36 110.661 119.958 110.895 120.647 110.895ZM125.135 111.454V102.146H125.954V105.604H126.006C126.63 105.188 127.462 104.941 128.268 104.941C129.49 104.941 130.114 105.435 130.114 106.657V111.454H129.295V106.826C129.295 105.968 128.957 105.63 127.917 105.63C127.254 105.63 126.526 105.864 125.954 106.176V111.454H125.135ZM132.471 113.404C132.185 113.404 131.873 113.326 131.691 113.235V112.624C131.86 112.663 132.107 112.715 132.341 112.715C132.978 112.715 133.342 112.429 133.589 111.753L133.797 111.142L131.327 105.032H132.185L134.2 110.076H134.226L136.098 105.032H136.904L134.356 111.844C133.966 112.897 133.498 113.404 132.471 113.404ZM139.721 111.545C138.876 111.545 138.174 111.363 137.68 111.09V110.44C138.213 110.661 138.707 110.856 139.63 110.856C140.722 110.856 141.138 110.427 141.138 109.79C141.138 109.114 140.813 108.841 139.942 108.607L139.292 108.412C138.33 108.165 137.732 107.736 137.732 106.67C137.732 105.643 138.434 104.928 139.877 104.928C140.709 104.928 141.242 105.123 141.593 105.305V105.968C141.229 105.786 140.592 105.617 139.916 105.617C138.98 105.617 138.512 105.968 138.512 106.605C138.512 107.216 138.811 107.476 139.552 107.697L140.241 107.879C141.424 108.217 141.957 108.607 141.957 109.725C141.957 110.856 141.151 111.545 139.721 111.545ZM143.467 111.454V105.045H144.286V111.454H143.467ZM143.454 103.706V102.809H144.299V103.706H143.454ZM148.718 111.558C146.859 111.558 145.793 110.44 145.793 108.347V108.178C145.793 105.903 147.106 104.928 148.757 104.928C149.589 104.928 150.07 105.071 150.525 105.357V106.033C149.979 105.773 149.537 105.63 148.705 105.63C147.483 105.63 146.638 106.423 146.638 108.048V108.334C146.638 110.011 147.353 110.856 148.809 110.856C149.693 110.856 150.252 110.583 150.603 110.388V111.051C150.187 111.311 149.641 111.558 148.718 111.558ZM153.558 111.558C152.401 111.558 151.582 110.934 151.582 109.79C151.582 108.672 152.271 108.087 153.506 107.944L155.326 107.736V106.982C155.326 105.929 154.858 105.63 153.714 105.63C153.077 105.63 152.57 105.747 152.128 105.851V105.266C152.687 105.045 153.298 104.928 154.013 104.928C155.391 104.928 156.145 105.487 156.145 106.787V111.454H155.482L155.404 110.882H155.352C155.027 111.233 154.455 111.558 153.558 111.558ZM153.766 110.908C154.429 110.908 155.027 110.674 155.326 110.401V108.347L153.727 108.529C152.843 108.62 152.427 108.984 152.427 109.764C152.427 110.505 152.947 110.908 153.766 110.908ZM158.041 111.454V102.146H158.86V111.454H158.041ZM2.496 127.558C1.339 127.558 0.52 126.934 0.52 125.79C0.52 124.672 1.209 124.087 2.444 123.944L4.264 123.736V122.982C4.264 121.929 3.796 121.63 2.652 121.63C2.015 121.63 1.508 121.747 1.066 121.851V121.266C1.625 121.045 2.236 120.928 2.951 120.928C4.329 120.928 5.083 121.487 5.083 122.787V127.454H4.42L4.342 126.882H4.29C3.965 127.233 3.393 127.558 2.496 127.558ZM2.704 126.908C3.367 126.908 3.965 126.674 4.264 126.401V124.347L2.665 124.529C1.781 124.62 1.365 124.984 1.365 125.764C1.365 126.505 1.885 126.908 2.704 126.908ZM9.46288 127.558C7.60388 127.558 6.53788 126.44 6.53788 124.347V124.178C6.53788 121.903 7.85088 120.928 9.50188 120.928C10.3339 120.928 10.8149 121.071 11.2699 121.357V122.033C10.7239 121.773 10.2819 121.63 9.44988 121.63C8.22788 121.63 7.38288 122.423 7.38288 124.048V124.334C7.38288 126.011 8.09788 126.856 9.55388 126.856C10.4379 126.856 10.9969 126.583 11.3479 126.388V127.051C10.9319 127.311 10.3859 127.558 9.46288 127.558ZM14.8205 127.519C13.8325 127.519 13.2215 127.103 13.2215 126.063V121.734H12.2855V121.045H13.2215V119.524H14.0405V121.045H15.7435V121.734H14.0405V125.946C14.0405 126.583 14.2485 126.856 15.0285 126.856C15.3015 126.856 15.6265 126.804 15.8605 126.726V127.272C15.6395 127.402 15.3405 127.519 14.8205 127.519ZM17.3012 127.454V121.045H18.1202V127.454H17.3012ZM17.2882 119.706V118.809H18.1332V119.706H17.2882ZM21.8238 127.454L19.4058 121.032H20.2898L22.2398 126.388H22.2658L24.2288 121.032H25.0478L22.6428 127.454H21.8238ZM26.3402 127.454V121.045H27.1592V127.454H26.3402ZM26.3272 119.706V118.809H27.1722V119.706H26.3272ZM31.0578 127.519C30.0698 127.519 29.4588 127.103 29.4588 126.063V121.734H28.5228V121.045H29.4588V119.524H30.2778V121.045H31.9808V121.734H30.2778V125.946C30.2778 126.583 30.4858 126.856 31.2658 126.856C31.5388 126.856 31.8638 126.804 32.0978 126.726V127.272C31.8768 127.402 31.5778 127.519 31.0578 127.519ZM34.0065 129.404C33.7205 129.404 33.4085 129.326 33.2265 129.235V128.624C33.3955 128.663 33.6425 128.715 33.8765 128.715C34.5135 128.715 34.8775 128.429 35.1245 127.753L35.3325 127.142L32.8625 121.032H33.7205L35.7355 126.076H35.7615L37.6335 121.032H38.4395L35.8915 127.844C35.5015 128.897 35.0335 129.404 34.0065 129.404ZM43.072 127.454V121.032H43.852V121.773H43.904C44.281 121.357 44.996 120.954 45.75 120.954C45.893 120.954 46.062 120.967 46.14 120.993V121.747C45.984 121.721 45.802 121.708 45.685 121.708C45.009 121.708 44.346 121.981 43.891 122.358V127.454H43.072ZM50.0649 127.558C48.0499 127.558 47.0359 126.362 47.0359 124.321V124.165C47.0359 121.929 48.3359 120.928 49.8309 120.928C51.5729 120.928 52.3789 121.968 52.3789 123.918V124.386H47.8809C47.9069 126.141 48.6869 126.856 50.1949 126.856C51.0529 126.856 51.6509 126.661 52.1839 126.388V127.012C51.7939 127.272 51.0789 127.558 50.0649 127.558ZM49.8049 121.591C48.8819 121.591 47.9979 122.15 47.8939 123.736H51.5209C51.5209 122.267 50.9619 121.591 49.8049 121.591ZM53.8758 127.454V121.045H54.6558V121.617H54.7078C55.3318 121.214 56.0728 120.928 56.7878 120.928C57.5158 120.928 58.0358 121.162 58.3088 121.643H58.3608C59.1278 121.162 59.8818 120.928 60.5968 120.928C61.7018 120.928 62.3648 121.422 62.3648 122.644V127.454H61.5588V122.826C61.5588 121.968 61.1688 121.63 60.2978 121.63C59.7518 121.63 59.1408 121.812 58.4908 122.176C58.5168 122.332 58.5298 122.475 58.5298 122.644V127.454H57.7108V122.826C57.7108 121.968 57.3598 121.63 56.4888 121.63C55.8778 121.63 55.2668 121.838 54.6948 122.176V127.454H53.8758ZM65.7694 127.558C64.6124 127.558 63.7934 126.934 63.7934 125.79C63.7934 124.672 64.4824 124.087 65.7174 123.944L67.5374 123.736V122.982C67.5374 121.929 67.0694 121.63 65.9254 121.63C65.2884 121.63 64.7814 121.747 64.3394 121.851V121.266C64.8984 121.045 65.5094 120.928 66.2244 120.928C67.6024 120.928 68.3564 121.487 68.3564 122.787V127.454H67.6934L67.6154 126.882H67.5634C67.2384 127.233 66.6664 127.558 65.7694 127.558ZM65.9774 126.908C66.6404 126.908 67.2384 126.674 67.5374 126.401V124.347L65.9384 124.529C65.0544 124.62 64.6384 124.984 64.6384 125.764C64.6384 126.505 65.1584 126.908 65.9774 126.908ZM70.2533 127.454V121.045H71.0723V127.454H70.2533ZM70.2403 119.706V118.809H71.0853V119.706H70.2403ZM72.9949 127.454V121.045H73.7749V121.617H73.8269C74.4639 121.201 75.3219 120.928 76.1279 120.928C77.3499 120.928 77.9739 121.422 77.9739 122.644V127.454H77.1549V122.826C77.1549 121.968 76.8169 121.63 75.7769 121.63C75.1139 121.63 74.3859 121.851 73.8139 122.176V127.454H72.9949ZM81.4367 127.545C80.5917 127.545 79.8897 127.363 79.3957 127.09V126.44C79.9287 126.661 80.4227 126.856 81.3457 126.856C82.4377 126.856 82.8537 126.427 82.8537 125.79C82.8537 125.114 82.5287 124.841 81.6577 124.607L81.0077 124.412C80.0457 124.165 79.4477 123.736 79.4477 122.67C79.4477 121.643 80.1497 120.928 81.5927 120.928C82.4247 120.928 82.9577 121.123 83.3087 121.305V121.968C82.9447 121.786 82.3077 121.617 81.6317 121.617C80.6957 121.617 80.2277 121.968 80.2277 122.605C80.2277 123.216 80.5267 123.476 81.2677 123.697L81.9567 123.879C83.1397 124.217 83.6727 124.607 83.6727 125.725C83.6727 126.856 82.8667 127.545 81.4367 127.545ZM90.119 127.558C88.962 127.558 88.143 126.934 88.143 125.79C88.143 124.672 88.832 124.087 90.067 123.944L91.887 123.736V122.982C91.887 121.929 91.419 121.63 90.275 121.63C89.638 121.63 89.131 121.747 88.689 121.851V121.266C89.248 121.045 89.859 120.928 90.574 120.928C91.952 120.928 92.706 121.487 92.706 122.787V127.454H92.043L91.965 126.882H91.913C91.588 127.233 91.016 127.558 90.119 127.558ZM90.327 126.908C90.99 126.908 91.588 126.674 91.887 126.401V124.347L90.288 124.529C89.404 124.62 88.988 124.984 88.988 125.764C88.988 126.505 89.508 126.908 90.327 126.908ZM100.501 127.558C98.642 127.558 97.576 126.44 97.576 124.347V124.178C97.576 121.903 98.889 120.928 100.54 120.928C101.372 120.928 101.853 121.071 102.308 121.357V122.033C101.762 121.773 101.32 121.63 100.488 121.63C99.266 121.63 98.421 122.423 98.421 124.048V124.334C98.421 126.011 99.136 126.856 100.592 126.856C101.476 126.856 102.035 126.583 102.386 126.388V127.051C101.97 127.311 101.424 127.558 100.501 127.558ZM106.407 127.558C104.392 127.558 103.378 126.362 103.378 124.321V124.165C103.378 121.929 104.678 120.928 106.173 120.928C107.915 120.928 108.721 121.968 108.721 123.918V124.386H104.223C104.249 126.141 105.029 126.856 106.537 126.856C107.395 126.856 107.993 126.661 108.526 126.388V127.012C108.136 127.272 107.421 127.558 106.407 127.558ZM106.147 121.591C105.224 121.591 104.34 122.15 104.236 123.736H107.863C107.863 122.267 107.304 121.591 106.147 121.591ZM110.218 127.454V121.045H110.998V121.617H111.05C111.687 121.201 112.545 120.928 113.351 120.928C114.573 120.928 115.197 121.422 115.197 122.644V127.454H114.378V122.826C114.378 121.968 114.04 121.63 113 121.63C112.337 121.63 111.609 121.851 111.037 122.176V127.454H110.218ZM119.036 127.519C118.048 127.519 117.437 127.103 117.437 126.063V121.734H116.501V121.045H117.437V119.524H118.256V121.045H119.959V121.734H118.256V125.946C118.256 126.583 118.464 126.856 119.244 126.856C119.517 126.856 119.842 126.804 120.076 126.726V127.272C119.855 127.402 119.556 127.519 119.036 127.519ZM121.491 127.454V121.032H122.271V121.773H122.323C122.7 121.357 123.415 120.954 124.169 120.954C124.312 120.954 124.481 120.967 124.559 120.993V121.747C124.403 121.721 124.221 121.708 124.104 121.708C123.428 121.708 122.765 121.981 122.31 122.358V127.454H121.491ZM127.253 127.558C126.096 127.558 125.277 126.934 125.277 125.79C125.277 124.672 125.966 124.087 127.201 123.944L129.021 123.736V122.982C129.021 121.929 128.553 121.63 127.409 121.63C126.772 121.63 126.265 121.747 125.823 121.851V121.266C126.382 121.045 126.993 120.928 127.708 120.928C129.086 120.928 129.84 121.487 129.84 122.787V127.454H129.177L129.099 126.882H129.047C128.722 127.233 128.15 127.558 127.253 127.558ZM127.461 126.908C128.124 126.908 128.722 126.674 129.021 126.401V124.347L127.422 124.529C126.538 124.62 126.122 124.984 126.122 125.764C126.122 126.505 126.642 126.908 127.461 126.908ZM131.737 127.454V118.146H132.556V127.454H131.737ZM137.919 127.454V121.045H138.738V127.454H137.919ZM137.906 119.706V118.809H138.751V119.706H137.906ZM140.661 127.454V121.045H141.441V121.617H141.493C142.13 121.201 142.988 120.928 143.794 120.928C145.016 120.928 145.64 121.422 145.64 122.644V127.454H144.821V122.826C144.821 121.968 144.483 121.63 143.443 121.63C142.78 121.63 142.052 121.851 141.48 122.176V127.454H140.661ZM151.716 129.391V126.999H151.677C151.3 127.272 150.702 127.558 149.766 127.558C148.453 127.558 147.127 126.765 147.127 124.399V124.23C147.127 121.747 148.505 120.928 150.195 120.928C151.248 120.928 152.015 121.136 152.548 121.409V129.391H151.716ZM150 126.856C150.806 126.856 151.365 126.596 151.716 126.284V121.877C151.365 121.721 150.806 121.591 150.156 121.591C148.869 121.591 147.972 122.306 147.972 124.139V124.36C147.972 126.245 148.778 126.856 150 126.856ZM156.334 127.558C155.099 127.558 154.384 126.96 154.384 125.725V121.032H155.203V125.621C155.203 126.505 155.58 126.856 156.568 126.856C157.257 126.856 157.92 126.622 158.492 126.284V121.032H159.298V127.454H158.596L158.518 126.856H158.479C157.842 127.272 157.101 127.558 156.334 127.558ZM161.241 127.454V121.045H162.06V127.454H161.241ZM161.228 119.706V118.809H162.073V119.706H161.228ZM163.982 127.454V121.032H164.762V121.773H164.814C165.191 121.357 165.906 120.954 166.66 120.954C166.803 120.954 166.972 120.967 167.05 120.993V121.747C166.894 121.721 166.712 121.708 166.595 121.708C165.919 121.708 165.256 121.981 164.801 122.358V127.454H163.982ZM168.856 129.404C168.57 129.404 168.258 129.326 168.076 129.235V128.624C168.245 128.663 168.492 128.715 168.726 128.715C169.363 128.715 169.727 128.429 169.974 127.753L170.182 127.142L167.712 121.032H168.57L170.585 126.076H170.611L172.483 121.032H173.289L170.741 127.844C170.351 128.897 169.883 129.404 168.856 129.404ZM174.117 127.714V126.622H175.196V127.714H174.117Z" fill="black"/>
</svg>
