<svg width="1073" height="103" viewBox="0 0 1073 103" fill="none" xmlns="http://www.w3.org/2000/svg">
<path d="M1.6 21V7H7.9C8.86 7 9.71333 7.20667 10.46 7.62C11.2067 8.03333 11.7933 8.6 12.22 9.32C12.6467 10.04 12.86 10.8667 12.86 11.8C12.86 12.7733 12.6467 13.64 12.22 14.4C11.7933 15.16 11.2067 15.76 10.46 16.2C9.71333 16.6267 8.86 16.84 7.9 16.84H5.92V21H1.6ZM5.84 13.16H7.1C7.35333 13.16 7.58 13.1133 7.78 13.02C7.98 12.9133 8.13333 12.7667 8.24 12.58C8.36 12.3933 8.42 12.16 8.42 11.88C8.42 11.6 8.36 11.3733 8.24 11.2C8.13333 11.0267 7.98 10.9 7.78 10.82C7.58 10.7267 7.35333 10.68 7.1 10.68H5.84V13.16ZM15.0523 21V10.3H18.8123L19.0523 13.86L18.1523 13.3C18.3257 12.6867 18.599 12.14 18.9723 11.66C19.3457 11.1667 19.7923 10.78 20.3123 10.5C20.8457 10.22 21.4123 10.08 22.0123 10.08C22.2523 10.08 22.479 10.1 22.6923 10.14C22.9057 10.1667 23.1123 10.2067 23.3123 10.26L22.1923 14.76C22.059 14.6667 21.8457 14.58 21.5523 14.5C21.2723 14.42 20.9657 14.38 20.6323 14.38C20.3923 14.38 20.1723 14.42 19.9723 14.5C19.7857 14.5667 19.6257 14.6733 19.4923 14.82C19.3723 14.9667 19.279 15.14 19.2123 15.34C19.1457 15.54 19.1123 15.7733 19.1123 16.04V21H15.0523ZM29.6464 21.2C28.4064 21.2 27.3397 20.96 26.4464 20.48C25.5531 20 24.8664 19.3467 24.3864 18.52C23.9064 17.68 23.6664 16.72 23.6664 15.64C23.6664 14.84 23.7997 14.1 24.0664 13.42C24.3331 12.74 24.7064 12.1533 25.1864 11.66C25.6797 11.1533 26.2531 10.7667 26.9064 10.5C27.5731 10.22 28.2997 10.08 29.0864 10.08C29.8731 10.08 30.5864 10.22 31.2264 10.5C31.8797 10.7667 32.4397 11.1533 32.9064 11.66C33.3731 12.1533 33.7264 12.74 33.9664 13.42C34.2197 14.1 34.3331 14.84 34.3064 15.64L34.2864 16.48H25.9064L25.4464 14.58H31.0664L30.6864 14.98V14.62C30.6864 14.3667 30.6197 14.1467 30.4864 13.96C30.3664 13.76 30.1931 13.6067 29.9664 13.5C29.7397 13.3933 29.4731 13.34 29.1664 13.34C28.7797 13.34 28.4531 13.42 28.1864 13.58C27.9197 13.74 27.7131 13.9667 27.5664 14.26C27.4331 14.5533 27.3664 14.9067 27.3664 15.32C27.3664 15.8 27.4664 16.22 27.6664 16.58C27.8797 16.94 28.1864 17.22 28.5864 17.42C28.9997 17.62 29.5064 17.72 30.1064 17.72C30.5064 17.72 30.8464 17.6733 31.1264 17.58C31.4197 17.4733 31.7264 17.3067 32.0464 17.08L33.9064 19.7C33.4131 20.0867 32.9264 20.3867 32.4464 20.6C31.9797 20.8133 31.5131 20.9667 31.0464 21.06C30.5931 21.1533 30.1264 21.2 29.6464 21.2ZM39.8452 21.2C38.6852 21.2 37.6718 21.0267 36.8052 20.68C35.9518 20.32 35.2852 19.8733 34.8052 19.34L37.1652 17.32C37.5918 17.6933 38.0785 17.9733 38.6252 18.16C39.1852 18.3333 39.6518 18.42 40.0252 18.42C40.1585 18.42 40.2718 18.4133 40.3652 18.4C40.4718 18.3733 40.5518 18.34 40.6052 18.3C40.6718 18.2467 40.7185 18.1933 40.7452 18.14C40.7852 18.0867 40.8052 18.02 40.8052 17.94C40.8052 17.74 40.6985 17.5933 40.4852 17.5C40.3652 17.4467 40.1652 17.38 39.8852 17.3C39.6185 17.22 39.2652 17.1267 38.8252 17.02C38.3052 16.8867 37.8252 16.72 37.3852 16.52C36.9585 16.32 36.5918 16.0867 36.2852 15.82C35.9652 15.5267 35.7118 15.1933 35.5252 14.82C35.3518 14.4467 35.2652 14.0267 35.2652 13.56C35.2652 13.0133 35.3918 12.5267 35.6452 12.1C35.8985 11.6733 36.2452 11.3133 36.6852 11.02C37.1252 10.7133 37.6185 10.48 38.1652 10.32C38.7118 10.16 39.2718 10.08 39.8452 10.08C40.4985 10.08 41.1052 10.1467 41.6652 10.28C42.2385 10.4 42.7718 10.58 43.2652 10.82C43.7718 11.0467 44.2318 11.32 44.6452 11.64L42.5852 13.94C42.3585 13.7533 42.0918 13.5733 41.7852 13.4C41.4918 13.2267 41.1785 13.0867 40.8452 12.98C40.5252 12.86 40.2252 12.8 39.9452 12.8C39.7985 12.8 39.6718 12.8133 39.5652 12.84C39.4718 12.8533 39.3918 12.8867 39.3252 12.94C39.2585 12.98 39.2052 13.0333 39.1652 13.1C39.1385 13.1533 39.1252 13.22 39.1252 13.3C39.1252 13.4067 39.1585 13.5067 39.2252 13.6C39.2918 13.6933 39.3985 13.7733 39.5452 13.84C39.6652 13.8933 39.8652 13.9667 40.1452 14.06C40.4385 14.1533 40.8652 14.28 41.4252 14.44C42.0252 14.6133 42.5518 14.8133 43.0052 15.04C43.4718 15.2667 43.8452 15.5333 44.1252 15.84C44.3118 16.0533 44.4585 16.2933 44.5652 16.56C44.6718 16.8267 44.7252 17.1133 44.7252 17.42C44.7252 18.1533 44.5118 18.8067 44.0852 19.38C43.6718 19.94 43.0985 20.3867 42.3652 20.72C41.6318 21.04 40.7918 21.2 39.8452 21.2ZM51.5019 21.2C50.2619 21.2 49.1952 20.96 48.3019 20.48C47.4085 20 46.7219 19.3467 46.2419 18.52C45.7619 17.68 45.5219 16.72 45.5219 15.64C45.5219 14.84 45.6552 14.1 45.9219 13.42C46.1885 12.74 46.5619 12.1533 47.0419 11.66C47.5352 11.1533 48.1085 10.7667 48.7619 10.5C49.4285 10.22 50.1552 10.08 50.9419 10.08C51.7285 10.08 52.4419 10.22 53.0819 10.5C53.7352 10.7667 54.2952 11.1533 54.7619 11.66C55.2285 12.1533 55.5819 12.74 55.8219 13.42C56.0752 14.1 56.1885 14.84 56.1619 15.64L56.1419 16.48H47.7619L47.3019 14.58H52.9219L52.5419 14.98V14.62C52.5419 14.3667 52.4752 14.1467 52.3419 13.96C52.2219 13.76 52.0485 13.6067 51.8219 13.5C51.5952 13.3933 51.3285 13.34 51.0219 13.34C50.6352 13.34 50.3085 13.42 50.0419 13.58C49.7752 13.74 49.5685 13.9667 49.4219 14.26C49.2885 14.5533 49.2219 14.9067 49.2219 15.32C49.2219 15.8 49.3219 16.22 49.5219 16.58C49.7352 16.94 50.0419 17.22 50.4419 17.42C50.8552 17.62 51.3619 17.72 51.9619 17.72C52.3619 17.72 52.7019 17.6733 52.9819 17.58C53.2752 17.4733 53.5819 17.3067 53.9019 17.08L55.7619 19.7C55.2685 20.0867 54.7819 20.3867 54.3019 20.6C53.8352 20.8133 53.3685 20.9667 52.9019 21.06C52.4485 21.1533 51.9819 21.2 51.5019 21.2ZM58.0406 21V10.3H61.8006L62.0006 12.46L61.1406 12.7C61.2873 12.1933 61.5473 11.7467 61.9206 11.36C62.3073 10.96 62.7673 10.6467 63.3006 10.42C63.834 10.1933 64.4006 10.08 65.0006 10.08C65.8006 10.08 66.4806 10.2467 67.0406 10.58C67.6006 10.9133 68.0206 11.4067 68.3006 12.06C68.594 12.7 68.7406 13.48 68.7406 14.4V21H64.6806V14.74C64.6806 14.4467 64.634 14.2 64.5406 14C64.4473 13.8 64.3073 13.6467 64.1206 13.54C63.934 13.4333 63.714 13.38 63.4606 13.38C63.2606 13.38 63.074 13.4133 62.9006 13.48C62.7406 13.5333 62.6006 13.62 62.4806 13.74C62.3606 13.86 62.2673 13.9933 62.2006 14.14C62.134 14.2867 62.1006 14.4533 62.1006 14.64V21H60.0806C59.574 21 59.1473 21 58.8006 21C58.4673 21 58.214 21 58.0406 21ZM71.9014 21V7.6H75.9614V21H71.9014ZM70.2414 13.7V10.3H77.7214V13.7H70.2414ZM84.6073 21.2C83.3673 21.2 82.3007 20.96 81.4073 20.48C80.514 20 79.8273 19.3467 79.3473 18.52C78.8673 17.68 78.6273 16.72 78.6273 15.64C78.6273 14.84 78.7607 14.1 79.0273 13.42C79.294 12.74 79.6673 12.1533 80.1473 11.66C80.6407 11.1533 81.214 10.7667 81.8673 10.5C82.534 10.22 83.2607 10.08 84.0473 10.08C84.834 10.08 85.5473 10.22 86.1873 10.5C86.8407 10.7667 87.4007 11.1533 87.8673 11.66C88.334 12.1533 88.6873 12.74 88.9273 13.42C89.1807 14.1 89.294 14.84 89.2673 15.64L89.2473 16.48H80.8673L80.4073 14.58H86.0273L85.6473 14.98V14.62C85.6473 14.3667 85.5807 14.1467 85.4473 13.96C85.3273 13.76 85.154 13.6067 84.9273 13.5C84.7007 13.3933 84.434 13.34 84.1273 13.34C83.7407 13.34 83.414 13.42 83.1473 13.58C82.8807 13.74 82.674 13.9667 82.5273 14.26C82.394 14.5533 82.3273 14.9067 82.3273 15.32C82.3273 15.8 82.4273 16.22 82.6273 16.58C82.8407 16.94 83.1473 17.22 83.5473 17.42C83.9607 17.62 84.4673 17.72 85.0673 17.72C85.4673 17.72 85.8073 17.6733 86.0873 17.58C86.3807 17.4733 86.6873 17.3067 87.0073 17.08L88.8673 19.7C88.374 20.0867 87.8873 20.3867 87.4073 20.6C86.9407 20.8133 86.474 20.9667 86.0073 21.06C85.554 21.1533 85.0873 21.2 84.6073 21.2ZM94.9061 21.22C94.0261 21.22 93.2394 20.9867 92.5461 20.52C91.8661 20.04 91.3261 19.3867 90.9261 18.56C90.5394 17.72 90.3461 16.7533 90.3461 15.66C90.3461 14.58 90.5461 13.62 90.9461 12.78C91.3461 11.94 91.8928 11.28 92.5861 10.8C93.2928 10.32 94.0994 10.08 95.0061 10.08C95.4594 10.08 95.8928 10.1467 96.3061 10.28C96.7194 10.4 97.0928 10.58 97.4261 10.82C97.7594 11.0467 98.0394 11.32 98.2661 11.64C98.5061 11.9467 98.6661 12.28 98.7461 12.64L97.8461 12.92V6.2H101.926V21H98.2661L97.9461 18.64L98.7661 18.82C98.6994 19.1667 98.5528 19.4867 98.3261 19.78C98.0994 20.0733 97.8128 20.3267 97.4661 20.54C97.1328 20.7533 96.7461 20.92 96.3061 21.04C95.8661 21.16 95.3994 21.22 94.9061 21.22ZM96.1261 17.92C96.5128 17.92 96.8394 17.8333 97.1061 17.66C97.3861 17.4733 97.5928 17.2133 97.7261 16.88C97.8728 16.5467 97.9461 16.14 97.9461 15.66C97.9461 15.18 97.8728 14.7733 97.7261 14.44C97.5928 14.0933 97.3861 13.8333 97.1061 13.66C96.8394 13.4867 96.5128 13.4 96.1261 13.4C95.7394 13.4 95.4128 13.4867 95.1461 13.66C94.8794 13.8333 94.6728 14.0933 94.5261 14.44C94.3928 14.7733 94.3261 15.18 94.3261 15.66C94.3261 16.14 94.3928 16.5467 94.5261 16.88C94.6728 17.2133 94.8794 17.4733 95.1461 17.66C95.4128 17.8333 95.7394 17.92 96.1261 17.92ZM111.517 21V10.3H115.277L115.437 11.98L114.977 11.82C115.177 11.4733 115.404 11.1933 115.657 10.98C115.924 10.7533 116.204 10.5733 116.497 10.44C116.791 10.3067 117.091 10.2133 117.397 10.16C117.704 10.1067 117.997 10.08 118.277 10.08C118.744 10.08 119.184 10.1467 119.597 10.28C120.011 10.4 120.384 10.62 120.717 10.94C121.051 11.26 121.331 11.72 121.557 12.32L120.937 12.3L121.097 12.02C121.297 11.6733 121.537 11.38 121.817 11.14C122.097 10.9 122.404 10.7 122.737 10.54C123.071 10.38 123.411 10.2667 123.757 10.2C124.104 10.12 124.437 10.08 124.757 10.08C125.637 10.08 126.377 10.2467 126.977 10.58C127.577 10.9133 128.024 11.4067 128.317 12.06C128.624 12.7 128.777 13.48 128.777 14.4V21H124.717V14.74C124.717 14.4467 124.671 14.2 124.577 14C124.484 13.8 124.344 13.6467 124.157 13.54C123.984 13.4333 123.771 13.38 123.517 13.38C123.317 13.38 123.131 13.4133 122.957 13.48C122.797 13.5333 122.657 13.62 122.537 13.74C122.431 13.86 122.344 13.9933 122.277 14.14C122.211 14.2867 122.177 14.4533 122.177 14.64V21H118.117V14.74C118.117 14.4467 118.071 14.2 117.977 14C117.884 13.8 117.744 13.6467 117.557 13.54C117.384 13.4333 117.171 13.38 116.917 13.38C116.717 13.38 116.531 13.4133 116.357 13.48C116.197 13.5333 116.057 13.62 115.937 13.74C115.831 13.86 115.744 13.9933 115.677 14.14C115.611 14.2867 115.577 14.4533 115.577 14.64V21H111.517ZM132.303 25.6L134.963 19.32L135.003 20.96L129.983 10.3H134.503L135.983 13.86C136.143 14.2333 136.276 14.5867 136.383 14.92C136.503 15.2533 136.589 15.5667 136.643 15.86L136.243 16.22C136.296 16.0733 136.376 15.8467 136.483 15.54C136.589 15.22 136.709 14.8533 136.843 14.44L138.243 10.3H142.763L138.103 21L136.223 25.6H132.303ZM151.263 25.4V10.3H155.023L155.243 12.66L154.423 12.48C154.517 12.0133 154.743 11.6 155.103 11.24C155.463 10.88 155.917 10.6 156.463 10.4C157.023 10.1867 157.63 10.08 158.283 10.08C159.163 10.08 159.943 10.32 160.623 10.8C161.317 11.2667 161.857 11.92 162.243 12.76C162.643 13.5867 162.843 14.5467 162.843 15.64C162.843 16.72 162.643 17.68 162.243 18.52C161.843 19.3467 161.29 20 160.583 20.48C159.89 20.9467 159.09 21.18 158.183 21.18C157.583 21.18 157.017 21.0733 156.483 20.86C155.963 20.6467 155.523 20.3533 155.163 19.98C154.803 19.5933 154.563 19.1533 154.443 18.66L155.343 18.38V25.4H151.263ZM157.063 17.88C157.45 17.88 157.777 17.7933 158.043 17.62C158.31 17.4467 158.51 17.1933 158.643 16.86C158.79 16.5267 158.863 16.12 158.863 15.64C158.863 15.16 158.79 14.7533 158.643 14.42C158.51 14.0733 158.31 13.8133 158.043 13.64C157.777 13.4667 157.45 13.38 157.063 13.38C156.677 13.38 156.343 13.4667 156.063 13.64C155.797 13.8133 155.59 14.0733 155.443 14.42C155.31 14.7533 155.243 15.16 155.243 15.64C155.243 16.12 155.31 16.5267 155.443 16.86C155.59 17.1933 155.797 17.4467 156.063 17.62C156.343 17.7933 156.677 17.88 157.063 17.88ZM168.658 21.18C167.764 21.18 166.971 20.9467 166.278 20.48C165.584 20 165.038 19.3467 164.638 18.52C164.238 17.68 164.038 16.72 164.038 15.64C164.038 14.5467 164.231 13.5867 164.618 12.76C165.018 11.92 165.564 11.2667 166.258 10.8C166.964 10.32 167.778 10.08 168.698 10.08C169.178 10.08 169.618 10.1467 170.018 10.28C170.418 10.4133 170.771 10.6 171.078 10.84C171.384 11.08 171.651 11.36 171.878 11.68C172.104 11.9867 172.298 12.32 172.458 12.68L171.638 12.66V10.3H175.618V21H171.538V18.38L172.438 18.46C172.304 18.8467 172.118 19.2067 171.878 19.54C171.651 19.8733 171.378 20.16 171.058 20.4C170.738 20.64 170.378 20.8333 169.978 20.98C169.578 21.1133 169.138 21.18 168.658 21.18ZM169.818 17.88C170.204 17.88 170.531 17.7933 170.798 17.62C171.078 17.4467 171.284 17.1933 171.418 16.86C171.564 16.5267 171.638 16.12 171.638 15.64C171.638 15.16 171.564 14.7533 171.418 14.42C171.284 14.0733 171.078 13.8133 170.798 13.64C170.531 13.4667 170.204 13.38 169.818 13.38C169.431 13.38 169.104 13.4667 168.838 13.64C168.571 13.8133 168.364 14.0733 168.218 14.42C168.084 14.7533 168.018 15.16 168.018 15.64C168.018 16.12 168.084 16.5267 168.218 16.86C168.364 17.1933 168.571 17.4467 168.838 17.62C169.104 17.7933 169.431 17.88 169.818 17.88ZM178.412 25.4V10.3H182.172L182.392 12.66L181.572 12.48C181.665 12.0133 181.892 11.6 182.252 11.24C182.612 10.88 183.065 10.6 183.612 10.4C184.172 10.1867 184.778 10.08 185.432 10.08C186.312 10.08 187.092 10.32 187.772 10.8C188.465 11.2667 189.005 11.92 189.392 12.76C189.792 13.5867 189.992 14.5467 189.992 15.64C189.992 16.72 189.792 17.68 189.392 18.52C188.992 19.3467 188.438 20 187.732 20.48C187.038 20.9467 186.238 21.18 185.332 21.18C184.732 21.18 184.165 21.0733 183.632 20.86C183.112 20.6467 182.672 20.3533 182.312 19.98C181.952 19.5933 181.712 19.1533 181.592 18.66L182.492 18.38V25.4H178.412ZM184.212 17.88C184.598 17.88 184.925 17.7933 185.192 17.62C185.458 17.4467 185.658 17.1933 185.792 16.86C185.938 16.5267 186.012 16.12 186.012 15.64C186.012 15.16 185.938 14.7533 185.792 14.42C185.658 14.0733 185.458 13.8133 185.192 13.64C184.925 13.4667 184.598 13.38 184.212 13.38C183.825 13.38 183.492 13.4667 183.212 13.64C182.945 13.8133 182.738 14.0733 182.592 14.42C182.458 14.7533 182.392 15.16 182.392 15.64C182.392 16.12 182.458 16.5267 182.592 16.86C182.738 17.1933 182.945 17.4467 183.212 17.62C183.492 17.7933 183.825 17.88 184.212 17.88ZM197.166 21.2C195.926 21.2 194.859 20.96 193.966 20.48C193.073 20 192.386 19.3467 191.906 18.52C191.426 17.68 191.186 16.72 191.186 15.64C191.186 14.84 191.319 14.1 191.586 13.42C191.853 12.74 192.226 12.1533 192.706 11.66C193.199 11.1533 193.773 10.7667 194.426 10.5C195.093 10.22 195.819 10.08 196.606 10.08C197.393 10.08 198.106 10.22 198.746 10.5C199.399 10.7667 199.959 11.1533 200.426 11.66C200.893 12.1533 201.246 12.74 201.486 13.42C201.739 14.1 201.853 14.84 201.826 15.64L201.806 16.48H193.426L192.966 14.58H198.586L198.206 14.98V14.62C198.206 14.3667 198.139 14.1467 198.006 13.96C197.886 13.76 197.713 13.6067 197.486 13.5C197.259 13.3933 196.993 13.34 196.686 13.34C196.299 13.34 195.973 13.42 195.706 13.58C195.439 13.74 195.233 13.9667 195.086 14.26C194.953 14.5533 194.886 14.9067 194.886 15.32C194.886 15.8 194.986 16.22 195.186 16.58C195.399 16.94 195.706 17.22 196.106 17.42C196.519 17.62 197.026 17.72 197.626 17.72C198.026 17.72 198.366 17.6733 198.646 17.58C198.939 17.4733 199.246 17.3067 199.566 17.08L201.426 19.7C200.933 20.0867 200.446 20.3867 199.966 20.6C199.499 20.8133 199.033 20.9667 198.566 21.06C198.113 21.1533 197.646 21.2 197.166 21.2ZM203.705 21V10.3H207.465L207.705 13.86L206.805 13.3C206.978 12.6867 207.251 12.14 207.625 11.66C207.998 11.1667 208.445 10.78 208.965 10.5C209.498 10.22 210.065 10.08 210.665 10.08C210.905 10.08 211.131 10.1 211.345 10.14C211.558 10.1667 211.765 10.2067 211.965 10.26L210.845 14.76C210.711 14.6667 210.498 14.58 210.205 14.5C209.925 14.42 209.618 14.38 209.285 14.38C209.045 14.38 208.825 14.42 208.625 14.5C208.438 14.5667 208.278 14.6733 208.145 14.82C208.025 14.9667 207.931 15.14 207.865 15.34C207.798 15.54 207.765 15.7733 207.765 16.04V21H203.705ZM225.04 21.2C223.467 21.2 222.26 20.8467 221.42 20.14C220.593 19.42 220.18 18.3667 220.18 16.98C220.18 16.62 220.227 16.1467 220.32 15.56L221.82 7H225.04L223.54 15.52C223.473 15.9467 223.44 16.2933 223.44 16.56C223.44 17.9467 224.073 18.64 225.34 18.64C226.1 18.64 226.727 18.38 227.22 17.86C227.713 17.3267 228.047 16.5467 228.22 15.52L229.72 7H232.94L231.44 15.56C231.12 17.4133 230.42 18.82 229.34 19.78C228.273 20.7267 226.84 21.2 225.04 21.2ZM233.721 13.68C233.935 12.4 234.061 11.5067 234.101 11H236.761C236.721 11.7067 236.661 12.2867 236.581 12.74H236.621C236.981 12.1133 237.461 11.6333 238.061 11.3C238.661 10.9667 239.348 10.8 240.121 10.8C241.081 10.8 241.808 11.0733 242.301 11.62C242.795 12.1533 243.041 12.9333 243.041 13.96C243.041 14.44 242.995 14.92 242.901 15.4L241.921 21H239.081L240.081 15.38C240.135 14.98 240.161 14.7133 240.161 14.58C240.161 13.5933 239.695 13.1 238.761 13.1C238.108 13.1 237.555 13.32 237.101 13.76C236.648 14.2 236.355 14.7933 236.221 15.54L235.261 21H232.421L233.721 13.68ZM247.729 21.2C246.635 21.2 245.769 20.8533 245.129 20.16C244.502 19.4533 244.189 18.4933 244.189 17.28C244.189 16.0267 244.409 14.9133 244.849 13.94C245.289 12.9533 245.902 12.1867 246.689 11.64C247.489 11.08 248.389 10.8 249.389 10.8C250.589 10.8 251.442 11.1733 251.949 11.92H251.989L253.009 6.16H255.849L253.709 18.3L253.529 19.34C253.382 20.3133 253.302 20.8667 253.289 21H250.609L250.809 19.76H250.769C250.369 20.2133 249.895 20.5667 249.349 20.82C248.815 21.0733 248.275 21.2 247.729 21.2ZM248.569 19.04C249.222 19.04 249.775 18.86 250.229 18.5C250.695 18.1267 250.982 17.6333 251.089 17.02L251.469 14.88C251.495 14.72 251.509 14.6133 251.509 14.56C251.509 14.0933 251.329 13.7 250.969 13.38C250.622 13.06 250.182 12.9 249.649 12.9C249.142 12.9 248.689 13.08 248.289 13.44C247.902 13.8 247.595 14.3 247.369 14.94C247.142 15.5667 247.029 16.28 247.029 17.08C247.029 17.72 247.155 18.2067 247.409 18.54C247.675 18.8733 248.062 19.04 248.569 19.04ZM261.498 10.8C262.791 10.8 263.798 11.16 264.518 11.88C265.251 12.6 265.618 13.5733 265.618 14.8C265.618 15.24 265.571 15.6867 265.478 16.14L265.298 17.04H258.418C258.498 18.2267 259.158 18.82 260.398 18.82C260.971 18.82 261.485 18.7267 261.938 18.54C262.405 18.3533 262.891 18.0333 263.398 17.58L264.678 19.02C264.171 19.6867 263.485 20.22 262.618 20.62C261.765 21.0067 260.865 21.2 259.918 21.2C258.571 21.2 257.505 20.84 256.718 20.12C255.945 19.4 255.558 18.4133 255.558 17.16C255.558 15.9333 255.805 14.84 256.298 13.88C256.805 12.9067 257.511 12.1533 258.418 11.62C259.325 11.0733 260.351 10.8 261.498 10.8ZM262.958 15.02C262.958 13.7533 262.365 13.12 261.178 13.12C260.605 13.12 260.091 13.3 259.638 13.66C259.198 14.0067 258.871 14.5 258.658 15.14H262.958V15.02ZM267.534 13.44C267.734 12.28 267.854 11.4667 267.894 11H270.594C270.554 11.6533 270.481 12.24 270.374 12.76L270.334 12.96H270.414C270.774 12.3067 271.321 11.7867 272.054 11.4C272.801 11 273.594 10.8 274.434 10.8C274.621 10.8 274.821 10.82 275.034 10.86L274.654 13.08C274.628 13.0667 274.494 13.06 274.254 13.06C273.574 13.06 272.908 13.2333 272.254 13.58C271.614 13.9267 271.068 14.3867 270.614 14.96C270.174 15.5333 269.894 16.1533 269.774 16.82L269.034 21H266.194L267.534 13.44ZM277.916 21.2C277.009 21.2 276.216 21.02 275.536 20.66C274.856 20.2867 274.429 19.8067 274.256 19.22L276.236 18.02C276.409 18.3533 276.656 18.62 276.976 18.82C277.309 19.0067 277.663 19.1 278.036 19.1C278.543 19.1 278.936 19.0133 279.216 18.84C279.509 18.6667 279.656 18.4267 279.656 18.12C279.656 17.8933 279.543 17.6867 279.316 17.5C279.103 17.3 278.756 17.1 278.276 16.9C277.303 16.4867 276.583 16.04 276.116 15.56C275.663 15.08 275.436 14.54 275.436 13.94C275.436 12.9667 275.803 12.2 276.536 11.64C277.283 11.08 278.296 10.8 279.576 10.8C280.403 10.8 281.123 10.9467 281.736 11.24C282.363 11.5333 282.823 11.9467 283.116 12.48L281.276 13.7C280.903 13.1667 280.329 12.9 279.556 12.9C279.156 12.9 278.843 12.9733 278.616 13.12C278.403 13.2667 278.296 13.4733 278.296 13.74C278.296 13.9133 278.396 14.0667 278.596 14.2C278.809 14.3333 279.263 14.5467 279.956 14.84C280.849 15.2133 281.503 15.62 281.916 16.06C282.343 16.5 282.556 16.9933 282.556 17.54C282.556 18.26 282.363 18.9 281.976 19.46C281.589 20.0067 281.043 20.4333 280.336 20.74C279.629 21.0467 278.823 21.2 277.916 21.2ZM287.98 21.2C287.034 21.2 286.3 20.9867 285.78 20.56C285.26 20.12 285 19.5067 285 18.72C285 18.4933 285.02 18.2533 285.06 18L285.92 13.1H284.1L284.48 11H286.3L286.74 8.46L289.64 7.66H289.72L289.14 11H292.06L291.68 13.1H288.76L287.98 17.56C287.954 17.7733 287.94 17.92 287.94 18C287.94 18.3733 288.054 18.6533 288.28 18.84C288.507 19.0133 288.86 19.1 289.34 19.1C289.874 19.1 290.38 19.0133 290.86 18.84L290.64 20.76C289.934 21.0533 289.047 21.2 287.98 21.2ZM295.912 21.2C294.819 21.2 293.952 20.8533 293.312 20.16C292.686 19.4533 292.372 18.4933 292.372 17.28C292.372 16.0267 292.586 14.9133 293.012 13.94C293.452 12.9533 294.059 12.1867 294.832 11.64C295.606 11.08 296.492 10.8 297.492 10.8C298.186 10.8 298.786 10.92 299.292 11.16C299.799 11.4 300.159 11.7467 300.372 12.2H300.412L300.792 11H303.172L301.892 18.3C301.626 19.78 301.486 20.68 301.472 21H298.792C298.806 20.72 298.872 20.3067 298.992 19.76H298.952C298.552 20.2133 298.079 20.5667 297.532 20.82C296.999 21.0733 296.459 21.2 295.912 21.2ZM296.752 19.04C297.406 19.04 297.959 18.86 298.412 18.5C298.879 18.1267 299.166 17.6333 299.272 17.02L299.652 14.88C299.679 14.72 299.692 14.6133 299.692 14.56C299.692 14.0933 299.512 13.7 299.152 13.38C298.806 13.06 298.366 12.9 297.832 12.9C297.326 12.9 296.872 13.08 296.472 13.44C296.086 13.8 295.779 14.3 295.552 14.94C295.326 15.5667 295.212 16.28 295.212 17.08C295.212 17.72 295.339 18.2067 295.592 18.54C295.859 18.8733 296.246 19.04 296.752 19.04ZM304.542 13.68C304.755 12.4 304.882 11.5067 304.922 11H307.582C307.542 11.7067 307.482 12.2867 307.402 12.74H307.442C307.802 12.1133 308.282 11.6333 308.882 11.3C309.482 10.9667 310.168 10.8 310.942 10.8C311.902 10.8 312.628 11.0733 313.122 11.62C313.615 12.1533 313.862 12.9333 313.862 13.96C313.862 14.44 313.815 14.92 313.722 15.4L312.742 21H309.902L310.902 15.38C310.955 14.98 310.982 14.7133 310.982 14.58C310.982 13.5933 310.515 13.1 309.582 13.1C308.928 13.1 308.375 13.32 307.922 13.76C307.468 14.2 307.175 14.7933 307.042 15.54L306.082 21H303.242L304.542 13.68ZM318.549 21.2C317.456 21.2 316.589 20.8533 315.949 20.16C315.322 19.4533 315.009 18.4933 315.009 17.28C315.009 16.0267 315.229 14.9133 315.669 13.94C316.109 12.9533 316.722 12.1867 317.509 11.64C318.309 11.08 319.209 10.8 320.209 10.8C321.409 10.8 322.262 11.1733 322.769 11.92H322.809L323.829 6.16H326.669L324.529 18.3L324.349 19.34C324.202 20.3133 324.122 20.8667 324.109 21H321.429L321.629 19.76H321.589C321.189 20.2133 320.716 20.5667 320.169 20.82C319.636 21.0733 319.096 21.2 318.549 21.2ZM319.389 19.04C320.042 19.04 320.596 18.86 321.049 18.5C321.516 18.1267 321.802 17.6333 321.909 17.02L322.289 14.88C322.316 14.72 322.329 14.6133 322.329 14.56C322.329 14.0933 322.149 13.7 321.789 13.38C321.442 13.06 321.002 12.9 320.469 12.9C319.962 12.9 319.509 13.08 319.109 13.44C318.722 13.8 318.416 14.3 318.189 14.94C317.962 15.5667 317.849 16.28 317.849 17.08C317.849 17.72 317.976 18.2067 318.229 18.54C318.496 18.8733 318.882 19.04 319.389 19.04ZM329.778 10.04C329.325 10.04 328.952 9.92 328.658 9.68C328.378 9.42667 328.238 9.11333 328.238 8.74C328.238 8.16667 328.432 7.7 328.818 7.34C329.218 6.98 329.725 6.8 330.338 6.8C330.792 6.8 331.158 6.92 331.438 7.16C331.718 7.4 331.858 7.71333 331.858 8.1C331.858 8.67333 331.665 9.14 331.278 9.5C330.892 9.86 330.392 10.04 329.778 10.04ZM328.178 11H331.018L329.258 21H326.418L328.178 11ZM332.823 13.68C333.036 12.4 333.163 11.5067 333.203 11H335.863C335.823 11.7067 335.763 12.2867 335.683 12.74H335.723C336.083 12.1133 336.563 11.6333 337.163 11.3C337.763 10.9667 338.45 10.8 339.223 10.8C340.183 10.8 340.91 11.0733 341.403 11.62C341.896 12.1533 342.143 12.9333 342.143 13.96C342.143 14.44 342.096 14.92 342.003 15.4L341.023 21H338.183L339.183 15.38C339.236 14.98 339.263 14.7133 339.263 14.58C339.263 13.5933 338.796 13.1 337.863 13.1C337.21 13.1 336.656 13.32 336.203 13.76C335.75 14.2 335.456 14.7933 335.323 15.54L334.363 21H331.523L332.823 13.68ZM354.09 11L352.41 20.58C351.81 24.0333 349.837 25.76 346.49 25.76C345.677 25.76 344.91 25.66 344.19 25.46C343.483 25.26 342.897 24.9867 342.43 24.64L343.71 22.74C344.137 22.98 344.61 23.1733 345.13 23.32C345.663 23.4667 346.163 23.54 346.63 23.54C347.47 23.54 348.143 23.2667 348.65 22.72C349.17 22.1733 349.53 21.3333 349.73 20.2L349.75 20.12C349.11 20.72 348.217 21.02 347.07 21.02C345.897 21.02 344.97 20.6867 344.29 20.02C343.623 19.34 343.29 18.4133 343.29 17.24C343.29 15.9733 343.503 14.8533 343.93 13.88C344.357 12.9067 344.957 12.1533 345.73 11.62C346.517 11.0733 347.41 10.8 348.41 10.8C349.103 10.8 349.703 10.92 350.21 11.16C350.717 11.4 351.077 11.7467 351.29 12.2H351.33L351.71 11H354.09ZM350.47 15.4C350.51 15.1333 350.53 14.9 350.53 14.7C350.53 14.1133 350.383 13.6667 350.09 13.36C349.797 13.0533 349.377 12.9 348.83 12.9C348.017 12.9 347.363 13.28 346.87 14.04C346.39 14.7867 346.15 15.76 346.15 16.96C346.15 18.2267 346.723 18.86 347.87 18.86C348.523 18.86 349.057 18.6667 349.47 18.28C349.883 17.88 350.15 17.32 350.27 16.6L350.47 15.4ZM363.351 21.2C362.405 21.2 361.671 20.9867 361.151 20.56C360.631 20.12 360.371 19.5067 360.371 18.72C360.371 18.4933 360.391 18.2533 360.431 18L361.291 13.1H359.471L359.851 11H361.671L362.111 8.46L365.011 7.66H365.091L364.511 11H367.431L367.051 13.1H364.131L363.351 17.56C363.325 17.7733 363.311 17.92 363.311 18C363.311 18.3733 363.425 18.6533 363.651 18.84C363.878 19.0133 364.231 19.1 364.711 19.1C365.245 19.1 365.751 19.0133 366.231 18.84L366.011 20.76C365.305 21.0533 364.418 21.2 363.351 21.2ZM369.983 6.16H372.823L371.783 12.06C372.143 11.66 372.59 11.3533 373.123 11.14C373.67 10.9133 374.263 10.8 374.903 10.8C375.903 10.8 376.697 11.0933 377.283 11.68C377.87 12.2533 378.163 13.0267 378.163 14C378.163 14.32 378.137 14.62 378.083 14.9L377.003 21H374.163L375.183 15.16C375.223 14.9333 375.243 14.72 375.243 14.52C375.243 14.0133 375.117 13.62 374.863 13.34C374.623 13.0467 374.277 12.9 373.823 12.9C373.143 12.9 372.563 13.14 372.083 13.62C371.617 14.0867 371.31 14.7333 371.163 15.56L370.203 21H367.363L369.983 6.16ZM385.19 10.8C386.483 10.8 387.49 11.16 388.21 11.88C388.943 12.6 389.31 13.5733 389.31 14.8C389.31 15.24 389.263 15.6867 389.17 16.14L388.99 17.04H382.11C382.19 18.2267 382.85 18.82 384.09 18.82C384.663 18.82 385.176 18.7267 385.63 18.54C386.096 18.3533 386.583 18.0333 387.09 17.58L388.37 19.02C387.863 19.6867 387.176 20.22 386.31 20.62C385.456 21.0067 384.556 21.2 383.61 21.2C382.263 21.2 381.196 20.84 380.41 20.12C379.636 19.4 379.25 18.4133 379.25 17.16C379.25 15.9333 379.496 14.84 379.99 13.88C380.496 12.9067 381.203 12.1533 382.11 11.62C383.016 11.0733 384.043 10.8 385.19 10.8ZM386.65 15.02C386.65 13.7533 386.056 13.12 384.87 13.12C384.296 13.12 383.783 13.3 383.33 13.66C382.89 14.0067 382.563 14.5 382.35 15.14H386.65V15.02ZM397.235 7H406.815L406.375 9.56H400.015L399.515 12.38H405.195L404.735 14.94H399.055L398.455 18.44H404.815L404.355 21H394.775L397.235 7ZM408.318 12.9H406.698L407.038 11H408.658L408.858 9.82C409.031 8.82 409.465 8.04667 410.158 7.5C410.865 6.94 411.758 6.66 412.838 6.66C413.385 6.66 413.885 6.74667 414.338 6.92C414.805 7.08 415.151 7.3 415.378 7.58L414.098 9.24C413.965 9.10667 413.798 9 413.598 8.92C413.398 8.82667 413.198 8.78 412.998 8.78C412.651 8.78 412.358 8.9 412.118 9.14C411.878 9.36667 411.725 9.68 411.658 10.08L411.498 11H414.298L413.958 12.9H411.158L409.738 21H406.898L408.318 12.9ZM416.15 12.9H414.53L414.87 11H416.49L416.69 9.82C416.863 8.82 417.297 8.04667 417.99 7.5C418.697 6.94 419.59 6.66 420.67 6.66C421.217 6.66 421.717 6.74667 422.17 6.92C422.637 7.08 422.983 7.3 423.21 7.58L421.93 9.24C421.797 9.10667 421.63 9 421.43 8.92C421.23 8.82667 421.03 8.78 420.83 8.78C420.483 8.78 420.19 8.9 419.95 9.14C419.71 9.36667 419.557 9.68 419.49 10.08L419.33 11H422.13L421.79 12.9H418.99L417.57 21H414.73L416.15 12.9ZM427.397 10.8C428.69 10.8 429.697 11.16 430.417 11.88C431.15 12.6 431.517 13.5733 431.517 14.8C431.517 15.24 431.47 15.6867 431.377 16.14L431.197 17.04H424.317C424.397 18.2267 425.057 18.82 426.297 18.82C426.87 18.82 427.383 18.7267 427.837 18.54C428.303 18.3533 428.79 18.0333 429.297 17.58L430.577 19.02C430.07 19.6867 429.383 20.22 428.517 20.62C427.663 21.0067 426.763 21.2 425.817 21.2C424.47 21.2 423.403 20.84 422.617 20.12C421.843 19.4 421.457 18.4133 421.457 17.16C421.457 15.9333 421.703 14.84 422.197 13.88C422.703 12.9067 423.41 12.1533 424.317 11.62C425.223 11.0733 426.25 10.8 427.397 10.8ZM428.857 15.02C428.857 13.7533 428.263 13.12 427.077 13.12C426.503 13.12 425.99 13.3 425.537 13.66C425.097 14.0067 424.77 14.5 424.557 15.14H428.857V15.02ZM436.753 21.2C435.406 21.2 434.333 20.8333 433.533 20.1C432.746 19.3667 432.353 18.3733 432.353 17.12C432.353 15.8933 432.606 14.8 433.113 13.84C433.619 12.88 434.326 12.1333 435.233 11.6C436.139 11.0667 437.179 10.8 438.353 10.8C439.326 10.8 440.153 10.98 440.833 11.34C441.513 11.7 441.979 12.2 442.233 12.84L440.273 14.32C440.086 13.8933 439.813 13.56 439.453 13.32C439.093 13.08 438.686 12.96 438.233 12.96C437.673 12.96 437.159 13.1333 436.693 13.48C436.239 13.8133 435.879 14.28 435.613 14.88C435.346 15.48 435.213 16.1467 435.213 16.88C435.213 17.5733 435.379 18.1067 435.713 18.48C436.059 18.8533 436.539 19.04 437.153 19.04C437.619 19.04 438.073 18.92 438.513 18.68C438.953 18.44 439.339 18.1067 439.673 17.68L441.113 19.16C440.633 19.8267 440.019 20.3333 439.273 20.68C438.526 21.0267 437.686 21.2 436.753 21.2ZM446.594 21.2C445.647 21.2 444.914 20.9867 444.394 20.56C443.874 20.12 443.614 19.5067 443.614 18.72C443.614 18.4933 443.634 18.2533 443.674 18L444.534 13.1H442.714L443.094 11H444.914L445.354 8.46L448.254 7.66H448.334L447.754 11H450.674L450.294 13.1H447.374L446.594 17.56C446.567 17.7733 446.554 17.92 446.554 18C446.554 18.3733 446.667 18.6533 446.894 18.84C447.12 19.0133 447.474 19.1 447.954 19.1C448.487 19.1 448.994 19.0133 449.474 18.84L449.254 20.76C448.547 21.0533 447.66 21.2 446.594 21.2ZM460.275 21.2C458.862 21.2 457.742 20.84 456.915 20.12C456.102 19.3867 455.695 18.3867 455.695 17.12C455.695 15.8667 455.948 14.7667 456.455 13.82C456.975 12.86 457.702 12.12 458.635 11.6C459.568 11.0667 460.648 10.8 461.875 10.8C463.288 10.8 464.402 11.1667 465.215 11.9C466.028 12.62 466.435 13.6133 466.435 14.88C466.435 16.1333 466.175 17.24 465.655 18.2C465.148 19.1467 464.428 19.8867 463.495 20.42C462.575 20.94 461.502 21.2 460.275 21.2ZM460.575 19.1C461.148 19.1 461.662 18.9333 462.115 18.6C462.568 18.2533 462.922 17.78 463.175 17.18C463.442 16.58 463.575 15.9067 463.575 15.16C463.575 14.4533 463.395 13.9 463.035 13.5C462.675 13.1 462.182 12.9 461.555 12.9C460.982 12.9 460.468 13.0733 460.015 13.42C459.562 13.7533 459.202 14.22 458.935 14.82C458.682 15.42 458.555 16.0933 458.555 16.84C458.555 17.5333 458.735 18.0867 459.095 18.5C459.455 18.9 459.948 19.1 460.575 19.1ZM469.334 12.9H467.714L468.054 11H469.674L469.874 9.82C470.047 8.82 470.48 8.04667 471.174 7.5C471.88 6.94 472.774 6.66 473.854 6.66C474.4 6.66 474.9 6.74667 475.354 6.92C475.82 7.08 476.167 7.3 476.394 7.58L475.114 9.24C474.98 9.10667 474.814 9 474.614 8.92C474.414 8.82667 474.214 8.78 474.014 8.78C473.667 8.78 473.374 8.9 473.134 9.14C472.894 9.36667 472.74 9.68 472.674 10.08L472.514 11H475.314L474.974 12.9H472.174L470.754 21H467.914L469.334 12.9ZM482.235 7H487.175C488.602 7 489.695 7.3 490.455 7.9C491.215 8.48667 491.595 9.33333 491.595 10.44C491.595 11.52 491.355 12.4133 490.875 13.12C490.408 13.8267 489.682 14.3733 488.695 14.76V14.8C488.908 14.9867 489.062 15.1533 489.155 15.3C489.262 15.4467 489.335 15.62 489.375 15.82L490.515 21H487.115L486.295 16.82C486.228 16.4467 486.082 16.2 485.855 16.08C485.642 15.96 485.235 15.9 484.635 15.9H483.895L482.995 21H479.775L482.235 7ZM485.895 13.36C486.628 13.36 487.215 13.14 487.655 12.7C488.108 12.2467 488.335 11.6533 488.335 10.92C488.335 10.0133 487.735 9.56 486.535 9.56H485.015L484.335 13.36H485.895ZM497.807 10.8C499.1 10.8 500.107 11.16 500.827 11.88C501.56 12.6 501.927 13.5733 501.927 14.8C501.927 15.24 501.88 15.6867 501.787 16.14L501.607 17.04H494.727C494.807 18.2267 495.467 18.82 496.707 18.82C497.28 18.82 497.793 18.7267 498.247 18.54C498.713 18.3533 499.2 18.0333 499.707 17.58L500.987 19.02C500.48 19.6867 499.793 20.22 498.927 20.62C498.073 21.0067 497.173 21.2 496.227 21.2C494.88 21.2 493.813 20.84 493.027 20.12C492.253 19.4 491.867 18.4133 491.867 17.16C491.867 15.9333 492.113 14.84 492.607 13.88C493.113 12.9067 493.82 12.1533 494.727 11.62C495.633 11.0733 496.66 10.8 497.807 10.8ZM499.267 15.02C499.267 13.7533 498.673 13.12 497.487 13.12C496.913 13.12 496.4 13.3 495.947 13.66C495.507 14.0067 495.18 14.5 494.967 15.14H499.267V15.02ZM504.783 12.9H503.163L503.503 11H505.123L505.323 9.82C505.496 8.82 505.929 8.04667 506.623 7.5C507.329 6.94 508.223 6.66 509.303 6.66C509.849 6.66 510.349 6.74667 510.803 6.92C511.269 7.08 511.616 7.3 511.843 7.58L510.563 9.24C510.429 9.10667 510.263 9 510.063 8.92C509.863 8.82667 509.663 8.78 509.463 8.78C509.116 8.78 508.823 8.9 508.583 9.14C508.343 9.36667 508.189 9.68 508.123 10.08L507.963 11H510.763L510.423 12.9H507.623L506.203 21H503.363L504.783 12.9ZM512.723 21.2C511.949 21.2 511.363 21.0267 510.963 20.68C510.563 20.3333 510.363 19.8333 510.363 19.18C510.363 18.9533 510.383 18.72 510.423 18.48L512.603 6.16H515.443L513.243 18.54L513.223 18.7C513.223 19.0733 513.483 19.26 514.003 19.26C514.309 19.26 514.723 19.1667 515.243 18.98L515.403 20.46C514.669 20.9533 513.776 21.2 512.723 21.2ZM522.123 10.8C523.416 10.8 524.423 11.16 525.143 11.88C525.876 12.6 526.243 13.5733 526.243 14.8C526.243 15.24 526.196 15.6867 526.103 16.14L525.923 17.04H519.043C519.123 18.2267 519.783 18.82 521.023 18.82C521.596 18.82 522.11 18.7267 522.563 18.54C523.03 18.3533 523.516 18.0333 524.023 17.58L525.303 19.02C524.796 19.6867 524.11 20.22 523.243 20.62C522.39 21.0067 521.49 21.2 520.543 21.2C519.196 21.2 518.13 20.84 517.343 20.12C516.57 19.4 516.183 18.4133 516.183 17.16C516.183 15.9333 516.43 14.84 516.923 13.88C517.43 12.9067 518.136 12.1533 519.043 11.62C519.95 11.0733 520.976 10.8 522.123 10.8ZM523.583 15.02C523.583 13.7533 522.99 13.12 521.803 13.12C521.23 13.12 520.716 13.3 520.263 13.66C519.823 14.0067 519.496 14.5 519.283 15.14H523.583V15.02ZM531.479 21.2C530.133 21.2 529.059 20.8333 528.259 20.1C527.473 19.3667 527.079 18.3733 527.079 17.12C527.079 15.8933 527.333 14.8 527.839 13.84C528.346 12.88 529.053 12.1333 529.959 11.6C530.866 11.0667 531.906 10.8 533.079 10.8C534.053 10.8 534.879 10.98 535.559 11.34C536.239 11.7 536.706 12.2 536.959 12.84L534.999 14.32C534.813 13.8933 534.539 13.56 534.179 13.32C533.819 13.08 533.413 12.96 532.959 12.96C532.399 12.96 531.886 13.1333 531.419 13.48C530.966 13.8133 530.606 14.28 530.339 14.88C530.073 15.48 529.939 16.1467 529.939 16.88C529.939 17.5733 530.106 18.1067 530.439 18.48C530.786 18.8533 531.266 19.04 531.879 19.04C532.346 19.04 532.799 18.92 533.239 18.68C533.679 18.44 534.066 18.1067 534.399 17.68L535.839 19.16C535.359 19.8267 534.746 20.3333 533.999 20.68C533.253 21.0267 532.413 21.2 531.479 21.2ZM541.32 21.2C540.373 21.2 539.64 20.9867 539.12 20.56C538.6 20.12 538.34 19.5067 538.34 18.72C538.34 18.4933 538.36 18.2533 538.4 18L539.26 13.1H537.44L537.82 11H539.64L540.08 8.46L542.98 7.66H543.06L542.48 11H545.4L545.02 13.1H542.1L541.32 17.56C541.293 17.7733 541.28 17.92 541.28 18C541.28 18.3733 541.393 18.6533 541.62 18.84C541.847 19.0133 542.2 19.1 542.68 19.1C543.213 19.1 543.72 19.0133 544.2 18.84L543.98 20.76C543.273 21.0533 542.387 21.2 541.32 21.2ZM549.212 10.04C548.759 10.04 548.385 9.92 548.092 9.68C547.812 9.42667 547.672 9.11333 547.672 8.74C547.672 8.16667 547.865 7.7 548.252 7.34C548.652 6.98 549.159 6.8 549.772 6.8C550.225 6.8 550.592 6.92 550.872 7.16C551.152 7.4 551.292 7.71333 551.292 8.1C551.292 8.67333 551.099 9.14 550.712 9.5C550.325 9.86 549.825 10.04 549.212 10.04ZM547.612 11H550.452L548.692 21H545.852L547.612 11ZM562.457 11L556.757 21H554.317L552.137 11H554.977L556.057 17.5L559.457 11H562.457ZM567.885 10.8C569.178 10.8 570.185 11.16 570.905 11.88C571.638 12.6 572.005 13.5733 572.005 14.8C572.005 15.24 571.958 15.6867 571.865 16.14L571.685 17.04H564.805C564.885 18.2267 565.545 18.82 566.785 18.82C567.358 18.82 567.872 18.7267 568.325 18.54C568.792 18.3533 569.278 18.0333 569.785 17.58L571.065 19.02C570.558 19.6867 569.872 20.22 569.005 20.62C568.152 21.0067 567.252 21.2 566.305 21.2C564.958 21.2 563.892 20.84 563.105 20.12C562.332 19.4 561.945 18.4133 561.945 17.16C561.945 15.9333 562.192 14.84 562.685 13.88C563.192 12.9067 563.898 12.1533 564.805 11.62C565.712 11.0733 566.738 10.8 567.885 10.8ZM569.345 15.02C569.345 13.7533 568.752 13.12 567.565 13.12C566.992 13.12 566.478 13.3 566.025 13.66C565.585 14.0067 565.258 14.5 565.045 15.14H569.345V15.02ZM580.37 7H583.59L581.13 21H577.91L580.37 7ZM588.39 21.2C587.444 21.2 586.71 20.9867 586.19 20.56C585.67 20.12 585.41 19.5067 585.41 18.72C585.41 18.4933 585.43 18.2533 585.47 18L586.33 13.1H584.51L584.89 11H586.71L587.15 8.46L590.05 7.66H590.13L589.55 11H592.47L592.09 13.1H589.17L588.39 17.56C588.364 17.7733 588.35 17.92 588.35 18C588.35 18.3733 588.464 18.6533 588.69 18.84C588.917 19.0133 589.27 19.1 589.75 19.1C590.284 19.1 590.79 19.0133 591.27 18.84L591.05 20.76C590.344 21.0533 589.457 21.2 588.39 21.2ZM598.822 10.8C600.116 10.8 601.122 11.16 601.842 11.88C602.576 12.6 602.942 13.5733 602.942 14.8C602.942 15.24 602.896 15.6867 602.802 16.14L602.622 17.04H595.742C595.822 18.2267 596.482 18.82 597.722 18.82C598.296 18.82 598.809 18.7267 599.262 18.54C599.729 18.3533 600.216 18.0333 600.722 17.58L602.002 19.02C601.496 19.6867 600.809 20.22 599.942 20.62C599.089 21.0067 598.189 21.2 597.242 21.2C595.896 21.2 594.829 20.84 594.042 20.12C593.269 19.4 592.882 18.4133 592.882 17.16C592.882 15.9333 593.129 14.84 593.622 13.88C594.129 12.9067 594.836 12.1533 595.742 11.62C596.649 11.0733 597.676 10.8 598.822 10.8ZM600.282 15.02C600.282 13.7533 599.689 13.12 598.502 13.12C597.929 13.12 597.416 13.3 596.962 13.66C596.522 14.0067 596.196 14.5 595.982 15.14H600.282V15.02ZM604.858 13.44C605.058 12.28 605.178 11.4667 605.218 11H607.918C607.878 11.6533 607.805 12.24 607.698 12.76L607.658 12.96H607.738C608.098 12.3067 608.645 11.7867 609.378 11.4C610.125 11 610.918 10.8 611.758 10.8C611.945 10.8 612.145 10.82 612.358 10.86L611.978 13.08C611.952 13.0667 611.818 13.06 611.578 13.06C610.898 13.06 610.232 13.2333 609.578 13.58C608.938 13.9267 608.392 14.3867 607.938 14.96C607.498 15.5333 607.218 16.1533 607.098 16.82L606.358 21H603.518L604.858 13.44ZM615.58 21.2C614.487 21.2 613.62 20.8533 612.98 20.16C612.353 19.4533 612.04 18.4933 612.04 17.28C612.04 16.0267 612.253 14.9133 612.68 13.94C613.12 12.9533 613.727 12.1867 614.5 11.64C615.273 11.08 616.16 10.8 617.16 10.8C617.853 10.8 618.453 10.92 618.96 11.16C619.467 11.4 619.827 11.7467 620.04 12.2H620.08L620.46 11H622.84L621.56 18.3C621.293 19.78 621.153 20.68 621.14 21H618.46C618.473 20.72 618.54 20.3067 618.66 19.76H618.62C618.22 20.2133 617.747 20.5667 617.2 20.82C616.667 21.0733 616.127 21.2 615.58 21.2ZM616.42 19.04C617.073 19.04 617.627 18.86 618.08 18.5C618.547 18.1267 618.833 17.6333 618.94 17.02L619.32 14.88C619.347 14.72 619.36 14.6133 619.36 14.56C619.36 14.0933 619.18 13.7 618.82 13.38C618.473 13.06 618.033 12.9 617.5 12.9C616.993 12.9 616.54 13.08 616.14 13.44C615.753 13.8 615.447 14.3 615.22 14.94C614.993 15.5667 614.88 16.28 614.88 17.08C614.88 17.72 615.007 18.2067 615.26 18.54C615.527 18.8733 615.913 19.04 616.42 19.04ZM627.59 21.2C626.643 21.2 625.91 20.9867 625.39 20.56C624.87 20.12 624.61 19.5067 624.61 18.72C624.61 18.4933 624.63 18.2533 624.67 18L625.53 13.1H623.71L624.09 11H625.91L626.35 8.46L629.25 7.66H629.33L628.75 11H631.67L631.29 13.1H628.37L627.59 17.56C627.563 17.7733 627.55 17.92 627.55 18C627.55 18.3733 627.663 18.6533 627.89 18.84C628.116 19.0133 628.47 19.1 628.95 19.1C629.483 19.1 629.99 19.0133 630.47 18.84L630.25 20.76C629.543 21.0533 628.656 21.2 627.59 21.2ZM635.482 10.04C635.028 10.04 634.655 9.92 634.362 9.68C634.082 9.42667 633.942 9.11333 633.942 8.74C633.942 8.16667 634.135 7.7 634.522 7.34C634.922 6.98 635.428 6.8 636.042 6.8C636.495 6.8 636.862 6.92 637.142 7.16C637.422 7.4 637.562 7.71333 637.562 8.1C637.562 8.67333 637.368 9.14 636.982 9.5C636.595 9.86 636.095 10.04 635.482 10.04ZM633.882 11H636.722L634.962 21H632.122L633.882 11ZM642.306 21.2C640.893 21.2 639.773 20.84 638.946 20.12C638.133 19.3867 637.726 18.3867 637.726 17.12C637.726 15.8667 637.979 14.7667 638.486 13.82C639.006 12.86 639.733 12.12 640.666 11.6C641.599 11.0667 642.679 10.8 643.906 10.8C645.319 10.8 646.433 11.1667 647.246 11.9C648.059 12.62 648.466 13.6133 648.466 14.88C648.466 16.1333 648.206 17.24 647.686 18.2C647.179 19.1467 646.459 19.8867 645.526 20.42C644.606 20.94 643.533 21.2 642.306 21.2ZM642.606 19.1C643.179 19.1 643.693 18.9333 644.146 18.6C644.599 18.2533 644.953 17.78 645.206 17.18C645.473 16.58 645.606 15.9067 645.606 15.16C645.606 14.4533 645.426 13.9 645.066 13.5C644.706 13.1 644.213 12.9 643.586 12.9C643.013 12.9 642.499 13.0733 642.046 13.42C641.593 13.7533 641.233 14.22 640.966 14.82C640.713 15.42 640.586 16.0933 640.586 16.84C640.586 17.5333 640.766 18.0867 641.126 18.5C641.486 18.9 641.979 19.1 642.606 19.1ZM650.245 13.68C650.458 12.4 650.585 11.5067 650.625 11H653.285C653.245 11.7067 653.185 12.2867 653.105 12.74H653.145C653.505 12.1133 653.985 11.6333 654.585 11.3C655.185 10.9667 655.872 10.8 656.645 10.8C657.605 10.8 658.332 11.0733 658.825 11.62C659.318 12.1533 659.565 12.9333 659.565 13.96C659.565 14.44 659.518 14.92 659.425 15.4L658.445 21H655.605L656.605 15.38C656.658 14.98 656.685 14.7133 656.685 14.58C656.685 13.5933 656.218 13.1 655.285 13.1C654.632 13.1 654.078 13.32 653.625 13.76C653.172 14.2 652.878 14.7933 652.745 15.54L651.785 21H648.945L650.245 13.68ZM670.001 21.2C668.588 21.2 667.468 20.84 666.641 20.12C665.828 19.3867 665.421 18.3867 665.421 17.12C665.421 15.8667 665.675 14.7667 666.181 13.82C666.701 12.86 667.428 12.12 668.361 11.6C669.295 11.0667 670.375 10.8 671.601 10.8C673.015 10.8 674.128 11.1667 674.941 11.9C675.755 12.62 676.161 13.6133 676.161 14.88C676.161 16.1333 675.901 17.24 675.381 18.2C674.875 19.1467 674.155 19.8867 673.221 20.42C672.301 20.94 671.228 21.2 670.001 21.2ZM670.301 19.1C670.875 19.1 671.388 18.9333 671.841 18.6C672.295 18.2533 672.648 17.78 672.901 17.18C673.168 16.58 673.301 15.9067 673.301 15.16C673.301 14.4533 673.121 13.9 672.761 13.5C672.401 13.1 671.908 12.9 671.281 12.9C670.708 12.9 670.195 13.0733 669.741 13.42C669.288 13.7533 668.928 14.22 668.661 14.82C668.408 15.42 668.281 16.0933 668.281 16.84C668.281 17.5333 668.461 18.0867 668.821 18.5C669.181 18.9 669.675 19.1 670.301 19.1ZM677.94 13.68C678.153 12.4 678.28 11.5067 678.32 11H680.98C680.94 11.7067 680.88 12.2867 680.8 12.74H680.84C681.2 12.1133 681.68 11.6333 682.28 11.3C682.88 10.9667 683.567 10.8 684.34 10.8C685.3 10.8 686.027 11.0733 686.52 11.62C687.013 12.1533 687.26 12.9333 687.26 13.96C687.26 14.44 687.213 14.92 687.12 15.4L686.14 21H683.3L684.3 15.38C684.353 14.98 684.38 14.7133 684.38 14.58C684.38 13.5933 683.913 13.1 682.98 13.1C682.327 13.1 681.773 13.32 681.32 13.76C680.867 14.2 680.573 14.7933 680.44 15.54L679.48 21H676.64L677.94 13.68ZM695.937 7H699.157L696.697 21H693.477L695.937 7ZM700.577 13.68C700.79 12.4 700.917 11.5067 700.957 11H703.617C703.577 11.7067 703.517 12.2867 703.437 12.74H703.477C703.837 12.1133 704.317 11.6333 704.917 11.3C705.517 10.9667 706.204 10.8 706.977 10.8C707.937 10.8 708.664 11.0733 709.157 11.62C709.65 12.1533 709.897 12.9333 709.897 13.96C709.897 14.44 709.85 14.92 709.757 15.4L708.777 21H705.937L706.937 15.38C706.99 14.98 707.017 14.7133 707.017 14.58C707.017 13.5933 706.55 13.1 705.617 13.1C704.964 13.1 704.41 13.32 703.957 13.76C703.504 14.2 703.21 14.7933 703.077 15.54L702.117 21H699.277L700.577 13.68ZM714.584 21.2C713.491 21.2 712.624 20.8533 711.984 20.16C711.357 19.4533 711.044 18.4933 711.044 17.28C711.044 16.0267 711.264 14.9133 711.704 13.94C712.144 12.9533 712.757 12.1867 713.544 11.64C714.344 11.08 715.244 10.8 716.244 10.8C717.444 10.8 718.297 11.1733 718.804 11.92H718.844L719.864 6.16H722.704L720.564 18.3L720.384 19.34C720.237 20.3133 720.157 20.8667 720.144 21H717.464L717.664 19.76H717.624C717.224 20.2133 716.751 20.5667 716.204 20.82C715.671 21.0733 715.131 21.2 714.584 21.2ZM715.424 19.04C716.077 19.04 716.631 18.86 717.084 18.5C717.551 18.1267 717.837 17.6333 717.944 17.02L718.324 14.88C718.351 14.72 718.364 14.6133 718.364 14.56C718.364 14.0933 718.184 13.7 717.824 13.38C717.477 13.06 717.037 12.9 716.504 12.9C715.997 12.9 715.544 13.08 715.144 13.44C714.757 13.8 714.451 14.3 714.224 14.94C713.997 15.5667 713.884 16.28 713.884 17.08C713.884 17.72 714.011 18.2067 714.264 18.54C714.531 18.8733 714.917 19.04 715.424 19.04ZM725.814 10.04C725.36 10.04 724.987 9.92 724.694 9.68C724.414 9.42667 724.274 9.11333 724.274 8.74C724.274 8.16667 724.467 7.7 724.854 7.34C725.254 6.98 725.76 6.8 726.374 6.8C726.827 6.8 727.194 6.92 727.474 7.16C727.754 7.4 727.894 7.71333 727.894 8.1C727.894 8.67333 727.7 9.14 727.314 9.5C726.927 9.86 726.427 10.04 725.814 10.04ZM724.214 11H727.054L725.294 21H722.454L724.214 11ZM739.058 11L733.358 21H730.918L728.738 11H731.578L732.658 17.5L736.058 11H739.058ZM742.337 10.04C741.884 10.04 741.51 9.92 741.217 9.68C740.937 9.42667 740.797 9.11333 740.797 8.74C740.797 8.16667 740.99 7.7 741.377 7.34C741.777 6.98 742.284 6.8 742.897 6.8C743.35 6.8 743.717 6.92 743.997 7.16C744.277 7.4 744.417 7.71333 744.417 8.1C744.417 8.67333 744.224 9.14 743.837 9.5C743.45 9.86 742.95 10.04 742.337 10.04ZM740.737 11H743.577L741.817 21H738.977L740.737 11ZM748.022 21.2C746.928 21.2 746.062 20.8533 745.422 20.16C744.795 19.4533 744.482 18.4933 744.482 17.28C744.482 16.0267 744.702 14.9133 745.142 13.94C745.582 12.9533 746.195 12.1867 746.982 11.64C747.782 11.08 748.682 10.8 749.682 10.8C750.882 10.8 751.735 11.1733 752.242 11.92H752.282L753.302 6.16H756.142L754.002 18.3L753.822 19.34C753.675 20.3133 753.595 20.8667 753.582 21H750.902L751.102 19.76H751.062C750.662 20.2133 750.188 20.5667 749.642 20.82C749.108 21.0733 748.568 21.2 748.022 21.2ZM748.862 19.04C749.515 19.04 750.068 18.86 750.522 18.5C750.988 18.1267 751.275 17.6333 751.382 17.02L751.762 14.88C751.788 14.72 751.802 14.6133 751.802 14.56C751.802 14.0933 751.622 13.7 751.262 13.38C750.915 13.06 750.475 12.9 749.942 12.9C749.435 12.9 748.982 13.08 748.582 13.44C748.195 13.8 747.888 14.3 747.662 14.94C747.435 15.5667 747.322 16.28 747.322 17.08C747.322 17.72 747.448 18.2067 747.702 18.54C747.968 18.8733 748.355 19.04 748.862 19.04ZM758.931 21.2C757.971 21.2 757.244 20.9333 756.751 20.4C756.258 19.8533 756.011 19.0667 756.011 18.04C756.011 17.56 756.058 17.08 756.151 16.6L757.131 11H759.971L758.991 16.62C758.924 16.9933 758.891 17.2933 758.891 17.52C758.891 18 758.991 18.3533 759.191 18.58C759.404 18.7933 759.731 18.9 760.171 18.9C760.811 18.9 761.384 18.6533 761.891 18.16C762.398 17.6533 762.724 17.02 762.871 16.26L763.791 11H766.631L765.351 18.32C765.218 19.1733 765.111 20.0667 765.031 21H762.311C762.351 20.2533 762.404 19.6733 762.471 19.26H762.431C762.084 19.86 761.598 20.3333 760.971 20.68C760.344 21.0267 759.664 21.2 758.931 21.2ZM770.58 21.2C769.487 21.2 768.62 20.8533 767.98 20.16C767.353 19.4533 767.04 18.4933 767.04 17.28C767.04 16.0267 767.253 14.9133 767.68 13.94C768.12 12.9533 768.727 12.1867 769.5 11.64C770.273 11.08 771.16 10.8 772.16 10.8C772.853 10.8 773.453 10.92 773.96 11.16C774.467 11.4 774.827 11.7467 775.04 12.2H775.08L775.46 11H777.84L776.56 18.3C776.293 19.78 776.153 20.68 776.14 21H773.46C773.473 20.72 773.54 20.3067 773.66 19.76H773.62C773.22 20.2133 772.747 20.5667 772.2 20.82C771.667 21.0733 771.127 21.2 770.58 21.2ZM771.42 19.04C772.073 19.04 772.627 18.86 773.08 18.5C773.547 18.1267 773.833 17.6333 773.94 17.02L774.32 14.88C774.347 14.72 774.36 14.6133 774.36 14.56C774.36 14.0933 774.18 13.7 773.82 13.38C773.473 13.06 773.033 12.9 772.5 12.9C771.993 12.9 771.54 13.08 771.14 13.44C770.753 13.8 770.447 14.3 770.22 14.94C769.993 15.5667 769.88 16.28 769.88 17.08C769.88 17.72 770.007 18.2067 770.26 18.54C770.527 18.8733 770.913 19.04 771.42 19.04ZM780.83 21.2C780.056 21.2 779.47 21.0267 779.07 20.68C778.67 20.3333 778.47 19.8333 778.47 19.18C778.47 18.9533 778.49 18.72 778.53 18.48L780.71 6.16H783.55L781.35 18.54L781.33 18.7C781.33 19.0733 781.59 19.26 782.11 19.26C782.416 19.26 782.83 19.1667 783.35 18.98L783.51 20.46C782.776 20.9533 781.883 21.2 780.83 21.2ZM787.193 21.2C786.287 21.2 785.493 21.02 784.813 20.66C784.133 20.2867 783.707 19.8067 783.533 19.22L785.513 18.02C785.687 18.3533 785.933 18.62 786.253 18.82C786.587 19.0067 786.94 19.1 787.313 19.1C787.82 19.1 788.213 19.0133 788.493 18.84C788.787 18.6667 788.933 18.4267 788.933 18.12C788.933 17.8933 788.82 17.6867 788.593 17.5C788.38 17.3 788.033 17.1 787.553 16.9C786.58 16.4867 785.86 16.04 785.393 15.56C784.94 15.08 784.713 14.54 784.713 13.94C784.713 12.9667 785.08 12.2 785.813 11.64C786.56 11.08 787.573 10.8 788.853 10.8C789.68 10.8 790.4 10.9467 791.013 11.24C791.64 11.5333 792.1 11.9467 792.393 12.48L790.553 13.7C790.18 13.1667 789.607 12.9 788.833 12.9C788.433 12.9 788.12 12.9733 787.893 13.12C787.68 13.2667 787.573 13.4733 787.573 13.74C787.573 13.9133 787.673 14.0667 787.873 14.2C788.087 14.3333 788.54 14.5467 789.233 14.84C790.127 15.2133 790.78 15.62 791.193 16.06C791.62 16.5 791.833 16.9933 791.833 17.54C791.833 18.26 791.64 18.9 791.253 19.46C790.867 20.0067 790.32 20.4333 789.613 20.74C788.907 21.0467 788.1 21.2 787.193 21.2ZM797.538 6.4C798.044 6.4 798.451 6.56 798.758 6.88C799.064 7.18667 799.218 7.60667 799.218 8.14C799.218 8.71333 799.044 9.35333 798.698 10.06C798.364 10.7667 797.911 11.4467 797.338 12.1C796.764 12.74 796.144 13.2667 795.478 13.68L794.458 12.22C794.818 11.9667 795.178 11.64 795.538 11.24C795.911 10.8267 796.224 10.3867 796.478 9.92C796.424 9.93333 796.358 9.94 796.278 9.94C795.944 9.94 795.671 9.82667 795.458 9.6C795.244 9.36 795.138 9.05333 795.138 8.68C795.138 8.05333 795.371 7.52 795.838 7.08C796.304 6.62667 796.871 6.4 797.538 6.4ZM806.551 7H811.191C812.658 7 813.798 7.31333 814.611 7.94C815.438 8.56667 815.851 9.44 815.851 10.56C815.851 12.3867 815.325 13.8067 814.271 14.82C813.218 15.8333 811.745 16.34 809.851 16.34H808.131L807.311 21H804.091L806.551 7ZM810.311 13.8C811.005 13.8 811.565 13.5467 811.991 13.04C812.418 12.5333 812.631 11.8733 812.631 11.06C812.631 10.5667 812.485 10.1933 812.191 9.94C811.911 9.68667 811.491 9.56 810.931 9.56H809.331L808.571 13.8H810.311ZM818.225 6.16H821.065L820.025 12.06C820.385 11.66 820.832 11.3533 821.365 11.14C821.912 10.9133 822.505 10.8 823.145 10.8C824.145 10.8 824.939 11.0933 825.525 11.68C826.112 12.2533 826.405 13.0267 826.405 14C826.405 14.32 826.379 14.62 826.325 14.9L825.245 21H822.405L823.425 15.16C823.465 14.9333 823.485 14.72 823.485 14.52C823.485 14.0133 823.359 13.62 823.105 13.34C822.865 13.0467 822.519 12.9 822.065 12.9C821.385 12.9 820.805 13.14 820.325 13.62C819.859 14.0867 819.552 14.7333 819.405 15.56L818.445 21H815.605L818.225 6.16ZM837.992 11L832.252 21.56C831.665 22.6267 830.958 23.4267 830.132 23.96C829.318 24.5067 828.392 24.78 827.352 24.78C826.805 24.78 826.218 24.6933 825.592 24.52L825.992 22.26C826.138 22.3267 826.345 22.38 826.612 22.42C826.865 22.46 827.098 22.48 827.312 22.48C827.858 22.48 828.365 22.2933 828.832 21.92C829.298 21.5467 829.752 20.9667 830.192 20.18L828.092 11H831.032L832.032 16.98L834.932 11H837.992ZM840.963 21.2C840.056 21.2 839.263 21.02 838.583 20.66C837.903 20.2867 837.476 19.8067 837.303 19.22L839.283 18.02C839.456 18.3533 839.703 18.62 840.023 18.82C840.356 19.0067 840.709 19.1 841.083 19.1C841.589 19.1 841.983 19.0133 842.263 18.84C842.556 18.6667 842.703 18.4267 842.703 18.12C842.703 17.8933 842.589 17.6867 842.363 17.5C842.149 17.3 841.803 17.1 841.323 16.9C840.349 16.4867 839.629 16.04 839.163 15.56C838.709 15.08 838.483 14.54 838.483 13.94C838.483 12.9667 838.849 12.2 839.583 11.64C840.329 11.08 841.343 10.8 842.623 10.8C843.449 10.8 844.169 10.9467 844.783 11.24C845.409 11.5333 845.869 11.9467 846.163 12.48L844.323 13.7C843.949 13.1667 843.376 12.9 842.603 12.9C842.203 12.9 841.889 12.9733 841.663 13.12C841.449 13.2667 841.343 13.4733 841.343 13.74C841.343 13.9133 841.443 14.0667 841.643 14.2C841.856 14.3333 842.309 14.5467 843.003 14.84C843.896 15.2133 844.549 15.62 844.963 16.06C845.389 16.5 845.603 16.9933 845.603 17.54C845.603 18.26 845.409 18.9 845.023 19.46C844.636 20.0067 844.089 20.4333 843.383 20.74C842.676 21.0467 841.869 21.2 840.963 21.2ZM850.247 10.04C849.794 10.04 849.421 9.92 849.127 9.68C848.847 9.42667 848.707 9.11333 848.707 8.74C848.707 8.16667 848.901 7.7 849.287 7.34C849.687 6.98 850.194 6.8 850.807 6.8C851.261 6.8 851.627 6.92 851.907 7.16C852.187 7.4 852.327 7.71333 852.327 8.1C852.327 8.67333 852.134 9.14 851.747 9.5C851.361 9.86 850.861 10.04 850.247 10.04ZM848.647 11H851.487L849.727 21H846.887L848.647 11ZM856.792 21.2C855.445 21.2 854.372 20.8333 853.572 20.1C852.785 19.3667 852.392 18.3733 852.392 17.12C852.392 15.8933 852.645 14.8 853.152 13.84C853.658 12.88 854.365 12.1333 855.272 11.6C856.178 11.0667 857.218 10.8 858.392 10.8C859.365 10.8 860.192 10.98 860.872 11.34C861.552 11.7 862.018 12.2 862.272 12.84L860.312 14.32C860.125 13.8933 859.852 13.56 859.492 13.32C859.132 13.08 858.725 12.96 858.272 12.96C857.712 12.96 857.198 13.1333 856.732 13.48C856.278 13.8133 855.918 14.28 855.652 14.88C855.385 15.48 855.252 16.1467 855.252 16.88C855.252 17.5733 855.418 18.1067 855.752 18.48C856.098 18.8533 856.578 19.04 857.192 19.04C857.658 19.04 858.112 18.92 858.552 18.68C858.992 18.44 859.378 18.1067 859.712 17.68L861.152 19.16C860.672 19.8267 860.058 20.3333 859.312 20.68C858.565 21.0267 857.725 21.2 856.792 21.2ZM865.893 21.2C864.799 21.2 863.933 20.8533 863.293 20.16C862.666 19.4533 862.353 18.4933 862.353 17.28C862.353 16.0267 862.566 14.9133 862.993 13.94C863.433 12.9533 864.039 12.1867 864.813 11.64C865.586 11.08 866.473 10.8 867.473 10.8C868.166 10.8 868.766 10.92 869.273 11.16C869.779 11.4 870.139 11.7467 870.353 12.2H870.393L870.773 11H873.153L871.873 18.3C871.606 19.78 871.466 20.68 871.453 21H868.773C868.786 20.72 868.853 20.3067 868.973 19.76H868.933C868.533 20.2133 868.059 20.5667 867.513 20.82C866.979 21.0733 866.439 21.2 865.893 21.2ZM866.733 19.04C867.386 19.04 867.939 18.86 868.393 18.5C868.859 18.1267 869.146 17.6333 869.253 17.02L869.633 14.88C869.659 14.72 869.673 14.6133 869.673 14.56C869.673 14.0933 869.493 13.7 869.133 13.38C868.786 13.06 868.346 12.9 867.813 12.9C867.306 12.9 866.853 13.08 866.453 13.44C866.066 13.8 865.759 14.3 865.533 14.94C865.306 15.5667 865.193 16.28 865.193 17.08C865.193 17.72 865.319 18.2067 865.573 18.54C865.839 18.8733 866.226 19.04 866.733 19.04ZM876.142 21.2C875.369 21.2 874.782 21.0267 874.382 20.68C873.982 20.3333 873.782 19.8333 873.782 19.18C873.782 18.9533 873.802 18.72 873.842 18.48L876.022 6.16H878.862L876.662 18.54L876.642 18.7C876.642 19.0733 876.902 19.26 877.422 19.26C877.729 19.26 878.142 19.1667 878.662 18.98L878.822 20.46C878.089 20.9533 877.196 21.2 876.142 21.2ZM892.386 18.92H887.806L886.806 21H883.326L890.666 7H893.466L895.886 21H892.646L892.386 18.92ZM892.066 16.36L891.426 11.32L889.026 16.36H892.066ZM901.225 21.2C899.879 21.2 898.805 20.8333 898.005 20.1C897.219 19.3667 896.825 18.3733 896.825 17.12C896.825 15.8933 897.079 14.8 897.585 13.84C898.092 12.88 898.799 12.1333 899.705 11.6C900.612 11.0667 901.652 10.8 902.825 10.8C903.799 10.8 904.625 10.98 905.305 11.34C905.985 11.7 906.452 12.2 906.705 12.84L904.745 14.32C904.559 13.8933 904.285 13.56 903.925 13.32C903.565 13.08 903.159 12.96 902.705 12.96C902.145 12.96 901.632 13.1333 901.165 13.48C900.712 13.8133 900.352 14.28 900.085 14.88C899.819 15.48 899.685 16.1467 899.685 16.88C899.685 17.5733 899.852 18.1067 900.185 18.48C900.532 18.8533 901.012 19.04 901.625 19.04C902.092 19.04 902.545 18.92 902.985 18.68C903.425 18.44 903.812 18.1067 904.145 17.68L905.585 19.16C905.105 19.8267 904.492 20.3333 903.745 20.68C902.999 21.0267 902.159 21.2 901.225 21.2ZM911.066 21.2C910.12 21.2 909.386 20.9867 908.866 20.56C908.346 20.12 908.086 19.5067 908.086 18.72C908.086 18.4933 908.106 18.2533 908.146 18L909.006 13.1H907.186L907.566 11H909.386L909.826 8.46L912.726 7.66H912.806L912.226 11H915.146L914.766 13.1H911.846L911.066 17.56C911.04 17.7733 911.026 17.92 911.026 18C911.026 18.3733 911.14 18.6533 911.366 18.84C911.593 19.0133 911.946 19.1 912.426 19.1C912.96 19.1 913.466 19.0133 913.946 18.84L913.726 20.76C913.02 21.0533 912.133 21.2 911.066 21.2ZM918.958 10.04C918.505 10.04 918.131 9.92 917.838 9.68C917.558 9.42667 917.418 9.11333 917.418 8.74C917.418 8.16667 917.611 7.7 917.998 7.34C918.398 6.98 918.905 6.8 919.518 6.8C919.971 6.8 920.338 6.92 920.618 7.16C920.898 7.4 921.038 7.71333 921.038 8.1C921.038 8.67333 920.845 9.14 920.458 9.5C920.071 9.86 919.571 10.04 918.958 10.04ZM917.358 11H920.198L918.438 21H915.598L917.358 11ZM932.203 11L926.503 21H924.063L921.883 11H924.723L925.803 17.5L929.203 11H932.203ZM935.482 10.04C935.028 10.04 934.655 9.92 934.362 9.68C934.082 9.42667 933.942 9.11333 933.942 8.74C933.942 8.16667 934.135 7.7 934.522 7.34C934.922 6.98 935.428 6.8 936.042 6.8C936.495 6.8 936.862 6.92 937.142 7.16C937.422 7.4 937.562 7.71333 937.562 8.1C937.562 8.67333 937.368 9.14 936.982 9.5C936.595 9.86 936.095 10.04 935.482 10.04ZM933.882 11H936.722L934.962 21H932.122L933.882 11ZM941.906 21.2C940.959 21.2 940.226 20.9867 939.706 20.56C939.186 20.12 938.926 19.5067 938.926 18.72C938.926 18.4933 938.946 18.2533 938.986 18L939.846 13.1H938.026L938.406 11H940.226L940.666 8.46L943.566 7.66H943.646L943.066 11H945.986L945.606 13.1H942.686L941.906 17.56C941.879 17.7733 941.866 17.92 941.866 18C941.866 18.3733 941.979 18.6533 942.206 18.84C942.433 19.0133 942.786 19.1 943.266 19.1C943.799 19.1 944.306 19.0133 944.786 18.84L944.566 20.76C943.859 21.0533 942.973 21.2 941.906 21.2ZM956.898 11L951.158 21.56C950.571 22.6267 949.865 23.4267 949.038 23.96C948.225 24.5067 947.298 24.78 946.258 24.78C945.711 24.78 945.125 24.6933 944.498 24.52L944.898 22.26C945.045 22.3267 945.251 22.38 945.518 22.42C945.771 22.46 946.005 22.48 946.218 22.48C946.765 22.48 947.271 22.2933 947.738 21.92C948.205 21.5467 948.658 20.9667 949.098 20.18L946.998 11H949.938L950.938 16.98L953.838 11H956.898ZM963.758 7H968.398C969.865 7 971.005 7.31333 971.818 7.94C972.645 8.56667 973.058 9.44 973.058 10.56C973.058 12.3867 972.532 13.8067 971.478 14.82C970.425 15.8333 968.952 16.34 967.058 16.34H965.338L964.518 21H961.298L963.758 7ZM967.518 13.8C968.212 13.8 968.772 13.5467 969.198 13.04C969.625 12.5333 969.838 11.8733 969.838 11.06C969.838 10.5667 969.692 10.1933 969.398 9.94C969.118 9.68667 968.698 9.56 968.138 9.56H966.538L965.778 13.8H967.518ZM975.713 21.2C974.939 21.2 974.353 21.0267 973.953 20.68C973.553 20.3333 973.353 19.8333 973.353 19.18C973.353 18.9533 973.373 18.72 973.413 18.48L975.593 6.16H978.433L976.233 18.54L976.213 18.7C976.213 19.0733 976.473 19.26 976.993 19.26C977.299 19.26 977.713 19.1667 978.233 18.98L978.393 20.46C977.659 20.9533 976.766 21.2 975.713 21.2ZM982.807 21.2C981.713 21.2 980.847 20.8533 980.207 20.16C979.58 19.4533 979.267 18.4933 979.267 17.28C979.267 16.0267 979.48 14.9133 979.907 13.94C980.347 12.9533 980.953 12.1867 981.727 11.64C982.5 11.08 983.387 10.8 984.387 10.8C985.08 10.8 985.68 10.92 986.187 11.16C986.693 11.4 987.053 11.7467 987.267 12.2H987.307L987.687 11H990.067L988.787 18.3C988.52 19.78 988.38 20.68 988.367 21H985.687C985.7 20.72 985.767 20.3067 985.887 19.76H985.847C985.447 20.2133 984.973 20.5667 984.427 20.82C983.893 21.0733 983.353 21.2 982.807 21.2ZM983.647 19.04C984.3 19.04 984.853 18.86 985.307 18.5C985.773 18.1267 986.06 17.6333 986.167 17.02L986.547 14.88C986.573 14.72 986.587 14.6133 986.587 14.56C986.587 14.0933 986.407 13.7 986.047 13.38C985.7 13.06 985.26 12.9 984.727 12.9C984.22 12.9 983.767 13.08 983.367 13.44C982.98 13.8 982.673 14.3 982.447 14.94C982.22 15.5667 982.107 16.28 982.107 17.08C982.107 17.72 982.233 18.2067 982.487 18.54C982.753 18.8733 983.14 19.04 983.647 19.04ZM991.436 13.68C991.65 12.4 991.776 11.5067 991.816 11H994.476C994.436 11.7067 994.376 12.2867 994.296 12.74H994.336C994.696 12.1133 995.176 11.6333 995.776 11.3C996.376 10.9667 997.063 10.8 997.836 10.8C998.796 10.8 999.523 11.0733 1000.02 11.62C1000.51 12.1533 1000.76 12.9333 1000.76 13.96C1000.76 14.44 1000.71 14.92 1000.62 15.4L999.636 21H996.796L997.796 15.38C997.85 14.98 997.876 14.7133 997.876 14.58C997.876 13.5933 997.41 13.1 996.476 13.1C995.823 13.1 995.27 13.32 994.816 13.76C994.363 14.2 994.07 14.7933 993.936 15.54L992.976 21H990.136L991.436 13.68ZM1002.8 13.68C1003.02 12.4 1003.14 11.5067 1003.18 11H1005.84C1005.8 11.7067 1005.74 12.2867 1005.66 12.74H1005.7C1006.06 12.1133 1006.54 11.6333 1007.14 11.3C1007.74 10.9667 1008.43 10.8 1009.2 10.8C1010.16 10.8 1010.89 11.0733 1011.38 11.62C1011.88 12.1533 1012.12 12.9333 1012.12 13.96C1012.12 14.44 1012.08 14.92 1011.98 15.4L1011 21H1008.16L1009.16 15.38C1009.22 14.98 1009.24 14.7133 1009.24 14.58C1009.24 13.5933 1008.78 13.1 1007.84 13.1C1007.19 13.1 1006.64 13.32 1006.18 13.76C1005.73 14.2 1005.44 14.7933 1005.3 15.54L1004.34 21H1001.5L1002.8 13.68ZM1016.77 10.04C1016.32 10.04 1015.94 9.92 1015.65 9.68C1015.37 9.42667 1015.23 9.11333 1015.23 8.74C1015.23 8.16667 1015.42 7.7 1015.81 7.34C1016.21 6.98 1016.72 6.8 1017.33 6.8C1017.78 6.8 1018.15 6.92 1018.43 7.16C1018.71 7.4 1018.85 7.71333 1018.85 8.1C1018.85 8.67333 1018.66 9.14 1018.27 9.5C1017.88 9.86 1017.38 10.04 1016.77 10.04ZM1015.17 11H1018.01L1016.25 21H1013.41L1015.17 11ZM1019.82 13.68C1020.03 12.4 1020.16 11.5067 1020.2 11H1022.86C1022.82 11.7067 1022.76 12.2867 1022.68 12.74H1022.72C1023.08 12.1133 1023.56 11.6333 1024.16 11.3C1024.76 10.9667 1025.44 10.8 1026.22 10.8C1027.18 10.8 1027.9 11.0733 1028.4 11.62C1028.89 12.1533 1029.14 12.9333 1029.14 13.96C1029.14 14.44 1029.09 14.92 1029 15.4L1028.02 21H1025.18L1026.18 15.38C1026.23 14.98 1026.26 14.7133 1026.26 14.58C1026.26 13.5933 1025.79 13.1 1024.86 13.1C1024.2 13.1 1023.65 13.32 1023.2 13.76C1022.74 14.2 1022.45 14.7933 1022.32 15.54L1021.36 21H1018.52L1019.82 13.68ZM1041.08 11L1039.4 20.58C1038.8 24.0333 1036.83 25.76 1033.48 25.76C1032.67 25.76 1031.9 25.66 1031.18 25.46C1030.48 25.26 1029.89 24.9867 1029.42 24.64L1030.7 22.74C1031.13 22.98 1031.6 23.1733 1032.12 23.32C1032.66 23.4667 1033.16 23.54 1033.62 23.54C1034.46 23.54 1035.14 23.2667 1035.64 22.72C1036.16 22.1733 1036.52 21.3333 1036.72 20.2L1036.74 20.12C1036.1 20.72 1035.21 21.02 1034.06 21.02C1032.89 21.02 1031.96 20.6867 1031.28 20.02C1030.62 19.34 1030.28 18.4133 1030.28 17.24C1030.28 15.9733 1030.5 14.8533 1030.92 13.88C1031.35 12.9067 1031.95 12.1533 1032.72 11.62C1033.51 11.0733 1034.4 10.8 1035.4 10.8C1036.1 10.8 1036.7 10.92 1037.2 11.16C1037.71 11.4 1038.07 11.7467 1038.28 12.2H1038.32L1038.7 11H1041.08ZM1037.46 15.4C1037.5 15.1333 1037.52 14.9 1037.52 14.7C1037.52 14.1133 1037.38 13.6667 1037.08 13.36C1036.79 13.0533 1036.37 12.9 1035.82 12.9C1035.01 12.9 1034.36 13.28 1033.86 14.04C1033.38 14.7867 1033.14 15.76 1033.14 16.96C1033.14 18.2267 1033.72 18.86 1034.86 18.86C1035.52 18.86 1036.05 18.6667 1036.46 18.28C1036.88 17.88 1037.14 17.32 1037.26 16.6L1037.46 15.4ZM1053.29 21.18C1052.39 21.18 1051.6 20.9467 1050.91 20.48C1050.21 20 1049.67 19.3467 1049.27 18.52C1048.87 17.68 1048.67 16.72 1048.67 15.64C1048.67 14.5467 1048.86 13.5867 1049.25 12.76C1049.65 11.92 1050.19 11.2667 1050.89 10.8C1051.59 10.32 1052.41 10.08 1053.33 10.08C1053.81 10.08 1054.25 10.1467 1054.65 10.28C1055.05 10.4133 1055.4 10.6 1055.71 10.84C1056.01 11.08 1056.28 11.36 1056.51 11.68C1056.73 11.9867 1056.93 12.32 1057.09 12.68L1056.27 12.66V10.3H1060.25V21H1056.17V18.38L1057.07 18.46C1056.93 18.8467 1056.75 19.2067 1056.51 19.54C1056.28 19.8733 1056.01 20.16 1055.69 20.4C1055.37 20.64 1055.01 20.8333 1054.61 20.98C1054.21 21.1133 1053.77 21.18 1053.29 21.18ZM1054.45 17.88C1054.83 17.88 1055.16 17.7933 1055.43 17.62C1055.71 17.4467 1055.91 17.1933 1056.05 16.86C1056.19 16.5267 1056.27 16.12 1056.27 15.64C1056.27 15.16 1056.19 14.7533 1056.05 14.42C1055.91 14.0733 1055.71 13.8133 1055.43 13.64C1055.16 13.4667 1054.83 13.38 1054.45 13.38C1054.06 13.38 1053.73 13.4667 1053.47 13.64C1053.2 13.8133 1052.99 14.0733 1052.85 14.42C1052.71 14.7533 1052.65 15.16 1052.65 15.64C1052.65 16.12 1052.71 16.5267 1052.85 16.86C1052.99 17.1933 1053.2 17.4467 1053.47 17.62C1053.73 17.7933 1054.06 17.88 1054.45 17.88ZM1063.6 21V7.6H1067.66V21H1063.6ZM1061.94 13.7V10.3H1069.42V13.7H1061.94ZM8.48 46.2C7.36 46.2 6.32667 46.02 5.38 45.66C4.44667 45.3 3.63333 44.8 2.94 44.16C2.26 43.5067 1.73333 42.7333 1.36 41.84C0.986667 40.9467 0.8 39.9667 0.8 38.9C0.8 37.8333 0.986667 36.8533 1.36 35.96C1.74667 35.0667 2.28667 34.3 2.98 33.66C3.67333 33.0067 4.49333 32.5 5.44 32.14C6.4 31.78 7.45333 31.6 8.6 31.6C9.25333 31.6 9.89333 31.68 10.52 31.84C11.16 31.9867 11.76 32.22 12.32 32.54C12.8933 32.8467 13.4133 33.24 13.88 33.72L11.3 36.74C11.1133 36.5133 10.8867 36.3067 10.62 36.12C10.3667 35.9333 10.0667 35.7867 9.72 35.68C9.38667 35.56 9 35.5 8.56 35.5C8.10667 35.5 7.67333 35.58 7.26 35.74C6.86 35.8867 6.50667 36.1067 6.2 36.4C5.90667 36.6933 5.67333 37.0533 5.5 37.48C5.32667 37.9067 5.24 38.4 5.24 38.96C5.24 39.4667 5.32667 39.9267 5.5 40.34C5.67333 40.7533 5.92 41.1067 6.24 41.4C6.56 41.6933 6.94667 41.92 7.4 42.08C7.85333 42.24 8.36 42.32 8.92 42.32C9.32 42.32 9.7 42.26 10.06 42.14C10.42 42.02 10.7467 41.8667 11.04 41.68C11.3333 41.48 11.5867 41.26 11.8 41.02L13.86 44.26C13.5133 44.6333 13.0533 44.9667 12.48 45.26C11.9067 45.5533 11.2733 45.7867 10.58 45.96C9.88667 46.12 9.18667 46.2 8.48 46.2ZM24.0416 46V32H28.3616V46H24.0416ZM15.7016 46V32H20.0216V46H15.7016ZM17.3216 40.9L17.3416 37.14H26.4816V40.9H17.3216ZM31.4609 46V42.5H33.9209V35.5H31.4609V32H40.7009V35.5H38.2409V42.5H40.7009V46H31.4609ZM42.887 46L42.207 44.36L46.147 40.16C46.387 39.9067 46.647 39.62 46.927 39.3C47.207 38.9667 47.4804 38.6267 47.747 38.28C48.0137 37.9333 48.227 37.6 48.387 37.28C48.5604 36.96 48.647 36.68 48.647 36.44C48.647 36.3067 48.607 36.18 48.527 36.06C48.447 35.9267 48.3204 35.82 48.147 35.74C47.987 35.6467 47.767 35.6 47.487 35.6C47.2337 35.6 47.0004 35.6533 46.787 35.76C46.587 35.8667 46.3804 36.0467 46.167 36.3C45.967 36.54 45.747 36.8667 45.507 37.28L42.367 35.68C42.6737 34.9067 43.107 34.2133 43.667 33.6C44.227 32.9733 44.867 32.48 45.587 32.12C46.3204 31.76 47.087 31.5867 47.887 31.6C48.7404 31.6133 49.5204 31.8 50.227 32.16C50.9337 32.5067 51.5004 32.9933 51.927 33.62C52.3537 34.2467 52.567 34.98 52.567 35.82C52.567 36.0867 52.5337 36.3667 52.467 36.66C52.4137 36.9533 52.3204 37.26 52.187 37.58C52.067 37.9 51.9004 38.2467 51.687 38.62C51.4737 38.98 51.2137 39.3667 50.907 39.78C50.6004 40.18 50.2404 40.6067 49.827 41.06L46.647 44.52L46.247 42.32H53.327V46H42.887ZM60.4041 46.2C59.0041 46.2 57.8174 45.92 56.8441 45.36C55.8707 44.8 55.1307 43.9867 54.6241 42.92C54.1174 41.84 53.8641 40.5333 53.8641 39C53.8641 37.4667 54.1174 36.1667 54.6241 35.1C55.1307 34.02 55.8707 33.2 56.8441 32.64C57.8174 32.08 59.0041 31.8 60.4041 31.8C61.8041 31.8 62.9907 32.08 63.9641 32.64C64.9507 33.2 65.6974 34.02 66.2041 35.1C66.7107 36.1667 66.9641 37.4667 66.9641 39C66.9641 40.5333 66.7107 41.84 66.2041 42.92C65.6974 43.9867 64.9507 44.8 63.9641 45.36C62.9907 45.92 61.8041 46.2 60.4041 46.2ZM60.4041 42.64C61.1907 42.64 61.7974 42.3267 62.2241 41.7C62.6507 41.0733 62.8641 40.1733 62.8641 39C62.8641 37.76 62.6507 36.8133 62.2241 36.16C61.7974 35.4933 61.1907 35.16 60.4041 35.16C59.6174 35.16 59.0107 35.4933 58.5841 36.16C58.1574 36.8133 57.9441 37.76 57.9441 39C57.9441 40.1733 58.1574 41.0733 58.5841 41.7C59.0107 42.3267 59.6174 42.64 60.4041 42.64ZM68.3363 46L67.6562 44.36L71.5963 40.16C71.8363 39.9067 72.0963 39.62 72.3763 39.3C72.6563 38.9667 72.9296 38.6267 73.1963 38.28C73.4629 37.9333 73.6763 37.6 73.8363 37.28C74.0096 36.96 74.0963 36.68 74.0963 36.44C74.0963 36.3067 74.0563 36.18 73.9763 36.06C73.8963 35.9267 73.7696 35.82 73.5963 35.74C73.4363 35.6467 73.2163 35.6 72.9362 35.6C72.6829 35.6 72.4496 35.6533 72.2363 35.76C72.0363 35.8667 71.8296 36.0467 71.6163 36.3C71.4163 36.54 71.1963 36.8667 70.9563 37.28L67.8163 35.68C68.1229 34.9067 68.5563 34.2133 69.1163 33.6C69.6763 32.9733 70.3163 32.48 71.0363 32.12C71.7696 31.76 72.5363 31.5867 73.3363 31.6C74.1896 31.6133 74.9696 31.8 75.6763 32.16C76.3829 32.5067 76.9496 32.9933 77.3763 33.62C77.8029 34.2467 78.0163 34.98 78.0163 35.82C78.0163 36.0867 77.9829 36.3667 77.9163 36.66C77.8629 36.9533 77.7696 37.26 77.6363 37.58C77.5163 37.9 77.3496 38.2467 77.1363 38.62C76.9229 38.98 76.6629 39.3667 76.3563 39.78C76.0496 40.18 75.6896 40.6067 75.2763 41.06L72.0963 44.52L71.6963 42.32H78.7763V46H68.3363ZM85.1627 46V34.64H87.9627L82.5627 41.26L81.7827 40.4H91.4827V43.8H80.1427L78.4227 40.56L85.7827 31.8H89.3427V46H85.1627Z" fill="#AAAAAA"/>
<path d="M51.352 97V85.8H54.072V97H51.352ZM44.408 97V85.8H47.128V97H44.408ZM45.464 92.632L45.48 90.2H52.792V92.632H45.464ZM59.7408 97.144C59.0261 97.144 58.3861 96.9573 57.8207 96.584C57.2661 96.2 56.8234 95.6773 56.4928 95.016C56.1621 94.344 55.9967 93.5867 55.9967 92.744C55.9967 91.88 56.1621 91.1173 56.4928 90.456C56.8234 89.7947 57.2768 89.2773 57.8528 88.904C58.4288 88.52 59.0848 88.328 59.8208 88.328C60.2261 88.328 60.5941 88.3867 60.9248 88.504C61.2661 88.6213 61.5648 88.7867 61.8208 89C62.0768 89.2027 62.2954 89.4427 62.4768 89.72C62.6581 89.9867 62.7914 90.2747 62.8768 90.584L62.3488 90.52V88.504H64.8928V97H62.3008V94.952L62.8768 94.936C62.7914 95.2347 62.6528 95.5173 62.4608 95.784C62.2688 96.0507 62.0341 96.2853 61.7568 96.488C61.4794 96.6907 61.1701 96.8507 60.8288 96.968C60.4874 97.0853 60.1248 97.144 59.7408 97.144ZM60.4448 94.984C60.8394 94.984 61.1808 94.8933 61.4688 94.712C61.7568 94.5307 61.9808 94.2747 62.1408 93.944C62.3008 93.6027 62.3808 93.2027 62.3808 92.744C62.3808 92.2853 62.3008 91.8907 62.1408 91.56C61.9808 91.2187 61.7568 90.9573 61.4688 90.776C61.1808 90.584 60.8394 90.488 60.4448 90.488C60.0608 90.488 59.7248 90.584 59.4368 90.776C59.1594 90.9573 58.9408 91.2187 58.7808 91.56C58.6208 91.8907 58.5408 92.2853 58.5408 92.744C58.5408 93.2027 58.6208 93.6027 58.7808 93.944C58.9408 94.2747 59.1594 94.5307 59.4368 94.712C59.7248 94.8933 60.0608 94.984 60.4448 94.984ZM68.9139 97L66.1139 88.504H68.8179L70.3859 94.024L70.0499 93.96L71.8099 89.672H73.3139L75.1699 93.976L74.8019 94.008L76.3699 88.504H79.0739L76.1779 97H74.2899L72.4499 92.44L72.6419 92.472L70.8019 97H68.9139ZM83.3033 97.144C82.5886 97.144 81.9486 96.9573 81.3832 96.584C80.8286 96.2 80.3859 95.6773 80.0553 95.016C79.7246 94.344 79.5592 93.5867 79.5592 92.744C79.5592 91.88 79.7246 91.1173 80.0553 90.456C80.3859 89.7947 80.8393 89.2773 81.4153 88.904C81.9913 88.52 82.6473 88.328 83.3833 88.328C83.7886 88.328 84.1566 88.3867 84.4873 88.504C84.8286 88.6213 85.1273 88.7867 85.3833 89C85.6393 89.2027 85.8579 89.4427 86.0393 89.72C86.2206 89.9867 86.3539 90.2747 86.4393 90.584L85.9113 90.52V88.504H88.4553V97H85.8633V94.952L86.4393 94.936C86.3539 95.2347 86.2153 95.5173 86.0233 95.784C85.8313 96.0507 85.5966 96.2853 85.3193 96.488C85.0419 96.6907 84.7326 96.8507 84.3913 96.968C84.0499 97.0853 83.6873 97.144 83.3033 97.144ZM84.0073 94.984C84.4019 94.984 84.7433 94.8933 85.0313 94.712C85.3193 94.5307 85.5433 94.2747 85.7033 93.944C85.8633 93.6027 85.9433 93.2027 85.9433 92.744C85.9433 92.2853 85.8633 91.8907 85.7033 91.56C85.5433 91.2187 85.3193 90.9573 85.0313 90.776C84.7433 90.584 84.4019 90.488 84.0073 90.488C83.6233 90.488 83.2873 90.584 82.9993 90.776C82.7219 90.9573 82.5033 91.2187 82.3433 91.56C82.1833 91.8907 82.1033 92.2853 82.1033 92.744C82.1033 93.2027 82.1833 93.6027 82.3433 93.944C82.5033 94.2747 82.7219 94.5307 82.9993 94.712C83.2873 94.8933 83.6233 94.984 84.0073 94.984ZM90.8581 97V88.504H93.4181V97H90.8581ZM92.1381 86.824C91.6581 86.824 91.2795 86.712 91.0021 86.488C90.7355 86.2533 90.6021 85.9227 90.6021 85.496C90.6021 85.112 90.7408 84.7973 91.0181 84.552C91.2955 84.3067 91.6688 84.184 92.1381 84.184C92.6181 84.184 92.9915 84.3013 93.2581 84.536C93.5248 84.76 93.6581 85.08 93.6581 85.496C93.6581 85.8907 93.5195 86.2107 93.2421 86.456C92.9755 86.7013 92.6075 86.824 92.1381 86.824ZM95.9675 97V88.504H98.5275V97H95.9675ZM97.2475 86.824C96.7675 86.824 96.3888 86.712 96.1115 86.488C95.8448 86.2533 95.7115 85.9227 95.7115 85.496C95.7115 85.112 95.8502 84.7973 96.1275 84.552C96.4048 84.3067 96.7782 84.184 97.2475 84.184C97.7275 84.184 98.1008 84.3013 98.3675 84.536C98.6342 84.76 98.7675 85.08 98.7675 85.496C98.7675 85.8907 98.6288 86.2107 98.3515 86.456C98.0848 86.7013 97.7168 86.824 97.2475 86.824ZM101.157 100.2L100.421 99.288C100.848 99.096 101.189 98.8507 101.445 98.552C101.701 98.264 101.829 98.0133 101.829 97.8C101.829 97.704 101.802 97.5973 101.749 97.48C101.706 97.3733 101.589 97.2507 101.397 97.112C101.152 96.9307 100.986 96.7547 100.901 96.584C100.816 96.4027 100.773 96.2053 100.773 95.992C100.773 95.6613 100.89 95.4 101.125 95.208C101.37 95.016 101.685 94.92 102.069 94.92C102.378 94.92 102.656 95.0053 102.901 95.176C103.157 95.3467 103.354 95.5813 103.493 95.88C103.642 96.1787 103.717 96.5253 103.717 96.92C103.717 97.2827 103.653 97.6293 103.525 97.96C103.397 98.3013 103.216 98.616 102.981 98.904C102.757 99.2027 102.485 99.464 102.165 99.688C101.856 99.912 101.52 100.083 101.157 100.2ZM115.644 97.096C114.716 97.096 113.889 96.9093 113.164 96.536C112.438 96.152 111.868 95.6293 111.452 94.968C111.046 94.3067 110.844 93.5493 110.844 92.696V85.8H113.596V92.552C113.596 92.9573 113.686 93.3253 113.868 93.656C114.049 93.976 114.294 94.232 114.604 94.424C114.913 94.6053 115.26 94.696 115.644 94.696C116.049 94.696 116.406 94.6053 116.716 94.424C117.036 94.232 117.292 93.976 117.484 93.656C117.676 93.3253 117.772 92.9573 117.772 92.552V85.8H120.428V92.696C120.428 93.5493 120.22 94.3067 119.804 94.968C119.398 95.6293 118.833 96.152 118.108 96.536C117.382 96.9093 116.561 97.096 115.644 97.096ZM123.798 97.176C123.361 97.176 123.019 97.0533 122.774 96.808C122.539 96.5627 122.422 96.2107 122.422 95.752C122.422 95.3253 122.55 94.9787 122.806 94.712C123.062 94.4453 123.393 94.312 123.798 94.312C124.235 94.312 124.577 94.44 124.822 94.696C125.067 94.9413 125.19 95.2933 125.19 95.752C125.19 96.168 125.062 96.5093 124.806 96.776C124.55 97.0427 124.214 97.176 123.798 97.176ZM130.979 97.16C130.243 97.16 129.577 97.0747 128.979 96.904C128.393 96.7227 127.87 96.4667 127.411 96.136C126.953 95.7947 126.542 95.3947 126.179 94.936L127.827 93.064C128.361 93.7787 128.894 94.2587 129.427 94.504C129.971 94.7493 130.531 94.872 131.107 94.872C131.395 94.872 131.657 94.8347 131.891 94.76C132.126 94.6853 132.307 94.5787 132.435 94.44C132.563 94.2907 132.627 94.1093 132.627 93.896C132.627 93.736 132.585 93.592 132.499 93.464C132.425 93.336 132.318 93.224 132.179 93.128C132.041 93.032 131.875 92.9467 131.683 92.872C131.491 92.7867 131.289 92.7173 131.075 92.664C130.862 92.6 130.643 92.5467 130.419 92.504C129.801 92.3653 129.262 92.1947 128.803 91.992C128.345 91.7893 127.961 91.544 127.651 91.256C127.353 90.9573 127.129 90.6213 126.979 90.248C126.83 89.864 126.755 89.4373 126.755 88.968C126.755 88.4667 126.867 88.008 127.091 87.592C127.326 87.1653 127.635 86.8027 128.019 86.504C128.414 86.1947 128.867 85.96 129.379 85.8C129.891 85.6293 130.425 85.544 130.979 85.544C131.715 85.544 132.345 85.624 132.867 85.784C133.401 85.9333 133.854 86.152 134.227 86.44C134.611 86.728 134.937 87.0747 135.203 87.48L133.523 89.096C133.299 88.8187 133.054 88.5893 132.787 88.408C132.531 88.2267 132.254 88.088 131.955 87.992C131.667 87.896 131.369 87.848 131.059 87.848C130.739 87.848 130.462 87.8907 130.227 87.976C130.003 88.0507 129.827 88.1627 129.699 88.312C129.571 88.4507 129.507 88.6213 129.507 88.824C129.507 89.0053 129.561 89.16 129.667 89.288C129.774 89.416 129.918 89.5333 130.099 89.64C130.281 89.736 130.489 89.8213 130.723 89.896C130.958 89.96 131.203 90.0133 131.459 90.056C132.046 90.1733 132.574 90.328 133.043 90.52C133.523 90.712 133.934 90.9467 134.275 91.224C134.627 91.5013 134.894 91.832 135.075 92.216C135.267 92.5893 135.363 93.0267 135.363 93.528C135.363 94.3067 135.171 94.968 134.787 95.512C134.414 96.0453 133.897 96.456 133.235 96.744C132.585 97.0213 131.833 97.16 130.979 97.16ZM138.048 97.176C137.611 97.176 137.269 97.0533 137.024 96.808C136.789 96.5627 136.672 96.2107 136.672 95.752C136.672 95.3253 136.8 94.9787 137.056 94.712C137.312 94.4453 137.643 94.312 138.048 94.312C138.485 94.312 138.827 94.44 139.072 94.696C139.317 94.9413 139.44 95.2933 139.44 95.752C139.44 96.168 139.312 96.5093 139.056 96.776C138.8 97.0427 138.464 97.176 138.048 97.176Z" fill="#747474"/>
<path d="M992.918 97.112C992.076 97.112 991.308 96.9413 990.614 96.6C989.932 96.2587 989.366 95.768 988.918 95.128L990.374 93.528C990.812 94.008 991.217 94.3387 991.59 94.52C991.964 94.6907 992.38 94.776 992.838 94.776C993.18 94.776 993.484 94.7067 993.75 94.568C994.017 94.4293 994.225 94.2373 994.374 93.992C994.534 93.736 994.614 93.4533 994.614 93.144C994.614 92.824 994.534 92.5413 994.374 92.296C994.225 92.04 994.017 91.8373 993.75 91.688C993.494 91.5387 993.196 91.464 992.854 91.464C992.609 91.464 992.38 91.4853 992.166 91.528C991.953 91.5707 991.724 91.6453 991.478 91.752C991.244 91.848 990.961 91.992 990.63 92.184L989.478 90.648L990.166 85.704H996.598V87.992H991.462L992.166 87.096L991.638 90.648L990.678 90.328C990.881 90.1467 991.126 89.9867 991.414 89.848C991.713 89.7093 992.033 89.5973 992.374 89.512C992.716 89.416 993.057 89.368 993.398 89.368C994.102 89.368 994.732 89.5333 995.286 89.864C995.852 90.184 996.3 90.632 996.63 91.208C996.961 91.784 997.126 92.4453 997.126 93.192C997.126 93.928 996.94 94.5947 996.566 95.192C996.193 95.7787 995.692 96.248 995.062 96.6C994.433 96.9413 993.718 97.112 992.918 97.112ZM997.425 99.272L1004.08 85.8H1006.62L1000 99.272H997.425ZM1009.7 96.216V87.128L1010.3 88.488L1007.9 89.624L1007.43 87.192L1010.62 85.64H1012.38V96.216H1009.7ZM1007.66 97V94.6H1014.47V97H1007.66ZM1019.81 97.112C1018.97 97.112 1018.2 96.9413 1017.5 96.6C1016.82 96.2587 1016.26 95.768 1015.81 95.128L1017.26 93.528C1017.7 94.008 1018.11 94.3387 1018.48 94.52C1018.85 94.6907 1019.27 94.776 1019.73 94.776C1020.07 94.776 1020.37 94.7067 1020.64 94.568C1020.91 94.4293 1021.12 94.2373 1021.26 93.992C1021.42 93.736 1021.5 93.4533 1021.5 93.144C1021.5 92.824 1021.42 92.5413 1021.26 92.296C1021.12 92.04 1020.91 91.8373 1020.64 91.688C1020.38 91.5387 1020.09 91.464 1019.74 91.464C1019.5 91.464 1019.27 91.4853 1019.06 91.528C1018.84 91.5707 1018.61 91.6453 1018.37 91.752C1018.13 91.848 1017.85 91.992 1017.52 92.184L1016.37 90.648L1017.06 85.704H1023.49V87.992H1018.35L1019.06 87.096L1018.53 90.648L1017.57 90.328C1017.77 90.1467 1018.02 89.9867 1018.3 89.848C1018.6 89.7093 1018.92 89.5973 1019.26 89.512C1019.61 89.416 1019.95 89.368 1020.29 89.368C1020.99 89.368 1021.62 89.5333 1022.18 89.864C1022.74 90.184 1023.19 90.632 1023.52 91.208C1023.85 91.784 1024.02 92.4453 1024.02 93.192C1024.02 93.928 1023.83 94.5947 1023.46 95.192C1023.08 95.7787 1022.58 96.248 1021.95 96.6C1021.32 96.9413 1020.61 97.112 1019.81 97.112ZM1024.32 99.272L1030.97 85.8H1033.52L1026.89 99.272H1024.32ZM1034.16 97L1033.63 95.688L1036.9 92.12C1037.08 91.9173 1037.28 91.688 1037.49 91.432C1037.7 91.176 1037.91 90.9147 1038.11 90.648C1038.32 90.3707 1038.48 90.104 1038.59 89.848C1038.72 89.592 1038.79 89.3573 1038.79 89.144C1038.79 88.9307 1038.74 88.744 1038.64 88.584C1038.55 88.424 1038.41 88.3013 1038.23 88.216C1038.05 88.12 1037.82 88.072 1037.54 88.072C1037.29 88.072 1037.06 88.136 1036.83 88.264C1036.61 88.3813 1036.4 88.568 1036.19 88.824C1036 89.08 1035.82 89.3947 1035.65 89.768L1033.63 88.68C1033.86 88.0613 1034.17 87.5173 1034.58 87.048C1034.99 86.568 1035.48 86.2 1036.03 85.944C1036.59 85.6773 1037.18 85.544 1037.81 85.544C1038.47 85.5547 1039.07 85.6987 1039.6 85.976C1040.14 86.2427 1040.56 86.6213 1040.87 87.112C1041.19 87.592 1041.35 88.1573 1041.35 88.808C1041.35 89.032 1041.32 89.2667 1041.27 89.512C1041.21 89.7573 1041.13 90.0133 1041.03 90.28C1040.92 90.536 1040.78 90.8133 1040.59 91.112C1040.42 91.4 1040.22 91.704 1039.97 92.024C1039.73 92.344 1039.44 92.6853 1039.11 93.048L1036.56 95.816L1036.24 94.6H1041.84V97H1034.16ZM1047.38 97.16C1046.37 97.16 1045.52 96.9307 1044.8 96.472C1044.1 96.0133 1043.56 95.3573 1043.18 94.504C1042.81 93.64 1042.62 92.6053 1042.62 91.4C1042.62 90.1947 1042.81 89.1653 1043.18 88.312C1043.56 87.448 1044.1 86.7867 1044.8 86.328C1045.52 85.8693 1046.37 85.64 1047.38 85.64C1048.38 85.64 1049.24 85.8693 1049.95 86.328C1050.67 86.7867 1051.21 87.448 1051.58 88.312C1051.96 89.1653 1052.14 90.1947 1052.14 91.4C1052.14 92.6053 1051.96 93.64 1051.58 94.504C1051.21 95.3573 1050.67 96.0133 1049.95 96.472C1049.24 96.9307 1048.38 97.16 1047.38 97.16ZM1047.38 94.856C1048.07 94.856 1048.6 94.5573 1048.98 93.96C1049.36 93.3627 1049.55 92.5093 1049.55 91.4C1049.55 90.2587 1049.36 89.384 1048.98 88.776C1048.6 88.1573 1048.07 87.848 1047.38 87.848C1046.68 87.848 1046.14 88.1573 1045.76 88.776C1045.39 89.384 1045.2 90.2587 1045.2 91.4C1045.2 92.5093 1045.39 93.3627 1045.76 93.96C1046.14 94.5573 1046.68 94.856 1047.38 94.856ZM1053.73 97L1053.2 95.688L1056.46 92.12C1056.64 91.9173 1056.84 91.688 1057.05 91.432C1057.27 91.176 1057.47 90.9147 1057.68 90.648C1057.88 90.3707 1058.04 90.104 1058.16 89.848C1058.29 89.592 1058.35 89.3573 1058.35 89.144C1058.35 88.9307 1058.3 88.744 1058.21 88.584C1058.11 88.424 1057.97 88.3013 1057.79 88.216C1057.61 88.12 1057.38 88.072 1057.1 88.072C1056.86 88.072 1056.62 88.136 1056.4 88.264C1056.17 88.3813 1055.96 88.568 1055.76 88.824C1055.57 89.08 1055.38 89.3947 1055.21 89.768L1053.2 88.68C1053.42 88.0613 1053.74 87.5173 1054.14 87.048C1054.56 86.568 1055.04 86.2 1055.6 85.944C1056.15 85.6773 1056.74 85.544 1057.37 85.544C1058.03 85.5547 1058.63 85.6987 1059.17 85.976C1059.7 86.2427 1060.12 86.6213 1060.43 87.112C1060.75 87.592 1060.91 88.1573 1060.91 88.808C1060.91 89.032 1060.88 89.2667 1060.83 89.512C1060.78 89.7573 1060.7 90.0133 1060.59 90.28C1060.48 90.536 1060.34 90.8133 1060.16 91.112C1059.99 91.4 1059.78 91.704 1059.53 92.024C1059.29 92.344 1059 92.6853 1058.67 93.048L1056.13 95.816L1055.81 94.6H1061.41V97H1053.73ZM1066.14 97.16C1065.23 97.16 1064.44 96.9733 1063.75 96.6C1063.08 96.216 1062.47 95.56 1061.91 94.632L1063.87 93.368C1064.1 93.7413 1064.34 94.04 1064.59 94.264C1064.84 94.488 1065.1 94.6533 1065.37 94.76C1065.65 94.856 1065.94 94.904 1066.23 94.904C1066.53 94.904 1066.81 94.84 1067.05 94.712C1067.31 94.5733 1067.51 94.3813 1067.66 94.136C1067.82 93.8907 1067.9 93.6133 1067.9 93.304C1067.9 92.9733 1067.83 92.696 1067.69 92.472C1067.56 92.2373 1067.37 92.0613 1067.11 91.944C1066.87 91.8267 1066.57 91.768 1066.22 91.768C1066.06 91.768 1065.89 91.7893 1065.71 91.832C1065.53 91.864 1065.33 91.912 1065.13 91.976C1064.93 92.04 1064.72 92.1253 1064.51 92.232L1063.91 90.648L1066.63 87.688L1067.37 88.088L1062.7 87.992V85.704H1069.58L1070.07 86.696L1066.38 90.664L1065.74 89.912C1065.82 89.8693 1065.96 89.832 1066.15 89.8C1066.36 89.7573 1066.55 89.736 1066.73 89.736C1067.23 89.736 1067.7 89.8267 1068.14 90.008C1068.58 90.1893 1068.97 90.44 1069.31 90.76C1069.65 91.08 1069.91 91.4587 1070.11 91.896C1070.3 92.3227 1070.39 92.7813 1070.39 93.272C1070.39 94.0187 1070.2 94.6853 1069.82 95.272C1069.45 95.848 1068.93 96.3067 1068.28 96.648C1067.64 96.9893 1066.93 97.16 1066.14 97.16Z" fill="#747474"/>
<g clip-path="url(#clip0_3359_154)">
<path fill-rule="evenodd" clip-rule="evenodd" d="M4.65 95.8C4.71986 95.7069 4.81045 95.6313 4.91459 95.5792C5.01873 95.5271 5.13357 95.5 5.25 95.5H9C9.19891 95.5 9.38968 95.579 9.53033 95.7197C9.67098 95.8603 9.75 96.0511 9.75 96.25C9.75 96.4489 9.67098 96.6397 9.53033 96.7803C9.38968 96.921 9.19891 97 9 97H5.625L2.25 101.5H21.75L18.375 97H15C14.8011 97 14.6103 96.921 14.4697 96.7803C14.329 96.6397 14.25 96.4489 14.25 96.25C14.25 96.0511 14.329 95.8603 14.4697 95.7197C14.6103 95.579 14.8011 95.5 15 95.5H18.75C18.8664 95.5 18.9813 95.5271 19.0854 95.5792C19.1896 95.6313 19.2801 95.7069 19.35 95.8L23.85 101.8C23.9336 101.911 23.9845 102.044 23.997 102.183C24.0095 102.321 23.9831 102.461 23.9208 102.585C23.8585 102.71 23.7628 102.815 23.6443 102.888C23.5258 102.961 23.3893 103 23.25 103H0.75C0.610716 103 0.474184 102.961 0.355702 102.888C0.23722 102.815 0.14147 102.71 0.07918 102.585C0.0168903 102.461 -0.00947761 102.321 0.00303087 102.183C0.0155393 102.044 0.06643 101.911 0.15 101.8L4.65 95.8Z" fill="black"/>
<path fill-rule="evenodd" clip-rule="evenodd" d="M6 85.0001C6.00011 83.8454 6.33339 82.7153 6.95984 81.7453C7.5863 80.7754 8.47932 80.0068 9.53176 79.5318C10.5842 79.0568 11.7513 78.8956 12.8931 79.0675C14.0349 79.2393 15.1029 79.737 15.9688 80.5008C16.8348 81.2646 17.462 82.262 17.7751 83.3734C18.0883 84.4848 18.0741 85.6629 17.7343 86.7664C17.3945 87.87 16.7434 88.852 15.8593 89.5947C14.9752 90.3374 13.8956 90.8092 12.75 90.9536V99.2501C12.75 99.449 12.671 99.6397 12.5303 99.7804C12.3897 99.921 12.1989 100 12 100C11.8011 100 11.6103 99.921 11.4697 99.7804C11.329 99.6397 11.25 99.449 11.25 99.2501V90.9551C9.79945 90.7723 8.46553 90.0662 7.49882 88.9694C6.53211 87.8726 5.99913 86.4606 6 84.9986V85.0001Z" fill="black"/>
</g>
<defs>
<clipPath id="clip0_3359_154">
<rect width="24" height="24" fill="white" transform="translate(0 79)"/>
</clipPath>
</defs>
</svg>
