<svg width="38" height="38" viewBox="0 0 38 38" fill="none" xmlns="http://www.w3.org/2000/svg">
<g clip-path="url(#clip0)">
<path d="M0 35.8028V2.23058C0.0359606 2.15778 0.0650026 2.08176 0.0867428 2.00351C0.15347 1.51874 0.3767 1.06908 0.722422 0.723057C1.06814 0.377031 1.51741 0.153604 2.00176 0.086819C2.07993 0.0650597 2.15589 0.0359922 2.22862 0L35.7714 0C35.8556 0.0378658 35.9426 0.0691257 36.0316 0.0934974C36.5073 0.168919 36.9462 0.395214 37.2838 0.739064C37.6213 1.08291 37.8396 1.52615 37.9066 2.00351C37.9319 2.08581 37.9631 2.16616 38 2.24394V35.8028C37.9699 35.8429 37.9472 35.8882 37.9333 35.9364C37.5262 37.4323 36.7856 38 35.2176 38H2.55557C1.96808 38.0364 1.38834 37.8507 0.931134 37.4797C0.473922 37.1087 0.172571 36.5793 0.0867428 35.9965C0.0614121 35.9304 0.0324537 35.8657 0 35.8028H0ZM29.6927 29.7188C29.6985 29.6165 29.6985 29.5139 29.6927 29.4116C29.6927 26.1926 29.7261 22.9736 29.6927 19.7613C29.6572 18.6888 29.5073 17.6231 29.2457 16.5824C29.0995 15.7753 28.7201 15.0288 28.1544 14.4353C27.5887 13.8418 26.8615 13.4273 26.0629 13.2432C25.144 13.0334 24.1956 12.9859 23.2604 13.103C21.9259 13.2299 20.7449 13.5772 20.191 15.0063V13.0763H15.4402V29.7121H20.2177V20.5494C20.2242 20.2164 20.251 19.8841 20.2978 19.5543C20.3497 19.1445 20.5366 18.7636 20.8291 18.4721C21.1216 18.1806 21.5029 17.995 21.9126 17.9448C22.3375 17.8847 22.7687 17.8847 23.1937 17.9448C23.5672 17.9806 23.9199 18.1335 24.2015 18.3818C24.483 18.63 24.6791 18.9609 24.7617 19.3272C24.8513 19.6742 24.8984 20.0308 24.9018 20.3891C24.9018 23.3454 24.9018 26.3039 24.9018 29.2647V29.7188H29.6927ZM13.0581 29.7188V13.0629H8.31396V29.7188H13.0581ZM10.676 7.09912C10.3577 7.09004 10.0409 7.14565 9.74473 7.26258C9.44852 7.37952 9.17908 7.55534 8.95268 7.77944C8.72629 8.00354 8.54764 8.27125 8.42754 8.5664C8.30743 8.86156 8.24837 9.17802 8.25391 9.49666C8.28084 10.1138 8.54343 10.697 8.98748 11.1261C9.43154 11.5551 10.0232 11.7971 10.6403 11.8023C11.2575 11.8074 11.8531 11.5752 12.3042 11.1537C12.7554 10.7321 13.0276 10.1533 13.0648 9.53673C13.0757 9.21764 13.0217 8.89965 12.9061 8.60207C12.7905 8.30449 12.6157 8.03351 12.3923 7.80557C12.169 7.57763 11.9016 7.39747 11.6066 7.27604C11.3116 7.1546 10.995 7.09441 10.676 7.09912Z" fill="black"/>
</g>
<defs>
<clipPath id="clip0">
<rect width="38" height="38" fill="white"/>
</clipPath>
</defs>
</svg>
