<svg width="97" height="25" viewBox="0 0 97 25" fill="none" xmlns="http://www.w3.org/2000/svg">
<path d="M0.56 24V1.6H6.736L17.04 15.84L15.568 15.392C15.4613 14.5387 15.3653 13.792 15.28 13.152C15.216 12.512 15.152 11.9253 15.088 11.392C15.0453 10.8373 15.0027 10.2933 14.96 9.76C14.9387 9.22667 14.928 8.64 14.928 8C14.928 7.36 14.928 6.61333 14.928 5.76V1.6H21.584V24H15.344L3.984 8.32L6.576 9.088C6.68267 9.87733 6.768 10.5707 6.832 11.168C6.91733 11.744 6.98133 12.2773 7.024 12.768C7.06667 13.2587 7.09867 13.7493 7.12 14.24C7.16267 14.7093 7.184 15.2427 7.184 15.84C7.20533 16.416 7.216 17.0987 7.216 17.888V24H0.56ZM26.7163 24V1.6H43.4523V7.2H33.3403V18.4H44.0283V24H26.7163ZM30.0123 15.296V10.048H42.2683V15.296H30.0123ZM51.5793 24L45.2112 1.6H52.1233L54.7473 11.712C54.9179 12.3733 55.0566 13.0133 55.1633 13.632C55.2913 14.2293 55.3873 14.784 55.4513 15.296C55.5153 15.808 55.5579 16.2773 55.5793 16.704C55.6219 17.1307 55.6433 17.4933 55.6433 17.792H55.1313C55.1313 17.2587 55.1419 16.6933 55.1633 16.096C55.2059 15.4773 55.2913 14.816 55.4193 14.112C55.5473 13.3867 55.7606 12.5867 56.0593 11.712L58.8433 3.808H64.1233L66.9073 11.712C67.2059 12.5653 67.4406 13.3547 67.6113 14.08C67.7819 14.784 67.8993 15.4453 67.9633 16.064C68.0486 16.6613 68.0913 17.2373 68.0913 17.792H67.6113C67.6113 17.536 67.6113 17.248 67.6113 16.928C67.6113 16.608 67.6113 16.256 67.6113 15.872C67.6326 15.488 67.6646 15.0827 67.7073 14.656C67.7499 14.208 67.8139 13.7387 67.8993 13.248C67.9846 12.7573 68.0913 12.2453 68.2193 11.712L70.8433 1.6H77.5312L71.0993 24H65.6593L60.7953 11.936H61.6593L57.3393 24H51.5793ZM87.3063 24.32C85.6209 24.32 84.1276 24.1387 82.8263 23.776C81.5463 23.392 80.4156 22.8587 79.4343 22.176C78.4743 21.4933 77.6103 20.6933 76.8422 19.776L80.8423 15.296C81.9089 16.6613 83.0183 17.568 84.1703 18.016C85.3436 18.4427 86.4423 18.656 87.4663 18.656C87.8716 18.656 88.2343 18.624 88.5543 18.56C88.8743 18.4747 89.1196 18.3467 89.2903 18.176C89.4609 18.0053 89.5463 17.7707 89.5463 17.472C89.5463 17.1947 89.4503 16.96 89.2583 16.768C89.0876 16.576 88.8529 16.416 88.5543 16.288C88.2556 16.1387 87.9249 16.0213 87.5623 15.936C87.2209 15.8293 86.8796 15.744 86.5383 15.68C86.2183 15.616 85.9303 15.552 85.6743 15.488C84.3943 15.1893 83.2743 14.8267 82.3143 14.4C81.3543 13.9733 80.5543 13.4613 79.9143 12.864C79.2743 12.2667 78.7943 11.584 78.4743 10.816C78.1756 10.048 78.0263 9.184 78.0263 8.224C78.0263 7.136 78.2716 6.144 78.7623 5.248C79.2743 4.352 79.9463 3.584 80.7783 2.944C81.6316 2.304 82.5916 1.81333 83.6583 1.472C84.7463 1.13067 85.8663 0.959999 87.0183 0.959999C88.7036 0.959999 90.1116 1.12 91.2423 1.44C92.3729 1.73867 93.3223 2.176 94.0903 2.752C94.8583 3.328 95.5196 4 96.0743 4.768L92.0423 8.64C91.5729 8.192 91.0823 7.82933 90.5703 7.552C90.0583 7.25333 89.5249 7.04 88.9703 6.912C88.4369 6.76267 87.9036 6.688 87.3703 6.688C86.8796 6.688 86.4636 6.73067 86.1223 6.816C85.7809 6.88 85.5143 6.99733 85.3223 7.168C85.1303 7.31733 85.0343 7.53067 85.0343 7.808C85.0343 8.08533 85.1516 8.32 85.3863 8.512C85.6423 8.68267 85.9516 8.832 86.3142 8.96C86.6983 9.088 87.0716 9.19467 87.4343 9.28C87.8183 9.344 88.1383 9.39733 88.3943 9.44C89.5676 9.65333 90.6449 9.952 91.6263 10.336C92.6076 10.6987 93.4609 11.168 94.1863 11.744C94.9329 12.2987 95.4983 13.0027 95.8823 13.856C96.2876 14.688 96.4903 15.68 96.4903 16.832C96.4903 18.4747 96.0743 19.8507 95.2423 20.96C94.4316 22.0693 93.3329 22.912 91.9463 23.488C90.5596 24.0427 89.0129 24.32 87.3063 24.32Z" fill="#5C5C5C"/>
</svg>
