<svg width="174" height="25" viewBox="0 0 174 25" fill="none" xmlns="http://www.w3.org/2000/svg">
<path d="M0.56 24V1.6H11.056C12.6133 1.6 14 1.90933 15.216 2.528C16.432 3.14667 17.3813 3.98933 18.064 5.056C18.7467 6.12267 19.088 7.34933 19.088 8.736C19.088 10.2933 18.7467 11.6587 18.064 12.832C17.3813 14.0053 16.432 14.9227 15.216 15.584C14 16.224 12.6133 16.544 11.056 16.544H7.024V24H0.56ZM12.304 24L6.608 13.888L13.68 13.088L20.016 24H12.304ZM7.024 11.744H9.968C10.5013 11.744 10.9387 11.648 11.28 11.456C11.6427 11.2427 11.9093 10.9547 12.08 10.592C12.272 10.2293 12.368 9.792 12.368 9.28C12.368 8.81067 12.272 8.416 12.08 8.096C11.9093 7.75467 11.632 7.49867 11.248 7.328C10.8853 7.136 10.416 7.04 9.84 7.04H7.024V11.744ZM23.185 24V1.6H39.921V7.2H29.809V18.4H40.497V24H23.185ZM26.481 15.296V10.048H38.737V15.296H26.481ZM52.4 24.32C50.7147 24.32 49.2213 24.1387 47.92 23.776C46.64 23.392 45.5093 22.8587 44.528 22.176C43.568 21.4933 42.704 20.6933 41.936 19.776L45.936 15.296C47.0027 16.6613 48.112 17.568 49.264 18.016C50.4373 18.4427 51.536 18.656 52.56 18.656C52.9653 18.656 53.328 18.624 53.648 18.56C53.968 18.4747 54.2133 18.3467 54.384 18.176C54.5547 18.0053 54.64 17.7707 54.64 17.472C54.64 17.1947 54.544 16.96 54.352 16.768C54.1813 16.576 53.9467 16.416 53.648 16.288C53.3493 16.1387 53.0187 16.0213 52.656 15.936C52.3147 15.8293 51.9733 15.744 51.632 15.68C51.312 15.616 51.024 15.552 50.768 15.488C49.488 15.1893 48.368 14.8267 47.408 14.4C46.448 13.9733 45.648 13.4613 45.008 12.864C44.368 12.2667 43.888 11.584 43.568 10.816C43.2693 10.048 43.12 9.184 43.12 8.224C43.12 7.136 43.3653 6.144 43.856 5.248C44.368 4.352 45.04 3.584 45.872 2.944C46.7253 2.304 47.6853 1.81333 48.752 1.472C49.84 1.13067 50.96 0.959999 52.112 0.959999C53.7973 0.959999 55.2053 1.12 56.336 1.44C57.4667 1.73867 58.416 2.176 59.184 2.752C59.952 3.328 60.6133 4 61.168 4.768L57.136 8.64C56.6667 8.192 56.176 7.82933 55.664 7.552C55.152 7.25333 54.6187 7.04 54.064 6.912C53.5307 6.76267 52.9973 6.688 52.464 6.688C51.9733 6.688 51.5573 6.73067 51.216 6.816C50.8747 6.88 50.608 6.99733 50.416 7.168C50.224 7.31733 50.128 7.53067 50.128 7.808C50.128 8.08533 50.2453 8.32 50.48 8.512C50.736 8.68267 51.0453 8.832 51.408 8.96C51.792 9.088 52.1653 9.19467 52.528 9.28C52.912 9.344 53.232 9.39733 53.488 9.44C54.6613 9.65333 55.7387 9.952 56.72 10.336C57.7013 10.6987 58.5547 11.168 59.28 11.744C60.0267 12.2987 60.592 13.0027 60.976 13.856C61.3813 14.688 61.584 15.68 61.584 16.832C61.584 18.4747 61.168 19.8507 60.336 20.96C59.5253 22.0693 58.4267 22.912 57.04 23.488C55.6533 24.0427 54.1067 24.32 52.4 24.32ZM65.06 24V1.6H81.796V7.2H71.684V18.4H82.372V24H65.06ZM68.356 15.296V10.048H80.612V15.296H68.356ZM83.235 24L92.227 1.6H97.667L106.595 24H99.747L96.163 14.208C95.9283 13.5467 95.7257 12.9813 95.555 12.512C95.3843 12.0427 95.235 11.6053 95.107 11.2C94.979 10.7733 94.851 10.3253 94.723 9.856C94.595 9.36533 94.467 8.78933 94.339 8.128H95.427C95.299 8.78933 95.171 9.36533 95.043 9.856C94.915 10.3253 94.7763 10.7733 94.627 11.2C94.499 11.6053 94.339 12.0427 94.147 12.512C93.9763 12.9813 93.7737 13.5467 93.539 14.208L89.955 24H83.235ZM87.715 20.672L89.731 15.968H100.131L101.955 20.672H87.715ZM108.529 24V1.6H119.025C120.582 1.6 121.969 1.90933 123.185 2.528C124.401 3.14667 125.35 3.98933 126.033 5.056C126.715 6.12267 127.057 7.34933 127.057 8.736C127.057 10.2933 126.715 11.6587 126.033 12.832C125.35 14.0053 124.401 14.9227 123.185 15.584C121.969 16.224 120.582 16.544 119.025 16.544H114.993V24H108.529ZM120.273 24L114.577 13.888L121.649 13.088L127.985 24H120.273ZM114.993 11.744H117.937C118.47 11.744 118.907 11.648 119.249 11.456C119.611 11.2427 119.878 10.9547 120.049 10.592C120.241 10.2293 120.337 9.792 120.337 9.28C120.337 8.81067 120.241 8.416 120.049 8.096C119.878 7.75467 119.601 7.49867 119.217 7.328C118.854 7.136 118.385 7.04 117.809 7.04H114.993V11.744ZM141.849 24.32C140.057 24.32 138.404 24.032 136.889 23.456C135.396 22.88 134.095 22.08 132.985 21.056C131.897 20.0107 131.055 18.7733 130.457 17.344C129.86 15.9147 129.561 14.3467 129.561 12.64C129.561 10.9333 129.86 9.36533 130.457 7.936C131.076 6.50667 131.94 5.28 133.049 4.256C134.159 3.21067 135.471 2.4 136.985 1.824C138.521 1.248 140.207 0.959999 142.041 0.959999C143.087 0.959999 144.111 1.088 145.113 1.344C146.137 1.57867 147.097 1.952 147.993 2.464C148.911 2.95467 149.743 3.584 150.489 4.352L146.361 9.184C146.063 8.82133 145.7 8.49067 145.273 8.192C144.868 7.89333 144.388 7.65867 143.833 7.488C143.3 7.296 142.681 7.2 141.977 7.2C141.252 7.2 140.559 7.328 139.897 7.584C139.257 7.81867 138.692 8.17067 138.201 8.64C137.732 9.10933 137.359 9.68533 137.081 10.368C136.804 11.0507 136.665 11.84 136.665 12.736C136.665 13.5467 136.804 14.2827 137.081 14.944C137.359 15.6053 137.753 16.1707 138.265 16.64C138.777 17.1093 139.396 17.472 140.121 17.728C140.847 17.984 141.657 18.112 142.553 18.112C143.193 18.112 143.801 18.016 144.377 17.824C144.953 17.632 145.476 17.3867 145.945 17.088C146.415 16.768 146.82 16.416 147.161 16.032L150.457 21.216C149.903 21.8133 149.167 22.3467 148.249 22.816C147.332 23.2853 146.319 23.6587 145.209 23.936C144.1 24.192 142.98 24.32 141.849 24.32ZM166.748 24V1.6H173.66V24H166.748ZM153.404 24V1.6H160.316V24H153.404ZM155.996 15.84L156.028 9.824H170.652V15.84H155.996Z" fill="#5C5C5C"/>
</svg>
