<svg width="80" height="13" viewBox="0 0 80 13" fill="none" xmlns="http://www.w3.org/2000/svg">
<path d="M0.861328 12V1.19824H5.37891C6.5332 1.19824 7.46191 1.51758 8.16504 2.15625C8.86816 2.78906 9.21973 3.61523 9.21973 4.63477C9.21973 6.44531 8.36719 7.56152 6.66211 7.9834L9.58008 12H6.2666L3.50684 7.96582V12H0.861328ZM3.50684 5.88281H5.63379C5.9209 5.88281 6.1582 5.75684 6.3457 5.50488C6.5332 5.25293 6.62695 4.96582 6.62695 4.64355C6.62695 4.31543 6.52148 4.03418 6.31055 3.7998C6.09961 3.56543 5.85059 3.44824 5.56348 3.44824H3.50684V5.88281ZM10.5117 12V1.19824H17.6572V3.53613H13.1572V5.4873H17.3145V7.79004H13.1572V9.73242H17.8594V12H10.5117ZM19.0723 8.83594H21.6475C21.6475 9.14648 21.7559 9.41309 21.9727 9.63574C22.1895 9.8584 22.4531 9.96973 22.7637 9.96973C23.0977 9.96973 23.3613 9.88184 23.5547 9.70605C23.748 9.53027 23.8447 9.30469 23.8447 9.0293C23.8447 8.92383 23.8271 8.82422 23.792 8.73047C23.7568 8.63086 23.6953 8.54297 23.6074 8.4668C23.5254 8.38477 23.4434 8.31445 23.3613 8.25586C23.2852 8.19727 23.1709 8.13867 23.0186 8.08008C22.8721 8.01562 22.7549 7.96875 22.667 7.93945C22.585 7.91016 22.4531 7.86621 22.2715 7.80762C22.0957 7.74902 21.9727 7.70508 21.9023 7.67578C20.9297 7.33008 20.2148 6.9082 19.7578 6.41016C19.3008 5.91211 19.0723 5.2207 19.0723 4.33594C19.0723 3.375 19.4326 2.55176 20.1533 1.86621C20.874 1.18066 21.7383 0.837891 22.7461 0.837891C23.8887 0.837891 24.7676 1.16309 25.3828 1.81348C25.998 2.45801 26.3438 3.31055 26.4199 4.37109H23.9326C23.9326 4.04883 23.8359 3.78223 23.6426 3.57129C23.4551 3.36035 23.1797 3.25488 22.8164 3.25488C22.5059 3.25488 22.2393 3.3457 22.0166 3.52734C21.7939 3.70312 21.6826 3.95801 21.6826 4.29199C21.6826 4.39746 21.7002 4.5 21.7354 4.59961C21.7705 4.69922 21.8262 4.78418 21.9023 4.85449C21.9844 4.9248 22.0605 4.98633 22.1309 5.03906C22.207 5.08594 22.3154 5.13281 22.4561 5.17969C22.6025 5.22656 22.7197 5.26465 22.8076 5.29395C22.8955 5.32324 23.0273 5.36426 23.2031 5.41699C23.3789 5.46387 23.5078 5.49902 23.5898 5.52246C25.4766 6.08496 26.4199 7.20117 26.4199 8.87109C26.4199 9.83203 26.0625 10.6553 25.3477 11.3408C24.6328 12.0205 23.7715 12.3604 22.7637 12.3604C21.6211 12.3604 20.7188 12.0264 20.0566 11.3584C19.4004 10.6846 19.0723 9.84375 19.0723 8.83594ZM28.1953 12V1.19824H35.3408V3.53613H30.8408V5.4873H34.998V7.79004H30.8408V9.73242H35.543V12H28.1953ZM36.2373 12L41.4932 0.837891H41.959L47.25 12H44.4111L43.8662 10.8838H39.6035L39.0762 12H36.2373ZM40.4297 8.99414H42.9697L41.7217 6.26074H41.6865L40.4297 8.99414ZM48.3926 12V1.19824H52.9102C54.0645 1.19824 54.9932 1.51758 55.6963 2.15625C56.3994 2.78906 56.751 3.61523 56.751 4.63477C56.751 6.44531 55.8984 7.56152 54.1934 7.9834L57.1113 12H53.7979L51.0381 7.96582V12H48.3926ZM51.0381 5.88281H53.165C53.4521 5.88281 53.6895 5.75684 53.877 5.50488C54.0645 5.25293 54.1582 4.96582 54.1582 4.64355C54.1582 4.31543 54.0527 4.03418 53.8418 3.7998C53.6309 3.56543 53.3818 3.44824 53.0947 3.44824H51.0381V5.88281ZM59.8096 10.708C58.708 9.60059 58.1572 8.23242 58.1572 6.60352C58.1572 4.96875 58.708 3.60059 59.8096 2.49902C60.9111 1.3916 62.3086 0.837891 64.002 0.837891C65.8242 0.837891 67.3682 1.5 68.6338 2.82422L66.8145 4.54688C65.9883 3.74414 65.0508 3.34277 64.002 3.34277C63.0527 3.34277 62.2881 3.65625 61.708 4.2832C61.1279 4.9043 60.8379 5.67773 60.8379 6.60352C60.8379 7.52344 61.1279 8.29688 61.708 8.92383C62.2881 9.54492 63.0527 9.85547 64.002 9.85547C65.0449 9.85547 65.9824 9.4541 66.8145 8.65137L68.5723 10.3828C67.3125 11.7012 65.7891 12.3604 64.002 12.3604C62.3086 12.3604 60.9111 11.8096 59.8096 10.708ZM69.9082 12V1.19824H72.5537V5.45215H76.79V1.19824H79.418V12H76.79V7.7373H72.5537V12H69.9082Z" fill="black"/>
</svg>
