<svg width="67" height="10" viewBox="0 0 67 10" fill="none" xmlns="http://www.w3.org/2000/svg">
<path d="M5.85409 3.6L5.55409 6.012H6.69409V6.408H5.50609L5.18209 9H4.82209L5.14609 6.408H2.02609L1.70209 9H1.34209L1.66609 6.408H0.514094V6.012H1.71409L2.01409 3.6H0.766094V3.192H2.06209L2.38609 0.599999H2.74609L2.42209 3.192H5.54209L5.86609 0.599999H6.22609L5.90209 3.192H6.94609V3.6H5.85409ZM5.49409 3.6H2.37409L2.07409 6.012H5.19409L5.49409 3.6ZM8.85484 0.599999H9.31084V4.572H14.1108V0.599999H14.5668V9H14.1108V4.992H9.31084V9H8.85484V0.599999ZM21.143 6.204H16.667C16.699 6.988 16.903 7.604 17.279 8.052C17.655 8.492 18.167 8.712 18.815 8.712C19.191 8.712 19.535 8.628 19.847 8.46C20.167 8.284 20.403 8.052 20.555 7.764L20.867 8.076C20.379 8.772 19.699 9.12 18.827 9.12C18.019 9.12 17.379 8.844 16.907 8.292C16.443 7.732 16.211 6.972 16.211 6.012C16.211 5.036 16.435 4.272 16.883 3.72C17.331 3.16 17.947 2.88 18.731 2.88C19.483 2.88 20.071 3.14 20.495 3.66C20.927 4.172 21.143 4.884 21.143 5.796V6.204ZM20.687 5.676C20.687 4.956 20.511 4.38 20.159 3.948C19.807 3.508 19.339 3.288 18.755 3.288C18.115 3.288 17.615 3.508 17.255 3.948C16.895 4.38 16.699 4.996 16.667 5.796H20.687V5.676ZM24.2644 9.12C23.6724 9.12 23.1924 8.956 22.8244 8.628C22.4644 8.3 22.2844 7.872 22.2844 7.344C22.2844 6.76 22.4924 6.304 22.9084 5.976C23.3324 5.64 23.9164 5.472 24.6604 5.472H26.2324V5.1C26.2324 4.516 26.0844 4.072 25.7884 3.768C25.5004 3.456 25.0764 3.3 24.5164 3.3C24.1644 3.3 23.8404 3.392 23.5444 3.576C23.2484 3.752 23.0164 3.996 22.8484 4.308L22.5244 3.984C22.7324 3.632 23.0084 3.36 23.3524 3.168C23.7044 2.976 24.1084 2.88 24.5644 2.88C25.2284 2.88 25.7484 3.064 26.1244 3.432C26.5004 3.8 26.6884 4.308 26.6884 4.956V7.944C26.6884 8.216 26.7324 8.568 26.8204 9H26.4364C26.3804 8.84 26.3284 8.512 26.2804 8.016H26.2564C26.0324 8.368 25.7484 8.64 25.4044 8.832C25.0604 9.024 24.6804 9.12 24.2644 9.12ZM24.1924 8.712C24.5444 8.712 24.8764 8.636 25.1884 8.484C25.5084 8.332 25.7604 8.132 25.9444 7.884C26.1364 7.628 26.2324 7.36 26.2324 7.08V5.892H24.6244C24.0324 5.892 23.5684 6.02 23.2324 6.276C22.8964 6.532 22.7284 6.888 22.7284 7.344C22.7284 7.744 22.8644 8.072 23.1364 8.328C23.4164 8.584 23.7684 8.712 24.1924 8.712ZM29.7239 9.12C29.3799 9.12 29.1239 9.004 28.9559 8.772C28.7879 8.532 28.7039 8.168 28.7039 7.68V0.0959995H29.1599V7.668C29.1599 8.068 29.2079 8.344 29.3039 8.496C29.3999 8.64 29.5719 8.712 29.8199 8.712C29.9879 8.712 30.1679 8.676 30.3599 8.604L30.4559 8.94C30.2159 9.06 29.9719 9.12 29.7239 9.12ZM33.686 9.12C32.742 9.12 32.27 8.54 32.27 7.38V3.408H31.19V3H32.27V1.344L32.678 1.188H32.726V3H34.406V3.408H32.726V7.236C32.726 7.756 32.798 8.128 32.942 8.352C33.094 8.576 33.342 8.688 33.686 8.688C33.99 8.688 34.238 8.636 34.43 8.532L34.502 8.928C34.246 9.056 33.974 9.12 33.686 9.12ZM36.0136 0.0959995H36.4696V4.26C36.6696 3.844 36.9656 3.512 37.3576 3.264C37.7576 3.008 38.1816 2.88 38.6296 2.88C40.0696 2.88 40.7896 3.788 40.7896 5.604V9H40.3336V5.592C40.3336 4.84 40.1936 4.268 39.9136 3.876C39.6336 3.484 39.2256 3.288 38.6896 3.288C38.2816 3.288 37.9056 3.396 37.5616 3.612C37.2256 3.828 36.9576 4.12 36.7576 4.488C36.5656 4.856 36.4696 5.264 36.4696 5.712V9H36.0136V0.0959995ZM48.6341 9.12C47.9381 9.12 47.3381 8.948 46.8341 8.604C46.3301 8.26 45.9421 7.764 45.6701 7.116C45.4061 6.468 45.2741 5.696 45.2741 4.8C45.2741 3.92 45.4141 3.156 45.6941 2.508C45.9741 1.852 46.3701 1.352 46.8821 1.008C47.4021 0.656 48.0141 0.48 48.7181 0.48C49.2061 0.48 49.6541 0.579999 50.0621 0.779999C50.4781 0.972 50.8061 1.244 51.0461 1.596L50.8181 1.956C50.5701 1.596 50.2781 1.332 49.9421 1.164C49.6141 0.988 49.2181 0.9 48.7541 0.9C47.7941 0.9 47.0501 1.24 46.5221 1.92C46.0021 2.6 45.7421 3.56 45.7421 4.8C45.7421 6.024 45.9981 6.98 46.5101 7.668C47.0301 8.356 47.7501 8.7 48.6701 8.7C49.1421 8.7 49.5661 8.608 49.9421 8.424C50.3261 8.232 50.6181 7.972 50.8181 7.644L51.0461 8.004C50.8301 8.34 50.5021 8.612 50.0621 8.82C49.6221 9.02 49.1461 9.12 48.6341 9.12ZM54.0418 9.12C53.4498 9.12 52.9698 8.956 52.6018 8.628C52.2418 8.3 52.0618 7.872 52.0618 7.344C52.0618 6.76 52.2698 6.304 52.6858 5.976C53.1098 5.64 53.6938 5.472 54.4378 5.472H56.0098V5.1C56.0098 4.516 55.8618 4.072 55.5658 3.768C55.2778 3.456 54.8538 3.3 54.2938 3.3C53.9418 3.3 53.6178 3.392 53.3218 3.576C53.0258 3.752 52.7938 3.996 52.6258 4.308L52.3018 3.984C52.5098 3.632 52.7858 3.36 53.1298 3.168C53.4818 2.976 53.8858 2.88 54.3418 2.88C55.0058 2.88 55.5258 3.064 55.9018 3.432C56.2778 3.8 56.4658 4.308 56.4658 4.956V7.944C56.4658 8.216 56.5098 8.568 56.5978 9H56.2138C56.1578 8.84 56.1058 8.512 56.0578 8.016H56.0338C55.8098 8.368 55.5258 8.64 55.1818 8.832C54.8378 9.024 54.4578 9.12 54.0418 9.12ZM53.9698 8.712C54.3218 8.712 54.6538 8.636 54.9658 8.484C55.2858 8.332 55.5378 8.132 55.7218 7.884C55.9138 7.628 56.0098 7.36 56.0098 7.08V5.892H54.4018C53.8098 5.892 53.3458 6.02 53.0098 6.276C52.6738 6.532 52.5058 6.888 52.5058 7.344C52.5058 7.744 52.6418 8.072 52.9138 8.328C53.1938 8.584 53.5458 8.712 53.9698 8.712ZM58.4332 4.464C58.4332 3.784 58.4212 3.296 58.3972 3H58.7932C58.8252 3.288 58.8412 3.64 58.8412 4.056V4.26H58.8652C59.0172 3.812 59.2372 3.472 59.5252 3.24C59.8212 3 60.1692 2.88 60.5692 2.88C60.7052 2.88 60.8132 2.892 60.8932 2.916V3.336C60.7972 3.32 60.6852 3.312 60.5572 3.312C60.2372 3.312 59.9492 3.412 59.6932 3.612C59.4452 3.812 59.2492 4.088 59.1052 4.44C58.9612 4.792 58.8892 5.188 58.8892 5.628V9H58.4332V4.464ZM66.4946 6.204H62.0186C62.0506 6.988 62.2546 7.604 62.6306 8.052C63.0066 8.492 63.5186 8.712 64.1666 8.712C64.5426 8.712 64.8866 8.628 65.1986 8.46C65.5186 8.284 65.7546 8.052 65.9066 7.764L66.2186 8.076C65.7306 8.772 65.0506 9.12 64.1786 9.12C63.3706 9.12 62.7306 8.844 62.2586 8.292C61.7946 7.732 61.5626 6.972 61.5626 6.012C61.5626 5.036 61.7866 4.272 62.2346 3.72C62.6826 3.16 63.2986 2.88 64.0826 2.88C64.8346 2.88 65.4226 3.14 65.8466 3.66C66.2786 4.172 66.4946 4.884 66.4946 5.796V6.204ZM66.0386 5.676C66.0386 4.956 65.8626 4.38 65.5106 3.948C65.1586 3.508 64.6906 3.288 64.1066 3.288C63.4666 3.288 62.9666 3.508 62.6066 3.948C62.2466 4.38 62.0506 4.996 62.0186 5.796H66.0386V5.676Z" fill="black"/>
</svg>
