<svg width="909" height="30" viewBox="0 0 909 30" fill="none" xmlns="http://www.w3.org/2000/svg">
<path d="M0.972 10.744V0.568H3.744V1.48H2.16V9.82H3.744V10.744H0.972ZM5.19131 9.496V1.276H6.43931V9.496H5.19131ZM8.22169 9.496V3.376H9.36169V3.904H9.40969C9.92569 3.544 10.7177 3.256 11.4617 3.256C12.6497 3.256 13.2257 3.748 13.2257 4.936V9.496H12.0377V5.212C12.0377 4.54 11.8457 4.264 10.9217 4.264C10.4057 4.264 9.81769 4.444 9.39769 4.648V9.496H8.22169ZM19.9408 9.64C18.8968 9.64 18.1048 9.412 17.5408 9.1V8.092C18.1768 8.392 18.9808 8.608 19.8568 8.608C21.0208 8.608 21.5128 8.092 21.5128 7.276C21.5128 6.556 21.1888 6.244 20.2528 5.944L19.4488 5.68C18.3208 5.332 17.6248 4.732 17.6248 3.4C17.6248 2.068 18.5128 1.132 20.2768 1.132C21.3208 1.132 21.8968 1.36 22.3528 1.588V2.596C21.8488 2.38 21.1768 2.164 20.2768 2.164C19.3648 2.164 18.8488 2.56 18.8488 3.292C18.8488 4 19.1008 4.312 19.9528 4.576L20.7688 4.828C22.0048 5.224 22.7848 5.764 22.7848 7.18C22.7848 8.68 21.8968 9.64 19.9408 9.64ZM25.866 9.604C24.666 9.604 24.006 9.004 24.006 7.816V3.376H25.194V7.612C25.194 8.332 25.434 8.608 26.262 8.608C26.862 8.608 27.342 8.404 27.762 8.212V3.376H28.938V9.496H27.93L27.81 8.968H27.75C27.246 9.328 26.634 9.604 25.866 9.604ZM32.8265 9.64C32.0825 9.64 31.0625 9.508 30.5225 9.316V0.736H31.6985V3.772H31.7585C32.2265 3.484 32.7905 3.256 33.6065 3.256C34.7345 3.256 35.9585 3.952 35.9585 6.232V6.4C35.9585 8.476 34.8785 9.64 32.8265 9.64ZM32.9105 8.692C33.8705 8.692 34.7225 8.236 34.7225 6.58V6.328C34.7225 4.756 34.1945 4.252 33.0305 4.252C32.4905 4.252 31.9745 4.444 31.6985 4.576V8.488C31.9505 8.584 32.3225 8.692 32.9105 8.692ZM37.1904 9.496V3.376H38.3304V3.904H38.3784C38.8944 3.556 39.5424 3.256 40.2504 3.256C40.9344 3.256 41.4264 3.484 41.7024 3.94H41.7504C42.3984 3.52 43.1064 3.256 43.8144 3.256C44.8704 3.256 45.5064 3.748 45.5064 4.936V9.496H44.3184V5.212C44.3184 4.54 44.0544 4.264 43.2984 4.264C42.8664 4.264 42.3984 4.42 41.9064 4.66C41.9184 4.768 41.9304 4.852 41.9304 4.984V9.496H40.7544V5.212C40.7544 4.54 40.5024 4.264 39.7464 4.264C39.2784 4.264 38.7864 4.432 38.3664 4.648V9.496H37.1904ZM47.0936 9.496V3.376H48.2696V9.496H47.0936ZM47.0816 2.236V1.084H48.2816V2.236H47.0816ZM51.5253 9.592C50.7333 9.592 50.0253 9.46 49.5333 9.16V8.272C50.0373 8.464 50.4933 8.656 51.3573 8.656C52.2333 8.656 52.6173 8.356 52.6173 7.84C52.6173 7.372 52.3893 7.144 51.6453 6.976L51.0813 6.82C50.1693 6.604 49.5453 6.16 49.5453 5.08C49.5453 3.988 50.2413 3.256 51.7293 3.256C52.5693 3.256 53.0853 3.436 53.4453 3.616V4.528C53.1213 4.396 52.4973 4.228 51.8253 4.228C51.0573 4.228 50.6733 4.456 50.6733 4.984C50.6733 5.452 50.9133 5.632 51.5253 5.8L52.1013 5.944C53.3013 6.232 53.7813 6.664 53.7813 7.756C53.7813 8.968 52.9173 9.592 51.5253 9.592ZM56.6112 9.592C55.8192 9.592 55.1112 9.46 54.6192 9.16V8.272C55.1232 8.464 55.5792 8.656 56.4432 8.656C57.3192 8.656 57.7032 8.356 57.7032 7.84C57.7032 7.372 57.4752 7.144 56.7312 6.976L56.1672 6.82C55.2552 6.604 54.6312 6.16 54.6312 5.08C54.6312 3.988 55.3272 3.256 56.8152 3.256C57.6552 3.256 58.1712 3.436 58.5312 3.616V4.528C58.2072 4.396 57.5832 4.228 56.9112 4.228C56.1432 4.228 55.7592 4.456 55.7592 4.984C55.7592 5.452 55.9992 5.632 56.6112 5.8L57.1872 5.944C58.3872 6.232 58.8672 6.664 58.8672 7.756C58.8672 8.968 58.0032 9.592 56.6112 9.592ZM60.1132 9.496V3.376H61.2892V9.496H60.1132ZM60.1012 2.236V1.084H61.3012V2.236H60.1012ZM65.4088 9.604C63.5968 9.604 62.5648 8.476 62.5648 6.568V6.364C62.5648 4.42 63.7168 3.256 65.4208 3.256C67.1968 3.256 68.2408 4.396 68.2408 6.328V6.508C68.2408 8.452 67.0768 9.604 65.4088 9.604ZM65.4208 8.68C66.4168 8.68 67.0048 7.972 67.0048 6.628V6.304C67.0048 4.684 66.2848 4.204 65.3968 4.204C64.3648 4.204 63.7768 4.912 63.7768 6.256V6.58C63.7768 8.2 64.5088 8.68 65.4208 8.68ZM69.4522 9.496V3.376H70.5922V3.904H70.6402C71.1562 3.544 71.9482 3.256 72.6922 3.256C73.8802 3.256 74.4562 3.748 74.4562 4.936V9.496H73.2682V5.212C73.2682 4.54 73.0762 4.264 72.1522 4.264C71.6362 4.264 71.0482 4.444 70.6282 4.648V9.496H69.4522ZM75.6669 10.744V9.82H77.2629V1.48H75.6669V0.568H78.4509V10.744H75.6669ZM83.5186 9.496V1.276H88.5106V2.308H84.7546V4.756H87.6706V5.776H84.7546V8.464H88.5586V9.496H83.5186ZM91.2058 9.496L88.9618 3.376H90.2338L91.8298 8.02H91.8658L93.4858 3.376H94.6378L92.4058 9.496H91.2058ZM96.9449 9.604C95.8409 9.604 95.0489 9.052 95.0489 7.864C95.0489 6.772 95.7689 6.232 96.9569 6.076L98.4929 5.896V5.368C98.4929 4.456 98.1089 4.252 97.0289 4.252C96.4289 4.252 95.9249 4.348 95.5529 4.432V3.604C96.1169 3.376 96.7409 3.256 97.4969 3.256C98.8769 3.256 99.6809 3.832 99.6809 5.068V9.496H98.7089L98.6009 8.98H98.5289C98.2409 9.34 97.7369 9.604 96.9449 9.604ZM97.2569 8.74C97.7609 8.74 98.2529 8.572 98.4929 8.344V6.712L97.2209 6.844C96.5729 6.916 96.2489 7.18 96.2489 7.816C96.2489 8.44 96.6449 8.74 97.2569 8.74ZM101.222 9.496V3.376H102.362V3.904H102.41C102.926 3.544 103.718 3.256 104.462 3.256C105.65 3.256 106.226 3.748 106.226 4.936V9.496H105.038V5.212C105.038 4.54 104.846 4.264 103.922 4.264C103.406 4.264 102.818 4.444 102.398 4.648V9.496H101.222ZM109.392 9.592C108.6 9.592 107.892 9.46 107.4 9.16V8.272C107.904 8.464 108.36 8.656 109.224 8.656C110.1 8.656 110.484 8.356 110.484 7.84C110.484 7.372 110.256 7.144 109.512 6.976L108.948 6.82C108.036 6.604 107.412 6.16 107.412 5.08C107.412 3.988 108.108 3.256 109.596 3.256C110.436 3.256 110.952 3.436 111.312 3.616V4.528C110.988 4.396 110.364 4.228 109.692 4.228C108.924 4.228 108.54 4.456 108.54 4.984C108.54 5.452 108.78 5.632 109.392 5.8L109.968 5.944C111.168 6.232 111.648 6.664 111.648 7.756C111.648 8.968 110.784 9.592 109.392 9.592ZM112.786 11.032L112.966 8.356H114.31L113.782 11.032H112.786ZM119.179 9.496V1.276H120.415V4.744H124.183V1.276H125.431V9.496H124.183V5.764H120.415V9.496H119.179ZM127.227 9.628V8.332H128.547V9.628H127.227ZM130.383 9.496V1.276H131.631V9.496H130.383ZM133.461 9.628V8.332H134.781V9.628H133.461ZM136.341 11.032L136.521 8.356H137.865L137.337 11.032H136.341ZM142.733 9.496V1.276H145.301C147.125 1.276 148.097 2.068 148.097 3.652C148.097 4.816 147.509 5.428 146.561 5.788V5.848L148.661 9.496H147.281L145.361 6.076H143.969V9.496H142.733ZM143.969 5.164H145.181C146.333 5.164 146.801 4.684 146.801 3.688C146.801 2.692 146.309 2.284 145.169 2.284H143.969V5.164ZM150.171 11.284C149.883 11.284 149.523 11.2 149.355 11.116V10.288C149.499 10.336 149.727 10.36 149.931 10.36C150.507 10.36 150.939 10.312 151.119 9.844L151.383 9.16L149.043 3.376H150.303L151.971 7.66H151.995L153.531 3.376H154.683L152.223 10.012C151.803 11.164 151.251 11.284 150.171 11.284ZM157.468 9.604C156.268 9.604 155.608 9.004 155.608 7.816V3.376H156.796V7.612C156.796 8.332 157.036 8.608 157.864 8.608C158.464 8.608 158.944 8.404 159.364 8.212V3.376H160.54V9.496H159.532L159.412 8.968H159.352C158.848 9.328 158.236 9.604 157.468 9.604ZM162.052 11.032L162.232 8.356H163.576L163.048 11.032H162.052ZM168.444 9.496V1.276H170.232L172.38 7.828H172.416L174.564 1.276H176.328V9.496H175.092V2.86H175.068L172.86 9.496H171.768L169.596 2.86H169.548V9.496H168.444ZM178.145 9.628V8.332H179.465V9.628H178.145ZM181.025 11.032L181.205 8.356H182.549L182.021 11.032H181.025ZM187.417 9.496V1.276H188.653V4.744H192.421V1.276H193.669V9.496H192.421V5.764H188.653V9.496H187.417ZM197.037 9.592C196.245 9.592 195.537 9.46 195.045 9.16V8.272C195.549 8.464 196.005 8.656 196.869 8.656C197.745 8.656 198.129 8.356 198.129 7.84C198.129 7.372 197.901 7.144 197.157 6.976L196.593 6.82C195.681 6.604 195.057 6.16 195.057 5.08C195.057 3.988 195.753 3.256 197.241 3.256C198.081 3.256 198.597 3.436 198.957 3.616V4.528C198.633 4.396 198.009 4.228 197.337 4.228C196.569 4.228 196.185 4.456 196.185 4.984C196.185 5.452 196.425 5.632 197.037 5.8L197.613 5.944C198.813 6.232 199.293 6.664 199.293 7.756C199.293 8.968 198.429 9.592 197.037 9.592ZM200.539 9.496V3.376H201.715V9.496H200.539ZM200.527 2.236V1.084H201.727V2.236H200.527ZM205.955 9.604C203.975 9.604 202.991 8.428 202.991 6.508V6.352C202.991 4.252 204.251 3.256 205.727 3.256C207.455 3.256 208.259 4.252 208.259 6.184V6.76H204.203C204.287 8.164 204.971 8.632 206.171 8.632C206.975 8.632 207.503 8.44 208.067 8.188V9.016C207.683 9.292 206.975 9.604 205.955 9.604ZM205.679 4.192C205.031 4.192 204.299 4.528 204.203 5.896H207.023C207.023 4.66 206.567 4.192 205.679 4.192ZM209.456 9.496V0.736H210.632V3.88H210.692C211.196 3.532 211.952 3.256 212.696 3.256C213.884 3.256 214.46 3.748 214.46 4.936V9.496H213.272V5.212C213.272 4.54 213.08 4.264 212.156 4.264C211.64 4.264 211.052 4.444 210.632 4.648V9.496H209.456ZM221.055 9.496V2.308H218.643V1.276H224.679V2.308H222.291V9.496H221.055ZM225.793 9.628V8.332H227.113V9.628H225.793ZM228.673 11.032L228.853 8.356H230.197L229.669 11.032H228.673ZM234.513 9.496V8.572L238.809 2.344V2.308H234.813V1.276H240.285V2.188L235.977 8.428V8.464H240.153V9.496H234.513ZM241.46 9.496V0.736H242.636V3.88H242.696C243.2 3.532 243.956 3.256 244.7 3.256C245.888 3.256 246.464 3.748 246.464 4.936V9.496H245.276V5.212C245.276 4.54 245.084 4.264 244.16 4.264C243.644 4.264 243.056 4.444 242.636 4.648V9.496H241.46ZM250.495 9.604C248.683 9.604 247.651 8.476 247.651 6.568V6.364C247.651 4.42 248.803 3.256 250.507 3.256C252.283 3.256 253.327 4.396 253.327 6.328V6.508C253.327 8.452 252.163 9.604 250.495 9.604ZM250.507 8.68C251.503 8.68 252.091 7.972 252.091 6.628V6.304C252.091 4.684 251.371 4.204 250.483 4.204C249.451 4.204 248.863 4.912 248.863 6.256V6.58C248.863 8.2 249.595 8.68 250.507 8.68ZM256.362 9.604C255.162 9.604 254.502 9.004 254.502 7.816V3.376H255.69V7.612C255.69 8.332 255.93 8.608 256.758 8.608C257.358 8.608 257.838 8.404 258.258 8.212V3.376H259.434V9.496H258.426L258.306 8.968H258.246C257.742 9.328 257.13 9.604 256.362 9.604ZM260.947 11.032L261.127 8.356H262.471L261.943 11.032H260.947ZM268.359 9.568C267.639 9.568 267.195 9.472 266.763 9.256V8.284C267.111 8.404 267.579 8.548 268.167 8.548C269.043 8.548 269.415 8.08 269.415 7.252V1.276H270.675V7.324C270.675 8.584 269.979 9.568 268.359 9.568ZM272.41 9.628V8.332H273.73V9.628H272.41ZM275.29 11.032L275.47 8.356H276.814L276.286 11.032H275.29ZM280.975 9.496L283.363 5.344L281.155 1.432H283.639L285.031 3.988H285.079L286.375 1.432H288.595L286.411 5.284L288.763 9.496H286.279L284.767 6.748H284.719L283.195 9.496H280.975ZM291.34 9.604C290.164 9.604 289.456 9.076 289.456 7.816V3.316H291.484V7.384C291.484 7.876 291.7 8.056 292.24 8.056C292.6 8.056 292.912 7.948 293.176 7.84V3.316H295.204V9.496H293.404L293.272 8.956H293.212C292.66 9.376 292.12 9.604 291.34 9.604ZM295.888 11.26L296.404 8.716H298.42L297.46 11.26H295.888ZM302.772 9.496V1.432H305.028V5.14L307.56 1.432H309.84L307.2 5.236L310.008 9.496H307.488L305.028 5.788V9.496H302.772ZM310.664 9.808V7.996H312.632V9.808H310.664ZM313.88 11.032L314.06 8.356H315.404L314.876 11.032H313.88ZM319.457 9.496L322.433 1.276H323.681L326.633 9.496H325.337L324.545 7.264H321.401L320.621 9.496H319.457ZM322.937 2.836L321.737 6.28H324.185L322.973 2.836H322.937ZM327.558 9.496V0.736H328.734V9.496H327.558ZM331.194 9.496L328.842 6.328L331.098 3.376H332.358L330.114 6.256L332.526 9.496H331.194ZM336.115 9.604C334.135 9.604 333.151 8.428 333.151 6.508V6.352C333.151 4.252 334.411 3.256 335.887 3.256C337.615 3.256 338.419 4.252 338.419 6.184V6.76H334.363C334.447 8.164 335.131 8.632 336.331 8.632C337.135 8.632 337.663 8.44 338.227 8.188V9.016C337.843 9.292 337.135 9.604 336.115 9.604ZM335.839 4.192C335.191 4.192 334.459 4.528 334.363 5.896H337.183C337.183 4.66 336.727 4.192 335.839 4.192ZM339.616 9.496V3.376H340.756V4.06H340.804C341.164 3.652 341.788 3.304 342.448 3.304C342.592 3.304 342.772 3.316 342.832 3.352V4.408C342.676 4.384 342.472 4.372 342.352 4.372C341.776 4.372 341.212 4.54 340.792 4.816V9.496H339.616ZM345.467 9.592C344.675 9.592 343.967 9.46 343.475 9.16V8.272C343.979 8.464 344.435 8.656 345.299 8.656C346.175 8.656 346.559 8.356 346.559 7.84C346.559 7.372 346.331 7.144 345.587 6.976L345.023 6.82C344.111 6.604 343.487 6.16 343.487 5.08C343.487 3.988 344.183 3.256 345.671 3.256C346.511 3.256 347.027 3.436 347.387 3.616V4.528C347.063 4.396 346.439 4.228 345.767 4.228C344.999 4.228 344.615 4.456 344.615 4.984C344.615 5.452 344.855 5.632 345.467 5.8L346.043 5.944C347.243 6.232 347.723 6.664 347.723 7.756C347.723 8.968 346.859 9.592 345.467 9.592ZM348.861 11.032L349.041 8.356H350.385L349.857 11.032H348.861ZM359.885 9.496L356.717 5.308L359.861 1.276H361.157L358.121 5.188L361.337 9.496H359.885ZM355.253 9.496V1.276H356.489V9.496H355.253ZM362.363 9.628V8.332H363.683V9.628H362.363ZM366.839 9.496L364.775 1.276H366.035L367.511 7.624H367.547L369.335 1.276H370.367L372.119 7.624H372.143L373.643 1.276H374.771L372.731 9.496H371.531L369.827 3.268H369.791L368.039 9.496H366.839ZM375.863 9.628V8.332H377.183V9.628H375.863ZM378.743 11.032L378.923 8.356H380.267L379.739 11.032H378.743ZM386.984 9.64C385.94 9.64 385.148 9.412 384.584 9.1V8.092C385.22 8.392 386.024 8.608 386.9 8.608C388.064 8.608 388.556 8.092 388.556 7.276C388.556 6.556 388.232 6.244 387.296 5.944L386.492 5.68C385.364 5.332 384.668 4.732 384.668 3.4C384.668 2.068 385.556 1.132 387.32 1.132C388.364 1.132 388.94 1.36 389.396 1.588V2.596C388.892 2.38 388.22 2.164 387.32 2.164C386.408 2.164 385.892 2.56 385.892 3.292C385.892 4 386.144 4.312 386.996 4.576L387.812 4.828C389.048 5.224 389.828 5.764 389.828 7.18C389.828 8.68 388.94 9.64 386.984 9.64ZM391.085 9.496V0.736H392.261V3.88H392.321C392.825 3.532 393.581 3.256 394.325 3.256C395.513 3.256 396.089 3.748 396.089 4.936V9.496H394.901V5.212C394.901 4.54 394.709 4.264 393.785 4.264C393.269 4.264 392.681 4.444 392.261 4.648V9.496H391.085ZM400.24 9.604C398.26 9.604 397.276 8.428 397.276 6.508V6.352C397.276 4.252 398.536 3.256 400.012 3.256C401.74 3.256 402.544 4.252 402.544 6.184V6.76H398.488C398.572 8.164 399.256 8.632 400.456 8.632C401.26 8.632 401.788 8.44 402.352 8.188V9.016C401.968 9.292 401.26 9.604 400.24 9.604ZM399.964 4.192C399.316 4.192 398.584 4.528 398.488 5.896H401.308C401.308 4.66 400.852 4.192 399.964 4.192ZM403.741 9.496V3.376H404.881V4.06H404.929C405.289 3.652 405.913 3.304 406.573 3.304C406.717 3.304 406.897 3.316 406.957 3.352V4.408C406.801 4.384 406.597 4.372 406.477 4.372C405.901 4.372 405.337 4.54 404.917 4.816V9.496H403.741ZM407.972 9.496V3.376H409.112V4.06H409.16C409.52 3.652 410.144 3.304 410.804 3.304C410.948 3.304 411.128 3.316 411.188 3.352V4.408C411.032 4.384 410.828 4.372 410.708 4.372C410.132 4.372 409.568 4.54 409.148 4.816V9.496H407.972ZM412.238 9.496V3.376H413.414V9.496H412.238ZM412.226 2.236V1.084H413.426V2.236H412.226ZM415.086 9.496V0.736H416.262V9.496H415.086ZM417.933 9.496V0.736H419.109V9.496H417.933ZM420.673 11.032L420.853 8.356H422.197L421.669 11.032H420.673ZM426.249 9.496L429.225 1.276H430.473L433.425 9.496H432.129L431.337 7.264H428.193L427.413 9.496H426.249ZM429.729 2.836L428.529 6.28H430.977L429.765 2.836H429.729ZM434.399 9.628V8.332H435.719V9.628H434.399ZM437.519 9.496V1.276H439.307L441.455 7.828H441.491L443.639 1.276H445.403V9.496H444.167V2.86H444.143L441.935 9.496H440.843L438.671 2.86H438.623V9.496H437.519ZM447.219 9.628V8.332H448.539V9.628H447.219ZM454.847 9.604C453.743 9.604 452.951 9.052 452.951 7.864C452.951 6.772 453.671 6.232 454.859 6.076L456.395 5.896V5.368C456.395 4.456 456.011 4.252 454.931 4.252C454.331 4.252 453.827 4.348 453.455 4.432V3.604C454.019 3.376 454.643 3.256 455.399 3.256C456.779 3.256 457.583 3.832 457.583 5.068V9.496H456.611L456.503 8.98H456.431C456.143 9.34 455.639 9.604 454.847 9.604ZM455.159 8.74C455.663 8.74 456.155 8.572 456.395 8.344V6.712L455.123 6.844C454.475 6.916 454.151 7.18 454.151 7.816C454.151 8.44 454.547 8.74 455.159 8.74ZM459.124 9.496V3.376H460.264V3.904H460.312C460.828 3.544 461.62 3.256 462.364 3.256C463.552 3.256 464.128 3.748 464.128 4.936V9.496H462.94V5.212C462.94 4.54 462.748 4.264 461.824 4.264C461.308 4.264 460.72 4.444 460.3 4.648V9.496H459.124ZM467.847 9.604C466.659 9.604 465.351 8.86 465.351 6.628V6.472C465.351 4.228 466.491 3.256 468.063 3.256C468.807 3.256 469.299 3.46 469.587 3.628V0.736H470.775V9.496H469.767L469.659 9.004H469.599C469.239 9.364 468.651 9.604 467.847 9.604ZM468.255 8.668C468.891 8.668 469.335 8.404 469.587 8.212V4.576C469.347 4.372 468.819 4.24 468.243 4.24C467.199 4.24 466.563 4.768 466.563 6.328V6.58C466.563 8.188 467.247 8.668 468.255 8.668ZM474.847 9.496L477.823 1.276H479.071L482.023 9.496H480.727L479.935 7.264H476.791L476.011 9.496H474.847ZM478.327 2.836L477.127 6.28H479.575L478.363 2.836H478.327ZM482.948 9.496V3.376H484.088V4.06H484.136C484.496 3.652 485.12 3.304 485.78 3.304C485.924 3.304 486.104 3.316 486.164 3.352V4.408C486.008 4.384 485.804 4.372 485.684 4.372C485.108 4.372 484.544 4.54 484.124 4.816V9.496H482.948ZM487.179 9.496V3.376H488.319V4.06H488.367C488.727 3.652 489.351 3.304 490.011 3.304C490.155 3.304 490.335 3.316 490.395 3.352V4.408C490.239 4.384 490.035 4.372 489.915 4.372C489.339 4.372 488.775 4.54 488.355 4.816V9.496H487.179ZM491.445 9.496V3.376H492.621V9.496H491.445ZM491.433 2.236V1.084H492.633V2.236H491.433ZM495.781 9.604C494.677 9.604 493.885 9.052 493.885 7.864C493.885 6.772 494.605 6.232 495.793 6.076L497.329 5.896V5.368C497.329 4.456 496.945 4.252 495.865 4.252C495.265 4.252 494.761 4.348 494.389 4.432V3.604C494.953 3.376 495.577 3.256 496.333 3.256C497.713 3.256 498.517 3.832 498.517 5.068V9.496H497.545L497.437 8.98H497.365C497.077 9.34 496.573 9.604 495.781 9.604ZM496.093 8.74C496.597 8.74 497.089 8.572 497.329 8.344V6.712L496.057 6.844C495.409 6.916 495.085 7.18 495.085 7.816C495.085 8.44 495.481 8.74 496.093 8.74ZM502.195 11.272C500.311 11.272 499.399 10.864 499.399 9.952C499.399 9.316 499.915 8.908 500.539 8.692V8.632C500.191 8.512 499.915 8.368 499.915 7.96C499.915 7.528 500.143 7.168 500.623 6.832C500.167 6.52 499.855 6.04 499.855 5.356V5.236C499.855 3.964 500.839 3.256 502.231 3.256C502.567 3.256 502.867 3.292 503.155 3.352H505.231V4.204H504.247C504.463 4.444 504.571 4.78 504.571 5.188V5.308C504.571 6.592 503.551 7.204 502.219 7.204C501.871 7.204 501.535 7.168 501.223 7.072C501.091 7.204 500.995 7.36 500.995 7.516C500.995 7.828 501.163 7.852 501.559 7.852H503.239C504.379 7.852 505.195 8.26 505.195 9.448C505.195 10.576 504.319 11.272 502.195 11.272ZM502.171 10.396C503.503 10.396 503.971 10.216 503.971 9.628C503.971 9.124 503.683 8.92 502.963 8.92H501.319C500.911 9.052 500.611 9.328 500.611 9.784C500.611 10.264 501.055 10.396 502.171 10.396ZM502.219 6.388C502.987 6.388 503.419 6.052 503.419 5.356V5.188C503.419 4.42 502.951 4.096 502.219 4.096C501.475 4.096 501.019 4.468 501.019 5.164V5.332C501.019 6.052 501.499 6.388 502.219 6.388ZM507.699 9.604C506.595 9.604 505.803 9.052 505.803 7.864C505.803 6.772 506.523 6.232 507.711 6.076L509.247 5.896V5.368C509.247 4.456 508.863 4.252 507.783 4.252C507.183 4.252 506.679 4.348 506.307 4.432V3.604C506.871 3.376 507.495 3.256 508.251 3.256C509.631 3.256 510.435 3.832 510.435 5.068V9.496H509.463L509.355 8.98H509.283C508.995 9.34 508.491 9.604 507.699 9.604ZM508.011 8.74C508.515 8.74 509.007 8.572 509.247 8.344V6.712L507.975 6.844C507.327 6.916 507.003 7.18 507.003 7.816C507.003 8.44 507.399 8.74 508.011 8.74ZM511.904 11.032L512.084 8.356H513.428L512.9 11.032H511.904ZM518.296 9.496V1.276H520.864C522.688 1.276 523.66 2.068 523.66 3.652C523.66 4.816 523.072 5.428 522.124 5.788V5.848L524.224 9.496H522.844L520.924 6.076H519.532V9.496H518.296ZM519.532 5.164H520.744C521.896 5.164 522.364 4.684 522.364 3.688C522.364 2.692 521.872 2.284 520.732 2.284H519.532V5.164ZM525.289 9.628V8.332H526.609V9.628H525.289ZM528.445 9.496V1.276H529.693V9.496H528.445ZM531.524 9.628V8.332H532.844V9.628H531.524ZM537.508 9.496V8.764L539.236 6.964C540.364 5.776 541.228 4.816 541.228 3.736C541.228 2.704 540.688 2.26 539.608 2.26C538.996 2.26 538.324 2.56 537.868 2.86L537.616 1.912C538.144 1.588 538.972 1.24 539.896 1.24C541.624 1.24 542.536 2.128 542.536 3.592C542.536 5.02 541.444 6.172 540.292 7.384L539.188 8.488H542.644V9.496H537.508ZM547.004 9.64C545.276 9.64 543.92 8.512 543.92 5.74V5.164C543.92 2.26 545.372 1.24 547.028 1.24C548.672 1.24 550.052 2.272 550.052 5.116V5.728C550.052 8.548 548.696 9.64 547.004 9.64ZM547.004 8.656C548.168 8.656 548.768 7.852 548.768 5.848V5.104C548.768 3.124 548.168 2.224 547.016 2.224C545.852 2.224 545.24 3.088 545.24 5.032V5.776C545.24 7.732 545.84 8.656 547.004 8.656ZM551.348 9.496V8.764L553.076 6.964C554.204 5.776 555.068 4.816 555.068 3.736C555.068 2.704 554.528 2.26 553.448 2.26C552.836 2.26 552.164 2.56 551.708 2.86L551.456 1.912C551.984 1.588 552.812 1.24 553.736 1.24C555.464 1.24 556.376 2.128 556.376 3.592C556.376 5.02 555.284 6.172 554.132 7.384L553.028 8.488H556.484V9.496H551.348ZM559.93 9.616C558.958 9.616 558.106 9.352 557.65 9.04L557.878 8.116C558.31 8.392 559.114 8.608 559.726 8.608C560.938 8.608 561.598 8.092 561.598 7.144C561.598 6.196 560.902 5.776 559.786 5.764L558.994 5.752V4.804L559.702 4.792C560.698 4.78 561.334 4.3 561.334 3.484C561.334 2.584 560.758 2.26 559.822 2.26C559.198 2.26 558.586 2.512 558.094 2.752L557.938 1.804C558.442 1.492 559.366 1.24 560.134 1.24C561.622 1.24 562.606 1.972 562.606 3.268C562.606 4.252 562.018 4.864 561.106 5.176C562.138 5.38 562.894 5.956 562.894 7.192C562.894 8.656 561.754 9.616 559.93 9.616ZM564.36 9.628V8.332H565.68V9.628H564.36ZM573.704 9.64C571.688 9.64 570.56 8.668 570.56 6.628V1.276H571.832V6.556C571.832 8.188 572.492 8.692 573.752 8.692C575 8.692 575.6 8.2 575.6 6.544V1.276H576.728V6.592C576.728 8.704 575.732 9.64 573.704 9.64ZM580.064 9.592C579.272 9.592 578.564 9.46 578.072 9.16V8.272C578.576 8.464 579.032 8.656 579.896 8.656C580.772 8.656 581.156 8.356 581.156 7.84C581.156 7.372 580.928 7.144 580.184 6.976L579.62 6.82C578.708 6.604 578.084 6.16 578.084 5.08C578.084 3.988 578.78 3.256 580.268 3.256C581.108 3.256 581.624 3.436 581.984 3.616V4.528C581.66 4.396 581.036 4.228 580.364 4.228C579.596 4.228 579.212 4.456 579.212 4.984C579.212 5.452 579.452 5.632 580.064 5.8L580.64 5.944C581.84 6.232 582.32 6.664 582.32 7.756C582.32 8.968 581.456 9.592 580.064 9.592ZM583.566 9.496V3.376H584.742V9.496H583.566ZM583.554 2.236V1.084H584.754V2.236H583.554ZM586.378 9.496V3.376H587.518V3.904H587.566C588.082 3.544 588.874 3.256 589.618 3.256C590.806 3.256 591.382 3.748 591.382 4.936V9.496H590.194V5.212C590.194 4.54 590.002 4.264 589.078 4.264C588.562 4.264 587.974 4.444 587.554 4.648V9.496H586.378ZM595.125 11.272C593.241 11.272 592.329 10.864 592.329 9.952C592.329 9.316 592.845 8.908 593.469 8.692V8.632C593.121 8.512 592.845 8.368 592.845 7.96C592.845 7.528 593.073 7.168 593.553 6.832C593.097 6.52 592.785 6.04 592.785 5.356V5.236C592.785 3.964 593.769 3.256 595.161 3.256C595.497 3.256 595.797 3.292 596.085 3.352H598.161V4.204H597.177C597.393 4.444 597.501 4.78 597.501 5.188V5.308C597.501 6.592 596.481 7.204 595.149 7.204C594.801 7.204 594.465 7.168 594.153 7.072C594.021 7.204 593.925 7.36 593.925 7.516C593.925 7.828 594.093 7.852 594.489 7.852H596.169C597.309 7.852 598.125 8.26 598.125 9.448C598.125 10.576 597.249 11.272 595.125 11.272ZM595.101 10.396C596.433 10.396 596.901 10.216 596.901 9.628C596.901 9.124 596.613 8.92 595.893 8.92H594.249C593.841 9.052 593.541 9.328 593.541 9.784C593.541 10.264 593.985 10.396 595.101 10.396ZM595.149 6.388C595.917 6.388 596.349 6.052 596.349 5.356V5.188C596.349 4.42 595.881 4.096 595.149 4.096C594.405 4.096 593.949 4.468 593.949 5.164V5.332C593.949 6.052 594.429 6.388 595.149 6.388ZM604.273 9.64C603.229 9.64 602.437 9.412 601.873 9.1V8.092C602.509 8.392 603.313 8.608 604.189 8.608C605.353 8.608 605.845 8.092 605.845 7.276C605.845 6.556 605.521 6.244 604.585 5.944L603.781 5.68C602.653 5.332 601.957 4.732 601.957 3.4C601.957 2.068 602.845 1.132 604.609 1.132C605.653 1.132 606.229 1.36 606.685 1.588V2.596C606.181 2.38 605.509 2.164 604.609 2.164C603.697 2.164 603.181 2.56 603.181 3.292C603.181 4 603.433 4.312 604.285 4.576L605.101 4.828C606.337 5.224 607.117 5.764 607.117 7.18C607.117 8.68 606.229 9.64 604.273 9.64ZM610.978 9.604C608.998 9.604 608.014 8.428 608.014 6.508V6.352C608.014 4.252 609.274 3.256 610.75 3.256C612.478 3.256 613.282 4.252 613.282 6.184V6.76H609.226C609.31 8.164 609.994 8.632 611.194 8.632C611.998 8.632 612.526 8.44 613.09 8.188V9.016C612.706 9.292 611.998 9.604 610.978 9.604ZM610.702 4.192C610.054 4.192 609.322 4.528 609.226 5.896H612.046C612.046 4.66 611.59 4.192 610.702 4.192ZM614.479 9.496V3.376H615.62V3.904H615.668C616.184 3.544 616.976 3.256 617.72 3.256C618.908 3.256 619.484 3.748 619.484 4.936V9.496H618.296V5.212C618.296 4.54 618.104 4.264 617.18 4.264C616.664 4.264 616.076 4.444 615.656 4.648V9.496H614.479ZM622.65 9.592C621.858 9.592 621.15 9.46 620.658 9.16V8.272C621.162 8.464 621.618 8.656 622.482 8.656C623.358 8.656 623.742 8.356 623.742 7.84C623.742 7.372 623.514 7.144 622.77 6.976L622.206 6.82C621.294 6.604 620.67 6.16 620.67 5.08C620.67 3.988 621.366 3.256 622.854 3.256C623.694 3.256 624.21 3.436 624.57 3.616V4.528C624.246 4.396 623.622 4.228 622.95 4.228C622.182 4.228 621.798 4.456 621.798 4.984C621.798 5.452 622.038 5.632 622.65 5.8L623.226 5.944C624.426 6.232 624.906 6.664 624.906 7.756C624.906 8.968 624.042 9.592 622.65 9.592ZM628.6 9.604C626.788 9.604 625.756 8.476 625.756 6.568V6.364C625.756 4.42 626.908 3.256 628.612 3.256C630.388 3.256 631.432 4.396 631.432 6.328V6.508C631.432 8.452 630.268 9.604 628.6 9.604ZM628.612 8.68C629.608 8.68 630.196 7.972 630.196 6.628V6.304C630.196 4.684 629.476 4.204 628.588 4.204C627.556 4.204 626.968 4.912 626.968 6.256V6.58C626.968 8.2 627.7 8.68 628.612 8.68ZM632.644 9.496V3.376H633.784V4.06H633.832C634.192 3.652 634.816 3.304 635.476 3.304C635.62 3.304 635.8 3.316 635.86 3.352V4.408C635.704 4.384 635.5 4.372 635.38 4.372C634.804 4.372 634.24 4.54 633.82 4.816V9.496H632.644ZM636.351 6.04V5.02H639.927V6.04H636.351ZM644.652 9.628C642.42 9.628 641.004 8.284 641.004 5.5V5.212C641.004 2.248 642.72 1.132 644.808 1.132C645.696 1.132 646.356 1.312 646.86 1.576V2.584C646.2 2.344 645.612 2.164 644.82 2.164C643.368 2.164 642.336 3.004 642.336 5.044V5.488C642.336 7.444 643.044 8.596 644.856 8.596C645.828 8.596 646.44 8.344 646.956 8.104V9.112C646.38 9.436 645.624 9.628 644.652 9.628ZM649.683 9.604C648.579 9.604 647.787 9.052 647.787 7.864C647.787 6.772 648.507 6.232 649.695 6.076L651.231 5.896V5.368C651.231 4.456 650.847 4.252 649.767 4.252C649.167 4.252 648.663 4.348 648.291 4.432V3.604C648.855 3.376 649.479 3.256 650.235 3.256C651.615 3.256 652.419 3.832 652.419 5.068V9.496H651.447L651.339 8.98H651.267C650.979 9.34 650.475 9.604 649.683 9.604ZM649.995 8.74C650.499 8.74 650.991 8.572 651.231 8.344V6.712L649.959 6.844C649.311 6.916 648.987 7.18 648.987 7.816C648.987 8.44 649.383 8.74 649.995 8.74ZM653.96 11.296V3.376H655.1V3.868H655.148C655.52 3.52 656.156 3.256 656.9 3.256C658.232 3.256 659.396 3.988 659.396 6.244V6.412C659.396 8.68 658.316 9.532 656.636 9.532C655.952 9.532 655.46 9.352 655.136 9.172V11.296H653.96ZM656.492 8.608C657.548 8.608 658.16 8.128 658.16 6.568V6.316C658.16 4.72 657.584 4.252 656.552 4.252C655.904 4.252 655.388 4.456 655.136 4.648V8.224C655.388 8.416 655.904 8.608 656.492 8.608ZM662.656 9.556C661.636 9.556 660.964 9.136 660.964 8.02V4.324H660.1V3.376H660.964V1.936H662.152V3.376H663.628V4.324H662.152V7.852C662.152 8.404 662.332 8.608 662.992 8.608C663.244 8.608 663.508 8.572 663.748 8.536V9.328C663.496 9.436 663.22 9.556 662.656 9.556ZM666.729 9.604C665.529 9.604 664.869 9.004 664.869 7.816V3.376H666.057V7.612C666.057 8.332 666.297 8.608 667.125 8.608C667.725 8.608 668.205 8.404 668.625 8.212V3.376H669.801V9.496H668.793L668.673 8.968H668.613C668.109 9.328 667.497 9.604 666.729 9.604ZM671.386 9.496V3.376H672.526V4.06H672.574C672.934 3.652 673.558 3.304 674.218 3.304C674.362 3.304 674.542 3.316 674.602 3.352V4.408C674.446 4.384 674.242 4.372 674.122 4.372C673.546 4.372 672.982 4.54 672.562 4.816V9.496H671.386ZM678.22 9.604C676.24 9.604 675.256 8.428 675.256 6.508V6.352C675.256 4.252 676.516 3.256 677.992 3.256C679.72 3.256 680.524 4.252 680.524 6.184V6.76H676.468C676.552 8.164 677.236 8.632 678.436 8.632C679.24 8.632 679.768 8.44 680.332 8.188V9.016C679.948 9.292 679.24 9.604 678.22 9.604ZM677.944 4.192C677.296 4.192 676.564 4.528 676.468 5.896H679.288C679.288 4.66 678.832 4.192 677.944 4.192ZM683.894 9.604C682.706 9.604 681.398 8.86 681.398 6.628V6.472C681.398 4.228 682.538 3.256 684.11 3.256C684.854 3.256 685.346 3.46 685.634 3.628V0.736H686.822V9.496H685.814L685.706 9.004H685.646C685.286 9.364 684.698 9.604 683.894 9.604ZM684.302 8.668C684.938 8.668 685.382 8.404 685.634 8.212V4.576C685.394 4.372 684.866 4.24 684.29 4.24C683.246 4.24 682.61 4.768 682.61 6.328V6.58C682.61 8.188 683.294 8.668 684.302 8.668ZM691.71 9.496V1.276H694.422C696.306 1.276 697.23 2.164 697.23 3.748C697.23 5.44 696.15 6.328 694.53 6.328H692.946V9.496H691.71ZM692.946 5.356H694.29C695.478 5.356 695.922 4.852 695.922 3.844C695.922 2.728 695.49 2.284 694.314 2.284H692.946V5.356ZM699.781 9.604C698.677 9.604 697.885 9.052 697.885 7.864C697.885 6.772 698.605 6.232 699.793 6.076L701.329 5.896V5.368C701.329 4.456 700.945 4.252 699.865 4.252C699.265 4.252 698.761 4.348 698.389 4.432V3.604C698.953 3.376 699.577 3.256 700.333 3.256C701.713 3.256 702.517 3.832 702.517 5.068V9.496H701.545L701.437 8.98H701.365C701.077 9.34 700.573 9.604 699.781 9.604ZM700.093 8.74C700.597 8.74 701.089 8.572 701.329 8.344V6.712L700.057 6.844C699.409 6.916 699.085 7.18 699.085 7.816C699.085 8.44 699.481 8.74 700.093 8.74ZM706.086 9.556C705.066 9.556 704.394 9.136 704.394 8.02V4.324H703.53V3.376H704.394V1.936H705.582V3.376H707.058V4.324H705.582V7.852C705.582 8.404 705.762 8.608 706.422 8.608C706.674 8.608 706.938 8.572 707.178 8.536V9.328C706.926 9.436 706.65 9.556 706.086 9.556ZM708.371 9.496V3.376H709.547V9.496H708.371ZM708.359 2.236V1.084H709.559V2.236H708.359ZM713.787 9.604C711.807 9.604 710.823 8.428 710.823 6.508V6.352C710.823 4.252 712.083 3.256 713.559 3.256C715.287 3.256 716.091 4.252 716.091 6.184V6.76H712.035C712.119 8.164 712.803 8.632 714.003 8.632C714.807 8.632 715.335 8.44 715.899 8.188V9.016C715.515 9.292 714.807 9.604 713.787 9.604ZM713.511 4.192C712.863 4.192 712.131 4.528 712.035 5.896H714.855C714.855 4.66 714.399 4.192 713.511 4.192ZM717.288 9.496V3.376H718.428V3.904H718.476C718.992 3.544 719.784 3.256 720.528 3.256C721.716 3.256 722.292 3.748 722.292 4.936V9.496H721.104V5.212C721.104 4.54 720.912 4.264 719.988 4.264C719.472 4.264 718.884 4.444 718.464 4.648V9.496H717.288ZM725.867 9.556C724.847 9.556 724.175 9.136 724.175 8.02V4.324H723.311V3.376H724.175V1.936H725.363V3.376H726.839V4.324H725.363V7.852C725.363 8.404 725.543 8.608 726.203 8.608C726.455 8.608 726.719 8.572 726.959 8.536V9.328C726.707 9.436 726.431 9.556 725.867 9.556ZM727.594 6.04V5.02H731.17V6.04H727.594ZM736.122 9.628C733.77 9.628 732.246 8.416 732.246 5.56V5.32C732.246 2.176 734.13 1.132 736.206 1.132C737.25 1.132 737.922 1.372 738.414 1.624V2.656C737.91 2.44 737.286 2.164 736.182 2.164C734.202 2.164 733.566 3.592 733.566 5.164V5.548C733.566 7.324 734.082 8.608 736.134 8.608C736.65 8.608 737.19 8.536 737.514 8.404V6.388H735.882V5.404H738.75V9.136C738.114 9.4 737.202 9.628 736.122 9.628ZM742.837 9.604C740.857 9.604 739.873 8.428 739.873 6.508V6.352C739.873 4.252 741.133 3.256 742.609 3.256C744.337 3.256 745.141 4.252 745.141 6.184V6.76H741.085C741.169 8.164 741.853 8.632 743.053 8.632C743.857 8.632 744.385 8.44 744.949 8.188V9.016C744.565 9.292 743.857 9.604 742.837 9.604ZM742.561 4.192C741.913 4.192 741.181 4.528 741.085 5.896H743.905C743.905 4.66 743.449 4.192 742.561 4.192ZM746.339 9.496V3.376H747.479V3.904H747.527C748.043 3.544 748.835 3.256 749.579 3.256C750.767 3.256 751.343 3.748 751.343 4.936V9.496H750.155V5.212C750.155 4.54 749.963 4.264 749.039 4.264C748.523 4.264 747.935 4.444 747.515 4.648V9.496H746.339ZM755.494 9.604C753.514 9.604 752.53 8.428 752.53 6.508V6.352C752.53 4.252 753.79 3.256 755.266 3.256C756.994 3.256 757.798 4.252 757.798 6.184V6.76H753.742C753.826 8.164 754.51 8.632 755.71 8.632C756.514 8.632 757.042 8.44 757.606 8.188V9.016C757.222 9.292 756.514 9.604 755.494 9.604ZM755.218 4.192C754.57 4.192 753.838 4.528 753.742 5.896H756.562C756.562 4.66 756.106 4.192 755.218 4.192ZM758.995 9.496V3.376H760.135V4.06H760.183C760.543 3.652 761.167 3.304 761.827 3.304C761.971 3.304 762.151 3.316 762.211 3.352V4.408C762.055 4.384 761.851 4.372 761.731 4.372C761.155 4.372 760.591 4.54 760.171 4.816V9.496H758.995ZM764.609 9.604C763.505 9.604 762.713 9.052 762.713 7.864C762.713 6.772 763.433 6.232 764.621 6.076L766.157 5.896V5.368C766.157 4.456 765.773 4.252 764.693 4.252C764.093 4.252 763.589 4.348 763.217 4.432V3.604C763.781 3.376 764.405 3.256 765.161 3.256C766.541 3.256 767.345 3.832 767.345 5.068V9.496H766.373L766.265 8.98H766.193C765.905 9.34 765.401 9.604 764.609 9.604ZM764.921 8.74C765.425 8.74 765.917 8.572 766.157 8.344V6.712L764.885 6.844C764.237 6.916 763.913 7.18 763.913 7.816C763.913 8.44 764.309 8.74 764.921 8.74ZM770.914 9.556C769.894 9.556 769.222 9.136 769.222 8.02V4.324H768.358V3.376H769.222V1.936H770.41V3.376H771.886V4.324H770.41V7.852C770.41 8.404 770.59 8.608 771.25 8.608C771.502 8.608 771.766 8.572 772.006 8.536V9.328C771.754 9.436 771.478 9.556 770.914 9.556ZM775.767 9.604C773.787 9.604 772.803 8.428 772.803 6.508V6.352C772.803 4.252 774.063 3.256 775.539 3.256C777.267 3.256 778.071 4.252 778.071 6.184V6.76H774.015C774.099 8.164 774.783 8.632 775.983 8.632C776.787 8.632 777.315 8.44 777.879 8.188V9.016C777.495 9.292 776.787 9.604 775.767 9.604ZM775.491 4.192C774.843 4.192 774.111 4.528 774.015 5.896H776.835C776.835 4.66 776.379 4.192 775.491 4.192ZM781.441 9.604C780.253 9.604 778.945 8.86 778.945 6.628V6.472C778.945 4.228 780.085 3.256 781.657 3.256C782.401 3.256 782.893 3.46 783.181 3.628V0.736H784.369V9.496H783.361L783.253 9.004H783.193C782.833 9.364 782.245 9.604 781.441 9.604ZM781.849 8.668C782.485 8.668 782.929 8.404 783.181 8.212V4.576C782.941 4.372 782.413 4.24 781.837 4.24C780.793 4.24 780.157 4.768 780.157 6.328V6.58C780.157 8.188 780.841 8.668 781.849 8.668ZM789.257 9.496V1.276H791.825C794.321 1.276 795.725 2.524 795.725 5.152V5.404C795.725 7.996 794.489 9.496 791.849 9.496H789.257ZM790.493 8.464H791.873C793.601 8.464 794.393 7.624 794.393 5.56V5.152C794.393 2.992 793.433 2.308 791.729 2.308H790.493V8.464ZM798.558 9.604C797.454 9.604 796.662 9.052 796.662 7.864C796.662 6.772 797.382 6.232 798.57 6.076L800.106 5.896V5.368C800.106 4.456 799.722 4.252 798.642 4.252C798.042 4.252 797.538 4.348 797.166 4.432V3.604C797.73 3.376 798.354 3.256 799.11 3.256C800.49 3.256 801.294 3.832 801.294 5.068V9.496H800.322L800.214 8.98H800.142C799.854 9.34 799.35 9.604 798.558 9.604ZM798.87 8.74C799.374 8.74 799.866 8.572 800.106 8.344V6.712L798.834 6.844C798.186 6.916 797.862 7.18 797.862 7.816C797.862 8.44 798.258 8.74 798.87 8.74ZM804.863 9.556C803.843 9.556 803.171 9.136 803.171 8.02V4.324H802.307V3.376H803.171V1.936H804.359V3.376H805.835V4.324H804.359V7.852C804.359 8.404 804.539 8.608 805.199 8.608C805.451 8.608 805.715 8.572 805.955 8.536V9.328C805.703 9.436 805.427 9.556 804.863 9.556ZM808.636 9.604C807.532 9.604 806.74 9.052 806.74 7.864C806.74 6.772 807.46 6.232 808.648 6.076L810.184 5.896V5.368C810.184 4.456 809.8 4.252 808.72 4.252C808.12 4.252 807.616 4.348 807.244 4.432V3.604C807.808 3.376 808.432 3.256 809.188 3.256C810.568 3.256 811.372 3.832 811.372 5.068V9.496H810.4L810.292 8.98H810.22C809.932 9.34 809.428 9.604 808.636 9.604ZM808.948 8.74C809.452 8.74 809.944 8.572 810.184 8.344V6.712L808.912 6.844C808.264 6.916 807.94 7.18 807.94 7.816C807.94 8.44 808.336 8.74 808.948 8.74ZM818.093 9.556C817.073 9.556 816.401 9.136 816.401 8.02V4.324H815.537V3.376H816.401V1.936H817.589V3.376H819.065V4.324H817.589V7.852C817.589 8.404 817.769 8.608 818.429 8.608C818.681 8.608 818.945 8.572 819.185 8.536V9.328C818.933 9.436 818.657 9.556 818.093 9.556ZM822.827 9.604C821.015 9.604 819.983 8.476 819.983 6.568V6.364C819.983 4.42 821.135 3.256 822.839 3.256C824.615 3.256 825.659 4.396 825.659 6.328V6.508C825.659 8.452 824.495 9.604 822.827 9.604ZM822.839 8.68C823.835 8.68 824.423 7.972 824.423 6.628V6.304C824.423 4.684 823.703 4.204 822.815 4.204C821.783 4.204 821.195 4.912 821.195 6.256V6.58C821.195 8.2 821.927 8.68 822.839 8.68ZM832.038 9.64C830.994 9.64 830.202 9.412 829.638 9.1V8.092C830.274 8.392 831.078 8.608 831.954 8.608C833.118 8.608 833.61 8.092 833.61 7.276C833.61 6.556 833.286 6.244 832.35 5.944L831.546 5.68C830.418 5.332 829.722 4.732 829.722 3.4C829.722 2.068 830.61 1.132 832.374 1.132C833.418 1.132 833.994 1.36 834.45 1.588V2.596C833.946 2.38 833.274 2.164 832.374 2.164C831.462 2.164 830.946 2.56 830.946 3.292C830.946 4 831.198 4.312 832.05 4.576L832.866 4.828C834.102 5.224 834.882 5.764 834.882 7.18C834.882 8.68 833.994 9.64 832.038 9.64ZM837.964 9.604C836.764 9.604 836.104 9.004 836.104 7.816V3.376H837.292V7.612C837.292 8.332 837.532 8.608 838.36 8.608C838.96 8.608 839.44 8.404 839.86 8.212V3.376H841.036V9.496H840.028L839.908 8.968H839.848C839.344 9.328 838.732 9.604 837.964 9.604ZM842.62 11.296V3.376H843.76V3.868H843.808C844.18 3.52 844.816 3.256 845.56 3.256C846.892 3.256 848.056 3.988 848.056 6.244V6.412C848.056 8.68 846.976 9.532 845.296 9.532C844.612 9.532 844.12 9.352 843.796 9.172V11.296H842.62ZM845.152 8.608C846.208 8.608 846.82 8.128 846.82 6.568V6.316C846.82 4.72 846.244 4.252 845.212 4.252C844.564 4.252 844.048 4.456 843.796 4.648V8.224C844.048 8.416 844.564 8.608 845.152 8.608ZM849.288 11.296V3.376H850.428V3.868H850.476C850.848 3.52 851.484 3.256 852.228 3.256C853.56 3.256 854.724 3.988 854.724 6.244V6.412C854.724 8.68 853.644 9.532 851.964 9.532C851.28 9.532 850.788 9.352 850.464 9.172V11.296H849.288ZM851.82 8.608C852.876 8.608 853.488 8.128 853.488 6.568V6.316C853.488 4.72 852.912 4.252 851.88 4.252C851.232 4.252 850.716 4.456 850.464 4.648V8.224C850.716 8.416 851.232 8.608 851.82 8.608ZM858.44 9.604C856.628 9.604 855.596 8.476 855.596 6.568V6.364C855.596 4.42 856.748 3.256 858.452 3.256C860.228 3.256 861.272 4.396 861.272 6.328V6.508C861.272 8.452 860.108 9.604 858.44 9.604ZM858.452 8.68C859.448 8.68 860.036 7.972 860.036 6.628V6.304C860.036 4.684 859.316 4.204 858.428 4.204C857.396 4.204 856.808 4.912 856.808 6.256V6.58C856.808 8.2 857.54 8.68 858.452 8.68ZM862.483 9.496V3.376H863.623V4.06H863.671C864.031 3.652 864.655 3.304 865.315 3.304C865.459 3.304 865.639 3.316 865.699 3.352V4.408C865.543 4.384 865.339 4.372 865.219 4.372C864.643 4.372 864.079 4.54 863.659 4.816V9.496H862.483ZM868.859 9.556C867.839 9.556 867.167 9.136 867.167 8.02V4.324H866.303V3.376H867.167V1.936H868.355V3.376H869.831V4.324H868.355V7.852C868.355 8.404 868.535 8.608 869.195 8.608C869.447 8.608 869.711 8.572 869.951 8.536V9.328C869.699 9.436 869.423 9.556 868.859 9.556ZM877.621 9.628C875.389 9.628 873.973 8.284 873.973 5.5V5.212C873.973 2.248 875.689 1.132 877.777 1.132C878.665 1.132 879.325 1.312 879.829 1.576V2.584C879.169 2.344 878.581 2.164 877.789 2.164C876.337 2.164 875.305 3.004 875.305 5.044V5.488C875.305 7.444 876.013 8.596 877.825 8.596C878.797 8.596 879.409 8.344 879.925 8.104V9.112C879.349 9.436 878.593 9.628 877.621 9.628ZM881.164 9.496V0.736H882.34V9.496H881.164ZM884.012 9.496V3.376H885.188V9.496H884.012ZM884 2.236V1.084H885.2V2.236H884ZM886.823 9.496V3.376H887.963V3.904H888.011C888.527 3.544 889.319 3.256 890.063 3.256C891.251 3.256 891.827 3.748 891.827 4.936V9.496H890.639V5.212C890.639 4.54 890.447 4.264 889.523 4.264C889.007 4.264 888.419 4.444 887.999 4.648V9.496H886.823ZM893.41 9.496V3.376H894.586V9.496H893.41ZM893.398 2.236V1.084H894.598V2.236H893.398ZM898.73 9.604C896.978 9.604 895.862 8.608 895.862 6.58V6.376C895.862 4.24 897.146 3.256 898.802 3.256C899.606 3.256 900.074 3.412 900.482 3.652V4.624C899.942 4.396 899.57 4.252 898.79 4.252C897.746 4.252 897.086 4.936 897.086 6.22V6.532C897.086 8.008 897.71 8.632 898.91 8.632C899.69 8.632 900.23 8.38 900.554 8.224V9.124C900.146 9.388 899.582 9.604 898.73 9.604ZM903.183 9.604C902.079 9.604 901.287 9.052 901.287 7.864C901.287 6.772 902.007 6.232 903.195 6.076L904.731 5.896V5.368C904.731 4.456 904.347 4.252 903.267 4.252C902.667 4.252 902.163 4.348 901.791 4.432V3.604C902.355 3.376 902.979 3.256 903.735 3.256C905.115 3.256 905.919 3.832 905.919 5.068V9.496H904.947L904.839 8.98H904.767C904.479 9.34 903.975 9.604 903.183 9.604ZM903.495 8.74C903.999 8.74 904.491 8.572 904.731 8.344V6.712L903.459 6.844C902.811 6.916 902.487 7.18 902.487 7.816C902.487 8.44 902.883 8.74 903.495 8.74ZM907.496 9.496V0.736H908.672V9.496H907.496ZM0.96 27.496V19.276H3.528C6.024 19.276 7.428 20.524 7.428 23.152V23.404C7.428 25.996 6.192 27.496 3.552 27.496H0.96ZM2.196 26.464H3.576C5.304 26.464 6.096 25.624 6.096 23.56V23.152C6.096 20.992 5.136 20.308 3.432 20.308H2.196V26.464ZM11.3413 27.604C9.36131 27.604 8.37731 26.428 8.37731 24.508V24.352C8.37731 22.252 9.63731 21.256 11.1133 21.256C12.8413 21.256 13.6453 22.252 13.6453 24.184V24.76H9.58931C9.67331 26.164 10.3573 26.632 11.5573 26.632C12.3613 26.632 12.8893 26.44 13.4533 26.188V27.016C13.0693 27.292 12.3613 27.604 11.3413 27.604ZM11.0653 22.192C10.4173 22.192 9.68531 22.528 9.58931 23.896H12.4093C12.4093 22.66 11.9533 22.192 11.0653 22.192ZM17.3508 27.604C15.5988 27.604 14.4828 26.608 14.4828 24.58V24.376C14.4828 22.24 15.7668 21.256 17.4228 21.256C18.2268 21.256 18.6948 21.412 19.1028 21.652V22.624C18.5628 22.396 18.1908 22.252 17.4108 22.252C16.3668 22.252 15.7068 22.936 15.7068 24.22V24.532C15.7068 26.008 16.3308 26.632 17.5308 26.632C18.3108 26.632 18.8508 26.38 19.1748 26.224V27.124C18.7668 27.388 18.2028 27.604 17.3508 27.604ZM20.3163 27.496V21.376H21.4923V27.496H20.3163ZM20.3043 20.236V19.084H21.5043V20.236H20.3043ZM24.7479 27.592C23.9559 27.592 23.2479 27.46 22.7559 27.16V26.272C23.2599 26.464 23.7159 26.656 24.5799 26.656C25.4559 26.656 25.8399 26.356 25.8399 25.84C25.8399 25.372 25.6119 25.144 24.8679 24.976L24.3039 24.82C23.3919 24.604 22.7679 24.16 22.7679 23.08C22.7679 21.988 23.4639 21.256 24.9519 21.256C25.7919 21.256 26.3079 21.436 26.6679 21.616V22.528C26.3439 22.396 25.7199 22.228 25.0479 22.228C24.2799 22.228 23.8959 22.456 23.8959 22.984C23.8959 23.452 24.1359 23.632 24.7479 23.8L25.3239 23.944C26.5239 24.232 27.0039 24.664 27.0039 25.756C27.0039 26.968 26.1399 27.592 24.7479 27.592ZM28.2499 27.496V21.376H29.4259V27.496H28.2499ZM28.2379 20.236V19.084H29.4379V20.236H28.2379ZM33.5455 27.604C31.7335 27.604 30.7015 26.476 30.7015 24.568V24.364C30.7015 22.42 31.8535 21.256 33.5575 21.256C35.3335 21.256 36.3775 22.396 36.3775 24.328V24.508C36.3775 26.452 35.2135 27.604 33.5455 27.604ZM33.5575 26.68C34.5535 26.68 35.1415 25.972 35.1415 24.628V24.304C35.1415 22.684 34.4215 22.204 33.5335 22.204C32.5015 22.204 31.9135 22.912 31.9135 24.256V24.58C31.9135 26.2 32.6455 26.68 33.5575 26.68ZM37.5889 27.496V21.376H38.7289V21.904H38.7769C39.2929 21.544 40.0849 21.256 40.8289 21.256C42.0169 21.256 42.5929 21.748 42.5929 22.936V27.496H41.4049V23.212C41.4049 22.54 41.2129 22.264 40.2889 22.264C39.7729 22.264 39.1849 22.444 38.7649 22.648V27.496H37.5889ZM43.8397 24.04V23.02H47.4157V24.04H43.8397ZM48.7803 27.496V21.376H49.9203V21.904H49.9683C50.4843 21.556 51.1323 21.256 51.8403 21.256C52.5243 21.256 53.0163 21.484 53.2923 21.94H53.3403C53.9883 21.52 54.6963 21.256 55.4043 21.256C56.4603 21.256 57.0963 21.748 57.0963 22.936V27.496H55.9083V23.212C55.9083 22.54 55.6443 22.264 54.8883 22.264C54.4563 22.264 53.9883 22.42 53.4963 22.66C53.5083 22.768 53.5203 22.852 53.5203 22.984V27.496H52.3443V23.212C52.3443 22.54 52.0923 22.264 51.3363 22.264C50.8683 22.264 50.3763 22.432 49.9563 22.648V27.496H48.7803ZM60.1715 27.604C59.0675 27.604 58.2755 27.052 58.2755 25.864C58.2755 24.772 58.9955 24.232 60.1835 24.076L61.7195 23.896V23.368C61.7195 22.456 61.3355 22.252 60.2555 22.252C59.6555 22.252 59.1515 22.348 58.7795 22.432V21.604C59.3435 21.376 59.9675 21.256 60.7235 21.256C62.1035 21.256 62.9075 21.832 62.9075 23.068V27.496H61.9355L61.8275 26.98H61.7555C61.4675 27.34 60.9635 27.604 60.1715 27.604ZM60.4835 26.74C60.9875 26.74 61.4795 26.572 61.7195 26.344V24.712L60.4475 24.844C59.7995 24.916 59.4755 25.18 59.4755 25.816C59.4755 26.44 59.8715 26.74 60.4835 26.74ZM64.4482 27.496V18.736H65.6243V27.496H64.4482ZM68.0843 27.496L65.7323 24.328L67.9883 21.376H69.2483L67.0043 24.256L69.4163 27.496H68.0843ZM70.4374 27.496V21.376H71.6134V27.496H70.4374ZM70.4254 20.236V19.084H71.6254V20.236H70.4254ZM73.249 27.496V21.376H74.389V21.904H74.437C74.953 21.544 75.745 21.256 76.489 21.256C77.677 21.256 78.253 21.748 78.253 22.936V27.496H77.065V23.212C77.065 22.54 76.873 22.264 75.949 22.264C75.433 22.264 74.845 22.444 74.425 22.648V27.496H73.249ZM81.9958 29.272C80.1118 29.272 79.1998 28.864 79.1998 27.952C79.1998 27.316 79.7158 26.908 80.3398 26.692V26.632C79.9918 26.512 79.7158 26.368 79.7158 25.96C79.7158 25.528 79.9438 25.168 80.4238 24.832C79.9678 24.52 79.6558 24.04 79.6558 23.356V23.236C79.6558 21.964 80.6398 21.256 82.0318 21.256C82.3678 21.256 82.6678 21.292 82.9558 21.352H85.0318V22.204H84.0478C84.2638 22.444 84.3718 22.78 84.3718 23.188V23.308C84.3718 24.592 83.3518 25.204 82.0198 25.204C81.6718 25.204 81.3358 25.168 81.0238 25.072C80.8918 25.204 80.7958 25.36 80.7958 25.516C80.7958 25.828 80.9638 25.852 81.3598 25.852H83.0398C84.1798 25.852 84.9958 26.26 84.9958 27.448C84.9958 28.576 84.1198 29.272 81.9958 29.272ZM81.9718 28.396C83.3038 28.396 83.7718 28.216 83.7718 27.628C83.7718 27.124 83.4838 26.92 82.7638 26.92H81.1198C80.7118 27.052 80.4118 27.328 80.4118 27.784C80.4118 28.264 80.8558 28.396 81.9718 28.396ZM82.0198 24.388C82.7878 24.388 83.2198 24.052 83.2198 23.356V23.188C83.2198 22.42 82.7518 22.096 82.0198 22.096C81.2758 22.096 80.8198 22.468 80.8198 23.164V23.332C80.8198 24.052 81.2998 24.388 82.0198 24.388ZM89.1639 27.496V21.376H90.3399V27.496H89.1639ZM89.1519 20.236V19.084H90.3519V20.236H89.1519ZM91.9756 27.496V21.376H93.1156V21.904H93.1636C93.6796 21.544 94.4716 21.256 95.2156 21.256C96.4036 21.256 96.9796 21.748 96.9796 22.936V27.496H95.7916V23.212C95.7916 22.54 95.5996 22.264 94.6756 22.264C94.1596 22.264 93.5716 22.444 93.1516 22.648V27.496H91.9756ZM101.847 27.496V19.276H104.559C106.443 19.276 107.367 20.164 107.367 21.748C107.367 23.44 106.287 24.328 104.667 24.328H103.083V27.496H101.847ZM103.083 23.356H104.427C105.615 23.356 106.059 22.852 106.059 21.844C106.059 20.728 105.627 20.284 104.451 20.284H103.083V23.356ZM110.43 27.496V20.308H108.018V19.276H114.054V20.308H111.666V27.496H110.43ZM117.136 27.64C116.092 27.64 115.3 27.412 114.736 27.1V26.092C115.372 26.392 116.176 26.608 117.052 26.608C118.216 26.608 118.708 26.092 118.708 25.276C118.708 24.556 118.384 24.244 117.448 23.944L116.644 23.68C115.516 23.332 114.82 22.732 114.82 21.4C114.82 20.068 115.708 19.132 117.472 19.132C118.516 19.132 119.092 19.36 119.548 19.588V20.596C119.044 20.38 118.372 20.164 117.472 20.164C116.56 20.164 116.044 20.56 116.044 21.292C116.044 22 116.296 22.312 117.148 22.576L117.964 22.828C119.2 23.224 119.98 23.764 119.98 25.18C119.98 26.68 119.092 27.64 117.136 27.64ZM121.405 27.496V19.276H123.973C126.469 19.276 127.873 20.524 127.873 23.152V23.404C127.873 25.996 126.637 27.496 123.997 27.496H121.405ZM122.641 26.464H124.021C125.749 26.464 126.541 25.624 126.541 23.56V23.152C126.541 20.992 125.581 20.308 123.877 20.308H122.641V26.464ZM134.231 27.496V20.308H131.819V19.276H137.855V20.308H135.467V27.496H134.231ZM138.921 27.496V18.736H140.097V21.88H140.157C140.661 21.532 141.417 21.256 142.161 21.256C143.349 21.256 143.925 21.748 143.925 22.936V27.496H142.737V23.212C142.737 22.54 142.545 22.264 141.621 22.264C141.105 22.264 140.517 22.444 140.097 22.648V27.496H138.921ZM148.076 27.604C146.096 27.604 145.112 26.428 145.112 24.508V24.352C145.112 22.252 146.372 21.256 147.848 21.256C149.576 21.256 150.38 22.252 150.38 24.184V24.76H146.324C146.408 26.164 147.092 26.632 148.292 26.632C149.096 26.632 149.624 26.44 150.188 26.188V27.016C149.804 27.292 149.096 27.604 148.076 27.604ZM147.8 22.192C147.152 22.192 146.42 22.528 146.324 23.896H149.144C149.144 22.66 148.688 22.192 147.8 22.192ZM151.577 27.496V21.376H152.717V22.06H152.765C153.125 21.652 153.749 21.304 154.409 21.304C154.553 21.304 154.733 21.316 154.793 21.352V22.408C154.637 22.384 154.433 22.372 154.313 22.372C153.737 22.372 153.173 22.54 152.753 22.816V27.496H151.577ZM157.191 27.604C156.087 27.604 155.295 27.052 155.295 25.864C155.295 24.772 156.015 24.232 157.203 24.076L158.739 23.896V23.368C158.739 22.456 158.355 22.252 157.275 22.252C156.675 22.252 156.171 22.348 155.799 22.432V21.604C156.363 21.376 156.987 21.256 157.743 21.256C159.123 21.256 159.927 21.832 159.927 23.068V27.496H158.955L158.847 26.98H158.775C158.487 27.34 157.983 27.604 157.191 27.604ZM157.503 26.74C158.007 26.74 158.499 26.572 158.739 26.344V24.712L157.467 24.844C156.819 24.916 156.495 25.18 156.495 25.816C156.495 26.44 156.891 26.74 157.503 26.74ZM161.468 29.296V21.376H162.608V21.868H162.656C163.028 21.52 163.664 21.256 164.408 21.256C165.74 21.256 166.904 21.988 166.904 24.244V24.412C166.904 26.68 165.824 27.532 164.144 27.532C163.46 27.532 162.968 27.352 162.644 27.172V29.296H161.468ZM164 26.608C165.056 26.608 165.668 26.128 165.668 24.568V24.316C165.668 22.72 165.092 22.252 164.06 22.252C163.412 22.252 162.896 22.456 162.644 22.648V26.224C162.896 26.416 163.412 26.608 164 26.608ZM168.628 29.284C168.34 29.284 167.98 29.2 167.812 29.116V28.288C167.956 28.336 168.184 28.36 168.388 28.36C168.964 28.36 169.396 28.312 169.576 27.844L169.84 27.16L167.5 21.376H168.76L170.428 25.66H170.452L171.988 21.376H173.14L170.68 28.012C170.26 29.164 169.708 29.284 168.628 29.284Z" fill="black"/>
</svg>
