<svg width="887" height="30" viewBox="0 0 887 30" fill="none" xmlns="http://www.w3.org/2000/svg">
<path d="M0.972 10.744V0.568H3.744V1.48H2.16V9.82H3.744V10.744H0.972ZM5.19131 9.496V1.276H6.43931V9.496H5.19131ZM8.22169 9.496V3.376H9.36169V3.904H9.40969C9.92569 3.544 10.7177 3.256 11.4617 3.256C12.6497 3.256 13.2257 3.748 13.2257 4.936V9.496H12.0377V5.212C12.0377 4.54 11.8457 4.264 10.9217 4.264C10.4057 4.264 9.81769 4.444 9.39769 4.648V9.496H8.22169ZM19.9408 9.64C18.8968 9.64 18.1048 9.412 17.5408 9.1V8.092C18.1768 8.392 18.9808 8.608 19.8568 8.608C21.0208 8.608 21.5128 8.092 21.5128 7.276C21.5128 6.556 21.1888 6.244 20.2528 5.944L19.4488 5.68C18.3208 5.332 17.6248 4.732 17.6248 3.4C17.6248 2.068 18.5128 1.132 20.2768 1.132C21.3208 1.132 21.8968 1.36 22.3528 1.588V2.596C21.8488 2.38 21.1768 2.164 20.2768 2.164C19.3648 2.164 18.8488 2.56 18.8488 3.292C18.8488 4 19.1008 4.312 19.9528 4.576L20.7688 4.828C22.0048 5.224 22.7848 5.764 22.7848 7.18C22.7848 8.68 21.8968 9.64 19.9408 9.64ZM25.866 9.604C24.666 9.604 24.006 9.004 24.006 7.816V3.376H25.194V7.612C25.194 8.332 25.434 8.608 26.262 8.608C26.862 8.608 27.342 8.404 27.762 8.212V3.376H28.938V9.496H27.93L27.81 8.968H27.75C27.246 9.328 26.634 9.604 25.866 9.604ZM32.8265 9.64C32.0825 9.64 31.0625 9.508 30.5225 9.316V0.736H31.6985V3.772H31.7585C32.2265 3.484 32.7905 3.256 33.6065 3.256C34.7345 3.256 35.9585 3.952 35.9585 6.232V6.4C35.9585 8.476 34.8785 9.64 32.8265 9.64ZM32.9105 8.692C33.8705 8.692 34.7225 8.236 34.7225 6.58V6.328C34.7225 4.756 34.1945 4.252 33.0305 4.252C32.4905 4.252 31.9745 4.444 31.6985 4.576V8.488C31.9505 8.584 32.3225 8.692 32.9105 8.692ZM37.1904 9.496V3.376H38.3304V3.904H38.3784C38.8944 3.556 39.5424 3.256 40.2504 3.256C40.9344 3.256 41.4264 3.484 41.7024 3.94H41.7504C42.3984 3.52 43.1064 3.256 43.8144 3.256C44.8704 3.256 45.5064 3.748 45.5064 4.936V9.496H44.3184V5.212C44.3184 4.54 44.0544 4.264 43.2984 4.264C42.8664 4.264 42.3984 4.42 41.9064 4.66C41.9184 4.768 41.9304 4.852 41.9304 4.984V9.496H40.7544V5.212C40.7544 4.54 40.5024 4.264 39.7464 4.264C39.2784 4.264 38.7864 4.432 38.3664 4.648V9.496H37.1904ZM47.0936 9.496V3.376H48.2696V9.496H47.0936ZM47.0816 2.236V1.084H48.2816V2.236H47.0816ZM51.5253 9.592C50.7333 9.592 50.0253 9.46 49.5333 9.16V8.272C50.0373 8.464 50.4933 8.656 51.3573 8.656C52.2333 8.656 52.6173 8.356 52.6173 7.84C52.6173 7.372 52.3893 7.144 51.6453 6.976L51.0813 6.82C50.1693 6.604 49.5453 6.16 49.5453 5.08C49.5453 3.988 50.2413 3.256 51.7293 3.256C52.5693 3.256 53.0853 3.436 53.4453 3.616V4.528C53.1213 4.396 52.4973 4.228 51.8253 4.228C51.0573 4.228 50.6733 4.456 50.6733 4.984C50.6733 5.452 50.9133 5.632 51.5253 5.8L52.1013 5.944C53.3013 6.232 53.7813 6.664 53.7813 7.756C53.7813 8.968 52.9173 9.592 51.5253 9.592ZM56.6112 9.592C55.8192 9.592 55.1112 9.46 54.6192 9.16V8.272C55.1232 8.464 55.5792 8.656 56.4432 8.656C57.3192 8.656 57.7032 8.356 57.7032 7.84C57.7032 7.372 57.4752 7.144 56.7312 6.976L56.1672 6.82C55.2552 6.604 54.6312 6.16 54.6312 5.08C54.6312 3.988 55.3272 3.256 56.8152 3.256C57.6552 3.256 58.1712 3.436 58.5312 3.616V4.528C58.2072 4.396 57.5832 4.228 56.9112 4.228C56.1432 4.228 55.7592 4.456 55.7592 4.984C55.7592 5.452 55.9992 5.632 56.6112 5.8L57.1872 5.944C58.3872 6.232 58.8672 6.664 58.8672 7.756C58.8672 8.968 58.0032 9.592 56.6112 9.592ZM60.1132 9.496V3.376H61.2892V9.496H60.1132ZM60.1012 2.236V1.084H61.3012V2.236H60.1012ZM65.4088 9.604C63.5968 9.604 62.5648 8.476 62.5648 6.568V6.364C62.5648 4.42 63.7168 3.256 65.4208 3.256C67.1968 3.256 68.2408 4.396 68.2408 6.328V6.508C68.2408 8.452 67.0768 9.604 65.4088 9.604ZM65.4208 8.68C66.4168 8.68 67.0048 7.972 67.0048 6.628V6.304C67.0048 4.684 66.2848 4.204 65.3968 4.204C64.3648 4.204 63.7768 4.912 63.7768 6.256V6.58C63.7768 8.2 64.5088 8.68 65.4208 8.68ZM69.4522 9.496V3.376H70.5922V3.904H70.6402C71.1562 3.544 71.9482 3.256 72.6922 3.256C73.8802 3.256 74.4562 3.748 74.4562 4.936V9.496H73.2682V5.212C73.2682 4.54 73.0762 4.264 72.1522 4.264C71.6362 4.264 71.0482 4.444 70.6282 4.648V9.496H69.4522ZM75.6669 10.744V9.82H77.2629V1.48H75.6669V0.568H78.4509V10.744H75.6669ZM83.5186 9.496V1.276H86.0866C87.9106 1.276 88.8826 2.068 88.8826 3.652C88.8826 4.816 88.2946 5.428 87.3466 5.788V5.848L89.4466 9.496H88.0666L86.1466 6.076H84.7546V9.496H83.5186ZM84.7546 5.164H85.9666C87.1186 5.164 87.5866 4.684 87.5866 3.688C87.5866 2.692 87.0946 2.284 85.9546 2.284H84.7546V5.164ZM90.9559 11.284C90.6679 11.284 90.3079 11.2 90.1399 11.116V10.288C90.2839 10.336 90.5119 10.36 90.7159 10.36C91.2919 10.36 91.7239 10.312 91.9039 9.844L92.1679 9.16L89.8279 3.376H91.0879L92.7559 7.66H92.7799L94.3159 3.376H95.4679L93.0079 10.012C92.5879 11.164 92.0359 11.284 90.9559 11.284ZM98.2527 9.604C97.0527 9.604 96.3927 9.004 96.3927 7.816V3.376H97.5807V7.612C97.5807 8.332 97.8207 8.608 98.6487 8.608C99.2487 8.608 99.7287 8.404 100.149 8.212V3.376H101.325V9.496H100.317L100.197 8.968H100.137C99.6327 9.328 99.0207 9.604 98.2527 9.604ZM102.837 11.032L103.017 8.356H104.361L103.833 11.032H102.837ZM109.23 9.496V1.276H111.018L113.166 7.828H113.202L115.35 1.276H117.114V9.496H115.878V2.86H115.854L113.646 9.496H112.554L110.382 2.86H110.334V9.496H109.23ZM118.93 9.628V8.332H120.25V9.628H118.93ZM121.81 11.032L121.99 8.356H123.334L122.806 11.032H121.81ZM128.202 9.496V1.276H130.89C132.798 1.276 133.578 2.044 133.578 3.34C133.578 4.192 133.218 4.816 132.222 5.128V5.188C133.254 5.38 133.926 5.968 133.926 7.156C133.926 8.512 132.99 9.496 131.106 9.496H128.202ZM129.438 8.512H130.962C132.054 8.512 132.618 8.032 132.618 7.084C132.618 6.1 132.018 5.704 130.902 5.704H129.438V8.512ZM129.438 4.804H130.674C131.61 4.804 132.318 4.492 132.318 3.52C132.318 2.56 131.778 2.26 130.746 2.26H129.438V4.804ZM136.742 9.604C135.638 9.604 134.846 9.052 134.846 7.864C134.846 6.772 135.566 6.232 136.754 6.076L138.29 5.896V5.368C138.29 4.456 137.906 4.252 136.826 4.252C136.226 4.252 135.722 4.348 135.35 4.432V3.604C135.914 3.376 136.538 3.256 137.294 3.256C138.674 3.256 139.478 3.832 139.478 5.068V9.496H138.506L138.398 8.98H138.326C138.038 9.34 137.534 9.604 136.742 9.604ZM137.054 8.74C137.558 8.74 138.05 8.572 138.29 8.344V6.712L137.018 6.844C136.37 6.916 136.046 7.18 136.046 7.816C136.046 8.44 136.442 8.74 137.054 8.74ZM142.639 9.592C141.847 9.592 141.139 9.46 140.647 9.16V8.272C141.151 8.464 141.607 8.656 142.471 8.656C143.347 8.656 143.731 8.356 143.731 7.84C143.731 7.372 143.503 7.144 142.759 6.976L142.195 6.82C141.283 6.604 140.659 6.16 140.659 5.08C140.659 3.988 141.355 3.256 142.843 3.256C143.683 3.256 144.199 3.436 144.559 3.616V4.528C144.235 4.396 143.611 4.228 142.939 4.228C142.171 4.228 141.787 4.456 141.787 4.984C141.787 5.452 142.027 5.632 142.639 5.8L143.215 5.944C144.415 6.232 144.895 6.664 144.895 7.756C144.895 8.968 144.031 9.592 142.639 9.592ZM148.709 9.604C146.729 9.604 145.745 8.428 145.745 6.508V6.352C145.745 4.252 147.005 3.256 148.48 3.256C150.209 3.256 151.013 4.252 151.013 6.184V6.76H146.957C147.041 8.164 147.725 8.632 148.925 8.632C149.729 8.632 150.257 8.44 150.821 8.188V9.016C150.437 9.292 149.729 9.604 148.709 9.604ZM148.433 4.192C147.785 4.192 147.053 4.528 146.957 5.896H149.777C149.777 4.66 149.321 4.192 148.433 4.192ZM152.21 9.496V3.376H153.35V3.904H153.398C153.914 3.556 154.562 3.256 155.27 3.256C155.954 3.256 156.446 3.484 156.722 3.94H156.77C157.418 3.52 158.126 3.256 158.834 3.256C159.89 3.256 160.526 3.748 160.526 4.936V9.496H159.338V5.212C159.338 4.54 159.074 4.264 158.318 4.264C157.886 4.264 157.418 4.42 156.926 4.66C156.938 4.768 156.95 4.852 156.95 4.984V9.496H155.774V5.212C155.774 4.54 155.522 4.264 154.766 4.264C154.298 4.264 153.806 4.432 153.386 4.648V9.496H152.21ZM163.601 9.604C162.497 9.604 161.705 9.052 161.705 7.864C161.705 6.772 162.425 6.232 163.613 6.076L165.149 5.896V5.368C165.149 4.456 164.765 4.252 163.685 4.252C163.085 4.252 162.581 4.348 162.209 4.432V3.604C162.773 3.376 163.397 3.256 164.153 3.256C165.533 3.256 166.337 3.832 166.337 5.068V9.496H165.365L165.257 8.98H165.185C164.897 9.34 164.393 9.604 163.601 9.604ZM163.913 8.74C164.417 8.74 164.909 8.572 165.149 8.344V6.712L163.877 6.844C163.229 6.916 162.905 7.18 162.905 7.816C162.905 8.44 163.301 8.74 163.913 8.74ZM167.878 9.496V3.376H169.018V3.904H169.066C169.582 3.544 170.374 3.256 171.118 3.256C172.306 3.256 172.882 3.748 172.882 4.936V9.496H171.694V5.212C171.694 4.54 171.502 4.264 170.578 4.264C170.062 4.264 169.474 4.444 169.054 4.648V9.496H167.878ZM174.357 11.032L174.537 8.356H175.881L175.353 11.032H174.357ZM183.941 9.628C181.709 9.628 180.293 8.284 180.293 5.5V5.212C180.293 2.248 182.009 1.132 184.097 1.132C184.985 1.132 185.645 1.312 186.149 1.576V2.584C185.489 2.344 184.901 2.164 184.109 2.164C182.657 2.164 181.625 3.004 181.625 5.044V5.488C181.625 7.444 182.333 8.596 184.145 8.596C185.117 8.596 185.729 8.344 186.245 8.104V9.112C185.669 9.436 184.913 9.628 183.941 9.628ZM187.496 9.628V8.332H188.816V9.628H187.496ZM190.616 9.496V1.276H192.404L194.552 7.828H194.588L196.736 1.276H198.5V9.496H197.264V2.86H197.24L195.032 9.496H193.94L191.768 2.86H191.72V9.496H190.616ZM200.317 9.628V8.332H201.637V9.628H200.317ZM203.197 11.032L203.377 8.356H204.721L204.193 11.032H203.197ZM208.881 9.496L211.269 5.344L209.061 1.432H211.545L212.937 3.988H212.985L214.281 1.432H216.501L214.317 5.284L216.669 9.496H214.185L212.673 6.748H212.625L211.101 9.496H208.881ZM219.246 9.604C218.07 9.604 217.362 9.076 217.362 7.816V3.316H219.39V7.384C219.39 7.876 219.606 8.056 220.146 8.056C220.506 8.056 220.818 7.948 221.082 7.84V3.316H223.11V9.496H221.31L221.178 8.956H221.118C220.566 9.376 220.026 9.604 219.246 9.604ZM223.794 11.26L224.31 8.716H226.326L225.366 11.26H223.794ZM230.678 9.496V1.432H232.934V5.14L235.466 1.432H237.746L235.106 5.236L237.914 9.496H235.394L232.934 5.788V9.496H230.678ZM238.571 9.808V7.996H240.539V9.808H238.571ZM241.114 11.26L241.63 8.716H243.646L242.686 11.26H241.114ZM250.038 9.64C248.994 9.64 248.202 9.412 247.638 9.1V8.092C248.274 8.392 249.078 8.608 249.954 8.608C251.118 8.608 251.61 8.092 251.61 7.276C251.61 6.556 251.286 6.244 250.35 5.944L249.546 5.68C248.418 5.332 247.722 4.732 247.722 3.4C247.722 2.068 248.61 1.132 250.374 1.132C251.418 1.132 251.994 1.36 252.45 1.588V2.596C251.946 2.38 251.274 2.164 250.374 2.164C249.462 2.164 248.946 2.56 248.946 3.292C248.946 4 249.198 4.312 250.05 4.576L250.866 4.828C252.102 5.224 252.882 5.764 252.882 7.18C252.882 8.68 251.994 9.64 250.038 9.64ZM255.316 9.496L253.6 3.376H254.848L256.012 7.972H256.072L257.392 3.376H258.4L259.744 7.972H259.792L260.944 3.376H262.048L260.332 9.496H259.168L257.86 5.14H257.812L256.504 9.496H255.316ZM263.117 9.496V3.376H264.293V9.496H263.117ZM263.105 2.236V1.084H264.305V2.236H263.105ZM265.929 9.496V3.376H267.069V3.904H267.117C267.633 3.544 268.425 3.256 269.169 3.256C270.357 3.256 270.933 3.748 270.933 4.936V9.496H269.745V5.212C269.745 4.54 269.553 4.264 268.629 4.264C268.113 4.264 267.525 4.444 267.105 4.648V9.496H265.929ZM274.676 11.272C272.792 11.272 271.88 10.864 271.88 9.952C271.88 9.316 272.396 8.908 273.02 8.692V8.632C272.672 8.512 272.396 8.368 272.396 7.96C272.396 7.528 272.624 7.168 273.104 6.832C272.648 6.52 272.336 6.04 272.336 5.356V5.236C272.336 3.964 273.32 3.256 274.712 3.256C275.048 3.256 275.348 3.292 275.636 3.352H277.712V4.204H276.728C276.944 4.444 277.052 4.78 277.052 5.188V5.308C277.052 6.592 276.032 7.204 274.7 7.204C274.352 7.204 274.016 7.168 273.704 7.072C273.572 7.204 273.476 7.36 273.476 7.516C273.476 7.828 273.644 7.852 274.04 7.852H275.72C276.86 7.852 277.676 8.26 277.676 9.448C277.676 10.576 276.8 11.272 274.676 11.272ZM274.652 10.396C275.984 10.396 276.452 10.216 276.452 9.628C276.452 9.124 276.164 8.92 275.444 8.92H273.8C273.392 9.052 273.092 9.328 273.092 9.784C273.092 10.264 273.536 10.396 274.652 10.396ZM274.7 6.388C275.468 6.388 275.9 6.052 275.9 5.356V5.188C275.9 4.42 275.432 4.096 274.7 4.096C273.956 4.096 273.5 4.468 273.5 5.164V5.332C273.5 6.052 273.98 6.388 274.7 6.388ZM281.259 9.604C279.279 9.604 278.295 8.428 278.295 6.508V6.352C278.295 4.252 279.555 3.256 281.031 3.256C282.759 3.256 283.563 4.252 283.563 6.184V6.76H279.507C279.591 8.164 280.275 8.632 281.475 8.632C282.279 8.632 282.807 8.44 283.371 8.188V9.016C282.987 9.292 282.279 9.604 281.259 9.604ZM280.983 4.192C280.335 4.192 279.603 4.528 279.507 5.896H282.327C282.327 4.66 281.871 4.192 280.983 4.192ZM284.761 9.496V3.376H285.901V4.06H285.949C286.309 3.652 286.933 3.304 287.593 3.304C287.737 3.304 287.917 3.316 287.977 3.352V4.408C287.821 4.384 287.617 4.372 287.497 4.372C286.921 4.372 286.357 4.54 285.937 4.816V9.496H284.761ZM288.075 11.032L288.255 8.356H289.599L289.071 11.032H288.075ZM294.468 9.496V1.276H295.896L299.52 7.432H299.556V1.276H300.672V9.496H299.424L295.632 2.98H295.584V9.496H294.468ZM302.469 9.628V8.332H303.789V9.628H302.469ZM306.609 9.568C305.889 9.568 305.445 9.472 305.013 9.256V8.284C305.361 8.404 305.829 8.548 306.417 8.548C307.293 8.548 307.665 8.08 307.665 7.252V1.276H308.925V7.324C308.925 8.584 308.229 9.568 306.609 9.568ZM310.66 9.628V8.332H311.98V9.628H310.66ZM313.54 11.032L313.72 8.356H315.064L314.536 11.032H313.54ZM321.781 9.64C320.737 9.64 319.945 9.412 319.381 9.1V8.092C320.017 8.392 320.821 8.608 321.697 8.608C322.861 8.608 323.353 8.092 323.353 7.276C323.353 6.556 323.029 6.244 322.093 5.944L321.289 5.68C320.161 5.332 319.465 4.732 319.465 3.4C319.465 2.068 320.353 1.132 322.117 1.132C323.161 1.132 323.737 1.36 324.193 1.588V2.596C323.689 2.38 323.017 2.164 322.117 2.164C321.205 2.164 320.689 2.56 320.689 3.292C320.689 4 320.941 4.312 321.793 4.576L322.609 4.828C323.845 5.224 324.625 5.764 324.625 7.18C324.625 8.68 323.737 9.64 321.781 9.64ZM325.882 9.496V0.736H327.058V3.88H327.118C327.622 3.532 328.378 3.256 329.122 3.256C330.31 3.256 330.886 3.748 330.886 4.936V9.496H329.698V5.212C329.698 4.54 329.506 4.264 328.582 4.264C328.066 4.264 327.478 4.444 327.058 4.648V9.496H325.882ZM335.037 9.604C333.057 9.604 332.073 8.428 332.073 6.508V6.352C332.073 4.252 333.333 3.256 334.809 3.256C336.537 3.256 337.341 4.252 337.341 6.184V6.76H333.285C333.369 8.164 334.053 8.632 335.253 8.632C336.057 8.632 336.585 8.44 337.149 8.188V9.016C336.765 9.292 336.057 9.604 335.037 9.604ZM334.761 4.192C334.113 4.192 333.381 4.528 333.285 5.896H336.105C336.105 4.66 335.649 4.192 334.761 4.192ZM338.538 9.496V3.376H339.678V4.06H339.726C340.086 3.652 340.71 3.304 341.37 3.304C341.514 3.304 341.694 3.316 341.754 3.352V4.408C341.598 4.384 341.394 4.372 341.274 4.372C340.698 4.372 340.134 4.54 339.714 4.816V9.496H338.538ZM342.769 9.496V3.376H343.909V4.06H343.957C344.317 3.652 344.941 3.304 345.601 3.304C345.745 3.304 345.925 3.316 345.985 3.352V4.408C345.829 4.384 345.625 4.372 345.505 4.372C344.929 4.372 344.365 4.54 343.945 4.816V9.496H342.769ZM347.035 9.496V3.376H348.211V9.496H347.035ZM347.023 2.236V1.084H348.223V2.236H347.023ZM349.883 9.496V0.736H351.059V9.496H349.883ZM352.73 9.496V0.736H353.906V9.496H352.73ZM355.47 11.032L355.65 8.356H356.994L356.466 11.032H355.47ZM361.046 9.496L364.022 1.276H365.27L368.222 9.496H366.926L366.134 7.264H362.99L362.21 9.496H361.046ZM364.526 2.836L363.326 6.28H365.774L364.562 2.836H364.526ZM369.195 9.628V8.332H370.515V9.628H369.195ZM373.671 9.496L371.607 1.276H372.867L374.343 7.624H374.379L376.167 1.276H377.199L378.951 7.624H378.975L380.475 1.276H381.603L379.563 9.496H378.363L376.659 3.268H376.623L374.871 9.496H373.671ZM382.695 9.628V8.332H384.015V9.628H382.695ZM385.575 11.032L385.755 8.356H387.099L386.571 11.032H385.575ZM393.324 9.604C392.22 9.604 391.428 9.052 391.428 7.864C391.428 6.772 392.148 6.232 393.336 6.076L394.872 5.896V5.368C394.872 4.456 394.488 4.252 393.408 4.252C392.808 4.252 392.304 4.348 391.932 4.432V3.604C392.496 3.376 393.12 3.256 393.876 3.256C395.256 3.256 396.06 3.832 396.06 5.068V9.496H395.088L394.98 8.98H394.908C394.62 9.34 394.116 9.604 393.324 9.604ZM393.636 8.74C394.14 8.74 394.632 8.572 394.872 8.344V6.712L393.6 6.844C392.952 6.916 392.628 7.18 392.628 7.816C392.628 8.44 393.024 8.74 393.636 8.74ZM397.601 9.496V3.376H398.741V3.904H398.789C399.305 3.544 400.097 3.256 400.841 3.256C402.029 3.256 402.605 3.748 402.605 4.936V9.496H401.417V5.212C401.417 4.54 401.225 4.264 400.301 4.264C399.785 4.264 399.197 4.444 398.777 4.648V9.496H397.601ZM406.323 9.604C405.135 9.604 403.827 8.86 403.827 6.628V6.472C403.827 4.228 404.967 3.256 406.539 3.256C407.283 3.256 407.775 3.46 408.063 3.628V0.736H409.251V9.496H408.243L408.135 9.004H408.075C407.715 9.364 407.127 9.604 406.323 9.604ZM406.731 8.668C407.367 8.668 407.811 8.404 408.063 8.212V4.576C407.823 4.372 407.295 4.24 406.719 4.24C405.675 4.24 405.039 4.768 405.039 6.328V6.58C405.039 8.188 405.723 8.668 406.731 8.668ZM413.324 9.496L416.3 1.276H417.548L420.5 9.496H419.204L418.412 7.264H415.268L414.488 9.496H413.324ZM416.804 2.836L415.604 6.28H418.052L416.84 2.836H416.804ZM421.425 9.496V3.376H422.565V4.06H422.613C422.973 3.652 423.597 3.304 424.257 3.304C424.401 3.304 424.581 3.316 424.641 3.352V4.408C424.485 4.384 424.281 4.372 424.161 4.372C423.585 4.372 423.021 4.54 422.601 4.816V9.496H421.425ZM425.655 9.496V3.376H426.795V4.06H426.843C427.203 3.652 427.827 3.304 428.487 3.304C428.631 3.304 428.811 3.316 428.871 3.352V4.408C428.715 4.384 428.511 4.372 428.391 4.372C427.815 4.372 427.251 4.54 426.831 4.816V9.496H425.655ZM429.922 9.496V3.376H431.098V9.496H429.922ZM429.91 2.236V1.084H431.11V2.236H429.91ZM434.257 9.604C433.153 9.604 432.361 9.052 432.361 7.864C432.361 6.772 433.081 6.232 434.269 6.076L435.805 5.896V5.368C435.805 4.456 435.421 4.252 434.341 4.252C433.741 4.252 433.237 4.348 432.865 4.432V3.604C433.429 3.376 434.053 3.256 434.809 3.256C436.189 3.256 436.993 3.832 436.993 5.068V9.496H436.021L435.913 8.98H435.841C435.553 9.34 435.049 9.604 434.257 9.604ZM434.569 8.74C435.073 8.74 435.565 8.572 435.805 8.344V6.712L434.533 6.844C433.885 6.916 433.561 7.18 433.561 7.816C433.561 8.44 433.957 8.74 434.569 8.74ZM440.672 11.272C438.788 11.272 437.876 10.864 437.876 9.952C437.876 9.316 438.392 8.908 439.016 8.692V8.632C438.668 8.512 438.392 8.368 438.392 7.96C438.392 7.528 438.62 7.168 439.1 6.832C438.644 6.52 438.332 6.04 438.332 5.356V5.236C438.332 3.964 439.316 3.256 440.708 3.256C441.044 3.256 441.344 3.292 441.632 3.352H443.708V4.204H442.724C442.94 4.444 443.048 4.78 443.048 5.188V5.308C443.048 6.592 442.028 7.204 440.696 7.204C440.348 7.204 440.012 7.168 439.7 7.072C439.568 7.204 439.472 7.36 439.472 7.516C439.472 7.828 439.64 7.852 440.036 7.852H441.716C442.856 7.852 443.672 8.26 443.672 9.448C443.672 10.576 442.796 11.272 440.672 11.272ZM440.648 10.396C441.98 10.396 442.448 10.216 442.448 9.628C442.448 9.124 442.16 8.92 441.44 8.92H439.796C439.388 9.052 439.088 9.328 439.088 9.784C439.088 10.264 439.532 10.396 440.648 10.396ZM440.696 6.388C441.464 6.388 441.896 6.052 441.896 5.356V5.188C441.896 4.42 441.428 4.096 440.696 4.096C439.952 4.096 439.496 4.468 439.496 5.164V5.332C439.496 6.052 439.976 6.388 440.696 6.388ZM446.175 9.604C445.071 9.604 444.279 9.052 444.279 7.864C444.279 6.772 444.999 6.232 446.187 6.076L447.723 5.896V5.368C447.723 4.456 447.339 4.252 446.259 4.252C445.659 4.252 445.155 4.348 444.783 4.432V3.604C445.347 3.376 445.971 3.256 446.727 3.256C448.107 3.256 448.911 3.832 448.911 5.068V9.496H447.939L447.831 8.98H447.759C447.471 9.34 446.967 9.604 446.175 9.604ZM446.487 8.74C446.991 8.74 447.483 8.572 447.723 8.344V6.712L446.451 6.844C445.803 6.916 445.479 7.18 445.479 7.816C445.479 8.44 445.875 8.74 446.487 8.74ZM450.38 11.032L450.56 8.356H451.904L451.376 11.032H450.38ZM456.773 9.496V1.276H459.34C461.165 1.276 462.137 2.068 462.137 3.652C462.137 4.816 461.549 5.428 460.601 5.788V5.848L462.701 9.496H461.321L459.401 6.076H458.009V9.496H456.773ZM458.009 5.164H459.221C460.373 5.164 460.841 4.684 460.841 3.688C460.841 2.692 460.349 2.284 459.209 2.284H458.009V5.164ZM463.766 9.628V8.332H465.086V9.628H463.766ZM466.922 9.496V1.276H468.17V9.496H466.922ZM470 9.628V8.332H471.32V9.628H470ZM475.985 9.496V8.764L477.713 6.964C478.84 5.776 479.705 4.816 479.705 3.736C479.705 2.704 479.165 2.26 478.085 2.26C477.473 2.26 476.801 2.56 476.345 2.86L476.093 1.912C476.621 1.588 477.449 1.24 478.373 1.24C480.101 1.24 481.013 2.128 481.013 3.592C481.013 5.02 479.921 6.172 478.769 7.384L477.665 8.488H481.121V9.496H475.985ZM485.48 9.64C483.752 9.64 482.396 8.512 482.396 5.74V5.164C482.396 2.26 483.848 1.24 485.504 1.24C487.148 1.24 488.528 2.272 488.528 5.116V5.728C488.528 8.548 487.172 9.64 485.48 9.64ZM485.48 8.656C486.644 8.656 487.244 7.852 487.244 5.848V5.104C487.244 3.124 486.644 2.224 485.492 2.224C484.328 2.224 483.716 3.088 483.716 5.032V5.776C483.716 7.732 484.316 8.656 485.48 8.656ZM489.824 9.496V8.764L491.552 6.964C492.68 5.776 493.544 4.816 493.544 3.736C493.544 2.704 493.004 2.26 491.924 2.26C491.312 2.26 490.64 2.56 490.184 2.86L489.932 1.912C490.46 1.588 491.288 1.24 492.212 1.24C493.94 1.24 494.852 2.128 494.852 3.592C494.852 5.02 493.76 6.172 492.608 7.384L491.504 8.488H494.96V9.496H489.824ZM498.407 9.616C497.435 9.616 496.583 9.352 496.127 9.04L496.354 8.116C496.787 8.392 497.591 8.608 498.203 8.608C499.415 8.608 500.075 8.092 500.075 7.144C500.075 6.196 499.379 5.776 498.263 5.764L497.471 5.752V4.804L498.179 4.792C499.175 4.78 499.811 4.3 499.811 3.484C499.811 2.584 499.235 2.26 498.299 2.26C497.675 2.26 497.062 2.512 496.571 2.752L496.415 1.804C496.919 1.492 497.843 1.24 498.611 1.24C500.099 1.24 501.083 1.972 501.083 3.268C501.083 4.252 500.495 4.864 499.583 5.176C500.615 5.38 501.371 5.956 501.371 7.192C501.371 8.656 500.231 9.616 498.407 9.616ZM502.836 9.628V8.332H504.156V9.628H502.836ZM509.108 9.496V1.276H511.796C513.704 1.276 514.484 2.044 514.484 3.34C514.484 4.192 514.124 4.816 513.128 5.128V5.188C514.16 5.38 514.832 5.968 514.832 7.156C514.832 8.512 513.896 9.496 512.012 9.496H509.108ZM510.344 8.512H511.868C512.96 8.512 513.524 8.032 513.524 7.084C513.524 6.1 512.924 5.704 511.808 5.704H510.344V8.512ZM510.344 4.804H511.58C512.516 4.804 513.224 4.492 513.224 3.52C513.224 2.56 512.684 2.26 511.652 2.26H510.344V4.804ZM516.616 11.284C516.328 11.284 515.968 11.2 515.8 11.116V10.288C515.944 10.336 516.172 10.36 516.376 10.36C516.952 10.36 517.384 10.312 517.564 9.844L517.828 9.16L515.488 3.376H516.748L518.416 7.66H518.44L519.976 3.376H521.128L518.668 10.012C518.248 11.164 517.696 11.284 516.616 11.284ZM527.269 9.556C526.249 9.556 525.577 9.136 525.577 8.02V4.324H524.713V3.376H525.577V1.936H526.765V3.376H528.241V4.324H526.765V7.852C526.765 8.404 526.945 8.608 527.605 8.608C527.857 8.608 528.121 8.572 528.361 8.536V9.328C528.109 9.436 527.833 9.556 527.269 9.556ZM529.519 9.496V0.736H530.695V3.88H530.755C531.259 3.532 532.015 3.256 532.759 3.256C533.947 3.256 534.523 3.748 534.523 4.936V9.496H533.335V5.212C533.335 4.54 533.143 4.264 532.219 4.264C531.703 4.264 531.115 4.444 530.695 4.648V9.496H529.519ZM538.673 9.604C536.693 9.604 535.709 8.428 535.709 6.508V6.352C535.709 4.252 536.969 3.256 538.445 3.256C540.173 3.256 540.977 4.252 540.977 6.184V6.76H536.921C537.005 8.164 537.689 8.632 538.889 8.632C539.693 8.632 540.221 8.44 540.785 8.188V9.016C540.401 9.292 539.693 9.604 538.673 9.604ZM538.397 4.192C537.749 4.192 537.017 4.528 536.921 5.896H539.741C539.741 4.66 539.285 4.192 538.397 4.192ZM545.495 9.496V1.276H548.183C550.091 1.276 550.871 2.044 550.871 3.34C550.871 4.192 550.511 4.816 549.515 5.128V5.188C550.547 5.38 551.219 5.968 551.219 7.156C551.219 8.512 550.283 9.496 548.399 9.496H545.495ZM546.731 8.512H548.255C549.347 8.512 549.911 8.032 549.911 7.084C549.911 6.1 549.311 5.704 548.195 5.704H546.731V8.512ZM546.731 4.804H547.967C548.903 4.804 549.611 4.492 549.611 3.52C549.611 2.56 549.071 2.26 548.039 2.26H546.731V4.804ZM554.995 9.604C553.183 9.604 552.151 8.476 552.151 6.568V6.364C552.151 4.42 553.303 3.256 555.007 3.256C556.783 3.256 557.827 4.396 557.827 6.328V6.508C557.827 8.452 556.663 9.604 554.995 9.604ZM555.007 8.68C556.003 8.68 556.591 7.972 556.591 6.628V6.304C556.591 4.684 555.871 4.204 554.983 4.204C553.951 4.204 553.363 4.912 553.363 6.256V6.58C553.363 8.2 554.095 8.68 555.007 8.68ZM561.522 9.604C559.71 9.604 558.678 8.476 558.678 6.568V6.364C558.678 4.42 559.83 3.256 561.534 3.256C563.31 3.256 564.354 4.396 564.354 6.328V6.508C564.354 8.452 563.19 9.604 561.522 9.604ZM561.534 8.68C562.53 8.68 563.118 7.972 563.118 6.628V6.304C563.118 4.684 562.398 4.204 561.51 4.204C560.478 4.204 559.89 4.912 559.89 6.256V6.58C559.89 8.2 560.622 8.68 561.534 8.68ZM565.565 9.496V0.736H566.741V9.496H565.565ZM569.201 9.496L566.849 6.328L569.105 3.376H570.365L568.121 6.256L570.533 9.496H569.201ZM571.711 4.468V3.196H573.019V4.468H571.711ZM571.711 8.896V7.624H573.019V8.896H571.711ZM577.292 9.496L580.268 1.276H581.516L584.468 9.496H583.172L582.38 7.264H579.236L578.456 9.496H577.292ZM580.772 2.836L579.572 6.28H582.02L580.808 2.836H580.772ZM588.714 9.496V1.276H591.282C593.778 1.276 595.182 2.524 595.182 5.152V5.404C595.182 7.996 593.946 9.496 591.306 9.496H588.714ZM589.95 8.464H591.33C593.058 8.464 593.85 7.624 593.85 5.56V5.152C593.85 2.992 592.89 2.308 591.186 2.308H589.95V8.464ZM596.527 9.496V3.376H597.703V9.496H596.527ZM596.515 2.236V1.084H597.715V2.236H596.515ZM600.959 9.592C600.167 9.592 599.459 9.46 598.967 9.16V8.272C599.471 8.464 599.927 8.656 600.791 8.656C601.667 8.656 602.051 8.356 602.051 7.84C602.051 7.372 601.823 7.144 601.079 6.976L600.515 6.82C599.603 6.604 598.979 6.16 598.979 5.08C598.979 3.988 599.675 3.256 601.163 3.256C602.003 3.256 602.519 3.436 602.879 3.616V4.528C602.555 4.396 601.931 4.228 601.259 4.228C600.491 4.228 600.107 4.456 600.107 4.984C600.107 5.452 600.347 5.632 600.959 5.8L601.535 5.944C602.735 6.232 603.215 6.664 603.215 7.756C603.215 8.968 602.351 9.592 600.959 9.592ZM606.453 9.556C605.433 9.556 604.761 9.136 604.761 8.02V4.324H603.897V3.376H604.761V1.936H605.949V3.376H607.425V4.324H605.949V7.852C605.949 8.404 606.129 8.608 606.789 8.608C607.041 8.608 607.305 8.572 607.545 8.536V9.328C607.293 9.436 607.017 9.556 606.453 9.556ZM608.702 9.496V3.376H609.842V4.06H609.89C610.25 3.652 610.874 3.304 611.534 3.304C611.678 3.304 611.858 3.316 611.918 3.352V4.408C611.762 4.384 611.558 4.372 611.438 4.372C610.862 4.372 610.298 4.54 609.878 4.816V9.496H608.702ZM612.969 9.496V3.376H614.145V9.496H612.969ZM612.957 2.236V1.084H614.157V2.236H612.957ZM618.084 9.64C617.34 9.64 616.32 9.508 615.78 9.316V0.736H616.956V3.772H617.016C617.484 3.484 618.048 3.256 618.864 3.256C619.992 3.256 621.216 3.952 621.216 6.232V6.4C621.216 8.476 620.136 9.64 618.084 9.64ZM618.168 8.692C619.128 8.692 619.98 8.236 619.98 6.58V6.328C619.98 4.756 619.452 4.252 618.288 4.252C617.748 4.252 617.232 4.444 616.956 4.576V8.488C617.208 8.584 617.58 8.692 618.168 8.692ZM624.272 9.604C623.072 9.604 622.412 9.004 622.412 7.816V3.376H623.6V7.612C623.6 8.332 623.84 8.608 624.668 8.608C625.268 8.608 625.748 8.404 626.168 8.212V3.376H627.344V9.496H626.336L626.216 8.968H626.156C625.652 9.328 625.04 9.604 624.272 9.604ZM630.957 9.556C629.937 9.556 629.265 9.136 629.265 8.02V4.324H628.401V3.376H629.265V1.936H630.453V3.376H631.929V4.324H630.453V7.852C630.453 8.404 630.633 8.608 631.293 8.608C631.545 8.608 631.809 8.572 632.049 8.536V9.328C631.797 9.436 631.521 9.556 630.957 9.556ZM635.81 9.604C633.83 9.604 632.846 8.428 632.846 6.508V6.352C632.846 4.252 634.106 3.256 635.582 3.256C637.31 3.256 638.114 4.252 638.114 6.184V6.76H634.058C634.142 8.164 634.826 8.632 636.026 8.632C636.83 8.632 637.358 8.44 637.922 8.188V9.016C637.538 9.292 636.83 9.604 635.81 9.604ZM635.534 4.192C634.886 4.192 634.154 4.528 634.058 5.896H636.878C636.878 4.66 636.422 4.192 635.534 4.192ZM641.484 9.604C640.296 9.604 638.988 8.86 638.988 6.628V6.472C638.988 4.228 640.128 3.256 641.7 3.256C642.444 3.256 642.936 3.46 643.224 3.628V0.736H644.412V9.496H643.404L643.296 9.004H643.236C642.876 9.364 642.288 9.604 641.484 9.604ZM641.892 8.668C642.528 8.668 642.972 8.404 643.224 8.212V4.576C642.984 4.372 642.456 4.24 641.88 4.24C640.836 4.24 640.2 4.768 640.2 6.328V6.58C640.2 8.188 640.884 8.668 641.892 8.668ZM652.492 9.628C650.26 9.628 648.844 8.284 648.844 5.5V5.212C648.844 2.248 650.56 1.132 652.648 1.132C653.536 1.132 654.196 1.312 654.7 1.576V2.584C654.04 2.344 653.452 2.164 652.66 2.164C651.208 2.164 650.176 3.004 650.176 5.044V5.488C650.176 7.444 650.884 8.596 652.696 8.596C653.668 8.596 654.28 8.344 654.796 8.104V9.112C654.22 9.436 653.464 9.628 652.492 9.628ZM658.483 9.604C656.671 9.604 655.639 8.476 655.639 6.568V6.364C655.639 4.42 656.791 3.256 658.495 3.256C660.271 3.256 661.315 4.396 661.315 6.328V6.508C661.315 8.452 660.151 9.604 658.483 9.604ZM658.495 8.68C659.491 8.68 660.079 7.972 660.079 6.628V6.304C660.079 4.684 659.359 4.204 658.471 4.204C657.439 4.204 656.851 4.912 656.851 6.256V6.58C656.851 8.2 657.583 8.68 658.495 8.68ZM664.722 11.272C662.838 11.272 661.926 10.864 661.926 9.952C661.926 9.316 662.442 8.908 663.066 8.692V8.632C662.718 8.512 662.442 8.368 662.442 7.96C662.442 7.528 662.67 7.168 663.15 6.832C662.694 6.52 662.382 6.04 662.382 5.356V5.236C662.382 3.964 663.366 3.256 664.758 3.256C665.094 3.256 665.394 3.292 665.682 3.352H667.758V4.204H666.774C666.99 4.444 667.098 4.78 667.098 5.188V5.308C667.098 6.592 666.078 7.204 664.746 7.204C664.398 7.204 664.062 7.168 663.75 7.072C663.618 7.204 663.522 7.36 663.522 7.516C663.522 7.828 663.69 7.852 664.086 7.852H665.766C666.906 7.852 667.722 8.26 667.722 9.448C667.722 10.576 666.846 11.272 664.722 11.272ZM664.698 10.396C666.03 10.396 666.498 10.216 666.498 9.628C666.498 9.124 666.21 8.92 665.49 8.92H663.846C663.438 9.052 663.138 9.328 663.138 9.784C663.138 10.264 663.582 10.396 664.698 10.396ZM664.746 6.388C665.514 6.388 665.946 6.052 665.946 5.356V5.188C665.946 4.42 665.478 4.096 664.746 4.096C664.002 4.096 663.546 4.468 663.546 5.164V5.332C663.546 6.052 664.026 6.388 664.746 6.388ZM668.702 9.496V3.376H669.842V3.904H669.89C670.406 3.544 671.198 3.256 671.942 3.256C673.13 3.256 673.706 3.748 673.706 4.936V9.496H672.518V5.212C672.518 4.54 672.326 4.264 671.402 4.264C670.886 4.264 670.298 4.444 669.878 4.648V9.496H668.702ZM675.289 9.496V3.376H676.465V9.496H675.289ZM675.277 2.236V1.084H676.477V2.236H675.277ZM680.129 9.556C679.109 9.556 678.437 9.136 678.437 8.02V4.324H677.573V3.376H678.437V1.936H679.625V3.376H681.101V4.324H679.625V7.852C679.625 8.404 679.805 8.608 680.465 8.608C680.717 8.608 680.981 8.572 681.221 8.536V9.328C680.969 9.436 680.693 9.556 680.129 9.556ZM682.414 9.496V3.376H683.59V9.496H682.414ZM682.402 2.236V1.084H683.602V2.236H682.402ZM687.71 9.604C685.898 9.604 684.866 8.476 684.866 6.568V6.364C684.866 4.42 686.018 3.256 687.722 3.256C689.498 3.256 690.542 4.396 690.542 6.328V6.508C690.542 8.452 689.378 9.604 687.71 9.604ZM687.722 8.68C688.718 8.68 689.306 7.972 689.306 6.628V6.304C689.306 4.684 688.586 4.204 687.698 4.204C686.666 4.204 686.078 4.912 686.078 6.256V6.58C686.078 8.2 686.81 8.68 687.722 8.68ZM691.753 9.496V3.376H692.893V3.904H692.941C693.457 3.544 694.249 3.256 694.993 3.256C696.181 3.256 696.757 3.748 696.757 4.936V9.496H695.569V5.212C695.569 4.54 695.377 4.264 694.453 4.264C693.937 4.264 693.349 4.444 692.929 4.648V9.496H691.753ZM701.624 9.496V1.276H704.336C706.22 1.276 707.144 2.164 707.144 3.748C707.144 5.44 706.064 6.328 704.444 6.328H702.86V9.496H701.624ZM702.86 5.356H704.204C705.392 5.356 705.836 4.852 705.836 3.844C705.836 2.728 705.404 2.284 704.228 2.284H702.86V5.356ZM710.916 9.604C708.936 9.604 707.952 8.428 707.952 6.508V6.352C707.952 4.252 709.212 3.256 710.688 3.256C712.416 3.256 713.22 4.252 713.22 6.184V6.76H709.164C709.248 8.164 709.932 8.632 711.132 8.632C711.936 8.632 712.464 8.44 713.028 8.188V9.016C712.644 9.292 711.936 9.604 710.916 9.604ZM710.64 4.192C709.992 4.192 709.26 4.528 709.164 5.896H711.984C711.984 4.66 711.528 4.192 710.64 4.192ZM714.417 9.496V3.376H715.557V4.06H715.605C715.965 3.652 716.589 3.304 717.249 3.304C717.393 3.304 717.573 3.316 717.633 3.352V4.408C717.477 4.384 717.273 4.372 717.153 4.372C716.577 4.372 716.013 4.54 715.593 4.816V9.496H714.417ZM720.267 9.592C719.475 9.592 718.767 9.46 718.275 9.16V8.272C718.779 8.464 719.235 8.656 720.099 8.656C720.975 8.656 721.359 8.356 721.359 7.84C721.359 7.372 721.131 7.144 720.387 6.976L719.823 6.82C718.911 6.604 718.287 6.16 718.287 5.08C718.287 3.988 718.983 3.256 720.471 3.256C721.311 3.256 721.827 3.436 722.187 3.616V4.528C721.863 4.396 721.239 4.228 720.567 4.228C719.799 4.228 719.415 4.456 719.415 4.984C719.415 5.452 719.655 5.632 720.267 5.8L720.843 5.944C722.043 6.232 722.523 6.664 722.523 7.756C722.523 8.968 721.659 9.592 720.267 9.592ZM723.733 11.296V3.376H724.873V3.868H724.921C725.293 3.52 725.929 3.256 726.673 3.256C728.005 3.256 729.169 3.988 729.169 6.244V6.412C729.169 8.68 728.089 9.532 726.409 9.532C725.725 9.532 725.233 9.352 724.909 9.172V11.296H723.733ZM726.265 8.608C727.321 8.608 727.933 8.128 727.933 6.568V6.316C727.933 4.72 727.357 4.252 726.325 4.252C725.677 4.252 725.161 4.456 724.909 4.648V8.224C725.161 8.416 725.677 8.608 726.265 8.608ZM733.005 9.604C731.025 9.604 730.041 8.428 730.041 6.508V6.352C730.041 4.252 731.301 3.256 732.777 3.256C734.505 3.256 735.309 4.252 735.309 6.184V6.76H731.253C731.337 8.164 732.021 8.632 733.221 8.632C734.025 8.632 734.553 8.44 735.117 8.188V9.016C734.733 9.292 734.025 9.604 733.005 9.604ZM732.729 4.192C732.081 4.192 731.349 4.528 731.253 5.896H734.073C734.073 4.66 733.617 4.192 732.729 4.192ZM739.015 9.604C737.263 9.604 736.147 8.608 736.147 6.58V6.376C736.147 4.24 737.431 3.256 739.087 3.256C739.891 3.256 740.359 3.412 740.767 3.652V4.624C740.227 4.396 739.855 4.252 739.075 4.252C738.031 4.252 737.371 4.936 737.371 6.22V6.532C737.371 8.008 737.995 8.632 739.195 8.632C739.975 8.632 740.515 8.38 740.839 8.224V9.124C740.431 9.388 739.867 9.604 739.015 9.604ZM744.09 9.556C743.07 9.556 742.398 9.136 742.398 8.02V4.324H741.534V3.376H742.398V1.936H743.586V3.376H745.062V4.324H743.586V7.852C743.586 8.404 743.766 8.608 744.426 8.608C744.678 8.608 744.942 8.572 745.182 8.536V9.328C744.93 9.436 744.654 9.556 744.09 9.556ZM746.375 9.496V3.376H747.551V9.496H746.375ZM746.363 2.236V1.084H747.563V2.236H746.363ZM750.843 9.496L748.599 3.376H749.871L751.467 8.02H751.503L753.123 3.376H754.275L752.043 9.496H750.843ZM757.873 9.604C755.893 9.604 754.909 8.428 754.909 6.508V6.352C754.909 4.252 756.169 3.256 757.645 3.256C759.373 3.256 760.177 4.252 760.177 6.184V6.76H756.121C756.205 8.164 756.889 8.632 758.089 8.632C758.893 8.632 759.421 8.44 759.985 8.188V9.016C759.601 9.292 758.893 9.604 757.873 9.604ZM757.597 4.192C756.949 4.192 756.217 4.528 756.121 5.896H758.941C758.941 4.66 758.485 4.192 757.597 4.192ZM767.01 9.604C765.198 9.604 764.166 8.476 764.166 6.568V6.364C764.166 4.42 765.318 3.256 767.022 3.256C768.798 3.256 769.842 4.396 769.842 6.328V6.508C769.842 8.452 768.678 9.604 767.01 9.604ZM767.022 8.68C768.018 8.68 768.606 7.972 768.606 6.628V6.304C768.606 4.684 767.886 4.204 766.998 4.204C765.966 4.204 765.378 4.912 765.378 6.256V6.58C765.378 8.2 766.11 8.68 767.022 8.68ZM771.054 9.496V3.376H772.194V3.904H772.242C772.758 3.544 773.55 3.256 774.294 3.256C775.482 3.256 776.058 3.748 776.058 4.936V9.496H774.87V5.212C774.87 4.54 774.678 4.264 773.754 4.264C773.238 4.264 772.65 4.444 772.23 4.648V9.496H771.054ZM780.925 9.496V1.276H783.493C785.989 1.276 787.393 2.524 787.393 5.152V5.404C787.393 7.996 786.157 9.496 783.517 9.496H780.925ZM782.161 8.464H783.541C785.269 8.464 786.061 7.624 786.061 5.56V5.152C786.061 2.992 785.101 2.308 783.397 2.308H782.161V8.464ZM790.226 9.604C789.122 9.604 788.33 9.052 788.33 7.864C788.33 6.772 789.05 6.232 790.238 6.076L791.774 5.896V5.368C791.774 4.456 791.39 4.252 790.31 4.252C789.71 4.252 789.206 4.348 788.834 4.432V3.604C789.398 3.376 790.022 3.256 790.778 3.256C792.158 3.256 792.962 3.832 792.962 5.068V9.496H791.99L791.882 8.98H791.81C791.522 9.34 791.018 9.604 790.226 9.604ZM790.538 8.74C791.042 8.74 791.534 8.572 791.774 8.344V6.712L790.502 6.844C789.854 6.916 789.53 7.18 789.53 7.816C789.53 8.44 789.926 8.74 790.538 8.74ZM796.123 9.592C795.331 9.592 794.623 9.46 794.131 9.16V8.272C794.635 8.464 795.091 8.656 795.955 8.656C796.831 8.656 797.215 8.356 797.215 7.84C797.215 7.372 796.987 7.144 796.243 6.976L795.679 6.82C794.767 6.604 794.143 6.16 794.143 5.08C794.143 3.988 794.839 3.256 796.327 3.256C797.167 3.256 797.683 3.436 798.043 3.616V4.528C797.719 4.396 797.095 4.228 796.423 4.228C795.655 4.228 795.271 4.456 795.271 4.984C795.271 5.452 795.511 5.632 796.123 5.8L796.699 5.944C797.899 6.232 798.379 6.664 798.379 7.756C798.379 8.968 797.515 9.592 796.123 9.592ZM799.589 9.496V0.736H800.765V3.88H800.825C801.329 3.532 802.085 3.256 802.829 3.256C804.017 3.256 804.593 3.748 804.593 4.936V9.496H803.405V5.212C803.405 4.54 803.213 4.264 802.289 4.264C801.773 4.264 801.185 4.444 800.765 4.648V9.496H799.589ZM808.444 9.64C807.7 9.64 806.68 9.508 806.14 9.316V0.736H807.316V3.772H807.376C807.844 3.484 808.408 3.256 809.224 3.256C810.352 3.256 811.576 3.952 811.576 6.232V6.4C811.576 8.476 810.496 9.64 808.444 9.64ZM808.528 8.692C809.488 8.692 810.34 8.236 810.34 6.58V6.328C810.34 4.756 809.812 4.252 808.648 4.252C808.108 4.252 807.592 4.444 807.316 4.576V8.488C807.568 8.584 807.94 8.692 808.528 8.692ZM815.292 9.604C813.48 9.604 812.448 8.476 812.448 6.568V6.364C812.448 4.42 813.6 3.256 815.304 3.256C817.08 3.256 818.124 4.396 818.124 6.328V6.508C818.124 8.452 816.96 9.604 815.292 9.604ZM815.304 8.68C816.3 8.68 816.888 7.972 816.888 6.628V6.304C816.888 4.684 816.168 4.204 815.28 4.204C814.248 4.204 813.66 4.912 813.66 6.256V6.58C813.66 8.2 814.392 8.68 815.304 8.68ZM820.859 9.604C819.755 9.604 818.963 9.052 818.963 7.864C818.963 6.772 819.683 6.232 820.871 6.076L822.407 5.896V5.368C822.407 4.456 822.023 4.252 820.943 4.252C820.343 4.252 819.839 4.348 819.467 4.432V3.604C820.031 3.376 820.655 3.256 821.411 3.256C822.791 3.256 823.595 3.832 823.595 5.068V9.496H822.623L822.515 8.98H822.443C822.155 9.34 821.651 9.604 820.859 9.604ZM821.171 8.74C821.675 8.74 822.167 8.572 822.407 8.344V6.712L821.135 6.844C820.487 6.916 820.163 7.18 820.163 7.816C820.163 8.44 820.559 8.74 821.171 8.74ZM825.136 9.496V3.376H826.276V4.06H826.324C826.684 3.652 827.308 3.304 827.968 3.304C828.112 3.304 828.292 3.316 828.352 3.352V4.408C828.196 4.384 827.992 4.372 827.872 4.372C827.296 4.372 826.732 4.54 826.312 4.816V9.496H825.136ZM831.538 9.604C830.35 9.604 829.042 8.86 829.042 6.628V6.472C829.042 4.228 830.182 3.256 831.754 3.256C832.498 3.256 832.99 3.46 833.278 3.628V0.736H834.466V9.496H833.458L833.35 9.004H833.29C832.93 9.364 832.342 9.604 831.538 9.604ZM831.946 8.668C832.582 8.668 833.026 8.404 833.278 8.212V4.576C833.038 4.372 832.51 4.24 831.934 4.24C830.89 4.24 830.254 4.768 830.254 6.328V6.58C830.254 8.188 830.938 8.668 831.946 8.668ZM839.355 9.496V1.276H841.923C844.419 1.276 845.823 2.524 845.823 5.152V5.404C845.823 7.996 844.587 9.496 841.947 9.496H839.355ZM840.591 8.464H841.971C843.699 8.464 844.491 7.624 844.491 5.56V5.152C844.491 2.992 843.531 2.308 841.827 2.308H840.591V8.464ZM849.736 9.604C847.756 9.604 846.772 8.428 846.772 6.508V6.352C846.772 4.252 848.032 3.256 849.508 3.256C851.236 3.256 852.04 4.252 852.04 6.184V6.76H847.984C848.068 8.164 848.752 8.632 849.952 8.632C850.756 8.632 851.284 8.44 851.848 8.188V9.016C851.464 9.292 850.756 9.604 849.736 9.604ZM849.46 4.192C848.812 4.192 848.08 4.528 847.984 5.896H850.804C850.804 4.66 850.348 4.192 849.46 4.192ZM854.857 9.592C854.065 9.592 853.357 9.46 852.865 9.16V8.272C853.369 8.464 853.825 8.656 854.689 8.656C855.565 8.656 855.949 8.356 855.949 7.84C855.949 7.372 855.721 7.144 854.977 6.976L854.413 6.82C853.501 6.604 852.877 6.16 852.877 5.08C852.877 3.988 853.573 3.256 855.061 3.256C855.901 3.256 856.417 3.436 856.777 3.616V4.528C856.453 4.396 855.829 4.228 855.157 4.228C854.389 4.228 854.005 4.456 854.005 4.984C854.005 5.452 854.245 5.632 854.857 5.8L855.433 5.944C856.633 6.232 857.113 6.664 857.113 7.756C857.113 8.968 856.249 9.592 854.857 9.592ZM858.359 9.496V3.376H859.535V9.496H858.359ZM858.347 2.236V1.084H859.547V2.236H858.347ZM863.367 11.272C861.483 11.272 860.571 10.864 860.571 9.952C860.571 9.316 861.087 8.908 861.711 8.692V8.632C861.363 8.512 861.087 8.368 861.087 7.96C861.087 7.528 861.315 7.168 861.795 6.832C861.339 6.52 861.027 6.04 861.027 5.356V5.236C861.027 3.964 862.011 3.256 863.403 3.256C863.739 3.256 864.039 3.292 864.327 3.352H866.403V4.204H865.419C865.635 4.444 865.743 4.78 865.743 5.188V5.308C865.743 6.592 864.723 7.204 863.391 7.204C863.043 7.204 862.707 7.168 862.395 7.072C862.263 7.204 862.167 7.36 862.167 7.516C862.167 7.828 862.335 7.852 862.731 7.852H864.411C865.551 7.852 866.367 8.26 866.367 9.448C866.367 10.576 865.491 11.272 863.367 11.272ZM863.343 10.396C864.675 10.396 865.143 10.216 865.143 9.628C865.143 9.124 864.855 8.92 864.135 8.92H862.491C862.083 9.052 861.783 9.328 861.783 9.784C861.783 10.264 862.227 10.396 863.343 10.396ZM863.391 6.388C864.159 6.388 864.591 6.052 864.591 5.356V5.188C864.591 4.42 864.123 4.096 863.391 4.096C862.647 4.096 862.191 4.468 862.191 5.164V5.332C862.191 6.052 862.671 6.388 863.391 6.388ZM867.347 9.496V3.376H868.487V3.904H868.535C869.051 3.544 869.843 3.256 870.587 3.256C871.775 3.256 872.351 3.748 872.351 4.936V9.496H871.163V5.212C871.163 4.54 870.971 4.264 870.047 4.264C869.531 4.264 868.943 4.444 868.523 4.648V9.496H867.347ZM879.078 9.556C878.058 9.556 877.386 9.136 877.386 8.02V4.324H876.522V3.376H877.386V1.936H878.574V3.376H880.05V4.324H878.574V7.852C878.574 8.404 878.754 8.608 879.414 8.608C879.666 8.608 879.93 8.572 880.17 8.536V9.328C879.918 9.436 879.642 9.556 879.078 9.556ZM883.811 9.604C881.999 9.604 880.967 8.476 880.967 6.568V6.364C880.967 4.42 882.119 3.256 883.823 3.256C885.599 3.256 886.643 4.396 886.643 6.328V6.508C886.643 8.452 885.479 9.604 883.811 9.604ZM883.823 8.68C884.819 8.68 885.407 7.972 885.407 6.628V6.304C885.407 4.684 884.687 4.204 883.799 4.204C882.767 4.204 882.179 4.912 882.179 6.256V6.58C882.179 8.2 882.911 8.68 883.823 8.68ZM0.96 27.496V19.276H5.856V20.308H2.196V22.924H5.028V23.944H2.196V27.496H0.96ZM8.05819 27.604C6.95419 27.604 6.16219 27.052 6.16219 25.864C6.16219 24.772 6.88219 24.232 8.07019 24.076L9.60619 23.896V23.368C9.60619 22.456 9.22219 22.252 8.14219 22.252C7.54219 22.252 7.03819 22.348 6.66619 22.432V21.604C7.23019 21.376 7.85419 21.256 8.61019 21.256C9.99019 21.256 10.7942 21.832 10.7942 23.068V27.496H9.82219L9.71419 26.98H9.64219C9.35419 27.34 8.85019 27.604 8.05819 27.604ZM8.37019 26.74C8.87419 26.74 9.36619 26.572 9.60619 26.344V24.712L8.33419 24.844C7.68619 24.916 7.36219 25.18 7.36219 25.816C7.36219 26.44 7.75819 26.74 8.37019 26.74ZM14.843 27.604C13.091 27.604 11.975 26.608 11.975 24.58V24.376C11.975 22.24 13.259 21.256 14.915 21.256C15.719 21.256 16.187 21.412 16.595 21.652V22.624C16.055 22.396 15.683 22.252 14.903 22.252C13.859 22.252 13.199 22.936 13.199 24.22V24.532C13.199 26.008 13.823 26.632 15.023 26.632C15.803 26.632 16.343 26.38 16.667 26.224V27.124C16.259 27.388 15.695 27.604 14.843 27.604ZM17.8085 27.496V21.376H18.9845V27.496H17.8085ZM17.7965 20.236V19.084H18.9965V20.236H17.7965ZM20.6561 27.496V18.736H21.8321V27.496H20.6561ZM23.5038 27.496V21.376H24.6798V27.496H23.5038ZM23.4918 20.236V19.084H24.6918V20.236H23.4918ZM28.3434 27.556C27.3234 27.556 26.6514 27.136 26.6514 26.02V22.324H25.7874V21.376H26.6514V19.936H27.8394V21.376H29.3154V22.324H27.8394V25.852C27.8394 26.404 28.0194 26.608 28.6794 26.608C28.9314 26.608 29.1954 26.572 29.4354 26.536V27.328C29.1834 27.436 28.9074 27.556 28.3434 27.556ZM32.1168 27.604C31.0128 27.604 30.2208 27.052 30.2208 25.864C30.2208 24.772 30.9408 24.232 32.1288 24.076L33.6648 23.896V23.368C33.6648 22.456 33.2808 22.252 32.2008 22.252C31.6008 22.252 31.0968 22.348 30.7248 22.432V21.604C31.2888 21.376 31.9128 21.256 32.6688 21.256C34.0488 21.256 34.8528 21.832 34.8528 23.068V27.496H33.8808L33.7728 26.98H33.7008C33.4128 27.34 32.9088 27.604 32.1168 27.604ZM32.4288 26.74C32.9328 26.74 33.4248 26.572 33.6648 26.344V24.712L32.3928 24.844C31.7448 24.916 31.4208 25.18 31.4208 25.816C31.4208 26.44 31.8168 26.74 32.4288 26.74ZM38.4216 27.556C37.4016 27.556 36.7296 27.136 36.7296 26.02V22.324H35.8656V21.376H36.7296V19.936H37.9176V21.376H39.3936V22.324H37.9176V25.852C37.9176 26.404 38.0976 26.608 38.7576 26.608C39.0096 26.608 39.2736 26.572 39.5136 26.536V27.328C39.2616 27.436 38.9856 27.556 38.4216 27.556ZM43.2749 27.604C41.2949 27.604 40.3109 26.428 40.3109 24.508V24.352C40.3109 22.252 41.5709 21.256 43.0469 21.256C44.7749 21.256 45.5789 22.252 45.5789 24.184V24.76H41.5229C41.6069 26.164 42.2909 26.632 43.4909 26.632C44.2949 26.632 44.8229 26.44 45.3869 26.188V27.016C45.0029 27.292 44.2949 27.604 43.2749 27.604ZM42.9989 22.192C42.3509 22.192 41.6189 22.528 41.5229 23.896H44.3429C44.3429 22.66 43.8869 22.192 42.9989 22.192ZM50.0967 27.496V19.276H55.0887V20.308H51.3327V22.756H54.2487V23.776H51.3327V26.464H55.1367V27.496H50.0967ZM56.6084 27.496V21.376H57.7484V21.904H57.7964C58.3124 21.556 58.9604 21.256 59.6684 21.256C60.3524 21.256 60.8444 21.484 61.1204 21.94H61.1684C61.8164 21.52 62.5244 21.256 63.2324 21.256C64.2884 21.256 64.9244 21.748 64.9244 22.936V27.496H63.7364V23.212C63.7364 22.54 63.4724 22.264 62.7164 22.264C62.2844 22.264 61.8164 22.42 61.3244 22.66C61.3364 22.768 61.3484 22.852 61.3484 22.984V27.496H60.1724V23.212C60.1724 22.54 59.9204 22.264 59.1644 22.264C58.6964 22.264 58.2044 22.432 57.7844 22.648V27.496H56.6084ZM66.4756 29.296V21.376H67.6156V21.868H67.6636C68.0356 21.52 68.6716 21.256 69.4156 21.256C70.7476 21.256 71.9116 21.988 71.9116 24.244V24.412C71.9116 26.68 70.8316 27.532 69.1516 27.532C68.4676 27.532 67.9756 27.352 67.6516 27.172V29.296H66.4756ZM69.0076 26.608C70.0636 26.608 70.6756 26.128 70.6756 24.568V24.316C70.6756 22.72 70.0996 22.252 69.0676 22.252C68.4196 22.252 67.9036 22.456 67.6516 22.648V26.224C67.9036 26.416 68.4196 26.608 69.0076 26.608ZM73.1796 27.496V21.376H74.3556V27.496H73.1796ZM73.1676 20.236V19.084H74.3676V20.236H73.1676ZM75.9912 27.496V21.376H77.1312V22.06H77.1792C77.5392 21.652 78.1632 21.304 78.8232 21.304C78.9672 21.304 79.1472 21.316 79.2072 21.352V22.408C79.0512 22.384 78.8472 22.372 78.7272 22.372C78.1512 22.372 77.5872 22.54 77.1672 22.816V27.496H75.9912ZM80.2577 27.496V21.376H81.4337V27.496H80.2577ZM80.2457 20.236V19.084H81.4457V20.236H80.2457ZM85.5773 27.604C83.8253 27.604 82.7093 26.608 82.7093 24.58V24.376C82.7093 22.24 83.9933 21.256 85.6493 21.256C86.4533 21.256 86.9213 21.412 87.3293 21.652V22.624C86.7893 22.396 86.4173 22.252 85.6373 22.252C84.5933 22.252 83.9333 22.936 83.9333 24.22V24.532C83.9333 26.008 84.5573 26.632 85.7573 26.632C86.5373 26.632 87.0773 26.38 87.4013 26.224V27.124C86.9933 27.388 86.4293 27.604 85.5773 27.604ZM90.0308 27.604C88.9268 27.604 88.1348 27.052 88.1348 25.864C88.1348 24.772 88.8548 24.232 90.0428 24.076L91.5788 23.896V23.368C91.5788 22.456 91.1948 22.252 90.1148 22.252C89.5148 22.252 89.0108 22.348 88.6388 22.432V21.604C89.2028 21.376 89.8268 21.256 90.5828 21.256C91.9628 21.256 92.7668 21.832 92.7668 23.068V27.496H91.7948L91.6868 26.98H91.6148C91.3268 27.34 90.8228 27.604 90.0308 27.604ZM90.3428 26.74C90.8468 26.74 91.3388 26.572 91.5788 26.344V24.712L90.3068 24.844C89.6588 24.916 89.3348 25.18 89.3348 25.816C89.3348 26.44 89.7308 26.74 90.3428 26.74ZM94.3436 27.496V18.736H95.5196V27.496H94.3436ZM97.1913 27.496V18.736H98.3673V27.496H97.1913ZM100.495 29.284C100.207 29.284 99.8469 29.2 99.6789 29.116V28.288C99.8229 28.336 100.051 28.36 100.255 28.36C100.831 28.36 101.263 28.312 101.443 27.844L101.707 27.16L99.3669 21.376H100.627L102.295 25.66H102.319L103.855 21.376H105.007L102.547 28.012C102.127 29.164 101.575 29.284 100.495 29.284ZM111.136 27.64C110.092 27.64 109.3 27.412 108.736 27.1V26.092C109.372 26.392 110.176 26.608 111.052 26.608C112.216 26.608 112.708 26.092 112.708 25.276C112.708 24.556 112.384 24.244 111.448 23.944L110.644 23.68C109.516 23.332 108.82 22.732 108.82 21.4C108.82 20.068 109.708 19.132 111.472 19.132C112.516 19.132 113.092 19.36 113.548 19.588V20.596C113.044 20.38 112.372 20.164 111.472 20.164C110.56 20.164 110.044 20.56 110.044 21.292C110.044 22 110.296 22.312 111.148 22.576L111.964 22.828C113.2 23.224 113.98 23.764 113.98 25.18C113.98 26.68 113.092 27.64 111.136 27.64ZM117.061 27.604C115.861 27.604 115.201 27.004 115.201 25.816V21.376H116.389V25.612C116.389 26.332 116.629 26.608 117.457 26.608C118.057 26.608 118.537 26.404 118.957 26.212V21.376H120.133V27.496H119.125L119.005 26.968H118.945C118.441 27.328 117.829 27.604 117.061 27.604ZM121.718 29.296V21.376H122.858V21.868H122.906C123.278 21.52 123.914 21.256 124.658 21.256C125.99 21.256 127.154 21.988 127.154 24.244V24.412C127.154 26.68 126.074 27.532 124.394 27.532C123.71 27.532 123.218 27.352 122.894 27.172V29.296H121.718ZM124.25 26.608C125.306 26.608 125.918 26.128 125.918 24.568V24.316C125.918 22.72 125.342 22.252 124.31 22.252C123.662 22.252 123.146 22.456 122.894 22.648V26.224C123.146 26.416 123.662 26.608 124.25 26.608ZM128.386 29.296V21.376H129.526V21.868H129.574C129.946 21.52 130.582 21.256 131.326 21.256C132.658 21.256 133.822 21.988 133.822 24.244V24.412C133.822 26.68 132.742 27.532 131.062 27.532C130.378 27.532 129.886 27.352 129.562 27.172V29.296H128.386ZM130.918 26.608C131.974 26.608 132.586 26.128 132.586 24.568V24.316C132.586 22.72 132.01 22.252 130.978 22.252C130.33 22.252 129.814 22.456 129.562 22.648V26.224C129.814 26.416 130.33 26.608 130.918 26.608ZM137.538 27.604C135.726 27.604 134.694 26.476 134.694 24.568V24.364C134.694 22.42 135.846 21.256 137.55 21.256C139.326 21.256 140.37 22.396 140.37 24.328V24.508C140.37 26.452 139.206 27.604 137.538 27.604ZM137.55 26.68C138.546 26.68 139.134 25.972 139.134 24.628V24.304C139.134 22.684 138.414 22.204 137.526 22.204C136.494 22.204 135.906 22.912 135.906 24.256V24.58C135.906 26.2 136.638 26.68 137.55 26.68ZM141.581 27.496V21.376H142.721V22.06H142.769C143.129 21.652 143.753 21.304 144.413 21.304C144.557 21.304 144.737 21.316 144.797 21.352V22.408C144.641 22.384 144.437 22.372 144.317 22.372C143.741 22.372 143.177 22.54 142.757 22.816V27.496H141.581ZM147.957 27.556C146.937 27.556 146.265 27.136 146.265 26.02V22.324H145.401V21.376H146.265V19.936H147.453V21.376H148.929V22.324H147.453V25.852C147.453 26.404 147.633 26.608 148.293 26.608C148.545 26.608 148.809 26.572 149.049 26.536V27.328C148.797 27.436 148.521 27.556 147.957 27.556ZM152.81 27.604C150.83 27.604 149.846 26.428 149.846 24.508V24.352C149.846 22.252 151.106 21.256 152.582 21.256C154.31 21.256 155.114 22.252 155.114 24.184V24.76H151.058C151.142 26.164 151.826 26.632 153.026 26.632C153.83 26.632 154.358 26.44 154.922 26.188V27.016C154.538 27.292 153.83 27.604 152.81 27.604ZM152.534 22.192C151.886 22.192 151.154 22.528 151.058 23.896H153.878C153.878 22.66 153.422 22.192 152.534 22.192ZM158.484 27.604C157.296 27.604 155.988 26.86 155.988 24.628V24.472C155.988 22.228 157.128 21.256 158.7 21.256C159.444 21.256 159.936 21.46 160.224 21.628V18.736H161.412V27.496H160.404L160.296 27.004H160.236C159.876 27.364 159.288 27.604 158.484 27.604ZM158.892 26.668C159.528 26.668 159.972 26.404 160.224 26.212V22.576C159.984 22.372 159.456 22.24 158.88 22.24C157.836 22.24 157.2 22.768 157.2 24.328V24.58C157.2 26.188 157.884 26.668 158.892 26.668ZM166.3 27.496V19.276H169.012C170.896 19.276 171.82 20.164 171.82 21.748C171.82 23.44 170.74 24.328 169.12 24.328H167.536V27.496H166.3ZM167.536 23.356H168.88C170.068 23.356 170.512 22.852 170.512 21.844C170.512 20.728 170.08 20.284 168.904 20.284H167.536V23.356ZM174.607 27.592C173.815 27.592 173.107 27.46 172.615 27.16V26.272C173.119 26.464 173.575 26.656 174.439 26.656C175.315 26.656 175.699 26.356 175.699 25.84C175.699 25.372 175.471 25.144 174.727 24.976L174.163 24.82C173.251 24.604 172.627 24.16 172.627 23.08C172.627 21.988 173.323 21.256 174.811 21.256C175.651 21.256 176.167 21.436 176.527 21.616V22.528C176.203 22.396 175.579 22.228 174.907 22.228C174.139 22.228 173.755 22.456 173.755 22.984C173.755 23.452 173.995 23.632 174.607 23.8L175.183 23.944C176.383 24.232 176.863 24.664 176.863 25.756C176.863 26.968 175.999 27.592 174.607 27.592ZM178.565 29.284C178.277 29.284 177.917 29.2 177.749 29.116V28.288C177.893 28.336 178.121 28.36 178.325 28.36C178.901 28.36 179.333 28.312 179.513 27.844L179.777 27.16L177.437 21.376H178.697L180.365 25.66H180.389L181.925 21.376H183.077L180.617 28.012C180.197 29.164 179.645 29.284 178.565 29.284ZM186.546 27.604C184.794 27.604 183.678 26.608 183.678 24.58V24.376C183.678 22.24 184.962 21.256 186.618 21.256C187.422 21.256 187.89 21.412 188.298 21.652V22.624C187.758 22.396 187.386 22.252 186.606 22.252C185.562 22.252 184.902 22.936 184.902 24.22V24.532C184.902 26.008 185.526 26.632 186.726 26.632C187.506 26.632 188.046 26.38 188.37 26.224V27.124C187.962 27.388 187.398 27.604 186.546 27.604ZM189.476 27.496V18.736H190.652V21.88H190.712C191.216 21.532 191.972 21.256 192.716 21.256C193.904 21.256 194.48 21.748 194.48 22.936V27.496H193.292V23.212C193.292 22.54 193.1 22.264 192.176 22.264C191.66 22.264 191.072 22.444 190.652 22.648V27.496H189.476ZM198.51 27.604C196.698 27.604 195.666 26.476 195.666 24.568V24.364C195.666 22.42 196.818 21.256 198.522 21.256C200.298 21.256 201.342 22.396 201.342 24.328V24.508C201.342 26.452 200.178 27.604 198.51 27.604ZM198.522 26.68C199.518 26.68 200.106 25.972 200.106 24.628V24.304C200.106 22.684 199.386 22.204 198.498 22.204C197.466 22.204 196.878 22.912 196.878 24.256V24.58C196.878 26.2 197.61 26.68 198.522 26.68ZM204.582 27.556C203.562 27.556 202.89 27.136 202.89 26.02V22.324H202.026V21.376H202.89V19.936H204.078V21.376H205.554V22.324H204.078V25.852C204.078 26.404 204.258 26.608 204.918 26.608C205.17 26.608 205.434 26.572 205.674 26.536V27.328C205.422 27.436 205.146 27.556 204.582 27.556ZM206.831 27.496V18.736H208.007V21.88H208.067C208.571 21.532 209.327 21.256 210.071 21.256C211.259 21.256 211.835 21.748 211.835 22.936V27.496H210.647V23.212C210.647 22.54 210.455 22.264 209.531 22.264C209.015 22.264 208.427 22.444 208.007 22.648V27.496H206.831ZM215.986 27.604C214.006 27.604 213.022 26.428 213.022 24.508V24.352C213.022 22.252 214.282 21.256 215.758 21.256C217.486 21.256 218.29 22.252 218.29 24.184V24.76H214.234C214.318 26.164 215.002 26.632 216.202 26.632C217.006 26.632 217.534 26.44 218.098 26.188V27.016C217.714 27.292 217.006 27.604 215.986 27.604ZM215.71 22.192C215.062 22.192 214.33 22.528 214.234 23.896H217.054C217.054 22.66 216.598 22.192 215.71 22.192ZM219.487 27.496V21.376H220.627V22.06H220.675C221.035 21.652 221.659 21.304 222.319 21.304C222.463 21.304 222.643 21.316 222.703 21.352V22.408C222.547 22.384 222.343 22.372 222.223 22.372C221.647 22.372 221.083 22.54 220.663 22.816V27.496H219.487ZM225.101 27.604C223.997 27.604 223.205 27.052 223.205 25.864C223.205 24.772 223.925 24.232 225.113 24.076L226.649 23.896V23.368C226.649 22.456 226.265 22.252 225.185 22.252C224.585 22.252 224.081 22.348 223.709 22.432V21.604C224.273 21.376 224.897 21.256 225.653 21.256C227.033 21.256 227.837 21.832 227.837 23.068V27.496H226.865L226.757 26.98H226.685C226.397 27.34 225.893 27.604 225.101 27.604ZM225.413 26.74C225.917 26.74 226.409 26.572 226.649 26.344V24.712L225.377 24.844C224.729 24.916 224.405 25.18 224.405 25.816C224.405 26.44 224.801 26.74 225.413 26.74ZM229.378 29.296V21.376H230.518V21.868H230.566C230.938 21.52 231.574 21.256 232.318 21.256C233.65 21.256 234.814 21.988 234.814 24.244V24.412C234.814 26.68 233.734 27.532 232.054 27.532C231.37 27.532 230.878 27.352 230.554 27.172V29.296H229.378ZM231.91 26.608C232.966 26.608 233.578 26.128 233.578 24.568V24.316C233.578 22.72 233.002 22.252 231.97 22.252C231.322 22.252 230.806 22.456 230.554 22.648V26.224C230.806 26.416 231.322 26.608 231.91 26.608ZM236.538 29.284C236.25 29.284 235.89 29.2 235.722 29.116V28.288C235.866 28.336 236.094 28.36 236.298 28.36C236.874 28.36 237.306 28.312 237.486 27.844L237.75 27.16L235.41 21.376H236.67L238.338 25.66H238.362L239.898 21.376H241.05L238.59 28.012C238.17 29.164 237.618 29.284 236.538 29.284ZM242.059 27.628V26.332H243.379V27.628H242.059Z" fill="black"/>
</svg>
