<svg width="902" height="30" viewBox="0 0 902 30" fill="none" xmlns="http://www.w3.org/2000/svg">
<path d="M0.972 10.744V0.568H3.744V1.48H2.16V9.82H3.744V10.744H0.972ZM5.19131 9.496V1.276H6.43931V9.496H5.19131ZM8.22169 9.496V3.376H9.36169V3.904H9.40969C9.92569 3.544 10.7177 3.256 11.4617 3.256C12.6497 3.256 13.2257 3.748 13.2257 4.936V9.496H12.0377V5.212C12.0377 4.54 11.8457 4.264 10.9217 4.264C10.4057 4.264 9.81769 4.444 9.39769 4.648V9.496H8.22169ZM19.9408 9.64C18.8968 9.64 18.1048 9.412 17.5408 9.1V8.092C18.1768 8.392 18.9808 8.608 19.8568 8.608C21.0208 8.608 21.5128 8.092 21.5128 7.276C21.5128 6.556 21.1888 6.244 20.2528 5.944L19.4488 5.68C18.3208 5.332 17.6248 4.732 17.6248 3.4C17.6248 2.068 18.5128 1.132 20.2768 1.132C21.3208 1.132 21.8968 1.36 22.3528 1.588V2.596C21.8488 2.38 21.1768 2.164 20.2768 2.164C19.3648 2.164 18.8488 2.56 18.8488 3.292C18.8488 4 19.1008 4.312 19.9528 4.576L20.7688 4.828C22.0048 5.224 22.7848 5.764 22.7848 7.18C22.7848 8.68 21.8968 9.64 19.9408 9.64ZM25.866 9.604C24.666 9.604 24.006 9.004 24.006 7.816V3.376H25.194V7.612C25.194 8.332 25.434 8.608 26.262 8.608C26.862 8.608 27.342 8.404 27.762 8.212V3.376H28.938V9.496H27.93L27.81 8.968H27.75C27.246 9.328 26.634 9.604 25.866 9.604ZM32.8265 9.64C32.0825 9.64 31.0625 9.508 30.5225 9.316V0.736H31.6985V3.772H31.7585C32.2265 3.484 32.7905 3.256 33.6065 3.256C34.7345 3.256 35.9585 3.952 35.9585 6.232V6.4C35.9585 8.476 34.8785 9.64 32.8265 9.64ZM32.9105 8.692C33.8705 8.692 34.7225 8.236 34.7225 6.58V6.328C34.7225 4.756 34.1945 4.252 33.0305 4.252C32.4905 4.252 31.9745 4.444 31.6985 4.576V8.488C31.9505 8.584 32.3225 8.692 32.9105 8.692ZM37.1904 9.496V3.376H38.3304V3.904H38.3784C38.8944 3.556 39.5424 3.256 40.2504 3.256C40.9344 3.256 41.4264 3.484 41.7024 3.94H41.7504C42.3984 3.52 43.1064 3.256 43.8144 3.256C44.8704 3.256 45.5064 3.748 45.5064 4.936V9.496H44.3184V5.212C44.3184 4.54 44.0544 4.264 43.2984 4.264C42.8664 4.264 42.3984 4.42 41.9064 4.66C41.9184 4.768 41.9304 4.852 41.9304 4.984V9.496H40.7544V5.212C40.7544 4.54 40.5024 4.264 39.7464 4.264C39.2784 4.264 38.7864 4.432 38.3664 4.648V9.496H37.1904ZM47.0936 9.496V3.376H48.2696V9.496H47.0936ZM47.0816 2.236V1.084H48.2816V2.236H47.0816ZM51.5253 9.592C50.7333 9.592 50.0253 9.46 49.5333 9.16V8.272C50.0373 8.464 50.4933 8.656 51.3573 8.656C52.2333 8.656 52.6173 8.356 52.6173 7.84C52.6173 7.372 52.3893 7.144 51.6453 6.976L51.0813 6.82C50.1693 6.604 49.5453 6.16 49.5453 5.08C49.5453 3.988 50.2413 3.256 51.7293 3.256C52.5693 3.256 53.0853 3.436 53.4453 3.616V4.528C53.1213 4.396 52.4973 4.228 51.8253 4.228C51.0573 4.228 50.6733 4.456 50.6733 4.984C50.6733 5.452 50.9133 5.632 51.5253 5.8L52.1013 5.944C53.3013 6.232 53.7813 6.664 53.7813 7.756C53.7813 8.968 52.9173 9.592 51.5253 9.592ZM56.6112 9.592C55.8192 9.592 55.1112 9.46 54.6192 9.16V8.272C55.1232 8.464 55.5792 8.656 56.4432 8.656C57.3192 8.656 57.7032 8.356 57.7032 7.84C57.7032 7.372 57.4752 7.144 56.7312 6.976L56.1672 6.82C55.2552 6.604 54.6312 6.16 54.6312 5.08C54.6312 3.988 55.3272 3.256 56.8152 3.256C57.6552 3.256 58.1712 3.436 58.5312 3.616V4.528C58.2072 4.396 57.5832 4.228 56.9112 4.228C56.1432 4.228 55.7592 4.456 55.7592 4.984C55.7592 5.452 55.9992 5.632 56.6112 5.8L57.1872 5.944C58.3872 6.232 58.8672 6.664 58.8672 7.756C58.8672 8.968 58.0032 9.592 56.6112 9.592ZM60.1132 9.496V3.376H61.2892V9.496H60.1132ZM60.1012 2.236V1.084H61.3012V2.236H60.1012ZM65.4088 9.604C63.5968 9.604 62.5648 8.476 62.5648 6.568V6.364C62.5648 4.42 63.7168 3.256 65.4208 3.256C67.1968 3.256 68.2408 4.396 68.2408 6.328V6.508C68.2408 8.452 67.0768 9.604 65.4088 9.604ZM65.4208 8.68C66.4168 8.68 67.0048 7.972 67.0048 6.628V6.304C67.0048 4.684 66.2848 4.204 65.3968 4.204C64.3648 4.204 63.7768 4.912 63.7768 6.256V6.58C63.7768 8.2 64.5088 8.68 65.4208 8.68ZM69.4522 9.496V3.376H70.5922V3.904H70.6402C71.1562 3.544 71.9482 3.256 72.6922 3.256C73.8802 3.256 74.4562 3.748 74.4562 4.936V9.496H73.2682V5.212C73.2682 4.54 73.0762 4.264 72.1522 4.264C71.6362 4.264 71.0482 4.444 70.6282 4.648V9.496H69.4522ZM75.6669 10.744V9.82H77.2629V1.48H75.6669V0.568H78.4509V10.744H75.6669ZM82.8106 9.496L85.1986 5.344L82.9906 1.432H85.4746L86.8666 3.988H86.9146L88.2106 1.432H90.4306L88.2466 5.284L90.5986 9.496H88.1146L86.6026 6.748H86.5546L85.0306 9.496H82.8106ZM93.1757 9.604C91.9997 9.604 91.2917 9.076 91.2917 7.816V3.316H93.3197V7.384C93.3197 7.876 93.5357 8.056 94.0757 8.056C94.4357 8.056 94.7477 7.948 95.0117 7.84V3.316H97.0397V9.496H95.2397L95.1077 8.956H95.0477C94.4957 9.376 93.9557 9.604 93.1757 9.604ZM97.7238 11.26L98.2398 8.716H100.256L99.2958 11.26H97.7238ZM104.608 9.496V1.432H106.864V5.14L109.396 1.432H111.676L109.036 5.236L111.844 9.496H109.324L106.864 5.788V9.496H104.608ZM112.5 9.808V7.996H114.468V9.808H112.5ZM115.044 11.26L115.56 8.716H117.576L116.616 11.26H115.044ZM123.98 9.496V6.316L121.304 1.276H122.624L124.652 5.152H124.688L126.68 1.276H127.88L125.216 6.316V9.496H123.98ZM130.343 9.604C129.239 9.604 128.447 9.052 128.447 7.864C128.447 6.772 129.167 6.232 130.355 6.076L131.891 5.896V5.368C131.891 4.456 131.507 4.252 130.427 4.252C129.827 4.252 129.323 4.348 128.951 4.432V3.604C129.515 3.376 130.139 3.256 130.895 3.256C132.275 3.256 133.079 3.832 133.079 5.068V9.496H132.107L131.999 8.98H131.927C131.639 9.34 131.135 9.604 130.343 9.604ZM130.655 8.74C131.159 8.74 131.651 8.572 131.891 8.344V6.712L130.619 6.844C129.971 6.916 129.647 7.18 129.647 7.816C129.647 8.44 130.043 8.74 130.655 8.74ZM134.62 9.496V3.376H135.76V3.904H135.808C136.324 3.544 137.116 3.256 137.86 3.256C139.048 3.256 139.624 3.748 139.624 4.936V9.496H138.436V5.212C138.436 4.54 138.244 4.264 137.32 4.264C136.804 4.264 136.216 4.444 135.796 4.648V9.496H134.62ZM141.099 11.032L141.279 8.356H142.623L142.095 11.032H141.099ZM146.843 9.496L149.495 5.308L146.999 1.276H148.367L150.335 4.42H150.395L152.207 1.276H153.467L151.055 5.308L153.611 9.496H152.243L150.191 6.184H150.167L148.127 9.496H146.843ZM154.789 9.628V8.332H156.109V9.628H154.789ZM157.669 11.032L157.849 8.356H159.193L158.665 11.032H157.669ZM164.062 9.496V1.276H165.49L169.114 7.432H169.15V1.276H170.266V9.496H169.018L165.226 2.98H165.178V9.496H164.062ZM174.619 9.604C172.639 9.604 171.655 8.428 171.655 6.508V6.352C171.655 4.252 172.915 3.256 174.391 3.256C176.119 3.256 176.923 4.252 176.923 6.184V6.76H172.867C172.951 8.164 173.635 8.632 174.835 8.632C175.639 8.632 176.167 8.44 176.731 8.188V9.016C176.347 9.292 175.639 9.604 174.619 9.604ZM174.343 4.192C173.695 4.192 172.963 4.528 172.867 5.896H175.687C175.687 4.66 175.231 4.192 174.343 4.192ZM179.296 9.496L177.58 3.376H178.828L179.992 7.972H180.052L181.372 3.376H182.38L183.724 7.972H183.772L184.924 3.376H186.028L184.312 9.496H183.148L181.84 5.14H181.792L180.484 9.496H179.296ZM187.062 9.496V3.376H188.202V3.904H188.25C188.766 3.556 189.414 3.256 190.122 3.256C190.806 3.256 191.298 3.484 191.574 3.94H191.622C192.27 3.52 192.978 3.256 193.686 3.256C194.742 3.256 195.378 3.748 195.378 4.936V9.496H194.19V5.212C194.19 4.54 193.926 4.264 193.17 4.264C192.738 4.264 192.27 4.42 191.778 4.66C191.79 4.768 191.802 4.852 191.802 4.984V9.496H190.626V5.212C190.626 4.54 190.374 4.264 189.618 4.264C189.15 4.264 188.658 4.432 188.238 4.648V9.496H187.062ZM198.453 9.604C197.349 9.604 196.557 9.052 196.557 7.864C196.557 6.772 197.277 6.232 198.465 6.076L200.001 5.896V5.368C200.001 4.456 199.617 4.252 198.537 4.252C197.937 4.252 197.433 4.348 197.061 4.432V3.604C197.625 3.376 198.249 3.256 199.005 3.256C200.385 3.256 201.189 3.832 201.189 5.068V9.496H200.217L200.109 8.98H200.037C199.749 9.34 199.245 9.604 198.453 9.604ZM198.765 8.74C199.269 8.74 199.761 8.572 200.001 8.344V6.712L198.729 6.844C198.081 6.916 197.757 7.18 197.757 7.816C197.757 8.44 198.153 8.74 198.765 8.74ZM202.729 9.496V3.376H203.87V3.904H203.918C204.434 3.544 205.226 3.256 205.97 3.256C207.158 3.256 207.734 3.748 207.734 4.936V9.496H206.546V5.212C206.546 4.54 206.354 4.264 205.43 4.264C204.914 4.264 204.326 4.444 203.906 4.648V9.496H202.729ZM209.208 11.032L209.388 8.356H210.732L210.204 11.032H209.208ZM215.601 9.496V1.276H217.389L219.537 7.828H219.573L221.721 1.276H223.485V9.496H222.249V2.86H222.225L220.017 9.496H218.925L216.753 2.86H216.705V9.496H215.601ZM225.301 9.628V8.332H226.621V9.628H225.301ZM229.777 9.496L227.713 1.276H228.973L230.449 7.624H230.485L232.273 1.276H233.305L235.057 7.624H235.081L236.581 1.276H237.709L235.669 9.496H234.469L232.765 3.268H232.729L230.977 9.496H229.777ZM238.801 9.628V8.332H240.121V9.628H238.801ZM241.681 11.032L241.861 8.356H243.205L242.677 11.032H241.681ZM249.429 9.604C248.325 9.604 247.533 9.052 247.533 7.864C247.533 6.772 248.253 6.232 249.441 6.076L250.977 5.896V5.368C250.977 4.456 250.593 4.252 249.513 4.252C248.913 4.252 248.409 4.348 248.037 4.432V3.604C248.601 3.376 249.225 3.256 249.981 3.256C251.361 3.256 252.165 3.832 252.165 5.068V9.496H251.193L251.085 8.98H251.013C250.725 9.34 250.221 9.604 249.429 9.604ZM249.741 8.74C250.245 8.74 250.737 8.572 250.977 8.344V6.712L249.705 6.844C249.057 6.916 248.733 7.18 248.733 7.816C248.733 8.44 249.129 8.74 249.741 8.74ZM253.706 9.496V3.376H254.846V3.904H254.894C255.41 3.544 256.202 3.256 256.946 3.256C258.134 3.256 258.71 3.748 258.71 4.936V9.496H257.522V5.212C257.522 4.54 257.33 4.264 256.406 4.264C255.89 4.264 255.302 4.444 254.882 4.648V9.496H253.706ZM262.429 9.604C261.241 9.604 259.933 8.86 259.933 6.628V6.472C259.933 4.228 261.073 3.256 262.645 3.256C263.389 3.256 263.881 3.46 264.169 3.628V0.736H265.357V9.496H264.349L264.241 9.004H264.181C263.821 9.364 263.233 9.604 262.429 9.604ZM262.837 8.668C263.473 8.668 263.917 8.404 264.169 8.212V4.576C263.929 4.372 263.401 4.24 262.825 4.24C261.781 4.24 261.145 4.768 261.145 6.328V6.58C261.145 8.188 261.829 8.668 262.837 8.668ZM269.429 9.496L272.405 1.276H273.653L276.605 9.496H275.309L274.517 7.264H271.373L270.593 9.496H269.429ZM272.909 2.836L271.709 6.28H274.157L272.945 2.836H272.909ZM277.53 9.496V3.376H278.67V4.06H278.718C279.078 3.652 279.702 3.304 280.362 3.304C280.506 3.304 280.686 3.316 280.746 3.352V4.408C280.59 4.384 280.386 4.372 280.266 4.372C279.69 4.372 279.126 4.54 278.706 4.816V9.496H277.53ZM281.761 9.496V3.376H282.901V4.06H282.949C283.309 3.652 283.933 3.304 284.593 3.304C284.737 3.304 284.917 3.316 284.977 3.352V4.408C284.821 4.384 284.617 4.372 284.497 4.372C283.921 4.372 283.357 4.54 282.937 4.816V9.496H281.761ZM286.027 9.496V3.376H287.203V9.496H286.027ZM286.015 2.236V1.084H287.215V2.236H286.015ZM290.363 9.604C289.259 9.604 288.467 9.052 288.467 7.864C288.467 6.772 289.187 6.232 290.375 6.076L291.911 5.896V5.368C291.911 4.456 291.527 4.252 290.447 4.252C289.847 4.252 289.343 4.348 288.971 4.432V3.604C289.535 3.376 290.159 3.256 290.915 3.256C292.295 3.256 293.099 3.832 293.099 5.068V9.496H292.127L292.019 8.98H291.947C291.659 9.34 291.155 9.604 290.363 9.604ZM290.675 8.74C291.179 8.74 291.671 8.572 291.911 8.344V6.712L290.639 6.844C289.991 6.916 289.667 7.18 289.667 7.816C289.667 8.44 290.063 8.74 290.675 8.74ZM296.777 11.272C294.893 11.272 293.981 10.864 293.981 9.952C293.981 9.316 294.497 8.908 295.121 8.692V8.632C294.773 8.512 294.497 8.368 294.497 7.96C294.497 7.528 294.725 7.168 295.205 6.832C294.749 6.52 294.437 6.04 294.437 5.356V5.236C294.437 3.964 295.421 3.256 296.813 3.256C297.149 3.256 297.449 3.292 297.737 3.352H299.813V4.204H298.829C299.045 4.444 299.153 4.78 299.153 5.188V5.308C299.153 6.592 298.133 7.204 296.801 7.204C296.453 7.204 296.117 7.168 295.805 7.072C295.673 7.204 295.577 7.36 295.577 7.516C295.577 7.828 295.745 7.852 296.141 7.852H297.821C298.961 7.852 299.777 8.26 299.777 9.448C299.777 10.576 298.901 11.272 296.777 11.272ZM296.753 10.396C298.085 10.396 298.553 10.216 298.553 9.628C298.553 9.124 298.265 8.92 297.545 8.92H295.901C295.493 9.052 295.193 9.328 295.193 9.784C295.193 10.264 295.637 10.396 296.753 10.396ZM296.801 6.388C297.569 6.388 298.001 6.052 298.001 5.356V5.188C298.001 4.42 297.533 4.096 296.801 4.096C296.057 4.096 295.601 4.468 295.601 5.164V5.332C295.601 6.052 296.081 6.388 296.801 6.388ZM302.281 9.604C301.177 9.604 300.385 9.052 300.385 7.864C300.385 6.772 301.105 6.232 302.293 6.076L303.829 5.896V5.368C303.829 4.456 303.445 4.252 302.365 4.252C301.765 4.252 301.261 4.348 300.889 4.432V3.604C301.453 3.376 302.077 3.256 302.833 3.256C304.213 3.256 305.017 3.832 305.017 5.068V9.496H304.045L303.937 8.98H303.865C303.577 9.34 303.073 9.604 302.281 9.604ZM302.593 8.74C303.097 8.74 303.589 8.572 303.829 8.344V6.712L302.557 6.844C301.909 6.916 301.585 7.18 301.585 7.816C301.585 8.44 301.981 8.74 302.593 8.74ZM306.486 11.032L306.666 8.356H308.01L307.482 11.032H306.486ZM312.878 9.496V1.276H315.446C317.27 1.276 318.242 2.068 318.242 3.652C318.242 4.816 317.654 5.428 316.706 5.788V5.848L318.806 9.496H317.426L315.506 6.076H314.114V9.496H312.878ZM314.114 5.164H315.326C316.478 5.164 316.946 4.684 316.946 3.688C316.946 2.692 316.454 2.284 315.314 2.284H314.114V5.164ZM319.871 9.628V8.332H321.191V9.628H319.871ZM323.027 9.496V1.276H324.275V9.496H323.027ZM326.106 9.628V8.332H327.426V9.628H326.106ZM332.09 9.496V8.764L333.818 6.964C334.946 5.776 335.81 4.816 335.81 3.736C335.81 2.704 335.27 2.26 334.19 2.26C333.578 2.26 332.906 2.56 332.45 2.86L332.198 1.912C332.726 1.588 333.554 1.24 334.478 1.24C336.206 1.24 337.118 2.128 337.118 3.592C337.118 5.02 336.026 6.172 334.874 7.384L333.77 8.488H337.226V9.496H332.09ZM341.586 9.64C339.858 9.64 338.502 8.512 338.502 5.74V5.164C338.502 2.26 339.954 1.24 341.61 1.24C343.254 1.24 344.634 2.272 344.634 5.116V5.728C344.634 8.548 343.278 9.64 341.586 9.64ZM341.586 8.656C342.75 8.656 343.35 7.852 343.35 5.848V5.104C343.35 3.124 342.75 2.224 341.598 2.224C340.434 2.224 339.822 3.088 339.822 5.032V5.776C339.822 7.732 340.422 8.656 341.586 8.656ZM345.93 9.496V8.764L347.658 6.964C348.786 5.776 349.65 4.816 349.65 3.736C349.65 2.704 349.11 2.26 348.03 2.26C347.418 2.26 346.746 2.56 346.29 2.86L346.038 1.912C346.566 1.588 347.394 1.24 348.318 1.24C350.046 1.24 350.958 2.128 350.958 3.592C350.958 5.02 349.866 6.172 348.714 7.384L347.61 8.488H351.066V9.496H345.93ZM354.512 9.616C353.54 9.616 352.688 9.352 352.232 9.04L352.46 8.116C352.892 8.392 353.696 8.608 354.308 8.608C355.52 8.608 356.18 8.092 356.18 7.144C356.18 6.196 355.484 5.776 354.368 5.764L353.576 5.752V4.804L354.284 4.792C355.28 4.78 355.916 4.3 355.916 3.484C355.916 2.584 355.34 2.26 354.404 2.26C353.78 2.26 353.168 2.512 352.676 2.752L352.52 1.804C353.024 1.492 353.948 1.24 354.716 1.24C356.204 1.24 357.188 1.972 357.188 3.268C357.188 4.252 356.6 4.864 355.688 5.176C356.72 5.38 357.476 5.956 357.476 7.192C357.476 8.656 356.336 9.616 354.512 9.616ZM358.942 9.628V8.332H360.262V9.628H358.942ZM365.214 9.496V1.276H367.782C369.606 1.276 370.578 2.068 370.578 3.652C370.578 4.816 369.99 5.428 369.042 5.788V5.848L371.142 9.496H369.762L367.842 6.076H366.45V9.496H365.214ZM366.45 5.164H367.662C368.814 5.164 369.282 4.684 369.282 3.688C369.282 2.692 368.79 2.284 367.65 2.284H366.45V5.164ZM374.763 9.604C372.783 9.604 371.799 8.428 371.799 6.508V6.352C371.799 4.252 373.059 3.256 374.535 3.256C376.263 3.256 377.067 4.252 377.067 6.184V6.76H373.011C373.095 8.164 373.779 8.632 374.979 8.632C375.783 8.632 376.311 8.44 376.875 8.188V9.016C376.491 9.292 375.783 9.604 374.763 9.604ZM374.487 4.192C373.839 4.192 373.107 4.528 373.011 5.896H375.831C375.831 4.66 375.375 4.192 374.487 4.192ZM380.351 9.556C379.331 9.556 378.659 9.136 378.659 8.02V4.324H377.795V3.376H378.659V1.936H379.847V3.376H381.323V4.324H379.847V7.852C379.847 8.404 380.027 8.608 380.687 8.608C380.939 8.608 381.203 8.572 381.443 8.536V9.328C381.191 9.436 380.915 9.556 380.351 9.556ZM382.601 9.496V0.736H383.777V3.88H383.837C384.341 3.532 385.097 3.256 385.841 3.256C387.029 3.256 387.605 3.748 387.605 4.936V9.496H386.417V5.212C386.417 4.54 386.225 4.264 385.301 4.264C384.785 4.264 384.197 4.444 383.777 4.648V9.496H382.601ZM389.187 9.496V3.376H390.363V9.496H389.187ZM389.175 2.236V1.084H390.375V2.236H389.175ZM391.999 9.496V3.376H393.139V3.904H393.187C393.703 3.544 394.495 3.256 395.239 3.256C396.427 3.256 397.003 3.748 397.003 4.936V9.496H395.815V5.212C395.815 4.54 395.623 4.264 394.699 4.264C394.183 4.264 393.595 4.444 393.175 4.648V9.496H391.999ZM398.55 9.496V0.736H399.726V9.496H398.55ZM402.186 9.496L399.834 6.328L402.09 3.376H403.35L401.106 6.256L403.518 9.496H402.186ZM404.539 9.496V3.376H405.715V9.496H404.539ZM404.527 2.236V1.084H405.727V2.236H404.527ZM407.351 9.496V3.376H408.491V3.904H408.539C409.055 3.544 409.847 3.256 410.591 3.256C411.779 3.256 412.355 3.748 412.355 4.936V9.496H411.167V5.212C411.167 4.54 410.975 4.264 410.051 4.264C409.535 4.264 408.947 4.444 408.527 4.648V9.496H407.351ZM416.097 11.272C414.213 11.272 413.301 10.864 413.301 9.952C413.301 9.316 413.817 8.908 414.441 8.692V8.632C414.093 8.512 413.817 8.368 413.817 7.96C413.817 7.528 414.045 7.168 414.525 6.832C414.069 6.52 413.757 6.04 413.757 5.356V5.236C413.757 3.964 414.741 3.256 416.133 3.256C416.469 3.256 416.769 3.292 417.057 3.352H419.133V4.204H418.149C418.365 4.444 418.473 4.78 418.473 5.188V5.308C418.473 6.592 417.453 7.204 416.121 7.204C415.773 7.204 415.437 7.168 415.125 7.072C414.993 7.204 414.897 7.36 414.897 7.516C414.897 7.828 415.065 7.852 415.461 7.852H417.141C418.281 7.852 419.097 8.26 419.097 9.448C419.097 10.576 418.221 11.272 416.097 11.272ZM416.073 10.396C417.405 10.396 417.873 10.216 417.873 9.628C417.873 9.124 417.585 8.92 416.865 8.92H415.221C414.813 9.052 414.513 9.328 414.513 9.784C414.513 10.264 414.957 10.396 416.073 10.396ZM416.121 6.388C416.889 6.388 417.321 6.052 417.321 5.356V5.188C417.321 4.42 416.853 4.096 416.121 4.096C415.377 4.096 414.921 4.468 414.921 5.164V5.332C414.921 6.052 415.401 6.388 416.121 6.388ZM425.246 9.64C424.201 9.64 423.41 9.412 422.846 9.1V8.092C423.482 8.392 424.286 8.608 425.162 8.608C426.326 8.608 426.818 8.092 426.818 7.276C426.818 6.556 426.494 6.244 425.558 5.944L424.754 5.68C423.626 5.332 422.93 4.732 422.93 3.4C422.93 2.068 423.818 1.132 425.582 1.132C426.626 1.132 427.202 1.36 427.658 1.588V2.596C427.154 2.38 426.482 2.164 425.582 2.164C424.67 2.164 424.154 2.56 424.154 3.292C424.154 4 424.406 4.312 425.258 4.576L426.074 4.828C427.31 5.224 428.09 5.764 428.09 7.18C428.09 8.68 427.202 9.64 425.246 9.64ZM431.951 9.604C429.971 9.604 428.987 8.428 428.987 6.508V6.352C428.987 4.252 430.247 3.256 431.723 3.256C433.451 3.256 434.255 4.252 434.255 6.184V6.76H430.199C430.283 8.164 430.967 8.632 432.167 8.632C432.971 8.632 433.499 8.44 434.063 8.188V9.016C433.679 9.292 432.971 9.604 431.951 9.604ZM431.675 4.192C431.027 4.192 430.295 4.528 430.199 5.896H433.019C433.019 4.66 432.563 4.192 431.675 4.192ZM435.488 9.496V0.736H436.664V9.496H435.488ZM438.66 9.496V4.324H437.772V3.376H438.66V2.548C438.66 1.216 439.476 0.64 440.604 0.64C441.132 0.64 441.48 0.736 441.696 0.844V1.648C441.54 1.612 441.252 1.564 440.868 1.564C440.22 1.564 439.848 1.888 439.848 2.656V3.376H441.204V4.324H439.848V9.496H438.66ZM441.762 6.04V5.02H445.338V6.04H441.762ZM446.87 9.496V1.276H451.862V2.308H448.106V4.756H451.022V5.776H448.106V8.464H451.91V9.496H446.87ZM452.665 9.496L454.705 6.376L452.749 3.376H454.153L455.521 5.572L456.793 3.376H458.041L456.193 6.364L458.209 9.496H456.805L455.389 7.192L453.937 9.496H452.665ZM459.194 11.296V3.376H460.334V3.868H460.382C460.754 3.52 461.39 3.256 462.134 3.256C463.466 3.256 464.63 3.988 464.63 6.244V6.412C464.63 8.68 463.55 9.532 461.87 9.532C461.186 9.532 460.694 9.352 460.37 9.172V11.296H459.194ZM461.726 8.608C462.782 8.608 463.394 8.128 463.394 6.568V6.316C463.394 4.72 462.818 4.252 461.786 4.252C461.138 4.252 460.622 4.456 460.37 4.648V8.224C460.622 8.416 461.138 8.608 461.726 8.608ZM468.466 9.604C466.486 9.604 465.502 8.428 465.502 6.508V6.352C465.502 4.252 466.762 3.256 468.238 3.256C469.966 3.256 470.77 4.252 470.77 6.184V6.76H466.714C466.798 8.164 467.482 8.632 468.682 8.632C469.486 8.632 470.014 8.44 470.578 8.188V9.016C470.194 9.292 469.486 9.604 468.466 9.604ZM468.19 4.192C467.542 4.192 466.81 4.528 466.714 5.896H469.534C469.534 4.66 469.078 4.192 468.19 4.192ZM471.968 9.496V3.376H473.108V4.06H473.156C473.516 3.652 474.14 3.304 474.8 3.304C474.944 3.304 475.124 3.316 475.184 3.352V4.408C475.028 4.384 474.824 4.372 474.704 4.372C474.128 4.372 473.564 4.54 473.144 4.816V9.496H471.968ZM476.234 9.496V3.376H477.41V9.496H476.234ZM476.222 2.236V1.084H477.422V2.236H476.222ZM479.046 9.496V3.376H480.186V3.904H480.234C480.75 3.556 481.398 3.256 482.106 3.256C482.79 3.256 483.282 3.484 483.558 3.94H483.606C484.254 3.52 484.962 3.256 485.67 3.256C486.726 3.256 487.362 3.748 487.362 4.936V9.496H486.174V5.212C486.174 4.54 485.91 4.264 485.154 4.264C484.722 4.264 484.254 4.42 483.762 4.66C483.774 4.768 483.786 4.852 483.786 4.984V9.496H482.61V5.212C482.61 4.54 482.358 4.264 481.602 4.264C481.134 4.264 480.642 4.432 480.222 4.648V9.496H479.046ZM491.517 9.604C489.537 9.604 488.553 8.428 488.553 6.508V6.352C488.553 4.252 489.813 3.256 491.289 3.256C493.017 3.256 493.821 4.252 493.821 6.184V6.76H489.765C489.849 8.164 490.533 8.632 491.733 8.632C492.537 8.632 493.065 8.44 493.629 8.188V9.016C493.245 9.292 492.537 9.604 491.517 9.604ZM491.241 4.192C490.593 4.192 489.861 4.528 489.765 5.896H492.585C492.585 4.66 492.129 4.192 491.241 4.192ZM495.019 9.496V3.376H496.159V3.904H496.207C496.723 3.544 497.515 3.256 498.259 3.256C499.447 3.256 500.023 3.748 500.023 4.936V9.496H498.835V5.212C498.835 4.54 498.643 4.264 497.719 4.264C497.203 4.264 496.615 4.444 496.195 4.648V9.496H495.019ZM503.597 9.556C502.577 9.556 501.905 9.136 501.905 8.02V4.324H501.041V3.376H501.905V1.936H503.093V3.376H504.569V4.324H503.093V7.852C503.093 8.404 503.273 8.608 503.933 8.608C504.185 8.608 504.449 8.572 504.689 8.536V9.328C504.437 9.436 504.161 9.556 503.597 9.556ZM507.371 9.604C506.267 9.604 505.475 9.052 505.475 7.864C505.475 6.772 506.195 6.232 507.383 6.076L508.919 5.896V5.368C508.919 4.456 508.535 4.252 507.455 4.252C506.855 4.252 506.351 4.348 505.979 4.432V3.604C506.543 3.376 507.167 3.256 507.923 3.256C509.303 3.256 510.107 3.832 510.107 5.068V9.496H509.135L509.027 8.98H508.955C508.667 9.34 508.163 9.604 507.371 9.604ZM507.683 8.74C508.187 8.74 508.679 8.572 508.919 8.344V6.712L507.647 6.844C506.999 6.916 506.675 7.18 506.675 7.816C506.675 8.44 507.071 8.74 507.683 8.74ZM513.675 9.556C512.655 9.556 511.983 9.136 511.983 8.02V4.324H511.119V3.376H511.983V1.936H513.171V3.376H514.647V4.324H513.171V7.852C513.171 8.404 513.351 8.608 514.011 8.608C514.263 8.608 514.527 8.572 514.767 8.536V9.328C514.515 9.436 514.239 9.556 513.675 9.556ZM515.961 9.496V3.376H517.137V9.496H515.961ZM515.949 2.236V1.084H517.149V2.236H515.949ZM521.256 9.604C519.444 9.604 518.412 8.476 518.412 6.568V6.364C518.412 4.42 519.564 3.256 521.268 3.256C523.044 3.256 524.088 4.396 524.088 6.328V6.508C524.088 8.452 522.924 9.604 521.256 9.604ZM521.268 8.68C522.264 8.68 522.852 7.972 522.852 6.628V6.304C522.852 4.684 522.132 4.204 521.244 4.204C520.212 4.204 519.624 4.912 519.624 6.256V6.58C519.624 8.2 520.356 8.68 521.268 8.68ZM525.3 9.496V3.376H526.44V3.904H526.488C527.004 3.544 527.796 3.256 528.54 3.256C529.728 3.256 530.304 3.748 530.304 4.936V9.496H529.116V5.212C529.116 4.54 528.924 4.264 528 4.264C527.484 4.264 526.896 4.444 526.476 4.648V9.496H525.3ZM532.043 4.468V3.196H533.351V4.468H532.043ZM532.043 8.896V7.624H533.351V8.896H532.043ZM541.512 9.64C539.496 9.64 538.368 8.668 538.368 6.628V1.276H539.64V6.556C539.64 8.188 540.3 8.692 541.56 8.692C542.808 8.692 543.408 8.2 543.408 6.544V1.276H544.536V6.592C544.536 8.704 543.54 9.64 541.512 9.64ZM546.253 9.496V3.376H547.393V3.904H547.441C547.957 3.544 548.749 3.256 549.493 3.256C550.681 3.256 551.257 3.748 551.257 4.936V9.496H550.069V5.212C550.069 4.54 549.877 4.264 548.953 4.264C548.437 4.264 547.849 4.444 547.429 4.648V9.496H546.253ZM554.976 9.604C553.788 9.604 552.48 8.86 552.48 6.628V6.472C552.48 4.228 553.62 3.256 555.192 3.256C555.936 3.256 556.428 3.46 556.716 3.628V0.736H557.904V9.496H556.896L556.788 9.004H556.728C556.368 9.364 555.78 9.604 554.976 9.604ZM555.384 8.668C556.02 8.668 556.464 8.404 556.716 8.212V4.576C556.476 4.372 555.948 4.24 555.372 4.24C554.328 4.24 553.692 4.768 553.692 6.328V6.58C553.692 8.188 554.376 8.668 555.384 8.668ZM562.076 9.604C560.096 9.604 559.112 8.428 559.112 6.508V6.352C559.112 4.252 560.372 3.256 561.848 3.256C563.576 3.256 564.38 4.252 564.38 6.184V6.76H560.324C560.408 8.164 561.092 8.632 562.292 8.632C563.096 8.632 563.624 8.44 564.188 8.188V9.016C563.804 9.292 563.096 9.604 562.076 9.604ZM561.8 4.192C561.152 4.192 560.42 4.528 560.324 5.896H563.144C563.144 4.66 562.688 4.192 561.8 4.192ZM565.577 9.496V3.376H566.717V4.06H566.765C567.125 3.652 567.749 3.304 568.409 3.304C568.553 3.304 568.733 3.316 568.793 3.352V4.408C568.637 4.384 568.433 4.372 568.313 4.372C567.737 4.372 567.173 4.54 566.753 4.816V9.496H565.577ZM571.428 9.592C570.636 9.592 569.928 9.46 569.436 9.16V8.272C569.94 8.464 570.396 8.656 571.26 8.656C572.136 8.656 572.52 8.356 572.52 7.84C572.52 7.372 572.292 7.144 571.548 6.976L570.984 6.82C570.072 6.604 569.448 6.16 569.448 5.08C569.448 3.988 570.144 3.256 571.632 3.256C572.472 3.256 572.988 3.436 573.348 3.616V4.528C573.024 4.396 572.4 4.228 571.728 4.228C570.96 4.228 570.576 4.456 570.576 4.984C570.576 5.452 570.816 5.632 571.428 5.8L572.004 5.944C573.204 6.232 573.684 6.664 573.684 7.756C573.684 8.968 572.82 9.592 571.428 9.592ZM576.922 9.556C575.902 9.556 575.23 9.136 575.23 8.02V4.324H574.366V3.376H575.23V1.936H576.418V3.376H577.894V4.324H576.418V7.852C576.418 8.404 576.598 8.608 577.258 8.608C577.51 8.608 577.774 8.572 578.014 8.536V9.328C577.762 9.436 577.486 9.556 576.922 9.556ZM580.695 9.604C579.591 9.604 578.799 9.052 578.799 7.864C578.799 6.772 579.519 6.232 580.707 6.076L582.243 5.896V5.368C582.243 4.456 581.859 4.252 580.779 4.252C580.179 4.252 579.675 4.348 579.303 4.432V3.604C579.867 3.376 580.491 3.256 581.247 3.256C582.627 3.256 583.431 3.832 583.431 5.068V9.496H582.459L582.351 8.98H582.279C581.991 9.34 581.487 9.604 580.695 9.604ZM581.007 8.74C581.511 8.74 582.003 8.572 582.243 8.344V6.712L580.971 6.844C580.323 6.916 579.999 7.18 579.999 7.816C579.999 8.44 580.395 8.74 581.007 8.74ZM584.972 9.496V3.376H586.112V3.904H586.16C586.676 3.544 587.468 3.256 588.212 3.256C589.4 3.256 589.976 3.748 589.976 4.936V9.496H588.788V5.212C588.788 4.54 588.596 4.264 587.672 4.264C587.156 4.264 586.568 4.444 586.148 4.648V9.496H584.972ZM593.694 9.604C592.506 9.604 591.198 8.86 591.198 6.628V6.472C591.198 4.228 592.338 3.256 593.91 3.256C594.654 3.256 595.146 3.46 595.434 3.628V0.736H596.622V9.496H595.614L595.506 9.004H595.446C595.086 9.364 594.498 9.604 593.694 9.604ZM594.102 8.668C594.738 8.668 595.182 8.404 595.434 8.212V4.576C595.194 4.372 594.666 4.24 594.09 4.24C593.046 4.24 592.41 4.768 592.41 6.328V6.58C592.41 8.188 593.094 8.668 594.102 8.668ZM598.226 9.496V3.376H599.402V9.496H598.226ZM598.214 2.236V1.084H599.414V2.236H598.214ZM601.038 9.496V3.376H602.178V3.904H602.226C602.742 3.544 603.534 3.256 604.278 3.256C605.466 3.256 606.042 3.748 606.042 4.936V9.496H604.854V5.212C604.854 4.54 604.662 4.264 603.738 4.264C603.222 4.264 602.634 4.444 602.214 4.648V9.496H601.038ZM609.785 11.272C607.901 11.272 606.989 10.864 606.989 9.952C606.989 9.316 607.505 8.908 608.129 8.692V8.632C607.781 8.512 607.505 8.368 607.505 7.96C607.505 7.528 607.733 7.168 608.213 6.832C607.757 6.52 607.445 6.04 607.445 5.356V5.236C607.445 3.964 608.429 3.256 609.821 3.256C610.157 3.256 610.457 3.292 610.745 3.352H612.821V4.204H611.837C612.053 4.444 612.161 4.78 612.161 5.188V5.308C612.161 6.592 611.141 7.204 609.809 7.204C609.461 7.204 609.125 7.168 608.813 7.072C608.681 7.204 608.585 7.36 608.585 7.516C608.585 7.828 608.753 7.852 609.149 7.852H610.829C611.969 7.852 612.785 8.26 612.785 9.448C612.785 10.576 611.909 11.272 609.785 11.272ZM609.761 10.396C611.093 10.396 611.561 10.216 611.561 9.628C611.561 9.124 611.273 8.92 610.553 8.92H608.909C608.501 9.052 608.201 9.328 608.201 9.784C608.201 10.264 608.645 10.396 609.761 10.396ZM609.809 6.388C610.577 6.388 611.009 6.052 611.009 5.356V5.188C611.009 4.42 610.541 4.096 609.809 4.096C609.065 4.096 608.609 4.468 608.609 5.164V5.332C608.609 6.052 609.089 6.388 609.809 6.388ZM618.945 9.556C617.925 9.556 617.253 9.136 617.253 8.02V4.324H616.389V3.376H617.253V1.936H618.441V3.376H619.917V4.324H618.441V7.852C618.441 8.404 618.621 8.608 619.281 8.608C619.533 8.608 619.797 8.572 620.037 8.536V9.328C619.785 9.436 619.509 9.556 618.945 9.556ZM621.194 9.496V0.736H622.37V3.88H622.43C622.934 3.532 623.69 3.256 624.434 3.256C625.622 3.256 626.198 3.748 626.198 4.936V9.496H625.01V5.212C625.01 4.54 624.818 4.264 623.894 4.264C623.378 4.264 622.79 4.444 622.37 4.648V9.496H621.194ZM630.349 9.604C628.369 9.604 627.385 8.428 627.385 6.508V6.352C627.385 4.252 628.645 3.256 630.121 3.256C631.849 3.256 632.653 4.252 632.653 6.184V6.76H628.597C628.681 8.164 629.365 8.632 630.565 8.632C631.369 8.632 631.897 8.44 632.461 8.188V9.016C632.077 9.292 631.369 9.604 630.349 9.604ZM630.073 4.192C629.425 4.192 628.693 4.528 628.597 5.896H631.417C631.417 4.66 630.961 4.192 630.073 4.192ZM637.171 9.496V1.276H642.163V2.308H638.407V4.756H641.323V5.776H638.407V8.464H642.211V9.496H637.171ZM643.785 9.496V4.324H642.897V3.376H643.785V2.548C643.785 1.216 644.601 0.64 645.729 0.64C646.257 0.64 646.605 0.736 646.821 0.844V1.648C646.665 1.612 646.377 1.564 645.993 1.564C645.345 1.564 644.973 1.888 644.973 2.656V3.376H646.329V4.324H644.973V9.496H643.785ZM647.769 9.496V4.324H646.881V3.376H647.769V2.548C647.769 1.216 648.585 0.64 649.713 0.64C650.241 0.64 650.589 0.736 650.805 0.844V1.648C650.649 1.612 650.361 1.564 649.977 1.564C649.329 1.564 648.957 1.888 648.957 2.656V3.376H650.313V4.324H648.957V9.496H647.769ZM653.998 9.604C652.018 9.604 651.034 8.428 651.034 6.508V6.352C651.034 4.252 652.294 3.256 653.77 3.256C655.498 3.256 656.302 4.252 656.302 6.184V6.76H652.246C652.33 8.164 653.014 8.632 654.214 8.632C655.018 8.632 655.546 8.44 656.11 8.188V9.016C655.726 9.292 655.018 9.604 653.998 9.604ZM653.722 4.192C653.074 4.192 652.342 4.528 652.246 5.896H655.066C655.066 4.66 654.61 4.192 653.722 4.192ZM660.007 9.604C658.255 9.604 657.139 8.608 657.139 6.58V6.376C657.139 4.24 658.423 3.256 660.079 3.256C660.883 3.256 661.351 3.412 661.759 3.652V4.624C661.219 4.396 660.847 4.252 660.067 4.252C659.023 4.252 658.363 4.936 658.363 6.22V6.532C658.363 8.008 658.987 8.632 660.187 8.632C660.967 8.632 661.507 8.38 661.831 8.224V9.124C661.423 9.388 660.859 9.604 660.007 9.604ZM665.082 9.556C664.062 9.556 663.39 9.136 663.39 8.02V4.324H662.526V3.376H663.39V1.936H664.578V3.376H666.054V4.324H664.578V7.852C664.578 8.404 664.758 8.608 665.418 8.608C665.67 8.608 665.934 8.572 666.174 8.536V9.328C665.922 9.436 665.646 9.556 665.082 9.556ZM672.967 9.604C671.155 9.604 670.123 8.476 670.123 6.568V6.364C670.123 4.42 671.275 3.256 672.979 3.256C674.755 3.256 675.799 4.396 675.799 6.328V6.508C675.799 8.452 674.635 9.604 672.967 9.604ZM672.979 8.68C673.975 8.68 674.563 7.972 674.563 6.628V6.304C674.563 4.684 673.843 4.204 672.955 4.204C671.923 4.204 671.335 4.912 671.335 6.256V6.58C671.335 8.2 672.067 8.68 672.979 8.68ZM677.371 9.496V4.324H676.483V3.376H677.371V2.548C677.371 1.216 678.187 0.64 679.315 0.64C679.843 0.64 680.191 0.736 680.407 0.844V1.648C680.251 1.612 679.963 1.564 679.579 1.564C678.931 1.564 678.559 1.888 678.559 2.656V3.376H679.915V4.324H678.559V9.496H677.371ZM684.315 9.496V1.276H686.883C688.707 1.276 689.679 2.068 689.679 3.652C689.679 4.816 689.091 5.428 688.143 5.788V5.848L690.243 9.496H688.863L686.943 6.076H685.551V9.496H684.315ZM685.551 5.164H686.763C687.915 5.164 688.383 4.684 688.383 3.688C688.383 2.692 687.891 2.284 686.751 2.284H685.551V5.164ZM693.865 9.604C691.885 9.604 690.901 8.428 690.901 6.508V6.352C690.901 4.252 692.161 3.256 693.637 3.256C695.365 3.256 696.169 4.252 696.169 6.184V6.76H692.113C692.197 8.164 692.881 8.632 694.081 8.632C694.885 8.632 695.413 8.44 695.977 8.188V9.016C695.593 9.292 694.885 9.604 693.865 9.604ZM693.589 4.192C692.941 4.192 692.209 4.528 692.113 5.896H694.933C694.933 4.66 694.477 4.192 693.589 4.192ZM697.726 9.496V4.324H696.838V3.376H697.726V2.548C697.726 1.216 698.542 0.64 699.67 0.64C700.198 0.64 700.546 0.736 700.762 0.844V1.648C700.606 1.612 700.318 1.564 699.934 1.564C699.286 1.564 698.914 1.888 698.914 2.656V3.376H700.27V4.324H698.914V9.496H697.726ZM701.387 9.496V0.736H702.563V9.496H701.387ZM706.802 9.604C704.822 9.604 703.838 8.428 703.838 6.508V6.352C703.838 4.252 705.098 3.256 706.574 3.256C708.302 3.256 709.106 4.252 709.106 6.184V6.76H705.05C705.134 8.164 705.818 8.632 707.018 8.632C707.822 8.632 708.35 8.44 708.914 8.188V9.016C708.53 9.292 707.822 9.604 706.802 9.604ZM706.526 4.192C705.878 4.192 705.146 4.528 705.05 5.896H707.87C707.87 4.66 707.414 4.192 706.526 4.192ZM712.812 9.604C711.06 9.604 709.944 8.608 709.944 6.58V6.376C709.944 4.24 711.228 3.256 712.884 3.256C713.688 3.256 714.156 3.412 714.564 3.652V4.624C714.024 4.396 713.652 4.252 712.872 4.252C711.828 4.252 711.168 4.936 711.168 6.22V6.532C711.168 8.008 711.792 8.632 712.992 8.632C713.772 8.632 714.312 8.38 714.636 8.224V9.124C714.228 9.388 713.664 9.604 712.812 9.604ZM717.886 9.556C716.866 9.556 716.194 9.136 716.194 8.02V4.324H715.33V3.376H716.194V1.936H717.382V3.376H718.858V4.324H717.382V7.852C717.382 8.404 717.562 8.608 718.222 8.608C718.474 8.608 718.738 8.572 718.978 8.536V9.328C718.726 9.436 718.45 9.556 717.886 9.556ZM720.172 9.496V3.376H721.348V9.496H720.172ZM720.16 2.236V1.084H721.36V2.236H720.16ZM724.639 9.496L722.395 3.376H723.667L725.263 8.02H725.299L726.919 3.376H728.071L725.839 9.496H724.639ZM731.669 9.604C729.689 9.604 728.705 8.428 728.705 6.508V6.352C728.705 4.252 729.965 3.256 731.441 3.256C733.169 3.256 733.973 4.252 733.973 6.184V6.76H729.917C730.001 8.164 730.685 8.632 731.885 8.632C732.689 8.632 733.217 8.44 733.781 8.188V9.016C733.397 9.292 732.689 9.604 731.669 9.604ZM731.393 4.192C730.745 4.192 730.013 4.528 729.917 5.896H732.737C732.737 4.66 732.281 4.192 731.393 4.192ZM738.527 9.496V1.276H739.775V9.496H738.527ZM743.586 9.556C742.566 9.556 741.894 9.136 741.894 8.02V4.324H741.03V3.376H741.894V1.936H743.082V3.376H744.558V4.324H743.082V7.852C743.082 8.404 743.262 8.608 743.922 8.608C744.174 8.608 744.438 8.572 744.678 8.536V9.328C744.426 9.436 744.15 9.556 743.586 9.556ZM748.439 9.604C746.459 9.604 745.475 8.428 745.475 6.508V6.352C745.475 4.252 746.735 3.256 748.211 3.256C749.939 3.256 750.743 4.252 750.743 6.184V6.76H746.687C746.771 8.164 747.455 8.632 748.655 8.632C749.459 8.632 749.987 8.44 750.551 8.188V9.016C750.167 9.292 749.459 9.604 748.439 9.604ZM748.163 4.192C747.515 4.192 746.783 4.528 746.687 5.896H749.507C749.507 4.66 749.051 4.192 748.163 4.192ZM751.94 9.496V3.376H753.08V4.06H753.128C753.488 3.652 754.112 3.304 754.772 3.304C754.916 3.304 755.096 3.316 755.156 3.352V4.408C755 4.384 754.796 4.372 754.676 4.372C754.1 4.372 753.536 4.54 753.116 4.816V9.496H751.94ZM757.554 9.604C756.45 9.604 755.658 9.052 755.658 7.864C755.658 6.772 756.378 6.232 757.566 6.076L759.102 5.896V5.368C759.102 4.456 758.718 4.252 757.638 4.252C757.038 4.252 756.534 4.348 756.162 4.432V3.604C756.726 3.376 757.35 3.256 758.106 3.256C759.486 3.256 760.29 3.832 760.29 5.068V9.496H759.318L759.21 8.98H759.138C758.85 9.34 758.346 9.604 757.554 9.604ZM757.866 8.74C758.37 8.74 758.862 8.572 759.102 8.344V6.712L757.83 6.844C757.182 6.916 756.858 7.18 756.858 7.816C756.858 8.44 757.254 8.74 757.866 8.74ZM763.859 9.556C762.839 9.556 762.167 9.136 762.167 8.02V4.324H761.303V3.376H762.167V1.936H763.355V3.376H764.831V4.324H763.355V7.852C763.355 8.404 763.535 8.608 764.195 8.608C764.447 8.608 764.711 8.572 764.951 8.536V9.328C764.699 9.436 764.423 9.556 763.859 9.556ZM766.144 9.496V3.376H767.32V9.496H766.144ZM766.132 2.236V1.084H767.332V2.236H766.132ZM771.44 9.604C769.628 9.604 768.596 8.476 768.596 6.568V6.364C768.596 4.42 769.748 3.256 771.452 3.256C773.228 3.256 774.272 4.396 774.272 6.328V6.508C774.272 8.452 773.108 9.604 771.44 9.604ZM771.452 8.68C772.448 8.68 773.036 7.972 773.036 6.628V6.304C773.036 4.684 772.316 4.204 771.428 4.204C770.396 4.204 769.808 4.912 769.808 6.256V6.58C769.808 8.2 770.54 8.68 771.452 8.68ZM775.483 9.496V3.376H776.623V3.904H776.671C777.187 3.544 777.979 3.256 778.723 3.256C779.911 3.256 780.487 3.748 780.487 4.936V9.496H779.299V5.212C779.299 4.54 779.107 4.264 778.183 4.264C777.667 4.264 777.079 4.444 776.659 4.648V9.496H775.483ZM787.671 9.604C785.859 9.604 784.827 8.476 784.827 6.568V6.364C784.827 4.42 785.979 3.256 787.683 3.256C789.459 3.256 790.503 4.396 790.503 6.328V6.508C790.503 8.452 789.339 9.604 787.671 9.604ZM787.683 8.68C788.679 8.68 789.267 7.972 789.267 6.628V6.304C789.267 4.684 788.547 4.204 787.659 4.204C786.627 4.204 786.039 4.912 786.039 6.256V6.58C786.039 8.2 786.771 8.68 787.683 8.68ZM791.714 9.496V3.376H792.854V3.904H792.902C793.418 3.544 794.21 3.256 794.954 3.256C796.142 3.256 796.718 3.748 796.718 4.936V9.496H795.53V5.212C795.53 4.54 795.338 4.264 794.414 4.264C793.898 4.264 793.31 4.444 792.89 4.648V9.496H791.714ZM801.621 9.496V1.276H802.869V9.496H801.621ZM804.651 9.496V3.376H805.791V3.904H805.839C806.355 3.544 807.147 3.256 807.891 3.256C809.079 3.256 809.655 3.748 809.655 4.936V9.496H808.467V5.212C808.467 4.54 808.275 4.264 807.351 4.264C806.835 4.264 806.247 4.444 805.827 4.648V9.496H804.651ZM813.374 9.604C812.186 9.604 810.878 8.86 810.878 6.628V6.472C810.878 4.228 812.018 3.256 813.59 3.256C814.334 3.256 814.826 3.46 815.114 3.628V0.736H816.302V9.496H815.294L815.186 9.004H815.126C814.766 9.364 814.178 9.604 813.374 9.604ZM813.782 8.668C814.418 8.668 814.862 8.404 815.114 8.212V4.576C814.874 4.372 814.346 4.24 813.77 4.24C812.726 4.24 812.09 4.768 812.09 6.328V6.58C812.09 8.188 812.774 8.668 813.782 8.668ZM817.906 9.496V3.376H819.082V9.496H817.906ZM817.894 2.236V1.084H819.094V2.236H817.894ZM822.374 9.496L820.13 3.376H821.402L822.998 8.02H823.034L824.654 3.376H825.806L823.574 9.496H822.374ZM826.836 9.496V3.376H828.012V9.496H826.836ZM826.824 2.236V1.084H828.024V2.236H826.824ZM831.819 9.604C830.631 9.604 829.323 8.86 829.323 6.628V6.472C829.323 4.228 830.463 3.256 832.035 3.256C832.779 3.256 833.271 3.46 833.559 3.628V0.736H834.747V9.496H833.739L833.631 9.004H833.571C833.211 9.364 832.623 9.604 831.819 9.604ZM832.227 8.668C832.863 8.668 833.307 8.404 833.559 8.212V4.576C833.319 4.372 832.791 4.24 832.215 4.24C831.171 4.24 830.535 4.768 830.535 6.328V6.58C830.535 8.188 831.219 8.668 832.227 8.668ZM838.139 9.604C836.939 9.604 836.279 9.004 836.279 7.816V3.376H837.467V7.612C837.467 8.332 837.707 8.608 838.535 8.608C839.135 8.608 839.615 8.404 840.035 8.212V3.376H841.211V9.496H840.203L840.083 8.968H840.023C839.519 9.328 838.907 9.604 838.139 9.604ZM844.32 9.604C843.216 9.604 842.424 9.052 842.424 7.864C842.424 6.772 843.144 6.232 844.332 6.076L845.868 5.896V5.368C845.868 4.456 845.484 4.252 844.404 4.252C843.804 4.252 843.3 4.348 842.928 4.432V3.604C843.492 3.376 844.116 3.256 844.872 3.256C846.252 3.256 847.056 3.832 847.056 5.068V9.496H846.084L845.976 8.98H845.904C845.616 9.34 845.112 9.604 844.32 9.604ZM844.632 8.74C845.136 8.74 845.628 8.572 845.868 8.344V6.712L844.596 6.844C843.948 6.916 843.624 7.18 843.624 7.816C843.624 8.44 844.02 8.74 844.632 8.74ZM848.633 9.496V0.736H849.809V9.496H848.633ZM853.064 9.592C852.272 9.592 851.564 9.46 851.072 9.16V8.272C851.576 8.464 852.032 8.656 852.896 8.656C853.772 8.656 854.156 8.356 854.156 7.84C854.156 7.372 853.928 7.144 853.184 6.976L852.62 6.82C851.708 6.604 851.084 6.16 851.084 5.08C851.084 3.988 851.78 3.256 853.268 3.256C854.108 3.256 854.624 3.436 854.984 3.616V4.528C854.66 4.396 854.036 4.228 853.364 4.228C852.596 4.228 852.212 4.456 852.212 4.984C852.212 5.452 852.452 5.632 853.064 5.8L853.64 5.944C854.84 6.232 855.32 6.664 855.32 7.756C855.32 8.968 854.456 9.592 853.064 9.592ZM857.586 0.676V2.032C857.586 2.896 857.01 3.64 856.194 3.82V3.184C856.65 3.052 856.938 2.68 856.95 2.104H856.17V0.676H857.586ZM862.335 9.496V1.276H865.047C866.931 1.276 867.855 2.164 867.855 3.748C867.855 5.44 866.775 6.328 865.155 6.328H863.571V9.496H862.335ZM863.571 5.356H864.915C866.103 5.356 866.547 4.852 866.547 3.844C866.547 2.728 866.115 2.284 864.939 2.284H863.571V5.356ZM869.022 9.496V0.736H870.198V3.88H870.258C870.762 3.532 871.518 3.256 872.262 3.256C873.45 3.256 874.026 3.748 874.026 4.936V9.496H872.838V5.212C872.838 4.54 872.646 4.264 871.722 4.264C871.206 4.264 870.618 4.444 870.198 4.648V9.496H869.022ZM876.065 11.284C875.777 11.284 875.417 11.2 875.249 11.116V10.288C875.393 10.336 875.621 10.36 875.825 10.36C876.401 10.36 876.833 10.312 877.013 9.844L877.277 9.16L874.937 3.376H876.197L877.865 7.66H877.889L879.425 3.376H880.577L878.117 10.012C877.697 11.164 877.145 11.284 876.065 11.284ZM883.158 9.592C882.366 9.592 881.658 9.46 881.166 9.16V8.272C881.67 8.464 882.126 8.656 882.99 8.656C883.866 8.656 884.25 8.356 884.25 7.84C884.25 7.372 884.022 7.144 883.278 6.976L882.714 6.82C881.802 6.604 881.178 6.16 881.178 5.08C881.178 3.988 881.874 3.256 883.362 3.256C884.202 3.256 884.718 3.436 885.078 3.616V4.528C884.754 4.396 884.13 4.228 883.458 4.228C882.69 4.228 882.306 4.456 882.306 4.984C882.306 5.452 882.546 5.632 883.158 5.8L883.734 5.944C884.934 6.232 885.414 6.664 885.414 7.756C885.414 8.968 884.55 9.592 883.158 9.592ZM886.66 9.496V3.376H887.836V9.496H886.66ZM886.648 2.236V1.084H887.848V2.236H886.648ZM891.98 9.604C890.228 9.604 889.112 8.608 889.112 6.58V6.376C889.112 4.24 890.396 3.256 892.052 3.256C892.856 3.256 893.324 3.412 893.732 3.652V4.624C893.192 4.396 892.82 4.252 892.04 4.252C890.996 4.252 890.336 4.936 890.336 6.22V6.532C890.336 8.008 890.96 8.632 892.16 8.632C892.94 8.632 893.48 8.38 893.804 8.224V9.124C893.396 9.388 892.832 9.604 891.98 9.604ZM896.433 9.604C895.329 9.604 894.537 9.052 894.537 7.864C894.537 6.772 895.257 6.232 896.445 6.076L897.981 5.896V5.368C897.981 4.456 897.597 4.252 896.517 4.252C895.917 4.252 895.413 4.348 895.041 4.432V3.604C895.605 3.376 896.229 3.256 896.985 3.256C898.365 3.256 899.169 3.832 899.169 5.068V9.496H898.197L898.089 8.98H898.017C897.729 9.34 897.225 9.604 896.433 9.604ZM896.745 8.74C897.249 8.74 897.741 8.572 897.981 8.344V6.712L896.709 6.844C896.061 6.916 895.737 7.18 895.737 7.816C895.737 8.44 896.133 8.74 896.745 8.74ZM900.746 9.496V0.736H901.922V9.496H900.746ZM0.144 27.496L3.12 19.276H4.368L7.32 27.496H6.024L5.232 25.264H2.088L1.308 27.496H0.144ZM3.624 20.836L2.424 24.28H4.872L3.66 20.836H3.624ZM10.7531 27.604C9.00113 27.604 7.88513 26.608 7.88513 24.58V24.376C7.88513 22.24 9.16913 21.256 10.8251 21.256C11.6291 21.256 12.0971 21.412 12.5051 21.652V22.624C11.9651 22.396 11.5931 22.252 10.8131 22.252C9.76913 22.252 9.10913 22.936 9.10913 24.22V24.532C9.10913 26.008 9.73313 26.632 10.9331 26.632C11.7131 26.632 12.2531 26.38 12.5771 26.224V27.124C12.1691 27.388 11.6051 27.604 10.7531 27.604ZM15.8278 27.556C14.8078 27.556 14.1358 27.136 14.1358 26.02V22.324H13.2718V21.376H14.1358V19.936H15.3238V21.376H16.7998V22.324H15.3238V25.852C15.3238 26.404 15.5038 26.608 16.1638 26.608C16.4158 26.608 16.6798 26.572 16.9198 26.536V27.328C16.6678 27.436 16.3918 27.556 15.8278 27.556ZM18.1132 27.496V21.376H19.2892V27.496H18.1132ZM18.1012 20.236V19.084H19.3012V20.236H18.1012ZM22.5808 27.496L20.3368 21.376H21.6088L23.2048 26.02H23.2408L24.8608 21.376H26.0128L23.7808 27.496H22.5808ZM27.0428 27.496V21.376H28.2188V27.496H27.0428ZM27.0308 20.236V19.084H28.2308V20.236H27.0308ZM31.8825 27.556C30.8625 27.556 30.1905 27.136 30.1905 26.02V22.324H29.3265V21.376H30.1905V19.936H31.3785V21.376H32.8545V22.324H31.3785V25.852C31.3785 26.404 31.5585 26.608 32.2185 26.608C32.4705 26.608 32.7345 26.572 32.9745 26.536V27.328C32.7225 27.436 32.4465 27.556 31.8825 27.556ZM34.6238 29.284C34.3358 29.284 33.9758 29.2 33.8078 29.116V28.288C33.9518 28.336 34.1798 28.36 34.3838 28.36C34.9598 28.36 35.3918 28.312 35.5718 27.844L35.8358 27.16L33.4958 21.376H34.7558L36.4238 25.66H36.4478L37.9838 21.376H39.1358L36.6758 28.012C36.2558 29.164 35.7038 29.284 34.6238 29.284ZM43.417 27.496V19.276H46.129C48.013 19.276 48.937 20.164 48.937 21.748C48.937 23.44 47.857 24.328 46.237 24.328H44.653V27.496H43.417ZM44.653 23.356H45.997C47.185 23.356 47.629 22.852 47.629 21.844C47.629 20.728 47.197 20.284 46.021 20.284H44.653V23.356ZM50.1405 27.496V18.736H51.3165V27.496H50.1405ZM54.4762 27.604C53.3722 27.604 52.5802 27.052 52.5802 25.864C52.5802 24.772 53.3002 24.232 54.4882 24.076L56.0242 23.896V23.368C56.0242 22.456 55.6402 22.252 54.5602 22.252C53.9602 22.252 53.4562 22.348 53.0842 22.432V21.604C53.6482 21.376 54.2722 21.256 55.0282 21.256C56.4082 21.256 57.2122 21.832 57.2122 23.068V27.496H56.2402L56.1322 26.98H56.0602C55.7722 27.34 55.2682 27.604 54.4762 27.604ZM54.7882 26.74C55.2922 26.74 55.7842 26.572 56.0242 26.344V24.712L54.7522 24.844C54.1042 24.916 53.7802 25.18 53.7802 25.816C53.7802 26.44 54.1762 26.74 54.7882 26.74ZM58.7529 27.496V21.376H59.8929V21.904H59.9409C60.4569 21.544 61.2489 21.256 61.9929 21.256C63.1809 21.256 63.7569 21.748 63.7569 22.936V27.496H62.5689V23.212C62.5689 22.54 62.3769 22.264 61.4529 22.264C60.9369 22.264 60.3489 22.444 59.9289 22.648V27.496H58.7529ZM65.3037 27.496V21.376H66.4437V21.904H66.4917C67.0077 21.544 67.7997 21.256 68.5437 21.256C69.7317 21.256 70.3077 21.748 70.3077 22.936V27.496H69.1197V23.212C69.1197 22.54 68.9277 22.264 68.0037 22.264C67.4877 22.264 66.8997 22.444 66.4797 22.648V27.496H65.3037ZM71.8905 27.496V21.376H73.0665V27.496H71.8905ZM71.8785 20.236V19.084H73.0785V20.236H71.8785ZM74.7022 27.496V21.376H75.8422V21.904H75.8902C76.4062 21.544 77.1982 21.256 77.9422 21.256C79.1302 21.256 79.7062 21.748 79.7062 22.936V27.496H78.5182V23.212C78.5182 22.54 78.3262 22.264 77.4022 22.264C76.8862 22.264 76.2982 22.444 75.8782 22.648V27.496H74.7022ZM83.4489 29.272C81.5649 29.272 80.6529 28.864 80.6529 27.952C80.6529 27.316 81.1689 26.908 81.7929 26.692V26.632C81.4449 26.512 81.1689 26.368 81.1689 25.96C81.1689 25.528 81.3969 25.168 81.8769 24.832C81.4209 24.52 81.1089 24.04 81.1089 23.356V23.236C81.1089 21.964 82.0929 21.256 83.4849 21.256C83.8209 21.256 84.1209 21.292 84.4089 21.352H86.4849V22.204H85.5009C85.7169 22.444 85.8249 22.78 85.8249 23.188V23.308C85.8249 24.592 84.8049 25.204 83.4729 25.204C83.1249 25.204 82.7889 25.168 82.4769 25.072C82.3449 25.204 82.2489 25.36 82.2489 25.516C82.2489 25.828 82.4169 25.852 82.8129 25.852H84.4929C85.6329 25.852 86.4489 26.26 86.4489 27.448C86.4489 28.576 85.5729 29.272 83.4489 29.272ZM83.4249 28.396C84.7569 28.396 85.2249 28.216 85.2249 27.628C85.2249 27.124 84.9369 26.92 84.2169 26.92H82.5729C82.1649 27.052 81.8649 27.328 81.8649 27.784C81.8649 28.264 82.3089 28.396 83.4249 28.396ZM83.4729 24.388C84.2409 24.388 84.6729 24.052 84.6729 23.356V23.188C84.6729 22.42 84.2049 22.096 83.4729 22.096C82.7289 22.096 82.2729 22.468 82.2729 23.164V23.332C82.2729 24.052 82.7529 24.388 83.4729 24.388Z" fill="black"/>
</svg>
