<svg width="53" height="13" viewBox="0 0 53 13" fill="none" xmlns="http://www.w3.org/2000/svg">
<path d="M0.290039 12L5.5459 0.837891H6.01172L11.3027 12H8.46387L7.91895 10.8838H3.65625L3.12891 12H0.290039ZM4.48242 8.99414H7.02246L5.77441 6.26074H5.73926L4.48242 8.99414ZM12.4453 12V1.19824H16.8047C17.707 1.19824 18.4717 1.49414 19.0986 2.08594C19.7314 2.67188 20.0479 3.38379 20.0479 4.22168C20.0479 5.10059 19.6553 5.83887 18.8701 6.43652V6.47168C19.4326 6.87012 19.8369 7.27734 20.083 7.69336C20.335 8.10352 20.4609 8.58398 20.4609 9.13477C20.4609 9.91406 20.165 10.5879 19.5732 11.1562C18.9873 11.7188 18.2021 12 17.2178 12H12.4453ZM15.0732 5.50488H16.3389C16.6494 5.50488 16.8984 5.41113 17.0859 5.22363C17.2793 5.03613 17.376 4.79297 17.376 4.49414C17.376 4.21875 17.2764 3.98438 17.0771 3.79102C16.8838 3.59766 16.6377 3.50098 16.3389 3.50098H15.0732V5.50488ZM15.0732 9.64453H16.6816C16.9922 9.64453 17.2354 9.55957 17.4111 9.38965C17.5928 9.21973 17.6836 8.99121 17.6836 8.7041C17.6836 8.44043 17.5898 8.21777 17.4023 8.03613C17.2207 7.84863 16.9805 7.75488 16.6816 7.75488H15.0732V9.64453ZM23.2998 10.708C22.21 9.60059 21.665 8.23242 21.665 6.60352C21.665 4.96875 22.21 3.60059 23.2998 2.49902C24.3896 1.3916 25.7812 0.837891 27.4746 0.837891C29.1562 0.837891 30.5449 1.3916 31.6406 2.49902C32.7422 3.60059 33.293 4.96875 33.293 6.60352C33.293 8.23242 32.7422 9.60059 31.6406 10.708C30.5449 11.8096 29.1562 12.3604 27.4746 12.3604C25.7812 12.3604 24.3896 11.8096 23.2998 10.708ZM25.1982 4.27441C24.6299 4.88965 24.3457 5.66602 24.3457 6.60352C24.3457 7.53516 24.6299 8.31152 25.1982 8.93262C25.7666 9.54785 26.5254 9.85547 27.4746 9.85547C28.4121 9.85547 29.168 9.54492 29.7422 8.92383C30.3164 8.29688 30.6035 7.52344 30.6035 6.60352C30.6035 5.67773 30.3164 4.9043 29.7422 4.2832C29.168 3.65625 28.4121 3.34277 27.4746 3.34277C26.5254 3.34277 25.7666 3.65332 25.1982 4.27441ZM35.1211 8.36133V1.19824H37.749V7.96582C37.749 9.26074 38.2852 9.9082 39.3574 9.9082C40.4473 9.9082 40.9922 9.26074 40.9922 7.96582V1.19824H43.6377V8.36133C43.6377 9.59766 43.2334 10.5732 42.4248 11.2881C41.6162 12.0029 40.5938 12.3604 39.3574 12.3604C38.1094 12.3604 37.0898 12 36.2988 11.2793C35.5137 10.5586 35.1211 9.58594 35.1211 8.36133ZM47.2764 12V3.53613H44.8682V1.19824H52.3916V3.53613H49.9395V12H47.2764Z" fill="black"/>
</svg>
