<svg width="196" height="148" viewBox="0 0 196 148" fill="none" xmlns="http://www.w3.org/2000/svg">
<path d="M4.24 17.16C3.48267 17.16 2.77867 17 2.128 16.68C1.47733 16.36 0.954667 15.912 0.56 15.336L1.6 14.312C1.93067 14.7387 2.34667 15.0853 2.848 15.352C3.36 15.608 3.85067 15.736 4.32 15.736C4.90667 15.736 5.376 15.592 5.728 15.304C6.09067 15.016 6.272 14.6373 6.272 14.168C6.272 13.848 6.208 13.576 6.08 13.352C5.96267 13.128 5.74933 12.9093 5.44 12.696C5.13067 12.472 4.67733 12.2107 4.08 11.912C2.928 11.3467 2.11733 10.8133 1.648 10.312C1.17867 9.8 0.944 9.19733 0.944 8.504C0.944 7.93867 1.088 7.43733 1.376 7C1.664 6.56267 2.07467 6.22667 2.608 5.992C3.14133 5.75733 3.75467 5.64 4.448 5.64C5.19467 5.64 5.86667 5.8 6.464 6.12C7.072 6.42933 7.50933 6.84533 7.776 7.368L6.656 8.2C6.4 7.83733 6.08 7.56 5.696 7.368C5.32267 7.16533 4.91733 7.064 4.48 7.064C3.92533 7.064 3.488 7.192 3.168 7.448C2.848 7.69333 2.688 8.03467 2.688 8.472C2.688 8.73867 2.752 8.968 2.88 9.16C3.01867 9.352 3.25867 9.56 3.6 9.784C3.952 9.99733 4.49067 10.28 5.216 10.632C6.22933 11.1227 6.944 11.6293 7.36 12.152C7.78667 12.664 8 13.2933 8 14.04C8 14.6587 7.84533 15.208 7.536 15.688C7.22667 16.1573 6.784 16.52 6.208 16.776C5.64267 17.032 4.98667 17.16 4.24 17.16ZM16.4501 13.608H10.7541C10.8395 14.3333 11.0688 14.8827 11.4421 15.256C11.8261 15.6293 12.3488 15.816 13.0101 15.816C13.9488 15.816 14.7061 15.448 15.2821 14.712L16.1621 15.56C15.8528 16.0613 15.4101 16.456 14.8341 16.744C14.2581 17.0213 13.6235 17.16 12.9301 17.16C11.7355 17.16 10.8021 16.7973 10.1301 16.072C9.46879 15.336 9.13813 14.3173 9.13813 13.016C9.13813 11.7147 9.47413 10.696 10.1461 9.96C10.8181 9.21333 11.7408 8.84 12.9141 8.84C14.0235 8.84 14.8875 9.208 15.5061 9.944C16.1355 10.6693 16.4501 11.688 16.4501 13V13.608ZM14.9461 12.36C14.9461 11.6667 14.7595 11.1227 14.3861 10.728C14.0128 10.3333 13.5008 10.136 12.8501 10.136C12.2421 10.136 11.7568 10.3387 11.3941 10.744C11.0315 11.1493 10.8128 11.7253 10.7381 12.472H14.9461V12.36ZM19.896 17.16C19.288 17.16 18.8293 16.9893 18.52 16.648C18.2107 16.296 18.056 15.7787 18.056 15.096V5.128H19.64V15.096C19.64 15.4267 19.6987 15.6613 19.816 15.8C19.944 15.9387 20.1467 16.008 20.424 16.008C20.648 16.008 20.9253 15.9387 21.256 15.8L21.496 16.712C21.08 17.0107 20.5467 17.16 19.896 17.16ZM23.1751 10.12H21.8471V9H23.1751V8.008C23.1751 7.24 23.4045 6.63733 23.8631 6.2C24.3218 5.752 24.9565 5.528 25.7671 5.528C26.1085 5.528 26.4285 5.58133 26.7271 5.688C27.0365 5.79467 27.2871 5.944 27.4791 6.136L26.9031 7.096C26.6365 6.86133 26.3058 6.744 25.9111 6.744C25.5591 6.744 25.2765 6.86667 25.0631 7.112C24.8605 7.34667 24.7591 7.672 24.7591 8.088V9H27.0311V10.12H24.7591V17H23.1751V10.12ZM27.7144 12.184H32.1944V13.304H27.7144V12.184ZM33.9039 5.8H40.8639V7.224H35.6479V10.408H40.3039V11.832H35.6479V15.576H40.8639V17H33.9039V5.8ZM44.6178 12.936L41.9938 9H43.7538L45.4338 11.768L47.1138 9H48.8738L46.2658 12.936L49.0818 17H47.3058L45.4338 13.992L43.5618 17H41.7858L44.6178 12.936ZM50.2413 11.048C50.2413 10.3013 50.2199 9.61867 50.1773 9H51.6493C51.6813 9.36267 51.6973 9.76267 51.6973 10.2H51.7293C51.9639 9.784 52.3053 9.45333 52.7533 9.208C53.2119 8.96267 53.7133 8.84 54.2573 8.84C55.2813 8.84 56.0866 9.21333 56.6733 9.96C57.2599 10.696 57.5533 11.7093 57.5533 13C57.5533 14.28 57.2493 15.2933 56.6413 16.04C56.0439 16.7867 55.2279 17.16 54.1933 17.16C53.6599 17.16 53.1853 17.064 52.7693 16.872C52.3639 16.6693 52.0653 16.3867 51.8733 16.024H51.8253V20.872H50.2413V11.048ZM53.9053 15.96C54.5453 15.96 55.0466 15.6933 55.4093 15.16C55.7826 14.6267 55.9693 13.8907 55.9693 12.952C55.9693 12.024 55.7933 11.3147 55.4413 10.824C55.0893 10.3333 54.5879 10.088 53.9373 10.088C53.3186 10.088 52.8119 10.2853 52.4173 10.68C52.0226 11.064 51.8253 11.5707 51.8253 12.2V13.72C51.8253 14.3707 52.0173 14.9093 52.4013 15.336C52.7959 15.752 53.2973 15.96 53.9053 15.96ZM65.9814 13.608H60.2854C60.3707 14.3333 60.6 14.8827 60.9734 15.256C61.3574 15.6293 61.88 15.816 62.5414 15.816C63.48 15.816 64.2374 15.448 64.8134 14.712L65.6934 15.56C65.384 16.0613 64.9414 16.456 64.3654 16.744C63.7894 17.0213 63.1547 17.16 62.4614 17.16C61.2667 17.16 60.3334 16.7973 59.6614 16.072C59 15.336 58.6694 14.3173 58.6694 13.016C58.6694 11.7147 59.0054 10.696 59.6774 9.96C60.3494 9.21333 61.272 8.84 62.4454 8.84C63.5547 8.84 64.4187 9.208 65.0374 9.944C65.6667 10.6693 65.9814 11.688 65.9814 13V13.608ZM64.4774 12.36C64.4774 11.6667 64.2907 11.1227 63.9174 10.728C63.544 10.3333 63.032 10.136 62.3814 10.136C61.7734 10.136 61.288 10.3387 60.9254 10.744C60.5627 11.1493 60.344 11.7253 60.2694 12.472H64.4774V12.36ZM67.5393 10.952C67.5393 10.0453 67.5233 9.39467 67.4913 9H68.9793C69.0219 9.42667 69.0433 9.896 69.0433 10.408V10.568H69.0913C69.3046 10.024 69.6406 9.60267 70.0993 9.304C70.5686 8.99467 71.1179 8.84 71.7473 8.84C71.9179 8.84 72.0726 8.856 72.2113 8.888V10.168C72.1366 10.1467 71.9713 10.136 71.7153 10.136C71.2459 10.136 70.8086 10.2747 70.4033 10.552C70.0086 10.8187 69.6939 11.1867 69.4593 11.656C69.2353 12.1147 69.1233 12.6213 69.1233 13.176V17H67.5393V10.952ZM74.4226 7.768C74.092 7.768 73.8306 7.67733 73.6386 7.496C73.4466 7.31467 73.3506 7.06933 73.3506 6.76C73.3506 6.45067 73.4466 6.20533 73.6386 6.024C73.8306 5.84267 74.092 5.752 74.4226 5.752C74.7533 5.752 75.0146 5.84267 75.2066 6.024C75.4093 6.20533 75.5106 6.45067 75.5106 6.76C75.5106 7.06933 75.4093 7.31467 75.2066 7.496C75.0146 7.67733 74.7533 7.768 74.4226 7.768ZM73.6386 9H75.2226V17H73.6386V9ZM77.3651 11.048C77.3651 10.2373 77.3385 9.55467 77.2851 9H78.6931C78.7358 9.39467 78.7571 9.864 78.7571 10.408H78.8051C79.0078 9.928 79.3331 9.54933 79.7811 9.272C80.2398 8.984 80.7571 8.84 81.3331 8.84C81.8985 8.84 82.3838 8.97867 82.7891 9.256C83.1945 9.52267 83.4665 9.90133 83.6051 10.392C83.8291 9.912 84.1651 9.53333 84.6131 9.256C85.0718 8.97867 85.5838 8.84 86.1491 8.84C87.0345 8.84 87.7225 9.128 88.2131 9.704C88.7145 10.2693 88.9651 11.0533 88.9651 12.056V17H87.3811V12.2C87.3811 11.5387 87.2371 11.0267 86.9491 10.664C86.6718 10.3013 86.2718 10.12 85.7491 10.12C85.2158 10.12 84.7785 10.3173 84.4371 10.712C84.1065 11.096 83.9411 11.5973 83.9411 12.216V17H82.3731V12.264C82.3731 10.8347 81.8505 10.12 80.8051 10.12C80.4638 10.12 80.1491 10.216 79.8611 10.408C79.5838 10.6 79.3598 10.8613 79.1891 11.192C79.0185 11.5227 78.9331 11.88 78.9331 12.264V17H77.3651V11.048ZM97.7783 13.608H92.0823C92.1676 14.3333 92.3969 14.8827 92.7703 15.256C93.1543 15.6293 93.6769 15.816 94.3383 15.816C95.2769 15.816 96.0343 15.448 96.6103 14.712L97.4903 15.56C97.1809 16.0613 96.7383 16.456 96.1623 16.744C95.5863 17.0213 94.9516 17.16 94.2583 17.16C93.0636 17.16 92.1303 16.7973 91.4583 16.072C90.7969 15.336 90.4663 14.3173 90.4663 13.016C90.4663 11.7147 90.8023 10.696 91.4743 9.96C92.1463 9.21333 93.0689 8.84 94.2423 8.84C95.3516 8.84 96.2156 9.208 96.8343 9.944C97.4636 10.6693 97.7783 11.688 97.7783 13V13.608ZM96.2743 12.36C96.2743 11.6667 96.0876 11.1227 95.7143 10.728C95.3409 10.3333 94.8289 10.136 94.1783 10.136C93.5703 10.136 93.0849 10.3387 92.7223 10.744C92.3596 11.1493 92.1409 11.7253 92.0663 12.472H96.2743V12.36ZM99.2241 11.048C99.2241 10.056 99.2028 9.37333 99.1601 9H100.632C100.685 9.39467 100.712 9.864 100.712 10.408H100.76C100.973 9.928 101.32 9.54933 101.8 9.272C102.291 8.984 102.835 8.84 103.432 8.84C105.309 8.84 106.248 10.056 106.248 12.488V17H104.664V12.472C104.664 11.672 104.531 11.08 104.264 10.696C103.997 10.312 103.587 10.12 103.032 10.12C102.381 10.12 101.848 10.3547 101.432 10.824C101.016 11.2933 100.808 11.8907 100.808 12.616V17H99.2241V11.048ZM111.188 17.16C110.441 17.16 109.854 16.936 109.428 16.488C109.012 16.0293 108.804 15.4 108.804 14.6V10.216H107.364V9H108.804V6.888L110.324 6.44H110.388V9H112.676V10.216H110.388V14.408C110.388 14.9307 110.489 15.3147 110.692 15.56C110.905 15.8053 111.225 15.928 111.652 15.928C112.078 15.928 112.457 15.864 112.788 15.736L112.884 16.872C112.489 17.064 111.924 17.16 111.188 17.16ZM116.734 17.16C116.211 17.16 115.742 17.0533 115.326 16.84C114.92 16.6267 114.6 16.3333 114.366 15.96C114.142 15.576 114.03 15.144 114.03 14.664C114.03 13.8533 114.339 13.2347 114.958 12.808C115.576 12.3707 116.456 12.152 117.598 12.152H119.102V11.752C119.102 11.2187 118.958 10.808 118.67 10.52C118.382 10.232 117.96 10.088 117.406 10.088C116.926 10.088 116.478 10.184 116.062 10.376C115.646 10.5573 115.304 10.824 115.038 11.176L114.286 10.232C114.67 9.784 115.134 9.44267 115.678 9.208C116.232 8.96267 116.83 8.84 117.47 8.84C118.494 8.84 119.288 9.09067 119.854 9.592C120.419 10.0827 120.702 10.7813 120.702 11.688V15.4C120.702 15.88 120.766 16.4133 120.894 17H119.502C119.395 16.744 119.32 16.3867 119.278 15.928H119.246C118.638 16.7493 117.8 17.16 116.734 17.16ZM117.038 15.928C117.614 15.928 118.099 15.7733 118.494 15.464C118.899 15.144 119.102 14.76 119.102 14.312V13.256H117.534C116.904 13.256 116.419 13.3787 116.078 13.624C115.747 13.8587 115.582 14.2053 115.582 14.664C115.582 15.0587 115.71 15.368 115.966 15.592C116.232 15.816 116.59 15.928 117.038 15.928ZM125.734 17.16C124.988 17.16 124.401 16.936 123.974 16.488C123.558 16.0293 123.35 15.4 123.35 14.6V10.216H121.91V9H123.35V6.888L124.87 6.44H124.934V9H127.222V10.216H124.934V14.408C124.934 14.9307 125.036 15.3147 125.238 15.56C125.452 15.8053 125.772 15.928 126.198 15.928C126.625 15.928 127.004 15.864 127.334 15.736L127.43 16.872C127.036 17.064 126.47 17.16 125.734 17.16ZM130.016 7.768C129.686 7.768 129.424 7.67733 129.232 7.496C129.04 7.31467 128.944 7.06933 128.944 6.76C128.944 6.45067 129.04 6.20533 129.232 6.024C129.424 5.84267 129.686 5.752 130.016 5.752C130.347 5.752 130.608 5.84267 130.8 6.024C131.003 6.20533 131.104 6.45067 131.104 6.76C131.104 7.06933 131.003 7.31467 130.8 7.496C130.608 7.67733 130.347 7.768 130.016 7.768ZM129.232 9H130.816V17H129.232V9ZM136.559 17.16C135.332 17.16 134.367 16.792 133.663 16.056C132.959 15.3093 132.607 14.2907 132.607 13C132.607 11.7093 132.959 10.696 133.663 9.96C134.367 9.21333 135.332 8.84 136.559 8.84C137.786 8.84 138.751 9.21333 139.455 9.96C140.17 10.696 140.527 11.7093 140.527 13C140.527 14.2907 140.17 15.3093 139.455 16.056C138.751 16.792 137.786 17.16 136.559 17.16ZM136.559 15.96C137.295 15.96 137.876 15.6987 138.303 15.176C138.73 14.6427 138.943 13.9173 138.943 13C138.943 12.0827 138.73 11.3627 138.303 10.84C137.876 10.3067 137.295 10.04 136.559 10.04C135.812 10.04 135.231 10.3067 134.815 10.84C134.399 11.3627 134.191 12.0827 134.191 13C134.191 13.9173 134.399 14.6427 134.815 15.176C135.231 15.6987 135.812 15.96 136.559 15.96ZM141.974 11.048C141.974 10.056 141.953 9.37333 141.91 9H143.382C143.435 9.39467 143.462 9.864 143.462 10.408H143.51C143.723 9.928 144.07 9.54933 144.55 9.272C145.041 8.984 145.585 8.84 146.182 8.84C148.059 8.84 148.998 10.056 148.998 12.488V17H147.414V12.472C147.414 11.672 147.281 11.08 147.014 10.696C146.747 10.312 146.337 10.12 145.782 10.12C145.131 10.12 144.598 10.3547 144.182 10.824C143.766 11.2933 143.558 11.8907 143.558 12.616V17H141.974V11.048Z" fill="black"/>
<path d="M1.157 47.454V38.731H2.002V47.454H1.157ZM4.11013 47.454V41.045H4.89013V41.617H4.94213C5.57913 41.201 6.43713 40.928 7.24313 40.928C8.46513 40.928 9.08913 41.422 9.08913 42.644V47.454H8.27013V42.826C8.27013 41.968 7.93213 41.63 6.89213 41.63C6.22913 41.63 5.50113 41.851 4.92913 42.176V47.454H4.11013ZM13.2149 47.558C11.9019 47.558 10.5759 46.765 10.5759 44.399V44.23C10.5759 41.929 11.7589 40.928 13.4099 40.928C14.2419 40.928 14.8009 41.162 15.1649 41.396V38.146H15.9839V47.454H15.2949L15.2169 46.895H15.1649C14.7359 47.285 14.1249 47.558 13.2149 47.558ZM13.4489 46.895C14.2549 46.895 14.8139 46.596 15.1649 46.284V42.085C14.8399 41.825 14.2159 41.63 13.5399 41.63C12.2399 41.63 11.4209 42.306 11.4209 44.139V44.373C11.4209 46.245 12.2529 46.895 13.4489 46.895ZM17.9105 47.454V41.045H18.7295V47.454H17.9105ZM17.8975 39.706V38.809H18.7425V39.706H17.8975ZM22.4331 47.454L20.0151 41.032H20.8991L22.8491 46.388H22.8751L24.8381 41.032H25.6571L23.2521 47.454H22.4331ZM26.9496 47.454V41.045H27.7686V47.454H26.9496ZM26.9366 39.706V38.809H27.7816V39.706H26.9366ZM31.9532 47.558C30.6402 47.558 29.3142 46.765 29.3142 44.399V44.23C29.3142 41.929 30.4972 40.928 32.1482 40.928C32.9802 40.928 33.5392 41.162 33.9032 41.396V38.146H34.7222V47.454H34.0332L33.9552 46.895H33.9032C33.4742 47.285 32.8632 47.558 31.9532 47.558ZM32.1872 46.895C32.9932 46.895 33.5522 46.596 33.9032 46.284V42.085C33.5782 41.825 32.9542 41.63 32.2782 41.63C30.9782 41.63 30.1592 42.306 30.1592 44.139V44.373C30.1592 46.245 30.9912 46.895 32.1872 46.895ZM38.5338 47.558C37.2988 47.558 36.5838 46.96 36.5838 45.725V41.032H37.4028V45.621C37.4028 46.505 37.7798 46.856 38.7678 46.856C39.4568 46.856 40.1198 46.622 40.6918 46.284V41.032H41.4978V47.454H40.7958L40.7178 46.856H40.6788C40.0418 47.272 39.3008 47.558 38.5338 47.558ZM44.9618 47.558C43.8048 47.558 42.9858 46.934 42.9858 45.79C42.9858 44.672 43.6748 44.087 44.9098 43.944L46.7298 43.736V42.982C46.7298 41.929 46.2618 41.63 45.1178 41.63C44.4808 41.63 43.9738 41.747 43.5318 41.851V41.266C44.0908 41.045 44.7018 40.928 45.4168 40.928C46.7948 40.928 47.5488 41.487 47.5488 42.787V47.454H46.8858L46.8078 46.882H46.7558C46.4308 47.233 45.8588 47.558 44.9618 47.558ZM45.1698 46.908C45.8328 46.908 46.4308 46.674 46.7298 46.401V44.347L45.1308 44.529C44.2468 44.62 43.8308 44.984 43.8308 45.764C43.8308 46.505 44.3508 46.908 45.1698 46.908ZM49.4457 47.454V38.146H50.2647V47.454H49.4457ZM53.7863 47.545C52.9413 47.545 52.2393 47.363 51.7453 47.09V46.44C52.2783 46.661 52.7723 46.856 53.6953 46.856C54.7873 46.856 55.2033 46.427 55.2033 45.79C55.2033 45.114 54.8783 44.841 54.0073 44.607L53.3573 44.412C52.3953 44.165 51.7973 43.736 51.7973 42.67C51.7973 41.643 52.4993 40.928 53.9423 40.928C54.7743 40.928 55.3073 41.123 55.6583 41.305V41.968C55.2943 41.786 54.6573 41.617 53.9813 41.617C53.0453 41.617 52.5773 41.968 52.5773 42.605C52.5773 43.216 52.8763 43.476 53.6173 43.697L54.3063 43.879C55.4893 44.217 56.0223 44.607 56.0223 45.725C56.0223 46.856 55.2163 47.545 53.7863 47.545ZM63.5347 47.558C61.5197 47.558 60.5057 46.362 60.5057 44.321V44.165C60.5057 41.929 61.8057 40.928 63.3007 40.928C65.0427 40.928 65.8487 41.968 65.8487 43.918V44.386H61.3507C61.3767 46.141 62.1567 46.856 63.6647 46.856C64.5227 46.856 65.1207 46.661 65.6537 46.388V47.012C65.2637 47.272 64.5487 47.558 63.5347 47.558ZM63.2747 41.591C62.3517 41.591 61.4677 42.15 61.3637 43.736H64.9907C64.9907 42.267 64.4317 41.591 63.2747 41.591ZM67.3455 47.454V41.045H68.1255V41.617H68.1775C68.8145 41.201 69.6725 40.928 70.4785 40.928C71.7005 40.928 72.3245 41.422 72.3245 42.644V47.454H71.5055V42.826C71.5055 41.968 71.1675 41.63 70.1275 41.63C69.4645 41.63 68.7365 41.851 68.1645 42.176V47.454H67.3455ZM76.3853 49.404C74.4093 49.404 73.5383 48.806 73.5383 47.883C73.5383 47.168 74.0973 46.778 74.7863 46.531V46.479C74.4353 46.388 74.1363 46.102 74.1363 45.686C74.1363 45.283 74.3703 44.984 74.8253 44.62C74.3443 44.295 74.0193 43.775 74.0193 43.034V42.956C74.0193 41.656 75.0333 40.902 76.4113 40.902C76.7233 40.902 77.0093 40.941 77.2823 41.006H79.4403V41.63H78.1923C78.5563 41.942 78.7513 42.371 78.7513 42.93V42.995C78.7513 44.36 77.7243 45.036 76.3983 45.036C75.9823 45.036 75.5923 44.971 75.2543 44.841C75.0723 45.01 74.9163 45.179 74.9163 45.413C74.9163 45.777 75.1503 45.946 75.5923 45.946H77.4123C78.5563 45.946 79.4143 46.284 79.4143 47.467C79.4143 48.533 78.5303 49.404 76.3853 49.404ZM76.3593 48.741C77.9713 48.741 78.5563 48.286 78.5563 47.584C78.5563 46.869 78.1533 46.7 77.2823 46.7H75.3973C74.8383 46.882 74.4093 47.168 74.4093 47.766C74.4093 48.403 74.9423 48.741 76.3593 48.741ZM76.3983 44.412C77.3603 44.412 77.9323 43.944 77.9323 43.034V42.917C77.9323 41.968 77.3213 41.539 76.3983 41.539C75.4493 41.539 74.8513 42.033 74.8513 42.891V43.008C74.8513 43.944 75.4753 44.412 76.3983 44.412ZM82.1718 47.558C81.0148 47.558 80.1958 46.934 80.1958 45.79C80.1958 44.672 80.8848 44.087 82.1198 43.944L83.9398 43.736V42.982C83.9398 41.929 83.4718 41.63 82.3278 41.63C81.6908 41.63 81.1838 41.747 80.7418 41.851V41.266C81.3008 41.045 81.9118 40.928 82.6268 40.928C84.0048 40.928 84.7588 41.487 84.7588 42.787V47.454H84.0958L84.0178 46.882H83.9658C83.6408 47.233 83.0688 47.558 82.1718 47.558ZM82.3798 46.908C83.0428 46.908 83.6408 46.674 83.9398 46.401V44.347L82.3408 44.529C81.4568 44.62 81.0408 44.984 81.0408 45.764C81.0408 46.505 81.5608 46.908 82.3798 46.908ZM88.7632 49.404C86.7872 49.404 85.9162 48.806 85.9162 47.883C85.9162 47.168 86.4752 46.778 87.1642 46.531V46.479C86.8132 46.388 86.5142 46.102 86.5142 45.686C86.5142 45.283 86.7482 44.984 87.2032 44.62C86.7222 44.295 86.3972 43.775 86.3972 43.034V42.956C86.3972 41.656 87.4112 40.902 88.7892 40.902C89.1012 40.902 89.3872 40.941 89.6602 41.006H91.8182V41.63H90.5702C90.9342 41.942 91.1292 42.371 91.1292 42.93V42.995C91.1292 44.36 90.1022 45.036 88.7762 45.036C88.3602 45.036 87.9702 44.971 87.6322 44.841C87.4502 45.01 87.2942 45.179 87.2942 45.413C87.2942 45.777 87.5282 45.946 87.9702 45.946H89.7902C90.9342 45.946 91.7922 46.284 91.7922 47.467C91.7922 48.533 90.9082 49.404 88.7632 49.404ZM88.7372 48.741C90.3492 48.741 90.9342 48.286 90.9342 47.584C90.9342 46.869 90.5312 46.7 89.6602 46.7H87.7752C87.2162 46.882 86.7872 47.168 86.7872 47.766C86.7872 48.403 87.3202 48.741 88.7372 48.741ZM88.7762 44.412C89.7382 44.412 90.3102 43.944 90.3102 43.034V42.917C90.3102 41.968 89.6992 41.539 88.7762 41.539C87.8272 41.539 87.2292 42.033 87.2292 42.891V43.008C87.2292 43.944 87.8532 44.412 88.7762 44.412ZM95.6157 47.558C93.6007 47.558 92.5867 46.362 92.5867 44.321V44.165C92.5867 41.929 93.8867 40.928 95.3817 40.928C97.1237 40.928 97.9297 41.968 97.9297 43.918V44.386H93.4317C93.4577 46.141 94.2377 46.856 95.7457 46.856C96.6037 46.856 97.2017 46.661 97.7347 46.388V47.012C97.3447 47.272 96.6297 47.558 95.6157 47.558ZM95.3557 41.591C94.4327 41.591 93.5487 42.15 93.4447 43.736H97.0717C97.0717 42.267 96.5127 41.591 95.3557 41.591ZM102.868 47.454V41.045H103.687V47.454H102.868ZM102.855 39.706V38.809H103.7V39.706H102.855ZM105.609 47.454V41.045H106.389V41.617H106.441C107.078 41.201 107.936 40.928 108.742 40.928C109.964 40.928 110.588 41.422 110.588 42.644V47.454H109.769V42.826C109.769 41.968 109.431 41.63 108.391 41.63C107.728 41.63 107 41.851 106.428 42.176V47.454H105.609ZM117.414 47.558C116.257 47.558 115.438 46.934 115.438 45.79C115.438 44.672 116.127 44.087 117.362 43.944L119.182 43.736V42.982C119.182 41.929 118.714 41.63 117.57 41.63C116.933 41.63 116.426 41.747 115.984 41.851V41.266C116.543 41.045 117.154 40.928 117.869 40.928C119.247 40.928 120.001 41.487 120.001 42.787V47.454H119.338L119.26 46.882H119.208C118.883 47.233 118.311 47.558 117.414 47.558ZM117.622 46.908C118.285 46.908 118.883 46.674 119.182 46.401V44.347L117.583 44.529C116.699 44.62 116.283 44.984 116.283 45.764C116.283 46.505 116.803 46.908 117.622 46.908ZM125.287 47.454V41.045H126.067V41.617H126.119C126.743 41.214 127.484 40.928 128.199 40.928C128.927 40.928 129.447 41.162 129.72 41.643H129.772C130.539 41.162 131.293 40.928 132.008 40.928C133.113 40.928 133.776 41.422 133.776 42.644V47.454H132.97V42.826C132.97 41.968 132.58 41.63 131.709 41.63C131.163 41.63 130.552 41.812 129.902 42.176C129.928 42.332 129.941 42.475 129.941 42.644V47.454H129.122V42.826C129.122 41.968 128.771 41.63 127.9 41.63C127.289 41.63 126.678 41.838 126.106 42.176V47.454H125.287ZM136.128 49.404C135.842 49.404 135.53 49.326 135.348 49.235V48.624C135.517 48.663 135.764 48.715 135.998 48.715C136.635 48.715 136.999 48.429 137.246 47.753L137.454 47.142L134.984 41.032H135.842L137.857 46.076H137.883L139.755 41.032H140.561L138.013 47.844C137.623 48.897 137.155 49.404 136.128 49.404ZM141.778 47.454V41.032H142.558V41.773H142.61C142.987 41.357 143.702 40.954 144.456 40.954C144.599 40.954 144.768 40.967 144.846 40.993V41.747C144.69 41.721 144.508 41.708 144.391 41.708C143.715 41.708 143.052 41.981 142.597 42.358V47.454H141.778ZM146.184 47.454V41.045H147.003V47.454H146.184ZM146.171 39.706V38.809H147.016V39.706H146.171ZM150.473 47.558C149.316 47.558 148.497 46.934 148.497 45.79C148.497 44.672 149.186 44.087 150.421 43.944L152.241 43.736V42.982C152.241 41.929 151.773 41.63 150.629 41.63C149.992 41.63 149.485 41.747 149.043 41.851V41.266C149.602 41.045 150.213 40.928 150.928 40.928C152.306 40.928 153.06 41.487 153.06 42.787V47.454H152.397L152.319 46.882H152.267C151.942 47.233 151.37 47.558 150.473 47.558ZM150.681 46.908C151.344 46.908 151.942 46.674 152.241 46.401V44.347L150.642 44.529C149.758 44.62 149.342 44.984 149.342 45.764C149.342 46.505 149.862 46.908 150.681 46.908ZM157.192 47.558C155.879 47.558 154.553 46.765 154.553 44.399V44.23C154.553 41.929 155.736 40.928 157.387 40.928C158.219 40.928 158.778 41.162 159.142 41.396V38.146H159.961V47.454H159.272L159.194 46.895H159.142C158.713 47.285 158.102 47.558 157.192 47.558ZM157.426 46.895C158.232 46.895 158.791 46.596 159.142 46.284V42.085C158.817 41.825 158.193 41.63 157.517 41.63C156.217 41.63 155.398 42.306 155.398 44.139V44.373C155.398 46.245 156.23 46.895 157.426 46.895ZM167.734 47.558C165.979 47.558 164.861 46.427 164.861 44.36V44.178C164.861 42.098 166.057 40.928 167.747 40.928C169.515 40.928 170.633 42.059 170.633 44.139V44.308C170.633 46.375 169.437 47.558 167.734 47.558ZM167.76 46.882C168.982 46.882 169.788 46.037 169.788 44.386V44.113C169.788 42.254 168.904 41.591 167.734 41.591C166.499 41.591 165.706 42.475 165.706 44.087V44.386C165.706 46.219 166.603 46.882 167.76 46.882ZM172.536 47.454V41.734H171.548V41.045H172.536V40.083C172.536 38.679 173.342 38.081 174.512 38.081C175.006 38.081 175.344 38.159 175.591 38.276V38.874C175.383 38.822 175.097 38.744 174.655 38.744C173.849 38.744 173.342 39.134 173.342 40.135V41.045H174.889V41.734H173.342V47.454H172.536ZM2.496 63.558C1.339 63.558 0.52 62.934 0.52 61.79C0.52 60.672 1.209 60.087 2.444 59.944L4.264 59.736V58.982C4.264 57.929 3.796 57.63 2.652 57.63C2.015 57.63 1.508 57.747 1.066 57.851V57.266C1.625 57.045 2.236 56.928 2.951 56.928C4.329 56.928 5.083 57.487 5.083 58.787V63.454H4.42L4.342 62.882H4.29C3.965 63.233 3.393 63.558 2.496 63.558ZM2.704 62.908C3.367 62.908 3.965 62.674 4.264 62.401V60.347L2.665 60.529C1.781 60.62 1.365 60.984 1.365 61.764C1.365 62.505 1.885 62.908 2.704 62.908ZM9.46288 63.558C7.60388 63.558 6.53788 62.44 6.53788 60.347V60.178C6.53788 57.903 7.85088 56.928 9.50188 56.928C10.3339 56.928 10.8149 57.071 11.2699 57.357V58.033C10.7239 57.773 10.2819 57.63 9.44988 57.63C8.22788 57.63 7.38288 58.423 7.38288 60.048V60.334C7.38288 62.011 8.09788 62.856 9.55388 62.856C10.4379 62.856 10.9969 62.583 11.3479 62.388V63.051C10.9319 63.311 10.3859 63.558 9.46288 63.558ZM14.8205 63.519C13.8325 63.519 13.2215 63.103 13.2215 62.063V57.734H12.2855V57.045H13.2215V55.524H14.0405V57.045H15.7435V57.734H14.0405V61.946C14.0405 62.583 14.2485 62.856 15.0285 62.856C15.3015 62.856 15.6265 62.804 15.8605 62.726V63.272C15.6395 63.402 15.3405 63.519 14.8205 63.519ZM17.3012 63.454V57.045H18.1202V63.454H17.3012ZM17.2882 55.706V54.809H18.1332V55.706H17.2882ZM21.8238 63.454L19.4058 57.032H20.2898L22.2398 62.388H22.2658L24.2288 57.032H25.0478L22.6428 63.454H21.8238ZM26.3402 63.454V57.045H27.1592V63.454H26.3402ZM26.3272 55.706V54.809H27.1722V55.706H26.3272ZM31.0578 63.519C30.0698 63.519 29.4588 63.103 29.4588 62.063V57.734H28.5228V57.045H29.4588V55.524H30.2778V57.045H31.9808V57.734H30.2778V61.946C30.2778 62.583 30.4858 62.856 31.2658 62.856C31.5388 62.856 31.8638 62.804 32.0978 62.726V63.272C31.8768 63.402 31.5778 63.519 31.0578 63.519ZM33.5385 63.454V57.045H34.3575V63.454H33.5385ZM33.5255 55.706V54.809H34.3705V55.706H33.5255ZM38.8931 63.558C36.8781 63.558 35.8641 62.362 35.8641 60.321V60.165C35.8641 57.929 37.1641 56.928 38.6591 56.928C40.4011 56.928 41.2071 57.968 41.2071 59.918V60.386H36.7091C36.7351 62.141 37.5151 62.856 39.0231 62.856C39.8811 62.856 40.4791 62.661 41.0121 62.388V63.012C40.6221 63.272 39.9071 63.558 38.8931 63.558ZM38.6331 57.591C37.7101 57.591 36.8261 58.15 36.7221 59.736H40.3491C40.3491 58.267 39.7901 57.591 38.6331 57.591ZM44.3029 63.545C43.4579 63.545 42.7559 63.363 42.2619 63.09V62.44C42.7949 62.661 43.2889 62.856 44.2119 62.856C45.3039 62.856 45.7199 62.427 45.7199 61.79C45.7199 61.114 45.3949 60.841 44.5239 60.607L43.8739 60.412C42.9119 60.165 42.3139 59.736 42.3139 58.67C42.3139 57.643 43.0159 56.928 44.4589 56.928C45.2909 56.928 45.8239 57.123 46.1749 57.305V57.968C45.8109 57.786 45.1739 57.617 44.4979 57.617C43.5619 57.617 43.0939 57.968 43.0939 58.605C43.0939 59.216 43.3929 59.476 44.1339 59.697L44.8229 59.879C46.0059 60.217 46.5389 60.607 46.5389 61.725C46.5389 62.856 45.7329 63.545 44.3029 63.545ZM52.7123 63.454L50.8663 57.032H51.7373L53.1803 62.375H53.2193L54.8443 57.032H55.5593L57.1843 62.375H57.2363L58.6663 57.032H59.4593L57.6133 63.454H56.7683L55.1953 58.293H55.1693L53.5573 63.454H52.7123ZM60.808 63.454V57.045H61.627V63.454H60.808ZM60.795 55.706V54.809H61.64V55.706H60.795ZM65.5256 63.519C64.5376 63.519 63.9266 63.103 63.9266 62.063V57.734H62.9906V57.045H63.9266V55.524H64.7456V57.045H66.4486V57.734H64.7456V61.946C64.7456 62.583 64.9536 62.856 65.7336 62.856C66.0066 62.856 66.3316 62.804 66.5656 62.726V63.272C66.3446 63.402 66.0456 63.519 65.5256 63.519ZM67.9803 63.454V54.146H68.7993V57.604H68.8513C69.4753 57.188 70.3073 56.941 71.1133 56.941C72.3353 56.941 72.9593 57.435 72.9593 58.657V63.454H72.1403V58.826C72.1403 57.968 71.8023 57.63 70.7623 57.63C70.0993 57.63 69.3713 57.864 68.7993 58.176V63.454H67.9803ZM74.849 63.454V57.045H75.668V63.454H74.849ZM74.836 55.706V54.809H75.681V55.706H74.836ZM77.5906 63.454V57.045H78.3706V57.617H78.4226C79.0596 57.201 79.9176 56.928 80.7236 56.928C81.9456 56.928 82.5696 57.422 82.5696 58.644V63.454H81.7506V58.826C81.7506 57.968 81.4126 57.63 80.3726 57.63C79.7096 57.63 78.9816 57.851 78.4096 58.176V63.454H77.5906ZM89.8244 63.519C88.8364 63.519 88.2254 63.103 88.2254 62.063V57.734H87.2894V57.045H88.2254V55.524H89.0444V57.045H90.7474V57.734H89.0444V61.946C89.0444 62.583 89.2524 62.856 90.0324 62.856C90.3054 62.856 90.6304 62.804 90.8644 62.726V63.272C90.6434 63.402 90.3444 63.519 89.8244 63.519ZM92.2791 63.454V54.146H93.0981V57.604H93.1501C93.7741 57.188 94.6061 56.941 95.4121 56.941C96.6341 56.941 97.2581 57.435 97.2581 58.657V63.454H96.4391V58.826C96.4391 57.968 96.1011 57.63 95.0611 57.63C94.3981 57.63 93.6701 57.864 93.0981 58.176V63.454H92.2791ZM101.735 63.558C99.7199 63.558 98.7059 62.362 98.7059 60.321V60.165C98.7059 57.929 100.006 56.928 101.501 56.928C103.243 56.928 104.049 57.968 104.049 59.918V60.386H99.5509C99.5769 62.141 100.357 62.856 101.865 62.856C102.723 62.856 103.321 62.661 103.854 62.388V63.012C103.464 63.272 102.749 63.558 101.735 63.558ZM101.475 57.591C100.552 57.591 99.6679 58.15 99.5639 59.736H103.191C103.191 58.267 102.632 57.591 101.475 57.591ZM105.572 63.454V57.045H106.391V63.454H105.572ZM105.559 55.706V54.809H106.404V55.706H105.559ZM108.313 63.454V57.032H109.093V57.773H109.145C109.522 57.357 110.237 56.954 110.991 56.954C111.134 56.954 111.303 56.967 111.381 56.993V57.747C111.225 57.721 111.043 57.708 110.926 57.708C110.25 57.708 109.587 57.981 109.132 58.358V63.454H108.313ZM118.37 63.558C117.057 63.558 115.731 62.765 115.731 60.399V60.23C115.731 57.929 116.914 56.928 118.565 56.928C119.397 56.928 119.956 57.162 120.32 57.396V54.146H121.139V63.454H120.45L120.372 62.895H120.32C119.891 63.285 119.28 63.558 118.37 63.558ZM118.604 62.895C119.41 62.895 119.969 62.596 120.32 62.284V58.085C119.995 57.825 119.371 57.63 118.695 57.63C117.395 57.63 116.576 58.306 116.576 60.139V60.373C116.576 62.245 117.408 62.895 118.604 62.895ZM124.587 63.558C123.43 63.558 122.611 62.934 122.611 61.79C122.611 60.672 123.3 60.087 124.535 59.944L126.355 59.736V58.982C126.355 57.929 125.887 57.63 124.743 57.63C124.106 57.63 123.599 57.747 123.157 57.851V57.266C123.716 57.045 124.327 56.928 125.042 56.928C126.42 56.928 127.174 57.487 127.174 58.787V63.454H126.511L126.433 62.882H126.381C126.056 63.233 125.484 63.558 124.587 63.558ZM124.795 62.908C125.458 62.908 126.056 62.674 126.355 62.401V60.347L124.756 60.529C123.872 60.62 123.456 60.984 123.456 61.764C123.456 62.505 123.976 62.908 124.795 62.908ZM129.071 63.454V57.045H129.89V63.454H129.071ZM129.058 55.706V54.809H129.903V55.706H129.058ZM131.838 63.454V54.146H132.657V63.454H131.838ZM135.074 65.404C134.788 65.404 134.476 65.326 134.294 65.235V64.624C134.463 64.663 134.71 64.715 134.944 64.715C135.581 64.715 135.945 64.429 136.192 63.753L136.4 63.142L133.93 57.032H134.788L136.803 62.076H136.829L138.701 57.032H139.507L136.959 63.844C136.569 64.897 136.101 65.404 135.074 65.404ZM144.139 63.454V57.032H144.919V57.773H144.971C145.348 57.357 146.063 56.954 146.817 56.954C146.96 56.954 147.129 56.967 147.207 56.993V57.747C147.051 57.721 146.869 57.708 146.752 57.708C146.076 57.708 145.413 57.981 144.958 58.358V63.454H144.139ZM150.976 63.558C149.221 63.558 148.103 62.427 148.103 60.36V60.178C148.103 58.098 149.299 56.928 150.989 56.928C152.757 56.928 153.875 58.059 153.875 60.139V60.308C153.875 62.375 152.679 63.558 150.976 63.558ZM151.002 62.882C152.224 62.882 153.03 62.037 153.03 60.386V60.113C153.03 58.254 152.146 57.591 150.976 57.591C149.741 57.591 148.948 58.475 148.948 60.087V60.386C148.948 62.219 149.845 62.882 151.002 62.882ZM157.273 63.558C156.038 63.558 155.323 62.96 155.323 61.725V57.032H156.142V61.621C156.142 62.505 156.519 62.856 157.507 62.856C158.196 62.856 158.859 62.622 159.431 62.284V57.032H160.237V63.454H159.535L159.457 62.856H159.418C158.781 63.272 158.04 63.558 157.273 63.558ZM164.13 63.519C163.142 63.519 162.531 63.103 162.531 62.063V57.734H161.595V57.045H162.531V55.524H163.35V57.045H165.053V57.734H163.35V61.946C163.35 62.583 163.558 62.856 164.338 62.856C164.611 62.856 164.936 62.804 165.17 62.726V63.272C164.949 63.402 164.65 63.519 164.13 63.519ZM166.611 63.454V57.045H167.43V63.454H166.611ZM166.598 55.706V54.809H167.443V55.706H166.598ZM169.352 63.454V57.045H170.132V57.617H170.184C170.821 57.201 171.679 56.928 172.485 56.928C173.707 56.928 174.331 57.422 174.331 58.644V63.454H173.512V58.826C173.512 57.968 173.174 57.63 172.134 57.63C171.471 57.63 170.743 57.851 170.171 58.176V63.454H169.352ZM178.808 63.558C176.793 63.558 175.779 62.362 175.779 60.321V60.165C175.779 57.929 177.079 56.928 178.574 56.928C180.316 56.928 181.122 57.968 181.122 59.918V60.386H176.624C176.65 62.141 177.43 62.856 178.938 62.856C179.796 62.856 180.394 62.661 180.927 62.388V63.012C180.537 63.272 179.822 63.558 178.808 63.558ZM178.548 57.591C177.625 57.591 176.741 58.15 176.637 59.736H180.264C180.264 58.267 179.705 57.591 178.548 57.591ZM184.218 63.545C183.373 63.545 182.671 63.363 182.177 63.09V62.44C182.71 62.661 183.204 62.856 184.127 62.856C185.219 62.856 185.635 62.427 185.635 61.79C185.635 61.114 185.31 60.841 184.439 60.607L183.789 60.412C182.827 60.165 182.229 59.736 182.229 58.67C182.229 57.643 182.931 56.928 184.374 56.928C185.206 56.928 185.739 57.123 186.09 57.305V57.968C185.726 57.786 185.089 57.617 184.413 57.617C183.477 57.617 183.009 57.968 183.009 58.605C183.009 59.216 183.308 59.476 184.049 59.697L184.738 59.879C185.921 60.217 186.454 60.607 186.454 61.725C186.454 62.856 185.648 63.545 184.218 63.545ZM187.184 65.144L187.691 62.609H188.744L187.795 65.144H187.184ZM0.949 79.454V73.032H1.729V73.773H1.781C2.158 73.357 2.873 72.954 3.627 72.954C3.77 72.954 3.939 72.967 4.017 72.993V73.747C3.861 73.721 3.679 73.708 3.562 73.708C2.886 73.708 2.223 73.981 1.768 74.358V79.454H0.949ZM6.71084 79.558C5.55384 79.558 4.73484 78.934 4.73484 77.79C4.73484 76.672 5.42384 76.087 6.65884 75.944L8.47884 75.736V74.982C8.47884 73.929 8.01084 73.63 6.86684 73.63C6.22984 73.63 5.72284 73.747 5.28084 73.851V73.266C5.83984 73.045 6.45084 72.928 7.16584 72.928C8.54384 72.928 9.29784 73.487 9.29784 74.787V79.454H8.63484L8.55684 78.882H8.50484C8.17984 79.233 7.60784 79.558 6.71084 79.558ZM6.91884 78.908C7.58184 78.908 8.17984 78.674 8.47884 78.401V76.347L6.87984 76.529C5.99584 76.62 5.57984 76.984 5.57984 77.764C5.57984 78.505 6.09984 78.908 6.91884 78.908ZM11.1687 79.454V73.045H11.9487V73.617H12.0007C12.6377 73.201 13.4957 72.928 14.3017 72.928C15.5237 72.928 16.1477 73.422 16.1477 74.644V79.454H15.3287V74.826C15.3287 73.968 14.9907 73.63 13.9507 73.63C13.2877 73.63 12.5597 73.851 11.9877 74.176V79.454H11.1687ZM20.2085 81.404C18.2325 81.404 17.3615 80.806 17.3615 79.883C17.3615 79.168 17.9205 78.778 18.6095 78.531V78.479C18.2585 78.388 17.9595 78.102 17.9595 77.686C17.9595 77.283 18.1935 76.984 18.6485 76.62C18.1675 76.295 17.8425 75.775 17.8425 75.034V74.956C17.8425 73.656 18.8565 72.902 20.2345 72.902C20.5465 72.902 20.8325 72.941 21.1055 73.006H23.2635V73.63H22.0155C22.3795 73.942 22.5745 74.371 22.5745 74.93V74.995C22.5745 76.36 21.5475 77.036 20.2215 77.036C19.8055 77.036 19.4155 76.971 19.0775 76.841C18.8955 77.01 18.7395 77.179 18.7395 77.413C18.7395 77.777 18.9735 77.946 19.4155 77.946H21.2355C22.3795 77.946 23.2375 78.284 23.2375 79.467C23.2375 80.533 22.3535 81.404 20.2085 81.404ZM20.1825 80.741C21.7945 80.741 22.3795 80.286 22.3795 79.584C22.3795 78.869 21.9765 78.7 21.1055 78.7H19.2205C18.6615 78.882 18.2325 79.168 18.2325 79.766C18.2325 80.403 18.7655 80.741 20.1825 80.741ZM20.2215 76.412C21.1835 76.412 21.7555 75.944 21.7555 75.034V74.917C21.7555 73.968 21.1445 73.539 20.2215 73.539C19.2725 73.539 18.6745 74.033 18.6745 74.891V75.008C18.6745 75.944 19.2985 76.412 20.2215 76.412ZM24.474 79.454V73.045H25.293V79.454H24.474ZM24.461 71.706V70.809H25.306V71.706H24.461ZM27.2156 79.454V73.045H27.9956V73.617H28.0476C28.6846 73.201 29.5426 72.928 30.3486 72.928C31.5706 72.928 32.1946 73.422 32.1946 74.644V79.454H31.3756V74.826C31.3756 73.968 31.0376 73.63 29.9976 73.63C29.3346 73.63 28.6066 73.851 28.0346 74.176V79.454H27.2156ZM36.2554 81.404C34.2794 81.404 33.4084 80.806 33.4084 79.883C33.4084 79.168 33.9674 78.778 34.6564 78.531V78.479C34.3054 78.388 34.0064 78.102 34.0064 77.686C34.0064 77.283 34.2404 76.984 34.6954 76.62C34.2144 76.295 33.8894 75.775 33.8894 75.034V74.956C33.8894 73.656 34.9034 72.902 36.2814 72.902C36.5934 72.902 36.8794 72.941 37.1524 73.006H39.3104V73.63H38.0624C38.4264 73.942 38.6214 74.371 38.6214 74.93V74.995C38.6214 76.36 37.5944 77.036 36.2684 77.036C35.8524 77.036 35.4624 76.971 35.1244 76.841C34.9424 77.01 34.7864 77.179 34.7864 77.413C34.7864 77.777 35.0204 77.946 35.4624 77.946H37.2824C38.4264 77.946 39.2844 78.284 39.2844 79.467C39.2844 80.533 38.4004 81.404 36.2554 81.404ZM36.2294 80.741C37.8414 80.741 38.4264 80.286 38.4264 79.584C38.4264 78.869 38.0234 78.7 37.1524 78.7H35.2674C34.7084 78.882 34.2794 79.168 34.2794 79.766C34.2794 80.403 34.8124 80.741 36.2294 80.741ZM36.2684 76.412C37.2304 76.412 37.8024 75.944 37.8024 75.034V74.917C37.8024 73.968 37.1914 73.539 36.2684 73.539C35.3194 73.539 34.7214 74.033 34.7214 74.891V75.008C34.7214 75.944 35.3454 76.412 36.2684 76.412ZM44.3259 79.454V73.734H43.3379V73.045H44.3259V72.083C44.3259 70.679 45.1319 70.081 46.3019 70.081C46.7959 70.081 47.1339 70.159 47.3809 70.276V70.874C47.1729 70.822 46.8869 70.744 46.4449 70.744C45.6389 70.744 45.1319 71.134 45.1319 72.135V73.045H46.6789V73.734H45.1319V79.454H44.3259ZM48.0232 79.454V73.032H48.8032V73.773H48.8552C49.2322 73.357 49.9472 72.954 50.7012 72.954C50.8442 72.954 51.0132 72.967 51.0912 72.993V73.747C50.9352 73.721 50.7532 73.708 50.6362 73.708C49.9602 73.708 49.2972 73.981 48.8422 74.358V79.454H48.0232ZM54.8601 79.558C53.1051 79.558 51.9871 78.427 51.9871 76.36V76.178C51.9871 74.098 53.1831 72.928 54.8731 72.928C56.6411 72.928 57.7591 74.059 57.7591 76.139V76.308C57.7591 78.375 56.5631 79.558 54.8601 79.558ZM54.8861 78.882C56.1081 78.882 56.9141 78.037 56.9141 76.386V76.113C56.9141 74.254 56.0301 73.591 54.8601 73.591C53.6251 73.591 52.8321 74.475 52.8321 76.087V76.386C52.8321 78.219 53.7291 78.882 54.8861 78.882ZM59.2459 79.454V73.045H60.0259V73.617H60.0779C60.7019 73.214 61.4429 72.928 62.1579 72.928C62.8859 72.928 63.4059 73.162 63.6789 73.643H63.7309C64.4979 73.162 65.2519 72.928 65.9669 72.928C67.0719 72.928 67.7349 73.422 67.7349 74.644V79.454H66.9289V74.826C66.9289 73.968 66.5389 73.63 65.6679 73.63C65.1219 73.63 64.5109 73.812 63.8609 74.176C63.8869 74.332 63.8999 74.475 63.8999 74.644V79.454H63.0809V74.826C63.0809 73.968 62.7299 73.63 61.8589 73.63C61.2479 73.63 60.6369 73.838 60.0649 74.176V79.454H59.2459ZM74.5546 79.558C73.3976 79.558 72.5786 78.934 72.5786 77.79C72.5786 76.672 73.2676 76.087 74.5026 75.944L76.3226 75.736V74.982C76.3226 73.929 75.8546 73.63 74.7106 73.63C74.0736 73.63 73.5666 73.747 73.1246 73.851V73.266C73.6836 73.045 74.2946 72.928 75.0096 72.928C76.3876 72.928 77.1416 73.487 77.1416 74.787V79.454H76.4786L76.4006 78.882H76.3486C76.0236 79.233 75.4516 79.558 74.5546 79.558ZM74.7626 78.908C75.4256 78.908 76.0236 78.674 76.3226 78.401V76.347L74.7236 76.529C73.8396 76.62 73.4236 76.984 73.4236 77.764C73.4236 78.505 73.9436 78.908 74.7626 78.908ZM81.2745 79.558C79.9615 79.558 78.6355 78.765 78.6355 76.399V76.23C78.6355 73.929 79.8185 72.928 81.4695 72.928C82.3015 72.928 82.8605 73.162 83.2245 73.396V70.146H84.0435V79.454H83.3545L83.2765 78.895H83.2245C82.7955 79.285 82.1845 79.558 81.2745 79.558ZM81.5085 78.895C82.3145 78.895 82.8735 78.596 83.2245 78.284V74.085C82.8995 73.825 82.2755 73.63 81.5995 73.63C80.2995 73.63 79.4805 74.306 79.4805 76.139V76.373C79.4805 78.245 80.3125 78.895 81.5085 78.895ZM88.4011 79.558C86.6461 79.558 85.5281 78.427 85.5281 76.36V76.178C85.5281 74.098 86.7241 72.928 88.4141 72.928C90.1821 72.928 91.3001 74.059 91.3001 76.139V76.308C91.3001 78.375 90.1041 79.558 88.4011 79.558ZM88.4271 78.882C89.6491 78.882 90.4551 78.037 90.4551 76.386V76.113C90.4551 74.254 89.5711 73.591 88.4011 73.591C87.1661 73.591 86.3731 74.475 86.3731 76.087V76.386C86.3731 78.219 87.2701 78.882 88.4271 78.882ZM92.7869 81.378V73.045H93.5669V73.565H93.6189C94.0609 73.227 94.7369 72.928 95.6079 72.928C97.0249 72.928 98.2079 73.695 98.2079 76.113V76.256C98.2079 78.57 97.0769 79.558 95.3089 79.558C94.5549 79.558 93.9699 79.35 93.5929 79.116V81.378H92.7869ZM95.2309 78.895C96.5699 78.895 97.3499 78.18 97.3499 76.386V76.152C97.3499 74.189 96.6349 73.63 95.3999 73.63C94.5939 73.63 93.9569 73.916 93.5929 74.163V78.427C93.9439 78.661 94.5419 78.895 95.2309 78.895ZM101.695 79.519C100.707 79.519 100.096 79.103 100.096 78.063V73.734H99.1595V73.045H100.096V71.524H100.915V73.045H102.618V73.734H100.915V77.946C100.915 78.583 101.123 78.856 101.903 78.856C102.176 78.856 102.501 78.804 102.735 78.726V79.272C102.514 79.402 102.215 79.519 101.695 79.519ZM104.175 79.454V73.045H104.994V79.454H104.175ZM104.162 71.706V70.809H105.007V71.706H104.162ZM106.917 79.454V73.045H107.697V73.617H107.749C108.386 73.201 109.244 72.928 110.05 72.928C111.272 72.928 111.896 73.422 111.896 74.644V79.454H111.077V74.826C111.077 73.968 110.739 73.63 109.699 73.63C109.036 73.63 108.308 73.851 107.736 74.176V79.454H106.917ZM115.957 81.404C113.981 81.404 113.11 80.806 113.11 79.883C113.11 79.168 113.669 78.778 114.358 78.531V78.479C114.007 78.388 113.708 78.102 113.708 77.686C113.708 77.283 113.942 76.984 114.397 76.62C113.916 76.295 113.591 75.775 113.591 75.034V74.956C113.591 73.656 114.605 72.902 115.983 72.902C116.295 72.902 116.581 72.941 116.854 73.006H119.012V73.63H117.764C118.128 73.942 118.323 74.371 118.323 74.93V74.995C118.323 76.36 117.296 77.036 115.97 77.036C115.554 77.036 115.164 76.971 114.826 76.841C114.644 77.01 114.488 77.179 114.488 77.413C114.488 77.777 114.722 77.946 115.164 77.946H116.984C118.128 77.946 118.986 78.284 118.986 79.467C118.986 80.533 118.102 81.404 115.957 81.404ZM115.931 80.741C117.543 80.741 118.128 80.286 118.128 79.584C118.128 78.869 117.725 78.7 116.854 78.7H114.969C114.41 78.882 113.981 79.168 113.981 79.766C113.981 80.403 114.514 80.741 115.931 80.741ZM115.97 76.412C116.932 76.412 117.504 75.944 117.504 75.034V74.917C117.504 73.968 116.893 73.539 115.97 73.539C115.021 73.539 114.423 74.033 114.423 74.891V75.008C114.423 75.944 115.047 76.412 115.97 76.412ZM123.611 79.454V73.045H124.391V73.617H124.443C125.08 73.201 125.938 72.928 126.744 72.928C127.966 72.928 128.59 73.422 128.59 74.644V79.454H127.771V74.826C127.771 73.968 127.433 73.63 126.393 73.63C125.73 73.63 125.002 73.851 124.43 74.176V79.454H123.611ZM132.911 79.558C131.156 79.558 130.038 78.427 130.038 76.36V76.178C130.038 74.098 131.234 72.928 132.924 72.928C134.692 72.928 135.81 74.059 135.81 76.139V76.308C135.81 78.375 134.614 79.558 132.911 79.558ZM132.937 78.882C134.159 78.882 134.965 78.037 134.965 76.386V76.113C134.965 74.254 134.081 73.591 132.911 73.591C131.676 73.591 130.883 74.475 130.883 76.087V76.386C130.883 78.219 131.78 78.882 132.937 78.882ZM139.078 79.454L136.66 73.032H137.544L139.494 78.388H139.52L141.483 73.032H142.302L139.897 79.454H139.078ZM146.181 79.558C144.166 79.558 143.152 78.362 143.152 76.321V76.165C143.152 73.929 144.452 72.928 145.947 72.928C147.689 72.928 148.495 73.968 148.495 75.918V76.386H143.997C144.023 78.141 144.803 78.856 146.311 78.856C147.169 78.856 147.767 78.661 148.3 78.388V79.012C147.91 79.272 147.195 79.558 146.181 79.558ZM145.921 73.591C144.998 73.591 144.114 74.15 144.01 75.736H147.637C147.637 74.267 147.078 73.591 145.921 73.591ZM150.018 79.454V70.146H150.837V79.454H150.018ZM3.562 95.558C1.547 95.558 0.533 94.362 0.533 92.321V92.165C0.533 89.929 1.833 88.928 3.328 88.928C5.07 88.928 5.876 89.968 5.876 91.918V92.386H1.378C1.404 94.141 2.184 94.856 3.692 94.856C4.55 94.856 5.148 94.661 5.681 94.388V95.012C5.291 95.272 4.576 95.558 3.562 95.558ZM3.302 89.591C2.379 89.591 1.495 90.15 1.391 91.736H5.018C5.018 90.267 4.459 89.591 3.302 89.591ZM6.62188 95.454L8.81888 92.191L6.71288 89.032H7.66188L9.36488 91.606L10.9639 89.032H11.8739L9.84588 92.191L12.0039 95.454H11.0419L9.28688 92.776L7.51888 95.454H6.62188ZM15.8891 95.558C13.8741 95.558 12.8601 94.362 12.8601 92.321V92.165C12.8601 89.929 14.1601 88.928 15.6551 88.928C17.3971 88.928 18.2031 89.968 18.2031 91.918V92.386H13.7051C13.7311 94.141 14.5111 94.856 16.0191 94.856C16.8771 94.856 17.4751 94.661 18.0081 94.388V95.012C17.6181 95.272 16.9031 95.558 15.8891 95.558ZM15.6291 89.591C14.7061 89.591 13.8221 90.15 13.7181 91.736H17.3451C17.3451 90.267 16.7861 89.591 15.6291 89.591ZM19.7 95.454V89.032H20.48V89.773H20.532C20.909 89.357 21.624 88.954 22.378 88.954C22.521 88.954 22.69 88.967 22.768 88.993V89.747C22.612 89.721 22.43 89.708 22.313 89.708C21.637 89.708 20.974 89.981 20.519 90.358V95.454H19.7ZM26.5889 95.558C24.7299 95.558 23.6639 94.44 23.6639 92.347V92.178C23.6639 89.903 24.9769 88.928 26.6279 88.928C27.4599 88.928 27.9409 89.071 28.3959 89.357V90.033C27.8499 89.773 27.4079 89.63 26.5759 89.63C25.3539 89.63 24.5089 90.423 24.5089 92.048V92.334C24.5089 94.011 25.2239 94.856 26.6799 94.856C27.5639 94.856 28.1229 94.583 28.4739 94.388V95.051C28.0579 95.311 27.5119 95.558 26.5889 95.558ZM29.9076 95.454V89.045H30.7266V95.454H29.9076ZM29.8946 87.706V86.809H30.7396V87.706H29.8946ZM34.2482 95.545C33.4032 95.545 32.7012 95.363 32.2072 95.09V94.44C32.7402 94.661 33.2342 94.856 34.1572 94.856C35.2492 94.856 35.6652 94.427 35.6652 93.79C35.6652 93.114 35.3402 92.841 34.4692 92.607L33.8192 92.412C32.8572 92.165 32.2592 91.736 32.2592 90.67C32.2592 89.643 32.9612 88.928 34.4042 88.928C35.2362 88.928 35.7692 89.123 36.1202 89.305V89.968C35.7562 89.786 35.1192 89.617 34.4432 89.617C33.5072 89.617 33.0392 89.968 33.0392 90.605C33.0392 91.216 33.3382 91.476 34.0792 91.697L34.7682 91.879C35.9512 92.217 36.4842 92.607 36.4842 93.725C36.4842 94.856 35.6782 95.545 34.2482 95.545ZM40.5815 95.558C38.5665 95.558 37.5525 94.362 37.5525 92.321V92.165C37.5525 89.929 38.8525 88.928 40.3475 88.928C42.0895 88.928 42.8955 89.968 42.8955 91.918V92.386H38.3975C38.4235 94.141 39.2035 94.856 40.7115 94.856C41.5695 94.856 42.1675 94.661 42.7005 94.388V95.012C42.3105 95.272 41.5955 95.558 40.5815 95.558ZM40.3215 89.591C39.3985 89.591 38.5145 90.15 38.4105 91.736H42.0375C42.0375 90.267 41.4785 89.591 40.3215 89.591ZM45.9914 95.545C45.1464 95.545 44.4444 95.363 43.9504 95.09V94.44C44.4834 94.661 44.9774 94.856 45.9004 94.856C46.9924 94.856 47.4084 94.427 47.4084 93.79C47.4084 93.114 47.0834 92.841 46.2124 92.607L45.5624 92.412C44.6004 92.165 44.0024 91.736 44.0024 90.67C44.0024 89.643 44.7044 88.928 46.1474 88.928C46.9794 88.928 47.5124 89.123 47.8634 89.305V89.968C47.4994 89.786 46.8624 89.617 46.1864 89.617C45.2504 89.617 44.7824 89.968 44.7824 90.605C44.7824 91.216 45.0814 91.476 45.8224 91.697L46.5114 91.879C47.6944 92.217 48.2274 92.607 48.2274 93.725C48.2274 94.856 47.4214 95.545 45.9914 95.545ZM55.1027 95.519C54.1147 95.519 53.5037 95.103 53.5037 94.063V89.734H52.5677V89.045H53.5037V87.524H54.3227V89.045H56.0257V89.734H54.3227V93.946C54.3227 94.583 54.5307 94.856 55.3107 94.856C55.5837 94.856 55.9087 94.804 56.1427 94.726V95.272C55.9217 95.402 55.6227 95.519 55.1027 95.519ZM60.0144 95.558C58.2594 95.558 57.1414 94.427 57.1414 92.36V92.178C57.1414 90.098 58.3374 88.928 60.0274 88.928C61.7954 88.928 62.9134 90.059 62.9134 92.139V92.308C62.9134 94.375 61.7174 95.558 60.0144 95.558ZM60.0404 94.882C61.2624 94.882 62.0684 94.037 62.0684 92.386V92.113C62.0684 90.254 61.1844 89.591 60.0144 89.591C58.7794 89.591 57.9864 90.475 57.9864 92.087V92.386C57.9864 94.219 58.8834 94.882 60.0404 94.882ZM70.4282 95.558C68.4132 95.558 67.3992 94.362 67.3992 92.321V92.165C67.3992 89.929 68.6992 88.928 70.1942 88.928C71.9362 88.928 72.7422 89.968 72.7422 91.918V92.386H68.2442C68.2702 94.141 69.0502 94.856 70.5582 94.856C71.4162 94.856 72.0142 94.661 72.5472 94.388V95.012C72.1572 95.272 71.4422 95.558 70.4282 95.558ZM70.1682 89.591C69.2452 89.591 68.3612 90.15 68.2572 91.736H71.8842C71.8842 90.267 71.3252 89.591 70.1682 89.591ZM75.838 95.545C74.993 95.545 74.291 95.363 73.797 95.09V94.44C74.33 94.661 74.824 94.856 75.747 94.856C76.839 94.856 77.255 94.427 77.255 93.79C77.255 93.114 76.93 92.841 76.059 92.607L75.409 92.412C74.447 92.165 73.849 91.736 73.849 90.67C73.849 89.643 74.551 88.928 75.994 88.928C76.826 88.928 77.359 89.123 77.71 89.305V89.968C77.346 89.786 76.709 89.617 76.033 89.617C75.097 89.617 74.629 89.968 74.629 90.605C74.629 91.216 74.928 91.476 75.669 91.697L76.358 91.879C77.541 92.217 78.074 92.607 78.074 93.725C78.074 94.856 77.268 95.545 75.838 95.545ZM81.5344 95.519C80.5464 95.519 79.9354 95.103 79.9354 94.063V89.734H78.9994V89.045H79.9354V87.524H80.7544V89.045H82.4574V89.734H80.7544V93.946C80.7544 94.583 80.9624 94.856 81.7424 94.856C82.0154 94.856 82.3404 94.804 82.5744 94.726V95.272C82.3534 95.402 82.0544 95.519 81.5344 95.519ZM85.536 95.558C84.379 95.558 83.56 94.934 83.56 93.79C83.56 92.672 84.249 92.087 85.484 91.944L87.304 91.736V90.982C87.304 89.929 86.836 89.63 85.692 89.63C85.055 89.63 84.548 89.747 84.106 89.851V89.266C84.665 89.045 85.276 88.928 85.991 88.928C87.369 88.928 88.123 89.487 88.123 90.787V95.454H87.46L87.382 94.882H87.33C87.005 95.233 86.433 95.558 85.536 95.558ZM85.744 94.908C86.407 94.908 87.005 94.674 87.304 94.401V92.347L85.705 92.529C84.821 92.62 84.405 92.984 84.405 93.764C84.405 94.505 84.925 94.908 85.744 94.908ZM92.2689 95.597C91.4889 95.597 90.5399 95.467 89.9939 95.22V86.146H90.7999V89.5H90.8649C91.3719 89.188 91.9959 88.928 92.9059 88.928C94.2059 88.928 95.4149 89.656 95.4149 92.1V92.256C95.4149 94.414 94.2839 95.597 92.2689 95.597ZM92.3209 94.895C93.5689 94.895 94.5569 94.258 94.5569 92.386V92.152C94.5569 90.215 93.8679 89.63 92.5549 89.63C91.8139 89.63 91.1769 89.916 90.7999 90.111V94.648C91.1509 94.778 91.6189 94.895 92.3209 94.895ZM96.9643 95.454V86.146H97.7833V95.454H96.9643ZM99.7318 95.454V89.045H100.551V95.454H99.7318ZM99.7188 87.706V86.809H100.564V87.706H99.7188ZM104.072 95.545C103.227 95.545 102.525 95.363 102.031 95.09V94.44C102.564 94.661 103.058 94.856 103.981 94.856C105.073 94.856 105.489 94.427 105.489 93.79C105.489 93.114 105.164 92.841 104.293 92.607L103.643 92.412C102.681 92.165 102.083 91.736 102.083 90.67C102.083 89.643 102.785 88.928 104.228 88.928C105.06 88.928 105.593 89.123 105.944 89.305V89.968C105.58 89.786 104.943 89.617 104.267 89.617C103.331 89.617 102.863 89.968 102.863 90.605C102.863 91.216 103.162 91.476 103.903 91.697L104.592 91.879C105.775 92.217 106.308 92.607 106.308 93.725C106.308 94.856 105.502 95.545 104.072 95.545ZM107.793 95.454V86.146H108.612V89.604H108.664C109.288 89.188 110.12 88.941 110.926 88.941C112.148 88.941 112.772 89.435 112.772 90.657V95.454H111.953V90.826C111.953 89.968 111.615 89.63 110.575 89.63C109.912 89.63 109.184 89.864 108.612 90.176V95.454H107.793ZM114.662 95.454V89.045H115.481V95.454H114.662ZM114.649 87.706V86.809H115.494V87.706H114.649ZM117.403 95.454V89.045H118.183V89.617H118.235C118.872 89.201 119.73 88.928 120.536 88.928C121.758 88.928 122.382 89.422 122.382 90.644V95.454H121.563V90.826C121.563 89.968 121.225 89.63 120.185 89.63C119.522 89.63 118.794 89.851 118.222 90.176V95.454H117.403ZM126.443 97.404C124.467 97.404 123.596 96.806 123.596 95.883C123.596 95.168 124.155 94.778 124.844 94.531V94.479C124.493 94.388 124.194 94.102 124.194 93.686C124.194 93.283 124.428 92.984 124.883 92.62C124.402 92.295 124.077 91.775 124.077 91.034V90.956C124.077 89.656 125.091 88.902 126.469 88.902C126.781 88.902 127.067 88.941 127.34 89.006H129.498V89.63H128.25C128.614 89.942 128.809 90.371 128.809 90.93V90.995C128.809 92.36 127.782 93.036 126.456 93.036C126.04 93.036 125.65 92.971 125.312 92.841C125.13 93.01 124.974 93.179 124.974 93.413C124.974 93.777 125.208 93.946 125.65 93.946H127.47C128.614 93.946 129.472 94.284 129.472 95.467C129.472 96.533 128.588 97.404 126.443 97.404ZM126.417 96.741C128.029 96.741 128.614 96.286 128.614 95.584C128.614 94.869 128.211 94.7 127.34 94.7H125.455C124.896 94.882 124.467 95.168 124.467 95.766C124.467 96.403 125 96.741 126.417 96.741ZM126.456 92.412C127.418 92.412 127.99 91.944 127.99 91.034V90.917C127.99 89.968 127.379 89.539 126.456 89.539C125.507 89.539 124.909 90.033 124.909 90.891V91.008C124.909 91.944 125.533 92.412 126.456 92.412ZM134.097 95.454V89.045H134.877V89.617H134.929C135.566 89.201 136.424 88.928 137.23 88.928C138.452 88.928 139.076 89.422 139.076 90.644V95.454H138.257V90.826C138.257 89.968 137.919 89.63 136.879 89.63C136.216 89.63 135.488 89.851 134.916 90.176V95.454H134.097ZM143.553 95.558C141.538 95.558 140.524 94.362 140.524 92.321V92.165C140.524 89.929 141.824 88.928 143.319 88.928C145.061 88.928 145.867 89.968 145.867 91.918V92.386H141.369C141.395 94.141 142.175 94.856 143.683 94.856C144.541 94.856 145.139 94.661 145.672 94.388V95.012C145.282 95.272 144.567 95.558 143.553 95.558ZM143.293 89.591C142.37 89.591 141.486 90.15 141.382 91.736H145.009C145.009 90.267 144.45 89.591 143.293 89.591ZM148.638 95.454L146.792 89.032H147.663L149.106 94.375H149.145L150.77 89.032H151.485L153.11 94.375H153.162L154.592 89.032H155.385L153.539 95.454H152.694L151.121 90.293H151.095L149.483 95.454H148.638ZM0.949 111.454V105.032H1.729V105.773H1.781C2.158 105.357 2.873 104.954 3.627 104.954C3.77 104.954 3.939 104.967 4.017 104.993V105.747C3.861 105.721 3.679 105.708 3.562 105.708C2.886 105.708 2.223 105.981 1.768 106.358V111.454H0.949ZM7.78588 111.558C6.03088 111.558 4.91288 110.427 4.91288 108.36V108.178C4.91288 106.098 6.10888 104.928 7.79888 104.928C9.56688 104.928 10.6849 106.059 10.6849 108.139V108.308C10.6849 110.375 9.48888 111.558 7.78588 111.558ZM7.81188 110.882C9.03388 110.882 9.83988 110.037 9.83988 108.386V108.113C9.83988 106.254 8.95588 105.591 7.78588 105.591C6.55088 105.591 5.75788 106.475 5.75788 108.087V108.386C5.75788 110.219 6.65488 110.882 7.81188 110.882ZM14.0827 111.558C12.8477 111.558 12.1327 110.96 12.1327 109.725V105.032H12.9517V109.621C12.9517 110.505 13.3287 110.856 14.3167 110.856C15.0057 110.856 15.6687 110.622 16.2407 110.284V105.032H17.0467V111.454H16.3447L16.2667 110.856H16.2277C15.5907 111.272 14.8497 111.558 14.0827 111.558ZM20.9396 111.519C19.9516 111.519 19.3406 111.103 19.3406 110.063V105.734H18.4046V105.045H19.3406V103.524H20.1596V105.045H21.8626V105.734H20.1596V109.946C20.1596 110.583 20.3676 110.856 21.1476 110.856C21.4206 110.856 21.7456 110.804 21.9796 110.726V111.272C21.7586 111.402 21.4596 111.519 20.9396 111.519ZM23.4203 111.454V105.045H24.2393V111.454H23.4203ZM23.4073 103.706V102.809H24.2523V103.706H23.4073ZM26.1619 111.454V105.045H26.9419V105.617H26.9939C27.6309 105.201 28.4889 104.928 29.2949 104.928C30.5169 104.928 31.1409 105.422 31.1409 106.644V111.454H30.3219V106.826C30.3219 105.968 29.9839 105.63 28.9439 105.63C28.2809 105.63 27.5529 105.851 26.9809 106.176V111.454H26.1619ZM35.6177 111.558C33.6027 111.558 32.5887 110.362 32.5887 108.321V108.165C32.5887 105.929 33.8887 104.928 35.3837 104.928C37.1257 104.928 37.9317 105.968 37.9317 107.918V108.386H33.4337C33.4597 110.141 34.2397 110.856 35.7477 110.856C36.6057 110.856 37.2037 110.661 37.7367 110.388V111.012C37.3467 111.272 36.6317 111.558 35.6177 111.558ZM35.3577 105.591C34.4347 105.591 33.5507 106.15 33.4467 107.736H37.0737C37.0737 106.267 36.5147 105.591 35.3577 105.591ZM41.0275 111.545C40.1825 111.545 39.4805 111.363 38.9865 111.09V110.44C39.5195 110.661 40.0135 110.856 40.9365 110.856C42.0285 110.856 42.4445 110.427 42.4445 109.79C42.4445 109.114 42.1195 108.841 41.2485 108.607L40.5985 108.412C39.6365 108.165 39.0385 107.736 39.0385 106.67C39.0385 105.643 39.7405 104.928 41.1835 104.928C42.0155 104.928 42.5485 105.123 42.8995 105.305V105.968C42.5355 105.786 41.8985 105.617 41.2225 105.617C40.2865 105.617 39.8185 105.968 39.8185 106.605C39.8185 107.216 40.1175 107.476 40.8585 107.697L41.5475 107.879C42.7305 108.217 43.2635 108.607 43.2635 109.725C43.2635 110.856 42.4575 111.545 41.0275 111.545ZM44.3578 111.714V110.622H45.4368V111.714H44.3578ZM51.0868 111.454V102.731H51.9188V106.579H56.5858V102.731H57.4178V111.454H56.5858V107.281H51.9188V111.454H51.0868ZM61.9441 111.558C60.1891 111.558 59.0711 110.427 59.0711 108.36V108.178C59.0711 106.098 60.2671 104.928 61.9571 104.928C63.7251 104.928 64.8431 106.059 64.8431 108.139V108.308C64.8431 110.375 63.6471 111.558 61.9441 111.558ZM61.9701 110.882C63.1921 110.882 63.9981 110.037 63.9981 108.386V108.113C63.9981 106.254 63.1141 105.591 61.9441 105.591C60.7091 105.591 59.9161 106.475 59.9161 108.087V108.386C59.9161 110.219 60.8131 110.882 61.9701 110.882ZM67.6039 111.454L65.7579 105.032H66.6289L68.0719 110.375H68.1109L69.7359 105.032H70.4509L72.0759 110.375H72.1279L73.5579 105.032H74.3509L72.5049 111.454H71.6599L70.0869 106.293H70.0609L68.4489 111.454H67.6039ZM79.0886 111.454V105.045H79.8686V105.617H79.9206C80.5446 105.214 81.2856 104.928 82.0006 104.928C82.7286 104.928 83.2486 105.162 83.5216 105.643H83.5736C84.3406 105.162 85.0946 104.928 85.8096 104.928C86.9146 104.928 87.5776 105.422 87.5776 106.644V111.454H86.7716V106.826C86.7716 105.968 86.3816 105.63 85.5106 105.63C84.9646 105.63 84.3536 105.812 83.7036 106.176C83.7296 106.332 83.7426 106.475 83.7426 106.644V111.454H82.9236V106.826C82.9236 105.968 82.5726 105.63 81.7016 105.63C81.0906 105.63 80.4796 105.838 79.9076 106.176V111.454H79.0886ZM89.4613 111.454V105.045H90.2803V111.454H89.4613ZM89.4483 103.706V102.809H90.2933V103.706H89.4483ZM94.3999 113.404C92.4239 113.404 91.5529 112.806 91.5529 111.883C91.5529 111.168 92.1119 110.778 92.8009 110.531V110.479C92.4499 110.388 92.1509 110.102 92.1509 109.686C92.1509 109.283 92.3849 108.984 92.8399 108.62C92.3589 108.295 92.0339 107.775 92.0339 107.034V106.956C92.0339 105.656 93.0479 104.902 94.4259 104.902C94.7379 104.902 95.0239 104.941 95.2969 105.006H97.4549V105.63H96.2069C96.5709 105.942 96.7659 106.371 96.7659 106.93V106.995C96.7659 108.36 95.7389 109.036 94.4129 109.036C93.9969 109.036 93.6069 108.971 93.2689 108.841C93.0869 109.01 92.9309 109.179 92.9309 109.413C92.9309 109.777 93.1649 109.946 93.6069 109.946H95.4269C96.5709 109.946 97.4289 110.284 97.4289 111.467C97.4289 112.533 96.5449 113.404 94.3999 113.404ZM94.3739 112.741C95.9859 112.741 96.5709 112.286 96.5709 111.584C96.5709 110.869 96.1679 110.7 95.2969 110.7H93.4119C92.8529 110.882 92.4239 111.168 92.4239 111.766C92.4239 112.403 92.9569 112.741 94.3739 112.741ZM94.4129 108.412C95.3749 108.412 95.9469 107.944 95.9469 107.034V106.917C95.9469 105.968 95.3359 105.539 94.4129 105.539C93.4639 105.539 92.8659 106.033 92.8659 106.891V107.008C92.8659 107.944 93.4899 108.412 94.4129 108.412ZM98.6394 111.454V102.146H99.4584V105.604H99.5104C100.134 105.188 100.966 104.941 101.772 104.941C102.994 104.941 103.618 105.435 103.618 106.657V111.454H102.799V106.826C102.799 105.968 102.461 105.63 101.421 105.63C100.758 105.63 100.03 105.864 99.4584 106.176V111.454H98.6394ZM107.458 111.519C106.47 111.519 105.859 111.103 105.859 110.063V105.734H104.923V105.045H105.859V103.524H106.678V105.045H108.381V105.734H106.678V109.946C106.678 110.583 106.886 110.856 107.666 110.856C107.939 110.856 108.264 110.804 108.498 110.726V111.272C108.277 111.402 107.978 111.519 107.458 111.519ZM114.602 111.454L112.756 105.032H113.627L115.07 110.375H115.109L116.734 105.032H117.449L119.074 110.375H119.126L120.556 105.032H121.349L119.503 111.454H118.658L117.085 106.293H117.059L115.447 111.454H114.602ZM125.285 111.558C123.27 111.558 122.256 110.362 122.256 108.321V108.165C122.256 105.929 123.556 104.928 125.051 104.928C126.793 104.928 127.599 105.968 127.599 107.918V108.386H123.101C123.127 110.141 123.907 110.856 125.415 110.856C126.273 110.856 126.871 110.661 127.404 110.388V111.012C127.014 111.272 126.299 111.558 125.285 111.558ZM125.025 105.591C124.102 105.591 123.218 106.15 123.114 107.736H126.741C126.741 106.267 126.182 105.591 125.025 105.591ZM134.968 111.558C133.213 111.558 132.095 110.427 132.095 108.36V108.178C132.095 106.098 133.291 104.928 134.981 104.928C136.749 104.928 137.867 106.059 137.867 108.139V108.308C137.867 110.375 136.671 111.558 134.968 111.558ZM134.994 110.882C136.216 110.882 137.022 110.037 137.022 108.386V108.113C137.022 106.254 136.138 105.591 134.968 105.591C133.733 105.591 132.94 106.475 132.94 108.087V108.386C132.94 110.219 133.837 110.882 134.994 110.882ZM139.353 113.378V105.045H140.133V105.565H140.185C140.627 105.227 141.303 104.928 142.174 104.928C143.591 104.928 144.774 105.695 144.774 108.113V108.256C144.774 110.57 143.643 111.558 141.875 111.558C141.121 111.558 140.536 111.35 140.159 111.116V113.378H139.353ZM141.797 110.895C143.136 110.895 143.916 110.18 143.916 108.386V108.152C143.916 106.189 143.201 105.63 141.966 105.63C141.16 105.63 140.523 105.916 140.159 106.163V110.427C140.51 110.661 141.108 110.895 141.797 110.895ZM148.261 111.519C147.273 111.519 146.662 111.103 146.662 110.063V105.734H145.726V105.045H146.662V103.524H147.481V105.045H149.184V105.734H147.481V109.946C147.481 110.583 147.689 110.856 148.469 110.856C148.742 110.856 149.067 110.804 149.301 110.726V111.272C149.08 111.402 148.781 111.519 148.261 111.519ZM150.742 111.454V105.045H151.561V111.454H150.742ZM150.729 103.706V102.809H151.574V103.706H150.729ZM153.483 111.454V105.045H154.263V105.617H154.315C154.939 105.214 155.68 104.928 156.395 104.928C157.123 104.928 157.643 105.162 157.916 105.643H157.968C158.735 105.162 159.489 104.928 160.204 104.928C161.309 104.928 161.972 105.422 161.972 106.644V111.454H161.166V106.826C161.166 105.968 160.776 105.63 159.905 105.63C159.359 105.63 158.748 105.812 158.098 106.176C158.124 106.332 158.137 106.475 158.137 106.644V111.454H157.318V106.826C157.318 105.968 156.967 105.63 156.096 105.63C155.485 105.63 154.874 105.838 154.302 106.176V111.454H153.483ZM163.856 111.454V105.045H164.675V111.454H163.856ZM163.843 103.706V102.809H164.688V103.706H163.843ZM166.142 111.454V110.83L169.847 105.747V105.721H166.337V105.032H170.848V105.63L167.143 110.739V110.765H170.835V111.454H166.142ZM174.923 111.558C172.908 111.558 171.894 110.362 171.894 108.321V108.165C171.894 105.929 173.194 104.928 174.689 104.928C176.431 104.928 177.237 105.968 177.237 107.918V108.386H172.739C172.765 110.141 173.545 110.856 175.053 110.856C175.911 110.856 176.509 110.661 177.042 110.388V111.012C176.652 111.272 175.937 111.558 174.923 111.558ZM174.663 105.591C173.74 105.591 172.856 106.15 172.752 107.736H176.379C176.379 106.267 175.82 105.591 174.663 105.591ZM2.925 127.519C1.937 127.519 1.326 127.103 1.326 126.063V121.734H0.39V121.045H1.326V119.524H2.145V121.045H3.848V121.734H2.145V125.946C2.145 126.583 2.353 126.856 3.133 126.856C3.406 126.856 3.731 126.804 3.965 126.726V127.272C3.744 127.402 3.445 127.519 2.925 127.519ZM5.37966 127.454V118.146H6.19866V121.604H6.25066C6.87466 121.188 7.70666 120.941 8.51266 120.941C9.73466 120.941 10.3587 121.435 10.3587 122.657V127.454H9.53966V122.826C9.53966 121.968 9.20166 121.63 8.16166 121.63C7.49866 121.63 6.77066 121.864 6.19866 122.176V127.454H5.37966ZM14.8354 127.558C12.8204 127.558 11.8064 126.362 11.8064 124.321V124.165C11.8064 121.929 13.1064 120.928 14.6014 120.928C16.3434 120.928 17.1494 121.968 17.1494 123.918V124.386H12.6514C12.6774 126.141 13.4574 126.856 14.9654 126.856C15.8234 126.856 16.4214 126.661 16.9544 126.388V127.012C16.5644 127.272 15.8494 127.558 14.8354 127.558ZM14.5754 121.591C13.6524 121.591 12.7684 122.15 12.6644 123.736H16.2914C16.2914 122.267 15.7324 121.591 14.5754 121.591ZM18.6723 127.454V121.045H19.4913V127.454H18.6723ZM18.6593 119.706V118.809H19.5043V119.706H18.6593ZM21.4138 127.454V121.032H22.1938V121.773H22.2458C22.6228 121.357 23.3378 120.954 24.0918 120.954C24.2348 120.954 24.4038 120.967 24.4818 120.993V121.747C24.3258 121.721 24.1438 121.708 24.0268 121.708C23.3508 121.708 22.6878 121.981 22.2328 122.358V127.454H21.4138ZM31.8218 127.558C29.8068 127.558 28.7928 126.362 28.7928 124.321V124.165C28.7928 121.929 30.0928 120.928 31.5878 120.928C33.3298 120.928 34.1358 121.968 34.1358 123.918V124.386H29.6378C29.6638 126.141 30.4438 126.856 31.9518 126.856C32.8098 126.856 33.4078 126.661 33.9408 126.388V127.012C33.5508 127.272 32.8358 127.558 31.8218 127.558ZM31.5618 121.591C30.6388 121.591 29.7548 122.15 29.6508 123.736H33.2778C33.2778 122.267 32.7188 121.591 31.5618 121.591ZM35.6326 127.454V121.045H36.4126V121.617H36.4646C37.1016 121.201 37.9596 120.928 38.7656 120.928C39.9876 120.928 40.6116 121.422 40.6116 122.644V127.454H39.7926V122.826C39.7926 121.968 39.4546 121.63 38.4146 121.63C37.7516 121.63 37.0236 121.851 36.4516 122.176V127.454H35.6326ZM44.7374 127.558C43.4244 127.558 42.0984 126.765 42.0984 124.399V124.23C42.0984 121.929 43.2814 120.928 44.9324 120.928C45.7644 120.928 46.3234 121.162 46.6874 121.396V118.146H47.5064V127.454H46.8174L46.7394 126.895H46.6874C46.2584 127.285 45.6474 127.558 44.7374 127.558ZM44.9714 126.895C45.7774 126.895 46.3364 126.596 46.6874 126.284V122.085C46.3624 121.825 45.7384 121.63 45.0624 121.63C43.7624 121.63 42.9434 122.306 42.9434 124.139V124.373C42.9434 126.245 43.7754 126.895 44.9714 126.895ZM52.02 127.558C50.005 127.558 48.991 126.362 48.991 124.321V124.165C48.991 121.929 50.291 120.928 51.786 120.928C53.528 120.928 54.334 121.968 54.334 123.918V124.386H49.836C49.862 126.141 50.642 126.856 52.15 126.856C53.008 126.856 53.606 126.661 54.139 126.388V127.012C53.749 127.272 53.034 127.558 52.02 127.558ZM51.76 121.591C50.837 121.591 49.953 122.15 49.849 123.736H53.476C53.476 122.267 52.917 121.591 51.76 121.591ZM57.3778 127.558C56.2208 127.558 55.4018 126.934 55.4018 125.79C55.4018 124.672 56.0908 124.087 57.3258 123.944L59.1458 123.736V122.982C59.1458 121.929 58.6778 121.63 57.5338 121.63C56.8968 121.63 56.3898 121.747 55.9478 121.851V121.266C56.5068 121.045 57.1178 120.928 57.8328 120.928C59.2108 120.928 59.9648 121.487 59.9648 122.787V127.454H59.3018L59.2238 126.882H59.1718C58.8468 127.233 58.2748 127.558 57.3778 127.558ZM57.5858 126.908C58.2488 126.908 58.8468 126.674 59.1458 126.401V124.347L57.5468 124.529C56.6628 124.62 56.2468 124.984 56.2468 125.764C56.2468 126.505 56.7668 126.908 57.5858 126.908ZM63.5532 127.454L61.1352 121.032H62.0192L63.9692 126.388H63.9952L65.9582 121.032H66.7772L64.3722 127.454H63.5532ZM70.5007 127.558C68.7457 127.558 67.6277 126.427 67.6277 124.36V124.178C67.6277 122.098 68.8237 120.928 70.5137 120.928C72.2817 120.928 73.3997 122.059 73.3997 124.139V124.308C73.3997 126.375 72.2037 127.558 70.5007 127.558ZM70.5267 126.882C71.7487 126.882 72.5547 126.037 72.5547 124.386V124.113C72.5547 122.254 71.6707 121.591 70.5007 121.591C69.2657 121.591 68.4727 122.475 68.4727 124.087V124.386C68.4727 126.219 69.3697 126.882 70.5267 126.882ZM74.8865 127.454V121.032H75.6665V121.773H75.7185C76.0955 121.357 76.8105 120.954 77.5645 120.954C77.7075 120.954 77.8765 120.967 77.9545 120.993V121.747C77.7985 121.721 77.6165 121.708 77.4995 121.708C76.8235 121.708 76.1605 121.981 75.7055 122.358V127.454H74.8865ZM80.8654 127.545C80.0204 127.545 79.3184 127.363 78.8244 127.09V126.44C79.3574 126.661 79.8514 126.856 80.7744 126.856C81.8664 126.856 82.2824 126.427 82.2824 125.79C82.2824 125.114 81.9574 124.841 81.0864 124.607L80.4364 124.412C79.4744 124.165 78.8764 123.736 78.8764 122.67C78.8764 121.643 79.5784 120.928 81.0214 120.928C81.8534 120.928 82.3864 121.123 82.7374 121.305V121.968C82.3734 121.786 81.7364 121.617 81.0604 121.617C80.1244 121.617 79.6564 121.968 79.6564 122.605C79.6564 123.216 79.9554 123.476 80.6964 123.697L81.3854 123.879C82.5684 124.217 83.1014 124.607 83.1014 125.725C83.1014 126.856 82.2954 127.545 80.8654 127.545ZM89.5478 127.558C88.3908 127.558 87.5718 126.934 87.5718 125.79C87.5718 124.672 88.2608 124.087 89.4958 123.944L91.3158 123.736V122.982C91.3158 121.929 90.8478 121.63 89.7038 121.63C89.0668 121.63 88.5598 121.747 88.1178 121.851V121.266C88.6768 121.045 89.2878 120.928 90.0028 120.928C91.3808 120.928 92.1348 121.487 92.1348 122.787V127.454H91.4718L91.3938 126.882H91.3418C91.0168 127.233 90.4448 127.558 89.5478 127.558ZM89.7558 126.908C90.4188 126.908 91.0168 126.674 91.3158 126.401V124.347L89.7168 124.529C88.8328 124.62 88.4168 124.984 88.4168 125.764C88.4168 126.505 88.9368 126.908 89.7558 126.908ZM94.0056 127.454V121.045H94.7856V121.617H94.8376C95.4746 121.201 96.3326 120.928 97.1386 120.928C98.3606 120.928 98.9846 121.422 98.9846 122.644V127.454H98.1656V122.826C98.1656 121.968 97.8276 121.63 96.7876 121.63C96.1246 121.63 95.3966 121.851 94.8246 122.176V127.454H94.0056ZM103.11 127.558C101.797 127.558 100.471 126.765 100.471 124.399V124.23C100.471 121.929 101.654 120.928 103.305 120.928C104.137 120.928 104.696 121.162 105.06 121.396V118.146H105.879V127.454H105.19L105.112 126.895H105.06C104.631 127.285 104.02 127.558 103.11 127.558ZM103.344 126.895C104.15 126.895 104.709 126.596 105.06 126.284V122.085C104.735 121.825 104.111 121.63 103.435 121.63C102.135 121.63 101.316 122.306 101.316 124.139V124.373C101.316 126.245 102.148 126.895 103.344 126.895ZM112.794 127.545C111.949 127.545 111.247 127.363 110.753 127.09V126.44C111.286 126.661 111.78 126.856 112.703 126.856C113.795 126.856 114.211 126.427 114.211 125.79C114.211 125.114 113.886 124.841 113.015 124.607L112.365 124.412C111.403 124.165 110.805 123.736 110.805 122.67C110.805 121.643 111.507 120.928 112.95 120.928C113.782 120.928 114.315 121.123 114.666 121.305V121.968C114.302 121.786 113.665 121.617 112.989 121.617C112.053 121.617 111.585 121.968 111.585 122.605C111.585 123.216 111.884 123.476 112.625 123.697L113.314 123.879C114.497 124.217 115.03 124.607 115.03 125.725C115.03 126.856 114.224 127.545 112.794 127.545ZM118.49 127.519C117.502 127.519 116.891 127.103 116.891 126.063V121.734H115.955V121.045H116.891V119.524H117.71V121.045H119.413V121.734H117.71V125.946C117.71 126.583 117.918 126.856 118.698 126.856C118.971 126.856 119.296 126.804 119.53 126.726V127.272C119.309 127.402 119.01 127.519 118.49 127.519ZM123.558 127.558C121.543 127.558 120.529 126.362 120.529 124.321V124.165C120.529 121.929 121.829 120.928 123.324 120.928C125.066 120.928 125.872 121.968 125.872 123.918V124.386H121.374C121.4 126.141 122.18 126.856 123.688 126.856C124.546 126.856 125.144 126.661 125.677 126.388V127.012C125.287 127.272 124.572 127.558 123.558 127.558ZM123.298 121.591C122.375 121.591 121.491 122.15 121.387 123.736H125.014C125.014 122.267 124.455 121.591 123.298 121.591ZM129.982 127.558C127.967 127.558 126.953 126.362 126.953 124.321V124.165C126.953 121.929 128.253 120.928 129.748 120.928C131.49 120.928 132.296 121.968 132.296 123.918V124.386H127.798C127.824 126.141 128.604 126.856 130.112 126.856C130.97 126.856 131.568 126.661 132.101 126.388V127.012C131.711 127.272 130.996 127.558 129.982 127.558ZM129.722 121.591C128.799 121.591 127.915 122.15 127.811 123.736H131.438C131.438 122.267 130.879 121.591 129.722 121.591ZM133.793 127.454V121.032H134.573V121.773H134.625C135.002 121.357 135.717 120.954 136.471 120.954C136.614 120.954 136.783 120.967 136.861 120.993V121.747C136.705 121.721 136.523 121.708 136.406 121.708C135.73 121.708 135.067 121.981 134.612 122.358V127.454H133.793ZM143.564 127.519C142.576 127.519 141.965 127.103 141.965 126.063V121.734H141.029V121.045H141.965V119.524H142.784V121.045H144.487V121.734H142.784V125.946C142.784 126.583 142.992 126.856 143.772 126.856C144.045 126.856 144.37 126.804 144.604 126.726V127.272C144.383 127.402 144.084 127.519 143.564 127.519ZM146.018 127.454V118.146H146.837V121.604H146.889C147.513 121.188 148.345 120.941 149.151 120.941C150.373 120.941 150.997 121.435 150.997 122.657V127.454H150.178V122.826C150.178 121.968 149.84 121.63 148.8 121.63C148.137 121.63 147.409 121.864 146.837 122.176V127.454H146.018ZM155.474 127.558C153.459 127.558 152.445 126.362 152.445 124.321V124.165C152.445 121.929 153.745 120.928 155.24 120.928C156.982 120.928 157.788 121.968 157.788 123.918V124.386H153.29C153.316 126.141 154.096 126.856 155.604 126.856C156.462 126.856 157.06 126.661 157.593 126.388V127.012C157.203 127.272 156.488 127.558 155.474 127.558ZM155.214 121.591C154.291 121.591 153.407 122.15 153.303 123.736H156.93C156.93 122.267 156.371 121.591 155.214 121.591ZM159.311 127.454V121.045H160.13V127.454H159.311ZM159.298 119.706V118.809H160.143V119.706H159.298ZM162.053 127.454V121.032H162.833V121.773H162.885C163.262 121.357 163.977 120.954 164.731 120.954C164.874 120.954 165.043 120.967 165.121 120.993V121.747C164.965 121.721 164.783 121.708 164.666 121.708C163.99 121.708 163.327 121.981 162.872 122.358V127.454H162.053ZM0.949 145.378V137.045H1.729V137.565H1.781C2.223 137.227 2.899 136.928 3.77 136.928C5.187 136.928 6.37 137.695 6.37 140.113V140.256C6.37 142.57 5.239 143.558 3.471 143.558C2.717 143.558 2.132 143.35 1.755 143.116V145.378H0.949ZM3.393 142.895C4.732 142.895 5.512 142.18 5.512 140.386V140.152C5.512 138.189 4.797 137.63 3.562 137.63C2.756 137.63 2.119 137.916 1.755 138.163V142.427C2.106 142.661 2.704 142.895 3.393 142.895ZM7.88064 143.454V137.032H8.66064V137.773H8.71264C9.08964 137.357 9.80464 136.954 10.5586 136.954C10.7016 136.954 10.8706 136.967 10.9486 136.993V137.747C10.7926 137.721 10.6106 137.708 10.4936 137.708C9.81764 137.708 9.15464 137.981 8.69964 138.358V143.454H7.88064ZM13.6425 143.558C12.4855 143.558 11.6665 142.934 11.6665 141.79C11.6665 140.672 12.3555 140.087 13.5905 139.944L15.4105 139.736V138.982C15.4105 137.929 14.9425 137.63 13.7985 137.63C13.1615 137.63 12.6545 137.747 12.2125 137.851V137.266C12.7715 137.045 13.3825 136.928 14.0975 136.928C15.4755 136.928 16.2295 137.487 16.2295 138.787V143.454H15.5665L15.4885 142.882H15.4365C15.1115 143.233 14.5395 143.558 13.6425 143.558ZM13.8505 142.908C14.5135 142.908 15.1115 142.674 15.4105 142.401V140.347L13.8115 140.529C12.9275 140.62 12.5115 140.984 12.5115 141.764C12.5115 142.505 13.0315 142.908 13.8505 142.908ZM20.6094 143.558C18.7504 143.558 17.6844 142.44 17.6844 140.347V140.178C17.6844 137.903 18.9974 136.928 20.6484 136.928C21.4804 136.928 21.9614 137.071 22.4164 137.357V138.033C21.8704 137.773 21.4284 137.63 20.5964 137.63C19.3744 137.63 18.5294 138.423 18.5294 140.048V140.334C18.5294 142.011 19.2444 142.856 20.7004 142.856C21.5844 142.856 22.1434 142.583 22.4944 142.388V143.051C22.0784 143.311 21.5324 143.558 20.6094 143.558ZM25.967 143.519C24.979 143.519 24.368 143.103 24.368 142.063V137.734H23.432V137.045H24.368V135.524H25.187V137.045H26.89V137.734H25.187V141.946C25.187 142.583 25.395 142.856 26.175 142.856C26.448 142.856 26.773 142.804 27.007 142.726V143.272C26.786 143.402 26.487 143.519 25.967 143.519ZM28.4477 143.454V137.045H29.2667V143.454H28.4477ZM28.4347 135.706V134.809H29.2797V135.706H28.4347ZM33.6982 143.558C31.8392 143.558 30.7732 142.44 30.7732 140.347V140.178C30.7732 137.903 32.0862 136.928 33.7372 136.928C34.5692 136.928 35.0502 137.071 35.5052 137.357V138.033C34.9592 137.773 34.5172 137.63 33.6852 137.63C32.4632 137.63 31.6182 138.423 31.6182 140.048V140.334C31.6182 142.011 32.3332 142.856 33.7892 142.856C34.6732 142.856 35.2322 142.583 35.5832 142.388V143.051C35.1672 143.311 34.6212 143.558 33.6982 143.558ZM39.604 143.558C37.589 143.558 36.575 142.362 36.575 140.321V140.165C36.575 137.929 37.875 136.928 39.37 136.928C41.112 136.928 41.918 137.968 41.918 139.918V140.386H37.42C37.446 142.141 38.226 142.856 39.734 142.856C40.592 142.856 41.19 142.661 41.723 142.388V143.012C41.333 143.272 40.618 143.558 39.604 143.558ZM39.344 137.591C38.421 137.591 37.537 138.15 37.433 139.736H41.06C41.06 138.267 40.501 137.591 39.344 137.591ZM46.8299 143.454V137.045H47.6099V137.617H47.6619C48.2859 137.214 49.0269 136.928 49.7419 136.928C50.4699 136.928 50.9899 137.162 51.2629 137.643H51.3149C52.0819 137.162 52.8359 136.928 53.5509 136.928C54.6559 136.928 55.3189 137.422 55.3189 138.644V143.454H54.5129V138.826C54.5129 137.968 54.1229 137.63 53.2519 137.63C52.7059 137.63 52.0949 137.812 51.4449 138.176C51.4709 138.332 51.4839 138.475 51.4839 138.644V143.454H50.6649V138.826C50.6649 137.968 50.3139 137.63 49.4429 137.63C48.8319 137.63 48.2209 137.838 47.6489 138.176V143.454H46.8299ZM59.6335 143.558C57.8785 143.558 56.7605 142.427 56.7605 140.36V140.178C56.7605 138.098 57.9565 136.928 59.6465 136.928C61.4145 136.928 62.5325 138.059 62.5325 140.139V140.308C62.5325 142.375 61.3365 143.558 59.6335 143.558ZM59.6595 142.882C60.8815 142.882 61.6875 142.037 61.6875 140.386V140.113C61.6875 138.254 60.8035 137.591 59.6335 137.591C58.3985 137.591 57.6055 138.475 57.6055 140.087V140.386C57.6055 142.219 58.5025 142.882 59.6595 142.882ZM64.0193 143.454V137.032H64.7993V137.773H64.8513C65.2283 137.357 65.9433 136.954 66.6973 136.954C66.8403 136.954 67.0093 136.967 67.0873 136.993V137.747C66.9313 137.721 66.7493 137.708 66.6323 137.708C65.9563 137.708 65.2933 137.981 64.8383 138.358V143.454H64.0193ZM71.0122 143.558C68.9972 143.558 67.9832 142.362 67.9832 140.321V140.165C67.9832 137.929 69.2832 136.928 70.7782 136.928C72.5202 136.928 73.3262 137.968 73.3262 139.918V140.386H68.8282C68.8542 142.141 69.6342 142.856 71.1422 142.856C72.0002 142.856 72.5982 142.661 73.1312 142.388V143.012C72.7412 143.272 72.0262 143.558 71.0122 143.558ZM70.7522 137.591C69.8292 137.591 68.9452 138.15 68.8412 139.736H72.4682C72.4682 138.267 71.9092 137.591 70.7522 137.591ZM80.8511 143.558C78.8361 143.558 77.8221 142.362 77.8221 140.321V140.165C77.8221 137.929 79.1221 136.928 80.6171 136.928C82.3591 136.928 83.1651 137.968 83.1651 139.918V140.386H78.6671C78.6931 142.141 79.4731 142.856 80.9811 142.856C81.8391 142.856 82.4371 142.661 82.9701 142.388V143.012C82.5801 143.272 81.8651 143.558 80.8511 143.558ZM80.5911 137.591C79.6681 137.591 78.7841 138.15 78.6801 139.736H82.3071C82.3071 138.267 81.7481 137.591 80.5911 137.591ZM85.0779 143.454V137.734H84.0899V137.045H85.0779V136.083C85.0779 134.679 85.8839 134.081 87.0539 134.081C87.5479 134.081 87.8859 134.159 88.1329 134.276V134.874C87.9249 134.822 87.6389 134.744 87.1969 134.744C86.3909 134.744 85.8839 135.134 85.8839 136.135V137.045H87.4309V137.734H85.8839V143.454H85.0779ZM89.1912 143.454V137.734H88.2032V137.045H89.1912V136.083C89.1912 134.679 89.9972 134.081 91.1672 134.081C91.6612 134.081 91.9992 134.159 92.2462 134.276V134.874C92.0382 134.822 91.7522 134.744 91.3102 134.744C90.5042 134.744 89.9972 135.134 89.9972 136.135V137.045H91.5442V137.734H89.9972V143.454H89.1912ZM95.5015 143.558C93.4865 143.558 92.4725 142.362 92.4725 140.321V140.165C92.4725 137.929 93.7725 136.928 95.2675 136.928C97.0095 136.928 97.8155 137.968 97.8155 139.918V140.386H93.3175C93.3435 142.141 94.1235 142.856 95.6315 142.856C96.4895 142.856 97.0875 142.661 97.6205 142.388V143.012C97.2305 143.272 96.5155 143.558 95.5015 143.558ZM95.2415 137.591C94.3185 137.591 93.4345 138.15 93.3305 139.736H96.9575C96.9575 138.267 96.3985 137.591 95.2415 137.591ZM101.821 143.558C99.9623 143.558 98.8963 142.44 98.8963 140.347V140.178C98.8963 137.903 100.209 136.928 101.86 136.928C102.692 136.928 103.173 137.071 103.628 137.357V138.033C103.082 137.773 102.64 137.63 101.808 137.63C100.586 137.63 99.7413 138.423 99.7413 140.048V140.334C99.7413 142.011 100.456 142.856 101.912 142.856C102.796 142.856 103.355 142.583 103.706 142.388V143.051C103.29 143.311 102.744 143.558 101.821 143.558ZM107.179 143.519C106.191 143.519 105.58 143.103 105.58 142.063V137.734H104.644V137.045H105.58V135.524H106.399V137.045H108.102V137.734H106.399V141.946C106.399 142.583 106.607 142.856 107.387 142.856C107.66 142.856 107.985 142.804 108.219 142.726V143.272C107.998 143.402 107.699 143.519 107.179 143.519ZM109.66 143.454V137.045H110.479V143.454H109.66ZM109.647 135.706V134.809H110.492V135.706H109.647ZM114.182 143.454L111.764 137.032H112.648L114.598 142.388H114.624L116.587 137.032H117.406L115.001 143.454H114.182ZM121.286 143.558C119.271 143.558 118.257 142.362 118.257 140.321V140.165C118.257 137.929 119.557 136.928 121.052 136.928C122.794 136.928 123.6 137.968 123.6 139.918V140.386H119.102C119.128 142.141 119.908 142.856 121.416 142.856C122.274 142.856 122.872 142.661 123.405 142.388V143.012C123.015 143.272 122.3 143.558 121.286 143.558ZM121.026 137.591C120.103 137.591 119.219 138.15 119.115 139.736H122.742C122.742 138.267 122.183 137.591 121.026 137.591ZM125.122 143.454V134.146H125.941V143.454H125.122ZM128.358 145.404C128.072 145.404 127.76 145.326 127.578 145.235V144.624C127.747 144.663 127.994 144.715 128.228 144.715C128.865 144.715 129.229 144.429 129.476 143.753L129.684 143.142L127.214 137.032H128.072L130.087 142.076H130.113L131.985 137.032H132.791L130.243 143.844C129.853 144.897 129.385 145.404 128.358 145.404ZM135.023 141.634V140.711C135.023 139.697 135.556 139.307 136.388 138.553C136.999 137.981 137.376 137.565 137.376 136.694C137.376 135.576 136.687 135.147 135.582 135.147C134.828 135.147 134.347 135.303 133.762 135.563L133.606 134.861C134.204 134.562 134.958 134.367 135.777 134.367C137.168 134.367 138.286 135.082 138.286 136.668C138.286 137.799 137.805 138.293 136.882 139.099C136.245 139.671 135.829 140.009 135.829 140.776V141.634H135.023ZM134.984 143.675V142.622H135.92V143.675H134.984Z" fill="black"/>
</svg>
