<svg width="270" height="316" viewBox="0 0 270 316" fill="none" xmlns="http://www.w3.org/2000/svg">
<rect width="270" height="316" rx="11" transform="matrix(1 0 0 -1 0 316)" fill="black"/>
<path d="M25.504 129.52V133.312H29.992V135.4H25.504V142H23.032V127.432H30.28V129.52H25.504ZM40.8891 142H38.6091V141.136C37.9371 141.92 36.9371 142.312 35.6091 142.312C34.2811 142.312 33.2171 141.8 32.4171 140.776C31.6331 139.752 31.2411 138.552 31.2411 137.176C31.2411 135.8 31.6411 134.632 32.4411 133.672C33.2571 132.696 34.2971 132.208 35.5611 132.208C36.9051 132.208 37.9211 132.608 38.6091 133.408V132.52H40.8891V142ZM38.8731 137.248C38.8731 136.368 38.6251 135.648 38.1291 135.088C37.6331 134.512 36.9931 134.224 36.2091 134.224C35.4411 134.224 34.8091 134.504 34.3131 135.064C33.8331 135.608 33.5931 136.336 33.5931 137.248C33.5931 138.16 33.8411 138.896 34.3371 139.456C34.8331 140.016 35.4731 140.296 36.2571 140.296C37.0411 140.296 37.6731 140.024 38.1531 139.48C38.6331 138.936 38.8731 138.192 38.8731 137.248ZM49.291 134.992C48.699 134.4 48.035 134.104 47.299 134.104C46.435 134.104 45.755 134.416 45.259 135.04C44.763 135.664 44.515 136.432 44.515 137.344C44.515 138.24 44.795 138.976 45.355 139.552C45.915 140.128 46.595 140.416 47.395 140.416C48.083 140.416 48.715 140.112 49.291 139.504V141.736C48.619 142.12 47.843 142.312 46.963 142.312C45.587 142.312 44.443 141.824 43.531 140.848C42.619 139.872 42.163 138.68 42.163 137.272C42.163 135.864 42.627 134.672 43.555 133.696C44.499 132.704 45.675 132.208 47.083 132.208C47.915 132.208 48.651 132.408 49.291 132.808V134.992ZM52.7678 137.488C52.7678 138.4 52.9678 139.152 53.3678 139.744C53.7678 140.336 54.3198 140.632 55.0238 140.632C56.1278 140.632 56.8318 140.088 57.1358 139L59.3438 139.36C58.6238 141.328 57.1838 142.312 55.0238 142.312C53.5838 142.312 52.4318 141.856 51.5678 140.944C50.7198 140.016 50.2958 138.816 50.2958 137.344C50.2958 135.792 50.7038 134.552 51.5198 133.624C52.3518 132.68 53.4718 132.208 54.8798 132.208C56.3038 132.208 57.4078 132.656 58.1918 133.552C58.9918 134.432 59.3918 135.64 59.3918 137.176V137.488H52.7678ZM57.2318 136.192C57.2318 135.536 57.0238 134.96 56.6078 134.464C56.2078 133.968 55.6798 133.72 55.0238 133.72C54.3838 133.72 53.8558 133.984 53.4398 134.512C53.0398 135.024 52.8398 135.584 52.8398 136.192H57.2318ZM60.4555 127.432H63.4315L65.9515 132.28L68.2555 127.432H71.2315L67.2235 134.272L71.6875 142H68.7595L65.6395 136.432L62.6635 142H59.7355L64.3675 134.248L60.4555 127.432Z" fill="white"/>
<path fill-rule="evenodd" clip-rule="evenodd" d="M60.281 56.8848C61.5027 58.1065 63.4833 58.1065 64.705 56.8848C65.9266 55.6632 65.9266 53.6825 64.705 52.4609L60.834 48.5899L64.705 44.7189C65.9267 43.4972 65.9267 41.5165 64.705 40.2949C63.4834 39.0733 61.5027 39.0733 60.2811 40.2949L56.41 44.1659L52.5391 40.295C51.3175 39.0734 49.3368 39.0734 48.1152 40.295C46.8935 41.5166 46.8935 43.4973 48.1152 44.719L51.9861 48.5899L48.1152 52.4608C46.8936 53.6824 46.8936 55.6631 48.1152 56.8847C49.3368 58.1064 51.3175 58.1064 52.5392 56.8847L56.41 53.0139L60.281 56.8848Z" fill="white"/>
<circle cx="32.1667" cy="48.5898" r="10.1667" fill="white"/>
<path fill-rule="evenodd" clip-rule="evenodd" d="M44.6296 80.654C53.4593 80.654 60.8029 74.7855 62.3259 67.0465C62.6459 65.4208 61.2726 64.0642 59.6158 64.0642H29.6435C27.9866 64.0642 26.6134 65.4208 26.9333 67.0465C28.4563 74.7855 35.8 80.654 44.6296 80.654Z" fill="white"/>
<path d="M25.628 184.64V187.484H28.994V189.05H25.628V194H23.774V183.074H29.21V184.64H25.628ZM37.1668 194H35.4568V193.352C34.9528 193.94 34.2028 194.234 33.2068 194.234C32.2108 194.234 31.4128 193.85 30.8128 193.082C30.2248 192.314 29.9308 191.414 29.9308 190.382C29.9308 189.35 30.2308 188.474 30.8308 187.754C31.4428 187.022 32.2228 186.656 33.1708 186.656C34.1788 186.656 34.9408 186.956 35.4568 187.556V186.89H37.1668V194ZM35.6548 190.436C35.6548 189.776 35.4688 189.236 35.0968 188.816C34.7248 188.384 34.2448 188.168 33.6568 188.168C33.0808 188.168 32.6068 188.378 32.2348 188.798C31.8748 189.206 31.6948 189.752 31.6948 190.436C31.6948 191.12 31.8808 191.672 32.2528 192.092C32.6248 192.512 33.1048 192.722 33.6928 192.722C34.2808 192.722 34.7548 192.518 35.1148 192.11C35.4748 191.702 35.6548 191.144 35.6548 190.436ZM43.4683 188.744C43.0243 188.3 42.5263 188.078 41.9743 188.078C41.3263 188.078 40.8163 188.312 40.4443 188.78C40.0723 189.248 39.8863 189.824 39.8863 190.508C39.8863 191.18 40.0963 191.732 40.5163 192.164C40.9363 192.596 41.4463 192.812 42.0463 192.812C42.5623 192.812 43.0363 192.584 43.4683 192.128V193.802C42.9643 194.09 42.3823 194.234 41.7223 194.234C40.6903 194.234 39.8323 193.868 39.1483 193.136C38.4643 192.404 38.1223 191.51 38.1223 190.454C38.1223 189.398 38.4703 188.504 39.1663 187.772C39.8743 187.028 40.7563 186.656 41.8123 186.656C42.4363 186.656 42.9883 186.806 43.4683 187.106V188.744ZM46.8679 183.902C46.8679 184.178 46.7659 184.418 46.5619 184.622C46.3579 184.826 46.1179 184.928 45.8419 184.928C45.5659 184.928 45.3259 184.826 45.1219 184.622C44.9179 184.418 44.8159 184.178 44.8159 183.902C44.8159 183.626 44.9179 183.386 45.1219 183.182C45.3259 182.978 45.5659 182.876 45.8419 182.876C46.1179 182.876 46.3579 182.978 46.5619 183.182C46.7659 183.386 46.8679 183.626 46.8679 183.902ZM46.7239 194H44.9779V186.89H46.7239V194ZM55.1317 194H53.4217V193.352C52.9177 193.94 52.1677 194.234 51.1717 194.234C50.1757 194.234 49.3777 193.85 48.7777 193.082C48.1897 192.314 47.8957 191.414 47.8957 190.382C47.8957 189.35 48.1957 188.474 48.7957 187.754C49.4077 187.022 50.1877 186.656 51.1357 186.656C52.1437 186.656 52.9057 186.956 53.4217 187.556V186.89H55.1317V194ZM53.6197 190.436C53.6197 189.776 53.4337 189.236 53.0617 188.816C52.6897 188.384 52.2097 188.168 51.6217 188.168C51.0457 188.168 50.5717 188.378 50.1997 188.798C49.8397 189.206 49.6597 189.752 49.6597 190.436C49.6597 191.12 49.8457 191.672 50.2177 192.092C50.5897 192.512 51.0697 192.722 51.6577 192.722C52.2457 192.722 52.7197 192.518 53.0797 192.11C53.4397 191.702 53.6197 191.144 53.6197 190.436ZM58.4811 194H56.7351V181.706H58.4811V194ZM69.8637 188.366C69.4797 188.006 69.0777 187.826 68.6577 187.826C68.0217 187.826 67.7037 188.114 67.7037 188.69C67.7037 189.014 67.9917 189.278 68.5677 189.482C69.6237 189.866 70.2777 190.22 70.5297 190.544C70.7817 190.856 70.9077 191.246 70.9077 191.714C70.9077 192.482 70.6377 193.094 70.0977 193.55C69.5697 194.006 68.9157 194.234 68.1357 194.234C67.1277 194.234 66.2937 193.838 65.6337 193.046L66.4077 192.056C67.0077 192.656 67.5597 192.956 68.0637 192.956C68.7957 192.956 69.1617 192.602 69.1617 191.894C69.1617 191.534 68.9697 191.27 68.5857 191.102C68.2017 190.922 67.9077 190.79 67.7037 190.706C66.5997 190.226 66.0477 189.644 66.0477 188.96C66.0477 188.276 66.2517 187.724 66.6597 187.304C67.0797 186.872 67.6257 186.656 68.2977 186.656C69.2577 186.656 70.0197 186.902 70.5837 187.394L69.8637 188.366ZM73.8611 189.878L76.3451 186.89H78.6851L75.6971 190.022L78.9191 194H76.5431L73.8971 190.544L73.8611 194H72.1151V181.706H73.8611V189.878ZM80.9684 190.616C80.9684 191.3 81.1184 191.864 81.4184 192.308C81.7184 192.752 82.1324 192.974 82.6604 192.974C83.4884 192.974 84.0164 192.566 84.2444 191.75L85.9004 192.02C85.3604 193.496 84.2804 194.234 82.6604 194.234C81.5804 194.234 80.7164 193.892 80.0684 193.208C79.4324 192.512 79.1144 191.612 79.1144 190.508C79.1144 189.344 79.4204 188.414 80.0324 187.718C80.6564 187.01 81.4964 186.656 82.5524 186.656C83.6204 186.656 84.4484 186.992 85.0364 187.664C85.6364 188.324 85.9364 189.23 85.9364 190.382V190.616H80.9684ZM84.3164 189.644C84.3164 189.152 84.1604 188.72 83.8484 188.348C83.5484 187.976 83.1524 187.79 82.6604 187.79C82.1804 187.79 81.7844 187.988 81.4724 188.384C81.1724 188.768 81.0224 189.188 81.0224 189.644H84.3164ZM89.0202 194H87.2742V188.456H86.4282V187.034H87.2742V184.478H89.0202V187.034H90.4062V188.456H89.0202V194ZM95.6929 188.744C95.2489 188.3 94.7509 188.078 94.1989 188.078C93.5509 188.078 93.0409 188.312 92.6689 188.78C92.2969 189.248 92.1109 189.824 92.1109 190.508C92.1109 191.18 92.3209 191.732 92.7409 192.164C93.1609 192.596 93.6709 192.812 94.2709 192.812C94.7869 192.812 95.2609 192.584 95.6929 192.128V193.802C95.1889 194.09 94.6069 194.234 93.9469 194.234C92.9149 194.234 92.0569 193.868 91.3729 193.136C90.6889 192.404 90.3469 191.51 90.3469 190.454C90.3469 189.398 90.6949 188.504 91.3909 187.772C92.0989 187.028 92.9809 186.656 94.0369 186.656C94.6609 186.656 95.2129 186.806 95.6929 187.106V188.744ZM98.6965 181.706V187.484C99.1525 186.932 99.8785 186.656 100.874 186.656C101.618 186.656 102.212 186.944 102.656 187.52C103.1 188.096 103.322 188.81 103.322 189.662V194H101.594V190.238C101.594 188.738 101.132 187.988 100.208 187.988C99.2005 187.988 98.6965 188.816 98.6965 190.472V194H96.9505V181.706H98.6965ZM115.788 193.334C115.32 193.934 114.582 194.234 113.574 194.234C112.566 194.234 111.762 193.85 111.162 193.082C110.574 192.314 110.28 191.414 110.28 190.382C110.28 189.35 110.58 188.474 111.18 187.754C111.792 187.022 112.572 186.656 113.52 186.656C114.528 186.656 115.272 186.95 115.752 187.538L115.788 181.706H117.534V194H115.788V193.334ZM115.986 190.436C115.986 189.812 115.794 189.278 115.41 188.834C115.026 188.39 114.564 188.168 114.024 188.168C113.484 188.168 113.016 188.39 112.62 188.834C112.236 189.266 112.044 189.806 112.044 190.454C112.044 191.09 112.23 191.63 112.602 192.074C112.986 192.506 113.466 192.722 114.042 192.722C114.618 192.722 115.086 192.512 115.446 192.092C115.806 191.66 115.986 191.108 115.986 190.436ZM125.708 194H123.998V193.352C123.494 193.94 122.744 194.234 121.748 194.234C120.752 194.234 119.954 193.85 119.354 193.082C118.766 192.314 118.472 191.414 118.472 190.382C118.472 189.35 118.772 188.474 119.372 187.754C119.984 187.022 120.764 186.656 121.712 186.656C122.72 186.656 123.482 186.956 123.998 187.556V186.89H125.708V194ZM124.196 190.436C124.196 189.776 124.01 189.236 123.638 188.816C123.266 188.384 122.786 188.168 122.198 188.168C121.622 188.168 121.148 188.378 120.776 188.798C120.416 189.206 120.236 189.752 120.236 190.436C120.236 191.12 120.422 191.672 120.794 192.092C121.166 192.512 121.646 192.722 122.234 192.722C122.822 192.722 123.296 192.518 123.656 192.11C124.016 191.702 124.196 191.144 124.196 190.436ZM129.309 194H127.563V188.456H126.717V187.034H127.563V184.478H129.309V187.034H130.695V188.456H129.309V194ZM137.872 194H136.162V193.352C135.658 193.94 134.908 194.234 133.912 194.234C132.916 194.234 132.118 193.85 131.518 193.082C130.93 192.314 130.636 191.414 130.636 190.382C130.636 189.35 130.936 188.474 131.536 187.754C132.148 187.022 132.928 186.656 133.876 186.656C134.884 186.656 135.646 186.956 136.162 187.556V186.89H137.872V194ZM136.36 190.436C136.36 189.776 136.174 189.236 135.802 188.816C135.43 188.384 134.95 188.168 134.362 188.168C133.786 188.168 133.312 188.378 132.94 188.798C132.58 189.206 132.4 189.752 132.4 190.436C132.4 191.12 132.586 191.672 132.958 192.092C133.33 192.512 133.81 192.722 134.398 192.722C134.986 192.722 135.46 192.518 135.82 192.11C136.18 191.702 136.36 191.144 136.36 190.436ZM143.129 188.366C142.745 188.006 142.343 187.826 141.923 187.826C141.287 187.826 140.969 188.114 140.969 188.69C140.969 189.014 141.257 189.278 141.833 189.482C142.889 189.866 143.543 190.22 143.795 190.544C144.047 190.856 144.173 191.246 144.173 191.714C144.173 192.482 143.903 193.094 143.363 193.55C142.835 194.006 142.181 194.234 141.401 194.234C140.393 194.234 139.559 193.838 138.899 193.046L139.673 192.056C140.273 192.656 140.825 192.956 141.329 192.956C142.061 192.956 142.427 192.602 142.427 191.894C142.427 191.534 142.235 191.27 141.851 191.102C141.467 190.922 141.173 190.79 140.969 190.706C139.865 190.226 139.313 189.644 139.313 188.96C139.313 188.276 139.517 187.724 139.925 187.304C140.345 186.872 140.891 186.656 141.563 186.656C142.523 186.656 143.285 186.902 143.849 187.394L143.129 188.366ZM146.623 190.616C146.623 191.3 146.773 191.864 147.073 192.308C147.373 192.752 147.787 192.974 148.315 192.974C149.143 192.974 149.671 192.566 149.899 191.75L151.555 192.02C151.015 193.496 149.935 194.234 148.315 194.234C147.235 194.234 146.371 193.892 145.723 193.208C145.087 192.512 144.769 191.612 144.769 190.508C144.769 189.344 145.075 188.414 145.687 187.718C146.311 187.01 147.151 186.656 148.207 186.656C149.275 186.656 150.103 186.992 150.691 187.664C151.291 188.324 151.591 189.23 151.591 190.382V190.616H146.623ZM149.971 189.644C149.971 189.152 149.815 188.72 149.503 188.348C149.203 187.976 148.807 187.79 148.315 187.79C147.835 187.79 147.439 187.988 147.127 188.384C146.827 188.768 146.677 189.188 146.677 189.644H149.971ZM154.675 194H152.929V188.456H152.083V187.034H152.929V184.478H154.675V187.034H156.061V188.456H154.675V194ZM167.359 188.744C166.915 188.3 166.417 188.078 165.865 188.078C165.217 188.078 164.707 188.312 164.335 188.78C163.963 189.248 163.777 189.824 163.777 190.508C163.777 191.18 163.987 191.732 164.407 192.164C164.827 192.596 165.337 192.812 165.937 192.812C166.453 192.812 166.927 192.584 167.359 192.128V193.802C166.855 194.09 166.273 194.234 165.613 194.234C164.581 194.234 163.723 193.868 163.039 193.136C162.355 192.404 162.013 191.51 162.013 190.454C162.013 189.398 162.361 188.504 163.057 187.772C163.765 187.028 164.647 186.656 165.703 186.656C166.327 186.656 166.879 186.806 167.359 187.106V188.744ZM170.362 187.628C170.806 186.98 171.502 186.656 172.45 186.656C172.75 186.656 173.026 186.716 173.278 186.836L173.062 188.42C172.798 188.252 172.51 188.168 172.198 188.168C170.974 188.168 170.362 189.044 170.362 190.796V194H168.616V186.89H170.362V187.628ZM175.275 190.616C175.275 191.3 175.425 191.864 175.725 192.308C176.025 192.752 176.439 192.974 176.967 192.974C177.795 192.974 178.323 192.566 178.551 191.75L180.207 192.02C179.667 193.496 178.587 194.234 176.967 194.234C175.887 194.234 175.023 193.892 174.375 193.208C173.739 192.512 173.421 191.612 173.421 190.508C173.421 189.344 173.727 188.414 174.339 187.718C174.963 187.01 175.803 186.656 176.859 186.656C177.927 186.656 178.755 186.992 179.343 187.664C179.943 188.324 180.243 189.23 180.243 190.382V190.616H175.275ZM178.623 189.644C178.623 189.152 178.467 188.72 178.155 188.348C177.855 187.976 177.459 187.79 176.967 187.79C176.487 187.79 176.091 187.988 175.779 188.384C175.479 188.768 175.329 189.188 175.329 189.644H178.623ZM187.917 194H186.207V193.352C185.703 193.94 184.953 194.234 183.957 194.234C182.961 194.234 182.163 193.85 181.563 193.082C180.975 192.314 180.681 191.414 180.681 190.382C180.681 189.35 180.981 188.474 181.581 187.754C182.193 187.022 182.973 186.656 183.921 186.656C184.929 186.656 185.691 186.956 186.207 187.556V186.89H187.917V194ZM186.405 190.436C186.405 189.776 186.219 189.236 185.847 188.816C185.475 188.384 184.995 188.168 184.407 188.168C183.831 188.168 183.357 188.378 182.985 188.798C182.625 189.206 182.445 189.752 182.445 190.436C182.445 191.12 182.631 191.672 183.003 192.092C183.375 192.512 183.855 192.722 184.443 192.722C185.031 192.722 185.505 192.518 185.865 192.11C186.225 191.702 186.405 191.144 186.405 190.436ZM191.518 194H189.772V188.456H188.926V187.034H189.772V184.478H191.518V187.034H192.904V188.456H191.518V194ZM194.699 190.616C194.699 191.3 194.849 191.864 195.149 192.308C195.449 192.752 195.863 192.974 196.391 192.974C197.219 192.974 197.747 192.566 197.975 191.75L199.631 192.02C199.091 193.496 198.011 194.234 196.391 194.234C195.311 194.234 194.447 193.892 193.799 193.208C193.163 192.512 192.845 191.612 192.845 190.508C192.845 189.344 193.151 188.414 193.763 187.718C194.387 187.01 195.227 186.656 196.283 186.656C197.351 186.656 198.179 186.992 198.767 187.664C199.367 188.324 199.667 189.23 199.667 190.382V190.616H194.699ZM198.047 189.644C198.047 189.152 197.891 188.72 197.579 188.348C197.279 187.976 196.883 187.79 196.391 187.79C195.911 187.79 195.515 187.988 195.203 188.384C194.903 188.768 194.753 189.188 194.753 189.644H198.047ZM205.613 193.334C205.145 193.934 204.407 194.234 203.399 194.234C202.391 194.234 201.587 193.85 200.987 193.082C200.399 192.314 200.105 191.414 200.105 190.382C200.105 189.35 200.405 188.474 201.005 187.754C201.617 187.022 202.397 186.656 203.345 186.656C204.353 186.656 205.097 186.95 205.577 187.538L205.613 181.706H207.359V194H205.613V193.334ZM205.811 190.436C205.811 189.812 205.619 189.278 205.235 188.834C204.851 188.39 204.389 188.168 203.849 188.168C203.309 188.168 202.841 188.39 202.445 188.834C202.061 189.266 201.869 189.806 201.869 190.454C201.869 191.09 202.055 191.63 202.427 192.074C202.811 192.506 203.291 192.722 203.867 192.722C204.443 192.722 204.911 192.512 205.271 192.092C205.631 191.66 205.811 191.108 205.811 190.436ZM216.774 194H215.028V188.456H214.2V187.034H215.028V184.802C215.028 182.63 215.874 181.544 217.566 181.544C217.914 181.544 218.238 181.622 218.538 181.778V183.29C218.226 183.134 217.95 183.056 217.71 183.056C217.386 183.056 217.146 183.176 216.99 183.416C216.846 183.644 216.774 184.202 216.774 185.09V187.034H218.538V188.456H216.774V194ZM226.19 190.436C226.19 191.552 225.848 192.464 225.164 193.172C224.48 193.88 223.58 194.234 222.464 194.234C221.36 194.234 220.46 193.88 219.764 193.172C219.068 192.464 218.72 191.558 218.72 190.454C218.72 189.338 219.062 188.426 219.746 187.718C220.43 187.01 221.33 186.656 222.446 186.656C223.562 186.656 224.462 187.01 225.146 187.718C225.842 188.414 226.19 189.32 226.19 190.436ZM220.484 190.472C220.484 191.132 220.67 191.672 221.042 192.092C221.414 192.512 221.894 192.722 222.482 192.722C223.07 192.722 223.538 192.5 223.886 192.056C224.246 191.6 224.426 191.066 224.426 190.454C224.426 189.83 224.246 189.296 223.886 188.852C223.526 188.396 223.052 188.168 222.464 188.168C221.888 188.168 221.414 188.384 221.042 188.816C220.67 189.248 220.484 189.8 220.484 190.472ZM228.898 187.628C229.342 186.98 230.038 186.656 230.986 186.656C231.286 186.656 231.562 186.716 231.814 186.836L231.598 188.42C231.334 188.252 231.046 188.168 230.734 188.168C229.51 188.168 228.898 189.044 228.898 190.796V194H227.152V186.89H228.898V187.628ZM29.066 203.288C28.598 202.628 28.004 202.298 27.284 202.298C26.828 202.298 26.444 202.436 26.132 202.712C25.82 202.988 25.664 203.36 25.664 203.828C25.664 204.284 26.228 204.83 27.356 205.466C28.496 206.102 29.072 206.42 29.084 206.42C29.888 207.02 30.29 207.728 30.29 208.544C30.29 209.66 29.966 210.566 29.318 211.262C28.682 211.946 27.806 212.288 26.69 212.288C25.274 212.288 24.158 211.58 23.342 210.164L24.512 209.012C24.668 209.432 24.956 209.816 25.376 210.164C25.796 210.512 26.228 210.686 26.672 210.686C27.2 210.686 27.614 210.506 27.914 210.146C28.226 209.786 28.382 209.348 28.382 208.832C28.382 208.46 28.268 208.136 28.04 207.86C27.812 207.572 27.038 207.14 25.718 206.564C24.41 205.976 23.756 205.142 23.756 204.062C23.756 203.138 24.056 202.364 24.656 201.74C25.268 201.104 26.03 200.786 26.942 200.786C28.202 200.786 29.198 201.194 29.93 202.01L29.066 203.288ZM33.1853 207.878L35.6693 204.89H38.0093L35.0213 208.022L38.2433 212H35.8673L33.2213 208.544L33.1853 212H31.4393V199.706H33.1853V207.878ZM40.2927 208.616C40.2927 209.3 40.4427 209.864 40.7427 210.308C41.0427 210.752 41.4567 210.974 41.9847 210.974C42.8127 210.974 43.3407 210.566 43.5687 209.75L45.2247 210.02C44.6847 211.496 43.6047 212.234 41.9847 212.234C40.9047 212.234 40.0407 211.892 39.3927 211.208C38.7567 210.512 38.4387 209.612 38.4387 208.508C38.4387 207.344 38.7447 206.414 39.3567 205.718C39.9807 205.01 40.8207 204.656 41.8767 204.656C42.9447 204.656 43.7727 204.992 44.3607 205.664C44.9607 206.324 45.2607 207.23 45.2607 208.382V208.616H40.2927ZM43.6407 207.644C43.6407 207.152 43.4847 206.72 43.1727 206.348C42.8727 205.976 42.4767 205.79 41.9847 205.79C41.5047 205.79 41.1087 205.988 40.7967 206.384C40.4967 206.768 40.3467 207.188 40.3467 207.644H43.6407ZM48.3444 212H46.5984V206.456H45.7524V205.034H46.5984V202.478H48.3444V205.034H49.7304V206.456H48.3444V212ZM55.0171 206.744C54.5731 206.3 54.0751 206.078 53.5231 206.078C52.8751 206.078 52.3651 206.312 51.9931 206.78C51.6211 207.248 51.4351 207.824 51.4351 208.508C51.4351 209.18 51.6451 209.732 52.0651 210.164C52.4851 210.596 52.9951 210.812 53.5951 210.812C54.1111 210.812 54.5851 210.584 55.0171 210.128V211.802C54.5131 212.09 53.9311 212.234 53.2711 212.234C52.2391 212.234 51.3811 211.868 50.6971 211.136C50.0131 210.404 49.6711 209.51 49.6711 208.454C49.6711 207.398 50.0191 206.504 50.7151 205.772C51.4231 205.028 52.3051 204.656 53.3611 204.656C53.9851 204.656 54.5371 204.806 55.0171 205.106V206.744ZM58.0207 199.706V205.484C58.4767 204.932 59.2027 204.656 60.1987 204.656C60.9427 204.656 61.5367 204.944 61.9807 205.52C62.4247 206.096 62.6467 206.81 62.6467 207.662V212H60.9187V208.238C60.9187 206.738 60.4567 205.988 59.5327 205.988C58.5247 205.988 58.0207 206.816 58.0207 208.472V212H56.2747V199.706H58.0207ZM71.405 212H69.119L66.023 207.14L66.005 212H64.151V201.074H67.049C69.485 201.074 70.703 202.172 70.703 204.368C70.703 205.196 70.487 205.886 70.055 206.438C69.635 206.99 69.059 207.308 68.327 207.392L71.405 212ZM66.005 206.384H66.563C68.087 206.384 68.849 205.73 68.849 204.422C68.849 203.162 68.093 202.532 66.581 202.532H66.005V206.384ZM72.2369 200.786H73.6409L79.8149 209.012L79.8509 201.074H81.6869V212.216H80.3009L74.1089 204.008L74.0909 212H72.2369V200.786ZM83.2408 200.786H84.6448L90.8188 209.012L90.8548 201.074H92.6908V212.216H91.3048L85.1128 204.008L85.0948 212H83.2408V200.786ZM97.6287 206.528V208.184H94.1007V206.528H97.6287ZM98.972 199.706H100.718V205.538C101.222 204.95 101.972 204.656 102.968 204.656C103.904 204.656 104.678 205.028 105.29 205.772C105.914 206.516 106.226 207.392 106.226 208.4C106.226 209.492 105.92 210.404 105.308 211.136C104.696 211.868 103.904 212.234 102.932 212.234C101.888 212.234 101.162 211.934 100.754 211.334L100.718 212H98.972V199.706ZM104.444 208.436C104.444 207.836 104.258 207.308 103.886 206.852C103.514 206.396 103.04 206.168 102.464 206.168C101.888 206.168 101.42 206.396 101.06 206.852C100.7 207.296 100.52 207.83 100.52 208.454C100.52 209.066 100.706 209.6 101.078 210.056C101.462 210.5 101.93 210.722 102.482 210.722C103.082 210.722 103.556 210.506 103.904 210.074C104.264 209.63 104.444 209.084 104.444 208.436ZM113.895 212H112.185V211.352C111.681 211.94 110.931 212.234 109.935 212.234C108.939 212.234 108.141 211.85 107.541 211.082C106.953 210.314 106.659 209.414 106.659 208.382C106.659 207.35 106.959 206.474 107.559 205.754C108.171 205.022 108.951 204.656 109.899 204.656C110.907 204.656 111.669 204.956 112.185 205.556V204.89H113.895V212ZM112.383 208.436C112.383 207.776 112.197 207.236 111.825 206.816C111.453 206.384 110.973 206.168 110.385 206.168C109.809 206.168 109.335 206.378 108.963 206.798C108.603 207.206 108.423 207.752 108.423 208.436C108.423 209.12 108.609 209.672 108.981 210.092C109.353 210.512 109.833 210.722 110.421 210.722C111.009 210.722 111.483 210.518 111.843 210.11C112.203 209.702 112.383 209.144 112.383 208.436ZM119.153 206.366C118.769 206.006 118.367 205.826 117.947 205.826C117.311 205.826 116.993 206.114 116.993 206.69C116.993 207.014 117.281 207.278 117.857 207.482C118.913 207.866 119.567 208.22 119.819 208.544C120.071 208.856 120.197 209.246 120.197 209.714C120.197 210.482 119.927 211.094 119.387 211.55C118.859 212.006 118.205 212.234 117.425 212.234C116.417 212.234 115.583 211.838 114.923 211.046L115.697 210.056C116.297 210.656 116.849 210.956 117.353 210.956C118.085 210.956 118.451 210.602 118.451 209.894C118.451 209.534 118.259 209.27 117.875 209.102C117.491 208.922 117.197 208.79 116.993 208.706C115.889 208.226 115.337 207.644 115.337 206.96C115.337 206.276 115.541 205.724 115.949 205.304C116.369 204.872 116.915 204.656 117.587 204.656C118.547 204.656 119.309 204.902 119.873 205.394L119.153 206.366ZM122.646 208.616C122.646 209.3 122.796 209.864 123.096 210.308C123.396 210.752 123.81 210.974 124.338 210.974C125.166 210.974 125.694 210.566 125.922 209.75L127.578 210.02C127.038 211.496 125.958 212.234 124.338 212.234C123.258 212.234 122.394 211.892 121.746 211.208C121.11 210.512 120.792 209.612 120.792 208.508C120.792 207.344 121.098 206.414 121.71 205.718C122.334 205.01 123.174 204.656 124.23 204.656C125.298 204.656 126.126 204.992 126.714 205.664C127.314 206.324 127.614 207.23 127.614 208.382V208.616H122.646ZM125.994 207.644C125.994 207.152 125.838 206.72 125.526 206.348C125.226 205.976 124.83 205.79 124.338 205.79C123.858 205.79 123.462 205.988 123.15 206.384C122.85 206.768 122.7 207.188 122.7 207.644H125.994ZM133.56 211.334C133.092 211.934 132.354 212.234 131.346 212.234C130.338 212.234 129.534 211.85 128.934 211.082C128.346 210.314 128.052 209.414 128.052 208.382C128.052 207.35 128.352 206.474 128.952 205.754C129.564 205.022 130.344 204.656 131.292 204.656C132.3 204.656 133.044 204.95 133.524 205.538L133.56 199.706H135.306V212H133.56V211.334ZM133.758 208.436C133.758 207.812 133.566 207.278 133.182 206.834C132.798 206.39 132.336 206.168 131.796 206.168C131.256 206.168 130.788 206.39 130.392 206.834C130.008 207.266 129.816 207.806 129.816 208.454C129.816 209.09 130.002 209.63 130.374 210.074C130.758 210.506 131.238 210.722 131.814 210.722C132.39 210.722 132.858 210.512 133.218 210.092C133.578 209.66 133.758 209.108 133.758 208.436ZM144.505 205.538C144.997 204.95 145.723 204.656 146.683 204.656C148.315 204.656 149.131 205.658 149.131 207.662V212H147.403V208.238C147.403 206.738 146.941 205.988 146.017 205.988C145.009 205.988 144.505 206.792 144.505 208.4V212H142.759V204.89H144.505V205.538ZM151.931 208.616C151.931 209.3 152.081 209.864 152.381 210.308C152.681 210.752 153.095 210.974 153.623 210.974C154.451 210.974 154.979 210.566 155.207 209.75L156.863 210.02C156.323 211.496 155.243 212.234 153.623 212.234C152.543 212.234 151.679 211.892 151.031 211.208C150.395 210.512 150.077 209.612 150.077 208.508C150.077 207.344 150.383 206.414 150.995 205.718C151.619 205.01 152.459 204.656 153.515 204.656C154.583 204.656 155.411 204.992 155.999 205.664C156.599 206.324 156.899 207.23 156.899 208.382V208.616H151.931ZM155.279 207.644C155.279 207.152 155.123 206.72 154.811 206.348C154.511 205.976 154.115 205.79 153.623 205.79C153.143 205.79 152.747 205.988 152.435 206.384C152.135 206.768 151.985 207.188 151.985 207.644H155.279ZM159.551 204.89V208.742C159.551 210.122 160.031 210.812 160.991 210.812C161.951 210.812 162.431 210.122 162.431 208.742V204.89H164.177V209.066C164.177 211.178 163.115 212.234 160.991 212.234C158.867 212.234 157.805 211.178 157.805 209.066V204.89H159.551ZM167.339 205.628C167.783 204.98 168.479 204.656 169.427 204.656C169.727 204.656 170.003 204.716 170.255 204.836L170.039 206.42C169.775 206.252 169.487 206.168 169.175 206.168C167.951 206.168 167.339 207.044 167.339 208.796V212H165.593V204.89H167.339V205.628ZM177.634 212H175.924V211.352C175.42 211.94 174.67 212.234 173.674 212.234C172.678 212.234 171.88 211.85 171.28 211.082C170.692 210.314 170.398 209.414 170.398 208.382C170.398 207.35 170.698 206.474 171.298 205.754C171.91 205.022 172.69 204.656 173.638 204.656C174.646 204.656 175.408 204.956 175.924 205.556V204.89H177.634V212ZM176.122 208.436C176.122 207.776 175.936 207.236 175.564 206.816C175.192 206.384 174.712 206.168 174.124 206.168C173.548 206.168 173.074 206.378 172.702 206.798C172.342 207.206 172.162 207.752 172.162 208.436C172.162 209.12 172.348 209.672 172.72 210.092C173.092 210.512 173.572 210.722 174.16 210.722C174.748 210.722 175.222 210.518 175.582 210.11C175.942 209.702 176.122 209.144 176.122 208.436ZM180.983 212H179.237V199.706H180.983V212ZM190.314 205.538C190.806 204.95 191.532 204.656 192.492 204.656C194.124 204.656 194.94 205.658 194.94 207.662V212H193.212V208.238C193.212 206.738 192.75 205.988 191.826 205.988C190.818 205.988 190.314 206.792 190.314 208.4V212H188.568V204.89H190.314V205.538ZM197.74 208.616C197.74 209.3 197.89 209.864 198.19 210.308C198.49 210.752 198.904 210.974 199.432 210.974C200.26 210.974 200.788 210.566 201.016 209.75L202.672 210.02C202.132 211.496 201.052 212.234 199.432 212.234C198.352 212.234 197.488 211.892 196.84 211.208C196.204 210.512 195.886 209.612 195.886 208.508C195.886 207.344 196.192 206.414 196.804 205.718C197.428 205.01 198.268 204.656 199.324 204.656C200.392 204.656 201.22 204.992 201.808 205.664C202.408 206.324 202.708 207.23 202.708 208.382V208.616H197.74ZM201.088 207.644C201.088 207.152 200.932 206.72 200.62 206.348C200.32 205.976 199.924 205.79 199.432 205.79C198.952 205.79 198.556 205.988 198.244 206.384C197.944 206.768 197.794 207.188 197.794 207.644H201.088ZM205.792 212H204.046V206.456H203.2V205.034H204.046V202.478H205.792V205.034H207.178V206.456H205.792V212ZM210.322 209.534L212.212 204.656H212.842L214.822 209.516L216.586 204.89H218.512L215.2 212.144H214.318L212.68 207.59L210.808 212.144H209.908L206.65 204.89H208.576L210.322 209.534ZM225.944 208.436C225.944 209.552 225.602 210.464 224.918 211.172C224.234 211.88 223.334 212.234 222.218 212.234C221.114 212.234 220.214 211.88 219.518 211.172C218.822 210.464 218.474 209.558 218.474 208.454C218.474 207.338 218.816 206.426 219.5 205.718C220.184 205.01 221.084 204.656 222.2 204.656C223.316 204.656 224.216 205.01 224.9 205.718C225.596 206.414 225.944 207.32 225.944 208.436ZM220.238 208.472C220.238 209.132 220.424 209.672 220.796 210.092C221.168 210.512 221.648 210.722 222.236 210.722C222.824 210.722 223.292 210.5 223.64 210.056C224 209.6 224.18 209.066 224.18 208.454C224.18 207.83 224 207.296 223.64 206.852C223.28 206.396 222.806 206.168 222.218 206.168C221.642 206.168 221.168 206.384 220.796 206.816C220.424 207.248 220.238 207.8 220.238 208.472ZM228.652 205.628C229.096 204.98 229.792 204.656 230.74 204.656C231.04 204.656 231.316 204.716 231.568 204.836L231.352 206.42C231.088 206.252 230.8 206.168 230.488 206.168C229.264 206.168 228.652 207.044 228.652 208.796V212H226.906V204.89H228.652V205.628ZM234.068 207.878L236.552 204.89H238.892L235.904 208.022L239.126 212H236.75L234.104 208.544L234.068 212H232.322V199.706H234.068V207.878ZM242.489 210.974C242.489 211.334 242.363 211.646 242.111 211.91C241.871 212.162 241.571 212.288 241.211 212.288C240.851 212.288 240.545 212.162 240.293 211.91C240.041 211.658 239.915 211.358 239.915 211.01C239.915 210.65 240.041 210.344 240.293 210.092C240.545 209.84 240.845 209.714 241.193 209.714C241.553 209.714 241.859 209.834 242.111 210.074C242.363 210.314 242.489 210.614 242.489 210.974Z" fill="white"/>
<path d="M222.758 294.434V296H215.414L218.186 292.49C219.506 290.858 220.28 289.838 220.508 289.43C220.748 289.01 220.868 288.668 220.868 288.404C220.88 288.332 220.886 288.26 220.886 288.188C220.886 287.708 220.724 287.282 220.4 286.91C220.088 286.538 219.674 286.352 219.158 286.352C218.642 286.352 218.234 286.562 217.934 286.982C217.646 287.402 217.502 287.912 217.502 288.512H215.558C215.558 287.432 215.876 286.544 216.512 285.848C217.16 285.14 218.036 284.786 219.14 284.786C220.136 284.786 220.976 285.122 221.66 285.794C222.344 286.466 222.686 287.306 222.686 288.314C222.686 289.262 221.96 290.582 220.508 292.274L218.654 294.434H222.758ZM231.467 290.546C231.467 292.13 231.119 293.486 230.423 294.614C229.727 295.73 228.767 296.288 227.543 296.288C226.331 296.288 225.377 295.724 224.681 294.596C223.985 293.468 223.637 292.118 223.637 290.546C223.637 288.914 223.985 287.546 224.681 286.442C225.389 285.338 226.349 284.786 227.561 284.786C228.773 284.786 229.727 285.35 230.423 286.478C231.119 287.594 231.467 288.95 231.467 290.546ZM225.437 290.528C225.437 291.632 225.629 292.61 226.013 293.462C226.397 294.302 226.919 294.722 227.579 294.722C228.239 294.722 228.749 294.326 229.109 293.534C229.481 292.742 229.667 291.74 229.667 290.528C229.667 289.412 229.475 288.44 229.091 287.612C228.707 286.772 228.191 286.352 227.543 286.352C226.907 286.352 226.397 286.79 226.013 287.666C225.629 288.53 225.437 289.484 225.437 290.528ZM239.492 294.434V296H232.148L234.92 292.49C236.24 290.858 237.014 289.838 237.242 289.43C237.482 289.01 237.602 288.668 237.602 288.404C237.614 288.332 237.62 288.26 237.62 288.188C237.62 287.708 237.458 287.282 237.134 286.91C236.822 286.538 236.408 286.352 235.892 286.352C235.376 286.352 234.968 286.562 234.668 286.982C234.38 287.402 234.236 287.912 234.236 288.512H232.292C232.292 287.432 232.61 286.544 233.246 285.848C233.894 285.14 234.77 284.786 235.874 284.786C236.87 284.786 237.71 285.122 238.394 285.794C239.078 286.466 239.42 287.306 239.42 288.314C239.42 289.262 238.694 290.582 237.242 292.274L235.388 294.434H239.492ZM248.202 290.546C248.202 292.13 247.854 293.486 247.158 294.614C246.462 295.73 245.502 296.288 244.278 296.288C243.066 296.288 242.112 295.724 241.416 294.596C240.72 293.468 240.372 292.118 240.372 290.546C240.372 288.914 240.72 287.546 241.416 286.442C242.124 285.338 243.084 284.786 244.296 284.786C245.508 284.786 246.462 285.35 247.158 286.478C247.854 287.594 248.202 288.95 248.202 290.546ZM242.172 290.528C242.172 291.632 242.364 292.61 242.748 293.462C243.132 294.302 243.654 294.722 244.314 294.722C244.974 294.722 245.484 294.326 245.844 293.534C246.216 292.742 246.402 291.74 246.402 290.528C246.402 289.412 246.21 288.44 245.826 287.612C245.442 286.772 244.926 286.352 244.278 286.352C243.642 286.352 243.132 286.79 242.748 287.666C242.364 288.53 242.172 289.484 242.172 290.528Z" fill="white"/>
</svg>
