<svg width="249" height="301" viewBox="0 0 249 301" fill="none" xmlns="http://www.w3.org/2000/svg">
<path d="M2.88 36V10.8H13.968C15.864 10.8 17.604 11.112 19.188 11.736C20.772 12.36 22.152 13.236 23.328 14.364C24.504 15.468 25.404 16.788 26.028 18.324C26.676 19.86 27 21.552 27 23.4C27 25.224 26.676 26.916 26.028 28.476C25.404 30.012 24.504 31.344 23.328 32.472C22.152 33.576 20.772 34.44 19.188 35.064C17.604 35.688 15.864 36 13.968 36H2.88ZM10.656 31.212L9.324 29.376H13.788C14.58 29.376 15.3 29.232 15.948 28.944C16.596 28.632 17.16 28.212 17.64 27.684C18.12 27.156 18.492 26.532 18.756 25.812C19.02 25.068 19.152 24.264 19.152 23.4C19.152 22.536 19.02 21.744 18.756 21.024C18.492 20.28 18.12 19.644 17.64 19.116C17.16 18.588 16.596 18.18 15.948 17.892C15.3 17.58 14.58 17.424 13.788 17.424H9.216L10.656 15.66V31.212ZM40.2854 36.36C38.0534 36.36 36.1334 35.928 34.5254 35.064C32.9174 34.2 31.6814 33.024 30.8174 31.536C29.9534 30.024 29.5214 28.296 29.5214 26.352C29.5214 24.912 29.7614 23.58 30.2414 22.356C30.7214 21.132 31.3934 20.076 32.2574 19.188C33.1454 18.276 34.1774 17.58 35.3534 17.1C36.5534 16.596 37.8614 16.344 39.2774 16.344C40.6934 16.344 41.9774 16.596 43.1294 17.1C44.3054 17.58 45.3134 18.276 46.1534 19.188C46.9934 20.076 47.6294 21.132 48.0614 22.356C48.5174 23.58 48.7214 24.912 48.6734 26.352L48.6374 27.864H33.5534L32.7254 24.444H42.8414L42.1574 25.164V24.516C42.1574 24.06 42.0374 23.664 41.7974 23.328C41.5814 22.968 41.2694 22.692 40.8614 22.5C40.4534 22.308 39.9734 22.212 39.4214 22.212C38.7254 22.212 38.1374 22.356 37.6574 22.644C37.1774 22.932 36.8054 23.34 36.5414 23.868C36.3014 24.396 36.1814 25.032 36.1814 25.776C36.1814 26.64 36.3614 27.396 36.7214 28.044C37.1054 28.692 37.6574 29.196 38.3774 29.556C39.1214 29.916 40.0334 30.096 41.1134 30.096C41.8334 30.096 42.4454 30.012 42.9494 29.844C43.4774 29.652 44.0294 29.352 44.6054 28.944L47.9534 33.66C47.0654 34.356 46.1894 34.896 45.3254 35.28C44.4854 35.664 43.6454 35.94 42.8054 36.108C41.9894 36.276 41.1494 36.36 40.2854 36.36ZM58.6432 36.36C56.5552 36.36 54.7312 36.048 53.1712 35.424C51.6352 34.776 50.4352 33.972 49.5712 33.012L53.8192 29.376C54.5872 30.048 55.4632 30.552 56.4472 30.888C57.4552 31.2 58.2952 31.356 58.9672 31.356C59.2072 31.356 59.4112 31.344 59.5792 31.32C59.7712 31.272 59.9152 31.212 60.0112 31.14C60.1312 31.044 60.2152 30.948 60.2632 30.852C60.3352 30.756 60.3712 30.636 60.3712 30.492C60.3712 30.132 60.1792 29.868 59.7952 29.7C59.5792 29.604 59.2192 29.484 58.7152 29.34C58.2352 29.196 57.5992 29.028 56.8072 28.836C55.8712 28.596 55.0072 28.296 54.2152 27.936C53.4472 27.576 52.7872 27.156 52.2352 26.676C51.6592 26.148 51.2032 25.548 50.8672 24.876C50.5552 24.204 50.3992 23.448 50.3992 22.608C50.3992 21.624 50.6272 20.748 51.0832 19.98C51.5392 19.212 52.1632 18.564 52.9552 18.036C53.7472 17.484 54.6352 17.064 55.6192 16.776C56.6032 16.488 57.6112 16.344 58.6432 16.344C59.8192 16.344 60.9112 16.464 61.9192 16.704C62.9512 16.92 63.9112 17.244 64.7992 17.676C65.7112 18.084 66.5392 18.576 67.2832 19.152L63.5752 23.292C63.1672 22.956 62.6872 22.632 62.1352 22.32C61.6072 22.008 61.0432 21.756 60.4432 21.564C59.8672 21.348 59.3272 21.24 58.8232 21.24C58.5592 21.24 58.3312 21.264 58.1392 21.312C57.9712 21.336 57.8272 21.396 57.7072 21.492C57.5872 21.564 57.4912 21.66 57.4192 21.78C57.3712 21.876 57.3472 21.996 57.3472 22.14C57.3472 22.332 57.4072 22.512 57.5272 22.68C57.6472 22.848 57.8392 22.992 58.1032 23.112C58.3192 23.208 58.6792 23.34 59.1832 23.508C59.7112 23.676 60.4792 23.904 61.4872 24.192C62.5672 24.504 63.5152 24.864 64.3312 25.272C65.1712 25.68 65.8432 26.16 66.3472 26.712C66.6832 27.096 66.9472 27.528 67.1392 28.008C67.3312 28.488 67.4272 29.004 67.4272 29.556C67.4272 30.876 67.0432 32.052 66.2752 33.084C65.5312 34.092 64.4992 34.896 63.1792 35.496C61.8592 36.072 60.3472 36.36 58.6432 36.36ZM70.4093 36V16.74H77.7173V36H70.4093ZM74.0813 13.248C72.7853 13.248 71.7653 12.948 71.0213 12.348C70.3013 11.748 69.9413 10.896 69.9413 9.792C69.9413 8.784 70.3133 7.956 71.0573 7.308C71.8013 6.66 72.8093 6.336 74.0813 6.336C75.3773 6.336 76.3853 6.636 77.1053 7.236C77.8493 7.836 78.2213 8.688 78.2213 9.792C78.2213 10.8 77.8493 11.628 77.1053 12.276C76.3613 12.924 75.3533 13.248 74.0813 13.248ZM91.8512 44.28C90.1232 44.28 88.4072 44.04 86.7032 43.56C85.0232 43.08 83.6432 42.456 82.5632 41.688L85.0472 36.792C85.5752 37.128 86.1272 37.416 86.7032 37.656C87.2792 37.896 87.8792 38.076 88.5032 38.196C89.1512 38.316 89.8352 38.376 90.5552 38.376C91.6832 38.376 92.5952 38.22 93.2912 37.908C93.9872 37.62 94.4912 37.152 94.8032 36.504C95.1392 35.856 95.3072 35.028 95.3072 34.02V31.14L96.9272 31.284C96.7352 32.1 96.3152 32.82 95.6672 33.444C95.0192 34.068 94.2152 34.56 93.2552 34.92C92.2952 35.28 91.2752 35.46 90.1952 35.46C88.4912 35.46 86.9792 35.076 85.6592 34.308C84.3632 33.54 83.3312 32.472 82.5632 31.104C81.8192 29.712 81.4472 28.08 81.4472 26.208C81.4472 24.264 81.8192 22.56 82.5632 21.096C83.3072 19.608 84.3152 18.444 85.5872 17.604C86.8832 16.764 88.3592 16.344 90.0152 16.344C90.7352 16.344 91.4192 16.416 92.0672 16.56C92.7152 16.704 93.3152 16.908 93.8672 17.172C94.4192 17.412 94.9112 17.712 95.3432 18.072C95.7752 18.432 96.1232 18.828 96.3872 19.26C96.6752 19.692 96.8672 20.16 96.9632 20.664L95.4872 20.988L95.8832 16.74H102.651V34.128C102.651 35.736 102.399 37.164 101.895 38.412C101.415 39.684 100.707 40.752 99.7712 41.616C98.8352 42.504 97.6952 43.164 96.3512 43.596C95.0312 44.052 93.5312 44.28 91.8512 44.28ZM92.0312 30.24C92.7752 30.24 93.3992 30.084 93.9032 29.772C94.4312 29.46 94.8272 29.016 95.0912 28.44C95.3552 27.84 95.4872 27.12 95.4872 26.28C95.4872 25.44 95.3552 24.72 95.0912 24.12C94.8272 23.52 94.4312 23.064 93.9032 22.752C93.3992 22.44 92.7752 22.284 92.0312 22.284C91.2872 22.284 90.6632 22.44 90.1592 22.752C89.6552 23.064 89.2712 23.52 89.0072 24.12C88.7432 24.72 88.6112 25.44 88.6112 26.28C88.6112 27.12 88.7432 27.84 89.0072 28.44C89.2712 29.016 89.6552 29.46 90.1592 29.772C90.6632 30.084 91.2872 30.24 92.0312 30.24ZM107.497 36V16.74H114.265L114.625 20.628L113.077 21.06C113.341 20.148 113.809 19.344 114.481 18.648C115.177 17.928 116.005 17.364 116.965 16.956C117.925 16.548 118.945 16.344 120.025 16.344C121.465 16.344 122.689 16.644 123.697 17.244C124.705 17.844 125.461 18.732 125.965 19.908C126.493 21.06 126.757 22.464 126.757 24.12V36H119.449V24.732C119.449 24.204 119.365 23.76 119.197 23.4C119.029 23.04 118.777 22.764 118.441 22.572C118.105 22.38 117.709 22.284 117.253 22.284C116.893 22.284 116.557 22.344 116.245 22.464C115.957 22.56 115.705 22.716 115.489 22.932C115.273 23.148 115.105 23.388 114.985 23.652C114.865 23.916 114.805 24.216 114.805 24.552V36H111.169C110.257 36 109.489 36 108.865 36C108.265 36 107.809 36 107.497 36ZM133.922 36.396C132.794 36.396 131.918 36.084 131.294 35.46C130.67 34.836 130.358 33.948 130.358 32.796C130.358 31.74 130.682 30.876 131.33 30.204C132.002 29.532 132.866 29.196 133.922 29.196C135.05 29.196 135.926 29.508 136.55 30.132C137.174 30.756 137.486 31.644 137.486 32.796C137.486 33.852 137.15 34.716 136.478 35.388C135.83 36.06 134.978 36.396 133.922 36.396Z" fill="#AAAAAA"/>
<path d="M2.88 152V126.8H13.968C15.864 126.8 17.604 127.112 19.188 127.736C20.772 128.36 22.152 129.236 23.328 130.364C24.504 131.468 25.404 132.788 26.028 134.324C26.676 135.86 27 137.552 27 139.4C27 141.224 26.676 142.916 26.028 144.476C25.404 146.012 24.504 147.344 23.328 148.472C22.152 149.576 20.772 150.44 19.188 151.064C17.604 151.688 15.864 152 13.968 152H2.88ZM10.656 147.212L9.324 145.376H13.788C14.58 145.376 15.3 145.232 15.948 144.944C16.596 144.632 17.16 144.212 17.64 143.684C18.12 143.156 18.492 142.532 18.756 141.812C19.02 141.068 19.152 140.264 19.152 139.4C19.152 138.536 19.02 137.744 18.756 137.024C18.492 136.28 18.12 135.644 17.64 135.116C17.16 134.588 16.596 134.18 15.948 133.892C15.3 133.58 14.58 133.424 13.788 133.424H9.216L10.656 131.66V147.212ZM40.2854 152.36C38.0534 152.36 36.1334 151.928 34.5254 151.064C32.9174 150.2 31.6814 149.024 30.8174 147.536C29.9534 146.024 29.5214 144.296 29.5214 142.352C29.5214 140.912 29.7614 139.58 30.2414 138.356C30.7214 137.132 31.3934 136.076 32.2574 135.188C33.1454 134.276 34.1774 133.58 35.3534 133.1C36.5534 132.596 37.8614 132.344 39.2774 132.344C40.6934 132.344 41.9774 132.596 43.1294 133.1C44.3054 133.58 45.3134 134.276 46.1534 135.188C46.9934 136.076 47.6294 137.132 48.0614 138.356C48.5174 139.58 48.7214 140.912 48.6734 142.352L48.6374 143.864H33.5534L32.7254 140.444H42.8414L42.1574 141.164V140.516C42.1574 140.06 42.0374 139.664 41.7974 139.328C41.5814 138.968 41.2694 138.692 40.8614 138.5C40.4534 138.308 39.9734 138.212 39.4214 138.212C38.7254 138.212 38.1374 138.356 37.6574 138.644C37.1774 138.932 36.8054 139.34 36.5414 139.868C36.3014 140.396 36.1814 141.032 36.1814 141.776C36.1814 142.64 36.3614 143.396 36.7214 144.044C37.1054 144.692 37.6574 145.196 38.3774 145.556C39.1214 145.916 40.0334 146.096 41.1134 146.096C41.8334 146.096 42.4454 146.012 42.9494 145.844C43.4774 145.652 44.0294 145.352 44.6054 144.944L47.9534 149.66C47.0654 150.356 46.1894 150.896 45.3254 151.28C44.4854 151.664 43.6454 151.94 42.8054 152.108C41.9894 152.276 41.1494 152.36 40.2854 152.36ZM57.3556 152L49.3636 132.74H57.4996L61.4956 147.104H59.5516L63.5116 132.74H71.6476L63.2596 152H57.3556ZM83.1409 152.36C80.9089 152.36 78.9889 151.928 77.3809 151.064C75.7729 150.2 74.5369 149.024 73.6729 147.536C72.8089 146.024 72.3769 144.296 72.3769 142.352C72.3769 140.912 72.6169 139.58 73.0969 138.356C73.5769 137.132 74.2489 136.076 75.1129 135.188C76.0009 134.276 77.0329 133.58 78.2089 133.1C79.4089 132.596 80.7169 132.344 82.1329 132.344C83.5489 132.344 84.8329 132.596 85.9849 133.1C87.1609 133.58 88.1689 134.276 89.0089 135.188C89.8489 136.076 90.4849 137.132 90.9169 138.356C91.3729 139.58 91.5769 140.912 91.5289 142.352L91.4929 143.864H76.4089L75.5809 140.444H85.6969L85.0129 141.164V140.516C85.0129 140.06 84.8929 139.664 84.6529 139.328C84.4369 138.968 84.1249 138.692 83.7169 138.5C83.3089 138.308 82.8289 138.212 82.2769 138.212C81.5809 138.212 80.9929 138.356 80.5129 138.644C80.0329 138.932 79.6609 139.34 79.3969 139.868C79.1569 140.396 79.0369 141.032 79.0369 141.776C79.0369 142.64 79.2169 143.396 79.5769 144.044C79.9609 144.692 80.5129 145.196 81.2329 145.556C81.9769 145.916 82.8889 146.096 83.9689 146.096C84.6889 146.096 85.3009 146.012 85.8049 145.844C86.3329 145.652 86.8849 145.352 87.4609 144.944L90.8089 149.66C89.9209 150.356 89.0449 150.896 88.1809 151.28C87.3409 151.664 86.5009 151.94 85.6609 152.108C84.8449 152.276 84.0049 152.36 83.1409 152.36ZM94.9106 152V125.36H102.219V152H94.9106ZM116.295 152.36C114.207 152.36 112.347 151.928 110.715 151.064C109.083 150.2 107.799 149.024 106.863 147.536C105.927 146.024 105.459 144.296 105.459 142.352C105.459 140.408 105.927 138.692 106.863 137.204C107.799 135.692 109.083 134.504 110.715 133.64C112.347 132.776 114.207 132.344 116.295 132.344C118.383 132.344 120.231 132.776 121.839 133.64C123.471 134.504 124.743 135.692 125.655 137.204C126.591 138.692 127.059 140.408 127.059 142.352C127.059 144.296 126.591 146.024 125.655 147.536C124.743 149.024 123.471 150.2 121.839 151.064C120.231 151.928 118.383 152.36 116.295 152.36ZM116.295 146.24C116.943 146.24 117.519 146.072 118.023 145.736C118.551 145.4 118.959 144.944 119.247 144.368C119.535 143.768 119.679 143.096 119.679 142.352C119.679 141.584 119.535 140.912 119.247 140.336C118.959 139.736 118.551 139.268 118.023 138.932C117.519 138.596 116.943 138.428 116.295 138.428C115.623 138.428 115.023 138.596 114.495 138.932C113.991 139.268 113.583 139.736 113.271 140.336C112.983 140.912 112.839 141.584 112.839 142.352C112.839 143.096 112.983 143.768 113.271 144.368C113.583 144.944 113.991 145.4 114.495 145.736C115.023 146.072 115.623 146.24 116.295 146.24ZM130.665 159.92V132.74H137.433L137.829 136.988L136.353 136.664C136.521 135.824 136.929 135.08 137.577 134.432C138.225 133.784 139.041 133.28 140.025 132.92C141.033 132.536 142.125 132.344 143.301 132.344C144.885 132.344 146.289 132.776 147.513 133.64C148.761 134.48 149.733 135.656 150.429 137.168C151.149 138.656 151.509 140.384 151.509 142.352C151.509 144.296 151.149 146.024 150.429 147.536C149.709 149.024 148.713 150.2 147.441 151.064C146.193 151.904 144.753 152.324 143.121 152.324C142.041 152.324 141.021 152.132 140.061 151.748C139.125 151.364 138.333 150.836 137.685 150.164C137.037 149.468 136.605 148.676 136.389 147.788L138.009 147.284V159.92H130.665ZM141.105 146.384C141.801 146.384 142.389 146.228 142.869 145.916C143.349 145.604 143.709 145.148 143.949 144.548C144.213 143.948 144.345 143.216 144.345 142.352C144.345 141.488 144.213 140.756 143.949 140.156C143.709 139.532 143.349 139.064 142.869 138.752C142.389 138.44 141.801 138.284 141.105 138.284C140.409 138.284 139.809 138.44 139.305 138.752C138.825 139.064 138.453 139.532 138.189 140.156C137.949 140.756 137.829 141.488 137.829 142.352C137.829 143.216 137.949 143.948 138.189 144.548C138.453 145.148 138.825 145.604 139.305 145.916C139.809 146.228 140.409 146.384 141.105 146.384ZM157.582 152.396C156.454 152.396 155.578 152.084 154.954 151.46C154.33 150.836 154.018 149.948 154.018 148.796C154.018 147.74 154.342 146.876 154.99 146.204C155.662 145.532 156.526 145.196 157.582 145.196C158.71 145.196 159.586 145.508 160.21 146.132C160.834 146.756 161.146 147.644 161.146 148.796C161.146 149.852 160.81 150.716 160.138 151.388C159.49 152.06 158.638 152.396 157.582 152.396Z" fill="#808080"/>
<path d="M2.88 268V242.8H13.968C15.864 242.8 17.604 243.112 19.188 243.736C20.772 244.36 22.152 245.236 23.328 246.364C24.504 247.468 25.404 248.788 26.028 250.324C26.676 251.86 27 253.552 27 255.4C27 257.224 26.676 258.916 26.028 260.476C25.404 262.012 24.504 263.344 23.328 264.472C22.152 265.576 20.772 266.44 19.188 267.064C17.604 267.688 15.864 268 13.968 268H2.88ZM10.656 263.212L9.324 261.376H13.788C14.58 261.376 15.3 261.232 15.948 260.944C16.596 260.632 17.16 260.212 17.64 259.684C18.12 259.156 18.492 258.532 18.756 257.812C19.02 257.068 19.152 256.264 19.152 255.4C19.152 254.536 19.02 253.744 18.756 253.024C18.492 252.28 18.12 251.644 17.64 251.116C17.16 250.588 16.596 250.18 15.948 249.892C15.3 249.58 14.58 249.424 13.788 249.424H9.216L10.656 247.66V263.212ZM40.2854 268.36C38.0534 268.36 36.1334 267.928 34.5254 267.064C32.9174 266.2 31.6814 265.024 30.8174 263.536C29.9534 262.024 29.5214 260.296 29.5214 258.352C29.5214 256.912 29.7614 255.58 30.2414 254.356C30.7214 253.132 31.3934 252.076 32.2574 251.188C33.1454 250.276 34.1774 249.58 35.3534 249.1C36.5534 248.596 37.8614 248.344 39.2774 248.344C40.6934 248.344 41.9774 248.596 43.1294 249.1C44.3054 249.58 45.3134 250.276 46.1534 251.188C46.9934 252.076 47.6294 253.132 48.0614 254.356C48.5174 255.58 48.7214 256.912 48.6734 258.352L48.6374 259.864H33.5534L32.7254 256.444H42.8414L42.1574 257.164V256.516C42.1574 256.06 42.0374 255.664 41.7974 255.328C41.5814 254.968 41.2694 254.692 40.8614 254.5C40.4534 254.308 39.9734 254.212 39.4214 254.212C38.7254 254.212 38.1374 254.356 37.6574 254.644C37.1774 254.932 36.8054 255.34 36.5414 255.868C36.3014 256.396 36.1814 257.032 36.1814 257.776C36.1814 258.64 36.3614 259.396 36.7214 260.044C37.1054 260.692 37.6574 261.196 38.3774 261.556C39.1214 261.916 40.0334 262.096 41.1134 262.096C41.8334 262.096 42.4454 262.012 42.9494 261.844C43.4774 261.652 44.0294 261.352 44.6054 260.944L47.9534 265.66C47.0654 266.356 46.1894 266.896 45.3254 267.28C44.4854 267.664 43.6454 267.94 42.8054 268.108C41.9894 268.276 41.1494 268.36 40.2854 268.36ZM52.0552 275.92V248.74H58.8232L59.2192 252.988L57.7432 252.664C57.9112 251.824 58.3192 251.08 58.9672 250.432C59.6152 249.784 60.4312 249.28 61.4152 248.92C62.4232 248.536 63.5152 248.344 64.6912 248.344C66.2752 248.344 67.6792 248.776 68.9032 249.64C70.1512 250.48 71.1232 251.656 71.8192 253.168C72.5392 254.656 72.8992 256.384 72.8992 258.352C72.8992 260.296 72.5392 262.024 71.8192 263.536C71.0992 265.024 70.1032 266.2 68.8312 267.064C67.5832 267.904 66.1432 268.324 64.5112 268.324C63.4312 268.324 62.4112 268.132 61.4512 267.748C60.5152 267.364 59.7232 266.836 59.0752 266.164C58.4272 265.468 57.9952 264.676 57.7792 263.788L59.3992 263.284V275.92H52.0552ZM62.4952 262.384C63.1912 262.384 63.7792 262.228 64.2592 261.916C64.7392 261.604 65.0992 261.148 65.3392 260.548C65.6032 259.948 65.7352 259.216 65.7352 258.352C65.7352 257.488 65.6032 256.756 65.3392 256.156C65.0992 255.532 64.7392 255.064 64.2592 254.752C63.7792 254.44 63.1912 254.284 62.4952 254.284C61.7992 254.284 61.1992 254.44 60.6952 254.752C60.2152 255.064 59.8432 255.532 59.5792 256.156C59.3392 256.756 59.2192 257.488 59.2192 258.352C59.2192 259.216 59.3392 259.948 59.5792 260.548C59.8432 261.148 60.2152 261.604 60.6952 261.916C61.1992 262.228 61.7992 262.384 62.4952 262.384ZM76.4888 268V241.36H83.7968V268H76.4888ZM97.873 268.36C95.785 268.36 93.925 267.928 92.293 267.064C90.661 266.2 89.377 265.024 88.441 263.536C87.505 262.024 87.037 260.296 87.037 258.352C87.037 256.408 87.505 254.692 88.441 253.204C89.377 251.692 90.661 250.504 92.293 249.64C93.925 248.776 95.785 248.344 97.873 248.344C99.961 248.344 101.809 248.776 103.417 249.64C105.049 250.504 106.321 251.692 107.233 253.204C108.169 254.692 108.637 256.408 108.637 258.352C108.637 260.296 108.169 262.024 107.233 263.536C106.321 265.024 105.049 266.2 103.417 267.064C101.809 267.928 99.961 268.36 97.873 268.36ZM97.873 262.24C98.521 262.24 99.097 262.072 99.601 261.736C100.129 261.4 100.537 260.944 100.825 260.368C101.113 259.768 101.257 259.096 101.257 258.352C101.257 257.584 101.113 256.912 100.825 256.336C100.537 255.736 100.129 255.268 99.601 254.932C99.097 254.596 98.521 254.428 97.873 254.428C97.201 254.428 96.601 254.596 96.073 254.932C95.569 255.268 95.161 255.736 94.849 256.336C94.561 256.912 94.417 257.584 94.417 258.352C94.417 259.096 94.561 259.768 94.849 260.368C95.161 260.944 95.569 261.4 96.073 261.736C96.601 262.072 97.201 262.24 97.873 262.24ZM113.376 276.28L118.164 264.976L118.236 267.928L109.2 248.74H117.336L120 255.148C120.288 255.82 120.528 256.456 120.72 257.056C120.936 257.656 121.092 258.22 121.188 258.748L120.468 259.396C120.564 259.132 120.708 258.724 120.9 258.172C121.092 257.596 121.308 256.936 121.548 256.192L124.068 248.74H132.204L123.816 268L120.432 276.28H113.376ZM135.961 268.396C134.833 268.396 133.957 268.084 133.333 267.46C132.709 266.836 132.397 265.948 132.397 264.796C132.397 263.74 132.721 262.876 133.369 262.204C134.041 261.532 134.905 261.196 135.961 261.196C137.089 261.196 137.965 261.508 138.589 262.132C139.213 262.756 139.525 263.644 139.525 264.796C139.525 265.852 139.189 266.716 138.517 267.388C137.869 268.06 137.017 268.396 135.961 268.396Z" fill="#3A3A3A"/>
</svg>
