<svg width="124" height="574" viewBox="0 0 124 574" fill="none" xmlns="http://www.w3.org/2000/svg">
<path d="M14.94 124V117H17.98C18.4 117 18.7833 117.1 19.13 117.3C19.4767 117.493 19.75 117.76 19.95 118.1C20.1567 118.433 20.26 118.81 20.26 119.23C20.26 119.63 20.1567 120 19.95 120.34C19.75 120.673 19.4767 120.94 19.13 121.14C18.79 121.333 18.4067 121.43 17.98 121.43H16.21V124H14.94ZM19 124L17.22 120.84L18.56 120.59L20.54 124.01L19 124ZM16.21 120.3H17.99C18.1833 120.3 18.35 120.257 18.49 120.17C18.6367 120.077 18.75 119.95 18.83 119.79C18.91 119.63 18.95 119.453 18.95 119.26C18.95 119.04 18.9 118.85 18.8 118.69C18.7 118.53 18.56 118.403 18.38 118.31C18.2 118.217 17.9933 118.17 17.76 118.17H16.21V120.3ZM21.9127 124V117H26.4927V118.18H23.1927V122.82H26.5327V124H21.9127ZM22.5127 121V119.84H25.9827V121H22.5127ZM30.3827 124.1C29.976 124.1 29.6027 124.05 29.2627 123.95C28.9227 123.843 28.616 123.687 28.3427 123.48C28.0693 123.273 27.826 123.023 27.6127 122.73L28.4627 121.77C28.7893 122.223 29.1093 122.537 29.4227 122.71C29.736 122.883 30.0893 122.97 30.4827 122.97C30.7093 122.97 30.916 122.937 31.1027 122.87C31.2893 122.797 31.436 122.7 31.5427 122.58C31.6493 122.453 31.7027 122.31 31.7027 122.15C31.7027 122.037 31.6793 121.933 31.6327 121.84C31.5927 121.74 31.5293 121.653 31.4427 121.58C31.356 121.5 31.2493 121.427 31.1227 121.36C30.996 121.293 30.8527 121.237 30.6927 121.19C30.5327 121.143 30.356 121.1 30.1627 121.06C29.796 120.987 29.476 120.89 29.2027 120.77C28.9293 120.643 28.6993 120.49 28.5127 120.31C28.326 120.123 28.1893 119.917 28.1027 119.69C28.016 119.457 27.9727 119.193 27.9727 118.9C27.9727 118.607 28.036 118.337 28.1627 118.09C28.296 117.843 28.476 117.63 28.7027 117.45C28.9293 117.27 29.1927 117.13 29.4927 117.03C29.7927 116.93 30.116 116.88 30.4627 116.88C30.856 116.88 31.206 116.927 31.5127 117.02C31.826 117.113 32.0993 117.253 32.3327 117.44C32.5727 117.62 32.7693 117.84 32.9227 118.1L32.0627 118.95C31.9293 118.743 31.7793 118.573 31.6127 118.44C31.446 118.3 31.266 118.197 31.0727 118.13C30.8793 118.057 30.676 118.02 30.4627 118.02C30.2227 118.02 30.0127 118.053 29.8327 118.12C29.6593 118.187 29.5227 118.283 29.4227 118.41C29.3227 118.53 29.2727 118.677 29.2727 118.85C29.2727 118.983 29.3027 119.103 29.3627 119.21C29.4227 119.31 29.506 119.4 29.6127 119.48C29.726 119.56 29.8693 119.63 30.0427 119.69C30.216 119.75 30.4127 119.803 30.6327 119.85C30.9993 119.923 31.3293 120.023 31.6227 120.15C31.916 120.27 32.166 120.417 32.3727 120.59C32.5793 120.757 32.736 120.95 32.8427 121.17C32.9493 121.383 33.0027 121.623 33.0027 121.89C33.0027 122.35 32.8927 122.747 32.6727 123.08C32.4593 123.407 32.156 123.66 31.7627 123.84C31.3693 124.013 30.9093 124.1 30.3827 124.1ZM34.4322 124V117H39.0122V118.18H35.7122V122.82H39.0522V124H34.4322ZM35.0322 121V119.84H38.5022V121H35.0322ZM39.9022 124L42.6322 117H43.8522L46.5622 124H45.2122L43.7122 120.02C43.6789 119.94 43.6322 119.813 43.5722 119.64C43.5189 119.467 43.4589 119.28 43.3922 119.08C43.3255 118.873 43.2655 118.683 43.2122 118.51C43.1589 118.33 43.1189 118.2 43.0922 118.12L43.3422 118.11C43.3022 118.243 43.2555 118.393 43.2022 118.56C43.1489 118.727 43.0922 118.9 43.0322 119.08C42.9722 119.26 42.9122 119.433 42.8522 119.6C42.7989 119.767 42.7489 119.917 42.7022 120.05L41.2022 124H39.9022ZM41.1422 122.4L41.5922 121.27H44.7822L45.2622 122.4H41.1422ZM47.6646 124V117H50.7046C51.1246 117 51.5079 117.1 51.8546 117.3C52.2013 117.493 52.4746 117.76 52.6746 118.1C52.8813 118.433 52.9846 118.81 52.9846 119.23C52.9846 119.63 52.8813 120 52.6746 120.34C52.4746 120.673 52.2013 120.94 51.8546 121.14C51.5146 121.333 51.1313 121.43 50.7046 121.43H48.9346V124H47.6646ZM51.7246 124L49.9446 120.84L51.2846 120.59L53.2646 124.01L51.7246 124ZM48.9346 120.3H50.7146C50.9079 120.3 51.0746 120.257 51.2146 120.17C51.3613 120.077 51.4746 119.95 51.5546 119.79C51.6346 119.63 51.6746 119.453 51.6746 119.26C51.6746 119.04 51.6246 118.85 51.5246 118.69C51.4246 118.53 51.2846 118.403 51.1046 118.31C50.9246 118.217 50.7179 118.17 50.4846 118.17H48.9346V120.3ZM57.5096 124.1C57.0029 124.1 56.5396 124.013 56.1196 123.84C55.6996 123.667 55.3363 123.42 55.0296 123.1C54.7229 122.773 54.4829 122.39 54.3096 121.95C54.1429 121.503 54.0596 121.017 54.0596 120.49C54.0596 119.983 54.1496 119.513 54.3296 119.08C54.5096 118.647 54.7596 118.267 55.0796 117.94C55.3996 117.613 55.7729 117.36 56.1996 117.18C56.6263 117 57.0896 116.91 57.5896 116.91C57.9296 116.91 58.2596 116.96 58.5796 117.06C58.8996 117.16 59.1929 117.3 59.4596 117.48C59.7263 117.653 59.9496 117.857 60.1296 118.09L59.2996 119C59.1263 118.82 58.9463 118.67 58.7596 118.55C58.5796 118.423 58.3896 118.33 58.1896 118.27C57.9963 118.203 57.7963 118.17 57.5896 118.17C57.2829 118.17 56.9929 118.227 56.7196 118.34C56.4529 118.453 56.2196 118.613 56.0196 118.82C55.8263 119.027 55.6729 119.273 55.5596 119.56C55.4463 119.84 55.3896 120.153 55.3896 120.5C55.3896 120.853 55.4429 121.173 55.5496 121.46C55.6629 121.747 55.8196 121.993 56.0196 122.2C56.2263 122.407 56.4696 122.567 56.7496 122.68C57.0363 122.787 57.3496 122.84 57.6896 122.84C57.9096 122.84 58.1229 122.81 58.3296 122.75C58.5363 122.69 58.7263 122.607 58.8996 122.5C59.0796 122.387 59.2429 122.257 59.3896 122.11L60.0296 123.14C59.8696 123.32 59.6563 123.483 59.3896 123.63C59.1229 123.777 58.8229 123.893 58.4896 123.98C58.1629 124.06 57.8363 124.1 57.5096 124.1ZM65.8655 124V117H67.1655V124H65.8655ZM61.3755 124V117H62.6755V124H61.3755ZM61.9155 121.12V119.9H66.4955V121.12H61.9155ZM14.94 137V130H16.24V135.8H19.47V137H14.94ZM20.1756 137L22.9056 130H24.1256L26.8356 137H25.4856L23.9856 133.02C23.9523 132.94 23.9056 132.813 23.8456 132.64C23.7923 132.467 23.7323 132.28 23.6656 132.08C23.599 131.873 23.539 131.683 23.4856 131.51C23.4323 131.33 23.3923 131.2 23.3656 131.12L23.6156 131.11C23.5756 131.243 23.529 131.393 23.4756 131.56C23.4223 131.727 23.3656 131.9 23.3056 132.08C23.2456 132.26 23.1856 132.433 23.1256 132.6C23.0723 132.767 23.0223 132.917 22.9756 133.05L21.4756 137H20.1756ZM21.4156 135.4L21.8656 134.27H25.0556L25.5356 135.4H21.4156ZM27.938 137V130H29.108L33.168 135.47L32.948 135.51C32.9214 135.323 32.898 135.133 32.878 134.94C32.858 134.74 32.838 134.533 32.818 134.32C32.8047 134.107 32.7914 133.883 32.778 133.65C32.7714 133.417 32.7647 133.173 32.758 132.92C32.7514 132.66 32.748 132.387 32.748 132.1V130H34.038V137H32.848L28.768 131.61L29.028 131.54C29.0614 131.913 29.088 132.233 29.108 132.5C29.1347 132.76 29.1547 132.987 29.168 133.18C29.1814 133.367 29.1914 133.523 29.198 133.65C29.2114 133.777 29.218 133.893 29.218 134C29.2247 134.1 29.228 134.197 29.228 134.29V137H27.938ZM35.9166 137V130H38.7266C39.2332 130 39.6899 130.083 40.0966 130.25C40.5099 130.417 40.8632 130.657 41.1566 130.97C41.4566 131.283 41.6832 131.653 41.8366 132.08C41.9966 132.507 42.0766 132.98 42.0766 133.5C42.0766 134.02 41.9966 134.497 41.8366 134.93C41.6832 135.357 41.4599 135.727 41.1666 136.04C40.8732 136.347 40.5199 136.583 40.1066 136.75C39.6932 136.917 39.2332 137 38.7266 137H35.9166ZM37.2166 135.99L37.1166 135.8H38.6766C39.0032 135.8 39.2932 135.747 39.5466 135.64C39.8066 135.533 40.0266 135.38 40.2066 135.18C40.3866 134.98 40.5232 134.74 40.6166 134.46C40.7099 134.173 40.7566 133.853 40.7566 133.5C40.7566 133.147 40.7099 132.83 40.6166 132.55C40.5232 132.263 40.3832 132.02 40.1966 131.82C40.0166 131.62 39.7999 131.467 39.5466 131.36C39.2932 131.253 39.0032 131.2 38.6766 131.2H37.0866L37.2166 131.03V135.99ZM45.7049 137.1C45.2983 137.1 44.9249 137.05 44.5849 136.95C44.2449 136.843 43.9383 136.687 43.6649 136.48C43.3916 136.273 43.1483 136.023 42.9349 135.73L43.7849 134.77C44.1116 135.223 44.4316 135.537 44.7449 135.71C45.0583 135.883 45.4116 135.97 45.8049 135.97C46.0316 135.97 46.2383 135.937 46.4249 135.87C46.6116 135.797 46.7583 135.7 46.8649 135.58C46.9716 135.453 47.0249 135.31 47.0249 135.15C47.0249 135.037 47.0016 134.933 46.9549 134.84C46.9149 134.74 46.8516 134.653 46.7649 134.58C46.6783 134.5 46.5716 134.427 46.4449 134.36C46.3183 134.293 46.1749 134.237 46.0149 134.19C45.8549 134.143 45.6783 134.1 45.4849 134.06C45.1183 133.987 44.7983 133.89 44.5249 133.77C44.2516 133.643 44.0216 133.49 43.8349 133.31C43.6483 133.123 43.5116 132.917 43.4249 132.69C43.3383 132.457 43.2949 132.193 43.2949 131.9C43.2949 131.607 43.3583 131.337 43.4849 131.09C43.6183 130.843 43.7983 130.63 44.0249 130.45C44.2516 130.27 44.5149 130.13 44.8149 130.03C45.1149 129.93 45.4383 129.88 45.7849 129.88C46.1783 129.88 46.5283 129.927 46.8349 130.02C47.1483 130.113 47.4216 130.253 47.6549 130.44C47.8949 130.62 48.0916 130.84 48.2449 131.1L47.3849 131.95C47.2516 131.743 47.1016 131.573 46.9349 131.44C46.7683 131.3 46.5883 131.197 46.3949 131.13C46.2016 131.057 45.9983 131.02 45.7849 131.02C45.5449 131.02 45.3349 131.053 45.1549 131.12C44.9816 131.187 44.8449 131.283 44.7449 131.41C44.6449 131.53 44.5949 131.677 44.5949 131.85C44.5949 131.983 44.6249 132.103 44.6849 132.21C44.7449 132.31 44.8283 132.4 44.9349 132.48C45.0483 132.56 45.1916 132.63 45.3649 132.69C45.5383 132.75 45.7349 132.803 45.9549 132.85C46.3216 132.923 46.6516 133.023 46.9449 133.15C47.2383 133.27 47.4883 133.417 47.6949 133.59C47.9016 133.757 48.0583 133.95 48.1649 134.17C48.2716 134.383 48.3249 134.623 48.3249 134.89C48.3249 135.35 48.2149 135.747 47.9949 136.08C47.7816 136.407 47.4783 136.66 47.0849 136.84C46.6916 137.013 46.2316 137.1 45.7049 137.1ZM52.7245 137.1C52.2178 137.1 51.7545 137.013 51.3345 136.84C50.9145 136.667 50.5511 136.42 50.2445 136.1C49.9378 135.773 49.6978 135.39 49.5245 134.95C49.3578 134.503 49.2745 134.017 49.2745 133.49C49.2745 132.983 49.3645 132.513 49.5445 132.08C49.7245 131.647 49.9745 131.267 50.2945 130.94C50.6145 130.613 50.9878 130.36 51.4145 130.18C51.8411 130 52.3045 129.91 52.8045 129.91C53.1445 129.91 53.4745 129.96 53.7945 130.06C54.1145 130.16 54.4078 130.3 54.6745 130.48C54.9411 130.653 55.1645 130.857 55.3445 131.09L54.5145 132C54.3411 131.82 54.1611 131.67 53.9745 131.55C53.7945 131.423 53.6045 131.33 53.4045 131.27C53.2111 131.203 53.0111 131.17 52.8045 131.17C52.4978 131.17 52.2078 131.227 51.9345 131.34C51.6678 131.453 51.4345 131.613 51.2345 131.82C51.0411 132.027 50.8878 132.273 50.7745 132.56C50.6611 132.84 50.6045 133.153 50.6045 133.5C50.6045 133.853 50.6578 134.173 50.7645 134.46C50.8778 134.747 51.0345 134.993 51.2345 135.2C51.4411 135.407 51.6845 135.567 51.9645 135.68C52.2511 135.787 52.5645 135.84 52.9045 135.84C53.1245 135.84 53.3378 135.81 53.5445 135.75C53.7511 135.69 53.9411 135.607 54.1145 135.5C54.2945 135.387 54.4578 135.257 54.6045 135.11L55.2445 136.14C55.0845 136.32 54.8711 136.483 54.6045 136.63C54.3378 136.777 54.0378 136.893 53.7045 136.98C53.3778 137.06 53.0511 137.1 52.7245 137.1ZM55.8104 137L58.5404 130H59.7604L62.4704 137H61.1204L59.6204 133.02C59.5871 132.94 59.5404 132.813 59.4804 132.64C59.4271 132.467 59.3671 132.28 59.3004 132.08C59.2337 131.873 59.1737 131.683 59.1204 131.51C59.0671 131.33 59.0271 131.2 59.0004 131.12L59.2504 131.11C59.2104 131.243 59.1637 131.393 59.1104 131.56C59.0571 131.727 59.0004 131.9 58.9404 132.08C58.8804 132.26 58.8204 132.433 58.7604 132.6C58.7071 132.767 58.6571 132.917 58.6104 133.05L57.1104 137H55.8104ZM57.0504 135.4L57.5004 134.27H60.6904L61.1704 135.4H57.0504ZM63.5728 137V130H66.4828C66.8828 130 67.2428 130.097 67.5628 130.29C67.8895 130.483 68.1495 130.747 68.3428 131.08C68.5361 131.413 68.6328 131.787 68.6328 132.2C68.6328 132.62 68.5361 133 68.3428 133.34C68.1495 133.673 67.8895 133.94 67.5628 134.14C67.2428 134.34 66.8828 134.44 66.4828 134.44H64.8728V137H63.5728ZM64.8728 133.24H66.3928C66.5595 133.24 66.7095 133.193 66.8428 133.1C66.9828 133.007 67.0928 132.883 67.1728 132.73C67.2595 132.577 67.3028 132.403 67.3028 132.21C67.3028 132.017 67.2595 131.847 67.1728 131.7C67.0928 131.547 66.9828 131.427 66.8428 131.34C66.7095 131.247 66.5595 131.2 66.3928 131.2H64.8728V133.24ZM70.0084 137V130H74.5884V131.18H71.2884V135.82H74.6284V137H70.0084ZM70.6084 134V132.84H74.0784V134H70.6084Z" fill="black"/>
<path d="M14.94 275V268H17.98C18.4 268 18.7833 268.1 19.13 268.3C19.4767 268.493 19.75 268.76 19.95 269.1C20.1567 269.433 20.26 269.81 20.26 270.23C20.26 270.63 20.1567 271 19.95 271.34C19.75 271.673 19.4767 271.94 19.13 272.14C18.79 272.333 18.4067 272.43 17.98 272.43H16.21V275H14.94ZM19 275L17.22 271.84L18.56 271.59L20.54 275.01L19 275ZM16.21 271.3H17.99C18.1833 271.3 18.35 271.257 18.49 271.17C18.6367 271.077 18.75 270.95 18.83 270.79C18.91 270.63 18.95 270.453 18.95 270.26C18.95 270.04 18.9 269.85 18.8 269.69C18.7 269.53 18.56 269.403 18.38 269.31C18.2 269.217 17.9933 269.17 17.76 269.17H16.21V271.3ZM21.9127 275V268H26.4927V269.18H23.1927V273.82H26.5327V275H21.9127ZM22.5127 272V270.84H25.9827V272H22.5127ZM30.3827 275.1C29.976 275.1 29.6027 275.05 29.2627 274.95C28.9227 274.843 28.616 274.687 28.3427 274.48C28.0693 274.273 27.826 274.023 27.6127 273.73L28.4627 272.77C28.7893 273.223 29.1093 273.537 29.4227 273.71C29.736 273.883 30.0893 273.97 30.4827 273.97C30.7093 273.97 30.916 273.937 31.1027 273.87C31.2893 273.797 31.436 273.7 31.5427 273.58C31.6493 273.453 31.7027 273.31 31.7027 273.15C31.7027 273.037 31.6793 272.933 31.6327 272.84C31.5927 272.74 31.5293 272.653 31.4427 272.58C31.356 272.5 31.2493 272.427 31.1227 272.36C30.996 272.293 30.8527 272.237 30.6927 272.19C30.5327 272.143 30.356 272.1 30.1627 272.06C29.796 271.987 29.476 271.89 29.2027 271.77C28.9293 271.643 28.6993 271.49 28.5127 271.31C28.326 271.123 28.1893 270.917 28.1027 270.69C28.016 270.457 27.9727 270.193 27.9727 269.9C27.9727 269.607 28.036 269.337 28.1627 269.09C28.296 268.843 28.476 268.63 28.7027 268.45C28.9293 268.27 29.1927 268.13 29.4927 268.03C29.7927 267.93 30.116 267.88 30.4627 267.88C30.856 267.88 31.206 267.927 31.5127 268.02C31.826 268.113 32.0993 268.253 32.3327 268.44C32.5727 268.62 32.7693 268.84 32.9227 269.1L32.0627 269.95C31.9293 269.743 31.7793 269.573 31.6127 269.44C31.446 269.3 31.266 269.197 31.0727 269.13C30.8793 269.057 30.676 269.02 30.4627 269.02C30.2227 269.02 30.0127 269.053 29.8327 269.12C29.6593 269.187 29.5227 269.283 29.4227 269.41C29.3227 269.53 29.2727 269.677 29.2727 269.85C29.2727 269.983 29.3027 270.103 29.3627 270.21C29.4227 270.31 29.506 270.4 29.6127 270.48C29.726 270.56 29.8693 270.63 30.0427 270.69C30.216 270.75 30.4127 270.803 30.6327 270.85C30.9993 270.923 31.3293 271.023 31.6227 271.15C31.916 271.27 32.166 271.417 32.3727 271.59C32.5793 271.757 32.736 271.95 32.8427 272.17C32.9493 272.383 33.0027 272.623 33.0027 272.89C33.0027 273.35 32.8927 273.747 32.6727 274.08C32.4593 274.407 32.156 274.66 31.7627 274.84C31.3693 275.013 30.9093 275.1 30.3827 275.1ZM34.4322 275V268H39.0122V269.18H35.7122V273.82H39.0522V275H34.4322ZM35.0322 272V270.84H38.5022V272H35.0322ZM39.9022 275L42.6322 268H43.8522L46.5622 275H45.2122L43.7122 271.02C43.6789 270.94 43.6322 270.813 43.5722 270.64C43.5189 270.467 43.4589 270.28 43.3922 270.08C43.3255 269.873 43.2655 269.683 43.2122 269.51C43.1589 269.33 43.1189 269.2 43.0922 269.12L43.3422 269.11C43.3022 269.243 43.2555 269.393 43.2022 269.56C43.1489 269.727 43.0922 269.9 43.0322 270.08C42.9722 270.26 42.9122 270.433 42.8522 270.6C42.7989 270.767 42.7489 270.917 42.7022 271.05L41.2022 275H39.9022ZM41.1422 273.4L41.5922 272.27H44.7822L45.2622 273.4H41.1422ZM47.6646 275V268H50.7046C51.1246 268 51.5079 268.1 51.8546 268.3C52.2013 268.493 52.4746 268.76 52.6746 269.1C52.8813 269.433 52.9846 269.81 52.9846 270.23C52.9846 270.63 52.8813 271 52.6746 271.34C52.4746 271.673 52.2013 271.94 51.8546 272.14C51.5146 272.333 51.1313 272.43 50.7046 272.43H48.9346V275H47.6646ZM51.7246 275L49.9446 271.84L51.2846 271.59L53.2646 275.01L51.7246 275ZM48.9346 271.3H50.7146C50.9079 271.3 51.0746 271.257 51.2146 271.17C51.3613 271.077 51.4746 270.95 51.5546 270.79C51.6346 270.63 51.6746 270.453 51.6746 270.26C51.6746 270.04 51.6246 269.85 51.5246 269.69C51.4246 269.53 51.2846 269.403 51.1046 269.31C50.9246 269.217 50.7179 269.17 50.4846 269.17H48.9346V271.3ZM57.5096 275.1C57.0029 275.1 56.5396 275.013 56.1196 274.84C55.6996 274.667 55.3363 274.42 55.0296 274.1C54.7229 273.773 54.4829 273.39 54.3096 272.95C54.1429 272.503 54.0596 272.017 54.0596 271.49C54.0596 270.983 54.1496 270.513 54.3296 270.08C54.5096 269.647 54.7596 269.267 55.0796 268.94C55.3996 268.613 55.7729 268.36 56.1996 268.18C56.6263 268 57.0896 267.91 57.5896 267.91C57.9296 267.91 58.2596 267.96 58.5796 268.06C58.8996 268.16 59.1929 268.3 59.4596 268.48C59.7263 268.653 59.9496 268.857 60.1296 269.09L59.2996 270C59.1263 269.82 58.9463 269.67 58.7596 269.55C58.5796 269.423 58.3896 269.33 58.1896 269.27C57.9963 269.203 57.7963 269.17 57.5896 269.17C57.2829 269.17 56.9929 269.227 56.7196 269.34C56.4529 269.453 56.2196 269.613 56.0196 269.82C55.8263 270.027 55.6729 270.273 55.5596 270.56C55.4463 270.84 55.3896 271.153 55.3896 271.5C55.3896 271.853 55.4429 272.173 55.5496 272.46C55.6629 272.747 55.8196 272.993 56.0196 273.2C56.2263 273.407 56.4696 273.567 56.7496 273.68C57.0363 273.787 57.3496 273.84 57.6896 273.84C57.9096 273.84 58.1229 273.81 58.3296 273.75C58.5363 273.69 58.7263 273.607 58.8996 273.5C59.0796 273.387 59.2429 273.257 59.3896 273.11L60.0296 274.14C59.8696 274.32 59.6563 274.483 59.3896 274.63C59.1229 274.777 58.8229 274.893 58.4896 274.98C58.1629 275.06 57.8363 275.1 57.5096 275.1ZM65.8655 275V268H67.1655V275H65.8655ZM61.3755 275V268H62.6755V275H61.3755ZM61.9155 272.12V270.9H66.4955V272.12H61.9155ZM14.94 288V281H17.85C18.25 281 18.61 281.097 18.93 281.29C19.2567 281.483 19.5167 281.747 19.71 282.08C19.9033 282.413 20 282.787 20 283.2C20 283.62 19.9033 284 19.71 284.34C19.5167 284.673 19.2567 284.94 18.93 285.14C18.61 285.34 18.25 285.44 17.85 285.44H16.24V288H14.94ZM16.24 284.24H17.76C17.9267 284.24 18.0767 284.193 18.21 284.1C18.35 284.007 18.46 283.883 18.54 283.73C18.6267 283.577 18.67 283.403 18.67 283.21C18.67 283.017 18.6267 282.847 18.54 282.7C18.46 282.547 18.35 282.427 18.21 282.34C18.0767 282.247 17.9267 282.2 17.76 282.2H16.24V284.24ZM21.3755 288V281H24.4155C24.8355 281 25.2189 281.1 25.5655 281.3C25.9122 281.493 26.1855 281.76 26.3855 282.1C26.5922 282.433 26.6955 282.81 26.6955 283.23C26.6955 283.63 26.5922 284 26.3855 284.34C26.1855 284.673 25.9122 284.94 25.5655 285.14C25.2255 285.333 24.8422 285.43 24.4155 285.43H22.6455V288H21.3755ZM25.4355 288L23.6555 284.84L24.9955 284.59L26.9755 288.01L25.4355 288ZM22.6455 284.3H24.4255C24.6189 284.3 24.7855 284.257 24.9255 284.17C25.0722 284.077 25.1855 283.95 25.2655 283.79C25.3455 283.63 25.3855 283.453 25.3855 283.26C25.3855 283.04 25.3355 282.85 25.2355 282.69C25.1355 282.53 24.9955 282.403 24.8155 282.31C24.6355 282.217 24.4289 282.17 24.1955 282.17H22.6455V284.3ZM31.2705 288.1C30.7705 288.1 30.3072 288.01 29.8805 287.83C29.4539 287.65 29.0805 287.4 28.7605 287.08C28.4472 286.753 28.2039 286.37 28.0305 285.93C27.8572 285.49 27.7705 285.01 27.7705 284.49C27.7705 283.97 27.8572 283.49 28.0305 283.05C28.2039 282.61 28.4472 282.23 28.7605 281.91C29.0805 281.583 29.4539 281.33 29.8805 281.15C30.3072 280.97 30.7705 280.88 31.2705 280.88C31.7772 280.88 32.2439 280.97 32.6705 281.15C33.0972 281.33 33.4672 281.583 33.7805 281.91C34.0939 282.237 34.3372 282.62 34.5105 283.06C34.6839 283.493 34.7705 283.97 34.7705 284.49C34.7705 285.003 34.6839 285.48 34.5105 285.92C34.3372 286.36 34.0939 286.743 33.7805 287.07C33.4672 287.397 33.0972 287.65 32.6705 287.83C32.2439 288.01 31.7772 288.1 31.2705 288.1ZM31.2705 286.86C31.5905 286.86 31.8805 286.803 32.1405 286.69C32.4072 286.57 32.6372 286.403 32.8305 286.19C33.0239 285.97 33.1739 285.717 33.2805 285.43C33.3939 285.143 33.4505 284.83 33.4505 284.49C33.4505 284.15 33.3939 283.837 33.2805 283.55C33.1739 283.263 33.0239 283.013 32.8305 282.8C32.6372 282.58 32.4072 282.413 32.1405 282.3C31.8805 282.18 31.5905 282.12 31.2705 282.12C30.9572 282.12 30.6672 282.18 30.4005 282.3C30.1339 282.413 29.9039 282.577 29.7105 282.79C29.5172 283.003 29.3672 283.253 29.2605 283.54C29.1539 283.827 29.1005 284.143 29.1005 284.49C29.1005 284.83 29.1539 285.147 29.2605 285.44C29.3672 285.727 29.5172 285.977 29.7105 286.19C29.9039 286.403 30.1339 286.57 30.4005 286.69C30.6672 286.803 30.9572 286.86 31.2705 286.86ZM37.6738 288.1C37.4338 288.1 37.2071 288.07 36.9938 288.01C36.7804 287.95 36.5838 287.867 36.4038 287.76C36.2238 287.647 36.0638 287.513 35.9238 287.36C35.7838 287.2 35.6604 287.023 35.5538 286.83L36.3438 286.02C36.4638 286.193 36.5771 286.337 36.6838 286.45C36.7904 286.563 36.8904 286.65 36.9838 286.71C37.0838 286.77 37.1838 286.813 37.2838 286.84C37.3904 286.867 37.4971 286.88 37.6038 286.88C37.8171 286.88 38.0038 286.833 38.1638 286.74C38.3238 286.64 38.4471 286.503 38.5338 286.33C38.6271 286.157 38.6738 285.96 38.6738 285.74V282.17H37.3838V281H41.0338V282.17H39.9538V285.87C39.9538 286.197 39.8971 286.497 39.7838 286.77C39.6704 287.037 39.5104 287.27 39.3038 287.47C39.1038 287.67 38.8638 287.827 38.5838 287.94C38.3104 288.047 38.0071 288.1 37.6738 288.1ZM42.5377 288V281H47.1177V282.18H43.8177V286.82H47.1577V288H42.5377ZM43.1377 285V283.84H46.6077V285H43.1377ZM51.7577 288.1C51.251 288.1 50.7877 288.013 50.3677 287.84C49.9477 287.667 49.5843 287.42 49.2777 287.1C48.971 286.773 48.731 286.39 48.5577 285.95C48.391 285.503 48.3077 285.017 48.3077 284.49C48.3077 283.983 48.3977 283.513 48.5777 283.08C48.7577 282.647 49.0077 282.267 49.3277 281.94C49.6477 281.613 50.021 281.36 50.4477 281.18C50.8743 281 51.3377 280.91 51.8377 280.91C52.1777 280.91 52.5077 280.96 52.8277 281.06C53.1477 281.16 53.441 281.3 53.7077 281.48C53.9743 281.653 54.1977 281.857 54.3777 282.09L53.5477 283C53.3743 282.82 53.1943 282.67 53.0077 282.55C52.8277 282.423 52.6377 282.33 52.4377 282.27C52.2443 282.203 52.0443 282.17 51.8377 282.17C51.531 282.17 51.241 282.227 50.9677 282.34C50.701 282.453 50.4677 282.613 50.2677 282.82C50.0743 283.027 49.921 283.273 49.8077 283.56C49.6943 283.84 49.6377 284.153 49.6377 284.5C49.6377 284.853 49.691 285.173 49.7977 285.46C49.911 285.747 50.0677 285.993 50.2677 286.2C50.4743 286.407 50.7177 286.567 50.9977 286.68C51.2843 286.787 51.5977 286.84 51.9377 286.84C52.1577 286.84 52.371 286.81 52.5777 286.75C52.7843 286.69 52.9743 286.607 53.1477 286.5C53.3277 286.387 53.491 286.257 53.6377 286.11L54.2777 287.14C54.1177 287.32 53.9043 287.483 53.6377 287.63C53.371 287.777 53.071 287.893 52.7377 287.98C52.411 288.06 52.0843 288.1 51.7577 288.1ZM57.0236 288V282.2H55.0236V281H60.3836V282.2H58.3236V288H57.0236ZM63.8788 288.1C63.4721 288.1 63.0988 288.05 62.7588 287.95C62.4188 287.843 62.1121 287.687 61.8388 287.48C61.5654 287.273 61.3221 287.023 61.1088 286.73L61.9588 285.77C62.2854 286.223 62.6054 286.537 62.9188 286.71C63.2321 286.883 63.5854 286.97 63.9788 286.97C64.2054 286.97 64.4121 286.937 64.5988 286.87C64.7854 286.797 64.9321 286.7 65.0388 286.58C65.1454 286.453 65.1988 286.31 65.1988 286.15C65.1988 286.037 65.1754 285.933 65.1288 285.84C65.0888 285.74 65.0254 285.653 64.9388 285.58C64.8521 285.5 64.7454 285.427 64.6188 285.36C64.4921 285.293 64.3488 285.237 64.1888 285.19C64.0288 285.143 63.8521 285.1 63.6587 285.06C63.2921 284.987 62.9721 284.89 62.6988 284.77C62.4254 284.643 62.1954 284.49 62.0088 284.31C61.8221 284.123 61.6854 283.917 61.5988 283.69C61.5121 283.457 61.4688 283.193 61.4688 282.9C61.4688 282.607 61.5321 282.337 61.6588 282.09C61.7921 281.843 61.9721 281.63 62.1988 281.45C62.4254 281.27 62.6888 281.13 62.9888 281.03C63.2888 280.93 63.6121 280.88 63.9588 280.88C64.3521 280.88 64.7021 280.927 65.0088 281.02C65.3221 281.113 65.5954 281.253 65.8288 281.44C66.0688 281.62 66.2654 281.84 66.4188 282.1L65.5588 282.95C65.4254 282.743 65.2754 282.573 65.1088 282.44C64.9421 282.3 64.7621 282.197 64.5688 282.13C64.3754 282.057 64.1721 282.02 63.9588 282.02C63.7188 282.02 63.5088 282.053 63.3288 282.12C63.1554 282.187 63.0188 282.283 62.9188 282.41C62.8188 282.53 62.7688 282.677 62.7688 282.85C62.7688 282.983 62.7988 283.103 62.8588 283.21C62.9188 283.31 63.0021 283.4 63.1088 283.48C63.2221 283.56 63.3654 283.63 63.5388 283.69C63.7121 283.75 63.9088 283.803 64.1288 283.85C64.4954 283.923 64.8254 284.023 65.1188 284.15C65.4121 284.27 65.6621 284.417 65.8688 284.59C66.0754 284.757 66.2321 284.95 66.3388 285.17C66.4454 285.383 66.4988 285.623 66.4988 285.89C66.4988 286.35 66.3888 286.747 66.1688 287.08C65.9554 287.407 65.6521 287.66 65.2588 287.84C64.8654 288.013 64.4054 288.1 63.8788 288.1Z" fill="black"/>
<path d="M15.94 436V429H18.85C19.25 429 19.61 429.097 19.93 429.29C20.2567 429.483 20.5167 429.747 20.71 430.08C20.9033 430.413 21 430.787 21 431.2C21 431.62 20.9033 432 20.71 432.34C20.5167 432.673 20.2567 432.94 19.93 433.14C19.61 433.34 19.25 433.44 18.85 433.44H17.24V436H15.94ZM17.24 432.24H18.76C18.9267 432.24 19.0767 432.193 19.21 432.1C19.35 432.007 19.46 431.883 19.54 431.73C19.6267 431.577 19.67 431.403 19.67 431.21C19.67 431.017 19.6267 430.847 19.54 430.7C19.46 430.547 19.35 430.427 19.21 430.34C19.0767 430.247 18.9267 430.2 18.76 430.2H17.24V432.24ZM25.1755 436.06C24.6222 436.06 24.1289 435.943 23.6955 435.71C23.2622 435.47 22.9189 435.143 22.6655 434.73C22.4189 434.31 22.2955 433.837 22.2955 433.31V428.99H23.6055V433.22C23.6055 433.533 23.6755 433.813 23.8155 434.06C23.9622 434.3 24.1555 434.493 24.3955 434.64C24.6355 434.787 24.8955 434.86 25.1755 434.86C25.4822 434.86 25.7589 434.787 26.0055 434.64C26.2522 434.493 26.4455 434.3 26.5855 434.06C26.7322 433.813 26.8055 433.533 26.8055 433.22V428.99H28.0655V433.31C28.0655 433.837 27.9389 434.31 27.6855 434.73C27.4389 435.143 27.0989 435.47 26.6655 435.71C26.2322 435.943 25.7355 436.06 25.1755 436.06ZM29.8658 436V429H32.8458C33.3058 429 33.6924 429.067 34.0058 429.2C34.3258 429.333 34.5658 429.533 34.7258 429.8C34.8924 430.06 34.9758 430.377 34.9758 430.75C34.9758 431.137 34.8724 431.463 34.6658 431.73C34.4591 431.997 34.1691 432.18 33.7958 432.28L33.7858 432.08C34.0991 432.147 34.3724 432.267 34.6058 432.44C34.8391 432.607 35.0191 432.817 35.1458 433.07C35.2791 433.317 35.3458 433.6 35.3458 433.92C35.3458 434.26 35.2891 434.56 35.1758 434.82C35.0691 435.08 34.9091 435.297 34.6958 435.47C34.4824 435.643 34.2291 435.777 33.9358 435.87C33.6424 435.957 33.3124 436 32.9458 436H29.8658ZM31.1358 434.83H32.8858C33.1324 434.83 33.3391 434.793 33.5058 434.72C33.6791 434.647 33.8091 434.54 33.8958 434.4C33.9891 434.253 34.0358 434.08 34.0358 433.88C34.0358 433.693 33.9858 433.533 33.8858 433.4C33.7924 433.267 33.6558 433.167 33.4758 433.1C33.2958 433.027 33.0824 432.99 32.8358 432.99H31.1358V434.83ZM31.1358 431.87H32.7258C32.9191 431.87 33.0858 431.833 33.2258 431.76C33.3724 431.687 33.4858 431.587 33.5658 431.46C33.6458 431.333 33.6858 431.187 33.6858 431.02C33.6858 430.753 33.5958 430.547 33.4158 430.4C33.2358 430.247 32.9724 430.17 32.6258 430.17H31.1358V431.87ZM36.7505 436V429H38.0505V434.8H41.2805V436H36.7505ZM42.5562 436V434.85H43.7062V430.15H42.5562V429H46.1562V430.15H45.0062V434.85H46.1562V436H42.5562ZM50.6385 436.1C50.1318 436.1 49.6685 436.013 49.2485 435.84C48.8285 435.667 48.4652 435.42 48.1585 435.1C47.8518 434.773 47.6118 434.39 47.4385 433.95C47.2718 433.503 47.1885 433.017 47.1885 432.49C47.1885 431.983 47.2785 431.513 47.4585 431.08C47.6385 430.647 47.8885 430.267 48.2085 429.94C48.5285 429.613 48.9018 429.36 49.3285 429.18C49.7552 429 50.2185 428.91 50.7185 428.91C51.0585 428.91 51.3885 428.96 51.7085 429.06C52.0285 429.16 52.3218 429.3 52.5885 429.48C52.8552 429.653 53.0785 429.857 53.2585 430.09L52.4285 431C52.2552 430.82 52.0752 430.67 51.8885 430.55C51.7085 430.423 51.5185 430.33 51.3185 430.27C51.1252 430.203 50.9252 430.17 50.7185 430.17C50.4118 430.17 50.1218 430.227 49.8485 430.34C49.5818 430.453 49.3485 430.613 49.1485 430.82C48.9552 431.027 48.8018 431.273 48.6885 431.56C48.5752 431.84 48.5185 432.153 48.5185 432.5C48.5185 432.853 48.5718 433.173 48.6785 433.46C48.7918 433.747 48.9485 433.993 49.1485 434.2C49.3552 434.407 49.5985 434.567 49.8785 434.68C50.1652 434.787 50.4785 434.84 50.8185 434.84C51.0385 434.84 51.2518 434.81 51.4585 434.75C51.6652 434.69 51.8552 434.607 52.0285 434.5C52.2085 434.387 52.3718 434.257 52.5185 434.11L53.1585 435.14C52.9985 435.32 52.7852 435.483 52.5185 435.63C52.2518 435.777 51.9518 435.893 51.6185 435.98C51.2918 436.06 50.9652 436.1 50.6385 436.1ZM53.7245 436L56.4545 429H57.6745L60.3845 436H59.0345L57.5345 432.02C57.5011 431.94 57.4545 431.813 57.3945 431.64C57.3411 431.467 57.2811 431.28 57.2145 431.08C57.1478 430.873 57.0878 430.683 57.0345 430.51C56.9811 430.33 56.9411 430.2 56.9145 430.12L57.1645 430.11C57.1245 430.243 57.0778 430.393 57.0245 430.56C56.9711 430.727 56.9145 430.9 56.8545 431.08C56.7945 431.26 56.7345 431.433 56.6745 431.6C56.6211 431.767 56.5711 431.917 56.5245 432.05L55.0245 436H53.7245ZM54.9645 434.4L55.4145 433.27H58.6045L59.0845 434.4H54.9645ZM62.3888 436V430.2H60.3888V429H65.7488V430.2H63.6888V436H62.3888ZM66.814 436V434.85H67.964V430.15H66.814V429H70.414V430.15H69.264V434.85H70.414V436H66.814ZM74.9463 436.1C74.4463 436.1 73.983 436.01 73.5563 435.83C73.1297 435.65 72.7563 435.4 72.4363 435.08C72.123 434.753 71.8797 434.37 71.7063 433.93C71.533 433.49 71.4463 433.01 71.4463 432.49C71.4463 431.97 71.533 431.49 71.7063 431.05C71.8797 430.61 72.123 430.23 72.4363 429.91C72.7563 429.583 73.1297 429.33 73.5563 429.15C73.983 428.97 74.4463 428.88 74.9463 428.88C75.453 428.88 75.9197 428.97 76.3463 429.15C76.773 429.33 77.143 429.583 77.4563 429.91C77.7697 430.237 78.013 430.62 78.1863 431.06C78.3597 431.493 78.4463 431.97 78.4463 432.49C78.4463 433.003 78.3597 433.48 78.1863 433.92C78.013 434.36 77.7697 434.743 77.4563 435.07C77.143 435.397 76.773 435.65 76.3463 435.83C75.9197 436.01 75.453 436.1 74.9463 436.1ZM74.9463 434.86C75.2663 434.86 75.5563 434.803 75.8163 434.69C76.083 434.57 76.313 434.403 76.5063 434.19C76.6997 433.97 76.8497 433.717 76.9563 433.43C77.0697 433.143 77.1263 432.83 77.1263 432.49C77.1263 432.15 77.0697 431.837 76.9563 431.55C76.8497 431.263 76.6997 431.013 76.5063 430.8C76.313 430.58 76.083 430.413 75.8163 430.3C75.5563 430.18 75.2663 430.12 74.9463 430.12C74.633 430.12 74.343 430.18 74.0763 430.3C73.8097 430.413 73.5797 430.577 73.3863 430.79C73.193 431.003 73.043 431.253 72.9363 431.54C72.8297 431.827 72.7763 432.143 72.7763 432.49C72.7763 432.83 72.8297 433.147 72.9363 433.44C73.043 433.727 73.193 433.977 73.3863 434.19C73.5797 434.403 73.8097 434.57 74.0763 434.69C74.343 434.803 74.633 434.86 74.9463 434.86ZM79.856 436V429H81.026L85.086 434.47L84.866 434.51C84.8393 434.323 84.816 434.133 84.796 433.94C84.776 433.74 84.756 433.533 84.736 433.32C84.7227 433.107 84.7093 432.883 84.696 432.65C84.6893 432.417 84.6827 432.173 84.676 431.92C84.6693 431.66 84.666 431.387 84.666 431.1V429H85.956V436H84.766L80.686 430.61L80.946 430.54C80.9793 430.913 81.006 431.233 81.026 431.5C81.0527 431.76 81.0727 431.987 81.086 432.18C81.0993 432.367 81.1093 432.523 81.116 432.65C81.1293 432.777 81.136 432.893 81.136 433C81.1427 433.1 81.146 433.197 81.146 433.29V436H79.856ZM90.0545 436.1C89.6479 436.1 89.2745 436.05 88.9345 435.95C88.5945 435.843 88.2879 435.687 88.0145 435.48C87.7412 435.273 87.4979 435.023 87.2845 434.73L88.1345 433.77C88.4612 434.223 88.7812 434.537 89.0945 434.71C89.4079 434.883 89.7612 434.97 90.1545 434.97C90.3812 434.97 90.5879 434.937 90.7745 434.87C90.9612 434.797 91.1079 434.7 91.2145 434.58C91.3212 434.453 91.3745 434.31 91.3745 434.15C91.3745 434.037 91.3512 433.933 91.3045 433.84C91.2645 433.74 91.2012 433.653 91.1145 433.58C91.0279 433.5 90.9212 433.427 90.7945 433.36C90.6679 433.293 90.5245 433.237 90.3645 433.19C90.2045 433.143 90.0279 433.1 89.8345 433.06C89.4679 432.987 89.1479 432.89 88.8745 432.77C88.6012 432.643 88.3712 432.49 88.1845 432.31C87.9979 432.123 87.8612 431.917 87.7745 431.69C87.6879 431.457 87.6445 431.193 87.6445 430.9C87.6445 430.607 87.7079 430.337 87.8345 430.09C87.9679 429.843 88.1479 429.63 88.3745 429.45C88.6012 429.27 88.8645 429.13 89.1645 429.03C89.4645 428.93 89.7879 428.88 90.1345 428.88C90.5279 428.88 90.8779 428.927 91.1845 429.02C91.4979 429.113 91.7712 429.253 92.0045 429.44C92.2445 429.62 92.4412 429.84 92.5945 430.1L91.7345 430.95C91.6012 430.743 91.4512 430.573 91.2845 430.44C91.1179 430.3 90.9379 430.197 90.7445 430.13C90.5512 430.057 90.3479 430.02 90.1345 430.02C89.8945 430.02 89.6845 430.053 89.5045 430.12C89.3312 430.187 89.1945 430.283 89.0945 430.41C88.9945 430.53 88.9445 430.677 88.9445 430.85C88.9445 430.983 88.9745 431.103 89.0345 431.21C89.0945 431.31 89.1779 431.4 89.2845 431.48C89.3979 431.56 89.5412 431.63 89.7145 431.69C89.8879 431.75 90.0845 431.803 90.3045 431.85C90.6712 431.923 91.0012 432.023 91.2945 432.15C91.5879 432.27 91.8379 432.417 92.0445 432.59C92.2512 432.757 92.4079 432.95 92.5145 433.17C92.6212 433.383 92.6745 433.623 92.6745 433.89C92.6745 434.35 92.5645 434.747 92.3445 435.08C92.1312 435.407 91.8279 435.66 91.4345 435.84C91.0412 436.013 90.5812 436.1 90.0545 436.1Z" fill="black"/>
<line x1="0.5" y1="2.18557e-08" x2="0.499975" y2="574" stroke="url(#paint0_linear_2749_2084)"/>
<defs>
<linearGradient id="paint0_linear_2749_2084" x1="0" y1="0" x2="7.86581e-06" y2="574" gradientUnits="userSpaceOnUse">
<stop stop-opacity="0"/>
<stop offset="0.270833"/>
<stop offset="0.489583"/>
<stop offset="0.729167"/>
<stop offset="1" stop-opacity="0"/>
</linearGradient>
</defs>
</svg>
