<svg width="270" height="316" viewBox="0 0 270 316" fill="none" xmlns="http://www.w3.org/2000/svg">
<rect width="270" height="316" rx="11" transform="matrix(1 0 0 -1 0 316)" fill="black"/>
<path d="M37.776 128.912C36.928 127.888 35.864 127.376 34.584 127.376C33.256 127.376 32.144 127.928 31.248 129.032C30.352 130.12 29.904 131.368 29.904 132.776C29.904 134.136 30.344 135.36 31.224 136.448C32.12 137.52 33.232 138.056 34.56 138.056C35.824 138.056 36.896 137.544 37.776 136.52V139.52C36.592 140.096 35.496 140.384 34.488 140.384C32.472 140.384 30.776 139.64 29.4 138.152C28.024 136.664 27.336 134.888 27.336 132.824C27.336 130.68 28.024 128.848 29.4 127.328C30.776 125.808 32.488 125.048 34.536 125.048C35.608 125.048 36.688 125.328 37.776 125.888V128.912ZM48.897 135.248C48.897 136.736 48.441 137.952 47.529 138.896C46.617 139.84 45.417 140.312 43.929 140.312C42.457 140.312 41.257 139.84 40.329 138.896C39.401 137.952 38.937 136.744 38.937 135.272C38.937 133.784 39.393 132.568 40.305 131.624C41.217 130.68 42.417 130.208 43.905 130.208C45.393 130.208 46.593 130.68 47.505 131.624C48.433 132.552 48.897 133.76 48.897 135.248ZM41.289 135.296C41.289 136.176 41.537 136.896 42.033 137.456C42.529 138.016 43.169 138.296 43.953 138.296C44.737 138.296 45.361 138 45.825 137.408C46.305 136.8 46.545 136.088 46.545 135.272C46.545 134.44 46.305 133.728 45.825 133.136C45.345 132.528 44.713 132.224 43.929 132.224C43.161 132.224 42.529 132.512 42.033 133.088C41.537 133.664 41.289 134.4 41.289 135.296ZM52.6988 140H50.3708V123.608H52.6988V140ZM64.1079 135.248C64.1079 136.736 63.6519 137.952 62.7399 138.896C61.8279 139.84 60.6279 140.312 59.1399 140.312C57.6679 140.312 56.4679 139.84 55.5399 138.896C54.6119 137.952 54.1479 136.744 54.1479 135.272C54.1479 133.784 54.6039 132.568 55.5159 131.624C56.4279 130.68 57.6279 130.208 59.1159 130.208C60.6039 130.208 61.8039 130.68 62.7159 131.624C63.6439 132.552 64.1079 133.76 64.1079 135.248ZM56.4999 135.296C56.4999 136.176 56.7479 136.896 57.2439 137.456C57.7399 138.016 58.3799 138.296 59.1639 138.296C59.9479 138.296 60.5719 138 61.0359 137.408C61.5159 136.8 61.7559 136.088 61.7559 135.272C61.7559 134.44 61.5159 133.728 61.0359 133.136C60.5559 132.528 59.9239 132.224 59.1399 132.224C58.3719 132.224 57.7399 132.512 57.2439 133.088C56.7479 133.664 56.4999 134.4 56.4999 135.296ZM67.7177 131.504C68.3097 130.64 69.2377 130.208 70.5017 130.208C70.9017 130.208 71.2697 130.288 71.6057 130.448L71.3177 132.56C70.9657 132.336 70.5817 132.224 70.1657 132.224C68.5337 132.224 67.7177 133.392 67.7177 135.728V140H65.3897V130.52H67.7177V131.504ZM88.5954 138.296C87.1234 139.576 85.7314 140.216 84.4194 140.216C83.2034 140.216 82.2194 139.832 81.4674 139.064C80.7314 138.28 80.3634 137.304 80.3634 136.136C80.3634 134.536 80.9954 133.336 82.2594 132.536L83.4594 131.768C82.5794 130.488 82.1394 129.448 82.1394 128.648C82.1394 127.64 82.4674 126.816 83.1234 126.176C83.7954 125.52 84.6514 125.192 85.6914 125.192C86.7474 125.192 87.6034 125.52 88.2594 126.176C88.9314 126.816 89.2674 127.656 89.2674 128.696C89.2674 129.88 88.4434 131.016 86.7954 132.104L88.9314 134.936L90.6114 132.992L92.1954 134.504L90.3954 136.616L93.0594 140H89.9634L88.5954 138.296ZM85.5954 130.664L86.1234 130.28C86.8274 129.8 87.1794 129.2 87.1794 128.48C87.1794 127.408 86.7234 126.872 85.8114 126.872C84.8994 126.872 84.4434 127.392 84.4434 128.432C84.4434 128.8 84.5634 129.16 84.8034 129.512L85.5954 130.664ZM84.6834 133.328C83.4514 134.256 82.8354 135.112 82.8354 135.896C82.8354 137.32 83.4754 138.032 84.7554 138.032C85.3794 138.032 86.1794 137.56 87.1554 136.616L84.6834 133.328ZM104.613 127.52V131.312H109.509V133.4H104.613V137.912H109.677V140H102.141V125.432H109.677V127.52H104.613ZM113.819 131.36C114.411 130.592 115.323 130.208 116.555 130.208C117.627 130.208 118.475 130.704 119.099 131.696C119.707 130.704 120.691 130.208 122.051 130.208C124.051 130.208 125.051 131.504 125.051 134.096V140H122.747V135.008C122.747 132.992 122.195 131.984 121.091 131.984C119.987 131.984 119.435 133.104 119.435 135.344V140H117.107V135.2C117.107 133.056 116.619 131.984 115.643 131.984C114.427 131.984 113.819 133.104 113.819 135.344V140H111.491V130.52H113.819V131.36ZM136.319 135.248C136.319 136.736 135.863 137.952 134.951 138.896C134.039 139.84 132.839 140.312 131.351 140.312C129.879 140.312 128.679 139.84 127.751 138.896C126.823 137.952 126.359 136.744 126.359 135.272C126.359 133.784 126.815 132.568 127.727 131.624C128.639 130.68 129.839 130.208 131.327 130.208C132.815 130.208 134.015 130.68 134.927 131.624C135.855 132.552 136.319 133.76 136.319 135.248ZM128.711 135.296C128.711 136.176 128.959 136.896 129.455 137.456C129.951 138.016 130.591 138.296 131.375 138.296C132.159 138.296 132.783 138 133.247 137.408C133.727 136.8 133.967 136.088 133.967 135.272C133.967 134.44 133.727 133.728 133.247 133.136C132.767 132.528 132.135 132.224 131.351 132.224C130.583 132.224 129.951 132.512 129.455 133.088C128.959 133.664 128.711 134.4 128.711 135.296Z" fill="white"/>
<circle cx="50" cy="56" r="23" fill="url(#paint0_linear_3284_279)"/>
<path d="M32.716 191.246L35.416 183.074H37.468L33.22 194.288H31.978L27.802 183.074H29.8L32.716 191.246ZM40.1081 183.902C40.1081 184.178 40.0061 184.418 39.8021 184.622C39.5981 184.826 39.3581 184.928 39.0821 184.928C38.8061 184.928 38.5661 184.826 38.3621 184.622C38.1581 184.418 38.0561 184.178 38.0561 183.902C38.0561 183.626 38.1581 183.386 38.3621 183.182C38.5661 182.978 38.8061 182.876 39.0821 182.876C39.3581 182.876 39.5981 182.978 39.8021 183.182C40.0061 183.386 40.1081 183.626 40.1081 183.902ZM39.9641 194H38.2181V186.89H39.9641V194ZM45.4379 188.366C45.0539 188.006 44.6519 187.826 44.2319 187.826C43.5959 187.826 43.2779 188.114 43.2779 188.69C43.2779 189.014 43.5659 189.278 44.1419 189.482C45.1979 189.866 45.8519 190.22 46.1039 190.544C46.3559 190.856 46.4819 191.246 46.4819 191.714C46.4819 192.482 46.2119 193.094 45.6719 193.55C45.1439 194.006 44.4899 194.234 43.7099 194.234C42.7019 194.234 41.8679 193.838 41.2079 193.046L41.9819 192.056C42.5819 192.656 43.1339 192.956 43.6379 192.956C44.3699 192.956 44.7359 192.602 44.7359 191.894C44.7359 191.534 44.5439 191.27 44.1599 191.102C43.7759 190.922 43.4819 190.79 43.2779 190.706C42.1739 190.226 41.6219 189.644 41.6219 188.96C41.6219 188.276 41.8259 187.724 42.2339 187.304C42.6539 186.872 43.1999 186.656 43.8719 186.656C44.8319 186.656 45.5939 186.902 46.1579 187.394L45.4379 188.366ZM49.2913 186.89V190.742C49.2913 192.122 49.7713 192.812 50.7313 192.812C51.6913 192.812 52.1713 192.122 52.1713 190.742V186.89H53.9173V191.066C53.9173 193.178 52.8553 194.234 50.7313 194.234C48.6073 194.234 47.5453 193.178 47.5453 191.066V186.89H49.2913ZM62.0653 194H60.3553V193.352C59.8513 193.94 59.1013 194.234 58.1053 194.234C57.1093 194.234 56.3113 193.85 55.7113 193.082C55.1233 192.314 54.8293 191.414 54.8293 190.382C54.8293 189.35 55.1293 188.474 55.7293 187.754C56.3413 187.022 57.1213 186.656 58.0693 186.656C59.0773 186.656 59.8393 186.956 60.3553 187.556V186.89H62.0653V194ZM60.5533 190.436C60.5533 189.776 60.3673 189.236 59.9953 188.816C59.6233 188.384 59.1433 188.168 58.5553 188.168C57.9793 188.168 57.5053 188.378 57.1333 188.798C56.7733 189.206 56.5933 189.752 56.5933 190.436C56.5933 191.12 56.7793 191.672 57.1513 192.092C57.5233 192.512 58.0033 192.722 58.5913 192.722C59.1793 192.722 59.6533 192.518 60.0133 192.11C60.3733 191.702 60.5533 191.144 60.5533 190.436ZM65.4147 194H63.6687V181.706H65.4147V194ZM69.1296 183.902C69.1296 184.178 69.0276 184.418 68.8236 184.622C68.6196 184.826 68.3796 184.928 68.1036 184.928C67.8276 184.928 67.5876 184.826 67.3836 184.622C67.1796 184.418 67.0776 184.178 67.0776 183.902C67.0776 183.626 67.1796 183.386 67.3836 183.182C67.5876 182.978 67.8276 182.876 68.1036 182.876C68.3796 182.876 68.6196 182.978 68.8236 183.182C69.0276 183.386 69.1296 183.626 69.1296 183.902ZM68.9856 194H67.2396V186.89H68.9856V194ZM76.6734 192.578V194H70.0674L73.9014 188.312H70.4994V186.89H76.7634L72.9834 192.578H76.6734ZM78.9723 190.616C78.9723 191.3 79.1223 191.864 79.4223 192.308C79.7223 192.752 80.1363 192.974 80.6643 192.974C81.4923 192.974 82.0203 192.566 82.2483 191.75L83.9043 192.02C83.3643 193.496 82.2843 194.234 80.6643 194.234C79.5843 194.234 78.7203 193.892 78.0723 193.208C77.4363 192.512 77.1183 191.612 77.1183 190.508C77.1183 189.344 77.4243 188.414 78.0363 187.718C78.6603 187.01 79.5003 186.656 80.5563 186.656C81.6243 186.656 82.4523 186.992 83.0403 187.664C83.6403 188.324 83.9403 189.23 83.9403 190.382V190.616H78.9723ZM82.3203 189.644C82.3203 189.152 82.1643 188.72 81.8523 188.348C81.5523 187.976 81.1563 187.79 80.6643 187.79C80.1843 187.79 79.7883 187.988 79.4763 188.384C79.1763 188.768 79.0263 189.188 79.0263 189.644H82.3203ZM95.7358 188.744C95.2918 188.3 94.7938 188.078 94.2418 188.078C93.5938 188.078 93.0838 188.312 92.7118 188.78C92.3398 189.248 92.1538 189.824 92.1538 190.508C92.1538 191.18 92.3638 191.732 92.7838 192.164C93.2038 192.596 93.7138 192.812 94.3138 192.812C94.8298 192.812 95.3038 192.584 95.7358 192.128V193.802C95.2318 194.09 94.6498 194.234 93.9898 194.234C92.9578 194.234 92.0998 193.868 91.4158 193.136C90.7318 192.404 90.3898 191.51 90.3898 190.454C90.3898 189.398 90.7378 188.504 91.4338 187.772C92.1418 187.028 93.0238 186.656 94.0798 186.656C94.7038 186.656 95.2558 186.806 95.7358 187.106V188.744ZM103.977 190.436C103.977 191.552 103.635 192.464 102.951 193.172C102.267 193.88 101.367 194.234 100.251 194.234C99.1474 194.234 98.2474 193.88 97.5514 193.172C96.8554 192.464 96.5074 191.558 96.5074 190.454C96.5074 189.338 96.8494 188.426 97.5334 187.718C98.2174 187.01 99.1174 186.656 100.233 186.656C101.349 186.656 102.249 187.01 102.933 187.718C103.629 188.414 103.977 189.32 103.977 190.436ZM98.2714 190.472C98.2714 191.132 98.4574 191.672 98.8294 192.092C99.2014 192.512 99.6814 192.722 100.269 192.722C100.857 192.722 101.325 192.5 101.673 192.056C102.033 191.6 102.213 191.066 102.213 190.454C102.213 189.83 102.033 189.296 101.673 188.852C101.313 188.396 100.839 188.168 100.251 188.168C99.6754 188.168 99.2014 188.384 98.8294 188.816C98.4574 189.248 98.2714 189.8 98.2714 190.472ZM106.829 194H105.083V181.706H106.829V194ZM115.386 190.436C115.386 191.552 115.044 192.464 114.36 193.172C113.676 193.88 112.776 194.234 111.66 194.234C110.556 194.234 109.656 193.88 108.96 193.172C108.264 192.464 107.916 191.558 107.916 190.454C107.916 189.338 108.258 188.426 108.942 187.718C109.626 187.01 110.526 186.656 111.642 186.656C112.758 186.656 113.658 187.01 114.342 187.718C115.038 188.414 115.386 189.32 115.386 190.436ZM109.68 190.472C109.68 191.132 109.866 191.672 110.238 192.092C110.61 192.512 111.09 192.722 111.678 192.722C112.266 192.722 112.734 192.5 113.082 192.056C113.442 191.6 113.622 191.066 113.622 190.454C113.622 189.83 113.442 189.296 113.082 188.852C112.722 188.396 112.248 188.168 111.66 188.168C111.084 188.168 110.61 188.384 110.238 188.816C109.866 189.248 109.68 189.8 109.68 190.472ZM118.093 187.628C118.537 186.98 119.233 186.656 120.181 186.656C120.481 186.656 120.757 186.716 121.009 186.836L120.793 188.42C120.529 188.252 120.241 188.168 119.929 188.168C118.705 188.168 118.093 189.044 118.093 190.796V194H116.347V186.89H118.093V187.628ZM125.454 188.366C125.07 188.006 124.668 187.826 124.248 187.826C123.612 187.826 123.294 188.114 123.294 188.69C123.294 189.014 123.582 189.278 124.158 189.482C125.214 189.866 125.868 190.22 126.12 190.544C126.372 190.856 126.498 191.246 126.498 191.714C126.498 192.482 126.228 193.094 125.688 193.55C125.16 194.006 124.506 194.234 123.726 194.234C122.718 194.234 121.884 193.838 121.224 193.046L121.998 192.056C122.598 192.656 123.15 192.956 123.654 192.956C124.386 192.956 124.752 192.602 124.752 191.894C124.752 191.534 124.56 191.27 124.176 191.102C123.792 190.922 123.498 190.79 123.294 190.706C122.19 190.226 121.638 189.644 121.638 188.96C121.638 188.276 121.842 187.724 122.25 187.304C122.67 186.872 123.216 186.656 123.888 186.656C124.848 186.656 125.61 186.902 126.174 187.394L125.454 188.366ZM140.341 194H138.631V193.352C138.127 193.94 137.377 194.234 136.381 194.234C135.385 194.234 134.587 193.85 133.987 193.082C133.399 192.314 133.105 191.414 133.105 190.382C133.105 189.35 133.405 188.474 134.005 187.754C134.617 187.022 135.397 186.656 136.345 186.656C137.353 186.656 138.115 186.956 138.631 187.556V186.89H140.341V194ZM138.829 190.436C138.829 189.776 138.643 189.236 138.271 188.816C137.899 188.384 137.419 188.168 136.831 188.168C136.255 188.168 135.781 188.378 135.409 188.798C135.049 189.206 134.869 189.752 134.869 190.436C134.869 191.12 135.055 191.672 135.427 192.092C135.799 192.512 136.279 192.722 136.867 192.722C137.455 192.722 137.929 192.518 138.289 192.11C138.649 191.702 138.829 191.144 138.829 190.436ZM143.546 187.538C144.038 186.95 144.764 186.656 145.724 186.656C147.356 186.656 148.172 187.658 148.172 189.662V194H146.444V190.238C146.444 188.738 145.982 187.988 145.058 187.988C144.05 187.988 143.546 188.792 143.546 190.4V194H141.8V186.89H143.546V187.538ZM154.626 193.334C154.158 193.934 153.42 194.234 152.412 194.234C151.404 194.234 150.6 193.85 150 193.082C149.412 192.314 149.118 191.414 149.118 190.382C149.118 189.35 149.418 188.474 150.018 187.754C150.63 187.022 151.41 186.656 152.358 186.656C153.366 186.656 154.11 186.95 154.59 187.538L154.626 181.706H156.372V194H154.626V193.334ZM154.824 190.436C154.824 189.812 154.632 189.278 154.248 188.834C153.864 188.39 153.402 188.168 152.862 188.168C152.322 188.168 151.854 188.39 151.458 188.834C151.074 189.266 150.882 189.806 150.882 190.454C150.882 191.09 151.068 191.63 151.44 192.074C151.824 192.506 152.304 192.722 152.88 192.722C153.456 192.722 153.924 192.512 154.284 192.092C154.644 191.66 154.824 191.108 154.824 190.436ZM165.175 190.616C165.175 191.3 165.325 191.864 165.625 192.308C165.925 192.752 166.339 192.974 166.867 192.974C167.695 192.974 168.223 192.566 168.451 191.75L170.107 192.02C169.567 193.496 168.487 194.234 166.867 194.234C165.787 194.234 164.923 193.892 164.275 193.208C163.639 192.512 163.321 191.612 163.321 190.508C163.321 189.344 163.627 188.414 164.239 187.718C164.863 187.01 165.703 186.656 166.759 186.656C167.827 186.656 168.655 186.992 169.243 187.664C169.843 188.324 170.143 189.23 170.143 190.382V190.616H165.175ZM168.523 189.644C168.523 189.152 168.367 188.72 168.055 188.348C167.755 187.976 167.359 187.79 166.867 187.79C166.387 187.79 165.991 187.988 165.679 188.384C165.379 188.768 165.229 189.188 165.229 189.644H168.523ZM172.831 187.52C173.275 186.944 173.959 186.656 174.883 186.656C175.687 186.656 176.323 187.028 176.791 187.772C177.247 187.028 177.985 186.656 179.005 186.656C180.505 186.656 181.255 187.628 181.255 189.572V194H179.527V190.256C179.527 188.744 179.113 187.988 178.285 187.988C177.457 187.988 177.043 188.828 177.043 190.508V194H175.297V190.4C175.297 188.792 174.931 187.988 174.199 187.988C173.287 187.988 172.831 188.828 172.831 190.508V194H171.085V186.89H172.831V187.52ZM189.706 190.436C189.706 191.552 189.364 192.464 188.68 193.172C187.996 193.88 187.096 194.234 185.98 194.234C184.876 194.234 183.976 193.88 183.28 193.172C182.584 192.464 182.236 191.558 182.236 190.454C182.236 189.338 182.578 188.426 183.262 187.718C183.946 187.01 184.846 186.656 185.962 186.656C187.078 186.656 187.978 187.01 188.662 187.718C189.358 188.414 189.706 189.32 189.706 190.436ZM184 190.472C184 191.132 184.186 191.672 184.558 192.092C184.93 192.512 185.41 192.722 185.998 192.722C186.586 192.722 187.054 192.5 187.402 192.056C187.762 191.6 187.942 191.066 187.942 190.454C187.942 189.83 187.762 189.296 187.402 188.852C187.042 188.396 186.568 188.168 185.98 188.168C185.404 188.168 184.93 188.384 184.558 188.816C184.186 189.248 184 189.8 184 190.472ZM192.809 194H191.063V188.456H190.217V187.034H191.063V184.478H192.809V187.034H194.195V188.456H192.809V194ZM196.782 183.902C196.782 184.178 196.68 184.418 196.476 184.622C196.272 184.826 196.032 184.928 195.756 184.928C195.48 184.928 195.24 184.826 195.036 184.622C194.832 184.418 194.73 184.178 194.73 183.902C194.73 183.626 194.832 183.386 195.036 183.182C195.24 182.978 195.48 182.876 195.756 182.876C196.032 182.876 196.272 182.978 196.476 183.182C196.68 183.386 196.782 183.626 196.782 183.902ZM196.638 194H194.892V186.89H196.638V194ZM205.298 190.436C205.298 191.552 204.956 192.464 204.272 193.172C203.588 193.88 202.688 194.234 201.572 194.234C200.468 194.234 199.568 193.88 198.872 193.172C198.176 192.464 197.828 191.558 197.828 190.454C197.828 189.338 198.17 188.426 198.854 187.718C199.538 187.01 200.438 186.656 201.554 186.656C202.67 186.656 203.57 187.01 204.254 187.718C204.95 188.414 205.298 189.32 205.298 190.436ZM199.592 190.472C199.592 191.132 199.778 191.672 200.15 192.092C200.522 192.512 201.002 192.722 201.59 192.722C202.178 192.722 202.646 192.5 202.994 192.056C203.354 191.6 203.534 191.066 203.534 190.454C203.534 189.83 203.354 189.296 202.994 188.852C202.634 188.396 202.16 188.168 201.572 188.168C200.996 188.168 200.522 188.384 200.15 188.816C199.778 189.248 199.592 189.8 199.592 190.472ZM208.005 187.538C208.497 186.95 209.223 186.656 210.183 186.656C211.815 186.656 212.631 187.658 212.631 189.662V194H210.903V190.238C210.903 188.738 210.441 187.988 209.517 187.988C208.509 187.988 208.005 188.792 208.005 190.4V194H206.259V186.89H208.005V187.538ZM217.879 188.366C217.495 188.006 217.093 187.826 216.673 187.826C216.037 187.826 215.719 188.114 215.719 188.69C215.719 189.014 216.007 189.278 216.583 189.482C217.639 189.866 218.293 190.22 218.545 190.544C218.797 190.856 218.923 191.246 218.923 191.714C218.923 192.482 218.653 193.094 218.113 193.55C217.585 194.006 216.931 194.234 216.151 194.234C215.143 194.234 214.309 193.838 213.649 193.046L214.423 192.056C215.023 192.656 215.575 192.956 216.079 192.956C216.811 192.956 217.177 192.602 217.177 191.894C217.177 191.534 216.985 191.27 216.601 191.102C216.217 190.922 215.923 190.79 215.719 190.706C214.615 190.226 214.063 189.644 214.063 188.96C214.063 188.276 214.267 187.724 214.675 187.304C215.095 186.872 215.641 186.656 216.313 186.656C217.273 186.656 218.035 186.902 218.599 187.394L217.879 188.366ZM228.176 183.902C228.176 184.178 228.074 184.418 227.87 184.622C227.666 184.826 227.426 184.928 227.15 184.928C226.874 184.928 226.634 184.826 226.43 184.622C226.226 184.418 226.124 184.178 226.124 183.902C226.124 183.626 226.226 183.386 226.43 183.182C226.634 182.978 226.874 182.876 227.15 182.876C227.426 182.876 227.666 182.978 227.87 183.182C228.074 183.386 228.176 183.626 228.176 183.902ZM228.032 194H226.286V186.89H228.032V194ZM231.454 187.538C231.946 186.95 232.672 186.656 233.632 186.656C235.264 186.656 236.08 187.658 236.08 189.662V194H234.352V190.238C234.352 188.738 233.89 187.988 232.966 187.988C231.958 187.988 231.454 188.792 231.454 190.4V194H229.708V186.89H231.454V187.538ZM36.082 203.684C35.446 202.916 34.648 202.532 33.688 202.532C32.692 202.532 31.858 202.946 31.186 203.774C30.514 204.59 30.178 205.526 30.178 206.582C30.178 207.602 30.508 208.52 31.168 209.336C31.84 210.14 32.674 210.542 33.67 210.542C34.618 210.542 35.422 210.158 36.082 209.39V211.64C35.194 212.072 34.372 212.288 33.616 212.288C32.104 212.288 30.832 211.73 29.8 210.614C28.768 209.498 28.252 208.166 28.252 206.618C28.252 205.01 28.768 203.636 29.8 202.496C30.832 201.356 32.116 200.786 33.652 200.786C34.456 200.786 35.266 200.996 36.082 201.416V203.684ZM39.1848 199.706V205.484C39.6408 204.932 40.3668 204.656 41.3628 204.656C42.1068 204.656 42.7008 204.944 43.1448 205.52C43.5888 206.096 43.8108 206.81 43.8108 207.662V212H42.0828V208.238C42.0828 206.738 41.6208 205.988 40.6968 205.988C39.6888 205.988 39.1848 206.816 39.1848 208.472V212H37.4388V199.706H39.1848ZM47.403 201.902C47.403 202.178 47.301 202.418 47.097 202.622C46.893 202.826 46.653 202.928 46.377 202.928C46.101 202.928 45.861 202.826 45.657 202.622C45.453 202.418 45.351 202.178 45.351 201.902C45.351 201.626 45.453 201.386 45.657 201.182C45.861 200.978 46.101 200.876 46.377 200.876C46.653 200.876 46.893 200.978 47.097 201.182C47.301 201.386 47.403 201.626 47.403 201.902ZM47.259 212H45.513V204.89H47.259V212ZM50.6808 205.538C51.1728 204.95 51.8988 204.656 52.8588 204.656C54.4908 204.656 55.3068 205.658 55.3068 207.662V212H53.5788V208.238C53.5788 206.738 53.1168 205.988 52.1928 205.988C51.1848 205.988 50.6808 206.792 50.6808 208.4V212H48.9348V204.89H50.6808V205.538ZM58.1071 208.616C58.1071 209.3 58.2571 209.864 58.5571 210.308C58.8571 210.752 59.2711 210.974 59.7991 210.974C60.6271 210.974 61.1551 210.566 61.3831 209.75L63.0391 210.02C62.4991 211.496 61.4191 212.234 59.7991 212.234C58.7191 212.234 57.8551 211.892 57.2071 211.208C56.5711 210.512 56.2531 209.612 56.2531 208.508C56.2531 207.344 56.5591 206.414 57.1711 205.718C57.7951 205.01 58.6351 204.656 59.6911 204.656C60.7591 204.656 61.5871 204.992 62.1751 205.664C62.7751 206.324 63.0751 207.23 63.0751 208.382V208.616H58.1071ZM61.4551 207.644C61.4551 207.152 61.2991 206.72 60.9871 206.348C60.6871 205.976 60.2911 205.79 59.7991 205.79C59.3191 205.79 58.9231 205.988 58.6111 206.384C58.3111 206.768 58.1611 207.188 58.1611 207.644H61.4551ZM67.8149 206.366C67.4309 206.006 67.0289 205.826 66.6089 205.826C65.9729 205.826 65.6549 206.114 65.6549 206.69C65.6549 207.014 65.9429 207.278 66.5189 207.482C67.5749 207.866 68.2289 208.22 68.4809 208.544C68.7329 208.856 68.8589 209.246 68.8589 209.714C68.8589 210.482 68.5889 211.094 68.0489 211.55C67.5209 212.006 66.8669 212.234 66.0869 212.234C65.0789 212.234 64.2449 211.838 63.5849 211.046L64.3589 210.056C64.9589 210.656 65.5109 210.956 66.0149 210.956C66.7469 210.956 67.1129 210.602 67.1129 209.894C67.1129 209.534 66.9209 209.27 66.5369 209.102C66.1529 208.922 65.8589 208.79 65.6549 208.706C64.5509 208.226 63.9989 207.644 63.9989 206.96C63.9989 206.276 64.2029 205.724 64.6109 205.304C65.0309 204.872 65.5769 204.656 66.2489 204.656C67.2089 204.656 67.9709 204.902 68.5349 205.394L67.8149 206.366ZM71.3083 208.616C71.3083 209.3 71.4583 209.864 71.7583 210.308C72.0583 210.752 72.4723 210.974 73.0003 210.974C73.8283 210.974 74.3563 210.566 74.5843 209.75L76.2403 210.02C75.7003 211.496 74.6203 212.234 73.0003 212.234C71.9203 212.234 71.0563 211.892 70.4083 211.208C69.7723 210.512 69.4543 209.612 69.4543 208.508C69.4543 207.344 69.7603 206.414 70.3723 205.718C70.9963 205.01 71.8363 204.656 72.8923 204.656C73.9603 204.656 74.7883 204.992 75.3763 205.664C75.9763 206.324 76.2763 207.23 76.2763 208.382V208.616H71.3083ZM74.6563 207.644C74.6563 207.152 74.5003 206.72 74.1883 206.348C73.8883 205.976 73.4923 205.79 73.0003 205.79C72.5203 205.79 72.1243 205.988 71.8123 206.384C71.5123 206.768 71.3623 207.188 71.3623 207.644H74.6563ZM84.9758 205.538C85.4798 204.95 86.2298 204.656 87.2258 204.656C88.1618 204.656 88.9358 205.028 89.5478 205.772C90.1718 206.516 90.4838 207.392 90.4838 208.4C90.4838 209.492 90.1778 210.404 89.5658 211.136C88.9538 211.868 88.1618 212.234 87.1898 212.234C86.1458 212.234 85.4198 211.934 85.0118 211.334L84.9758 215.006H83.2298V204.89H84.9758V205.538ZM88.7018 208.436C88.7018 207.824 88.5278 207.296 88.1798 206.852C87.8318 206.396 87.3518 206.168 86.7398 206.168C86.1758 206.168 85.7078 206.396 85.3358 206.852C84.9638 207.308 84.7778 207.836 84.7778 208.436C84.7778 209.024 84.9758 209.552 85.3718 210.02C85.7678 210.488 86.2238 210.722 86.7398 210.722C87.3518 210.722 87.8318 210.506 88.1798 210.074C88.5278 209.642 88.7018 209.096 88.7018 208.436ZM98.4052 208.436C98.4052 209.552 98.0632 210.464 97.3792 211.172C96.6952 211.88 95.7952 212.234 94.6792 212.234C93.5752 212.234 92.6752 211.88 91.9792 211.172C91.2832 210.464 90.9352 209.558 90.9352 208.454C90.9352 207.338 91.2772 206.426 91.9612 205.718C92.6452 205.01 93.5452 204.656 94.6612 204.656C95.7772 204.656 96.6772 205.01 97.3612 205.718C98.0572 206.414 98.4052 207.32 98.4052 208.436ZM92.6992 208.472C92.6992 209.132 92.8852 209.672 93.2572 210.092C93.6292 210.512 94.1092 210.722 94.6972 210.722C95.2852 210.722 95.7532 210.5 96.1012 210.056C96.4612 209.6 96.6412 209.066 96.6412 208.454C96.6412 207.83 96.4612 207.296 96.1012 206.852C95.7412 206.396 95.2672 206.168 94.6792 206.168C94.1032 206.168 93.6292 206.384 93.2572 206.816C92.8852 207.248 92.6992 207.8 92.6992 208.472ZM100.716 208.616C100.716 209.3 100.866 209.864 101.166 210.308C101.466 210.752 101.88 210.974 102.408 210.974C103.236 210.974 103.764 210.566 103.992 209.75L105.648 210.02C105.108 211.496 104.028 212.234 102.408 212.234C101.328 212.234 100.464 211.892 99.8165 211.208C99.1805 210.512 98.8625 209.612 98.8625 208.508C98.8625 207.344 99.1685 206.414 99.7805 205.718C100.404 205.01 101.244 204.656 102.3 204.656C103.368 204.656 104.196 204.992 104.784 205.664C105.384 206.324 105.684 207.23 105.684 208.382V208.616H100.716ZM104.064 207.644C104.064 207.152 103.908 206.72 103.596 206.348C103.296 205.976 102.9 205.79 102.408 205.79C101.928 205.79 101.532 205.988 101.22 206.384C100.92 206.768 100.77 207.188 100.77 207.644H104.064ZM108.768 212H107.022V206.456H106.176V205.034H107.022V202.478H108.768V205.034H110.154V206.456H108.768V212ZM112.345 205.628C112.789 204.98 113.485 204.656 114.433 204.656C114.733 204.656 115.009 204.716 115.261 204.836L115.045 206.42C114.781 206.252 114.493 206.168 114.181 206.168C112.957 206.168 112.345 207.044 112.345 208.796V212H110.599V204.89H112.345V205.628ZM118.05 201.902C118.05 202.178 117.948 202.418 117.744 202.622C117.54 202.826 117.3 202.928 117.024 202.928C116.748 202.928 116.508 202.826 116.304 202.622C116.1 202.418 115.998 202.178 115.998 201.902C115.998 201.626 116.1 201.386 116.304 201.182C116.508 200.978 116.748 200.876 117.024 200.876C117.3 200.876 117.54 200.978 117.744 201.182C117.948 201.386 118.05 201.626 118.05 201.902ZM117.906 212H116.16V204.89H117.906V212ZM120.931 208.616C120.931 209.3 121.081 209.864 121.381 210.308C121.681 210.752 122.095 210.974 122.623 210.974C123.451 210.974 123.979 210.566 124.207 209.75L125.863 210.02C125.323 211.496 124.243 212.234 122.623 212.234C121.543 212.234 120.679 211.892 120.031 211.208C119.395 210.512 119.077 209.612 119.077 208.508C119.077 207.344 119.383 206.414 119.995 205.718C120.619 205.01 121.459 204.656 122.515 204.656C123.583 204.656 124.411 204.992 124.999 205.664C125.599 206.324 125.899 207.23 125.899 208.382V208.616H120.931ZM124.279 207.644C124.279 207.152 124.123 206.72 123.811 206.348C123.511 205.976 123.115 205.79 122.623 205.79C122.143 205.79 121.747 205.988 121.435 206.384C121.135 206.768 120.985 207.188 120.985 207.644H124.279ZM130.639 206.366C130.255 206.006 129.853 205.826 129.433 205.826C128.797 205.826 128.479 206.114 128.479 206.69C128.479 207.014 128.767 207.278 129.343 207.482C130.399 207.866 131.053 208.22 131.305 208.544C131.557 208.856 131.683 209.246 131.683 209.714C131.683 210.482 131.413 211.094 130.873 211.55C130.345 212.006 129.691 212.234 128.911 212.234C127.903 212.234 127.069 211.838 126.409 211.046L127.183 210.056C127.783 210.656 128.335 210.956 128.839 210.956C129.571 210.956 129.937 210.602 129.937 209.894C129.937 209.534 129.745 209.27 129.361 209.102C128.977 208.922 128.683 208.79 128.479 208.706C127.375 208.226 126.823 207.644 126.823 206.96C126.823 206.276 127.027 205.724 127.435 205.304C127.855 204.872 128.401 204.656 129.073 204.656C130.033 204.656 130.795 204.902 131.359 205.394L130.639 206.366ZM135.447 210.974C135.447 211.334 135.321 211.646 135.069 211.91C134.829 212.162 134.529 212.288 134.169 212.288C133.809 212.288 133.503 212.162 133.25 211.91C132.999 211.658 132.873 211.358 132.873 211.01C132.873 210.65 132.999 210.344 133.25 210.092C133.503 209.84 133.803 209.714 134.151 209.714C134.511 209.714 134.817 209.834 135.069 210.074C135.321 210.314 135.447 210.614 135.447 210.974Z" fill="white"/>
<path d="M221.758 292.434V294H214.414L217.186 290.49C218.506 288.858 219.28 287.838 219.508 287.43C219.748 287.01 219.868 286.668 219.868 286.404C219.88 286.332 219.886 286.26 219.886 286.188C219.886 285.708 219.724 285.282 219.4 284.91C219.088 284.538 218.674 284.352 218.158 284.352C217.642 284.352 217.234 284.562 216.934 284.982C216.646 285.402 216.502 285.912 216.502 286.512H214.558C214.558 285.432 214.876 284.544 215.512 283.848C216.16 283.14 217.036 282.786 218.14 282.786C219.136 282.786 219.976 283.122 220.66 283.794C221.344 284.466 221.686 285.306 221.686 286.314C221.686 287.262 220.96 288.582 219.508 290.274L217.654 292.434H221.758ZM230.467 288.546C230.467 290.13 230.119 291.486 229.423 292.614C228.727 293.73 227.767 294.288 226.543 294.288C225.331 294.288 224.377 293.724 223.681 292.596C222.985 291.468 222.637 290.118 222.637 288.546C222.637 286.914 222.985 285.546 223.681 284.442C224.389 283.338 225.349 282.786 226.561 282.786C227.773 282.786 228.727 283.35 229.423 284.478C230.119 285.594 230.467 286.95 230.467 288.546ZM224.437 288.528C224.437 289.632 224.629 290.61 225.013 291.462C225.397 292.302 225.919 292.722 226.579 292.722C227.239 292.722 227.749 292.326 228.109 291.534C228.481 290.742 228.667 289.74 228.667 288.528C228.667 287.412 228.475 286.44 228.091 285.612C227.707 284.772 227.191 284.352 226.543 284.352C225.907 284.352 225.397 284.79 225.013 285.666C224.629 286.53 224.437 287.484 224.437 288.528ZM232.84 284.64V283.074H236.26V294H234.406V284.64H232.84ZM240.092 285.9C240.092 284.976 240.398 284.226 241.01 283.65C241.622 283.074 242.384 282.786 243.296 282.786C244.208 282.786 244.97 283.074 245.582 283.65C246.194 284.226 246.5 284.976 246.5 285.9C246.5 287.028 246.02 287.832 245.06 288.312C246.236 288.744 246.824 289.668 246.824 291.084C246.824 292.044 246.476 292.818 245.78 293.406C245.096 293.994 244.262 294.288 243.278 294.288C242.294 294.288 241.46 293.994 240.776 293.406C240.092 292.806 239.75 292.032 239.75 291.084C239.75 289.692 240.338 288.768 241.514 288.312C240.566 287.82 240.092 287.016 240.092 285.9ZM241.604 290.85C241.604 291.462 241.766 291.942 242.09 292.29C242.414 292.638 242.828 292.812 243.332 292.812C243.836 292.812 244.232 292.632 244.52 292.272C244.82 291.9 244.97 291.426 244.97 290.85C244.97 290.346 244.814 289.92 244.502 289.572C244.19 289.224 243.788 289.05 243.296 289.05C242.852 289.05 242.456 289.23 242.108 289.59C241.772 289.938 241.604 290.358 241.604 290.85ZM241.748 285.9C241.748 286.392 241.898 286.794 242.198 287.106C242.498 287.418 242.864 287.574 243.296 287.574C243.74 287.574 244.106 287.43 244.394 287.142C244.694 286.842 244.844 286.428 244.844 285.9C244.844 285.372 244.7 284.94 244.412 284.604C244.136 284.256 243.77 284.082 243.314 284.082C242.858 284.082 242.48 284.244 242.18 284.568C241.892 284.88 241.748 285.324 241.748 285.9Z" fill="white"/>
<defs>
<linearGradient id="paint0_linear_3284_279" x1="50" y1="68" x2="50" y2="20" gradientUnits="userSpaceOnUse">
<stop stop-color="white"/>
<stop offset="1" stop-color="white" stop-opacity="0"/>
</linearGradient>
</defs>
</svg>
