<svg width="270" height="316" viewBox="0 0 270 316" fill="none" xmlns="http://www.w3.org/2000/svg">
<rect width="270" height="316" rx="11" transform="matrix(1 0 0 -1 0 316)" fill="black"/>
<path d="M40.504 140H38.032V125.432H41.896C45.272 125.432 46.96 126.936 46.96 129.944C46.96 133.016 45.408 134.552 42.304 134.552H40.504V140ZM40.504 132.584H41.728C43.536 132.584 44.44 131.704 44.44 129.944C44.44 128.248 43.512 127.4 41.656 127.4H40.504V132.584ZM50.6753 140H48.3473V123.608H50.6753V140ZM61.7485 140H59.4685V139.136C58.7965 139.92 57.7965 140.312 56.4685 140.312C55.1405 140.312 54.0765 139.8 53.2765 138.776C52.4925 137.752 52.1005 136.552 52.1005 135.176C52.1005 133.8 52.5005 132.632 53.3005 131.672C54.1165 130.696 55.1565 130.208 56.4205 130.208C57.7645 130.208 58.7805 130.608 59.4685 131.408V130.52H61.7485V140ZM59.7325 135.248C59.7325 134.368 59.4845 133.648 58.9885 133.088C58.4925 132.512 57.8525 132.224 57.0685 132.224C56.3005 132.224 55.6685 132.504 55.1725 133.064C54.6925 133.608 54.4525 134.336 54.4525 135.248C54.4525 136.16 54.7005 136.896 55.1965 137.456C55.6925 138.016 56.3325 138.296 57.1165 138.296C57.9005 138.296 58.5325 138.024 59.0125 137.48C59.4925 136.936 59.7325 136.192 59.7325 135.248ZM66.5504 126.536C66.5504 126.904 66.4144 127.224 66.1424 127.496C65.8704 127.768 65.5504 127.904 65.1824 127.904C64.8144 127.904 64.4944 127.768 64.2224 127.496C63.9504 127.224 63.8144 126.904 63.8144 126.536C63.8144 126.168 63.9504 125.848 64.2224 125.576C64.4944 125.304 64.8144 125.168 65.1824 125.168C65.5504 125.168 65.8704 125.304 66.1424 125.576C66.4144 125.848 66.5504 126.168 66.5504 126.536ZM66.3584 140H64.0304V130.52H66.3584V140ZM70.9208 131.384C71.5768 130.6 72.5448 130.208 73.8248 130.208C76.0008 130.208 77.0888 131.544 77.0888 134.216V140H74.7848V134.984C74.7848 132.984 74.1688 131.984 72.9368 131.984C71.5928 131.984 70.9208 133.056 70.9208 135.2V140H68.5928V130.52H70.9208V131.384ZM86.4141 132.752C86.4141 130.624 87.0941 128.808 88.4541 127.304C89.8301 125.8 91.5581 125.048 93.6381 125.048C95.7181 125.048 97.4381 125.8 98.7981 127.304C100.158 128.808 100.838 130.616 100.838 132.728C100.838 134.84 100.158 136.648 98.7981 138.152C97.4541 139.64 95.7341 140.384 93.6381 140.384C91.5421 140.384 89.8141 139.64 88.4541 138.152C87.0941 136.664 86.4141 134.864 86.4141 132.752ZM88.9821 132.584C88.9821 134.008 89.4301 135.264 90.3261 136.352C91.2221 137.424 92.3261 137.96 93.6381 137.96C95.0461 137.96 96.1741 137.448 97.0221 136.424C97.8701 135.384 98.2941 134.104 98.2941 132.584C98.2941 131.144 97.8701 129.936 97.0221 128.96C96.1741 127.968 95.0381 127.472 93.6141 127.472C92.2061 127.472 91.0781 127.968 90.2301 128.96C89.3981 129.952 88.9821 131.16 88.9821 132.584ZM109.283 128.384C108.659 127.504 107.867 127.064 106.907 127.064C106.299 127.064 105.787 127.248 105.371 127.616C104.955 127.984 104.747 128.48 104.747 129.104C104.747 129.712 105.499 130.44 107.003 131.288C108.523 132.136 109.291 132.56 109.307 132.56C110.379 133.36 110.915 134.304 110.915 135.392C110.915 136.88 110.483 138.088 109.619 139.016C108.771 139.928 107.603 140.384 106.115 140.384C104.227 140.384 102.739 139.44 101.651 137.552L103.211 136.016C103.419 136.576 103.803 137.088 104.363 137.552C104.923 138.016 105.499 138.248 106.091 138.248C106.795 138.248 107.347 138.008 107.747 137.528C108.163 137.048 108.371 136.464 108.371 135.776C108.371 135.28 108.219 134.848 107.915 134.48C107.611 134.096 106.579 133.52 104.819 132.752C103.075 131.968 102.203 130.856 102.203 129.416C102.203 128.184 102.603 127.152 103.403 126.32C104.219 125.472 105.235 125.048 106.451 125.048C108.131 125.048 109.459 125.592 110.435 126.68L109.283 128.384Z" fill="white"/>
<rect x="37" y="47" width="37.1" height="56" rx="6" fill="white"/>
<rect x="39.3999" y="49.3999" width="32.3" height="51.2" rx="4" fill="white" stroke="black" stroke-width="2"/>
<circle cx="55.8" cy="95.8" r="2.8" fill="black"/>
<path d="M38.774 187.074H41.834C43.394 187.074 44.66 187.59 45.632 188.622C46.616 189.654 47.108 190.956 47.108 192.528C47.108 194.1 46.61 195.408 45.614 196.452C44.63 197.484 43.364 198 41.816 198H38.774V187.074ZM40.628 196.326H41.258C43.874 196.326 45.182 195.066 45.182 192.546C45.182 190.014 43.874 188.748 41.258 188.748H40.628V196.326ZM49.4216 194.616C49.4216 195.3 49.5716 195.864 49.8716 196.308C50.1716 196.752 50.5856 196.974 51.1136 196.974C51.9416 196.974 52.4696 196.566 52.6976 195.75L54.3536 196.02C53.8136 197.496 52.7336 198.234 51.1136 198.234C50.0336 198.234 49.1696 197.892 48.5216 197.208C47.8856 196.512 47.5676 195.612 47.5676 194.508C47.5676 193.344 47.8736 192.414 48.4856 191.718C49.1096 191.01 49.9496 190.656 51.0056 190.656C52.0736 190.656 52.9016 190.992 53.4896 191.664C54.0896 192.324 54.3896 193.23 54.3896 194.382V194.616H49.4216ZM52.7696 193.644C52.7696 193.152 52.6136 192.72 52.3016 192.348C52.0016 191.976 51.6056 191.79 51.1136 191.79C50.6336 191.79 50.2376 191.988 49.9256 192.384C49.6256 192.768 49.4756 193.188 49.4756 193.644H52.7696ZM59.1293 192.366C58.7453 192.006 58.3433 191.826 57.9233 191.826C57.2873 191.826 56.9693 192.114 56.9693 192.69C56.9693 193.014 57.2573 193.278 57.8333 193.482C58.8893 193.866 59.5433 194.22 59.7953 194.544C60.0473 194.856 60.1733 195.246 60.1733 195.714C60.1733 196.482 59.9033 197.094 59.3633 197.55C58.8353 198.006 58.1813 198.234 57.4013 198.234C56.3933 198.234 55.5593 197.838 54.8993 197.046L55.6733 196.056C56.2733 196.656 56.8253 196.956 57.3293 196.956C58.0613 196.956 58.4273 196.602 58.4273 195.894C58.4273 195.534 58.2353 195.27 57.8513 195.102C57.4673 194.922 57.1733 194.79 56.9693 194.706C55.8653 194.226 55.3133 193.644 55.3133 192.96C55.3133 192.276 55.5173 191.724 55.9253 191.304C56.3453 190.872 56.8913 190.656 57.5633 190.656C58.5233 190.656 59.2853 190.902 59.8493 191.394L59.1293 192.366ZM63.4147 187.902C63.4147 188.178 63.3127 188.418 63.1087 188.622C62.9047 188.826 62.6647 188.928 62.3887 188.928C62.1127 188.928 61.8727 188.826 61.6687 188.622C61.4647 188.418 61.3627 188.178 61.3627 187.902C61.3627 187.626 61.4647 187.386 61.6687 187.182C61.8727 186.978 62.1127 186.876 62.3887 186.876C62.6647 186.876 62.9047 186.978 63.1087 187.182C63.3127 187.386 63.4147 187.626 63.4147 187.902ZM63.2707 198H61.5247V190.89H63.2707V198ZM71.7146 197.388C71.7146 199.824 70.5806 201.042 68.3126 201.042C67.3046 201.042 66.4526 200.766 65.7566 200.214C65.0606 199.674 64.7126 198.966 64.7126 198.09H66.5666C66.5666 198.438 66.7406 198.78 67.0886 199.116C67.4366 199.452 67.8266 199.62 68.2586 199.62C69.3986 199.62 69.9686 198.936 69.9686 197.568V197.118C69.4766 197.742 68.7266 198.054 67.7186 198.054C66.7226 198.054 65.9366 197.706 65.3606 197.01C64.7966 196.314 64.5146 195.462 64.5146 194.454C64.5146 193.362 64.8206 192.45 65.4326 191.718C66.0446 190.986 66.8366 190.62 67.8086 190.62C68.7926 190.62 69.5126 190.926 69.9686 191.538V190.854H71.7146V197.388ZM70.2206 194.292C70.2206 193.644 70.0406 193.122 69.6806 192.726C69.3206 192.33 68.8466 192.132 68.2586 192.132C67.6706 192.132 67.1906 192.348 66.8186 192.78C66.4586 193.212 66.2786 193.758 66.2786 194.418C66.2786 195.834 66.9386 196.542 68.2586 196.542C68.8586 196.542 69.3326 196.332 69.6806 195.912C70.0406 195.48 70.2206 194.94 70.2206 194.292ZM74.8312 191.538C75.3232 190.95 76.0492 190.656 77.0092 190.656C78.6412 190.656 79.4572 191.658 79.4572 193.662V198H77.7292V194.238C77.7292 192.738 77.2672 191.988 76.3432 191.988C75.3352 191.988 74.8312 192.792 74.8312 194.4V198H73.0852V190.89H74.8312V191.538ZM82.2575 194.616C82.2575 195.3 82.4075 195.864 82.7075 196.308C83.0075 196.752 83.4215 196.974 83.9495 196.974C84.7775 196.974 85.3055 196.566 85.5335 195.75L87.1895 196.02C86.6495 197.496 85.5695 198.234 83.9495 198.234C82.8695 198.234 82.0055 197.892 81.3575 197.208C80.7215 196.512 80.4035 195.612 80.4035 194.508C80.4035 193.344 80.7095 192.414 81.3215 191.718C81.9455 191.01 82.7855 190.656 83.8415 190.656C84.9095 190.656 85.7375 190.992 86.3255 191.664C86.9255 192.324 87.2255 193.23 87.2255 194.382V194.616H82.2575ZM85.6055 193.644C85.6055 193.152 85.4495 192.72 85.1375 192.348C84.8375 191.976 84.4415 191.79 83.9495 191.79C83.4695 191.79 83.0735 191.988 82.7615 192.384C82.4615 192.768 82.3115 193.188 82.3115 193.644H85.6055ZM93.1713 197.334C92.7033 197.934 91.9653 198.234 90.9573 198.234C89.9493 198.234 89.1453 197.85 88.5453 197.082C87.9573 196.314 87.6633 195.414 87.6633 194.382C87.6633 193.35 87.9633 192.474 88.5633 191.754C89.1753 191.022 89.9553 190.656 90.9033 190.656C91.9113 190.656 92.6553 190.95 93.1353 191.538L93.1713 185.706H94.9173V198H93.1713V197.334ZM93.3693 194.436C93.3693 193.812 93.1773 193.278 92.7933 192.834C92.4093 192.39 91.9473 192.168 91.4073 192.168C90.8673 192.168 90.3993 192.39 90.0033 192.834C89.6193 193.266 89.4273 193.806 89.4273 194.454C89.4273 195.09 89.6133 195.63 89.9853 196.074C90.3693 196.506 90.8493 196.722 91.4253 196.722C92.0013 196.722 92.4693 196.512 92.8293 196.092C93.1893 195.66 93.3693 195.108 93.3693 194.436ZM109.102 198H107.392V197.352C106.888 197.94 106.138 198.234 105.142 198.234C104.146 198.234 103.348 197.85 102.748 197.082C102.16 196.314 101.866 195.414 101.866 194.382C101.866 193.35 102.166 192.474 102.766 191.754C103.378 191.022 104.158 190.656 105.106 190.656C106.114 190.656 106.876 190.956 107.392 191.556V190.89H109.102V198ZM107.59 194.436C107.59 193.776 107.404 193.236 107.032 192.816C106.66 192.384 106.18 192.168 105.592 192.168C105.016 192.168 104.542 192.378 104.17 192.798C103.81 193.206 103.63 193.752 103.63 194.436C103.63 195.12 103.816 195.672 104.188 196.092C104.56 196.512 105.04 196.722 105.628 196.722C106.216 196.722 106.69 196.518 107.05 196.11C107.41 195.702 107.59 195.144 107.59 194.436ZM121.416 192.744C120.972 192.3 120.474 192.078 119.922 192.078C119.274 192.078 118.764 192.312 118.392 192.78C118.02 193.248 117.834 193.824 117.834 194.508C117.834 195.18 118.044 195.732 118.464 196.164C118.884 196.596 119.394 196.812 119.994 196.812C120.51 196.812 120.984 196.584 121.416 196.128V197.802C120.912 198.09 120.33 198.234 119.67 198.234C118.638 198.234 117.78 197.868 117.096 197.136C116.412 196.404 116.07 195.51 116.07 194.454C116.07 193.398 116.418 192.504 117.114 191.772C117.822 191.028 118.704 190.656 119.76 190.656C120.384 190.656 120.936 190.806 121.416 191.106V192.744ZM129.657 194.436C129.657 195.552 129.315 196.464 128.631 197.172C127.947 197.88 127.047 198.234 125.931 198.234C124.827 198.234 123.927 197.88 123.231 197.172C122.535 196.464 122.187 195.558 122.187 194.454C122.187 193.338 122.529 192.426 123.213 191.718C123.897 191.01 124.797 190.656 125.913 190.656C127.029 190.656 127.929 191.01 128.613 191.718C129.309 192.414 129.657 193.32 129.657 194.436ZM123.951 194.472C123.951 195.132 124.137 195.672 124.509 196.092C124.881 196.512 125.361 196.722 125.949 196.722C126.537 196.722 127.005 196.5 127.353 196.056C127.713 195.6 127.893 195.066 127.893 194.454C127.893 193.83 127.713 193.296 127.353 192.852C126.993 192.396 126.519 192.168 125.931 192.168C125.355 192.168 124.881 192.384 124.509 192.816C124.137 193.248 123.951 193.8 123.951 194.472ZM132.364 191.538C132.856 190.95 133.582 190.656 134.542 190.656C136.174 190.656 136.99 191.658 136.99 193.662V198H135.262V194.238C135.262 192.738 134.8 191.988 133.876 191.988C132.868 191.988 132.364 192.792 132.364 194.4V198H130.618V190.89H132.364V191.538ZM143.283 192.744C142.839 192.3 142.341 192.078 141.789 192.078C141.141 192.078 140.631 192.312 140.259 192.78C139.887 193.248 139.701 193.824 139.701 194.508C139.701 195.18 139.911 195.732 140.331 196.164C140.751 196.596 141.261 196.812 141.861 196.812C142.377 196.812 142.851 196.584 143.283 196.128V197.802C142.779 198.09 142.197 198.234 141.537 198.234C140.505 198.234 139.647 197.868 138.963 197.136C138.279 196.404 137.937 195.51 137.937 194.454C137.937 193.398 138.285 192.504 138.981 191.772C139.689 191.028 140.571 190.656 141.627 190.656C142.251 190.656 142.803 190.806 143.283 191.106V192.744ZM146.682 187.902C146.682 188.178 146.58 188.418 146.376 188.622C146.172 188.826 145.932 188.928 145.656 188.928C145.38 188.928 145.14 188.826 144.936 188.622C144.732 188.418 144.63 188.178 144.63 187.902C144.63 187.626 144.732 187.386 144.936 187.182C145.14 186.978 145.38 186.876 145.656 186.876C145.932 186.876 146.172 186.978 146.376 187.182C146.58 187.386 146.682 187.626 146.682 187.902ZM146.538 198H144.792V190.89H146.538V198ZM152.012 192.366C151.628 192.006 151.226 191.826 150.806 191.826C150.17 191.826 149.852 192.114 149.852 192.69C149.852 193.014 150.14 193.278 150.716 193.482C151.772 193.866 152.426 194.22 152.678 194.544C152.93 194.856 153.056 195.246 153.056 195.714C153.056 196.482 152.786 197.094 152.246 197.55C151.718 198.006 151.064 198.234 150.284 198.234C149.276 198.234 148.442 197.838 147.782 197.046L148.556 196.056C149.156 196.656 149.708 196.956 150.212 196.956C150.944 196.956 151.31 196.602 151.31 195.894C151.31 195.534 151.118 195.27 150.734 195.102C150.35 194.922 150.056 194.79 149.852 194.706C148.748 194.226 148.196 193.644 148.196 192.96C148.196 192.276 148.4 191.724 148.808 191.304C149.228 190.872 149.774 190.656 150.446 190.656C151.406 190.656 152.168 190.902 152.732 191.394L152.012 192.366ZM155.506 194.616C155.506 195.3 155.656 195.864 155.956 196.308C156.256 196.752 156.67 196.974 157.198 196.974C158.026 196.974 158.554 196.566 158.782 195.75L160.438 196.02C159.898 197.496 158.818 198.234 157.198 198.234C156.118 198.234 155.254 197.892 154.606 197.208C153.97 196.512 153.652 195.612 153.652 194.508C153.652 193.344 153.958 192.414 154.57 191.718C155.194 191.01 156.034 190.656 157.09 190.656C158.158 190.656 158.986 190.992 159.574 191.664C160.174 192.324 160.474 193.23 160.474 194.382V194.616H155.506ZM158.854 193.644C158.854 193.152 158.698 192.72 158.386 192.348C158.086 191.976 157.69 191.79 157.198 191.79C156.718 191.79 156.322 191.988 156.01 192.384C155.71 192.768 155.56 193.188 155.56 193.644H158.854ZM169.173 191.52C169.617 190.944 170.301 190.656 171.225 190.656C172.029 190.656 172.665 191.028 173.133 191.772C173.589 191.028 174.327 190.656 175.347 190.656C176.847 190.656 177.597 191.628 177.597 193.572V198H175.869V194.256C175.869 192.744 175.455 191.988 174.627 191.988C173.799 191.988 173.385 192.828 173.385 194.508V198H171.639V194.4C171.639 192.792 171.273 191.988 170.541 191.988C169.629 191.988 169.173 192.828 169.173 194.508V198H167.427V190.89H169.173V191.52ZM186.048 194.436C186.048 195.552 185.706 196.464 185.022 197.172C184.338 197.88 183.438 198.234 182.322 198.234C181.218 198.234 180.318 197.88 179.622 197.172C178.926 196.464 178.578 195.558 178.578 194.454C178.578 193.338 178.92 192.426 179.604 191.718C180.288 191.01 181.188 190.656 182.304 190.656C183.42 190.656 184.32 191.01 185.004 191.718C185.7 192.414 186.048 193.32 186.048 194.436ZM180.342 194.472C180.342 195.132 180.528 195.672 180.9 196.092C181.272 196.512 181.752 196.722 182.34 196.722C182.928 196.722 183.396 196.5 183.744 196.056C184.104 195.6 184.284 195.066 184.284 194.454C184.284 193.83 184.104 193.296 183.744 192.852C183.384 192.396 182.91 192.168 182.322 192.168C181.746 192.168 181.272 192.384 180.9 192.816C180.528 193.248 180.342 193.8 180.342 194.472ZM187.009 185.706H188.755V191.538C189.259 190.95 190.009 190.656 191.005 190.656C191.941 190.656 192.715 191.028 193.327 191.772C193.951 192.516 194.263 193.392 194.263 194.4C194.263 195.492 193.957 196.404 193.345 197.136C192.733 197.868 191.941 198.234 190.969 198.234C189.925 198.234 189.199 197.934 188.791 197.334L188.755 198H187.009V185.706ZM192.481 194.436C192.481 193.836 192.295 193.308 191.923 192.852C191.551 192.396 191.077 192.168 190.501 192.168C189.925 192.168 189.457 192.396 189.097 192.852C188.737 193.296 188.557 193.83 188.557 194.454C188.557 195.066 188.743 195.6 189.115 196.056C189.499 196.5 189.967 196.722 190.519 196.722C191.119 196.722 191.593 196.506 191.941 196.074C192.301 195.63 192.481 195.084 192.481 194.436ZM197.342 187.902C197.342 188.178 197.24 188.418 197.036 188.622C196.832 188.826 196.592 188.928 196.316 188.928C196.04 188.928 195.8 188.826 195.596 188.622C195.392 188.418 195.29 188.178 195.29 187.902C195.29 187.626 195.392 187.386 195.596 187.182C195.8 186.978 196.04 186.876 196.316 186.876C196.592 186.876 196.832 186.978 197.036 187.182C197.24 187.386 197.342 187.626 197.342 187.902ZM197.198 198H195.452V190.89H197.198V198ZM200.764 198H199.018V185.706H200.764V198ZM203.687 194.616C203.687 195.3 203.837 195.864 204.137 196.308C204.437 196.752 204.851 196.974 205.379 196.974C206.207 196.974 206.735 196.566 206.963 195.75L208.619 196.02C208.079 197.496 206.999 198.234 205.379 198.234C204.299 198.234 203.435 197.892 202.787 197.208C202.151 196.512 201.833 195.612 201.833 194.508C201.833 193.344 202.139 192.414 202.751 191.718C203.375 191.01 204.215 190.656 205.271 190.656C206.339 190.656 207.167 190.992 207.755 191.664C208.355 192.324 208.655 193.23 208.655 194.382V194.616H203.687ZM207.035 193.644C207.035 193.152 206.879 192.72 206.567 192.348C206.267 191.976 205.871 191.79 205.379 191.79C204.899 191.79 204.503 191.988 204.191 192.384C203.891 192.768 203.741 193.188 203.741 193.644H207.035ZM40.862 205.902C40.862 206.178 40.76 206.418 40.556 206.622C40.352 206.826 40.112 206.928 39.836 206.928C39.56 206.928 39.32 206.826 39.116 206.622C38.912 206.418 38.81 206.178 38.81 205.902C38.81 205.626 38.912 205.386 39.116 205.182C39.32 204.978 39.56 204.876 39.836 204.876C40.112 204.876 40.352 204.978 40.556 205.182C40.76 205.386 40.862 205.626 40.862 205.902ZM40.718 216H38.972V208.89H40.718V216ZM44.1398 209.538C44.6318 208.95 45.3578 208.656 46.3178 208.656C47.9498 208.656 48.7658 209.658 48.7658 211.662V216H47.0378V212.238C47.0378 210.738 46.5758 209.988 45.6518 209.988C44.6438 209.988 44.1398 210.792 44.1398 212.4V216H42.3938V208.89H44.1398V209.538ZM52.3581 216H50.6121V210.456H49.7661V209.034H50.6121V206.478H52.3581V209.034H53.7441V210.456H52.3581V216ZM55.5388 212.616C55.5388 213.3 55.6888 213.864 55.9888 214.308C56.2888 214.752 56.7028 214.974 57.2308 214.974C58.0588 214.974 58.5868 214.566 58.8148 213.75L60.4708 214.02C59.9308 215.496 58.8508 216.234 57.2308 216.234C56.1508 216.234 55.2868 215.892 54.6388 215.208C54.0028 214.512 53.6848 213.612 53.6848 212.508C53.6848 211.344 53.9908 210.414 54.6028 209.718C55.2268 209.01 56.0668 208.656 57.1228 208.656C58.1908 208.656 59.0188 208.992 59.6068 209.664C60.2068 210.324 60.5068 211.23 60.5068 212.382V212.616H55.5388ZM58.8868 211.644C58.8868 211.152 58.7308 210.72 58.4188 210.348C58.1188 209.976 57.7228 209.79 57.2308 209.79C56.7508 209.79 56.3548 209.988 56.0428 210.384C55.7428 210.768 55.5928 211.188 55.5928 211.644H58.8868ZM63.1945 209.628C63.6385 208.98 64.3345 208.656 65.2825 208.656C65.5825 208.656 65.8585 208.716 66.1105 208.836L65.8945 210.42C65.6305 210.252 65.3425 210.168 65.0305 210.168C63.8065 210.168 63.1945 211.044 63.1945 212.796V216H61.4485V208.89H63.1945V209.628ZM68.7191 216H66.9731V210.456H66.1451V209.034H66.9731V206.802C66.9731 204.63 67.8191 203.544 69.5111 203.544C69.8591 203.544 70.1831 203.622 70.4831 203.778V205.29C70.1711 205.134 69.8951 205.056 69.6551 205.056C69.3311 205.056 69.0911 205.176 68.9351 205.416C68.7911 205.644 68.7191 206.202 68.7191 207.09V209.034H70.4831V210.456H68.7191V216ZM77.8836 216H76.1736V215.352C75.6696 215.94 74.9196 216.234 73.9236 216.234C72.9276 216.234 72.1296 215.85 71.5296 215.082C70.9416 214.314 70.6476 213.414 70.6476 212.382C70.6476 211.35 70.9476 210.474 71.5476 209.754C72.1596 209.022 72.9396 208.656 73.8876 208.656C74.8956 208.656 75.6576 208.956 76.1736 209.556V208.89H77.8836V216ZM76.3716 212.436C76.3716 211.776 76.1856 211.236 75.8136 210.816C75.4416 210.384 74.9616 210.168 74.3736 210.168C73.7976 210.168 73.3236 210.378 72.9516 210.798C72.5916 211.206 72.4116 211.752 72.4116 212.436C72.4116 213.12 72.5976 213.672 72.9696 214.092C73.3416 214.512 73.8216 214.722 74.4096 214.722C74.9976 214.722 75.4716 214.518 75.8316 214.11C76.1916 213.702 76.3716 213.144 76.3716 212.436ZM84.185 210.744C83.741 210.3 83.243 210.078 82.691 210.078C82.043 210.078 81.533 210.312 81.161 210.78C80.789 211.248 80.603 211.824 80.603 212.508C80.603 213.18 80.813 213.732 81.233 214.164C81.653 214.596 82.163 214.812 82.763 214.812C83.279 214.812 83.753 214.584 84.185 214.128V215.802C83.681 216.09 83.099 216.234 82.439 216.234C81.407 216.234 80.549 215.868 79.865 215.136C79.181 214.404 78.839 213.51 78.839 212.454C78.839 211.398 79.187 210.504 79.883 209.772C80.591 209.028 81.473 208.656 82.529 208.656C83.153 208.656 83.705 208.806 84.185 209.106V210.744ZM86.7927 212.616C86.7927 213.3 86.9427 213.864 87.2427 214.308C87.5427 214.752 87.9567 214.974 88.4847 214.974C89.3127 214.974 89.8407 214.566 90.0687 213.75L91.7247 214.02C91.1847 215.496 90.1047 216.234 88.4847 216.234C87.4047 216.234 86.5407 215.892 85.8927 215.208C85.2567 214.512 84.9387 213.612 84.9387 212.508C84.9387 211.344 85.2447 210.414 85.8567 209.718C86.4807 209.01 87.3207 208.656 88.3767 208.656C89.4447 208.656 90.2727 208.992 90.8607 209.664C91.4607 210.324 91.7607 211.23 91.7607 212.382V212.616H86.7927ZM90.1407 211.644C90.1407 211.152 89.9847 210.72 89.6727 210.348C89.3727 209.976 88.9767 209.79 88.4847 209.79C88.0047 209.79 87.6087 209.988 87.2967 210.384C86.9967 210.768 86.8467 211.188 86.8467 211.644H90.1407ZM105.446 216H103.736V215.352C103.232 215.94 102.482 216.234 101.486 216.234C100.49 216.234 99.6921 215.85 99.0921 215.082C98.5041 214.314 98.2101 213.414 98.2101 212.382C98.2101 211.35 98.5101 210.474 99.1101 209.754C99.7221 209.022 100.502 208.656 101.45 208.656C102.458 208.656 103.22 208.956 103.736 209.556V208.89H105.446V216ZM103.934 212.436C103.934 211.776 103.748 211.236 103.376 210.816C103.004 210.384 102.524 210.168 101.936 210.168C101.36 210.168 100.886 210.378 100.514 210.798C100.154 211.206 99.9741 211.752 99.9741 212.436C99.9741 213.12 100.16 213.672 100.532 214.092C100.904 214.512 101.384 214.722 101.972 214.722C102.56 214.722 103.034 214.518 103.394 214.11C103.754 213.702 103.934 213.144 103.934 212.436ZM108.652 209.538C109.144 208.95 109.87 208.656 110.83 208.656C112.462 208.656 113.278 209.658 113.278 211.662V216H111.55V212.238C111.55 210.738 111.088 209.988 110.164 209.988C109.156 209.988 108.652 210.792 108.652 212.4V216H106.906V208.89H108.652V209.538ZM119.732 215.334C119.264 215.934 118.526 216.234 117.518 216.234C116.51 216.234 115.706 215.85 115.106 215.082C114.518 214.314 114.224 213.414 114.224 212.382C114.224 211.35 114.524 210.474 115.124 209.754C115.736 209.022 116.516 208.656 117.464 208.656C118.472 208.656 119.216 208.95 119.696 209.538L119.732 203.706H121.478V216H119.732V215.334ZM119.93 212.436C119.93 211.812 119.738 211.278 119.354 210.834C118.97 210.39 118.508 210.168 117.968 210.168C117.428 210.168 116.96 210.39 116.564 210.834C116.18 211.266 115.988 211.806 115.988 212.454C115.988 213.09 116.174 213.63 116.546 214.074C116.93 214.506 117.41 214.722 117.986 214.722C118.562 214.722 119.03 214.512 119.39 214.092C119.75 213.66 119.93 213.108 119.93 212.436ZM131.073 205.902C131.073 206.178 130.971 206.418 130.767 206.622C130.563 206.826 130.323 206.928 130.047 206.928C129.771 206.928 129.531 206.826 129.327 206.622C129.123 206.418 129.021 206.178 129.021 205.902C129.021 205.626 129.123 205.386 129.327 205.182C129.531 204.978 129.771 204.876 130.047 204.876C130.323 204.876 130.563 204.978 130.767 205.182C130.971 205.386 131.073 205.626 131.073 205.902ZM130.929 216H129.183V208.89H130.929V216ZM134.747 216H133.001V210.456H132.155V209.034H133.001V206.478H134.747V209.034H136.133V210.456H134.747V216ZM140.375 210.366C139.991 210.006 139.589 209.826 139.169 209.826C138.533 209.826 138.215 210.114 138.215 210.69C138.215 211.014 138.503 211.278 139.079 211.482C140.135 211.866 140.789 212.22 141.041 212.544C141.293 212.856 141.419 213.246 141.419 213.714C141.419 214.482 141.149 215.094 140.609 215.55C140.081 216.006 139.427 216.234 138.647 216.234C137.639 216.234 136.805 215.838 136.145 215.046L136.919 214.056C137.519 214.656 138.071 214.956 138.575 214.956C139.307 214.956 139.673 214.602 139.673 213.894C139.673 213.534 139.481 213.27 139.097 213.102C138.713 212.922 138.419 212.79 138.215 212.706C137.111 212.226 136.559 211.644 136.559 210.96C136.559 210.276 136.763 209.724 137.171 209.304C137.591 208.872 138.137 208.656 138.809 208.656C139.769 208.656 140.531 208.902 141.095 209.394L140.375 210.366ZM151.231 213.534L153.121 208.656H153.751L155.731 213.516L157.495 208.89H159.421L156.109 216.144H155.227L153.589 211.59L151.717 216.144H150.817L147.559 208.89H149.485L151.231 213.534ZM166.6 216H164.89V215.352C164.386 215.94 163.636 216.234 162.64 216.234C161.644 216.234 160.846 215.85 160.246 215.082C159.658 214.314 159.364 213.414 159.364 212.382C159.364 211.35 159.664 210.474 160.264 209.754C160.876 209.022 161.656 208.656 162.604 208.656C163.612 208.656 164.374 208.956 164.89 209.556V208.89H166.6V216ZM165.088 212.436C165.088 211.776 164.902 211.236 164.53 210.816C164.158 210.384 163.678 210.168 163.09 210.168C162.514 210.168 162.04 210.378 161.668 210.798C161.308 211.206 161.128 211.752 161.128 212.436C161.128 213.12 161.314 213.672 161.686 214.092C162.058 214.512 162.538 214.722 163.126 214.722C163.714 214.722 164.188 214.518 164.548 214.11C164.908 213.702 165.088 213.144 165.088 212.436ZM167.232 208.89H169.248L171.102 213.156L173.046 208.89H175.026L169.986 218.97H168.042L170.238 214.902L167.232 208.89ZM188.597 212.436C188.597 213.552 188.255 214.464 187.571 215.172C186.887 215.88 185.987 216.234 184.871 216.234C183.767 216.234 182.867 215.88 182.171 215.172C181.475 214.464 181.127 213.558 181.127 212.454C181.127 211.338 181.469 210.426 182.153 209.718C182.837 209.01 183.737 208.656 184.853 208.656C185.969 208.656 186.869 209.01 187.553 209.718C188.249 210.414 188.597 211.32 188.597 212.436ZM182.891 212.472C182.891 213.132 183.077 213.672 183.449 214.092C183.821 214.512 184.301 214.722 184.889 214.722C185.477 214.722 185.945 214.5 186.293 214.056C186.653 213.6 186.833 213.066 186.833 212.454C186.833 211.83 186.653 211.296 186.293 210.852C185.933 210.396 185.459 210.168 184.871 210.168C184.295 210.168 183.821 210.384 183.449 210.816C183.077 211.248 182.891 211.8 182.891 212.472ZM191.52 216H189.774V210.456H188.946V209.034H189.774V206.802C189.774 204.63 190.62 203.544 192.312 203.544C192.66 203.544 192.984 203.622 193.284 203.778V205.29C192.972 205.134 192.696 205.056 192.456 205.056C192.132 205.056 191.892 205.176 191.736 205.416C191.592 205.644 191.52 206.202 191.52 207.09V209.034H193.284V210.456H191.52V216ZM40.862 223.902C40.862 224.178 40.76 224.418 40.556 224.622C40.352 224.826 40.112 224.928 39.836 224.928C39.56 224.928 39.32 224.826 39.116 224.622C38.912 224.418 38.81 224.178 38.81 223.902C38.81 223.626 38.912 223.386 39.116 223.182C39.32 222.978 39.56 222.876 39.836 222.876C40.112 222.876 40.352 222.978 40.556 223.182C40.76 223.386 40.862 223.626 40.862 223.902ZM40.718 234H38.972V226.89H40.718V234ZM44.1398 227.538C44.6318 226.95 45.3578 226.656 46.3178 226.656C47.9498 226.656 48.7658 227.658 48.7658 229.662V234H47.0378V230.238C47.0378 228.738 46.5758 227.988 45.6518 227.988C44.6438 227.988 44.1398 228.792 44.1398 230.4V234H42.3938V226.89H44.1398V227.538ZM52.3581 234H50.6121V228.456H49.7661V227.034H50.6121V224.478H52.3581V227.034H53.7441V228.456H52.3581V234ZM55.5388 230.616C55.5388 231.3 55.6888 231.864 55.9888 232.308C56.2888 232.752 56.7028 232.974 57.2308 232.974C58.0588 232.974 58.5868 232.566 58.8148 231.75L60.4708 232.02C59.9308 233.496 58.8508 234.234 57.2308 234.234C56.1508 234.234 55.2868 233.892 54.6388 233.208C54.0028 232.512 53.6848 231.612 53.6848 230.508C53.6848 229.344 53.9908 228.414 54.6028 227.718C55.2268 227.01 56.0668 226.656 57.1228 226.656C58.1908 226.656 59.0188 226.992 59.6068 227.664C60.2068 228.324 60.5068 229.23 60.5068 230.382V230.616H55.5388ZM58.8868 229.644C58.8868 229.152 58.7308 228.72 58.4188 228.348C58.1188 227.976 57.7228 227.79 57.2308 227.79C56.7508 227.79 56.3548 227.988 56.0428 228.384C55.7428 228.768 55.5928 229.188 55.5928 229.644H58.8868ZM63.1945 227.628C63.6385 226.98 64.3345 226.656 65.2825 226.656C65.5825 226.656 65.8585 226.716 66.1105 226.836L65.8945 228.42C65.6305 228.252 65.3425 228.168 65.0305 228.168C63.8065 228.168 63.1945 229.044 63.1945 230.796V234H61.4485V226.89H63.1945V227.628ZM73.4891 234H71.7791V233.352C71.2751 233.94 70.5251 234.234 69.5291 234.234C68.5331 234.234 67.7351 233.85 67.1351 233.082C66.5471 232.314 66.2531 231.414 66.2531 230.382C66.2531 229.35 66.5531 228.474 67.1531 227.754C67.7651 227.022 68.5451 226.656 69.4931 226.656C70.5011 226.656 71.2631 226.956 71.7791 227.556V226.89H73.4891V234ZM71.9771 230.436C71.9771 229.776 71.7911 229.236 71.4191 228.816C71.0471 228.384 70.5671 228.168 69.9791 228.168C69.4031 228.168 68.9291 228.378 68.5571 228.798C68.1971 229.206 68.0171 229.752 68.0171 230.436C68.0171 231.12 68.2031 231.672 68.5751 232.092C68.9471 232.512 69.4271 232.722 70.0151 232.722C70.6031 232.722 71.0771 232.518 71.4371 232.11C71.7971 231.702 71.9771 231.144 71.9771 230.436ZM79.7905 228.744C79.3465 228.3 78.8485 228.078 78.2965 228.078C77.6485 228.078 77.1385 228.312 76.7665 228.78C76.3945 229.248 76.2085 229.824 76.2085 230.508C76.2085 231.18 76.4185 231.732 76.8385 232.164C77.2585 232.596 77.7685 232.812 78.3685 232.812C78.8845 232.812 79.3585 232.584 79.7905 232.128V233.802C79.2865 234.09 78.7045 234.234 78.0445 234.234C77.0125 234.234 76.1545 233.868 75.4705 233.136C74.7865 232.404 74.4445 231.51 74.4445 230.454C74.4445 229.398 74.7925 228.504 75.4885 227.772C76.1965 227.028 77.0785 226.656 78.1345 226.656C78.7585 226.656 79.3105 226.806 79.7905 227.106V228.744ZM83.1901 234H81.4441V228.456H80.5981V227.034H81.4441V224.478H83.1901V227.034H84.5761V228.456H83.1901V234ZM87.1628 223.902C87.1628 224.178 87.0608 224.418 86.8568 224.622C86.6528 224.826 86.4128 224.928 86.1368 224.928C85.8608 224.928 85.6208 224.826 85.4168 224.622C85.2128 224.418 85.1108 224.178 85.1108 223.902C85.1108 223.626 85.2128 223.386 85.4168 223.182C85.6208 222.978 85.8608 222.876 86.1368 222.876C86.4128 222.876 86.6528 222.978 86.8568 223.182C87.0608 223.386 87.1628 223.626 87.1628 223.902ZM87.0188 234H85.2728V226.89H87.0188V234ZM95.6786 230.436C95.6786 231.552 95.3366 232.464 94.6526 233.172C93.9686 233.88 93.0686 234.234 91.9526 234.234C90.8486 234.234 89.9486 233.88 89.2526 233.172C88.5566 232.464 88.2086 231.558 88.2086 230.454C88.2086 229.338 88.5506 228.426 89.2346 227.718C89.9186 227.01 90.8186 226.656 91.9346 226.656C93.0506 226.656 93.9506 227.01 94.6346 227.718C95.3306 228.414 95.6786 229.32 95.6786 230.436ZM89.9726 230.472C89.9726 231.132 90.1586 231.672 90.5306 232.092C90.9026 232.512 91.3826 232.722 91.9706 232.722C92.5586 232.722 93.0266 232.5 93.3746 232.056C93.7346 231.6 93.9146 231.066 93.9146 230.454C93.9146 229.83 93.7346 229.296 93.3746 228.852C93.0146 228.396 92.5406 228.168 91.9526 228.168C91.3766 228.168 90.9026 228.384 90.5306 228.816C90.1586 229.248 89.9726 229.8 89.9726 230.472ZM98.3859 227.538C98.8779 226.95 99.6039 226.656 100.564 226.656C102.196 226.656 103.012 227.658 103.012 229.662V234H101.284V230.238C101.284 228.738 100.822 227.988 99.8979 227.988C98.8899 227.988 98.3859 228.792 98.3859 230.4V234H96.6399V226.89H98.3859V227.538ZM107.558 231.948L105.47 236.304L104.12 236.142L105.704 231.732L107.558 231.948ZM121.407 234H119.697V233.352C119.193 233.94 118.443 234.234 117.447 234.234C116.451 234.234 115.653 233.85 115.053 233.082C114.465 232.314 114.171 231.414 114.171 230.382C114.171 229.35 114.471 228.474 115.071 227.754C115.683 227.022 116.463 226.656 117.411 226.656C118.419 226.656 119.181 226.956 119.697 227.556V226.89H121.407V234ZM119.895 230.436C119.895 229.776 119.709 229.236 119.337 228.816C118.965 228.384 118.485 228.168 117.897 228.168C117.321 228.168 116.847 228.378 116.475 228.798C116.115 229.206 115.935 229.752 115.935 230.436C115.935 231.12 116.121 231.672 116.493 232.092C116.865 232.512 117.345 232.722 117.933 232.722C118.521 232.722 118.995 232.518 119.355 232.11C119.715 231.702 119.895 231.144 119.895 230.436ZM125.008 223.902C125.008 224.178 124.906 224.418 124.702 224.622C124.498 224.826 124.258 224.928 123.982 224.928C123.706 224.928 123.466 224.826 123.262 224.622C123.058 224.418 122.956 224.178 122.956 223.902C122.956 223.626 123.058 223.386 123.262 223.182C123.466 222.978 123.706 222.876 123.982 222.876C124.258 222.876 124.498 222.978 124.702 223.182C124.906 223.386 125.008 223.626 125.008 223.902ZM124.864 234H123.118V226.89H124.864V234ZM128.286 227.52C128.73 226.944 129.414 226.656 130.338 226.656C131.142 226.656 131.778 227.028 132.246 227.772C132.702 227.028 133.44 226.656 134.46 226.656C135.96 226.656 136.71 227.628 136.71 229.572V234H134.982V230.256C134.982 228.744 134.568 227.988 133.74 227.988C132.912 227.988 132.498 228.828 132.498 230.508V234H130.752V230.4C130.752 228.792 130.386 227.988 129.654 227.988C128.742 227.988 128.286 228.828 128.286 230.508V234H126.54V226.89H128.286V227.52ZM139.527 230.616C139.527 231.3 139.677 231.864 139.977 232.308C140.277 232.752 140.691 232.974 141.219 232.974C142.047 232.974 142.575 232.566 142.803 231.75L144.459 232.02C143.919 233.496 142.839 234.234 141.219 234.234C140.139 234.234 139.275 233.892 138.627 233.208C137.991 232.512 137.673 231.612 137.673 230.508C137.673 229.344 137.979 228.414 138.591 227.718C139.215 227.01 140.055 226.656 141.111 226.656C142.179 226.656 143.007 226.992 143.595 227.664C144.195 228.324 144.495 229.23 144.495 230.382V230.616H139.527ZM142.875 229.644C142.875 229.152 142.719 228.72 142.407 228.348C142.107 227.976 141.711 227.79 141.219 227.79C140.739 227.79 140.343 227.988 140.031 228.384C139.731 228.768 139.581 229.188 139.581 229.644H142.875ZM150.441 233.334C149.973 233.934 149.235 234.234 148.227 234.234C147.219 234.234 146.415 233.85 145.815 233.082C145.227 232.314 144.933 231.414 144.933 230.382C144.933 229.35 145.233 228.474 145.833 227.754C146.445 227.022 147.225 226.656 148.173 226.656C149.181 226.656 149.925 226.95 150.405 227.538L150.441 221.706H152.187V234H150.441V233.334ZM150.639 230.436C150.639 229.812 150.447 229.278 150.063 228.834C149.679 228.39 149.217 228.168 148.677 228.168C148.137 228.168 147.669 228.39 147.273 228.834C146.889 229.266 146.697 229.806 146.697 230.454C146.697 231.09 146.883 231.63 147.255 232.074C147.639 232.506 148.119 232.722 148.695 232.722C149.271 232.722 149.739 232.512 150.099 232.092C150.459 231.66 150.639 231.108 150.639 230.436ZM161.782 234H160.036V228.456H159.19V227.034H160.036V224.478H161.782V227.034H163.168V228.456H161.782V234ZM170.597 230.436C170.597 231.552 170.255 232.464 169.571 233.172C168.887 233.88 167.987 234.234 166.871 234.234C165.767 234.234 164.867 233.88 164.171 233.172C163.475 232.464 163.127 231.558 163.127 230.454C163.127 229.338 163.469 228.426 164.153 227.718C164.837 227.01 165.737 226.656 166.853 226.656C167.969 226.656 168.869 227.01 169.553 227.718C170.249 228.414 170.597 229.32 170.597 230.436ZM164.891 230.472C164.891 231.132 165.077 231.672 165.449 232.092C165.821 232.512 166.301 232.722 166.889 232.722C167.477 232.722 167.945 232.5 168.293 232.056C168.653 231.6 168.833 231.066 168.833 230.454C168.833 229.83 168.653 229.296 168.293 228.852C167.933 228.396 167.459 228.168 166.871 228.168C166.295 228.168 165.821 228.384 165.449 228.816C165.077 229.248 164.891 229.8 164.891 230.472ZM181.368 228.366C180.984 228.006 180.582 227.826 180.162 227.826C179.526 227.826 179.208 228.114 179.208 228.69C179.208 229.014 179.496 229.278 180.072 229.482C181.128 229.866 181.782 230.22 182.034 230.544C182.286 230.856 182.412 231.246 182.412 231.714C182.412 232.482 182.142 233.094 181.602 233.55C181.074 234.006 180.42 234.234 179.64 234.234C178.632 234.234 177.798 233.838 177.138 233.046L177.912 232.056C178.512 232.656 179.064 232.956 179.568 232.956C180.3 232.956 180.666 232.602 180.666 231.894C180.666 231.534 180.474 231.27 180.09 231.102C179.706 230.922 179.412 230.79 179.208 230.706C178.104 230.226 177.552 229.644 177.552 228.96C177.552 228.276 177.756 227.724 178.164 227.304C178.584 226.872 179.13 226.656 179.802 226.656C180.762 226.656 181.524 226.902 182.088 227.394L181.368 228.366ZM190.495 230.436C190.495 231.552 190.153 232.464 189.469 233.172C188.785 233.88 187.885 234.234 186.769 234.234C185.665 234.234 184.765 233.88 184.069 233.172C183.373 232.464 183.025 231.558 183.025 230.454C183.025 229.338 183.367 228.426 184.051 227.718C184.735 227.01 185.635 226.656 186.751 226.656C187.867 226.656 188.767 227.01 189.451 227.718C190.147 228.414 190.495 229.32 190.495 230.436ZM184.789 230.472C184.789 231.132 184.975 231.672 185.347 232.092C185.719 232.512 186.199 232.722 186.787 232.722C187.375 232.722 187.843 232.5 188.191 232.056C188.551 231.6 188.731 231.066 188.731 230.454C188.731 229.83 188.551 229.296 188.191 228.852C187.831 228.396 187.357 228.168 186.769 228.168C186.193 228.168 185.719 228.384 185.347 228.816C184.975 229.248 184.789 229.8 184.789 230.472ZM193.346 234H191.6V221.706H193.346V234ZM197.835 231.39L199.581 226.89H201.525L198.249 234.144H197.205L193.947 226.89H195.873L197.835 231.39ZM203.336 230.616C203.336 231.3 203.486 231.864 203.786 232.308C204.086 232.752 204.5 232.974 205.028 232.974C205.856 232.974 206.384 232.566 206.612 231.75L208.268 232.02C207.728 233.496 206.648 234.234 205.028 234.234C203.948 234.234 203.084 233.892 202.436 233.208C201.8 232.512 201.482 231.612 201.482 230.508C201.482 229.344 201.788 228.414 202.4 227.718C203.024 227.01 203.864 226.656 204.92 226.656C205.988 226.656 206.816 226.992 207.404 227.664C208.004 228.324 208.304 229.23 208.304 230.382V230.616H203.336ZM206.684 229.644C206.684 229.152 206.528 228.72 206.216 228.348C205.916 227.976 205.52 227.79 205.028 227.79C204.548 227.79 204.152 227.988 203.84 228.384C203.54 228.768 203.39 229.188 203.39 229.644H206.684ZM40.466 245.52C40.91 244.944 41.594 244.656 42.518 244.656C43.322 244.656 43.958 245.028 44.426 245.772C44.882 245.028 45.62 244.656 46.64 244.656C48.14 244.656 48.89 245.628 48.89 247.572V252H47.162V248.256C47.162 246.744 46.748 245.988 45.92 245.988C45.092 245.988 44.678 246.828 44.678 248.508V252H42.932V248.4C42.932 246.792 42.566 245.988 41.834 245.988C40.922 245.988 40.466 246.828 40.466 248.508V252H38.72V244.89H40.466V245.52ZM57.3407 248.436C57.3407 249.552 56.9987 250.464 56.3147 251.172C55.6307 251.88 54.7307 252.234 53.6147 252.234C52.5107 252.234 51.6107 251.88 50.9147 251.172C50.2187 250.464 49.8707 249.558 49.8707 248.454C49.8707 247.338 50.2127 246.426 50.8967 245.718C51.5807 245.01 52.4807 244.656 53.5967 244.656C54.7127 244.656 55.6127 245.01 56.2967 245.718C56.9927 246.414 57.3407 247.32 57.3407 248.436ZM51.6347 248.472C51.6347 249.132 51.8207 249.672 52.1927 250.092C52.5647 250.512 53.0447 250.722 53.6327 250.722C54.2207 250.722 54.6887 250.5 55.0367 250.056C55.3967 249.6 55.5767 249.066 55.5767 248.454C55.5767 247.83 55.3967 247.296 55.0367 246.852C54.6767 246.396 54.2027 246.168 53.6147 246.168C53.0387 246.168 52.5647 246.384 52.1927 246.816C51.8207 247.248 51.6347 247.8 51.6347 248.472ZM58.302 239.706H60.048V245.538C60.552 244.95 61.302 244.656 62.298 244.656C63.234 244.656 64.008 245.028 64.62 245.772C65.244 246.516 65.556 247.392 65.556 248.4C65.556 249.492 65.25 250.404 64.638 251.136C64.026 251.868 63.234 252.234 62.262 252.234C61.218 252.234 60.492 251.934 60.084 251.334L60.048 252H58.302V239.706ZM63.774 248.436C63.774 247.836 63.588 247.308 63.216 246.852C62.844 246.396 62.37 246.168 61.794 246.168C61.218 246.168 60.75 246.396 60.39 246.852C60.03 247.296 59.85 247.83 59.85 248.454C59.85 249.066 60.036 249.6 60.408 250.056C60.792 250.5 61.26 250.722 61.812 250.722C62.412 250.722 62.886 250.506 63.234 250.074C63.594 249.63 63.774 249.084 63.774 248.436ZM68.6354 241.902C68.6354 242.178 68.5334 242.418 68.3294 242.622C68.1254 242.826 67.8854 242.928 67.6094 242.928C67.3334 242.928 67.0934 242.826 66.8894 242.622C66.6854 242.418 66.5834 242.178 66.5834 241.902C66.5834 241.626 66.6854 241.386 66.8894 241.182C67.0934 240.978 67.3334 240.876 67.6094 240.876C67.8854 240.876 68.1254 240.978 68.3294 241.182C68.5334 241.386 68.6354 241.626 68.6354 241.902ZM68.4914 252H66.7454V244.89H68.4914V252ZM72.0573 252H70.3113V239.706H72.0573V252ZM74.9802 248.616C74.9802 249.3 75.1302 249.864 75.4302 250.308C75.7302 250.752 76.1442 250.974 76.6722 250.974C77.5002 250.974 78.0282 250.566 78.2562 249.75L79.9122 250.02C79.3722 251.496 78.2922 252.234 76.6722 252.234C75.5922 252.234 74.7282 251.892 74.0802 251.208C73.4442 250.512 73.1262 249.612 73.1262 248.508C73.1262 247.344 73.4322 246.414 74.0442 245.718C74.6682 245.01 75.5082 244.656 76.5642 244.656C77.6322 244.656 78.4602 244.992 79.0482 245.664C79.6482 246.324 79.9482 247.23 79.9482 248.382V248.616H74.9802ZM78.3282 247.644C78.3282 247.152 78.1722 246.72 77.8602 246.348C77.5602 245.976 77.1642 245.79 76.6722 245.79C76.1922 245.79 75.7962 245.988 75.4842 246.384C75.1842 246.768 75.0342 247.188 75.0342 247.644H78.3282ZM93.6336 252H91.9236V251.352C91.4196 251.94 90.6696 252.234 89.6736 252.234C88.6776 252.234 87.8796 251.85 87.2796 251.082C86.6916 250.314 86.3976 249.414 86.3976 248.382C86.3976 247.35 86.6976 246.474 87.2976 245.754C87.9096 245.022 88.6896 244.656 89.6376 244.656C90.6456 244.656 91.4076 244.956 91.9236 245.556V244.89H93.6336V252ZM92.1216 248.436C92.1216 247.776 91.9356 247.236 91.5636 246.816C91.1916 246.384 90.7116 246.168 90.1236 246.168C89.5476 246.168 89.0736 246.378 88.7016 246.798C88.3416 247.206 88.1616 247.752 88.1616 248.436C88.1616 249.12 88.3476 249.672 88.7196 250.092C89.0916 250.512 89.5716 250.722 90.1596 250.722C90.7476 250.722 91.2216 250.518 91.5816 250.11C91.9416 249.702 92.1216 249.144 92.1216 248.436ZM100.097 251.334C99.629 251.934 98.891 252.234 97.883 252.234C96.875 252.234 96.071 251.85 95.471 251.082C94.883 250.314 94.589 249.414 94.589 248.382C94.589 247.35 94.889 246.474 95.489 245.754C96.101 245.022 96.881 244.656 97.829 244.656C98.837 244.656 99.581 244.95 100.061 245.538L100.097 239.706H101.843V252H100.097V251.334ZM100.295 248.436C100.295 247.812 100.103 247.278 99.719 246.834C99.335 246.39 98.873 246.168 98.333 246.168C97.793 246.168 97.325 246.39 96.929 246.834C96.545 247.266 96.353 247.806 96.353 248.454C96.353 249.09 96.539 249.63 96.911 250.074C97.295 250.506 97.775 250.722 98.351 250.722C98.927 250.722 99.395 250.512 99.755 250.092C100.115 249.66 100.295 249.108 100.295 248.436ZM108.288 251.334C107.82 251.934 107.082 252.234 106.074 252.234C105.066 252.234 104.262 251.85 103.662 251.082C103.074 250.314 102.78 249.414 102.78 248.382C102.78 247.35 103.08 246.474 103.68 245.754C104.292 245.022 105.072 244.656 106.02 244.656C107.028 244.656 107.772 244.95 108.252 245.538L108.288 239.706H110.034V252H108.288V251.334ZM108.486 248.436C108.486 247.812 108.294 247.278 107.91 246.834C107.526 246.39 107.064 246.168 106.524 246.168C105.984 246.168 105.516 246.39 105.12 246.834C104.736 247.266 104.544 247.806 104.544 248.454C104.544 249.09 104.73 249.63 105.102 250.074C105.486 250.506 105.966 250.722 106.542 250.722C107.118 250.722 107.586 250.512 107.946 250.092C108.306 249.66 108.486 249.108 108.486 248.436ZM113.618 241.902C113.618 242.178 113.516 242.418 113.312 242.622C113.108 242.826 112.868 242.928 112.592 242.928C112.316 242.928 112.076 242.826 111.872 242.622C111.668 242.418 111.566 242.178 111.566 241.902C111.566 241.626 111.668 241.386 111.872 241.182C112.076 240.978 112.316 240.876 112.592 240.876C112.868 240.876 113.108 240.978 113.312 241.182C113.516 241.386 113.618 241.626 113.618 241.902ZM113.474 252H111.728V244.89H113.474V252ZM119.992 246.744C119.548 246.3 119.05 246.078 118.498 246.078C117.85 246.078 117.34 246.312 116.968 246.78C116.596 247.248 116.41 247.824 116.41 248.508C116.41 249.18 116.62 249.732 117.04 250.164C117.46 250.596 117.97 250.812 118.57 250.812C119.086 250.812 119.56 250.584 119.992 250.128V251.802C119.488 252.09 118.906 252.234 118.246 252.234C117.214 252.234 116.356 251.868 115.672 251.136C114.988 250.404 114.646 249.51 114.646 248.454C114.646 247.398 114.994 246.504 115.69 245.772C116.398 245.028 117.28 244.656 118.336 244.656C118.96 244.656 119.512 244.806 119.992 245.106V246.744ZM123.391 252H121.645V246.456H120.799V245.034H121.645V242.478H123.391V245.034H124.777V246.456H123.391V252ZM127.364 241.902C127.364 242.178 127.262 242.418 127.058 242.622C126.854 242.826 126.614 242.928 126.338 242.928C126.062 242.928 125.822 242.826 125.618 242.622C125.414 242.418 125.312 242.178 125.312 241.902C125.312 241.626 125.414 241.386 125.618 241.182C125.822 240.978 126.062 240.876 126.338 240.876C126.614 240.876 126.854 240.978 127.058 241.182C127.262 241.386 127.364 241.626 127.364 241.902ZM127.22 252H125.474V244.89H127.22V252ZM135.88 248.436C135.88 249.552 135.538 250.464 134.854 251.172C134.17 251.88 133.27 252.234 132.154 252.234C131.05 252.234 130.15 251.88 129.454 251.172C128.758 250.464 128.41 249.558 128.41 248.454C128.41 247.338 128.752 246.426 129.436 245.718C130.12 245.01 131.02 244.656 132.136 244.656C133.252 244.656 134.152 245.01 134.836 245.718C135.532 246.414 135.88 247.32 135.88 248.436ZM130.174 248.472C130.174 249.132 130.36 249.672 130.732 250.092C131.104 250.512 131.584 250.722 132.172 250.722C132.76 250.722 133.228 250.5 133.576 250.056C133.936 249.6 134.116 249.066 134.116 248.454C134.116 247.83 133.936 247.296 133.576 246.852C133.216 246.396 132.742 246.168 132.154 246.168C131.578 246.168 131.104 246.384 130.732 246.816C130.36 247.248 130.174 247.8 130.174 248.472ZM138.587 245.538C139.079 244.95 139.805 244.656 140.765 244.656C142.397 244.656 143.213 245.658 143.213 247.662V252H141.485V248.238C141.485 246.738 141.023 245.988 140.099 245.988C139.091 245.988 138.587 246.792 138.587 248.4V252H136.841V244.89H138.587V245.538ZM147.327 250.974C147.327 251.334 147.201 251.646 146.949 251.91C146.709 252.162 146.409 252.288 146.049 252.288C145.689 252.288 145.383 252.162 145.131 251.91C144.879 251.658 144.753 251.358 144.753 251.01C144.753 250.65 144.879 250.344 145.131 250.092C145.383 249.84 145.683 249.714 146.031 249.714C146.391 249.714 146.697 249.834 146.949 250.074C147.201 250.314 147.327 250.614 147.327 250.974Z" fill="white"/>
<path d="M222.758 291.434V293H215.414L218.186 289.49C219.506 287.858 220.28 286.838 220.508 286.43C220.748 286.01 220.868 285.668 220.868 285.404C220.88 285.332 220.886 285.26 220.886 285.188C220.886 284.708 220.724 284.282 220.4 283.91C220.088 283.538 219.674 283.352 219.158 283.352C218.642 283.352 218.234 283.562 217.934 283.982C217.646 284.402 217.502 284.912 217.502 285.512H215.558C215.558 284.432 215.876 283.544 216.512 282.848C217.16 282.14 218.036 281.786 219.14 281.786C220.136 281.786 220.976 282.122 221.66 282.794C222.344 283.466 222.686 284.306 222.686 285.314C222.686 286.262 221.96 287.582 220.508 289.274L218.654 291.434H222.758ZM231.467 287.546C231.467 289.13 231.119 290.486 230.423 291.614C229.727 292.73 228.767 293.288 227.543 293.288C226.331 293.288 225.377 292.724 224.681 291.596C223.985 290.468 223.637 289.118 223.637 287.546C223.637 285.914 223.985 284.546 224.681 283.442C225.389 282.338 226.349 281.786 227.561 281.786C228.773 281.786 229.727 282.35 230.423 283.478C231.119 284.594 231.467 285.95 231.467 287.546ZM225.437 287.528C225.437 288.632 225.629 289.61 226.013 290.462C226.397 291.302 226.919 291.722 227.579 291.722C228.239 291.722 228.749 291.326 229.109 290.534C229.481 289.742 229.667 288.74 229.667 287.528C229.667 286.412 229.475 285.44 229.091 284.612C228.707 283.772 228.191 283.352 227.543 283.352C226.907 283.352 226.397 283.79 226.013 284.666C225.629 285.53 225.437 286.484 225.437 287.528ZM233.84 283.64V282.074H237.26V293H235.406V283.64H233.84ZM241.092 284.9C241.092 283.976 241.398 283.226 242.01 282.65C242.622 282.074 243.384 281.786 244.296 281.786C245.208 281.786 245.97 282.074 246.582 282.65C247.194 283.226 247.5 283.976 247.5 284.9C247.5 286.028 247.02 286.832 246.06 287.312C247.236 287.744 247.824 288.668 247.824 290.084C247.824 291.044 247.476 291.818 246.78 292.406C246.096 292.994 245.262 293.288 244.278 293.288C243.294 293.288 242.46 292.994 241.776 292.406C241.092 291.806 240.75 291.032 240.75 290.084C240.75 288.692 241.338 287.768 242.514 287.312C241.566 286.82 241.092 286.016 241.092 284.9ZM242.604 289.85C242.604 290.462 242.766 290.942 243.09 291.29C243.414 291.638 243.828 291.812 244.332 291.812C244.836 291.812 245.232 291.632 245.52 291.272C245.82 290.9 245.97 290.426 245.97 289.85C245.97 289.346 245.814 288.92 245.502 288.572C245.19 288.224 244.788 288.05 244.296 288.05C243.852 288.05 243.456 288.23 243.108 288.59C242.772 288.938 242.604 289.358 242.604 289.85ZM242.748 284.9C242.748 285.392 242.898 285.794 243.198 286.106C243.498 286.418 243.864 286.574 244.296 286.574C244.74 286.574 245.106 286.43 245.394 286.142C245.694 285.842 245.844 285.428 245.844 284.9C245.844 284.372 245.7 283.94 245.412 283.604C245.136 283.256 244.77 283.082 244.314 283.082C243.858 283.082 243.48 283.244 243.18 283.568C242.892 283.88 242.748 284.324 242.748 284.9Z" fill="white"/>
</svg>
