<svg width="270" height="316" viewBox="0 0 270 316" fill="none" xmlns="http://www.w3.org/2000/svg">
<rect x="2" y="-2" width="266" height="312" rx="6" transform="matrix(1 0 0 -1 1.19209e-07 312)" fill="white" stroke="black" stroke-width="4"/>
<path d="M160.024 161.184L156.376 171.192H155.776L152.344 161.136L150.688 171H148.216L150.664 156.048H152.488L156.28 166.056L159.904 156.048H161.752L163.936 171H161.464L160.024 161.184ZM174.42 166.248C174.42 167.736 173.964 168.952 173.052 169.896C172.14 170.84 170.94 171.312 169.452 171.312C167.98 171.312 166.78 170.84 165.852 169.896C164.924 168.952 164.46 167.744 164.46 166.272C164.46 164.784 164.916 163.568 165.828 162.624C166.74 161.68 167.94 161.208 169.428 161.208C170.916 161.208 172.116 161.68 173.028 162.624C173.956 163.552 174.42 164.76 174.42 166.248ZM166.812 166.296C166.812 167.176 167.06 167.896 167.556 168.456C168.052 169.016 168.692 169.296 169.476 169.296C170.26 169.296 170.884 169 171.348 168.408C171.828 167.8 172.068 167.088 172.068 166.272C172.068 165.44 171.828 164.728 171.348 164.136C170.868 163.528 170.236 163.224 169.452 163.224C168.684 163.224 168.052 163.512 167.556 164.088C167.06 164.664 166.812 165.4 166.812 166.296ZM178.558 171H176.23V163.608H175.102V161.712H176.23V158.304H178.558V161.712H180.406V163.608H178.558V171ZM183.855 157.536C183.855 157.904 183.719 158.224 183.447 158.496C183.175 158.768 182.855 158.904 182.487 158.904C182.119 158.904 181.799 158.768 181.527 158.496C181.255 158.224 181.119 157.904 181.119 157.536C181.119 157.168 181.255 156.848 181.527 156.576C181.799 156.304 182.119 156.168 182.487 156.168C182.855 156.168 183.175 156.304 183.447 156.576C183.719 156.848 183.855 157.168 183.855 157.536ZM183.663 171H181.335V161.52H183.663V171ZM195.21 166.248C195.21 167.736 194.754 168.952 193.842 169.896C192.93 170.84 191.73 171.312 190.242 171.312C188.77 171.312 187.57 170.84 186.642 169.896C185.714 168.952 185.25 167.744 185.25 166.272C185.25 164.784 185.706 163.568 186.618 162.624C187.53 161.68 188.73 161.208 190.218 161.208C191.706 161.208 192.906 161.68 193.818 162.624C194.746 163.552 195.21 164.76 195.21 166.248ZM187.602 166.296C187.602 167.176 187.85 167.896 188.346 168.456C188.842 169.016 189.482 169.296 190.266 169.296C191.05 169.296 191.674 169 192.138 168.408C192.618 167.8 192.858 167.088 192.858 166.272C192.858 165.44 192.618 164.728 192.138 164.136C191.658 163.528 191.026 163.224 190.242 163.224C189.474 163.224 188.842 163.512 188.346 164.088C187.85 164.664 187.602 165.4 187.602 166.296ZM198.819 162.384C199.475 161.6 200.443 161.208 201.723 161.208C203.899 161.208 204.987 162.544 204.987 165.216V171H202.683V165.984C202.683 163.984 202.067 162.984 200.835 162.984C199.491 162.984 198.819 164.056 198.819 166.2V171H196.491V161.52H198.819V162.384Z" fill="black"/>
<path d="M154.388 179.456C153.964 178.944 153.432 178.688 152.792 178.688C152.128 178.688 151.572 178.964 151.124 179.516C150.676 180.06 150.452 180.684 150.452 181.388C150.452 182.068 150.672 182.68 151.112 183.224C151.56 183.76 152.116 184.028 152.78 184.028C153.412 184.028 153.948 183.772 154.388 183.26V184.76C153.796 185.048 153.248 185.192 152.744 185.192C151.736 185.192 150.888 184.82 150.2 184.076C149.512 183.332 149.168 182.444 149.168 181.412C149.168 180.34 149.512 179.424 150.2 178.664C150.888 177.904 151.744 177.524 152.768 177.524C153.304 177.524 153.844 177.664 154.388 177.944V179.456ZM159.949 182.624C159.949 183.368 159.721 183.976 159.265 184.448C158.809 184.92 158.209 185.156 157.465 185.156C156.729 185.156 156.129 184.92 155.665 184.448C155.201 183.976 154.969 183.372 154.969 182.636C154.969 181.892 155.197 181.284 155.653 180.812C156.109 180.34 156.709 180.104 157.453 180.104C158.197 180.104 158.797 180.34 159.253 180.812C159.717 181.276 159.949 181.88 159.949 182.624ZM156.145 182.648C156.145 183.088 156.269 183.448 156.517 183.728C156.765 184.008 157.085 184.148 157.477 184.148C157.869 184.148 158.181 184 158.413 183.704C158.653 183.4 158.773 183.044 158.773 182.636C158.773 182.22 158.653 181.864 158.413 181.568C158.173 181.264 157.857 181.112 157.465 181.112C157.081 181.112 156.765 181.256 156.517 181.544C156.269 181.832 156.145 182.2 156.145 182.648ZM161.849 185H160.685V176.804H161.849V185ZM164.158 185H162.994V176.804H164.158V185ZM166.107 182.744C166.107 183.2 166.207 183.576 166.407 183.872C166.607 184.168 166.883 184.316 167.235 184.316C167.787 184.316 168.139 184.044 168.291 183.5L169.395 183.68C169.035 184.664 168.315 185.156 167.235 185.156C166.515 185.156 165.939 184.928 165.507 184.472C165.083 184.008 164.871 183.408 164.871 182.672C164.871 181.896 165.075 181.276 165.483 180.812C165.899 180.34 166.459 180.104 167.163 180.104C167.875 180.104 168.427 180.328 168.819 180.776C169.219 181.216 169.419 181.82 169.419 182.588V182.744H166.107ZM168.339 182.096C168.339 181.768 168.235 181.48 168.027 181.232C167.827 180.984 167.563 180.86 167.235 180.86C166.915 180.86 166.651 180.992 166.443 181.256C166.243 181.512 166.143 181.792 166.143 182.096H168.339ZM173.274 181.496C172.978 181.2 172.646 181.052 172.278 181.052C171.846 181.052 171.506 181.208 171.258 181.52C171.01 181.832 170.886 182.216 170.886 182.672C170.886 183.12 171.026 183.488 171.306 183.776C171.586 184.064 171.926 184.208 172.326 184.208C172.67 184.208 172.986 184.056 173.274 183.752V184.868C172.938 185.06 172.55 185.156 172.11 185.156C171.422 185.156 170.85 184.912 170.394 184.424C169.938 183.936 169.71 183.34 169.71 182.636C169.71 181.932 169.942 181.336 170.406 180.848C170.878 180.352 171.466 180.104 172.17 180.104C172.586 180.104 172.954 180.204 173.274 180.404V181.496ZM175.541 185H174.377V181.304H173.813V180.356H174.377V178.652H175.541V180.356H176.465V181.304H175.541V185ZM178.189 178.268C178.189 178.452 178.121 178.612 177.985 178.748C177.849 178.884 177.689 178.952 177.505 178.952C177.321 178.952 177.161 178.884 177.025 178.748C176.889 178.612 176.821 178.452 176.821 178.268C176.821 178.084 176.889 177.924 177.025 177.788C177.161 177.652 177.321 177.584 177.505 177.584C177.689 177.584 177.849 177.652 177.985 177.788C178.121 177.924 178.189 178.084 178.189 178.268ZM178.093 185H176.929V180.26H178.093V185ZM183.866 182.624C183.866 183.368 183.638 183.976 183.182 184.448C182.726 184.92 182.126 185.156 181.382 185.156C180.646 185.156 180.046 184.92 179.582 184.448C179.118 183.976 178.886 183.372 178.886 182.636C178.886 181.892 179.114 181.284 179.57 180.812C180.026 180.34 180.626 180.104 181.37 180.104C182.114 180.104 182.714 180.34 183.17 180.812C183.634 181.276 183.866 181.88 183.866 182.624ZM180.062 182.648C180.062 183.088 180.186 183.448 180.434 183.728C180.682 184.008 181.002 184.148 181.394 184.148C181.786 184.148 182.098 184 182.33 183.704C182.57 183.4 182.69 183.044 182.69 182.636C182.69 182.22 182.57 181.864 182.33 181.568C182.09 181.264 181.774 181.112 181.382 181.112C180.998 181.112 180.682 181.256 180.434 181.544C180.186 181.832 180.062 182.2 180.062 182.648ZM185.671 180.692C185.999 180.3 186.483 180.104 187.123 180.104C188.211 180.104 188.755 180.772 188.755 182.108V185H187.603V182.492C187.603 181.492 187.295 180.992 186.679 180.992C186.007 180.992 185.671 181.528 185.671 182.6V185H184.507V180.26H185.671V180.692Z" fill="black"/>
<g clip-path="url(#clip0_2833_7843)">
<path d="M102.862 158.352C111.222 158.352 118 151.557 118 143.176C118 134.795 111.222 128 102.862 128C94.5009 128 87.7231 134.795 87.7231 143.176C87.7231 151.557 94.5009 158.352 102.862 158.352Z" fill="#231F20"/>
<path d="M102.589 158.532C110.867 158.532 117.577 151.805 117.577 143.507C117.577 135.209 110.867 128.482 102.589 128.482C94.3116 128.482 87.6013 135.209 87.6013 143.507C87.6013 151.805 94.3116 158.532 102.589 158.532Z" fill="#231F20" stroke="#939598" stroke-width="0.01" stroke-miterlimit="10"/>
<path d="M102.317 158.718C110.515 158.718 117.16 152.056 117.16 143.838C117.16 135.62 110.515 128.958 102.317 128.958C94.1196 128.958 87.4741 135.62 87.4741 143.838C87.4741 152.056 94.1196 158.718 102.317 158.718Z" fill="#231F20" stroke="#939598" stroke-width="0.02" stroke-miterlimit="10"/>
<path d="M102.045 158.898C110.16 158.898 116.738 152.303 116.738 144.169C116.738 136.034 110.16 129.44 102.045 129.44C93.9306 129.44 87.3525 136.034 87.3525 144.169C87.3525 152.303 93.9306 158.898 102.045 158.898Z" fill="#231F20" stroke="#939598" stroke-width="0.03" stroke-miterlimit="10"/>
<path d="M101.779 159.078C109.813 159.078 116.326 152.548 116.326 144.494C116.326 136.44 109.813 129.91 101.779 129.91C93.7442 129.91 87.231 136.44 87.231 144.494C87.231 152.548 93.7442 159.078 101.779 159.078Z" fill="#231F20" stroke="#939598" stroke-width="0.04" stroke-miterlimit="10"/>
<path d="M101.506 159.264C109.461 159.264 115.909 152.799 115.909 144.825C115.909 136.851 109.461 130.386 101.506 130.386C93.5517 130.386 87.1033 136.851 87.1033 144.825C87.1033 152.799 93.5517 159.264 101.506 159.264Z" fill="#231F20" stroke="#939598" stroke-width="0.05" stroke-miterlimit="10"/>
<path d="M101.234 159.449C109.109 159.449 115.492 153.05 115.492 145.156C115.492 137.262 109.109 130.862 101.234 130.862C93.3597 130.862 86.9761 137.262 86.9761 145.156C86.9761 153.05 93.3597 159.449 101.234 159.449Z" fill="#231F20" stroke="#939598" stroke-width="0.06" stroke-miterlimit="10"/>
<path d="M100.962 159.635C108.756 159.635 115.075 153.301 115.075 145.487C115.075 137.673 108.756 131.338 100.962 131.338C93.1672 131.338 86.8484 137.673 86.8484 145.487C86.8484 153.301 93.1672 159.635 100.962 159.635Z" fill="#231F20" stroke="#939598" stroke-width="0.07" stroke-miterlimit="10"/>
<path d="M100.696 159.821C108.413 159.821 114.67 153.549 114.67 145.812C114.67 138.075 108.413 131.803 100.696 131.803C92.9777 131.803 86.7212 138.075 86.7212 145.812C86.7212 153.549 92.9777 159.821 100.696 159.821Z" fill="#231F20" stroke="#939598" stroke-width="0.08" stroke-miterlimit="10"/>
<path d="M100.423 160.012C108.064 160.012 114.259 153.803 114.259 146.143C114.259 138.483 108.064 132.273 100.423 132.273C92.7822 132.273 86.5879 138.483 86.5879 146.143C86.5879 153.803 92.7822 160.012 100.423 160.012Z" fill="#231F20" stroke="#939598" stroke-width="0.09" stroke-miterlimit="10"/>
<path d="M100.151 160.204C107.716 160.204 113.848 154.057 113.848 146.474C113.848 138.89 107.716 132.743 100.151 132.743C92.5869 132.743 86.4548 138.89 86.4548 146.474C86.4548 154.057 92.5869 160.204 100.151 160.204Z" fill="#231F20" stroke="#939598" stroke-width="0.1" stroke-miterlimit="10"/>
<path d="M99.879 160.395C107.367 160.395 113.436 154.311 113.436 146.804C113.436 139.298 107.367 133.213 99.879 133.213C92.3914 133.213 86.3215 139.298 86.3215 146.804C86.3215 154.311 92.3914 160.395 99.879 160.395Z" fill="#231F20" stroke="#939598" stroke-width="0.11" stroke-miterlimit="10"/>
<path d="M99.6125 160.581C107.023 160.581 113.031 154.559 113.031 147.129C113.031 139.7 107.023 133.678 99.6125 133.678C92.2017 133.678 86.1941 139.7 86.1941 147.129C86.1941 154.559 92.2017 160.581 99.6125 160.581Z" fill="#231F20" stroke="#939598" stroke-width="0.12" stroke-miterlimit="10"/>
<path d="M99.3404 160.779C106.678 160.779 112.626 154.816 112.626 147.461C112.626 140.105 106.678 134.143 99.3404 134.143C92.0032 134.143 86.0552 140.105 86.0552 147.461C86.0552 154.816 92.0032 160.779 99.3404 160.779Z" fill="#231F20" stroke="#939598" stroke-width="0.13" stroke-miterlimit="10"/>
<path d="M99.0683 160.976C106.332 160.976 112.22 155.073 112.22 147.792C112.22 140.51 106.332 134.607 99.0683 134.607C91.8046 134.607 85.9163 140.51 85.9163 147.792C85.9163 155.073 91.8046 160.976 99.0683 160.976Z" fill="#231F20" stroke="#939598" stroke-width="0.14" stroke-miterlimit="10"/>
<path d="M98.7959 161.174C105.986 161.174 111.815 155.33 111.815 148.122C111.815 140.914 105.986 135.071 98.7959 135.071C91.6058 135.071 85.7771 140.914 85.7771 148.122C85.7771 155.33 91.6058 161.174 98.7959 161.174Z" fill="#231F20" stroke="#939598" stroke-width="0.15" stroke-miterlimit="10"/>
<path d="M98.5238 161.371C105.64 161.371 111.409 155.587 111.409 148.453C111.409 141.319 105.64 135.536 98.5238 135.536C91.4073 135.536 85.6382 141.319 85.6382 148.453C85.6382 155.587 91.4073 161.371 98.5238 161.371Z" fill="#231F20" stroke="#939598" stroke-width="0.16" stroke-miterlimit="10"/>
<path d="M98.2575 161.568C105.304 161.568 111.016 155.842 111.016 148.779C111.016 141.715 105.304 135.989 98.2575 135.989C91.2113 135.989 85.4993 141.715 85.4993 148.779C85.4993 155.842 91.2113 161.568 98.2575 161.568Z" fill="#231F20" stroke="#939598" stroke-width="0.17" stroke-miterlimit="10"/>
<path d="M97.9853 161.772C104.961 161.772 110.616 156.102 110.616 149.109C110.616 142.116 104.961 136.447 97.9853 136.447C91.0095 136.447 85.3545 142.116 85.3545 149.109C85.3545 156.102 91.0095 161.772 97.9853 161.772Z" fill="#231F20" stroke="#939598" stroke-width="0.18" stroke-miterlimit="10"/>
<path d="M97.7129 161.975C104.618 161.975 110.216 156.363 110.216 149.44C110.216 142.518 104.618 136.906 97.7129 136.906C90.8074 136.906 85.2095 142.518 85.2095 149.44C85.2095 156.363 90.8074 161.975 97.7129 161.975Z" fill="#231F20" stroke="#939598" stroke-width="0.19" stroke-miterlimit="10"/>
<path d="M97.4409 162.184C104.279 162.184 109.823 156.627 109.823 149.771C109.823 142.916 104.279 137.359 97.4409 137.359C90.6026 137.359 85.0591 142.916 85.0591 149.771C85.0591 156.627 90.6026 162.184 97.4409 162.184Z" fill="#231F20" stroke="#939598" stroke-width="0.2" stroke-miterlimit="10"/>
<path d="M97.1745 162.387C103.946 162.387 109.435 156.884 109.435 150.096C109.435 143.308 103.946 137.806 97.1745 137.806C90.4034 137.806 84.9143 143.308 84.9143 150.096C84.9143 156.884 90.4034 162.387 97.1745 162.387Z" fill="#231F20" stroke="#939598" stroke-width="0.21" stroke-miterlimit="10"/>
<path d="M96.9022 162.596C103.606 162.596 109.041 157.148 109.041 150.427C109.041 143.707 103.606 138.259 96.9022 138.259C90.1983 138.259 84.7637 143.707 84.7637 150.427C84.7637 157.148 90.1983 162.596 96.9022 162.596Z" fill="#231F20" stroke="#939598" stroke-width="0.22" stroke-miterlimit="10"/>
<path d="M96.6302 162.805C103.267 162.805 108.647 157.411 108.647 150.758C108.647 144.105 103.267 138.711 96.6302 138.711C89.9935 138.711 84.6133 144.105 84.6133 150.758C84.6133 157.411 89.9935 162.805 96.6302 162.805Z" fill="#231F20" stroke="#939598" stroke-width="0.23" stroke-miterlimit="10"/>
<path d="M96.3579 163.02C102.931 163.02 108.259 157.678 108.259 151.089C108.259 144.5 102.931 139.159 96.3579 139.159C89.7851 139.159 84.4568 144.5 84.4568 151.089C84.4568 157.678 89.7851 163.02 96.3579 163.02Z" fill="#231F20" stroke="#939598" stroke-width="0.24" stroke-miterlimit="10"/>
<path d="M96.0915 163.229C102.6 163.229 107.877 157.939 107.877 151.414C107.877 144.889 102.6 139.6 96.0915 139.6C89.5826 139.6 84.3062 144.889 84.3062 151.414C84.3062 157.939 89.5826 163.229 96.0915 163.229Z" fill="#231F20" stroke="#939598" stroke-width="0.25" stroke-miterlimit="10"/>
<path d="M95.8193 163.449C102.267 163.449 107.495 158.209 107.495 151.745C107.495 145.281 102.267 140.041 95.8193 140.041C89.3712 140.041 84.144 145.281 84.144 151.745C84.144 158.209 89.3712 163.449 95.8193 163.449Z" fill="#231F20" stroke="#939598" stroke-width="0.26" stroke-miterlimit="10"/>
<path d="M95.5472 163.67C101.934 163.67 107.112 158.479 107.112 152.076C107.112 145.673 101.934 140.482 95.5472 140.482C89.1599 140.482 83.9819 145.673 83.9819 152.076C83.9819 158.479 89.1599 163.67 95.5472 163.67Z" fill="#231F20" stroke="#939598" stroke-width="0.27" stroke-miterlimit="10"/>
<path d="M95.2748 163.891C101.601 163.891 106.73 158.749 106.73 152.407C106.73 146.065 101.601 140.923 95.2748 140.923C88.9482 140.923 83.8196 146.065 83.8196 152.407C83.8196 158.749 88.9482 163.891 95.2748 163.891Z" fill="#231F20" stroke="#939598" stroke-width="0.28" stroke-miterlimit="10"/>
<path d="M95.0084 164.117C101.277 164.117 106.359 159.022 106.359 152.738C106.359 146.453 101.277 141.359 95.0084 141.359C88.7395 141.359 83.6575 146.453 83.6575 152.738C83.6575 159.022 88.7395 164.117 95.0084 164.117Z" fill="#231F20" stroke="#939598" stroke-width="0.29" stroke-miterlimit="10"/>
<path d="M94.7365 164.338C100.948 164.338 105.983 159.29 105.983 153.063C105.983 146.836 100.948 141.789 94.7365 141.789C88.5251 141.789 83.4897 146.836 83.4897 153.063C83.4897 159.29 88.5251 164.338 94.7365 164.338Z" fill="#231F20" stroke="#939598" stroke-width="0.3" stroke-miterlimit="10"/>
<path d="M94.4642 164.564C100.618 164.564 105.607 159.563 105.607 153.394C105.607 147.225 100.618 142.224 94.4642 142.224C88.3104 142.224 83.3218 147.225 83.3218 153.394C83.3218 159.563 88.3104 164.564 94.4642 164.564Z" fill="#231F20" stroke="#939598" stroke-width="0.31" stroke-miterlimit="10"/>
<path d="M94.192 164.796C100.291 164.796 105.236 159.839 105.236 153.725C105.236 147.61 100.291 142.653 94.192 142.653C88.0925 142.653 83.1479 147.61 83.1479 153.725C83.1479 159.839 88.0925 164.796 94.192 164.796Z" fill="#231F20" stroke="#939598" stroke-width="0.32" stroke-miterlimit="10"/>
<path d="M93.9197 165.028C99.9648 165.028 104.865 160.116 104.865 154.056C104.865 147.996 99.9648 143.083 93.9197 143.083C87.8746 143.083 82.9741 147.996 82.9741 154.056C82.9741 160.116 87.8746 165.028 93.9197 165.028Z" fill="#231F20" stroke="#939598" stroke-width="0.33" stroke-miterlimit="10"/>
<path d="M93.6534 165.261C99.6473 165.261 104.506 160.39 104.506 154.381C104.506 148.372 99.6473 143.501 93.6534 143.501C87.6595 143.501 82.8005 148.372 82.8005 154.381C82.8005 160.39 87.6595 165.261 93.6534 165.261Z" fill="#231F20" stroke="#939598" stroke-width="0.34" stroke-miterlimit="10"/>
<path d="M93.3811 165.499C99.3238 165.499 104.141 160.669 104.141 154.712C104.141 148.754 99.3238 143.925 93.3811 143.925C87.4384 143.925 82.6208 148.754 82.6208 154.712C82.6208 160.669 87.4384 165.499 93.3811 165.499Z" fill="#231F20" stroke="#939598" stroke-width="0.35" stroke-miterlimit="10"/>
<path d="M93.1089 165.742C99.0037 165.742 103.782 160.952 103.782 155.043C103.782 149.133 99.0037 144.343 93.1089 144.343C87.2142 144.343 82.4355 149.133 82.4355 155.043C82.4355 160.952 87.2142 165.742 93.1089 165.742Z" fill="#231F20" stroke="#939598" stroke-width="0.36" stroke-miterlimit="10"/>
<path d="M92.8367 165.986C98.6835 165.986 103.423 161.235 103.423 155.373C103.423 149.512 98.6835 144.761 92.8367 144.761C86.99 144.761 82.2502 149.512 82.2502 155.373C82.2502 161.235 86.99 165.986 92.8367 165.986Z" fill="#231F20" stroke="#939598" stroke-width="0.37" stroke-miterlimit="10"/>
<path d="M92.5704 166.23C98.3723 166.23 103.076 161.515 103.076 155.699C103.076 149.883 98.3723 145.167 92.5704 145.167C86.7684 145.167 82.0649 149.883 82.0649 155.699C82.0649 161.515 86.7684 166.23 92.5704 166.23Z" fill="#231F20" stroke="#939598" stroke-width="0.38" stroke-miterlimit="10"/>
<path d="M92.2981 166.48C98.0553 166.48 102.722 161.801 102.722 156.03C102.722 150.258 98.0553 145.58 92.2981 145.58C86.5409 145.58 81.8738 150.258 81.8738 156.03C81.8738 161.801 86.5409 166.48 92.2981 166.48Z" fill="#231F20" stroke="#939598" stroke-width="0.39" stroke-miterlimit="10"/>
<path d="M92.0261 166.729C97.7386 166.729 102.369 162.087 102.369 156.361C102.369 150.634 97.7386 145.992 92.0261 145.992C86.3137 145.992 81.6829 150.634 81.6829 156.361C81.6829 162.087 86.3137 166.729 92.0261 166.729Z" fill="#231F20" stroke="#939598" stroke-width="0.4" stroke-miterlimit="10"/>
<path d="M91.7538 166.985C97.4247 166.985 102.022 162.376 102.022 156.691C102.022 151.006 97.4247 146.398 91.7538 146.398C86.083 146.398 81.4858 151.006 81.4858 156.691C81.4858 162.376 86.083 166.985 91.7538 166.985Z" fill="#231F20" stroke="#939598" stroke-width="0.41" stroke-miterlimit="10"/>
<path d="M91.4873 167.246C97.1198 167.246 101.686 162.669 101.686 157.023C101.686 151.376 97.1198 146.799 91.4873 146.799C85.8548 146.799 81.2888 151.376 81.2888 157.023C81.2888 162.669 85.8548 167.246 91.4873 167.246Z" fill="#231F20" stroke="#939598" stroke-width="0.42" stroke-miterlimit="10"/>
<path d="M91.2152 167.502C96.8093 167.502 101.344 162.955 101.344 157.347C101.344 151.739 96.8093 147.193 91.2152 147.193C85.6211 147.193 81.0862 151.739 81.0862 157.347C81.0862 162.955 85.6211 167.502 91.2152 167.502Z" fill="#231F20" stroke="#939598" stroke-width="0.43" stroke-miterlimit="10"/>
<path d="M90.943 167.769C96.5019 167.769 101.008 163.251 101.008 157.679C101.008 152.106 96.5019 147.588 90.943 147.588C85.3841 147.588 80.8777 152.106 80.8777 157.679C80.8777 163.251 85.3841 167.769 90.943 167.769Z" fill="#231F20" stroke="#939598" stroke-width="0.44" stroke-miterlimit="10"/>
<path d="M90.671 168.036C96.1947 168.036 100.673 163.547 100.673 158.009C100.673 152.472 96.1947 147.983 90.671 147.983C85.1473 147.983 80.6694 152.472 80.6694 158.009C80.6694 163.547 85.1473 168.036 90.671 168.036Z" fill="#231F20" stroke="#939598" stroke-width="0.45" stroke-miterlimit="10"/>
<path d="M90.3985 168.309C95.8902 168.309 100.342 163.846 100.342 158.34C100.342 152.835 95.8902 148.372 90.3985 148.372C84.9068 148.372 80.4548 152.835 80.4548 158.34C80.4548 163.846 84.9068 168.309 90.3985 168.309Z" fill="#231F20" stroke="#939598" stroke-width="0.46" stroke-miterlimit="10"/>
<path d="M90.1323 168.582C95.5952 168.582 100.024 164.142 100.024 158.666C100.024 153.189 95.5952 148.75 90.1323 148.75C84.6693 148.75 80.2407 153.189 80.2407 158.666C80.2407 164.142 84.6693 168.582 90.1323 168.582Z" fill="#231F20" stroke="#939598" stroke-width="0.47" stroke-miterlimit="10"/>
<path d="M89.8599 168.86C95.2941 168.86 99.6993 164.444 99.6993 158.997C99.6993 153.549 95.2941 149.133 89.8599 149.133C84.4258 149.133 80.0205 153.549 80.0205 158.997C80.0205 164.444 84.4258 168.86 89.8599 168.86Z" fill="#231F20" stroke="#939598" stroke-width="0.48" stroke-miterlimit="10"/>
<path d="M89.5878 169.144C94.9963 169.144 99.3809 164.749 99.3809 159.327C99.3809 153.905 94.9963 149.51 89.5878 149.51C84.1792 149.51 79.7947 153.905 79.7947 159.327C79.7947 164.749 84.1792 169.144 89.5878 169.144Z" fill="#231F20" stroke="#939598" stroke-width="0.49" stroke-miterlimit="10"/>
<path d="M89.3159 169.429C94.6988 169.429 99.0626 165.054 99.0626 159.658C99.0626 154.262 94.6988 149.887 89.3159 149.887C83.9329 149.887 79.5691 154.262 79.5691 159.658C79.5691 165.054 83.9329 169.429 89.3159 169.429Z" fill="#231F20" stroke="#939598" stroke-width="0.5" stroke-miterlimit="10"/>
<path d="M89.0492 169.713C94.4098 169.713 98.7555 165.357 98.7555 159.983C98.7555 154.609 94.4098 150.253 89.0492 150.253C83.6886 150.253 79.343 154.609 79.343 159.983C79.343 165.357 83.6886 169.713 89.0492 169.713Z" fill="#231F20" stroke="#939598" stroke-width="0.5" stroke-miterlimit="10"/>
<path d="M88.7769 170.01C94.1184 170.01 98.4484 165.669 98.4484 160.314C98.4484 154.959 94.1184 150.619 88.7769 150.619C83.4355 150.619 79.1055 154.959 79.1055 160.314C79.1055 165.669 83.4355 170.01 88.7769 170.01Z" fill="#231F20" stroke="#939598" stroke-width="0.51" stroke-miterlimit="10"/>
<path d="M88.5049 170.306C93.8271 170.306 98.1416 165.98 98.1416 160.645C98.1416 155.31 93.8271 150.984 88.5049 150.984C83.1827 150.984 78.8682 155.31 78.8682 160.645C78.8682 165.98 83.1827 170.306 88.5049 170.306Z" fill="#231F20" stroke="#939598" stroke-width="0.52" stroke-miterlimit="10"/>
<path d="M88.2328 170.608C93.539 170.608 97.8405 166.296 97.8405 160.976C97.8405 155.657 93.539 151.345 88.2328 151.345C82.9265 151.345 78.625 155.657 78.625 160.976C78.625 166.296 82.9265 170.608 88.2328 170.608Z" fill="#231F20" stroke="#939598" stroke-width="0.53" stroke-miterlimit="10"/>
<path d="M87.9663 170.91C93.2565 170.91 97.5451 166.61 97.5451 161.307C97.5451 156.004 93.2565 151.705 87.9663 151.705C82.676 151.705 78.3875 156.004 78.3875 161.307C78.3875 166.61 82.676 170.91 87.9663 170.91Z" fill="#231F20" stroke="#939598" stroke-width="0.54" stroke-miterlimit="10"/>
<path d="M87.694 171.217C92.9746 171.217 97.2554 166.926 97.2554 161.632C97.2554 156.338 92.9746 152.047 87.694 152.047C82.4134 152.047 78.1326 156.338 78.1326 161.632C78.1326 166.926 82.4134 171.217 87.694 171.217Z" fill="#231F20" stroke="#939598" stroke-width="0.55" stroke-miterlimit="10"/>
<path d="M87.4218 171.525C92.6897 171.525 96.9601 167.244 96.9601 161.963C96.9601 156.682 92.6897 152.401 87.4218 152.401C82.154 152.401 77.8835 156.682 77.8835 161.963C77.8835 167.244 82.154 171.525 87.4218 171.525Z" fill="#231F20" stroke="#939598" stroke-width="0.56" stroke-miterlimit="10"/>
<path d="M87.1497 171.844C92.4112 171.844 96.6764 167.568 96.6764 162.294C96.6764 157.019 92.4112 152.744 87.1497 152.744C81.8883 152.744 77.623 157.019 77.623 162.294C77.623 167.568 81.8883 171.844 87.1497 171.844Z" fill="#231F20" stroke="#939598" stroke-width="0.57" stroke-miterlimit="10"/>
<path d="M86.8777 172.164C92.1327 172.164 96.3928 167.893 96.3928 162.625C96.3928 157.357 92.1327 153.086 86.8777 153.086C81.6226 153.086 77.3625 157.357 77.3625 162.625C77.3625 167.893 81.6226 172.164 86.8777 172.164Z" fill="#231F20" stroke="#939598" stroke-width="0.58" stroke-miterlimit="10"/>
<path d="M86.6111 172.483C91.863 172.483 96.1204 168.215 96.1204 162.95C96.1204 157.685 91.863 153.417 86.6111 153.417C81.3593 153.417 77.1018 157.685 77.1018 162.95C77.1018 168.215 81.3593 172.483 86.6111 172.483Z" fill="#231F20" stroke="#939598" stroke-width="0.59" stroke-miterlimit="10"/>
<path d="M86.3389 172.814C91.5908 172.814 95.8482 168.546 95.8482 163.281C95.8482 158.016 91.5908 153.748 86.3389 153.748C81.0871 153.748 76.8296 158.016 76.8296 163.281C76.8296 168.546 81.0871 172.814 86.3389 172.814Z" fill="#231F20" stroke="#939598" stroke-width="0.6" stroke-miterlimit="10"/>
<path d="M86.0667 173.145C91.3185 173.145 95.576 168.877 95.576 163.612C95.576 158.347 91.3185 154.079 86.0667 154.079C80.8148 154.079 76.5574 158.347 76.5574 163.612C76.5574 168.877 80.8148 173.145 86.0667 173.145Z" fill="#231F20" stroke="#939598" stroke-width="0.61" stroke-miterlimit="10"/>
<path d="M85.7944 173.482C91.0495 173.482 95.3095 169.211 95.3095 163.943C95.3095 158.675 91.0495 154.404 85.7944 154.404C80.5394 154.404 76.2793 158.675 76.2793 163.943C76.2793 169.211 80.5394 173.482 85.7944 173.482Z" fill="#231F20" stroke="#939598" stroke-width="0.62" stroke-miterlimit="10"/>
<path d="M85.5282 173.813C90.7865 173.813 95.0491 169.539 95.0491 164.268C95.0491 158.997 90.7865 154.724 85.5282 154.724C80.27 154.724 76.0073 158.997 76.0073 164.268C76.0073 169.539 80.27 173.813 85.5282 173.813Z" fill="#231F20" stroke="#939598" stroke-width="0.63" stroke-miterlimit="10"/>
<path d="M85.2559 174.155C90.5205 174.155 94.7884 169.876 94.7884 164.599C94.7884 159.321 90.5205 155.042 85.2559 155.042C79.9912 155.042 75.7234 159.321 75.7234 164.599C75.7234 169.876 79.9912 174.155 85.2559 174.155Z" fill="#231F20" stroke="#939598" stroke-width="0.64" stroke-miterlimit="10"/>
<path d="M84.9837 174.503C90.2579 174.503 94.5336 170.217 94.5336 164.93C94.5336 159.643 90.2579 155.356 84.9837 155.356C79.7095 155.356 75.4338 159.643 75.4338 164.93C75.4338 170.217 79.7095 174.503 84.9837 174.503Z" fill="#231F20" stroke="#939598" stroke-width="0.65" stroke-miterlimit="10"/>
<path d="M84.7117 174.858C89.9987 174.858 94.2847 170.561 94.2847 165.261C94.2847 159.961 89.9987 155.664 84.7117 155.664C79.4247 155.664 75.1387 159.961 75.1387 165.261C75.1387 170.561 79.4247 174.858 84.7117 174.858Z" fill="#231F20" stroke="#939598" stroke-width="0.66" stroke-miterlimit="10"/>
<path d="M84.4451 175.212C89.7449 175.212 94.0413 170.905 94.0413 165.592C94.0413 160.279 89.7449 155.972 84.4451 155.972C79.1452 155.972 74.8489 160.279 74.8489 165.592C74.8489 170.905 79.1452 175.212 84.4451 175.212Z" fill="#231F20" stroke="#939598" stroke-width="0.67" stroke-miterlimit="10"/>
<path d="M84.173 175.566C89.4888 175.566 93.7981 171.246 93.7981 165.917C93.7981 160.588 89.4888 156.268 84.173 156.268C78.8572 156.268 74.5479 160.588 74.5479 165.917C74.5479 171.246 78.8572 175.566 84.173 175.566Z" fill="#231F20" stroke="#939598" stroke-width="0.68" stroke-miterlimit="10"/>
<path d="M83.9006 175.932C89.2356 175.932 93.5605 171.596 93.5605 166.248C93.5605 160.9 89.2356 156.564 83.9006 156.564C78.5656 156.564 74.2407 160.9 74.2407 166.248C74.2407 171.596 78.5656 175.932 83.9006 175.932Z" fill="#231F20" stroke="#939598" stroke-width="0.69" stroke-miterlimit="10"/>
<path d="M83.6287 176.297C88.9829 176.297 93.3234 171.946 93.3234 166.579C93.3234 161.211 88.9829 156.86 83.6287 156.86C78.2745 156.86 73.9341 161.211 73.9341 166.579C73.9341 171.946 78.2745 176.297 83.6287 176.297Z" fill="#231F20" stroke="#939598" stroke-width="0.7" stroke-miterlimit="10"/>
<path d="M83.3621 176.669C88.7387 176.669 93.0973 172.3 93.0973 166.91C93.0973 161.52 88.7387 157.15 83.3621 157.15C77.9855 157.15 73.627 161.52 73.627 166.91C73.627 172.3 77.9855 176.669 83.3621 176.669Z" fill="#231F20" stroke="#939598" stroke-width="0.71" stroke-miterlimit="10"/>
<path d="M83.0899 177.034C88.4889 177.034 92.8657 172.647 92.8657 167.235C92.8657 161.822 88.4889 157.435 83.0899 157.435C77.6909 157.435 73.3142 161.822 73.3142 167.235C73.3142 172.647 77.6909 177.034 83.0899 177.034Z" fill="#231F20" stroke="#939598" stroke-width="0.72" stroke-miterlimit="10"/>
<path d="M82.8179 177.412C88.2425 177.412 92.6399 173.004 92.6399 167.566C92.6399 162.128 88.2425 157.719 82.8179 157.719C77.3933 157.719 72.9958 162.128 72.9958 167.566C72.9958 173.004 77.3933 177.412 82.8179 177.412Z" fill="#231F20" stroke="#939598" stroke-width="0.73" stroke-miterlimit="10"/>
<path d="M82.5456 177.795C87.9989 177.795 92.4197 173.364 92.4197 167.897C92.4197 162.43 87.9989 157.998 82.5456 157.998C77.0922 157.998 72.6714 162.43 72.6714 167.897C72.6714 173.364 77.0922 177.795 82.5456 177.795Z" fill="#231F20" stroke="#939598" stroke-width="0.74" stroke-miterlimit="10"/>
<path d="M82.2735 178.178C87.7556 178.178 92.1997 173.723 92.1997 168.227C92.1997 162.732 87.7556 158.276 82.2735 158.276C76.7913 158.276 72.3472 162.732 72.3472 168.227C72.3472 173.723 76.7913 178.178 82.2735 178.178Z" fill="#231F20" stroke="#939598" stroke-width="0.75" stroke-miterlimit="10"/>
<path d="M82.0069 178.561C87.521 178.561 91.9911 174.08 91.9911 168.552C91.9911 163.025 87.521 158.543 82.0069 158.543C76.4928 158.543 72.0227 163.025 72.0227 168.552C72.0227 174.08 76.4928 178.561 82.0069 178.561Z" fill="#231F20" stroke="#939598" stroke-width="0.76" stroke-miterlimit="10"/>
<path d="M81.735 178.95C87.2811 178.95 91.7771 174.443 91.7771 168.883C91.7771 163.324 87.2811 158.816 81.735 158.816C76.1889 158.816 71.6929 163.324 71.6929 168.883C71.6929 174.443 76.1889 178.95 81.735 178.95Z" fill="#231F20" stroke="#939598" stroke-width="0.77" stroke-miterlimit="10"/>
<path d="M81.4625 179.345C87.0438 179.345 91.5683 174.809 91.5683 169.214C91.5683 163.619 87.0438 159.083 81.4625 159.083C75.8812 159.083 71.3567 163.619 71.3567 169.214C71.3567 174.809 75.8812 179.345 81.4625 179.345Z" fill="#231F20" stroke="#939598" stroke-width="0.78" stroke-miterlimit="10"/>
<path d="M81.1905 179.746C86.8101 179.746 91.3658 175.179 91.3658 169.545C91.3658 163.912 86.8101 159.345 81.1905 159.345C75.5708 159.345 71.0151 163.912 71.0151 169.545C71.0151 175.179 75.5708 179.746 81.1905 179.746Z" fill="#231F20" stroke="#939598" stroke-width="0.79" stroke-miterlimit="10"/>
<path d="M80.9243 180.146C86.5823 180.146 91.1691 175.548 91.1691 169.876C91.1691 164.204 86.5823 159.606 80.9243 159.606C75.2662 159.606 70.6794 164.204 70.6794 169.876C70.6794 175.548 75.2662 180.146 80.9243 180.146Z" fill="#231F20" stroke="#939598" stroke-width="0.8" stroke-miterlimit="10"/>
<path d="M80.6519 180.547C86.3515 180.547 90.972 175.915 90.972 170.201C90.972 164.487 86.3515 159.855 80.6519 159.855C74.9523 159.855 70.3318 164.487 70.3318 170.201C70.3318 175.915 74.9523 180.547 80.6519 180.547Z" fill="#231F20" stroke="#939598" stroke-width="0.81" stroke-miterlimit="10"/>
<path d="M80.3798 180.953C86.121 180.953 90.7752 176.287 90.7752 170.532C90.7752 164.777 86.121 160.111 80.3798 160.111C74.6385 160.111 69.9844 164.777 69.9844 170.532C69.9844 176.287 74.6385 180.953 80.3798 180.953Z" fill="#231F20" stroke="#939598" stroke-width="0.82" stroke-miterlimit="10"/>
<path d="M80.1073 181.366C85.8933 181.366 90.5838 176.664 90.5838 170.863C90.5838 165.063 85.8933 160.361 80.1073 160.361C74.3213 160.361 69.6309 165.063 69.6309 170.863C69.6309 176.664 74.3213 181.366 80.1073 181.366Z" fill="#231F20" stroke="#939598" stroke-width="0.83" stroke-miterlimit="10"/>
<path d="M79.841 181.778C85.6718 181.778 90.3985 177.039 90.3985 171.194C90.3985 165.349 85.6718 160.61 79.841 160.61C74.0102 160.61 69.2834 165.349 69.2834 171.194C69.2834 177.039 74.0102 181.778 79.841 181.778Z" fill="#231F20" stroke="#939598" stroke-width="0.84" stroke-miterlimit="10"/>
<path d="M79.5688 182.184C85.4443 182.184 90.2074 177.409 90.2074 171.519C90.2074 165.629 85.4443 160.854 79.5688 160.854C73.6932 160.854 68.9302 165.629 68.9302 171.519C68.9302 177.409 73.6932 182.184 79.5688 182.184Z" fill="#231F20" stroke="#939598" stroke-width="0.85" stroke-miterlimit="10"/>
<path d="M79.2967 182.608C85.2234 182.608 90.028 177.792 90.028 171.85C90.028 165.909 85.2234 161.092 79.2967 161.092C73.37 161.092 68.5654 165.909 68.5654 171.85C68.5654 177.792 73.37 182.608 79.2967 182.608Z" fill="#231F20" stroke="#939598" stroke-width="0.86" stroke-miterlimit="10"/>
<path d="M79.0245 183.026C84.9992 183.026 89.8426 178.17 89.8426 172.181C89.8426 166.191 84.9992 161.336 79.0245 161.336C73.0498 161.336 68.2063 166.191 68.2063 172.181C68.2063 178.17 73.0498 183.026 79.0245 183.026Z" fill="#231F20" stroke="#939598" stroke-width="0.87" stroke-miterlimit="10"/>
<path d="M78.7524 183.45C84.7782 183.45 89.6632 178.553 89.6632 172.512C89.6632 166.471 84.7782 161.574 78.7524 161.574C72.7265 161.574 67.8416 166.471 67.8416 172.512C67.8416 178.553 72.7265 183.45 78.7524 183.45Z" fill="#231F20" stroke="#939598" stroke-width="0.88" stroke-miterlimit="10"/>
<path d="M78.4858 183.873C84.5661 183.873 89.4951 178.932 89.4951 172.837C89.4951 166.742 84.5661 161.8 78.4858 161.8C72.4056 161.8 67.4766 166.742 67.4766 172.837C67.4766 178.932 72.4056 183.873 78.4858 183.873Z" fill="#231F20" stroke="#939598" stroke-width="0.89" stroke-miterlimit="10"/>
<path d="M78.2137 184.303C84.3483 184.303 89.3214 179.318 89.3214 173.168C89.3214 167.018 84.3483 162.033 78.2137 162.033C72.0791 162.033 67.106 167.018 67.106 173.168C67.106 179.318 72.0791 184.303 78.2137 184.303Z" fill="#231F20" stroke="#939598" stroke-width="0.9" stroke-miterlimit="10"/>
<path d="M77.9415 184.733C84.1305 184.733 89.1477 179.703 89.1477 173.499C89.1477 167.295 84.1305 162.265 77.9415 162.265C71.7525 162.265 66.7354 167.295 66.7354 173.499C66.7354 179.703 71.7525 184.733 77.9415 184.733Z" fill="#231F20" stroke="#939598" stroke-width="0.91" stroke-miterlimit="10"/>
<path d="M77.6695 185.168C83.9161 185.168 88.98 180.092 88.98 173.83C88.98 167.568 83.9161 162.491 77.6695 162.491C71.423 162.491 66.3591 167.568 66.3591 173.83C66.3591 180.092 71.423 185.168 77.6695 185.168Z" fill="#231F20" stroke="#939598" stroke-width="0.92" stroke-miterlimit="10"/>
<path d="M77.4029 185.598C83.7071 185.598 88.8176 180.475 88.8176 174.155C88.8176 167.835 83.7071 162.712 77.4029 162.712C71.0988 162.712 65.9883 167.835 65.9883 174.155C65.9883 180.475 71.0988 185.598 77.4029 185.598Z" fill="#231F20" stroke="#939598" stroke-width="0.93" stroke-miterlimit="10"/>
<path d="M77.1306 186.039C83.4956 186.039 88.6553 180.867 88.6553 174.486C88.6553 168.105 83.4956 162.933 77.1306 162.933C70.7657 162.933 65.606 168.105 65.606 174.486C65.606 180.867 70.7657 186.039 77.1306 186.039Z" fill="#231F20" stroke="#939598" stroke-width="0.94" stroke-miterlimit="10"/>
<path d="M76.8586 186.48C83.2843 186.48 88.4933 181.258 88.4933 174.817C88.4933 168.375 83.2843 163.153 76.8586 163.153C70.4329 163.153 65.2239 168.375 65.2239 174.817C65.2239 181.258 70.4329 186.48 76.8586 186.48Z" fill="#231F20" stroke="#939598" stroke-width="0.95" stroke-miterlimit="10"/>
<path d="M76.5863 186.922C83.0728 186.922 88.3311 181.65 88.3311 175.148C88.3311 168.645 83.0728 163.374 76.5863 163.374C70.0999 163.374 64.8416 168.645 64.8416 175.148C64.8416 181.65 70.0999 186.922 76.5863 186.922Z" fill="#231F20" stroke="#939598" stroke-width="0.96" stroke-miterlimit="10"/>
<path d="M76.3201 187.369C82.8705 187.369 88.1806 182.045 88.1806 175.479C88.1806 168.912 82.8705 163.589 76.3201 163.589C69.7696 163.589 64.4595 168.912 64.4595 175.479C64.4595 182.045 69.7696 187.369 76.3201 187.369Z" fill="#231F20" stroke="#939598" stroke-width="0.97" stroke-miterlimit="10"/>
<path d="M76.0477 187.81C82.6621 187.81 88.0241 182.435 88.0241 175.804C88.0241 169.173 82.6621 163.798 76.0477 163.798C69.4333 163.798 64.0713 169.173 64.0713 175.804C64.0713 182.435 69.4333 187.81 76.0477 187.81Z" fill="#231F20" stroke="#939598" stroke-width="0.98" stroke-miterlimit="10"/>
<path d="M75.7755 188.263C82.4571 188.263 87.8736 182.833 87.8736 176.135C87.8736 169.437 82.4571 164.007 75.7755 164.007C69.094 164.007 63.6775 169.437 63.6775 176.135C63.6775 182.833 69.094 188.263 75.7755 188.263Z" fill="#231F20" stroke="#939598" stroke-width="0.99" stroke-miterlimit="10"/>
<path d="M75.5034 188.71C82.2489 188.71 87.7173 183.228 87.7173 176.466C87.7173 169.704 82.2489 164.222 75.5034 164.222C68.7579 164.222 63.2896 169.704 63.2896 176.466C63.2896 183.228 68.7579 188.71 75.5034 188.71Z" stroke="#939598" stroke-miterlimit="10"/>
</g>
<defs>
<clipPath id="clip0_2833_7843">
<rect width="55" height="61" fill="white" transform="translate(63 128)"/>
</clipPath>
</defs>
</svg>
