<svg width="270" height="316" viewBox="0 0 270 316" fill="none" xmlns="http://www.w3.org/2000/svg">
<rect width="270" height="316" rx="11" transform="matrix(1 0 0 -1 0 316)" fill="black"/>
<path d="M38.656 139.912V142H28.288L34.912 129.52H29.08V127.432H38.824L32.176 139.912H38.656ZM42.9254 128.536C42.9254 128.904 42.7894 129.224 42.5174 129.496C42.2454 129.768 41.9254 129.904 41.5574 129.904C41.1894 129.904 40.8694 129.768 40.5974 129.496C40.3254 129.224 40.1894 128.904 40.1894 128.536C40.1894 128.168 40.3254 127.848 40.5974 127.576C40.8694 127.304 41.1894 127.168 41.5574 127.168C41.9254 127.168 42.2454 127.304 42.5174 127.576C42.7894 127.848 42.9254 128.168 42.9254 128.536ZM42.7334 142H40.4054V132.52H42.7334V142ZM61.5514 133.36V127.432H63.9994V142H61.5514V135.304H55.5274V142H53.0554V127.432H55.5274V133.36H61.5514ZM68.2947 132.52V137.656C68.2947 139.496 68.9347 140.416 70.2147 140.416C71.4947 140.416 72.1347 139.496 72.1347 137.656V132.52H74.4627V138.088C74.4627 140.904 73.0467 142.312 70.2147 142.312C67.3827 142.312 65.9667 140.904 65.9667 138.088V132.52H68.2947ZM85.3266 142H83.0466V141.136C82.3746 141.92 81.3746 142.312 80.0466 142.312C78.7186 142.312 77.6546 141.8 76.8546 140.776C76.0706 139.752 75.6786 138.552 75.6786 137.176C75.6786 135.8 76.0786 134.632 76.8786 133.672C77.6946 132.696 78.7346 132.208 79.9986 132.208C81.3426 132.208 82.3586 132.608 83.0466 133.408V132.52H85.3266V142ZM83.3106 137.248C83.3106 136.368 83.0626 135.648 82.5666 135.088C82.0706 134.512 81.4306 134.224 80.6466 134.224C79.8786 134.224 79.2466 134.504 78.7506 135.064C78.2706 135.608 78.0306 136.336 78.0306 137.248C78.0306 138.16 78.2786 138.896 78.7746 139.456C79.2706 140.016 79.9106 140.296 80.6946 140.296C81.4786 140.296 82.1106 140.024 82.5906 139.48C83.0706 138.936 83.3106 138.192 83.3106 137.248Z" fill="white"/>
<rect x="26.8271" y="29.0696" width="8.65384" height="20" fill="white"/>
<rect x="26.8271" y="53" width="8.65385" height="23" fill="white"/>
<rect x="38.9346" y="29.0348" width="8.65384" height="13" fill="white"/>
<rect x="38.9712" y="46.0347" width="8.65384" height="13" fill="white"/>
<rect x="39.0083" y="63.0347" width="8.65384" height="13" fill="white"/>
<rect x="51.062" y="29" width="8.65384" height="24" fill="white"/>
<rect x="51.0576" y="57" width="8.65385" height="9" fill="white"/>
<rect x="51.0576" y="70" width="8.65385" height="6" fill="white"/>
<path d="M36.6396 182.684C36.0036 181.916 35.2056 181.532 34.2456 181.532C33.2496 181.532 32.4156 181.946 31.7436 182.774C31.0716 183.59 30.7356 184.526 30.7356 185.582C30.7356 186.602 31.0656 187.52 31.7256 188.336C32.3976 189.14 33.2316 189.542 34.2276 189.542C35.1756 189.542 35.9796 189.158 36.6396 188.39V190.64C35.7516 191.072 34.9296 191.288 34.1736 191.288C32.6616 191.288 31.3896 190.73 30.3576 189.614C29.3256 188.498 28.8096 187.166 28.8096 185.618C28.8096 184.01 29.3256 182.636 30.3576 181.496C31.3896 180.356 32.6736 179.786 34.2096 179.786C35.0136 179.786 35.8236 179.996 36.6396 180.416V182.684ZM39.7424 184.628C40.1864 183.98 40.8824 183.656 41.8304 183.656C42.1304 183.656 42.4064 183.716 42.6584 183.836L42.4424 185.42C42.1784 185.252 41.8904 185.168 41.5784 185.168C40.3544 185.168 39.7424 186.044 39.7424 187.796V191H37.9964V183.89H39.7424V184.628ZM44.655 187.616C44.655 188.3 44.805 188.864 45.105 189.308C45.405 189.752 45.819 189.974 46.347 189.974C47.175 189.974 47.703 189.566 47.931 188.75L49.587 189.02C49.047 190.496 47.967 191.234 46.347 191.234C45.267 191.234 44.403 190.892 43.755 190.208C43.119 189.512 42.801 188.612 42.801 187.508C42.801 186.344 43.107 185.414 43.719 184.718C44.343 184.01 45.183 183.656 46.239 183.656C47.307 183.656 48.135 183.992 48.723 184.664C49.323 185.324 49.623 186.23 49.623 187.382V187.616H44.655ZM48.003 186.644C48.003 186.152 47.847 185.72 47.535 185.348C47.235 184.976 46.839 184.79 46.347 184.79C45.867 184.79 45.471 184.988 45.159 185.384C44.859 185.768 44.709 186.188 44.709 186.644H48.003ZM57.2967 191H55.5867V190.352C55.0827 190.94 54.3327 191.234 53.3367 191.234C52.3407 191.234 51.5427 190.85 50.9427 190.082C50.3547 189.314 50.0607 188.414 50.0607 187.382C50.0607 186.35 50.3607 185.474 50.9607 184.754C51.5727 184.022 52.3527 183.656 53.3007 183.656C54.3087 183.656 55.0707 183.956 55.5867 184.556V183.89H57.2967V191ZM55.7847 187.436C55.7847 186.776 55.5987 186.236 55.2267 185.816C54.8547 185.384 54.3747 185.168 53.7867 185.168C53.2107 185.168 52.7367 185.378 52.3647 185.798C52.0047 186.206 51.8247 186.752 51.8247 187.436C51.8247 188.12 52.0107 188.672 52.3827 189.092C52.7547 189.512 53.2347 189.722 53.8227 189.722C54.4107 189.722 54.8847 189.518 55.2447 189.11C55.6047 188.702 55.7847 188.144 55.7847 187.436ZM60.8981 191H59.1521V185.456H58.3061V184.034H59.1521V181.478H60.8981V184.034H62.2841V185.456H60.8981V191ZM64.8708 180.902C64.8708 181.178 64.7688 181.418 64.5648 181.622C64.3608 181.826 64.1208 181.928 63.8448 181.928C63.5688 181.928 63.3288 181.826 63.1248 181.622C62.9208 181.418 62.8188 181.178 62.8188 180.902C62.8188 180.626 62.9208 180.386 63.1248 180.182C63.3288 179.978 63.5688 179.876 63.8448 179.876C64.1208 179.876 64.3608 179.978 64.5648 180.182C64.7688 180.386 64.8708 180.626 64.8708 180.902ZM64.7268 191H62.9808V183.89H64.7268V191ZM68.1486 184.538C68.6406 183.95 69.3666 183.656 70.3266 183.656C71.9586 183.656 72.7746 184.658 72.7746 186.662V191H71.0466V187.238C71.0466 185.738 70.5846 184.988 69.6606 184.988C68.6526 184.988 68.1486 185.792 68.1486 187.4V191H66.4026V183.89H68.1486V184.538ZM80.9929 190.388C80.9929 192.824 79.8589 194.042 77.5909 194.042C76.5829 194.042 75.7309 193.766 75.0349 193.214C74.3389 192.674 73.9909 191.966 73.9909 191.09H75.8449C75.8449 191.438 76.0189 191.78 76.3669 192.116C76.7149 192.452 77.1049 192.62 77.5369 192.62C78.6769 192.62 79.2469 191.936 79.2469 190.568V190.118C78.7549 190.742 78.0049 191.054 76.9969 191.054C76.0009 191.054 75.2149 190.706 74.6389 190.01C74.0749 189.314 73.7929 188.462 73.7929 187.454C73.7929 186.362 74.0989 185.45 74.7109 184.718C75.3229 183.986 76.1149 183.62 77.0869 183.62C78.0709 183.62 78.7909 183.926 79.2469 184.538V183.854H80.9929V190.388ZM79.4989 187.292C79.4989 186.644 79.3189 186.122 78.9589 185.726C78.5989 185.33 78.1249 185.132 77.5369 185.132C76.9489 185.132 76.4689 185.348 76.0969 185.78C75.7369 186.212 75.5569 186.758 75.5569 187.418C75.5569 188.834 76.2169 189.542 77.5369 189.542C78.1369 189.542 78.6109 189.332 78.9589 188.912C79.3189 188.48 79.4989 187.94 79.4989 187.292ZM90.3373 191H88.5913V185.456H87.7633V184.034H88.5913V181.802C88.5913 179.63 89.4373 178.544 91.1293 178.544C91.4773 178.544 91.8013 178.622 92.1013 178.778V180.29C91.7893 180.134 91.5133 180.056 91.2733 180.056C90.9493 180.056 90.7093 180.176 90.5533 180.416C90.4093 180.644 90.3373 181.202 90.3373 182.09V184.034H92.1013V185.456H90.3373V191ZM99.5018 191H97.7918V190.352C97.2878 190.94 96.5378 191.234 95.5418 191.234C94.5458 191.234 93.7478 190.85 93.1478 190.082C92.5598 189.314 92.2658 188.414 92.2658 187.382C92.2658 186.35 92.5658 185.474 93.1658 184.754C93.7778 184.022 94.5578 183.656 95.5058 183.656C96.5138 183.656 97.2758 183.956 97.7918 184.556V183.89H99.5018V191ZM97.9898 187.436C97.9898 186.776 97.8038 186.236 97.4318 185.816C97.0598 185.384 96.5798 185.168 95.9918 185.168C95.4158 185.168 94.9418 185.378 94.5698 185.798C94.2098 186.206 94.0298 186.752 94.0298 187.436C94.0298 188.12 94.2158 188.672 94.5878 189.092C94.9598 189.512 95.4398 189.722 96.0278 189.722C96.6158 189.722 97.0898 189.518 97.4498 189.11C97.8098 188.702 97.9898 188.144 97.9898 187.436ZM102.815 186.878L105.299 183.89H107.639L104.651 187.022L107.873 191H105.497L102.851 187.544L102.815 191H101.069V178.706H102.815V186.878ZM109.923 187.616C109.923 188.3 110.073 188.864 110.373 189.308C110.673 189.752 111.087 189.974 111.615 189.974C112.443 189.974 112.971 189.566 113.199 188.75L114.855 189.02C114.315 190.496 113.235 191.234 111.615 191.234C110.535 191.234 109.671 190.892 109.023 190.208C108.387 189.512 108.069 188.612 108.069 187.508C108.069 186.344 108.375 185.414 108.987 184.718C109.611 184.01 110.451 183.656 111.507 183.656C112.575 183.656 113.403 183.992 113.991 184.664C114.591 185.324 114.891 186.23 114.891 187.382V187.616H109.923ZM113.271 186.644C113.271 186.152 113.115 185.72 112.803 185.348C112.503 184.976 112.107 184.79 111.615 184.79C111.135 184.79 110.739 184.988 110.427 185.384C110.127 185.768 109.977 186.188 109.977 186.644H113.271ZM129.206 182.684C128.57 181.916 127.772 181.532 126.812 181.532C125.816 181.532 124.982 181.946 124.31 182.774C123.638 183.59 123.302 184.526 123.302 185.582C123.302 186.602 123.632 187.52 124.292 188.336C124.964 189.14 125.798 189.542 126.794 189.542C127.742 189.542 128.546 189.158 129.206 188.39V190.64C128.318 191.072 127.496 191.288 126.74 191.288C125.228 191.288 123.956 190.73 122.924 189.614C121.892 188.498 121.376 187.166 121.376 185.618C121.376 184.01 121.892 182.636 122.924 181.496C123.956 180.356 125.24 179.786 126.776 179.786C127.58 179.786 128.39 179.996 129.206 180.416V182.684ZM132.309 178.706V184.484C132.765 183.932 133.491 183.656 134.487 183.656C135.231 183.656 135.825 183.944 136.269 184.52C136.713 185.096 136.935 185.81 136.935 186.662V191H135.207V187.238C135.207 185.738 134.745 184.988 133.821 184.988C132.813 184.988 132.309 185.816 132.309 187.472V191H130.563V178.706H132.309ZM140.527 180.902C140.527 181.178 140.425 181.418 140.221 181.622C140.017 181.826 139.777 181.928 139.501 181.928C139.225 181.928 138.985 181.826 138.781 181.622C138.577 181.418 138.475 181.178 138.475 180.902C138.475 180.626 138.577 180.386 138.781 180.182C138.985 179.978 139.225 179.876 139.501 179.876C139.777 179.876 140.017 179.978 140.221 180.182C140.425 180.386 140.527 180.626 140.527 180.902ZM140.383 191H138.637V183.89H140.383V191ZM143.805 184.538C144.297 183.95 145.023 183.656 145.983 183.656C147.615 183.656 148.431 184.658 148.431 186.662V191H146.703V187.238C146.703 185.738 146.241 184.988 145.317 184.988C144.309 184.988 143.805 185.792 143.805 187.4V191H142.059V183.89H143.805V184.538ZM151.231 187.616C151.231 188.3 151.381 188.864 151.681 189.308C151.981 189.752 152.395 189.974 152.923 189.974C153.751 189.974 154.279 189.566 154.507 188.75L156.163 189.02C155.623 190.496 154.543 191.234 152.923 191.234C151.843 191.234 150.979 190.892 150.331 190.208C149.695 189.512 149.377 188.612 149.377 187.508C149.377 186.344 149.683 185.414 150.295 184.718C150.919 184.01 151.759 183.656 152.815 183.656C153.883 183.656 154.711 183.992 155.299 184.664C155.899 185.324 156.199 186.23 156.199 187.382V187.616H151.231ZM154.579 186.644C154.579 186.152 154.423 185.72 154.111 185.348C153.811 184.976 153.415 184.79 152.923 184.79C152.443 184.79 152.047 184.988 151.735 185.384C151.435 185.768 151.285 186.188 151.285 186.644H154.579ZM160.939 185.366C160.555 185.006 160.153 184.826 159.733 184.826C159.097 184.826 158.779 185.114 158.779 185.69C158.779 186.014 159.067 186.278 159.643 186.482C160.699 186.866 161.353 187.22 161.605 187.544C161.857 187.856 161.983 188.246 161.983 188.714C161.983 189.482 161.713 190.094 161.173 190.55C160.645 191.006 159.991 191.234 159.211 191.234C158.203 191.234 157.369 190.838 156.709 190.046L157.483 189.056C158.083 189.656 158.635 189.956 159.139 189.956C159.871 189.956 160.237 189.602 160.237 188.894C160.237 188.534 160.045 188.27 159.661 188.102C159.277 187.922 158.983 187.79 158.779 187.706C157.675 187.226 157.123 186.644 157.123 185.96C157.123 185.276 157.327 184.724 157.735 184.304C158.155 183.872 158.701 183.656 159.373 183.656C160.333 183.656 161.095 183.902 161.659 184.394L160.939 185.366ZM164.432 187.616C164.432 188.3 164.582 188.864 164.882 189.308C165.182 189.752 165.596 189.974 166.124 189.974C166.952 189.974 167.48 189.566 167.708 188.75L169.364 189.02C168.824 190.496 167.744 191.234 166.124 191.234C165.044 191.234 164.18 190.892 163.532 190.208C162.896 189.512 162.578 188.612 162.578 187.508C162.578 186.344 162.884 185.414 163.496 184.718C164.12 184.01 164.96 183.656 166.016 183.656C167.084 183.656 167.912 183.992 168.5 184.664C169.1 185.324 169.4 186.23 169.4 187.382V187.616H164.432ZM167.78 186.644C167.78 186.152 167.624 185.72 167.312 185.348C167.012 184.976 166.616 184.79 166.124 184.79C165.644 184.79 165.248 184.988 164.936 185.384C164.636 185.768 164.486 186.188 164.486 186.644H167.78ZM34.1196 203.744C33.6756 203.3 33.1776 203.078 32.6256 203.078C31.9776 203.078 31.4676 203.312 31.0956 203.78C30.7236 204.248 30.5376 204.824 30.5376 205.508C30.5376 206.18 30.7476 206.732 31.1676 207.164C31.5876 207.596 32.0976 207.812 32.6976 207.812C33.2136 207.812 33.6876 207.584 34.1196 207.128V208.802C33.6156 209.09 33.0336 209.234 32.3736 209.234C31.3416 209.234 30.4836 208.868 29.7996 208.136C29.1156 207.404 28.7736 206.51 28.7736 205.454C28.7736 204.398 29.1216 203.504 29.8176 202.772C30.5256 202.028 31.4076 201.656 32.4636 201.656C33.0876 201.656 33.6396 201.806 34.1196 202.106V203.744ZM37.1232 196.706V202.484C37.5792 201.932 38.3052 201.656 39.3012 201.656C40.0452 201.656 40.6392 201.944 41.0832 202.52C41.5272 203.096 41.7492 203.81 41.7492 204.662V209H40.0212V205.238C40.0212 203.738 39.5592 202.988 38.6352 202.988C37.6272 202.988 37.1232 203.816 37.1232 205.472V209H35.3772V196.706H37.1232ZM49.9315 209H48.2215V208.352C47.7175 208.94 46.9675 209.234 45.9715 209.234C44.9755 209.234 44.1775 208.85 43.5775 208.082C42.9895 207.314 42.6955 206.414 42.6955 205.382C42.6955 204.35 42.9955 203.474 43.5955 202.754C44.2075 202.022 44.9875 201.656 45.9355 201.656C46.9435 201.656 47.7055 201.956 48.2215 202.556V201.89H49.9315V209ZM48.4195 205.436C48.4195 204.776 48.2335 204.236 47.8615 203.816C47.4895 203.384 47.0095 203.168 46.4215 203.168C45.8455 203.168 45.3715 203.378 44.9995 203.798C44.6395 204.206 44.4595 204.752 44.4595 205.436C44.4595 206.12 44.6455 206.672 45.0175 207.092C45.3895 207.512 45.8695 207.722 46.4575 207.722C47.0455 207.722 47.5195 207.518 47.8795 207.11C48.2395 206.702 48.4195 206.144 48.4195 205.436ZM53.1369 202.628C53.5809 201.98 54.2769 201.656 55.2249 201.656C55.5249 201.656 55.8009 201.716 56.0529 201.836L55.8369 203.42C55.5729 203.252 55.2849 203.168 54.9729 203.168C53.7489 203.168 53.1369 204.044 53.1369 205.796V209H51.3909V201.89H53.1369V202.628ZM63.4315 209H61.7215V208.352C61.2175 208.94 60.4675 209.234 59.4715 209.234C58.4755 209.234 57.6775 208.85 57.0775 208.082C56.4895 207.314 56.1955 206.414 56.1955 205.382C56.1955 204.35 56.4955 203.474 57.0955 202.754C57.7075 202.022 58.4875 201.656 59.4355 201.656C60.4435 201.656 61.2055 201.956 61.7215 202.556V201.89H63.4315V209ZM61.9195 205.436C61.9195 204.776 61.7335 204.236 61.3615 203.816C60.9895 203.384 60.5095 203.168 59.9215 203.168C59.3455 203.168 58.8715 203.378 58.4995 203.798C58.1395 204.206 57.9595 204.752 57.9595 205.436C57.9595 206.12 58.1455 206.672 58.5175 207.092C58.8895 207.512 59.3695 207.722 59.9575 207.722C60.5455 207.722 61.0195 207.518 61.3795 207.11C61.7395 206.702 61.9195 206.144 61.9195 205.436ZM69.7329 203.744C69.2889 203.3 68.7909 203.078 68.2389 203.078C67.5909 203.078 67.0809 203.312 66.7089 203.78C66.3369 204.248 66.1509 204.824 66.1509 205.508C66.1509 206.18 66.3609 206.732 66.7809 207.164C67.2009 207.596 67.7109 207.812 68.3109 207.812C68.8269 207.812 69.3009 207.584 69.7329 207.128V208.802C69.2289 209.09 68.6469 209.234 67.9869 209.234C66.9549 209.234 66.0969 208.868 65.4129 208.136C64.7289 207.404 64.3869 206.51 64.3869 205.454C64.3869 204.398 64.7349 203.504 65.4309 202.772C66.1389 202.028 67.0209 201.656 68.0769 201.656C68.7009 201.656 69.2529 201.806 69.7329 202.106V203.744ZM73.1325 209H71.3865V203.456H70.5405V202.034H71.3865V199.478H73.1325V202.034H74.5185V203.456H73.1325V209ZM76.3132 205.616C76.3132 206.3 76.4632 206.864 76.7632 207.308C77.0632 207.752 77.4772 207.974 78.0052 207.974C78.8332 207.974 79.3612 207.566 79.5892 206.75L81.2452 207.02C80.7052 208.496 79.6252 209.234 78.0052 209.234C76.9252 209.234 76.0612 208.892 75.4132 208.208C74.7772 207.512 74.4592 206.612 74.4592 205.508C74.4592 204.344 74.7652 203.414 75.3772 202.718C76.0012 202.01 76.8412 201.656 77.8972 201.656C78.9652 201.656 79.7932 201.992 80.3812 202.664C80.9812 203.324 81.2812 204.23 81.2812 205.382V205.616H76.3132ZM79.6612 204.644C79.6612 204.152 79.5052 203.72 79.1932 203.348C78.8932 202.976 78.4972 202.79 78.0052 202.79C77.5252 202.79 77.1292 202.988 76.8172 203.384C76.5172 203.768 76.3672 204.188 76.3672 204.644H79.6612ZM83.9689 202.628C84.4129 201.98 85.1089 201.656 86.0569 201.656C86.3569 201.656 86.6329 201.716 86.8849 201.836L86.6689 203.42C86.4049 203.252 86.1169 203.168 85.8049 203.168C84.5809 203.168 83.9689 204.044 83.9689 205.796V209H82.2229V201.89H83.9689V202.628ZM91.3295 203.366C90.9455 203.006 90.5435 202.826 90.1235 202.826C89.4875 202.826 89.1695 203.114 89.1695 203.69C89.1695 204.014 89.4575 204.278 90.0335 204.482C91.0895 204.866 91.7435 205.22 91.9955 205.544C92.2475 205.856 92.3735 206.246 92.3735 206.714C92.3735 207.482 92.1035 208.094 91.5635 208.55C91.0355 209.006 90.3815 209.234 89.6015 209.234C88.5935 209.234 87.7595 208.838 87.0995 208.046L87.8735 207.056C88.4735 207.656 89.0255 207.956 89.5295 207.956C90.2615 207.956 90.6275 207.602 90.6275 206.894C90.6275 206.534 90.4355 206.27 90.0515 206.102C89.6675 205.922 89.3735 205.79 89.1695 205.706C88.0655 205.226 87.5135 204.644 87.5135 203.96C87.5135 203.276 87.7175 202.724 88.1255 202.304C88.5455 201.872 89.0915 201.656 89.7635 201.656C90.7235 201.656 91.4855 201.902 92.0495 202.394L91.3295 203.366ZM101.195 201.89V205.742C101.195 207.122 101.675 207.812 102.635 207.812C103.595 207.812 104.075 207.122 104.075 205.742V201.89H105.821V206.066C105.821 208.178 104.759 209.234 102.635 209.234C100.511 209.234 99.4486 208.178 99.4486 206.066V201.89H101.195ZM111.035 203.366C110.651 203.006 110.249 202.826 109.829 202.826C109.193 202.826 108.875 203.114 108.875 203.69C108.875 204.014 109.163 204.278 109.739 204.482C110.795 204.866 111.449 205.22 111.701 205.544C111.953 205.856 112.079 206.246 112.079 206.714C112.079 207.482 111.809 208.094 111.269 208.55C110.741 209.006 110.087 209.234 109.307 209.234C108.299 209.234 107.465 208.838 106.805 208.046L107.579 207.056C108.179 207.656 108.731 207.956 109.235 207.956C109.967 207.956 110.333 207.602 110.333 206.894C110.333 206.534 110.141 206.27 109.757 206.102C109.373 205.922 109.079 205.79 108.875 205.706C107.771 205.226 107.219 204.644 107.219 203.96C107.219 203.276 107.423 202.724 107.831 202.304C108.251 201.872 108.797 201.656 109.469 201.656C110.429 201.656 111.191 201.902 111.755 202.394L111.035 203.366ZM115.32 198.902C115.32 199.178 115.218 199.418 115.014 199.622C114.81 199.826 114.57 199.928 114.294 199.928C114.018 199.928 113.778 199.826 113.574 199.622C113.37 199.418 113.268 199.178 113.268 198.902C113.268 198.626 113.37 198.386 113.574 198.182C113.778 197.978 114.018 197.876 114.294 197.876C114.57 197.876 114.81 197.978 115.014 198.182C115.218 198.386 115.32 198.626 115.32 198.902ZM115.176 209H113.43V201.89H115.176V209ZM118.598 202.538C119.09 201.95 119.816 201.656 120.776 201.656C122.408 201.656 123.224 202.658 123.224 204.662V209H121.496V205.238C121.496 203.738 121.034 202.988 120.11 202.988C119.102 202.988 118.598 203.792 118.598 205.4V209H116.852V201.89H118.598V202.538ZM131.442 208.388C131.442 210.824 130.308 212.042 128.04 212.042C127.032 212.042 126.18 211.766 125.484 211.214C124.788 210.674 124.44 209.966 124.44 209.09H126.294C126.294 209.438 126.468 209.78 126.816 210.116C127.164 210.452 127.554 210.62 127.986 210.62C129.126 210.62 129.696 209.936 129.696 208.568V208.118C129.204 208.742 128.454 209.054 127.446 209.054C126.45 209.054 125.664 208.706 125.088 208.01C124.524 207.314 124.242 206.462 124.242 205.454C124.242 204.362 124.548 203.45 125.16 202.718C125.772 201.986 126.564 201.62 127.536 201.62C128.52 201.62 129.24 201.926 129.696 202.538V201.854H131.442V208.388ZM129.948 205.292C129.948 204.644 129.768 204.122 129.408 203.726C129.048 203.33 128.574 203.132 127.986 203.132C127.398 203.132 126.918 203.348 126.546 203.78C126.186 204.212 126.006 204.758 126.006 205.418C126.006 206.834 126.666 207.542 127.986 207.542C128.586 207.542 129.06 207.332 129.408 206.912C129.768 206.48 129.948 205.94 129.948 205.292ZM144.17 200.288C143.702 199.628 143.108 199.298 142.388 199.298C141.932 199.298 141.548 199.436 141.236 199.712C140.924 199.988 140.768 200.36 140.768 200.828C140.768 201.284 141.332 201.83 142.46 202.466C143.6 203.102 144.176 203.42 144.188 203.42C144.992 204.02 145.394 204.728 145.394 205.544C145.394 206.66 145.07 207.566 144.422 208.262C143.786 208.946 142.91 209.288 141.794 209.288C140.378 209.288 139.262 208.58 138.446 207.164L139.616 206.012C139.772 206.432 140.06 206.816 140.48 207.164C140.9 207.512 141.332 207.686 141.776 207.686C142.304 207.686 142.718 207.506 143.018 207.146C143.33 206.786 143.486 206.348 143.486 205.832C143.486 205.46 143.372 205.136 143.144 204.86C142.916 204.572 142.142 204.14 140.822 203.564C139.514 202.976 138.86 202.142 138.86 201.062C138.86 200.138 139.16 199.364 139.76 198.74C140.372 198.104 141.134 197.786 142.046 197.786C143.306 197.786 144.302 198.194 145.034 199.01L144.17 200.288ZM148.29 204.878L150.774 201.89H153.114L150.126 205.022L153.348 209H150.972L148.326 205.544L148.29 209H146.544V196.706H148.29V204.878ZM155.397 205.616C155.397 206.3 155.547 206.864 155.847 207.308C156.147 207.752 156.561 207.974 157.089 207.974C157.917 207.974 158.445 207.566 158.673 206.75L160.329 207.02C159.789 208.496 158.709 209.234 157.089 209.234C156.009 209.234 155.145 208.892 154.497 208.208C153.861 207.512 153.543 206.612 153.543 205.508C153.543 204.344 153.849 203.414 154.461 202.718C155.085 202.01 155.925 201.656 156.981 201.656C158.049 201.656 158.877 201.992 159.465 202.664C160.065 203.324 160.365 204.23 160.365 205.382V205.616H155.397ZM158.745 204.644C158.745 204.152 158.589 203.72 158.277 203.348C157.977 202.976 157.581 202.79 157.089 202.79C156.609 202.79 156.213 202.988 155.901 203.384C155.601 203.768 155.451 204.188 155.451 204.644H158.745ZM163.449 209H161.703V203.456H160.857V202.034H161.703V199.478H163.449V202.034H164.835V203.456H163.449V209ZM170.122 203.744C169.678 203.3 169.18 203.078 168.628 203.078C167.98 203.078 167.47 203.312 167.098 203.78C166.726 204.248 166.54 204.824 166.54 205.508C166.54 206.18 166.75 206.732 167.17 207.164C167.59 207.596 168.1 207.812 168.7 207.812C169.216 207.812 169.69 207.584 170.122 207.128V208.802C169.618 209.09 169.036 209.234 168.376 209.234C167.344 209.234 166.486 208.868 165.802 208.136C165.118 207.404 164.776 206.51 164.776 205.454C164.776 204.398 165.124 203.504 165.82 202.772C166.528 202.028 167.41 201.656 168.466 201.656C169.09 201.656 169.642 201.806 170.122 202.106V203.744ZM173.125 196.706V202.484C173.581 201.932 174.307 201.656 175.303 201.656C176.047 201.656 176.641 201.944 177.085 202.52C177.529 203.096 177.751 203.81 177.751 204.662V209H176.023V205.238C176.023 203.738 175.561 202.988 174.637 202.988C173.629 202.988 173.125 203.816 173.125 205.472V209H171.379V196.706H173.125ZM186.509 209H184.223L181.127 204.14L181.109 209H179.255V198.074H182.153C184.589 198.074 185.807 199.172 185.807 201.368C185.807 202.196 185.591 202.886 185.159 203.438C184.739 203.99 184.163 204.308 183.431 204.392L186.509 209ZM181.109 203.384H181.667C183.191 203.384 183.953 202.73 183.953 201.422C183.953 200.162 183.197 199.532 181.685 199.532H181.109V203.384ZM187.341 197.786H188.745L194.919 206.012L194.955 198.074H196.791V209.216H195.405L189.213 201.008L189.195 209H187.341V197.786ZM198.345 197.786H199.749L205.923 206.012L205.959 198.074H207.795V209.216H206.409L200.217 201.008L200.199 209H198.345V197.786ZM211.959 207.974C211.959 208.334 211.833 208.646 211.581 208.91C211.341 209.162 211.041 209.288 210.681 209.288C210.321 209.288 210.015 209.162 209.763 208.91C209.511 208.658 209.385 208.358 209.385 208.01C209.385 207.65 209.511 207.344 209.763 207.092C210.015 206.84 210.315 206.714 210.663 206.714C211.023 206.714 211.329 206.834 211.581 207.074C211.833 207.314 211.959 207.614 211.959 207.974Z" fill="white"/>
<path d="M223.758 290.434V292H216.414L219.186 288.49C220.506 286.858 221.28 285.838 221.508 285.43C221.748 285.01 221.868 284.668 221.868 284.404C221.88 284.332 221.886 284.26 221.886 284.188C221.886 283.708 221.724 283.282 221.4 282.91C221.088 282.538 220.674 282.352 220.158 282.352C219.642 282.352 219.234 282.562 218.934 282.982C218.646 283.402 218.502 283.912 218.502 284.512H216.558C216.558 283.432 216.876 282.544 217.512 281.848C218.16 281.14 219.036 280.786 220.14 280.786C221.136 280.786 221.976 281.122 222.66 281.794C223.344 282.466 223.686 283.306 223.686 284.314C223.686 285.262 222.96 286.582 221.508 288.274L219.654 290.434H223.758ZM232.467 286.546C232.467 288.13 232.119 289.486 231.423 290.614C230.727 291.73 229.767 292.288 228.543 292.288C227.331 292.288 226.377 291.724 225.681 290.596C224.985 289.468 224.637 288.118 224.637 286.546C224.637 284.914 224.985 283.546 225.681 282.442C226.389 281.338 227.349 280.786 228.561 280.786C229.773 280.786 230.727 281.35 231.423 282.478C232.119 283.594 232.467 284.95 232.467 286.546ZM226.437 286.528C226.437 287.632 226.629 288.61 227.013 289.462C227.397 290.302 227.919 290.722 228.579 290.722C229.239 290.722 229.749 290.326 230.109 289.534C230.481 288.742 230.667 287.74 230.667 286.528C230.667 285.412 230.475 284.44 230.091 283.612C229.707 282.772 229.191 282.352 228.543 282.352C227.907 282.352 227.397 282.79 227.013 283.666C226.629 284.53 226.437 285.484 226.437 286.528ZM240.492 290.434V292H233.148L235.92 288.49C237.24 286.858 238.014 285.838 238.242 285.43C238.482 285.01 238.602 284.668 238.602 284.404C238.614 284.332 238.62 284.26 238.62 284.188C238.62 283.708 238.458 283.282 238.134 282.91C237.822 282.538 237.408 282.352 236.892 282.352C236.376 282.352 235.968 282.562 235.668 282.982C235.38 283.402 235.236 283.912 235.236 284.512H233.292C233.292 283.432 233.61 282.544 234.246 281.848C234.894 281.14 235.77 280.786 236.874 280.786C237.87 280.786 238.71 281.122 239.394 281.794C240.078 282.466 240.42 283.306 240.42 284.314C240.42 285.262 239.694 286.582 238.242 288.274L236.388 290.434H240.492ZM248.86 290.434V292H241.516L244.288 288.49C245.608 286.858 246.382 285.838 246.61 285.43C246.85 285.01 246.97 284.668 246.97 284.404C246.982 284.332 246.988 284.26 246.988 284.188C246.988 283.708 246.826 283.282 246.502 282.91C246.19 282.538 245.776 282.352 245.26 282.352C244.744 282.352 244.336 282.562 244.036 282.982C243.748 283.402 243.604 283.912 243.604 284.512H241.66C241.66 283.432 241.978 282.544 242.614 281.848C243.262 281.14 244.138 280.786 245.242 280.786C246.238 280.786 247.078 281.122 247.762 281.794C248.446 282.466 248.788 283.306 248.788 284.314C248.788 285.262 248.062 286.582 246.61 288.274L244.756 290.434H248.86Z" fill="white"/>
</svg>
