<svg width="990" height="55" viewBox="0 0 990 55" fill="none" xmlns="http://www.w3.org/2000/svg">
<path d="M482.838 47.7871H484.871C485.387 47.7871 485.805 47.7129 486.125 47.5645C486.445 47.416 486.729 47.1699 486.975 46.8262H487.168L486.605 49H482.006L482 48.7598C482.176 48.377 482.383 48.0078 482.621 47.6523C482.859 47.2969 483.207 46.8418 483.664 46.2871C483.859 46.0449 484.023 45.8418 484.156 45.6777C484.293 45.5098 484.398 45.3809 484.473 45.291C484.867 44.791 485.148 44.3555 485.316 43.9844C485.488 43.6133 485.574 43.2383 485.574 42.8594C485.574 42.5391 485.516 42.2422 485.398 41.9688C485.285 41.6953 485.127 41.4824 484.924 41.3301C484.721 41.1738 484.502 41.0957 484.268 41.0957C483.779 41.0957 483.525 41.4004 483.506 42.0098L483.494 42.3203C483.479 42.7969 483.293 43.0352 482.938 43.0352C482.766 43.0352 482.623 42.9746 482.51 42.8535C482.396 42.7285 482.34 42.5684 482.34 42.373C482.34 42.0957 482.439 41.8418 482.639 41.6113C482.838 41.377 483.109 41.1914 483.453 41.0547C483.801 40.918 484.178 40.8496 484.584 40.8496C485.033 40.8496 485.443 40.9395 485.814 41.1191C486.189 41.2988 486.48 41.5488 486.688 41.8691C486.898 42.1855 487.004 42.541 487.004 42.9355C487.004 43.2168 486.951 43.4824 486.846 43.7324C486.744 43.9785 486.572 44.2402 486.33 44.5176C486.092 44.791 485.777 45.0879 485.387 45.4082L484.438 46.1934C483.711 46.7871 483.178 47.3184 482.838 47.7871ZM483.4 41.2422C482.834 41.5586 482.551 41.9414 482.551 42.3906C482.551 42.4922 482.572 42.5762 482.615 42.6426C482.658 42.7051 482.715 42.7363 482.785 42.7363C482.926 42.7363 482.996 42.6309 482.996 42.4199C482.996 42.127 483.025 41.8984 483.084 41.7344C483.143 41.5664 483.248 41.4023 483.4 41.2422ZM486.166 48.707L486.371 47.9277C486.051 48.1191 485.633 48.2148 485.117 48.2148H482.516C482.418 48.3906 482.332 48.5547 482.258 48.707H486.166ZM483.916 46.2812C484.396 45.8477 484.844 45.4141 485.258 44.9805C485.699 44.5156 486.004 44.1309 486.172 43.8262C486.34 43.5215 486.424 43.2012 486.424 42.8652C486.424 42.5527 486.361 42.2754 486.236 42.0332C486.115 41.7871 485.939 41.584 485.709 41.4238C485.479 41.2637 485.211 41.1641 484.906 41.125C485.195 41.2891 485.414 41.5195 485.562 41.8164C485.715 42.1094 485.791 42.457 485.791 42.8594C485.791 43.1758 485.734 43.4883 485.621 43.7969C485.508 44.1055 485.33 44.4375 485.088 44.793C484.744 45.2891 484.354 45.7852 483.916 46.2812ZM487.83 45.0098C487.83 44.252 487.982 43.5508 488.287 42.9062C488.592 42.2617 489.006 41.752 489.529 41.377C490.053 40.998 490.623 40.8086 491.24 40.8086C491.854 40.8086 492.42 40.998 492.939 41.377C493.463 41.752 493.877 42.2637 494.182 42.9121C494.486 43.5566 494.639 44.2559 494.639 45.0098C494.639 45.7637 494.486 46.4629 494.182 47.1074C493.877 47.752 493.465 48.2637 492.945 48.6426C492.43 49.0176 491.865 49.2051 491.252 49.2051C490.631 49.2051 490.059 49.0195 489.535 48.6484C489.012 48.2734 488.596 47.7637 488.287 47.1191C487.982 46.4707 487.83 45.7676 487.83 45.0098ZM489.307 44.9219C489.307 45.5195 489.35 46.0605 489.436 46.5449C489.525 47.0293 489.656 47.4492 489.828 47.8047C490.004 48.1602 490.211 48.4297 490.449 48.6133C490.691 48.7969 490.957 48.8887 491.246 48.8887C491.723 48.8887 492.139 48.6191 492.494 48.0801C492.643 47.8574 492.766 47.5957 492.863 47.2949C492.961 46.9902 493.035 46.6445 493.086 46.2578C493.137 45.8672 493.162 45.4336 493.162 44.957C493.162 44.168 493.084 43.4766 492.928 42.8828C492.771 42.2891 492.547 41.834 492.254 41.5176C491.961 41.1973 491.621 41.0371 491.234 41.0371C490.945 41.0371 490.682 41.1289 490.443 41.3125C490.209 41.4961 490.006 41.7637 489.834 42.1152C489.662 42.4629 489.531 42.8691 489.441 43.334C489.352 43.7988 489.307 44.3281 489.307 44.9219ZM490.004 48.7012C489.582 48.3066 489.26 47.7891 489.037 47.1484C488.818 46.5078 488.709 45.7793 488.709 44.9629C488.709 44.1582 488.816 43.4512 489.031 42.8418C489.246 42.2324 489.564 41.7207 489.986 41.3066C489.584 41.5527 489.236 41.8652 488.943 42.2441C488.654 42.6191 488.432 43.041 488.275 43.5098C488.123 43.9746 488.047 44.4609 488.047 44.9688C488.047 45.5039 488.121 46.0059 488.27 46.4746C488.422 46.9395 488.646 47.3652 488.943 47.752C489.244 48.1348 489.598 48.4512 490.004 48.7012ZM492.154 48.7656C493.408 47.918 494.035 46.6699 494.035 45.0215C494.035 44.623 493.994 44.2344 493.912 43.8555C493.83 43.4766 493.717 43.1328 493.572 42.8242C493.428 42.5156 493.246 42.2324 493.027 41.9746C492.809 41.7168 492.564 41.5059 492.295 41.3418C492.654 41.7168 492.916 42.168 493.08 42.6953C493.283 43.3516 493.385 44.1074 493.385 44.9629C493.385 45.959 493.26 46.8047 493.01 47.5C492.951 47.6641 492.883 47.8145 492.805 47.9512C492.727 48.0879 492.635 48.2227 492.529 48.3555C492.424 48.4844 492.299 48.6211 492.154 48.7656ZM495.846 47.7871H497.879C498.395 47.7871 498.812 47.7129 499.133 47.5645C499.453 47.416 499.736 47.1699 499.982 46.8262H500.176L499.613 49H495.014L495.008 48.7598C495.184 48.377 495.391 48.0078 495.629 47.6523C495.867 47.2969 496.215 46.8418 496.672 46.2871C496.867 46.0449 497.031 45.8418 497.164 45.6777C497.301 45.5098 497.406 45.3809 497.48 45.291C497.875 44.791 498.156 44.3555 498.324 43.9844C498.496 43.6133 498.582 43.2383 498.582 42.8594C498.582 42.5391 498.523 42.2422 498.406 41.9688C498.293 41.6953 498.135 41.4824 497.932 41.3301C497.729 41.1738 497.51 41.0957 497.275 41.0957C496.787 41.0957 496.533 41.4004 496.514 42.0098L496.502 42.3203C496.486 42.7969 496.301 43.0352 495.945 43.0352C495.773 43.0352 495.631 42.9746 495.518 42.8535C495.404 42.7285 495.348 42.5684 495.348 42.373C495.348 42.0957 495.447 41.8418 495.646 41.6113C495.846 41.377 496.117 41.1914 496.461 41.0547C496.809 40.918 497.186 40.8496 497.592 40.8496C498.041 40.8496 498.451 40.9395 498.822 41.1191C499.197 41.2988 499.488 41.5488 499.695 41.8691C499.906 42.1855 500.012 42.541 500.012 42.9355C500.012 43.2168 499.959 43.4824 499.854 43.7324C499.752 43.9785 499.58 44.2402 499.338 44.5176C499.1 44.791 498.785 45.0879 498.395 45.4082L497.445 46.1934C496.719 46.7871 496.186 47.3184 495.846 47.7871ZM496.408 41.2422C495.842 41.5586 495.559 41.9414 495.559 42.3906C495.559 42.4922 495.58 42.5762 495.623 42.6426C495.666 42.7051 495.723 42.7363 495.793 42.7363C495.934 42.7363 496.004 42.6309 496.004 42.4199C496.004 42.127 496.033 41.8984 496.092 41.7344C496.15 41.5664 496.256 41.4023 496.408 41.2422ZM499.174 48.707L499.379 47.9277C499.059 48.1191 498.641 48.2148 498.125 48.2148H495.523C495.426 48.3906 495.34 48.5547 495.266 48.707H499.174ZM496.924 46.2812C497.404 45.8477 497.852 45.4141 498.266 44.9805C498.707 44.5156 499.012 44.1309 499.18 43.8262C499.348 43.5215 499.432 43.2012 499.432 42.8652C499.432 42.5527 499.369 42.2754 499.244 42.0332C499.123 41.7871 498.947 41.584 498.717 41.4238C498.486 41.2637 498.219 41.1641 497.914 41.125C498.203 41.2891 498.422 41.5195 498.57 41.8164C498.723 42.1094 498.799 42.457 498.799 42.8594C498.799 43.1758 498.742 43.4883 498.629 43.7969C498.516 44.1055 498.338 44.4375 498.096 44.793C497.752 45.2891 497.361 45.7852 496.924 46.2812ZM505.438 46.8496V47.2129C505.438 47.5449 505.457 47.7969 505.496 47.9688C505.535 48.1367 505.607 48.2793 505.713 48.3965C505.908 48.6152 506.197 48.7559 506.58 48.8184V49H502.812V48.8184C503.281 48.748 503.619 48.5879 503.826 48.3379C503.924 48.2207 503.99 48.082 504.025 47.9219C504.061 47.7578 504.078 47.5215 504.078 47.2129V46.8496H500.797V46.1699L504.723 41.002H505.438V45.7422C505.758 45.7266 506.002 45.668 506.17 45.5664C506.338 45.4609 506.52 45.2539 506.715 44.9453H506.879L506.398 46.8496H505.438ZM504.078 45.7422V42.2266L501.406 45.7422H504.078ZM503.75 48.7012H505.461L505.232 48.5312C505.1 48.4336 505.014 48.3555 504.975 48.2969C504.939 48.2383 504.922 48.1504 504.922 48.0332V47.8398C504.918 47.8047 504.916 47.7715 504.916 47.7402V41.2012H504.846L504.301 41.9277V47.7402C504.301 47.752 504.299 47.7656 504.295 47.7812C504.295 47.7969 504.295 47.8164 504.295 47.8398V48.0332C504.295 48.1504 504.275 48.2383 504.236 48.2969C504.201 48.3555 504.115 48.4336 503.979 48.5312L503.75 48.7012ZM504.078 46.4277V45.9531H501.236L501.02 46.2344V46.4277H504.078ZM506.012 46.4277L506.17 45.8066C505.951 45.9043 505.762 45.9531 505.602 45.9531H505.426V46.4277H506.012Z" fill="#5F5F5F"/>
<path d="M430.531 26V6.79688H435.234V15.375H435.297L440.844 6.79688H446.031L439.438 15.9219L446.375 26H441.188L435.297 16.6875H435.234V26H430.531ZM431.719 25.1094H434.062V7.70312H431.719V25.1094ZM448.188 26V6.79688H460.891V10.9531H452.891V14.4219H460.281V18.5156H452.891V21.9688H461.25V26H448.188ZM449.375 25.1094L451.719 22.8594V10.0625L449.375 7.70312V25.1094ZM463.5 26V6.79688H475.891V10.9531H468.203V15.0625H475.281V19.1562H468.203V26H463.5ZM464.688 25.1094H467.031V10.0625L464.688 7.70312V25.1094ZM474.891 26L484.234 6.15625H485.062L494.469 26H489.422L488.453 24.0156H480.875L479.938 26H474.891ZM482.344 20.6562H486.859L484.641 15.7969H484.578L482.344 20.6562ZM488.141 20.6562L490.188 25.1094H492.844L490.734 20.6562H488.141ZM476.484 25.1094H479.109L481.188 20.6562H478.594L476.484 25.1094ZM496.5 26V6.79688H501.469L508.922 18.1875V6.79688H513.594V26H508.703L501.203 14.5781V26H496.5ZM510.109 19.375L512.406 22.9531V7.70312H510.109V19.375ZM497.688 25.1094H500.031V13.3906L497.688 9.71875V25.1094ZM523.203 26L529.672 16.0156L523.484 6.79688H528.969L532.578 12.5312L536 6.79688H541.406L535.297 16.375L541.734 26H536.359L532.391 19.9531L528.578 26H523.203ZM534.75 15.4062L539.609 7.70312H536.766L533.281 13.3281L534.75 15.4062ZM533.094 19.1875L537.188 25.1094H539.875L534.531 17.2031L533.094 19.1875ZM543.531 19.5312V6.79688H548.203V18.8281C548.203 21.1302 549.156 22.2812 551.062 22.2812C553 22.2812 553.969 21.1302 553.969 18.8281V6.79688H558.672V19.5312C558.672 21.7292 557.953 23.4635 556.516 24.7344C555.078 26.0052 553.26 26.6406 551.062 26.6406C548.844 26.6406 547.031 26 545.625 24.7188C544.229 23.4375 543.531 21.7083 543.531 19.5312ZM555.125 14.5156H557.484V7.70312H555.125V14.5156ZM544.719 14.5156H547.062V7.70312H544.719V14.5156Z" fill="black"/>
<path d="M0 18H411" stroke="url(#paint0_linear_3286_337)" stroke-width="0.5"/>
<path d="M579 18H990" stroke="url(#paint1_linear_3286_337)" stroke-width="0.5"/>
<defs>
<linearGradient id="paint0_linear_3286_337" x1="205.5" y1="18" x2="205.5" y2="19" gradientUnits="userSpaceOnUse">
<stop stop-color="#CBCBCB"/>
<stop offset="1" stop-color="#CBCBCB" stop-opacity="0"/>
</linearGradient>
<linearGradient id="paint1_linear_3286_337" x1="784.5" y1="18" x2="784.5" y2="19" gradientUnits="userSpaceOnUse">
<stop stop-color="#CBCBCB"/>
<stop offset="1" stop-color="#CBCBCB" stop-opacity="0"/>
</linearGradient>
</defs>
</svg>
