<svg width="139" height="574" viewBox="0 0 139 574" fill="none" xmlns="http://www.w3.org/2000/svg">
<path d="M16.94 89V82H19.98C20.4 82 20.7833 82.1 21.13 82.3C21.4767 82.4933 21.75 82.76 21.95 83.1C22.1567 83.4333 22.26 83.81 22.26 84.23C22.26 84.63 22.1567 85 21.95 85.34C21.75 85.6733 21.4767 85.94 21.13 86.14C20.79 86.3333 20.4067 86.43 19.98 86.43H18.21V89H16.94ZM21 89L19.22 85.84L20.56 85.59L22.54 89.01L21 89ZM18.21 85.3H19.99C20.1833 85.3 20.35 85.2567 20.49 85.17C20.6367 85.0767 20.75 84.95 20.83 84.79C20.91 84.63 20.95 84.4533 20.95 84.26C20.95 84.04 20.9 83.85 20.8 83.69C20.7 83.53 20.56 83.4033 20.38 83.31C20.2 83.2167 19.9933 83.17 19.76 83.17H18.21V85.3ZM23.9127 89V82H28.4927V83.18H25.1927V87.82H28.5327V89H23.9127ZM24.5127 86V84.84H27.9827V86H24.5127ZM32.3827 89.1C31.976 89.1 31.6027 89.05 31.2627 88.95C30.9227 88.8433 30.616 88.6867 30.3427 88.48C30.0693 88.2733 29.826 88.0233 29.6127 87.73L30.4627 86.77C30.7893 87.2233 31.1093 87.5367 31.4227 87.71C31.736 87.8833 32.0893 87.97 32.4827 87.97C32.7093 87.97 32.916 87.9367 33.1027 87.87C33.2893 87.7967 33.436 87.7 33.5427 87.58C33.6493 87.4533 33.7027 87.31 33.7027 87.15C33.7027 87.0367 33.6793 86.9333 33.6327 86.84C33.5927 86.74 33.5293 86.6533 33.4427 86.58C33.356 86.5 33.2493 86.4267 33.1227 86.36C32.996 86.2933 32.8527 86.2367 32.6927 86.19C32.5327 86.1433 32.356 86.1 32.1627 86.06C31.796 85.9867 31.476 85.89 31.2027 85.77C30.9293 85.6433 30.6993 85.49 30.5127 85.31C30.326 85.1233 30.1893 84.9167 30.1027 84.69C30.016 84.4567 29.9727 84.1933 29.9727 83.9C29.9727 83.6067 30.036 83.3367 30.1627 83.09C30.296 82.8433 30.476 82.63 30.7027 82.45C30.9293 82.27 31.1927 82.13 31.4927 82.03C31.7927 81.93 32.116 81.88 32.4627 81.88C32.856 81.88 33.206 81.9267 33.5127 82.02C33.826 82.1133 34.0993 82.2533 34.3327 82.44C34.5727 82.62 34.7693 82.84 34.9227 83.1L34.0627 83.95C33.9293 83.7433 33.7793 83.5733 33.6127 83.44C33.446 83.3 33.266 83.1967 33.0727 83.13C32.8793 83.0567 32.676 83.02 32.4627 83.02C32.2227 83.02 32.0127 83.0533 31.8327 83.12C31.6593 83.1867 31.5227 83.2833 31.4227 83.41C31.3227 83.53 31.2727 83.6767 31.2727 83.85C31.2727 83.9833 31.3027 84.1033 31.3627 84.21C31.4227 84.31 31.506 84.4 31.6127 84.48C31.726 84.56 31.8693 84.63 32.0427 84.69C32.216 84.75 32.4127 84.8033 32.6327 84.85C32.9993 84.9233 33.3293 85.0233 33.6227 85.15C33.916 85.27 34.166 85.4167 34.3727 85.59C34.5793 85.7567 34.736 85.95 34.8427 86.17C34.9493 86.3833 35.0027 86.6233 35.0027 86.89C35.0027 87.35 34.8927 87.7467 34.6727 88.08C34.4593 88.4067 34.156 88.66 33.7627 88.84C33.3693 89.0133 32.9093 89.1 32.3827 89.1ZM36.4322 89V82H41.0122V83.18H37.7122V87.82H41.0522V89H36.4322ZM37.0322 86V84.84H40.5022V86H37.0322ZM41.9022 89L44.6322 82H45.8522L48.5622 89H47.2122L45.7122 85.02C45.6789 84.94 45.6322 84.8133 45.5722 84.64C45.5189 84.4667 45.4589 84.28 45.3922 84.08C45.3255 83.8733 45.2655 83.6833 45.2122 83.51C45.1589 83.33 45.1189 83.2 45.0922 83.12L45.3422 83.11C45.3022 83.2433 45.2555 83.3933 45.2022 83.56C45.1489 83.7267 45.0922 83.9 45.0322 84.08C44.9722 84.26 44.9122 84.4333 44.8522 84.6C44.7989 84.7667 44.7489 84.9167 44.7022 85.05L43.2022 89H41.9022ZM43.1422 87.4L43.5922 86.27H46.7822L47.2622 87.4H43.1422ZM49.6646 89V82H52.7046C53.1246 82 53.5079 82.1 53.8546 82.3C54.2013 82.4933 54.4746 82.76 54.6746 83.1C54.8813 83.4333 54.9846 83.81 54.9846 84.23C54.9846 84.63 54.8813 85 54.6746 85.34C54.4746 85.6733 54.2013 85.94 53.8546 86.14C53.5146 86.3333 53.1313 86.43 52.7046 86.43H50.9346V89H49.6646ZM53.7246 89L51.9446 85.84L53.2846 85.59L55.2646 89.01L53.7246 89ZM50.9346 85.3H52.7146C52.9079 85.3 53.0746 85.2567 53.2146 85.17C53.3613 85.0767 53.4746 84.95 53.5546 84.79C53.6346 84.63 53.6746 84.4533 53.6746 84.26C53.6746 84.04 53.6246 83.85 53.5246 83.69C53.4246 83.53 53.2846 83.4033 53.1046 83.31C52.9246 83.2167 52.7179 83.17 52.4846 83.17H50.9346V85.3ZM59.5096 89.1C59.0029 89.1 58.5396 89.0133 58.1196 88.84C57.6996 88.6667 57.3363 88.42 57.0296 88.1C56.7229 87.7733 56.4829 87.39 56.3096 86.95C56.1429 86.5033 56.0596 86.0167 56.0596 85.49C56.0596 84.9833 56.1496 84.5133 56.3296 84.08C56.5096 83.6467 56.7596 83.2667 57.0796 82.94C57.3996 82.6133 57.7729 82.36 58.1996 82.18C58.6263 82 59.0896 81.91 59.5896 81.91C59.9296 81.91 60.2596 81.96 60.5796 82.06C60.8996 82.16 61.1929 82.3 61.4596 82.48C61.7263 82.6533 61.9496 82.8567 62.1296 83.09L61.2996 84C61.1263 83.82 60.9463 83.67 60.7596 83.55C60.5796 83.4233 60.3896 83.33 60.1896 83.27C59.9963 83.2033 59.7963 83.17 59.5896 83.17C59.2829 83.17 58.9929 83.2267 58.7196 83.34C58.4529 83.4533 58.2196 83.6133 58.0196 83.82C57.8263 84.0267 57.6729 84.2733 57.5596 84.56C57.4463 84.84 57.3896 85.1533 57.3896 85.5C57.3896 85.8533 57.4429 86.1733 57.5496 86.46C57.6629 86.7467 57.8196 86.9933 58.0196 87.2C58.2263 87.4067 58.4696 87.5667 58.7496 87.68C59.0363 87.7867 59.3496 87.84 59.6896 87.84C59.9096 87.84 60.1229 87.81 60.3296 87.75C60.5363 87.69 60.7263 87.6067 60.8996 87.5C61.0796 87.3867 61.2429 87.2567 61.3896 87.11L62.0296 88.14C61.8696 88.32 61.6563 88.4833 61.3896 88.63C61.1229 88.7767 60.8229 88.8933 60.4896 88.98C60.1629 89.06 59.8363 89.1 59.5096 89.1ZM67.8655 89V82H69.1655V89H67.8655ZM63.3755 89V82H64.6755V89H63.3755ZM63.9155 86.12V84.9H68.4955V86.12H63.9155Z" fill="black"/>
<path d="M19.74 251.06C19.1867 251.06 18.6933 250.943 18.26 250.71C17.8267 250.47 17.4833 250.143 17.23 249.73C16.9833 249.31 16.86 248.837 16.86 248.31V243.99H18.17V248.22C18.17 248.533 18.24 248.813 18.38 249.06C18.5267 249.3 18.72 249.493 18.96 249.64C19.2 249.787 19.46 249.86 19.74 249.86C20.0467 249.86 20.3233 249.787 20.57 249.64C20.8167 249.493 21.01 249.3 21.15 249.06C21.2967 248.813 21.37 248.533 21.37 248.22V243.99H22.63V248.31C22.63 248.837 22.5033 249.31 22.25 249.73C22.0033 250.143 21.6633 250.47 21.23 250.71C20.7967 250.943 20.3 251.06 19.74 251.06ZM24.2202 251V249.85H25.3702V245.15H24.2202V244H27.8202V245.15H26.6702V249.85H27.8202V251H24.2202ZM28.6791 252.35L32.8191 244H34.0191L29.8991 252.35H28.6791ZM37.9822 251.06C37.4289 251.06 36.9355 250.943 36.5022 250.71C36.0689 250.47 35.7255 250.143 35.4722 249.73C35.2255 249.31 35.1022 248.837 35.1022 248.31V243.99H36.4122V248.22C36.4122 248.533 36.4822 248.813 36.6222 249.06C36.7689 249.3 36.9622 249.493 37.2022 249.64C37.4422 249.787 37.7022 249.86 37.9822 249.86C38.2889 249.86 38.5655 249.787 38.8122 249.64C39.0589 249.493 39.2522 249.3 39.3922 249.06C39.5389 248.813 39.6122 248.533 39.6122 248.22V243.99H40.8722V248.31C40.8722 248.837 40.7455 249.31 40.4922 249.73C40.2455 250.143 39.9055 250.47 39.4722 250.71C39.0389 250.943 38.5422 251.06 37.9822 251.06ZM46.7848 251L44.6148 247.86L41.8348 244H43.4548L45.5748 247.1L48.4048 251H46.7848ZM41.7848 251L44.4548 247.19L45.3748 247.98L43.3048 251H41.7848ZM45.7348 247.75L44.8248 246.99L46.7848 244H48.3048L45.7348 247.75Z" fill="black"/>
<path d="M16.94 170V163H18.17L20.72 167.15L20 167.14L22.58 163H23.75V170H22.46V167.37C22.46 166.77 22.4733 166.23 22.5 165.75C22.5333 165.27 22.5867 164.793 22.66 164.32L22.82 164.75L20.65 168.1H19.99L17.89 164.78L18.03 164.32C18.1033 164.767 18.1533 165.227 18.18 165.7C18.2133 166.167 18.23 166.723 18.23 167.37V170H16.94ZM25.6314 170V163H26.9314V168.8H30.1614V170H25.6314Z" fill="black"/>
<path d="M16.94 415V408H19.75C20.2567 408 20.7133 408.083 21.12 408.25C21.5333 408.417 21.8867 408.657 22.18 408.97C22.48 409.283 22.7067 409.653 22.86 410.08C23.02 410.507 23.1 410.98 23.1 411.5C23.1 412.02 23.02 412.497 22.86 412.93C22.7067 413.357 22.4833 413.727 22.19 414.04C21.8967 414.347 21.5433 414.583 21.13 414.75C20.7167 414.917 20.2567 415 19.75 415H16.94ZM18.24 413.99L18.14 413.8H19.7C20.0267 413.8 20.3167 413.747 20.57 413.64C20.83 413.533 21.05 413.38 21.23 413.18C21.41 412.98 21.5467 412.74 21.64 412.46C21.7333 412.173 21.78 411.853 21.78 411.5C21.78 411.147 21.7333 410.83 21.64 410.55C21.5467 410.263 21.4067 410.02 21.22 409.82C21.04 409.62 20.8233 409.467 20.57 409.36C20.3167 409.253 20.0267 409.2 19.7 409.2H18.11L18.24 409.03V413.99ZM24.5084 415V408H29.0884V409.18H25.7884V413.82H29.1284V415H24.5084ZM25.1084 412V410.84H28.5784V412H25.1084ZM32.9784 415.1C32.5717 415.1 32.1984 415.05 31.8584 414.95C31.5184 414.843 31.2117 414.687 30.9384 414.48C30.665 414.273 30.4217 414.023 30.2084 413.73L31.0584 412.77C31.385 413.223 31.705 413.537 32.0184 413.71C32.3317 413.883 32.685 413.97 33.0784 413.97C33.305 413.97 33.5117 413.937 33.6984 413.87C33.885 413.797 34.0317 413.7 34.1384 413.58C34.245 413.453 34.2984 413.31 34.2984 413.15C34.2984 413.037 34.275 412.933 34.2284 412.84C34.1884 412.74 34.125 412.653 34.0384 412.58C33.9517 412.5 33.845 412.427 33.7184 412.36C33.5917 412.293 33.4484 412.237 33.2884 412.19C33.1284 412.143 32.9517 412.1 32.7584 412.06C32.3917 411.987 32.0717 411.89 31.7984 411.77C31.525 411.643 31.295 411.49 31.1084 411.31C30.9217 411.123 30.785 410.917 30.6984 410.69C30.6117 410.457 30.5684 410.193 30.5684 409.9C30.5684 409.607 30.6317 409.337 30.7584 409.09C30.8917 408.843 31.0717 408.63 31.2984 408.45C31.525 408.27 31.7884 408.13 32.0884 408.03C32.3884 407.93 32.7117 407.88 33.0584 407.88C33.4517 407.88 33.8017 407.927 34.1084 408.02C34.4217 408.113 34.695 408.253 34.9284 408.44C35.1684 408.62 35.365 408.84 35.5184 409.1L34.6584 409.95C34.525 409.743 34.375 409.573 34.2084 409.44C34.0417 409.3 33.8617 409.197 33.6684 409.13C33.475 409.057 33.2717 409.02 33.0584 409.02C32.8184 409.02 32.6084 409.053 32.4284 409.12C32.255 409.187 32.1184 409.283 32.0184 409.41C31.9184 409.53 31.8684 409.677 31.8684 409.85C31.8684 409.983 31.8984 410.103 31.9584 410.21C32.0184 410.31 32.1017 410.4 32.2084 410.48C32.3217 410.56 32.465 410.63 32.6384 410.69C32.8117 410.75 33.0084 410.803 33.2284 410.85C33.595 410.923 33.925 411.023 34.2184 411.15C34.5117 411.27 34.7617 411.417 34.9684 411.59C35.175 411.757 35.3317 411.95 35.4384 412.17C35.545 412.383 35.5984 412.623 35.5984 412.89C35.5984 413.35 35.4884 413.747 35.2684 414.08C35.055 414.407 34.7517 414.66 34.3584 414.84C33.965 415.013 33.505 415.1 32.9784 415.1ZM36.8179 415V413.85H37.9679V409.15H36.8179V408H40.4179V409.15H39.2679V413.85H40.4179V415H36.8179ZM45.1102 415.1C44.5836 415.1 44.0969 415.01 43.6502 414.83C43.2036 414.643 42.8136 414.387 42.4802 414.06C42.1536 413.733 41.9002 413.353 41.7202 412.92C41.5402 412.48 41.4502 412.003 41.4502 411.49C41.4502 410.983 41.5402 410.513 41.7202 410.08C41.9069 409.64 42.1669 409.26 42.5002 408.94C42.8336 408.613 43.2236 408.36 43.6702 408.18C44.1236 408 44.6102 407.91 45.1302 407.91C45.4969 407.91 45.8502 407.96 46.1902 408.06C46.5302 408.16 46.8369 408.3 47.1102 408.48C47.3836 408.66 47.6102 408.863 47.7902 409.09L46.9702 409.95C46.7836 409.77 46.5902 409.62 46.3902 409.5C46.1969 409.38 45.9936 409.287 45.7802 409.22C45.5669 409.153 45.3469 409.12 45.1202 409.12C44.7869 409.12 44.4769 409.18 44.1902 409.3C43.9102 409.42 43.6636 409.587 43.4502 409.8C43.2436 410.013 43.0802 410.263 42.9602 410.55C42.8402 410.837 42.7802 411.15 42.7802 411.49C42.7802 411.817 42.8402 412.127 42.9602 412.42C43.0869 412.713 43.2602 412.97 43.4802 413.19C43.7002 413.41 43.9536 413.583 44.2402 413.71C44.5336 413.83 44.8436 413.89 45.1702 413.89C45.4169 413.89 45.6469 413.853 45.8602 413.78C46.0736 413.707 46.2636 413.607 46.4302 413.48C46.5969 413.347 46.7236 413.193 46.8102 413.02C46.9036 412.847 46.9502 412.66 46.9502 412.46V412.24L47.1302 412.45H45.0602V411.29H48.2302C48.2436 411.363 48.2536 411.447 48.2602 411.54C48.2669 411.627 48.2702 411.713 48.2702 411.8C48.2769 411.88 48.2802 411.95 48.2802 412.01C48.2802 412.47 48.2002 412.89 48.0402 413.27C47.8802 413.643 47.6536 413.967 47.3602 414.24C47.0736 414.513 46.7369 414.727 46.3502 414.88C45.9702 415.027 45.5569 415.1 45.1102 415.1ZM49.6451 415V408H50.8151L54.8751 413.47L54.6551 413.51C54.6284 413.323 54.6051 413.133 54.5851 412.94C54.5651 412.74 54.5451 412.533 54.5251 412.32C54.5117 412.107 54.4984 411.883 54.4851 411.65C54.4784 411.417 54.4717 411.173 54.4651 410.92C54.4584 410.66 54.4551 410.387 54.4551 410.1V408H55.7451V415H54.5551L50.4751 409.61L50.7351 409.54C50.7684 409.913 50.7951 410.233 50.8151 410.5C50.8417 410.76 50.8617 410.987 50.8751 411.18C50.8884 411.367 50.8984 411.523 50.9051 411.65C50.9184 411.777 50.9251 411.893 50.9251 412C50.9317 412.1 50.9351 412.197 50.9351 412.29V415H49.6451Z" fill="black"/>
<path d="M18.34 333V327.2H16.34V326H21.7V327.2H19.64V333H18.34ZM22.9752 333V326H27.5552V327.18H24.2552V331.82H27.5952V333H22.9752ZM23.5752 330V328.84H27.0452V330H23.5752ZM32.1952 333.1C31.6885 333.1 31.2252 333.013 30.8052 332.84C30.3852 332.667 30.0218 332.42 29.7152 332.1C29.4085 331.773 29.1685 331.39 28.9952 330.95C28.8285 330.503 28.7452 330.017 28.7452 329.49C28.7452 328.983 28.8352 328.513 29.0152 328.08C29.1952 327.647 29.4452 327.267 29.7652 326.94C30.0852 326.613 30.4585 326.36 30.8852 326.18C31.3118 326 31.7752 325.91 32.2752 325.91C32.6152 325.91 32.9452 325.96 33.2652 326.06C33.5852 326.16 33.8785 326.3 34.1452 326.48C34.4118 326.653 34.6352 326.857 34.8152 327.09L33.9852 328C33.8118 327.82 33.6318 327.67 33.4452 327.55C33.2652 327.423 33.0752 327.33 32.8752 327.27C32.6818 327.203 32.4818 327.17 32.2752 327.17C31.9685 327.17 31.6785 327.227 31.4052 327.34C31.1385 327.453 30.9052 327.613 30.7052 327.82C30.5118 328.027 30.3585 328.273 30.2452 328.56C30.1318 328.84 30.0752 329.153 30.0752 329.5C30.0752 329.853 30.1285 330.173 30.2352 330.46C30.3485 330.747 30.5052 330.993 30.7052 331.2C30.9118 331.407 31.1552 331.567 31.4352 331.68C31.7218 331.787 32.0352 331.84 32.3752 331.84C32.5952 331.84 32.8085 331.81 33.0152 331.75C33.2218 331.69 33.4118 331.607 33.5852 331.5C33.7652 331.387 33.9285 331.257 34.0752 331.11L34.7152 332.14C34.5552 332.32 34.3418 332.483 34.0752 332.63C33.8085 332.777 33.5085 332.893 33.1752 332.98C32.8485 333.06 32.5218 333.1 32.1952 333.1ZM40.5511 333V326H41.8511V333H40.5511ZM36.0611 333V326H37.3611V333H36.0611ZM36.6011 330.12V328.9H41.1811V330.12H36.6011Z" fill="black"/>
<path d="M19.91 496.1C19.4033 496.1 18.94 496.013 18.52 495.84C18.1 495.667 17.7367 495.42 17.43 495.1C17.1233 494.773 16.8833 494.39 16.71 493.95C16.5433 493.503 16.46 493.017 16.46 492.49C16.46 491.983 16.55 491.513 16.73 491.08C16.91 490.647 17.16 490.267 17.48 489.94C17.8 489.613 18.1733 489.36 18.6 489.18C19.0267 489 19.49 488.91 19.99 488.91C20.33 488.91 20.66 488.96 20.98 489.06C21.3 489.16 21.5933 489.3 21.86 489.48C22.1267 489.653 22.35 489.857 22.53 490.09L21.7 491C21.5267 490.82 21.3467 490.67 21.16 490.55C20.98 490.423 20.79 490.33 20.59 490.27C20.3967 490.203 20.1967 490.17 19.99 490.17C19.6833 490.17 19.3933 490.227 19.12 490.34C18.8533 490.453 18.62 490.613 18.42 490.82C18.2267 491.027 18.0733 491.273 17.96 491.56C17.8467 491.84 17.79 492.153 17.79 492.5C17.79 492.853 17.8433 493.173 17.95 493.46C18.0633 493.747 18.22 493.993 18.42 494.2C18.6267 494.407 18.87 494.567 19.15 494.68C19.4367 494.787 19.75 494.84 20.09 494.84C20.31 494.84 20.5233 494.81 20.73 494.75C20.9367 494.69 21.1267 494.607 21.3 494.5C21.48 494.387 21.6433 494.257 21.79 494.11L22.43 495.14C22.27 495.32 22.0567 495.483 21.79 495.63C21.5233 495.777 21.2233 495.893 20.89 495.98C20.5633 496.06 20.2367 496.1 19.91 496.1ZM26.7959 496.1C26.2959 496.1 25.8326 496.01 25.4059 495.83C24.9793 495.65 24.6059 495.4 24.2859 495.08C23.9726 494.753 23.7293 494.37 23.5559 493.93C23.3826 493.49 23.2959 493.01 23.2959 492.49C23.2959 491.97 23.3826 491.49 23.5559 491.05C23.7293 490.61 23.9726 490.23 24.2859 489.91C24.6059 489.583 24.9793 489.33 25.4059 489.15C25.8326 488.97 26.2959 488.88 26.7959 488.88C27.3026 488.88 27.7693 488.97 28.1959 489.15C28.6226 489.33 28.9926 489.583 29.3059 489.91C29.6193 490.237 29.8626 490.62 30.0359 491.06C30.2093 491.493 30.2959 491.97 30.2959 492.49C30.2959 493.003 30.2093 493.48 30.0359 493.92C29.8626 494.36 29.6193 494.743 29.3059 495.07C28.9926 495.397 28.6226 495.65 28.1959 495.83C27.7693 496.01 27.3026 496.1 26.7959 496.1ZM26.7959 494.86C27.1159 494.86 27.4059 494.803 27.6659 494.69C27.9326 494.57 28.1626 494.403 28.3559 494.19C28.5493 493.97 28.6993 493.717 28.8059 493.43C28.9193 493.143 28.9759 492.83 28.9759 492.49C28.9759 492.15 28.9193 491.837 28.8059 491.55C28.6993 491.263 28.5493 491.013 28.3559 490.8C28.1626 490.58 27.9326 490.413 27.6659 490.3C27.4059 490.18 27.1159 490.12 26.7959 490.12C26.4826 490.12 26.1926 490.18 25.9259 490.3C25.6593 490.413 25.4293 490.577 25.2359 490.79C25.0426 491.003 24.8926 491.253 24.7859 491.54C24.6793 491.827 24.6259 492.143 24.6259 492.49C24.6259 492.83 24.6793 493.147 24.7859 493.44C24.8926 493.727 25.0426 493.977 25.2359 494.19C25.4293 494.403 25.6593 494.57 25.9259 494.69C26.1926 494.803 26.4826 494.86 26.7959 494.86ZM31.7056 496V489H33.0056V494.8H36.2356V496H31.7056ZM37.7213 496V489H39.0213V494.8H42.2513V496H37.7213ZM43.7369 496V489H48.3169V490.18H45.0169V494.82H48.3569V496H43.7369ZM44.3369 493V491.84H47.8069V493H44.3369ZM52.9569 496.1C52.4502 496.1 51.9869 496.013 51.5669 495.84C51.1469 495.667 50.7835 495.42 50.4769 495.1C50.1702 494.773 49.9302 494.39 49.7569 493.95C49.5902 493.503 49.5069 493.017 49.5069 492.49C49.5069 491.983 49.5969 491.513 49.7769 491.08C49.9569 490.647 50.2069 490.267 50.5269 489.94C50.8469 489.613 51.2202 489.36 51.6469 489.18C52.0735 489 52.5369 488.91 53.0369 488.91C53.3769 488.91 53.7069 488.96 54.0269 489.06C54.3469 489.16 54.6402 489.3 54.9069 489.48C55.1735 489.653 55.3969 489.857 55.5769 490.09L54.7469 491C54.5735 490.82 54.3935 490.67 54.2069 490.55C54.0269 490.423 53.8369 490.33 53.6369 490.27C53.4435 490.203 53.2435 490.17 53.0369 490.17C52.7302 490.17 52.4402 490.227 52.1669 490.34C51.9002 490.453 51.6669 490.613 51.4669 490.82C51.2735 491.027 51.1202 491.273 51.0069 491.56C50.8935 491.84 50.8369 492.153 50.8369 492.5C50.8369 492.853 50.8902 493.173 50.9969 493.46C51.1102 493.747 51.2669 493.993 51.4669 494.2C51.6735 494.407 51.9169 494.567 52.1969 494.68C52.4835 494.787 52.7969 494.84 53.1369 494.84C53.3569 494.84 53.5702 494.81 53.7769 494.75C53.9835 494.69 54.1735 494.607 54.3469 494.5C54.5269 494.387 54.6902 494.257 54.8369 494.11L55.4769 495.14C55.3169 495.32 55.1035 495.483 54.8369 495.63C54.5702 495.777 54.2702 495.893 53.9369 495.98C53.6102 496.06 53.2835 496.1 52.9569 496.1ZM58.2228 496V490.2H56.2228V489H61.5828V490.2H59.5228V496H58.2228ZM62.648 496V494.85H63.798V490.15H62.648V489H66.248V490.15H65.098V494.85H66.248V496H62.648ZM70.7803 496.1C70.2803 496.1 69.817 496.01 69.3903 495.83C68.9636 495.65 68.5903 495.4 68.2703 495.08C67.957 494.753 67.7136 494.37 67.5403 493.93C67.367 493.49 67.2803 493.01 67.2803 492.49C67.2803 491.97 67.367 491.49 67.5403 491.05C67.7136 490.61 67.957 490.23 68.2703 489.91C68.5903 489.583 68.9636 489.33 69.3903 489.15C69.817 488.97 70.2803 488.88 70.7803 488.88C71.287 488.88 71.7536 488.97 72.1803 489.15C72.607 489.33 72.977 489.583 73.2903 489.91C73.6036 490.237 73.847 490.62 74.0203 491.06C74.1936 491.493 74.2803 491.97 74.2803 492.49C74.2803 493.003 74.1936 493.48 74.0203 493.92C73.847 494.36 73.6036 494.743 73.2903 495.07C72.977 495.397 72.607 495.65 72.1803 495.83C71.7536 496.01 71.287 496.1 70.7803 496.1ZM70.7803 494.86C71.1003 494.86 71.3903 494.803 71.6503 494.69C71.917 494.57 72.147 494.403 72.3403 494.19C72.5336 493.97 72.6836 493.717 72.7903 493.43C72.9036 493.143 72.9603 492.83 72.9603 492.49C72.9603 492.15 72.9036 491.837 72.7903 491.55C72.6836 491.263 72.5336 491.013 72.3403 490.8C72.147 490.58 71.917 490.413 71.6503 490.3C71.3903 490.18 71.1003 490.12 70.7803 490.12C70.467 490.12 70.177 490.18 69.9103 490.3C69.6436 490.413 69.4136 490.577 69.2203 490.79C69.027 491.003 68.877 491.253 68.7703 491.54C68.6636 491.827 68.6103 492.143 68.6103 492.49C68.6103 492.83 68.6636 493.147 68.7703 493.44C68.877 493.727 69.027 493.977 69.2203 494.19C69.4136 494.403 69.6436 494.57 69.9103 494.69C70.177 494.803 70.467 494.86 70.7803 494.86ZM75.69 496V489H76.86L80.92 494.47L80.7 494.51C80.6733 494.323 80.65 494.133 80.63 493.94C80.61 493.74 80.59 493.533 80.57 493.32C80.5567 493.107 80.5433 492.883 80.53 492.65C80.5233 492.417 80.5167 492.173 80.51 491.92C80.5033 491.66 80.5 491.387 80.5 491.1V489H81.79V496H80.6L76.52 490.61L76.78 490.54C76.8133 490.913 76.84 491.233 76.86 491.5C76.8867 491.76 76.9067 491.987 76.92 492.18C76.9333 492.367 76.9433 492.523 76.95 492.65C76.9633 492.777 76.97 492.893 76.97 493C76.9767 493.1 76.98 493.197 76.98 493.29V496H75.69Z" fill="black"/>
<line x1="0.5" y1="2.18557e-08" x2="0.499975" y2="574" stroke="url(#paint0_linear_2853_8441)"/>
<defs>
<linearGradient id="paint0_linear_2853_8441" x1="0" y1="0" x2="7.86581e-06" y2="574" gradientUnits="userSpaceOnUse">
<stop stop-opacity="0"/>
<stop offset="0.270833"/>
<stop offset="0.489583"/>
<stop offset="0.729167"/>
<stop offset="1" stop-opacity="0"/>
</linearGradient>
</defs>
</svg>
