<svg width="270" height="316" viewBox="0 0 270 316" fill="none" xmlns="http://www.w3.org/2000/svg">
<rect width="270" height="316" rx="11" transform="matrix(1 0 0 -1 0 316)" fill="black"/>
<path d="M37.776 128.912C36.928 127.888 35.864 127.376 34.584 127.376C33.256 127.376 32.144 127.928 31.248 129.032C30.352 130.12 29.904 131.368 29.904 132.776C29.904 134.136 30.344 135.36 31.224 136.448C32.12 137.52 33.232 138.056 34.56 138.056C35.824 138.056 36.896 137.544 37.776 136.52V139.52C36.592 140.096 35.496 140.384 34.488 140.384C32.472 140.384 30.776 139.64 29.4 138.152C28.024 136.664 27.336 134.888 27.336 132.824C27.336 130.68 28.024 128.848 29.4 127.328C30.776 125.808 32.488 125.048 34.536 125.048C35.608 125.048 36.688 125.328 37.776 125.888V128.912ZM48.561 140H46.281V139.136C45.609 139.92 44.609 140.312 43.281 140.312C41.953 140.312 40.889 139.8 40.089 138.776C39.305 137.752 38.913 136.552 38.913 135.176C38.913 133.8 39.313 132.632 40.113 131.672C40.929 130.696 41.969 130.208 43.233 130.208C44.577 130.208 45.593 130.608 46.281 131.408V130.52H48.561V140ZM46.545 135.248C46.545 134.368 46.297 133.648 45.801 133.088C45.305 132.512 44.665 132.224 43.881 132.224C43.113 132.224 42.481 132.504 41.985 133.064C41.505 133.608 41.265 134.336 41.265 135.248C41.265 136.16 41.513 136.896 42.009 137.456C42.505 138.016 43.145 138.296 43.929 138.296C44.713 138.296 45.345 138.024 45.825 137.48C46.305 136.936 46.545 136.192 46.545 135.248ZM52.8349 131.504C53.4269 130.64 54.3549 130.208 55.6189 130.208C56.0189 130.208 56.3869 130.288 56.7229 130.448L56.4349 132.56C56.0829 132.336 55.6989 132.224 55.2829 132.224C53.6509 132.224 52.8349 133.392 52.8349 135.728V140H50.5069V130.52H52.8349V131.504ZM59.385 135.488C59.385 136.4 59.585 137.152 59.985 137.744C60.385 138.336 60.937 138.632 61.641 138.632C62.745 138.632 63.449 138.088 63.753 137L65.961 137.36C65.241 139.328 63.801 140.312 61.641 140.312C60.201 140.312 59.049 139.856 58.185 138.944C57.337 138.016 56.913 136.816 56.913 135.344C56.913 133.792 57.321 132.552 58.137 131.624C58.969 130.68 60.089 130.208 61.497 130.208C62.921 130.208 64.025 130.656 64.809 131.552C65.609 132.432 66.009 133.64 66.009 135.176V135.488H59.385ZM63.849 134.192C63.849 133.536 63.641 132.96 63.225 132.464C62.825 131.968 62.297 131.72 61.641 131.72C61.001 131.72 60.473 131.984 60.057 132.512C59.657 133.024 59.457 133.584 59.457 134.192H63.849ZM76.2887 139.184C76.2887 142.432 74.7767 144.056 71.7527 144.056C70.4087 144.056 69.2727 143.688 68.3447 142.952C67.4167 142.232 66.9527 141.288 66.9527 140.12H69.4247C69.4247 140.584 69.6567 141.04 70.1207 141.488C70.5847 141.936 71.1047 142.16 71.6807 142.16C73.2007 142.16 73.9607 141.248 73.9607 139.424V138.824C73.3047 139.656 72.3047 140.072 70.9607 140.072C69.6327 140.072 68.5847 139.608 67.8167 138.68C67.0647 137.752 66.6887 136.616 66.6887 135.272C66.6887 133.816 67.0967 132.6 67.9127 131.624C68.7287 130.648 69.7847 130.16 71.0807 130.16C72.3927 130.16 73.3527 130.568 73.9607 131.384V130.472H76.2887V139.184ZM74.2967 135.056C74.2967 134.192 74.0567 133.496 73.5767 132.968C73.0967 132.44 72.4647 132.176 71.6807 132.176C70.8967 132.176 70.2567 132.464 69.7607 133.04C69.2807 133.616 69.0407 134.344 69.0407 135.224C69.0407 137.112 69.9207 138.056 71.6807 138.056C72.4807 138.056 73.1127 137.776 73.5767 137.216C74.0567 136.64 74.2967 135.92 74.2967 135.056ZM80.9723 126.536C80.9723 126.904 80.8363 127.224 80.5643 127.496C80.2923 127.768 79.9723 127.904 79.6043 127.904C79.2363 127.904 78.9163 127.768 78.6443 127.496C78.3723 127.224 78.2363 126.904 78.2363 126.536C78.2363 126.168 78.3723 125.848 78.6443 125.576C78.9163 125.304 79.2363 125.168 79.6043 125.168C79.9723 125.168 80.2923 125.304 80.5643 125.576C80.8363 125.848 80.9723 126.168 80.9723 126.536ZM80.7803 140H78.4523V130.52H80.7803V140ZM86.9027 136.52L89.2307 130.52H91.8227L87.4547 140.192H86.0627L81.7187 130.52H84.2867L86.9027 136.52ZM95.2926 126.536C95.2926 126.904 95.1566 127.224 94.8846 127.496C94.6126 127.768 94.2926 127.904 93.9246 127.904C93.5566 127.904 93.2366 127.768 92.9646 127.496C92.6926 127.224 92.5566 126.904 92.5566 126.536C92.5566 126.168 92.6926 125.848 92.9646 125.576C93.2366 125.304 93.5566 125.168 93.9246 125.168C94.2926 125.168 94.6126 125.304 94.8846 125.576C95.1566 125.848 95.2926 126.168 95.2926 126.536ZM95.1006 140H92.7726V130.52H95.1006V140ZM99.663 131.384C100.319 130.6 101.287 130.208 102.567 130.208C104.743 130.208 105.831 131.544 105.831 134.216V140H103.527V134.984C103.527 132.984 102.911 131.984 101.679 131.984C100.335 131.984 99.663 133.056 99.663 135.2V140H97.335V130.52H99.663V131.384ZM116.789 139.184C116.789 142.432 115.277 144.056 112.253 144.056C110.909 144.056 109.773 143.688 108.845 142.952C107.917 142.232 107.453 141.288 107.453 140.12H109.925C109.925 140.584 110.157 141.04 110.621 141.488C111.085 141.936 111.605 142.16 112.181 142.16C113.701 142.16 114.461 141.248 114.461 139.424V138.824C113.805 139.656 112.805 140.072 111.461 140.072C110.133 140.072 109.085 139.608 108.317 138.68C107.565 137.752 107.189 136.616 107.189 135.272C107.189 133.816 107.597 132.6 108.413 131.624C109.229 130.648 110.285 130.16 111.581 130.16C112.893 130.16 113.853 130.568 114.461 131.384V130.472H116.789V139.184ZM114.797 135.056C114.797 134.192 114.557 133.496 114.077 132.968C113.597 132.44 112.965 132.176 112.181 132.176C111.397 132.176 110.757 132.464 110.261 133.04C109.781 133.616 109.541 134.344 109.541 135.224C109.541 137.112 110.421 138.056 112.181 138.056C112.981 138.056 113.613 137.776 114.077 137.216C114.557 136.64 114.797 135.92 114.797 135.056Z" fill="white"/>
<path d="M28.72 183.074H30.574V189.194C30.574 191.546 31.312 192.722 32.788 192.722C34.264 192.722 35.002 191.546 35.002 189.194V183.074H36.838V189.608C36.838 192.728 35.482 194.288 32.77 194.288C30.07 194.288 28.72 192.728 28.72 189.608V183.074ZM40.0285 187.538C40.5205 186.95 41.2465 186.656 42.2065 186.656C43.8385 186.656 44.6545 187.658 44.6545 189.662V194H42.9265V190.238C42.9265 188.738 42.4645 187.988 41.5405 187.988C40.5325 187.988 40.0285 188.792 40.0285 190.4V194H38.2825V186.89H40.0285V187.538ZM51.1088 193.334C50.6408 193.934 49.9028 194.234 48.8948 194.234C47.8868 194.234 47.0828 193.85 46.4828 193.082C45.8948 192.314 45.6008 191.414 45.6008 190.382C45.6008 189.35 45.9008 188.474 46.5008 187.754C47.1128 187.022 47.8928 186.656 48.8408 186.656C49.8488 186.656 50.5928 186.95 51.0728 187.538L51.1088 181.706H52.8548V194H51.1088V193.334ZM51.3068 190.436C51.3068 189.812 51.1148 189.278 50.7308 188.834C50.3468 188.39 49.8848 188.168 49.3448 188.168C48.8048 188.168 48.3368 188.39 47.9408 188.834C47.5568 189.266 47.3648 189.806 47.3648 190.454C47.3648 191.09 47.5508 191.63 47.9228 192.074C48.3068 192.506 48.7868 192.722 49.3628 192.722C49.9388 192.722 50.4068 192.512 50.7668 192.092C51.1268 191.66 51.3068 191.108 51.3068 190.436ZM55.6462 190.616C55.6462 191.3 55.7962 191.864 56.0962 192.308C56.3962 192.752 56.8102 192.974 57.3382 192.974C58.1662 192.974 58.6942 192.566 58.9222 191.75L60.5782 192.02C60.0382 193.496 58.9582 194.234 57.3382 194.234C56.2582 194.234 55.3942 193.892 54.7462 193.208C54.1102 192.512 53.7922 191.612 53.7922 190.508C53.7922 189.344 54.0982 188.414 54.7102 187.718C55.3342 187.01 56.1742 186.656 57.2302 186.656C58.2982 186.656 59.1262 186.992 59.7142 187.664C60.3142 188.324 60.6142 189.23 60.6142 190.382V190.616H55.6462ZM58.9942 189.644C58.9942 189.152 58.8382 188.72 58.5262 188.348C58.2262 187.976 57.8302 187.79 57.3382 187.79C56.8582 187.79 56.4622 187.988 56.1502 188.384C55.8502 188.768 55.7002 189.188 55.7002 189.644H58.9942ZM63.3019 187.628C63.7459 186.98 64.4419 186.656 65.3899 186.656C65.6899 186.656 65.9659 186.716 66.2179 186.836L66.0019 188.42C65.7379 188.252 65.4499 188.168 65.1379 188.168C63.9139 188.168 63.3019 189.044 63.3019 190.796V194H61.5559V186.89H63.3019V187.628ZM70.6625 188.366C70.2785 188.006 69.8765 187.826 69.4565 187.826C68.8205 187.826 68.5025 188.114 68.5025 188.69C68.5025 189.014 68.7905 189.278 69.3665 189.482C70.4225 189.866 71.0765 190.22 71.3285 190.544C71.5805 190.856 71.7065 191.246 71.7065 191.714C71.7065 192.482 71.4365 193.094 70.8965 193.55C70.3685 194.006 69.7145 194.234 68.9345 194.234C67.9265 194.234 67.0925 193.838 66.4325 193.046L67.2065 192.056C67.8065 192.656 68.3585 192.956 68.8625 192.956C69.5945 192.956 69.9605 192.602 69.9605 191.894C69.9605 191.534 69.7685 191.27 69.3845 191.102C69.0005 190.922 68.7065 190.79 68.5025 190.706C67.3985 190.226 66.8465 189.644 66.8465 188.96C66.8465 188.276 67.0505 187.724 67.4585 187.304C67.8785 186.872 68.4245 186.656 69.0965 186.656C70.0565 186.656 70.8185 186.902 71.3825 187.394L70.6625 188.366ZM74.9479 194H73.2019V188.456H72.3559V187.034H73.2019V184.478H74.9479V187.034H76.3339V188.456H74.9479V194ZM83.5106 194H81.8006V193.352C81.2966 193.94 80.5466 194.234 79.5506 194.234C78.5546 194.234 77.7566 193.85 77.1566 193.082C76.5686 192.314 76.2746 191.414 76.2746 190.382C76.2746 189.35 76.5746 188.474 77.1746 187.754C77.7866 187.022 78.5666 186.656 79.5146 186.656C80.5226 186.656 81.2846 186.956 81.8006 187.556V186.89H83.5106V194ZM81.9986 190.436C81.9986 189.776 81.8126 189.236 81.4406 188.816C81.0686 188.384 80.5886 188.168 80.0006 188.168C79.4246 188.168 78.9506 188.378 78.5786 188.798C78.2186 189.206 78.0386 189.752 78.0386 190.436C78.0386 191.12 78.2246 191.672 78.5966 192.092C78.9686 192.512 79.4486 192.722 80.0366 192.722C80.6246 192.722 81.0986 192.518 81.4586 192.11C81.8186 191.702 81.9986 191.144 81.9986 190.436ZM86.716 187.538C87.208 186.95 87.934 186.656 88.894 186.656C90.526 186.656 91.342 187.658 91.342 189.662V194H89.614V190.238C89.614 188.738 89.152 187.988 88.228 187.988C87.22 187.988 86.716 188.792 86.716 190.4V194H84.97V186.89H86.716V187.538ZM97.7963 193.334C97.3283 193.934 96.5903 194.234 95.5823 194.234C94.5743 194.234 93.7703 193.85 93.1703 193.082C92.5823 192.314 92.2883 191.414 92.2883 190.382C92.2883 189.35 92.5883 188.474 93.1883 187.754C93.8003 187.022 94.5803 186.656 95.5283 186.656C96.5363 186.656 97.2803 186.95 97.7603 187.538L97.7963 181.706H99.5423V194H97.7963V193.334ZM97.9943 190.436C97.9943 189.812 97.8023 189.278 97.4183 188.834C97.0343 188.39 96.5723 188.168 96.0323 188.168C95.4923 188.168 95.0243 188.39 94.6283 188.834C94.2443 189.266 94.0523 189.806 94.0523 190.454C94.0523 191.09 94.2383 191.63 94.6103 192.074C94.9943 192.506 95.4743 192.722 96.0503 192.722C96.6263 192.722 97.0943 192.512 97.4543 192.092C97.8143 191.66 97.9943 191.108 97.9943 190.436ZM103.126 183.902C103.126 184.178 103.024 184.418 102.82 184.622C102.616 184.826 102.376 184.928 102.1 184.928C101.824 184.928 101.584 184.826 101.38 184.622C101.176 184.418 101.074 184.178 101.074 183.902C101.074 183.626 101.176 183.386 101.38 183.182C101.584 182.978 101.824 182.876 102.1 182.876C102.376 182.876 102.616 182.978 102.82 183.182C103.024 183.386 103.126 183.626 103.126 183.902ZM102.982 194H101.236V186.89H102.982V194ZM106.404 187.538C106.896 186.95 107.622 186.656 108.582 186.656C110.214 186.656 111.03 187.658 111.03 189.662V194H109.302V190.238C109.302 188.738 108.84 187.988 107.916 187.988C106.908 187.988 106.404 188.792 106.404 190.4V194H104.658V186.89H106.404V187.538ZM119.248 193.388C119.248 195.824 118.114 197.042 115.846 197.042C114.838 197.042 113.986 196.766 113.29 196.214C112.594 195.674 112.246 194.966 112.246 194.09H114.1C114.1 194.438 114.274 194.78 114.622 195.116C114.97 195.452 115.36 195.62 115.792 195.62C116.932 195.62 117.502 194.936 117.502 193.568V193.118C117.01 193.742 116.26 194.054 115.252 194.054C114.256 194.054 113.47 193.706 112.894 193.01C112.33 192.314 112.048 191.462 112.048 190.454C112.048 189.362 112.354 188.45 112.966 187.718C113.578 186.986 114.37 186.62 115.342 186.62C116.326 186.62 117.046 186.926 117.502 187.538V186.854H119.248V193.388ZM117.754 190.292C117.754 189.644 117.574 189.122 117.214 188.726C116.854 188.33 116.38 188.132 115.792 188.132C115.204 188.132 114.724 188.348 114.352 188.78C113.992 189.212 113.812 189.758 113.812 190.418C113.812 191.834 114.472 192.542 115.792 192.542C116.392 192.542 116.866 192.332 117.214 191.912C117.574 191.48 117.754 190.94 117.754 190.292ZM128.772 183.902C128.772 184.178 128.67 184.418 128.466 184.622C128.262 184.826 128.022 184.928 127.746 184.928C127.47 184.928 127.23 184.826 127.026 184.622C126.822 184.418 126.72 184.178 126.72 183.902C126.72 183.626 126.822 183.386 127.026 183.182C127.23 182.978 127.47 182.876 127.746 182.876C128.022 182.876 128.262 182.978 128.466 183.182C128.67 183.386 128.772 183.626 128.772 183.902ZM128.628 194H126.882V186.89H128.628V194ZM132.05 187.538C132.542 186.95 133.268 186.656 134.228 186.656C135.86 186.656 136.676 187.658 136.676 189.662V194H134.948V190.238C134.948 188.738 134.486 187.988 133.562 187.988C132.554 187.988 132.05 188.792 132.05 190.4V194H130.304V186.89H132.05V187.538ZM140.088 194H138.342V188.456H137.514V187.034H138.342V184.802C138.342 182.63 139.188 181.544 140.88 181.544C141.228 181.544 141.552 181.622 141.852 181.778V183.29C141.54 183.134 141.264 183.056 141.024 183.056C140.7 183.056 140.46 183.176 140.304 183.416C140.16 183.644 140.088 184.202 140.088 185.09V187.034H141.852V188.456H140.088V194ZM149.505 190.436C149.505 191.552 149.163 192.464 148.479 193.172C147.795 193.88 146.895 194.234 145.779 194.234C144.675 194.234 143.775 193.88 143.079 193.172C142.383 192.464 142.035 191.558 142.035 190.454C142.035 189.338 142.377 188.426 143.061 187.718C143.745 187.01 144.645 186.656 145.761 186.656C146.877 186.656 147.777 187.01 148.461 187.718C149.157 188.414 149.505 189.32 149.505 190.436ZM143.799 190.472C143.799 191.132 143.985 191.672 144.357 192.092C144.729 192.512 145.209 192.722 145.797 192.722C146.385 192.722 146.853 192.5 147.201 192.056C147.561 191.6 147.741 191.066 147.741 190.454C147.741 189.83 147.561 189.296 147.201 188.852C146.841 188.396 146.367 188.168 145.779 188.168C145.203 188.168 144.729 188.384 144.357 188.816C143.985 189.248 143.799 189.8 143.799 190.472ZM152.212 187.628C152.656 186.98 153.352 186.656 154.3 186.656C154.6 186.656 154.876 186.716 155.128 186.836L154.912 188.42C154.648 188.252 154.36 188.168 154.048 188.168C152.824 188.168 152.212 189.044 152.212 190.796V194H150.466V186.89H152.212V187.628ZM157.521 187.52C157.965 186.944 158.649 186.656 159.573 186.656C160.377 186.656 161.013 187.028 161.481 187.772C161.937 187.028 162.675 186.656 163.695 186.656C165.195 186.656 165.945 187.628 165.945 189.572V194H164.217V190.256C164.217 188.744 163.803 187.988 162.975 187.988C162.147 187.988 161.733 188.828 161.733 190.508V194H159.987V190.4C159.987 188.792 159.621 187.988 158.889 187.988C157.977 187.988 157.521 188.828 157.521 190.508V194H155.775V186.89H157.521V187.52ZM174.143 194H172.433V193.352C171.929 193.94 171.179 194.234 170.183 194.234C169.187 194.234 168.389 193.85 167.789 193.082C167.201 192.314 166.907 191.414 166.907 190.382C166.907 189.35 167.207 188.474 167.807 187.754C168.419 187.022 169.199 186.656 170.147 186.656C171.155 186.656 171.917 186.956 172.433 187.556V186.89H174.143V194ZM172.631 190.436C172.631 189.776 172.445 189.236 172.073 188.816C171.701 188.384 171.221 188.168 170.633 188.168C170.057 188.168 169.583 188.378 169.211 188.798C168.851 189.206 168.671 189.752 168.671 190.436C168.671 191.12 168.857 191.672 169.229 192.092C169.601 192.512 170.081 192.722 170.669 192.722C171.257 192.722 171.731 192.518 172.091 192.11C172.451 191.702 172.631 191.144 172.631 190.436ZM177.493 194H175.747V181.706H177.493V194ZM33.562 206.744C33.118 206.3 32.62 206.078 32.068 206.078C31.42 206.078 30.91 206.312 30.538 206.78C30.166 207.248 29.98 207.824 29.98 208.508C29.98 209.18 30.19 209.732 30.61 210.164C31.03 210.596 31.54 210.812 32.14 210.812C32.656 210.812 33.13 210.584 33.562 210.128V211.802C33.058 212.09 32.476 212.234 31.816 212.234C30.784 212.234 29.926 211.868 29.242 211.136C28.558 210.404 28.216 209.51 28.216 208.454C28.216 207.398 28.564 206.504 29.26 205.772C29.968 205.028 30.85 204.656 31.906 204.656C32.53 204.656 33.082 204.806 33.562 205.106V206.744ZM41.5516 212H39.8416V211.352C39.3376 211.94 38.5876 212.234 37.5916 212.234C36.5956 212.234 35.7976 211.85 35.1976 211.082C34.6096 210.314 34.3156 209.414 34.3156 208.382C34.3156 207.35 34.6156 206.474 35.2156 205.754C35.8276 205.022 36.6076 204.656 37.5556 204.656C38.5636 204.656 39.3256 204.956 39.8416 205.556V204.89H41.5516V212ZM40.0396 208.436C40.0396 207.776 39.8536 207.236 39.4816 206.816C39.1096 206.384 38.6296 206.168 38.0416 206.168C37.4656 206.168 36.9916 206.378 36.6196 206.798C36.2596 207.206 36.0796 207.752 36.0796 208.436C36.0796 209.12 36.2656 209.672 36.6376 210.092C37.0096 210.512 37.4896 210.722 38.0776 210.722C38.6656 210.722 39.1396 210.518 39.4996 210.11C39.8596 209.702 40.0396 209.144 40.0396 208.436ZM44.757 205.628C45.201 204.98 45.897 204.656 46.845 204.656C47.145 204.656 47.421 204.716 47.673 204.836L47.457 206.42C47.193 206.252 46.905 206.168 46.593 206.168C45.369 206.168 44.757 207.044 44.757 208.796V212H43.011V204.89H44.757V205.628ZM49.6696 208.616C49.6696 209.3 49.8196 209.864 50.1196 210.308C50.4196 210.752 50.8336 210.974 51.3616 210.974C52.1896 210.974 52.7176 210.566 52.9456 209.75L54.6016 210.02C54.0616 211.496 52.9816 212.234 51.3616 212.234C50.2816 212.234 49.4176 211.892 48.7696 211.208C48.1336 210.512 47.8156 209.612 47.8156 208.508C47.8156 207.344 48.1216 206.414 48.7336 205.718C49.3576 205.01 50.1976 204.656 51.2536 204.656C52.3216 204.656 53.1496 204.992 53.7376 205.664C54.3376 206.324 54.6376 207.23 54.6376 208.382V208.616H49.6696ZM53.0176 207.644C53.0176 207.152 52.8616 206.72 52.5496 206.348C52.2496 205.976 51.8536 205.79 51.3616 205.79C50.8816 205.79 50.4856 205.988 50.1736 206.384C49.8736 206.768 49.7236 207.188 49.7236 207.644H53.0176ZM62.3474 211.388C62.3474 213.824 61.2134 215.042 58.9454 215.042C57.9374 215.042 57.0854 214.766 56.3894 214.214C55.6934 213.674 55.3454 212.966 55.3454 212.09H57.1994C57.1994 212.438 57.3734 212.78 57.7214 213.116C58.0694 213.452 58.4594 213.62 58.8914 213.62C60.0314 213.62 60.6014 212.936 60.6014 211.568V211.118C60.1094 211.742 59.3594 212.054 58.3514 212.054C57.3554 212.054 56.5694 211.706 55.9934 211.01C55.4294 210.314 55.1474 209.462 55.1474 208.454C55.1474 207.362 55.4534 206.45 56.0654 205.718C56.6774 204.986 57.4694 204.62 58.4414 204.62C59.4254 204.62 60.1454 204.926 60.6014 205.538V204.854H62.3474V211.388ZM60.8534 208.292C60.8534 207.644 60.6734 207.122 60.3134 206.726C59.9534 206.33 59.4794 206.132 58.8914 206.132C58.3034 206.132 57.8234 206.348 57.4514 206.78C57.0914 207.212 56.9114 207.758 56.9114 208.418C56.9114 209.834 57.5714 210.542 58.8914 210.542C59.4914 210.542 59.9654 210.332 60.3134 209.912C60.6734 209.48 60.8534 208.94 60.8534 208.292ZM65.86 201.902C65.86 202.178 65.758 202.418 65.554 202.622C65.35 202.826 65.11 202.928 64.834 202.928C64.558 202.928 64.318 202.826 64.114 202.622C63.91 202.418 63.808 202.178 63.808 201.902C63.808 201.626 63.91 201.386 64.114 201.182C64.318 200.978 64.558 200.876 64.834 200.876C65.11 200.876 65.35 200.978 65.554 201.182C65.758 201.386 65.86 201.626 65.86 201.902ZM65.716 212H63.97V204.89H65.716V212ZM70.3079 209.39L72.0539 204.89H73.9979L70.7219 212.144H69.6779L66.4199 204.89H68.3459L70.3079 209.39ZM75.8083 208.616C75.8083 209.3 75.9583 209.864 76.2583 210.308C76.5583 210.752 76.9723 210.974 77.5003 210.974C78.3283 210.974 78.8563 210.566 79.0843 209.75L80.7403 210.02C80.2003 211.496 79.1203 212.234 77.5003 212.234C76.4203 212.234 75.5563 211.892 74.9083 211.208C74.2723 210.512 73.9543 209.612 73.9543 208.508C73.9543 207.344 74.2603 206.414 74.8723 205.718C75.4963 205.01 76.3363 204.656 77.3923 204.656C78.4603 204.656 79.2883 204.992 79.8763 205.664C80.4763 206.324 80.7763 207.23 80.7763 208.382V208.616H75.8083ZM79.1563 207.644C79.1563 207.152 79.0003 206.72 78.6883 206.348C78.3883 205.976 77.9923 205.79 77.5003 205.79C77.0203 205.79 76.6243 205.988 76.3123 206.384C76.0123 206.768 75.8623 207.188 75.8623 207.644H79.1563ZM83.464 205.628C83.908 204.98 84.604 204.656 85.552 204.656C85.852 204.656 86.128 204.716 86.38 204.836L86.164 206.42C85.9 206.252 85.612 206.168 85.3 206.168C84.076 206.168 83.464 207.044 83.464 208.796V212H81.718V204.89H83.464V205.628ZM90.8246 206.366C90.4406 206.006 90.0386 205.826 89.6186 205.826C88.9826 205.826 88.6646 206.114 88.6646 206.69C88.6646 207.014 88.9526 207.278 89.5286 207.482C90.5846 207.866 91.2386 208.22 91.4906 208.544C91.7426 208.856 91.8686 209.246 91.8686 209.714C91.8686 210.482 91.5986 211.094 91.0586 211.55C90.5306 212.006 89.8766 212.234 89.0966 212.234C88.0886 212.234 87.2546 211.838 86.5946 211.046L87.3686 210.056C87.9686 210.656 88.5206 210.956 89.0246 210.956C89.7566 210.956 90.1226 210.602 90.1226 209.894C90.1226 209.534 89.9306 209.27 89.5466 209.102C89.1626 208.922 88.8686 208.79 88.6646 208.706C87.5606 208.226 87.0086 207.644 87.0086 206.96C87.0086 206.276 87.2126 205.724 87.6206 205.304C88.0406 204.872 88.5866 204.656 89.2586 204.656C90.2186 204.656 90.9806 204.902 91.5446 205.394L90.8246 206.366ZM98.152 200.174C98.152 201.182 97.552 202.1 96.352 202.928L95.722 202.172C95.842 202.1 95.938 202.046 96.01 202.01C96.514 201.722 96.856 201.386 97.036 201.002C97.048 200.966 97.066 200.924 97.09 200.876H96.046V198.662H98.152V200.174ZM112.858 212H111.112V199.706H112.858V212ZM121.415 208.436C121.415 209.552 121.073 210.464 120.389 211.172C119.705 211.88 118.805 212.234 117.689 212.234C116.585 212.234 115.685 211.88 114.989 211.172C114.293 210.464 113.945 209.558 113.945 208.454C113.945 207.338 114.287 206.426 114.971 205.718C115.655 205.01 116.555 204.656 117.671 204.656C118.787 204.656 119.687 205.01 120.371 205.718C121.067 206.414 121.415 207.32 121.415 208.436ZM115.709 208.472C115.709 209.132 115.895 209.672 116.267 210.092C116.639 210.512 117.119 210.722 117.707 210.722C118.295 210.722 118.763 210.5 119.111 210.056C119.471 209.6 119.651 209.066 119.651 208.454C119.651 207.83 119.471 207.296 119.111 206.852C118.751 206.396 118.277 206.168 117.689 206.168C117.113 206.168 116.639 206.384 116.267 206.816C115.895 207.248 115.709 207.8 115.709 208.472ZM124.122 205.538C124.614 204.95 125.34 204.656 126.3 204.656C127.932 204.656 128.748 205.658 128.748 207.662V212H127.02V208.238C127.02 206.738 126.558 205.988 125.634 205.988C124.626 205.988 124.122 206.792 124.122 208.4V212H122.376V204.89H124.122V205.538ZM136.967 211.388C136.967 213.824 135.833 215.042 133.565 215.042C132.557 215.042 131.705 214.766 131.009 214.214C130.313 213.674 129.965 212.966 129.965 212.09H131.819C131.819 212.438 131.993 212.78 132.341 213.116C132.689 213.452 133.079 213.62 133.511 213.62C134.651 213.62 135.221 212.936 135.221 211.568V211.118C134.729 211.742 133.979 212.054 132.971 212.054C131.975 212.054 131.189 211.706 130.613 211.01C130.049 210.314 129.767 209.462 129.767 208.454C129.767 207.362 130.073 206.45 130.685 205.718C131.297 204.986 132.089 204.62 133.061 204.62C134.045 204.62 134.765 204.926 135.221 205.538V204.854H136.967V211.388ZM135.473 208.292C135.473 207.644 135.293 207.122 134.933 206.726C134.573 206.33 134.099 206.132 133.511 206.132C132.923 206.132 132.443 206.348 132.071 206.78C131.711 207.212 131.531 207.758 131.531 208.418C131.531 209.834 132.191 210.542 133.511 210.542C134.111 210.542 134.585 210.332 134.933 209.912C135.293 209.48 135.473 208.94 135.473 208.292ZM141.775 206.528V208.184H138.247V206.528H141.775ZM145.26 212H143.514V206.456H142.668V205.034H143.514V202.478H145.26V205.034H146.646V206.456H145.26V212ZM148.441 208.616C148.441 209.3 148.591 209.864 148.891 210.308C149.191 210.752 149.605 210.974 150.133 210.974C150.961 210.974 151.489 210.566 151.717 209.75L153.373 210.02C152.833 211.496 151.753 212.234 150.133 212.234C149.053 212.234 148.189 211.892 147.541 211.208C146.905 210.512 146.587 209.612 146.587 208.508C146.587 207.344 146.893 206.414 147.505 205.718C148.129 205.01 148.969 204.656 150.025 204.656C151.093 204.656 151.921 204.992 152.509 205.664C153.109 206.324 153.409 207.23 153.409 208.382V208.616H148.441ZM151.789 207.644C151.789 207.152 151.633 206.72 151.321 206.348C151.021 205.976 150.625 205.79 150.133 205.79C149.653 205.79 149.257 205.988 148.945 206.384C148.645 206.768 148.495 207.188 148.495 207.644H151.789ZM156.097 205.628C156.541 204.98 157.237 204.656 158.185 204.656C158.485 204.656 158.761 204.716 159.013 204.836L158.797 206.42C158.533 206.252 158.245 206.168 157.933 206.168C156.709 206.168 156.097 207.044 156.097 208.796V212H154.351V204.89H156.097V205.628ZM161.405 205.52C161.849 204.944 162.533 204.656 163.457 204.656C164.261 204.656 164.897 205.028 165.365 205.772C165.821 205.028 166.559 204.656 167.579 204.656C169.079 204.656 169.829 205.628 169.829 207.572V212H168.101V208.256C168.101 206.744 167.687 205.988 166.859 205.988C166.031 205.988 165.617 206.828 165.617 208.508V212H163.871V208.4C163.871 206.792 163.505 205.988 162.773 205.988C161.861 205.988 161.405 206.828 161.405 208.508V212H159.659V204.89H161.405V205.52ZM33.562 224.744C33.118 224.3 32.62 224.078 32.068 224.078C31.42 224.078 30.91 224.312 30.538 224.78C30.166 225.248 29.98 225.824 29.98 226.508C29.98 227.18 30.19 227.732 30.61 228.164C31.03 228.596 31.54 228.812 32.14 228.812C32.656 228.812 33.13 228.584 33.562 228.128V229.802C33.058 230.09 32.476 230.234 31.816 230.234C30.784 230.234 29.926 229.868 29.242 229.136C28.558 228.404 28.216 227.51 28.216 226.454C28.216 225.398 28.564 224.504 29.26 223.772C29.968 223.028 30.85 222.656 31.906 222.656C32.53 222.656 33.082 222.806 33.562 223.106V224.744ZM41.5516 230H39.8416V229.352C39.3376 229.94 38.5876 230.234 37.5916 230.234C36.5956 230.234 35.7976 229.85 35.1976 229.082C34.6096 228.314 34.3156 227.414 34.3156 226.382C34.3156 225.35 34.6156 224.474 35.2156 223.754C35.8276 223.022 36.6076 222.656 37.5556 222.656C38.5636 222.656 39.3256 222.956 39.8416 223.556V222.89H41.5516V230ZM40.0396 226.436C40.0396 225.776 39.8536 225.236 39.4816 224.816C39.1096 224.384 38.6296 224.168 38.0416 224.168C37.4656 224.168 36.9916 224.378 36.6196 224.798C36.2596 225.206 36.0796 225.752 36.0796 226.436C36.0796 227.12 36.2656 227.672 36.6376 228.092C37.0096 228.512 37.4896 228.722 38.0776 228.722C38.6656 228.722 39.1396 228.518 39.4996 228.11C39.8596 227.702 40.0396 227.144 40.0396 226.436ZM44.757 223.628C45.201 222.98 45.897 222.656 46.845 222.656C47.145 222.656 47.421 222.716 47.673 222.836L47.457 224.42C47.193 224.252 46.905 224.168 46.593 224.168C45.369 224.168 44.757 225.044 44.757 226.796V230H43.011V222.89H44.757V223.628ZM49.6696 226.616C49.6696 227.3 49.8196 227.864 50.1196 228.308C50.4196 228.752 50.8336 228.974 51.3616 228.974C52.1896 228.974 52.7176 228.566 52.9456 227.75L54.6016 228.02C54.0616 229.496 52.9816 230.234 51.3616 230.234C50.2816 230.234 49.4176 229.892 48.7696 229.208C48.1336 228.512 47.8156 227.612 47.8156 226.508C47.8156 225.344 48.1216 224.414 48.7336 223.718C49.3576 223.01 50.1976 222.656 51.2536 222.656C52.3216 222.656 53.1496 222.992 53.7376 223.664C54.3376 224.324 54.6376 225.23 54.6376 226.382V226.616H49.6696ZM53.0176 225.644C53.0176 225.152 52.8616 224.72 52.5496 224.348C52.2496 223.976 51.8536 223.79 51.3616 223.79C50.8816 223.79 50.4856 223.988 50.1736 224.384C49.8736 224.768 49.7236 225.188 49.7236 225.644H53.0176ZM62.3474 229.388C62.3474 231.824 61.2134 233.042 58.9454 233.042C57.9374 233.042 57.0854 232.766 56.3894 232.214C55.6934 231.674 55.3454 230.966 55.3454 230.09H57.1994C57.1994 230.438 57.3734 230.78 57.7214 231.116C58.0694 231.452 58.4594 231.62 58.8914 231.62C60.0314 231.62 60.6014 230.936 60.6014 229.568V229.118C60.1094 229.742 59.3594 230.054 58.3514 230.054C57.3554 230.054 56.5694 229.706 55.9934 229.01C55.4294 228.314 55.1474 227.462 55.1474 226.454C55.1474 225.362 55.4534 224.45 56.0654 223.718C56.6774 222.986 57.4694 222.62 58.4414 222.62C59.4254 222.62 60.1454 222.926 60.6014 223.538V222.854H62.3474V229.388ZM60.8534 226.292C60.8534 225.644 60.6734 225.122 60.3134 224.726C59.9534 224.33 59.4794 224.132 58.8914 224.132C58.3034 224.132 57.8234 224.348 57.4514 224.78C57.0914 225.212 56.9114 225.758 56.9114 226.418C56.9114 227.834 57.5714 228.542 58.8914 228.542C59.4914 228.542 59.9654 228.332 60.3134 227.912C60.6734 227.48 60.8534 226.94 60.8534 226.292ZM65.86 219.902C65.86 220.178 65.758 220.418 65.554 220.622C65.35 220.826 65.11 220.928 64.834 220.928C64.558 220.928 64.318 220.826 64.114 220.622C63.91 220.418 63.808 220.178 63.808 219.902C63.808 219.626 63.91 219.386 64.114 219.182C64.318 218.978 64.558 218.876 64.834 218.876C65.11 218.876 65.35 218.978 65.554 219.182C65.758 219.386 65.86 219.626 65.86 219.902ZM65.716 230H63.97V222.89H65.716V230ZM70.3079 227.39L72.0539 222.89H73.9979L70.7219 230.144H69.6779L66.4199 222.89H68.3459L70.3079 227.39ZM76.6003 219.902C76.6003 220.178 76.4983 220.418 76.2943 220.622C76.0903 220.826 75.8503 220.928 75.5743 220.928C75.2983 220.928 75.0583 220.826 74.8543 220.622C74.6503 220.418 74.5483 220.178 74.5483 219.902C74.5483 219.626 74.6503 219.386 74.8543 219.182C75.0583 218.978 75.2983 218.876 75.5743 218.876C75.8503 218.876 76.0903 218.978 76.2943 219.182C76.4983 219.386 76.6003 219.626 76.6003 219.902ZM76.4563 230H74.7103V222.89H76.4563V230ZM79.8781 223.538C80.3701 222.95 81.0961 222.656 82.0561 222.656C83.6881 222.656 84.5041 223.658 84.5041 225.662V230H82.7761V226.238C82.7761 224.738 82.3141 223.988 81.3901 223.988C80.3821 223.988 79.8781 224.792 79.8781 226.4V230H78.1321V222.89H79.8781V223.538ZM92.7224 229.388C92.7224 231.824 91.5884 233.042 89.3204 233.042C88.3124 233.042 87.4604 232.766 86.7644 232.214C86.0684 231.674 85.7204 230.966 85.7204 230.09H87.5744C87.5744 230.438 87.7484 230.78 88.0964 231.116C88.4444 231.452 88.8344 231.62 89.2664 231.62C90.4064 231.62 90.9764 230.936 90.9764 229.568V229.118C90.4844 229.742 89.7344 230.054 88.7264 230.054C87.7304 230.054 86.9444 229.706 86.3684 229.01C85.8044 228.314 85.5224 227.462 85.5224 226.454C85.5224 225.362 85.8284 224.45 86.4404 223.718C87.0524 222.986 87.8444 222.62 88.8164 222.62C89.8004 222.62 90.5204 222.926 90.9764 223.538V222.854H92.7224V229.388ZM91.2284 226.292C91.2284 225.644 91.0484 225.122 90.6884 224.726C90.3284 224.33 89.8544 224.132 89.2664 224.132C88.6784 224.132 88.1984 224.348 87.8264 224.78C87.4664 225.212 87.2864 225.758 87.2864 226.418C87.2864 227.834 87.9464 228.542 89.2664 228.542C89.8664 228.542 90.3404 228.332 90.6884 227.912C91.0484 227.48 91.2284 226.94 91.2284 226.292ZM101.455 226.616C101.455 227.3 101.605 227.864 101.905 228.308C102.205 228.752 102.619 228.974 103.147 228.974C103.975 228.974 104.503 228.566 104.731 227.75L106.387 228.02C105.847 229.496 104.767 230.234 103.147 230.234C102.067 230.234 101.203 229.892 100.555 229.208C99.9188 228.512 99.6008 227.612 99.6008 226.508C99.6008 225.344 99.9068 224.414 100.519 223.718C101.143 223.01 101.983 222.656 103.039 222.656C104.107 222.656 104.935 222.992 105.523 223.664C106.123 224.324 106.423 225.23 106.423 226.382V226.616H101.455ZM104.803 225.644C104.803 225.152 104.647 224.72 104.335 224.348C104.035 223.976 103.639 223.79 103.147 223.79C102.667 223.79 102.271 223.988 101.959 224.384C101.659 224.768 101.509 225.188 101.509 225.644H104.803ZM107.131 222.89H109.291L110.767 224.888L112.027 222.89H114.241L111.757 226.112L114.709 230H112.513L110.569 227.336L108.769 230H106.537L109.561 226.13L107.131 222.89ZM117.073 223.538C117.577 222.95 118.327 222.656 119.323 222.656C120.259 222.656 121.033 223.028 121.645 223.772C122.269 224.516 122.581 225.392 122.581 226.4C122.581 227.492 122.275 228.404 121.663 229.136C121.051 229.868 120.259 230.234 119.287 230.234C118.243 230.234 117.517 229.934 117.109 229.334L117.073 233.006H115.327V222.89H117.073V223.538ZM120.799 226.436C120.799 225.824 120.625 225.296 120.277 224.852C119.929 224.396 119.449 224.168 118.837 224.168C118.273 224.168 117.805 224.396 117.433 224.852C117.061 225.308 116.875 225.836 116.875 226.436C116.875 227.024 117.073 227.552 117.469 228.02C117.865 228.488 118.321 228.722 118.837 228.722C119.449 228.722 119.929 228.506 120.277 228.074C120.625 227.642 120.799 227.096 120.799 226.436ZM124.869 226.616C124.869 227.3 125.019 227.864 125.319 228.308C125.619 228.752 126.033 228.974 126.561 228.974C127.389 228.974 127.917 228.566 128.145 227.75L129.801 228.02C129.261 229.496 128.181 230.234 126.561 230.234C125.481 230.234 124.617 229.892 123.969 229.208C123.333 228.512 123.015 227.612 123.015 226.508C123.015 225.344 123.321 224.414 123.933 223.718C124.557 223.01 125.397 222.656 126.453 222.656C127.521 222.656 128.349 222.992 128.937 223.664C129.537 224.324 129.837 225.23 129.837 226.382V226.616H124.869ZM128.217 225.644C128.217 225.152 128.061 224.72 127.749 224.348C127.449 223.976 127.053 223.79 126.561 223.79C126.081 223.79 125.685 223.988 125.373 224.384C125.073 224.768 124.923 225.188 124.923 225.644H128.217ZM132.525 223.628C132.969 222.98 133.665 222.656 134.613 222.656C134.913 222.656 135.189 222.716 135.441 222.836L135.225 224.42C134.961 224.252 134.673 224.168 134.361 224.168C133.137 224.168 132.525 225.044 132.525 226.796V230H130.779V222.89H132.525V223.628ZM138.229 219.902C138.229 220.178 138.127 220.418 137.923 220.622C137.719 220.826 137.479 220.928 137.203 220.928C136.927 220.928 136.687 220.826 136.483 220.622C136.279 220.418 136.177 220.178 136.177 219.902C136.177 219.626 136.279 219.386 136.483 219.182C136.687 218.978 136.927 218.876 137.203 218.876C137.479 218.876 137.719 218.978 137.923 219.182C138.127 219.386 138.229 219.626 138.229 219.902ZM138.085 230H136.339V222.89H138.085V230ZM141.111 226.616C141.111 227.3 141.261 227.864 141.561 228.308C141.861 228.752 142.275 228.974 142.803 228.974C143.631 228.974 144.159 228.566 144.387 227.75L146.043 228.02C145.503 229.496 144.423 230.234 142.803 230.234C141.723 230.234 140.859 229.892 140.211 229.208C139.575 228.512 139.257 227.612 139.257 226.508C139.257 225.344 139.563 224.414 140.175 223.718C140.799 223.01 141.639 222.656 142.695 222.656C143.763 222.656 144.591 222.992 145.179 223.664C145.779 224.324 146.079 225.23 146.079 226.382V226.616H141.111ZM144.459 225.644C144.459 225.152 144.303 224.72 143.991 224.348C143.691 223.976 143.295 223.79 142.803 223.79C142.323 223.79 141.927 223.988 141.615 224.384C141.315 224.768 141.165 225.188 141.165 225.644H144.459ZM148.767 223.538C149.259 222.95 149.985 222.656 150.945 222.656C152.577 222.656 153.393 223.658 153.393 225.662V230H151.665V226.238C151.665 224.738 151.203 223.988 150.279 223.988C149.271 223.988 148.767 224.792 148.767 226.4V230H147.021V222.89H148.767V223.538ZM159.685 224.744C159.241 224.3 158.743 224.078 158.191 224.078C157.543 224.078 157.033 224.312 156.661 224.78C156.289 225.248 156.103 225.824 156.103 226.508C156.103 227.18 156.313 227.732 156.733 228.164C157.153 228.596 157.663 228.812 158.263 228.812C158.779 228.812 159.253 228.584 159.685 228.128V229.802C159.181 230.09 158.599 230.234 157.939 230.234C156.907 230.234 156.049 229.868 155.365 229.136C154.681 228.404 154.339 227.51 154.339 226.454C154.339 225.398 154.687 224.504 155.383 223.772C156.091 223.028 156.973 222.656 158.029 222.656C158.653 222.656 159.205 222.806 159.685 223.106V224.744ZM162.293 226.616C162.293 227.3 162.443 227.864 162.743 228.308C163.043 228.752 163.457 228.974 163.985 228.974C164.813 228.974 165.341 228.566 165.569 227.75L167.225 228.02C166.685 229.496 165.605 230.234 163.985 230.234C162.905 230.234 162.041 229.892 161.393 229.208C160.757 228.512 160.439 227.612 160.439 226.508C160.439 225.344 160.745 224.414 161.357 223.718C161.981 223.01 162.821 222.656 163.877 222.656C164.945 222.656 165.773 222.992 166.361 223.664C166.961 224.324 167.261 225.23 167.261 226.382V226.616H162.293ZM165.641 225.644C165.641 225.152 165.485 224.72 165.173 224.348C164.873 223.976 164.477 223.79 163.985 223.79C163.505 223.79 163.109 223.988 162.797 224.384C162.497 224.768 162.347 225.188 162.347 225.644H165.641Z" fill="white"/>
<path d="M224.758 292.434V294H217.414L220.186 290.49C221.506 288.858 222.28 287.838 222.508 287.43C222.748 287.01 222.868 286.668 222.868 286.404C222.88 286.332 222.886 286.26 222.886 286.188C222.886 285.708 222.724 285.282 222.4 284.91C222.088 284.538 221.674 284.352 221.158 284.352C220.642 284.352 220.234 284.562 219.934 284.982C219.646 285.402 219.502 285.912 219.502 286.512H217.558C217.558 285.432 217.876 284.544 218.512 283.848C219.16 283.14 220.036 282.786 221.14 282.786C222.136 282.786 222.976 283.122 223.66 283.794C224.344 284.466 224.686 285.306 224.686 286.314C224.686 287.262 223.96 288.582 222.508 290.274L220.654 292.434H224.758ZM233.467 288.546C233.467 290.13 233.119 291.486 232.423 292.614C231.727 293.73 230.767 294.288 229.543 294.288C228.331 294.288 227.377 293.724 226.681 292.596C225.985 291.468 225.637 290.118 225.637 288.546C225.637 286.914 225.985 285.546 226.681 284.442C227.389 283.338 228.349 282.786 229.561 282.786C230.773 282.786 231.727 283.35 232.423 284.478C233.119 285.594 233.467 286.95 233.467 288.546ZM227.437 288.528C227.437 289.632 227.629 290.61 228.013 291.462C228.397 292.302 228.919 292.722 229.579 292.722C230.239 292.722 230.749 292.326 231.109 291.534C231.481 290.742 231.667 289.74 231.667 288.528C231.667 287.412 231.475 286.44 231.091 285.612C230.707 284.772 230.191 284.352 229.543 284.352C228.907 284.352 228.397 284.79 228.013 285.666C227.629 286.53 227.437 287.484 227.437 288.528ZM241.492 292.434V294H234.148L236.92 290.49C238.24 288.858 239.014 287.838 239.242 287.43C239.482 287.01 239.602 286.668 239.602 286.404C239.614 286.332 239.62 286.26 239.62 286.188C239.62 285.708 239.458 285.282 239.134 284.91C238.822 284.538 238.408 284.352 237.892 284.352C237.376 284.352 236.968 284.562 236.668 284.982C236.38 285.402 236.236 285.912 236.236 286.512H234.292C234.292 285.432 234.61 284.544 235.246 283.848C235.894 283.14 236.77 282.786 237.874 282.786C238.87 282.786 239.71 283.122 240.394 283.794C241.078 284.466 241.42 285.306 241.42 286.314C241.42 287.262 240.694 288.582 239.242 290.274L237.388 292.434H241.492ZM242.948 285.936C243.044 284.964 243.386 284.196 243.974 283.632C244.562 283.068 245.33 282.786 246.278 282.786C247.238 282.786 248.006 283.062 248.582 283.614C249.158 284.166 249.446 284.916 249.446 285.864C249.446 286.92 249.098 287.682 248.402 288.15C249.338 288.558 249.806 289.446 249.806 290.814C249.806 291.87 249.464 292.716 248.78 293.352C248.108 293.976 247.238 294.288 246.17 294.288C245.174 294.288 244.322 293.958 243.614 293.298C242.906 292.638 242.552 291.822 242.552 290.85H244.406C244.406 291.378 244.58 291.822 244.928 292.182C245.276 292.542 245.714 292.722 246.242 292.722C246.782 292.722 247.208 292.524 247.52 292.128C247.844 291.732 248.006 291.252 248.006 290.688C248.006 290.22 247.832 289.788 247.484 289.392C247.148 288.984 246.764 288.78 246.332 288.78C246.284 288.78 246.236 288.786 246.188 288.798L245.792 288.834V287.592H246.026C246.482 287.592 246.872 287.436 247.196 287.124C247.532 286.8 247.7 286.404 247.7 285.936C247.7 284.82 247.196 284.262 246.188 284.262C245.192 284.262 244.694 284.82 244.694 285.936H242.948Z" fill="white"/>
<rect x="54.8928" y="83.6072" width="4.42857" height="14.3929" rx="2.21429" fill="white"/>
<rect x="54.8928" y="36" width="4.42857" height="14.3929" rx="2.21429" fill="white"/>
<rect x="74.2678" y="68.6608" width="4.42857" height="13.8393" rx="2.21429" transform="rotate(-90 74.2678 68.6608)" fill="white"/>
<rect x="25" y="68.6608" width="4.42857" height="15.5" rx="2.21429" transform="rotate(-90 25 68.6608)" fill="white"/>
<path d="M58.2551 47.2915L59.4028 46.1237C60.3984 45.1344 61.6744 44.6428 62.9357 44.6428C64.1963 44.6428 65.4741 45.1319 66.4257 46.0805L66.461 46.1163C68.4175 48.1068 68.4171 51.3823 66.4203 53.3735L66.4131 53.3806L66.4061 53.3878L56.8013 63.1599L47.3065 53.4997C47.3065 53.4997 47.3064 53.4997 47.3064 53.4997C45.3255 51.4842 45.2466 48.2259 47.1214 46.2192L47.1265 46.2137C48.1056 45.1579 49.4082 44.6428 50.7217 44.6428C51.9979 44.6428 53.2918 45.1442 54.2469 46.116L55.4023 47.2915L56.8287 48.7427L58.2551 47.2915Z" stroke="white" stroke-width="4"/>
<path d="M56.8608 83.7595L58.2667 85.149L59.4221 86.291M56.8608 83.7595L59.4221 86.291M56.8608 83.7595L55.4549 85.149L54.3072 86.2834C53.3156 87.2405 52.0333 87.7255 50.7537 87.7255C49.475 87.7255 48.1908 87.2429 47.243 86.3253L47.208 86.2906C45.2791 84.3843 45.2789 81.2701 47.2485 79.3622L47.2557 79.3552L47.2629 79.3481L56.8882 69.8349L66.4035 79.2393C66.4035 79.2393 66.4035 79.2393 66.4035 79.2394M56.8608 83.7595L66.4035 79.2394M59.4221 86.291C60.373 87.2309 61.6733 87.7255 62.9678 87.7255C64.3005 87.7255 65.6089 87.2169 66.5828 86.1967L66.588 86.1913C68.4329 84.2729 68.3605 81.1737 66.4035 79.2394M59.4221 86.291L66.4035 79.2394M56.3076 69.2611L56.3083 69.2618L56.3076 69.2611Z" stroke="white" stroke-width="4"/>
<path d="M37.9245 68.0982L39.3186 66.6908L37.9245 65.2833L36.7734 64.1212C35.7972 63.1121 35.3032 61.8079 35.3032 60.5074C35.3032 59.2079 35.7946 57.9017 36.7309 56.9369L36.7661 56.9013C38.7124 54.9363 41.8937 54.9361 43.8416 56.9425L43.8486 56.9497L43.8556 56.9569L53.5246 66.7185L43.966 76.3688C43.966 76.3688 43.966 76.3688 43.966 76.3688C41.9923 78.3613 38.8267 78.4363 36.8674 76.5561L36.862 76.5509C35.8212 75.5595 35.3032 74.2284 35.3032 72.8741C35.3032 71.5586 35.8068 70.2362 36.7658 69.268L37.9245 68.0982Z" stroke="white" stroke-width="4"/>
<path d="M76.9232 76.4479L76.9232 76.448C74.9769 78.413 71.7952 78.4131 69.8474 76.4067L69.8404 76.3995L69.8333 76.3924L60.1643 66.6307L69.723 56.9805C69.723 56.9805 69.723 56.9805 69.723 56.9805C71.6967 54.9879 74.8622 54.9129 76.8215 56.7932L76.8269 56.7983C77.8678 57.7898 78.3857 59.1208 78.3857 60.4751C78.3857 61.7906 77.8821 63.1131 76.9232 64.0812L75.7645 65.251L74.3704 66.6585L75.7645 68.0659L76.9156 69.2281C77.8918 70.2371 78.3857 71.5413 78.3857 72.8418C78.3857 74.1574 77.8821 75.4798 76.9232 76.4479Z" stroke="white" stroke-width="4"/>
</svg>
