<svg width="932" height="43" viewBox="0 0 932 43" fill="none" xmlns="http://www.w3.org/2000/svg">
<rect width="932" height="43" fill="white"/>
<path d="M9.252 15.496L11.64 11.344L9.432 7.432H11.916L13.308 9.988H13.356L14.652 7.432H16.872L14.688 11.284L17.04 15.496H14.556L13.044 12.748H12.996L11.472 15.496H9.252ZM19.6171 15.604C18.4411 15.604 17.7331 15.076 17.7331 13.816V9.316H19.7611V13.384C19.7611 13.876 19.9771 14.056 20.5171 14.056C20.8771 14.056 21.1891 13.948 21.4531 13.84V9.316H23.4811V15.496H21.6811L21.5491 14.956H21.4891C20.9371 15.376 20.3971 15.604 19.6171 15.604ZM24.1652 17.26L24.6812 14.716H26.6972L25.7372 17.26H24.1652ZM31.0493 15.496V7.432H33.3053V11.14L35.8373 7.432H38.1173L35.4773 11.236L38.2853 15.496H35.7653L33.3053 11.788V15.496H31.0493ZM38.9418 15.808V13.996H40.9098V15.808H38.9418ZM41.4855 17.26L42.0015 14.716H44.0175L43.0575 17.26H41.4855ZM50.4216 15.496V12.316L47.7456 7.276H49.0656L51.0936 11.152H51.1296L53.1216 7.276H54.3216L51.6576 12.316V15.496H50.4216ZM56.7848 15.604C55.6808 15.604 54.8888 15.052 54.8888 13.864C54.8888 12.772 55.6088 12.232 56.7968 12.076L58.3328 11.896V11.368C58.3328 10.456 57.9488 10.252 56.8688 10.252C56.2688 10.252 55.7648 10.348 55.3928 10.432V9.604C55.9568 9.376 56.5808 9.256 57.3368 9.256C58.7168 9.256 59.5208 9.832 59.5208 11.068V15.496H58.5488L58.4408 14.98H58.3688C58.0808 15.34 57.5768 15.604 56.7848 15.604ZM57.0968 14.74C57.6008 14.74 58.0928 14.572 58.3328 14.344V12.712L57.0608 12.844C56.4128 12.916 56.0888 13.18 56.0888 13.816C56.0888 14.44 56.4848 14.74 57.0968 14.74ZM61.0615 15.496V9.376H62.2015V9.904H62.2495C62.7655 9.544 63.5575 9.256 64.3015 9.256C65.4895 9.256 66.0655 9.748 66.0655 10.936V15.496H64.8775V11.212C64.8775 10.54 64.6855 10.264 63.7615 10.264C63.2455 10.264 62.6575 10.444 62.2375 10.648V15.496H61.0615ZM67.5403 17.032L67.7203 14.356H69.0643L68.5363 17.032H67.5403ZM73.2847 15.496L75.9367 11.308L73.4407 7.276H74.8087L76.7767 10.42H76.8367L78.6487 7.276H79.9087L77.4967 11.308L80.0527 15.496H78.6847L76.6327 12.184H76.6087L74.5687 15.496H73.2847ZM81.2306 15.628V14.332H82.5506V15.628H81.2306ZM88.859 15.604C87.755 15.604 86.963 15.052 86.963 13.864C86.963 12.772 87.683 12.232 88.871 12.076L90.407 11.896V11.368C90.407 10.456 90.023 10.252 88.943 10.252C88.343 10.252 87.839 10.348 87.467 10.432V9.604C88.031 9.376 88.655 9.256 89.411 9.256C90.791 9.256 91.595 9.832 91.595 11.068V15.496H90.623L90.515 14.98H90.443C90.155 15.34 89.651 15.604 88.859 15.604ZM89.171 14.74C89.675 14.74 90.167 14.572 90.407 14.344V12.712L89.135 12.844C88.487 12.916 88.163 13.18 88.163 13.816C88.163 14.44 88.559 14.74 89.171 14.74ZM93.1357 15.496V9.376H94.2758V9.904H94.3238C94.8398 9.544 95.6318 9.256 96.3758 9.256C97.5638 9.256 98.1398 9.748 98.1398 10.936V15.496H96.9518V11.212C96.9518 10.54 96.7598 10.264 95.8358 10.264C95.3198 10.264 94.7318 10.444 94.3118 10.648V15.496H93.1357ZM101.859 15.604C100.671 15.604 99.3625 14.86 99.3625 12.628V12.472C99.3625 10.228 100.503 9.256 102.075 9.256C102.819 9.256 103.311 9.46 103.599 9.628V6.736H104.787V15.496H103.779L103.671 15.004H103.611C103.251 15.364 102.663 15.604 101.859 15.604ZM102.267 14.668C102.903 14.668 103.347 14.404 103.599 14.212V10.576C103.359 10.372 102.831 10.24 102.255 10.24C101.211 10.24 100.575 10.768 100.575 12.328V12.58C100.575 14.188 101.259 14.668 102.267 14.668ZM109.675 15.496V7.276H111.103L114.727 13.432H114.763V7.276H115.879V15.496H114.631L110.839 8.98H110.791V15.496H109.675ZM120.232 15.604C118.252 15.604 117.268 14.428 117.268 12.508V12.352C117.268 10.252 118.528 9.256 120.004 9.256C121.732 9.256 122.536 10.252 122.536 12.184V12.76H118.48C118.564 14.164 119.248 14.632 120.448 14.632C121.252 14.632 121.78 14.44 122.344 14.188V15.016C121.96 15.292 121.252 15.604 120.232 15.604ZM119.956 10.192C119.308 10.192 118.576 10.528 118.48 11.896H121.3C121.3 10.66 120.844 10.192 119.956 10.192ZM124.909 15.496L123.193 9.376H124.441L125.605 13.972H125.665L126.985 9.376H127.993L129.337 13.972H129.385L130.537 9.376H131.641L129.925 15.496H128.761L127.453 11.14H127.405L126.097 15.496H124.909ZM132.675 15.496V9.376H133.815V9.904H133.863C134.379 9.556 135.027 9.256 135.735 9.256C136.419 9.256 136.911 9.484 137.187 9.94H137.235C137.883 9.52 138.591 9.256 139.299 9.256C140.355 9.256 140.991 9.748 140.991 10.936V15.496H139.803V11.212C139.803 10.54 139.539 10.264 138.783 10.264C138.351 10.264 137.883 10.42 137.391 10.66C137.403 10.768 137.415 10.852 137.415 10.984V15.496H136.239V11.212C136.239 10.54 135.987 10.264 135.231 10.264C134.763 10.264 134.271 10.432 133.851 10.648V15.496H132.675ZM144.066 15.604C142.962 15.604 142.17 15.052 142.17 13.864C142.17 12.772 142.89 12.232 144.078 12.076L145.614 11.896V11.368C145.614 10.456 145.23 10.252 144.15 10.252C143.55 10.252 143.046 10.348 142.674 10.432V9.604C143.238 9.376 143.862 9.256 144.618 9.256C145.998 9.256 146.802 9.832 146.802 11.068V15.496H145.83L145.722 14.98H145.65C145.362 15.34 144.858 15.604 144.066 15.604ZM144.378 14.74C144.882 14.74 145.374 14.572 145.614 14.344V12.712L144.342 12.844C143.694 12.916 143.37 13.18 143.37 13.816C143.37 14.44 143.766 14.74 144.378 14.74ZM148.343 15.496V9.376H149.483V9.904H149.531C150.047 9.544 150.839 9.256 151.583 9.256C152.771 9.256 153.347 9.748 153.347 10.936V15.496H152.159V11.212C152.159 10.54 151.967 10.264 151.043 10.264C150.527 10.264 149.939 10.444 149.519 10.648V15.496H148.343ZM154.822 17.032L155.002 14.356H156.346L155.818 17.032H154.822ZM161.214 15.496V7.276H163.002L165.15 13.828H165.186L167.334 7.276H169.098V15.496H167.862V8.86H167.838L165.63 15.496H164.538L162.366 8.86H162.318V15.496H161.214ZM170.914 15.628V14.332H172.234V15.628H170.914ZM175.39 15.496L173.326 7.276H174.586L176.062 13.624H176.098L177.886 7.276H178.918L180.67 13.624H180.694L182.194 7.276H183.322L181.282 15.496H180.082L178.378 9.268H178.342L176.59 15.496H175.39ZM184.414 15.628V14.332H185.734V15.628H184.414ZM190.399 15.496V14.764L192.127 12.964C193.255 11.776 194.119 10.816 194.119 9.736C194.119 8.704 193.579 8.26 192.499 8.26C191.887 8.26 191.215 8.56 190.759 8.86L190.507 7.912C191.035 7.588 191.863 7.24 192.787 7.24C194.515 7.24 195.427 8.128 195.427 9.592C195.427 11.02 194.335 12.172 193.183 13.384L192.079 14.488H195.535V15.496H190.399ZM199.894 15.64C198.166 15.64 196.81 14.512 196.81 11.74V11.164C196.81 8.26 198.262 7.24 199.918 7.24C201.562 7.24 202.942 8.272 202.942 11.116V11.728C202.942 14.548 201.586 15.64 199.894 15.64ZM199.894 14.656C201.058 14.656 201.658 13.852 201.658 11.848V11.104C201.658 9.124 201.058 8.224 199.906 8.224C198.742 8.224 198.13 9.088 198.13 11.032V11.776C198.13 13.732 198.73 14.656 199.894 14.656ZM204.238 15.496V14.764L205.966 12.964C207.094 11.776 207.958 10.816 207.958 9.736C207.958 8.704 207.418 8.26 206.338 8.26C205.726 8.26 205.054 8.56 204.598 8.86L204.346 7.912C204.874 7.588 205.702 7.24 206.626 7.24C208.354 7.24 209.266 8.128 209.266 9.592C209.266 11.02 208.174 12.172 207.022 13.384L205.918 14.488H209.374V15.496H204.238ZM210.649 15.496V14.764L212.377 12.964C213.505 11.776 214.369 10.816 214.369 9.736C214.369 8.704 213.829 8.26 212.749 8.26C212.137 8.26 211.465 8.56 211.009 8.86L210.757 7.912C211.285 7.588 212.113 7.24 213.037 7.24C214.765 7.24 215.677 8.128 215.677 9.592C215.677 11.02 214.585 12.172 213.433 13.384L212.329 14.488H215.785V15.496H210.649ZM217.227 15.628V14.332H218.547V15.628H217.227ZM226.571 15.64C224.555 15.64 223.427 14.668 223.427 12.628V7.276H224.699V12.556C224.699 14.188 225.359 14.692 226.619 14.692C227.867 14.692 228.467 14.2 228.467 12.544V7.276H229.595V12.592C229.595 14.704 228.599 15.64 226.571 15.64ZM231.312 15.496V9.376H232.452V9.904H232.5C233.016 9.544 233.808 9.256 234.552 9.256C235.74 9.256 236.316 9.748 236.316 10.936V15.496H235.128V11.212C235.128 10.54 234.936 10.264 234.012 10.264C233.496 10.264 232.908 10.444 232.488 10.648V15.496H231.312ZM240.034 15.604C238.846 15.604 237.538 14.86 237.538 12.628V12.472C237.538 10.228 238.678 9.256 240.25 9.256C240.994 9.256 241.486 9.46 241.774 9.628V6.736H242.962V15.496H241.954L241.846 15.004H241.786C241.426 15.364 240.838 15.604 240.034 15.604ZM240.442 14.668C241.078 14.668 241.522 14.404 241.774 14.212V10.576C241.534 10.372 241.006 10.24 240.43 10.24C239.386 10.24 238.75 10.768 238.75 12.328V12.58C238.75 14.188 239.434 14.668 240.442 14.668ZM247.134 15.604C245.154 15.604 244.17 14.428 244.17 12.508V12.352C244.17 10.252 245.43 9.256 246.906 9.256C248.634 9.256 249.438 10.252 249.438 12.184V12.76H245.382C245.466 14.164 246.15 14.632 247.35 14.632C248.154 14.632 248.682 14.44 249.246 14.188V15.016C248.862 15.292 248.154 15.604 247.134 15.604ZM246.858 10.192C246.21 10.192 245.478 10.528 245.382 11.896H248.202C248.202 10.66 247.746 10.192 246.858 10.192ZM250.636 15.496V9.376H251.776V10.06H251.824C252.184 9.652 252.808 9.304 253.468 9.304C253.612 9.304 253.792 9.316 253.852 9.352V10.408C253.696 10.384 253.492 10.372 253.372 10.372C252.796 10.372 252.232 10.54 251.812 10.816V15.496H250.636ZM256.486 15.592C255.694 15.592 254.986 15.46 254.494 15.16V14.272C254.998 14.464 255.454 14.656 256.318 14.656C257.194 14.656 257.578 14.356 257.578 13.84C257.578 13.372 257.35 13.144 256.606 12.976L256.042 12.82C255.13 12.604 254.506 12.16 254.506 11.08C254.506 9.988 255.202 9.256 256.69 9.256C257.53 9.256 258.046 9.436 258.406 9.616V10.528C258.082 10.396 257.458 10.228 256.786 10.228C256.018 10.228 255.634 10.456 255.634 10.984C255.634 11.452 255.874 11.632 256.486 11.8L257.062 11.944C258.262 12.232 258.742 12.664 258.742 13.756C258.742 14.968 257.878 15.592 256.486 15.592ZM261.98 15.556C260.96 15.556 260.288 15.136 260.288 14.02V10.324H259.424V9.376H260.288V7.936H261.476V9.376H262.952V10.324H261.476V13.852C261.476 14.404 261.656 14.608 262.316 14.608C262.568 14.608 262.832 14.572 263.072 14.536V15.328C262.82 15.436 262.544 15.556 261.98 15.556ZM265.754 15.604C264.65 15.604 263.858 15.052 263.858 13.864C263.858 12.772 264.578 12.232 265.766 12.076L267.302 11.896V11.368C267.302 10.456 266.918 10.252 265.838 10.252C265.238 10.252 264.734 10.348 264.362 10.432V9.604C264.926 9.376 265.55 9.256 266.306 9.256C267.686 9.256 268.49 9.832 268.49 11.068V15.496H267.518L267.41 14.98H267.338C267.05 15.34 266.546 15.604 265.754 15.604ZM266.066 14.74C266.57 14.74 267.062 14.572 267.302 14.344V12.712L266.03 12.844C265.382 12.916 265.058 13.18 265.058 13.816C265.058 14.44 265.454 14.74 266.066 14.74ZM270.03 15.496V9.376H271.17V9.904H271.218C271.734 9.544 272.526 9.256 273.27 9.256C274.458 9.256 275.034 9.748 275.034 10.936V15.496H273.846V11.212C273.846 10.54 273.654 10.264 272.73 10.264C272.214 10.264 271.626 10.444 271.206 10.648V15.496H270.03ZM278.753 15.604C277.565 15.604 276.257 14.86 276.257 12.628V12.472C276.257 10.228 277.397 9.256 278.969 9.256C279.713 9.256 280.205 9.46 280.493 9.628V6.736H281.681V15.496H280.673L280.565 15.004H280.505C280.145 15.364 279.557 15.604 278.753 15.604ZM279.161 14.668C279.797 14.668 280.241 14.404 280.493 14.212V10.576C280.253 10.372 279.725 10.24 279.149 10.24C278.105 10.24 277.469 10.768 277.469 12.328V12.58C277.469 14.188 278.153 14.668 279.161 14.668ZM283.285 15.496V9.376H284.461V15.496H283.285ZM283.273 8.236V7.084H284.473V8.236H283.273ZM286.097 15.496V9.376H287.237V9.904H287.285C287.801 9.544 288.593 9.256 289.337 9.256C290.525 9.256 291.101 9.748 291.101 10.936V15.496H289.913V11.212C289.913 10.54 289.721 10.264 288.797 10.264C288.281 10.264 287.693 10.444 287.273 10.648V15.496H286.097ZM294.843 17.272C292.959 17.272 292.047 16.864 292.047 15.952C292.047 15.316 292.563 14.908 293.187 14.692V14.632C292.839 14.512 292.563 14.368 292.563 13.96C292.563 13.528 292.791 13.168 293.271 12.832C292.815 12.52 292.503 12.04 292.503 11.356V11.236C292.503 9.964 293.487 9.256 294.879 9.256C295.215 9.256 295.515 9.292 295.803 9.352H297.879V10.204H296.895C297.111 10.444 297.219 10.78 297.219 11.188V11.308C297.219 12.592 296.199 13.204 294.867 13.204C294.519 13.204 294.183 13.168 293.871 13.072C293.739 13.204 293.643 13.36 293.643 13.516C293.643 13.828 293.811 13.852 294.207 13.852H295.887C297.027 13.852 297.843 14.26 297.843 15.448C297.843 16.576 296.967 17.272 294.843 17.272ZM294.819 16.396C296.151 16.396 296.619 16.216 296.619 15.628C296.619 15.124 296.331 14.92 295.611 14.92H293.967C293.559 15.052 293.259 15.328 293.259 15.784C293.259 16.264 293.703 16.396 294.819 16.396ZM294.867 12.388C295.635 12.388 296.067 12.052 296.067 11.356V11.188C296.067 10.42 295.599 10.096 294.867 10.096C294.123 10.096 293.667 10.468 293.667 11.164V11.332C293.667 12.052 294.147 12.388 294.867 12.388ZM302.144 15.496V7.276H304.856C306.74 7.276 307.664 8.164 307.664 9.748C307.664 11.44 306.584 12.328 304.964 12.328H303.38V15.496H302.144ZM303.38 11.356H304.724C305.912 11.356 306.356 10.852 306.356 9.844C306.356 8.728 305.924 8.284 304.748 8.284H303.38V11.356ZM311.435 15.604C309.455 15.604 308.471 14.428 308.471 12.508V12.352C308.471 10.252 309.731 9.256 311.207 9.256C312.935 9.256 313.739 10.252 313.739 12.184V12.76H309.683C309.767 14.164 310.451 14.632 311.651 14.632C312.455 14.632 312.983 14.44 313.547 14.188V15.016C313.163 15.292 312.455 15.604 311.435 15.604ZM311.159 10.192C310.511 10.192 309.779 10.528 309.683 11.896H312.503C312.503 10.66 312.047 10.192 311.159 10.192ZM317.421 15.604C315.609 15.604 314.577 14.476 314.577 12.568V12.364C314.577 10.42 315.729 9.256 317.433 9.256C319.209 9.256 320.253 10.396 320.253 12.328V12.508C320.253 14.452 319.089 15.604 317.421 15.604ZM317.433 14.68C318.429 14.68 319.017 13.972 319.017 12.628V12.304C319.017 10.684 318.297 10.204 317.409 10.204C316.377 10.204 315.789 10.912 315.789 12.256V12.58C315.789 14.2 316.521 14.68 317.433 14.68ZM321.464 17.296V9.376H322.604V9.868H322.652C323.024 9.52 323.66 9.256 324.404 9.256C325.736 9.256 326.9 9.988 326.9 12.244V12.412C326.9 14.68 325.82 15.532 324.14 15.532C323.456 15.532 322.964 15.352 322.64 15.172V17.296H321.464ZM323.996 14.608C325.052 14.608 325.664 14.128 325.664 12.568V12.316C325.664 10.72 325.088 10.252 324.056 10.252C323.408 10.252 322.892 10.456 322.64 10.648V14.224C322.892 14.416 323.408 14.608 323.996 14.608ZM328.168 15.496V6.736H329.344V15.496H328.168ZM333.584 15.604C331.604 15.604 330.62 14.428 330.62 12.508V12.352C330.62 10.252 331.88 9.256 333.355 9.256C335.084 9.256 335.888 10.252 335.888 12.184V12.76H331.832C331.916 14.164 332.6 14.632 333.8 14.632C334.604 14.632 335.132 14.44 335.696 14.188V15.016C335.312 15.292 334.604 15.604 333.584 15.604ZM333.308 10.192C332.66 10.192 331.928 10.528 331.832 11.896H334.652C334.652 10.66 334.196 10.192 333.308 10.192ZM338.141 6.676V8.032C338.141 8.896 337.565 9.64 336.749 9.82V9.184C337.205 9.052 337.493 8.68 337.505 8.104H336.725V6.676H338.141ZM341.189 15.592C340.397 15.592 339.689 15.46 339.197 15.16V14.272C339.701 14.464 340.157 14.656 341.021 14.656C341.897 14.656 342.281 14.356 342.281 13.84C342.281 13.372 342.053 13.144 341.309 12.976L340.745 12.82C339.833 12.604 339.209 12.16 339.209 11.08C339.209 9.988 339.905 9.256 341.393 9.256C342.233 9.256 342.749 9.436 343.109 9.616V10.528C342.785 10.396 342.161 10.228 341.489 10.228C340.721 10.228 340.337 10.456 340.337 10.984C340.337 11.452 340.577 11.632 341.189 11.8L341.765 11.944C342.965 12.232 343.445 12.664 343.445 13.756C343.445 14.968 342.581 15.592 341.189 15.592ZM347.976 15.496V7.276H352.968V8.308H349.212V10.756H352.128V11.776H349.212V14.464H353.016V15.496H347.976ZM353.77 15.496L355.81 12.376L353.854 9.376H355.258L356.626 11.572L357.898 9.376H359.146L357.298 12.364L359.314 15.496H357.91L356.494 13.192L355.042 15.496H353.77ZM360.3 17.296V9.376H361.44V9.868H361.488C361.86 9.52 362.496 9.256 363.24 9.256C364.572 9.256 365.736 9.988 365.736 12.244V12.412C365.736 14.68 364.656 15.532 362.976 15.532C362.292 15.532 361.8 15.352 361.476 15.172V17.296H360.3ZM362.832 14.608C363.888 14.608 364.5 14.128 364.5 12.568V12.316C364.5 10.72 363.924 10.252 362.892 10.252C362.244 10.252 361.728 10.456 361.476 10.648V14.224C361.728 14.416 362.244 14.608 362.832 14.608ZM369.572 15.604C367.592 15.604 366.608 14.428 366.608 12.508V12.352C366.608 10.252 367.868 9.256 369.344 9.256C371.072 9.256 371.876 10.252 371.876 12.184V12.76H367.82C367.904 14.164 368.588 14.632 369.788 14.632C370.592 14.632 371.12 14.44 371.684 14.188V15.016C371.3 15.292 370.592 15.604 369.572 15.604ZM369.296 10.192C368.648 10.192 367.916 10.528 367.82 11.896H370.64C370.64 10.66 370.184 10.192 369.296 10.192ZM373.073 15.496V9.376H374.213V10.06H374.261C374.621 9.652 375.245 9.304 375.905 9.304C376.049 9.304 376.229 9.316 376.289 9.352V10.408C376.133 10.384 375.929 10.372 375.809 10.372C375.233 10.372 374.669 10.54 374.249 10.816V15.496H373.073ZM377.34 15.496V9.376H378.516V15.496H377.34ZM377.328 8.236V7.084H378.528V8.236H377.328ZM382.755 15.604C380.775 15.604 379.791 14.428 379.791 12.508V12.352C379.791 10.252 381.051 9.256 382.527 9.256C384.255 9.256 385.059 10.252 385.059 12.184V12.76H381.003C381.087 14.164 381.771 14.632 382.971 14.632C383.775 14.632 384.303 14.44 384.867 14.188V15.016C384.483 15.292 383.775 15.604 382.755 15.604ZM382.479 10.192C381.831 10.192 381.099 10.528 381.003 11.896H383.823C383.823 10.66 383.367 10.192 382.479 10.192ZM386.257 15.496V9.376H387.397V9.904H387.445C387.961 9.544 388.753 9.256 389.497 9.256C390.685 9.256 391.261 9.748 391.261 10.936V15.496H390.073V11.212C390.073 10.54 389.881 10.264 388.957 10.264C388.441 10.264 387.853 10.444 387.433 10.648V15.496H386.257ZM395.316 15.604C393.564 15.604 392.448 14.608 392.448 12.58V12.376C392.448 10.24 393.732 9.256 395.388 9.256C396.192 9.256 396.66 9.412 397.068 9.652V10.624C396.528 10.396 396.156 10.252 395.376 10.252C394.332 10.252 393.672 10.936 393.672 12.22V12.532C393.672 14.008 394.296 14.632 395.496 14.632C396.276 14.632 396.816 14.38 397.14 14.224V15.124C396.732 15.388 396.168 15.604 395.316 15.604ZM400.849 15.604C398.869 15.604 397.885 14.428 397.885 12.508V12.352C397.885 10.252 399.145 9.256 400.621 9.256C402.349 9.256 403.153 10.252 403.153 12.184V12.76H399.097C399.181 14.164 399.865 14.632 401.065 14.632C401.869 14.632 402.397 14.44 402.961 14.188V15.016C402.577 15.292 401.869 15.604 400.849 15.604ZM400.573 10.192C399.925 10.192 399.193 10.528 399.097 11.896H401.917C401.917 10.66 401.461 10.192 400.573 10.192ZM407.863 15.496V10.324H406.975V9.376H407.863V8.548C407.863 7.216 408.679 6.64 409.807 6.64C410.335 6.64 410.683 6.736 410.899 6.844V7.648C410.743 7.612 410.455 7.564 410.071 7.564C409.423 7.564 409.051 7.888 409.051 8.656V9.376H410.407V10.324H409.051V15.496H407.863ZM413.971 15.604C412.159 15.604 411.127 14.476 411.127 12.568V12.364C411.127 10.42 412.279 9.256 413.983 9.256C415.759 9.256 416.803 10.396 416.803 12.328V12.508C416.803 14.452 415.639 15.604 413.971 15.604ZM413.983 14.68C414.979 14.68 415.567 13.972 415.567 12.628V12.304C415.567 10.684 414.847 10.204 413.959 10.204C412.927 10.204 412.339 10.912 412.339 12.256V12.58C412.339 14.2 413.071 14.68 413.983 14.68ZM418.015 15.496V9.376H419.155V10.06H419.203C419.563 9.652 420.187 9.304 420.847 9.304C420.991 9.304 421.171 9.316 421.231 9.352V10.408C421.075 10.384 420.871 10.372 420.751 10.372C420.175 10.372 419.611 10.54 419.191 10.816V15.496H418.015ZM425.565 15.496V7.276H428.277C430.161 7.276 431.085 8.164 431.085 9.748C431.085 11.44 430.005 12.328 428.385 12.328H426.801V15.496H425.565ZM426.801 11.356H428.145C429.333 11.356 429.777 10.852 429.777 9.844C429.777 8.728 429.345 8.284 428.169 8.284H426.801V11.356ZM432.253 15.496V6.736H433.429V9.88H433.489C433.993 9.532 434.749 9.256 435.493 9.256C436.681 9.256 437.257 9.748 437.257 10.936V15.496H436.069V11.212C436.069 10.54 435.877 10.264 434.953 10.264C434.437 10.264 433.849 10.444 433.429 10.648V15.496H432.253ZM439.296 17.284C439.008 17.284 438.648 17.2 438.48 17.116V16.288C438.624 16.336 438.852 16.36 439.056 16.36C439.632 16.36 440.064 16.312 440.244 15.844L440.508 15.16L438.168 9.376H439.428L441.096 13.66H441.12L442.656 9.376H443.808L441.348 16.012C440.928 17.164 440.376 17.284 439.296 17.284ZM446.389 15.592C445.597 15.592 444.889 15.46 444.397 15.16V14.272C444.901 14.464 445.357 14.656 446.221 14.656C447.097 14.656 447.481 14.356 447.481 13.84C447.481 13.372 447.253 13.144 446.509 12.976L445.945 12.82C445.033 12.604 444.409 12.16 444.409 11.08C444.409 9.988 445.105 9.256 446.593 9.256C447.433 9.256 447.949 9.436 448.309 9.616V10.528C447.985 10.396 447.361 10.228 446.689 10.228C445.921 10.228 445.537 10.456 445.537 10.984C445.537 11.452 445.777 11.632 446.389 11.8L446.965 11.944C448.165 12.232 448.645 12.664 448.645 13.756C448.645 14.968 447.781 15.592 446.389 15.592ZM449.891 15.496V9.376H451.067V15.496H449.891ZM449.879 8.236V7.084H451.079V8.236H449.879ZM455.21 15.604C453.458 15.604 452.342 14.608 452.342 12.58V12.376C452.342 10.24 453.626 9.256 455.282 9.256C456.086 9.256 456.554 9.412 456.962 9.652V10.624C456.422 10.396 456.05 10.252 455.27 10.252C454.226 10.252 453.566 10.936 453.566 12.22V12.532C453.566 14.008 454.19 14.632 455.39 14.632C456.17 14.632 456.71 14.38 457.034 14.224V15.124C456.626 15.388 456.062 15.604 455.21 15.604ZM459.664 15.604C458.56 15.604 457.768 15.052 457.768 13.864C457.768 12.772 458.488 12.232 459.676 12.076L461.212 11.896V11.368C461.212 10.456 460.828 10.252 459.748 10.252C459.148 10.252 458.644 10.348 458.272 10.432V9.604C458.836 9.376 459.46 9.256 460.216 9.256C461.596 9.256 462.4 9.832 462.4 11.068V15.496H461.428L461.32 14.98H461.248C460.96 15.34 460.456 15.604 459.664 15.604ZM459.976 14.74C460.48 14.74 460.972 14.572 461.212 14.344V12.712L459.94 12.844C459.292 12.916 458.968 13.18 458.968 13.816C458.968 14.44 459.364 14.74 459.976 14.74ZM463.976 15.496V6.736H465.152V15.496H463.976ZM469.292 15.496L472.268 7.276H473.516L476.468 15.496H475.172L474.38 13.264H471.236L470.456 15.496H469.292ZM472.772 8.836L471.572 12.28H474.02L472.808 8.836H472.772ZM479.902 15.604C478.15 15.604 477.034 14.608 477.034 12.58V12.376C477.034 10.24 478.318 9.256 479.974 9.256C480.778 9.256 481.246 9.412 481.654 9.652V10.624C481.114 10.396 480.742 10.252 479.962 10.252C478.918 10.252 478.258 10.936 478.258 12.22V12.532C478.258 14.008 478.882 14.632 480.082 14.632C480.862 14.632 481.402 14.38 481.726 14.224V15.124C481.318 15.388 480.754 15.604 479.902 15.604ZM484.976 15.556C483.956 15.556 483.284 15.136 483.284 14.02V10.324H482.42V9.376H483.284V7.936H484.472V9.376H485.948V10.324H484.472V13.852C484.472 14.404 484.652 14.608 485.312 14.608C485.564 14.608 485.828 14.572 486.068 14.536V15.328C485.816 15.436 485.54 15.556 484.976 15.556ZM487.262 15.496V9.376H488.438V15.496H487.262ZM487.25 8.236V7.084H488.45V8.236H487.25ZM491.729 15.496L489.485 9.376H490.757L492.353 14.02H492.389L494.009 9.376H495.161L492.929 15.496H491.729ZM496.191 15.496V9.376H497.367V15.496H496.191ZM496.179 8.236V7.084H497.379V8.236H496.179ZM501.031 15.556C500.011 15.556 499.339 15.136 499.339 14.02V10.324H498.475V9.376H499.339V7.936H500.527V9.376H502.003V10.324H500.527V13.852C500.527 14.404 500.707 14.608 501.367 14.608C501.619 14.608 501.883 14.572 502.123 14.536V15.328C501.871 15.436 501.595 15.556 501.031 15.556ZM503.772 17.284C503.484 17.284 503.124 17.2 502.956 17.116V16.288C503.1 16.336 503.328 16.36 503.532 16.36C504.108 16.36 504.54 16.312 504.72 15.844L504.984 15.16L502.644 9.376H503.904L505.572 13.66H505.596L507.132 9.376H508.284L505.824 16.012C505.404 17.164 504.852 17.284 503.772 17.284ZM512.565 15.496V7.276H515.277C517.161 7.276 518.085 8.164 518.085 9.748C518.085 11.44 517.005 12.328 515.385 12.328H513.801V15.496H512.565ZM513.801 11.356H515.145C516.333 11.356 516.777 10.852 516.777 9.844C516.777 8.728 516.345 8.284 515.169 8.284H513.801V11.356ZM519.289 15.496V6.736H520.465V15.496H519.289ZM523.625 15.604C522.521 15.604 521.729 15.052 521.729 13.864C521.729 12.772 522.449 12.232 523.637 12.076L525.173 11.896V11.368C525.173 10.456 524.789 10.252 523.709 10.252C523.109 10.252 522.605 10.348 522.233 10.432V9.604C522.797 9.376 523.421 9.256 524.177 9.256C525.557 9.256 526.361 9.832 526.361 11.068V15.496H525.389L525.281 14.98H525.209C524.921 15.34 524.417 15.604 523.625 15.604ZM523.937 14.74C524.441 14.74 524.933 14.572 525.173 14.344V12.712L523.901 12.844C523.253 12.916 522.929 13.18 522.929 13.816C522.929 14.44 523.325 14.74 523.937 14.74ZM527.901 15.496V9.376H529.041V9.904H529.089C529.605 9.544 530.397 9.256 531.141 9.256C532.329 9.256 532.905 9.748 532.905 10.936V15.496H531.717V11.212C531.717 10.54 531.525 10.264 530.601 10.264C530.085 10.264 529.497 10.444 529.077 10.648V15.496H527.901ZM534.452 15.496V9.376H535.592V9.904H535.64C536.156 9.544 536.948 9.256 537.692 9.256C538.88 9.256 539.456 9.748 539.456 10.936V15.496H538.268V11.212C538.268 10.54 538.076 10.264 537.152 10.264C536.636 10.264 536.048 10.444 535.628 10.648V15.496H534.452ZM541.039 15.496V9.376H542.215V15.496H541.039ZM541.027 8.236V7.084H542.227V8.236H541.027ZM543.851 15.496V9.376H544.991V9.904H545.039C545.555 9.544 546.347 9.256 547.091 9.256C548.279 9.256 548.855 9.748 548.855 10.936V15.496H547.667V11.212C547.667 10.54 547.475 10.264 546.551 10.264C546.035 10.264 545.447 10.444 545.027 10.648V15.496H543.851ZM552.597 17.272C550.713 17.272 549.801 16.864 549.801 15.952C549.801 15.316 550.317 14.908 550.941 14.692V14.632C550.593 14.512 550.317 14.368 550.317 13.96C550.317 13.528 550.545 13.168 551.025 12.832C550.569 12.52 550.257 12.04 550.257 11.356V11.236C550.257 9.964 551.241 9.256 552.633 9.256C552.969 9.256 553.269 9.292 553.557 9.352H555.633V10.204H554.649C554.865 10.444 554.973 10.78 554.973 11.188V11.308C554.973 12.592 553.953 13.204 552.621 13.204C552.273 13.204 551.937 13.168 551.625 13.072C551.493 13.204 551.397 13.36 551.397 13.516C551.397 13.828 551.565 13.852 551.961 13.852H553.641C554.781 13.852 555.597 14.26 555.597 15.448C555.597 16.576 554.721 17.272 552.597 17.272ZM552.573 16.396C553.905 16.396 554.373 16.216 554.373 15.628C554.373 15.124 554.085 14.92 553.365 14.92H551.721C551.313 15.052 551.013 15.328 551.013 15.784C551.013 16.264 551.457 16.396 552.573 16.396ZM552.621 12.388C553.389 12.388 553.821 12.052 553.821 11.356V11.188C553.821 10.42 553.353 10.096 552.621 10.096C551.877 10.096 551.421 10.468 551.421 11.164V11.332C551.421 12.052 551.901 12.388 552.621 12.388ZM561.254 15.604C560.15 15.604 559.358 15.052 559.358 13.864C559.358 12.772 560.078 12.232 561.266 12.076L562.802 11.896V11.368C562.802 10.456 562.418 10.252 561.338 10.252C560.738 10.252 560.234 10.348 559.862 10.432V9.604C560.426 9.376 561.05 9.256 561.806 9.256C563.186 9.256 563.99 9.832 563.99 11.068V15.496H563.018L562.91 14.98H562.838C562.55 15.34 562.046 15.604 561.254 15.604ZM561.566 14.74C562.07 14.74 562.562 14.572 562.802 14.344V12.712L561.53 12.844C560.882 12.916 560.558 13.18 560.558 13.816C560.558 14.44 560.954 14.74 561.566 14.74ZM565.53 15.496V9.376H566.67V9.904H566.718C567.234 9.544 568.026 9.256 568.77 9.256C569.958 9.256 570.534 9.748 570.534 10.936V15.496H569.346V11.212C569.346 10.54 569.154 10.264 568.23 10.264C567.714 10.264 567.126 10.444 566.706 10.648V15.496H565.53ZM574.253 15.604C573.065 15.604 571.757 14.86 571.757 12.628V12.472C571.757 10.228 572.897 9.256 574.469 9.256C575.213 9.256 575.705 9.46 575.993 9.628V6.736H577.181V15.496H576.173L576.065 15.004H576.005C575.645 15.364 575.057 15.604 574.253 15.604ZM574.661 14.668C575.297 14.668 575.741 14.404 575.993 14.212V10.576C575.753 10.372 575.225 10.24 574.649 10.24C573.605 10.24 572.969 10.768 572.969 12.328V12.58C572.969 14.188 573.653 14.668 574.661 14.668ZM582.069 15.496V7.276H587.061V8.308H583.305V10.756H586.221V11.776H583.305V14.464H587.109V15.496H582.069ZM587.864 15.496L589.904 12.376L587.948 9.376H589.352L590.72 11.572L591.992 9.376H593.24L591.392 12.364L593.408 15.496H592.004L590.588 13.192L589.136 15.496H587.864ZM594.394 17.296V9.376H595.534V9.868H595.582C595.954 9.52 596.59 9.256 597.334 9.256C598.666 9.256 599.83 9.988 599.83 12.244V12.412C599.83 14.68 598.75 15.532 597.07 15.532C596.386 15.532 595.894 15.352 595.57 15.172V17.296H594.394ZM596.926 14.608C597.982 14.608 598.594 14.128 598.594 12.568V12.316C598.594 10.72 598.018 10.252 596.986 10.252C596.338 10.252 595.822 10.456 595.57 10.648V14.224C595.822 14.416 596.338 14.608 596.926 14.608ZM601.098 15.496V6.736H602.274V15.496H601.098ZM606.393 15.604C604.581 15.604 603.549 14.476 603.549 12.568V12.364C603.549 10.42 604.701 9.256 606.405 9.256C608.181 9.256 609.225 10.396 609.225 12.328V12.508C609.225 14.452 608.061 15.604 606.393 15.604ZM606.405 14.68C607.401 14.68 607.989 13.972 607.989 12.628V12.304C607.989 10.684 607.269 10.204 606.381 10.204C605.349 10.204 604.761 10.912 604.761 12.256V12.58C604.761 14.2 605.493 14.68 606.405 14.68ZM610.437 15.496V9.376H611.577V10.06H611.625C611.985 9.652 612.609 9.304 613.269 9.304C613.413 9.304 613.593 9.316 613.653 9.352V10.408C613.497 10.384 613.293 10.372 613.173 10.372C612.597 10.372 612.033 10.54 611.613 10.816V15.496H610.437ZM614.703 15.496V9.376H615.879V15.496H614.703ZM614.691 8.236V7.084H615.891V8.236H614.691ZM617.515 15.496V9.376H618.655V9.904H618.703C619.219 9.544 620.011 9.256 620.755 9.256C621.943 9.256 622.519 9.748 622.519 10.936V15.496H621.331V11.212C621.331 10.54 621.139 10.264 620.215 10.264C619.699 10.264 619.111 10.444 618.691 10.648V15.496H617.515ZM626.261 17.272C624.377 17.272 623.465 16.864 623.465 15.952C623.465 15.316 623.981 14.908 624.605 14.692V14.632C624.257 14.512 623.981 14.368 623.981 13.96C623.981 13.528 624.209 13.168 624.689 12.832C624.233 12.52 623.921 12.04 623.921 11.356V11.236C623.921 9.964 624.905 9.256 626.297 9.256C626.633 9.256 626.933 9.292 627.221 9.352H629.297V10.204H628.313C628.529 10.444 628.637 10.78 628.637 11.188V11.308C628.637 12.592 627.617 13.204 626.285 13.204C625.937 13.204 625.601 13.168 625.289 13.072C625.157 13.204 625.061 13.36 625.061 13.516C625.061 13.828 625.229 13.852 625.625 13.852H627.305C628.445 13.852 629.261 14.26 629.261 15.448C629.261 16.576 628.385 17.272 626.261 17.272ZM626.237 16.396C627.569 16.396 628.037 16.216 628.037 15.628C628.037 15.124 627.749 14.92 627.029 14.92H625.385C624.977 15.052 624.677 15.328 624.677 15.784C624.677 16.264 625.121 16.396 626.237 16.396ZM626.285 12.388C627.053 12.388 627.485 12.052 627.485 11.356V11.188C627.485 10.42 627.017 10.096 626.285 10.096C625.541 10.096 625.085 10.468 625.085 11.164V11.332C625.085 12.052 625.565 12.388 626.285 12.388ZM635.422 15.556C634.402 15.556 633.73 15.136 633.73 14.02V10.324H632.866V9.376H633.73V7.936H634.918V9.376H636.394V10.324H634.918V13.852C634.918 14.404 635.098 14.608 635.758 14.608C636.01 14.608 636.274 14.572 636.514 14.536V15.328C636.262 15.436 635.986 15.556 635.422 15.556ZM637.671 15.496V6.736H638.847V9.88H638.907C639.411 9.532 640.167 9.256 640.911 9.256C642.099 9.256 642.675 9.748 642.675 10.936V15.496H641.487V11.212C641.487 10.54 641.295 10.264 640.371 10.264C639.855 10.264 639.267 10.444 638.847 10.648V15.496H637.671ZM646.826 15.604C644.846 15.604 643.862 14.428 643.862 12.508V12.352C643.862 10.252 645.122 9.256 646.598 9.256C648.326 9.256 649.13 10.252 649.13 12.184V12.76H645.074C645.158 14.164 645.842 14.632 647.042 14.632C647.846 14.632 648.374 14.44 648.938 14.188V15.016C648.554 15.292 647.846 15.604 646.826 15.604ZM646.55 10.192C645.902 10.192 645.17 10.528 645.074 11.896H647.894C647.894 10.66 647.438 10.192 646.55 10.192ZM653.684 15.496V7.276H654.932V15.496H653.684ZM656.714 15.496V9.376H657.854V9.904H657.902C658.418 9.556 659.066 9.256 659.774 9.256C660.458 9.256 660.95 9.484 661.226 9.94H661.274C661.922 9.52 662.63 9.256 663.338 9.256C664.394 9.256 665.03 9.748 665.03 10.936V15.496H663.842V11.212C663.842 10.54 663.578 10.264 662.822 10.264C662.39 10.264 661.922 10.42 661.43 10.66C661.442 10.768 661.454 10.852 661.454 10.984V15.496H660.278V11.212C660.278 10.54 660.026 10.264 659.27 10.264C658.802 10.264 658.31 10.432 657.89 10.648V15.496H656.714ZM666.581 17.296V9.376H667.721V9.868H667.769C668.141 9.52 668.777 9.256 669.521 9.256C670.853 9.256 672.017 9.988 672.017 12.244V12.412C672.017 14.68 670.937 15.532 669.257 15.532C668.573 15.532 668.081 15.352 667.757 15.172V17.296H666.581ZM669.113 14.608C670.169 14.608 670.781 14.128 670.781 12.568V12.316C670.781 10.72 670.205 10.252 669.173 10.252C668.525 10.252 668.009 10.456 667.757 10.648V14.224C668.009 14.416 668.525 14.608 669.113 14.608ZM674.773 15.604C673.669 15.604 672.877 15.052 672.877 13.864C672.877 12.772 673.597 12.232 674.785 12.076L676.321 11.896V11.368C676.321 10.456 675.937 10.252 674.857 10.252C674.257 10.252 673.753 10.348 673.381 10.432V9.604C673.945 9.376 674.569 9.256 675.325 9.256C676.705 9.256 677.509 9.832 677.509 11.068V15.496H676.537L676.429 14.98H676.357C676.069 15.34 675.565 15.604 674.773 15.604ZM675.085 14.74C675.589 14.74 676.081 14.572 676.321 14.344V12.712L675.049 12.844C674.401 12.916 674.077 13.18 674.077 13.816C674.077 14.44 674.473 14.74 675.085 14.74ZM681.558 15.604C679.806 15.604 678.69 14.608 678.69 12.58V12.376C678.69 10.24 679.974 9.256 681.63 9.256C682.434 9.256 682.902 9.412 683.31 9.652V10.624C682.77 10.396 682.398 10.252 681.618 10.252C680.574 10.252 679.914 10.936 679.914 12.22V12.532C679.914 14.008 680.538 14.632 681.738 14.632C682.518 14.632 683.058 14.38 683.382 14.224V15.124C682.974 15.388 682.41 15.604 681.558 15.604ZM686.633 15.556C685.613 15.556 684.941 15.136 684.941 14.02V10.324H684.077V9.376H684.941V7.936H686.129V9.376H687.605V10.324H686.129V13.852C686.129 14.404 686.309 14.608 686.969 14.608C687.221 14.608 687.485 14.572 687.725 14.536V15.328C687.473 15.436 687.197 15.556 686.633 15.556ZM694.518 15.604C692.706 15.604 691.674 14.476 691.674 12.568V12.364C691.674 10.42 692.826 9.256 694.53 9.256C696.306 9.256 697.35 10.396 697.35 12.328V12.508C697.35 14.452 696.186 15.604 694.518 15.604ZM694.53 14.68C695.526 14.68 696.114 13.972 696.114 12.628V12.304C696.114 10.684 695.394 10.204 694.506 10.204C693.474 10.204 692.886 10.912 692.886 12.256V12.58C692.886 14.2 693.618 14.68 694.53 14.68ZM698.922 15.496V10.324H698.034V9.376H698.922V8.548C698.922 7.216 699.738 6.64 700.866 6.64C701.394 6.64 701.742 6.736 701.958 6.844V7.648C701.802 7.612 701.514 7.564 701.13 7.564C700.482 7.564 700.11 7.888 700.11 8.656V9.376H701.466V10.324H700.11V15.496H698.922ZM705.866 15.496V7.276H707.102V10.744H710.87V7.276H712.118V15.496H710.87V11.764H707.102V15.496H705.866ZM713.902 15.496V9.376H715.078V15.496H713.902ZM713.89 8.236V7.084H715.09V8.236H713.89ZM718.334 15.592C717.542 15.592 716.834 15.46 716.342 15.16V14.272C716.846 14.464 717.302 14.656 718.166 14.656C719.042 14.656 719.426 14.356 719.426 13.84C719.426 13.372 719.198 13.144 718.454 12.976L717.89 12.82C716.978 12.604 716.354 12.16 716.354 11.08C716.354 9.988 717.05 9.256 718.538 9.256C719.378 9.256 719.894 9.436 720.254 9.616V10.528C719.93 10.396 719.306 10.228 718.634 10.228C717.866 10.228 717.482 10.456 717.482 10.984C717.482 11.452 717.722 11.632 718.334 11.8L718.91 11.944C720.11 12.232 720.59 12.664 720.59 13.756C720.59 14.968 719.726 15.592 718.334 15.592ZM723.828 15.556C722.808 15.556 722.136 15.136 722.136 14.02V10.324H721.272V9.376H722.136V7.936H723.324V9.376H724.8V10.324H723.324V13.852C723.324 14.404 723.504 14.608 724.164 14.608C724.416 14.608 724.68 14.572 724.92 14.536V15.328C724.668 15.436 724.392 15.556 723.828 15.556ZM728.561 15.604C726.749 15.604 725.717 14.476 725.717 12.568V12.364C725.717 10.42 726.869 9.256 728.573 9.256C730.349 9.256 731.393 10.396 731.393 12.328V12.508C731.393 14.452 730.229 15.604 728.561 15.604ZM728.573 14.68C729.569 14.68 730.157 13.972 730.157 12.628V12.304C730.157 10.684 729.437 10.204 728.549 10.204C727.517 10.204 726.929 10.912 726.929 12.256V12.58C726.929 14.2 727.661 14.68 728.573 14.68ZM732.604 15.496V9.376H733.745V10.06H733.793C734.153 9.652 734.777 9.304 735.437 9.304C735.581 9.304 735.761 9.316 735.821 9.352V10.408C735.665 10.384 735.461 10.372 735.34 10.372C734.765 10.372 734.201 10.54 733.781 10.816V15.496H732.604ZM736.871 15.496V9.376H738.047V15.496H736.871ZM736.859 8.236V7.084H738.059V8.236H736.859ZM742.191 15.604C740.439 15.604 739.323 14.608 739.323 12.58V12.376C739.323 10.24 740.607 9.256 742.263 9.256C743.067 9.256 743.535 9.412 743.943 9.652V10.624C743.403 10.396 743.031 10.252 742.251 10.252C741.207 10.252 740.547 10.936 740.547 12.22V12.532C740.547 14.008 741.171 14.632 742.371 14.632C743.151 14.632 743.691 14.38 744.015 14.224V15.124C743.607 15.388 743.043 15.604 742.191 15.604ZM746.644 15.604C745.54 15.604 744.748 15.052 744.748 13.864C744.748 12.772 745.468 12.232 746.656 12.076L748.192 11.896V11.368C748.192 10.456 747.808 10.252 746.728 10.252C746.128 10.252 745.624 10.348 745.252 10.432V9.604C745.816 9.376 746.44 9.256 747.196 9.256C748.576 9.256 749.38 9.832 749.38 11.068V15.496H748.408L748.3 14.98H748.228C747.94 15.34 747.436 15.604 746.644 15.604ZM746.956 14.74C747.46 14.74 747.952 14.572 748.192 14.344V12.712L746.92 12.844C746.272 12.916 745.948 13.18 745.948 13.816C745.948 14.44 746.344 14.74 746.956 14.74ZM750.957 15.496V6.736H752.133V15.496H750.957ZM757.089 15.496V7.276H759.657C761.481 7.276 762.453 8.068 762.453 9.652C762.453 10.816 761.865 11.428 760.917 11.788V11.848L763.017 15.496H761.637L759.717 12.076H758.325V15.496H757.089ZM758.325 11.164H759.537C760.689 11.164 761.157 10.684 761.157 9.688C761.157 8.692 760.665 8.284 759.525 8.284H758.325V11.164ZM766.638 15.604C764.658 15.604 763.674 14.428 763.674 12.508V12.352C763.674 10.252 764.934 9.256 766.41 9.256C768.138 9.256 768.942 10.252 768.942 12.184V12.76H764.886C764.97 14.164 765.654 14.632 766.854 14.632C767.658 14.632 768.186 14.44 768.75 14.188V15.016C768.366 15.292 767.658 15.604 766.638 15.604ZM766.362 10.192C765.714 10.192 764.982 10.528 764.886 11.896H767.706C767.706 10.66 767.25 10.192 766.362 10.192ZM772.648 15.604C770.896 15.604 769.78 14.608 769.78 12.58V12.376C769.78 10.24 771.064 9.256 772.72 9.256C773.524 9.256 773.992 9.412 774.4 9.652V10.624C773.86 10.396 773.488 10.252 772.708 10.252C771.664 10.252 771.004 10.936 771.004 12.22V12.532C771.004 14.008 771.628 14.632 772.828 14.632C773.608 14.632 774.148 14.38 774.472 14.224V15.124C774.064 15.388 773.5 15.604 772.648 15.604ZM778.061 15.604C776.249 15.604 775.217 14.476 775.217 12.568V12.364C775.217 10.42 776.369 9.256 778.073 9.256C779.849 9.256 780.893 10.396 780.893 12.328V12.508C780.893 14.452 779.729 15.604 778.061 15.604ZM778.073 14.68C779.069 14.68 779.657 13.972 779.657 12.628V12.304C779.657 10.684 778.937 10.204 778.049 10.204C777.017 10.204 776.429 10.912 776.429 12.256V12.58C776.429 14.2 777.161 14.68 778.073 14.68ZM782.104 15.496V9.376H783.245V10.06H783.293C783.653 9.652 784.277 9.304 784.937 9.304C785.081 9.304 785.261 9.316 785.321 9.352V10.408C785.165 10.384 784.961 10.372 784.84 10.372C784.265 10.372 783.701 10.54 783.281 10.816V15.496H782.104ZM788.507 15.604C787.319 15.604 786.011 14.86 786.011 12.628V12.472C786.011 10.228 787.151 9.256 788.723 9.256C789.467 9.256 789.959 9.46 790.247 9.628V6.736H791.435V15.496H790.427L790.319 15.004H790.259C789.899 15.364 789.311 15.604 788.507 15.604ZM788.915 14.668C789.551 14.668 789.995 14.404 790.247 14.212V10.576C790.007 10.372 789.479 10.24 788.903 10.24C787.859 10.24 787.223 10.768 787.223 12.328V12.58C787.223 14.188 787.907 14.668 788.915 14.668ZM794.623 15.592C793.831 15.592 793.123 15.46 792.631 15.16V14.272C793.135 14.464 793.591 14.656 794.455 14.656C795.331 14.656 795.715 14.356 795.715 13.84C795.715 13.372 795.487 13.144 794.743 12.976L794.179 12.82C793.267 12.604 792.643 12.16 792.643 11.08C792.643 9.988 793.339 9.256 794.827 9.256C795.667 9.256 796.183 9.436 796.543 9.616V10.528C796.219 10.396 795.595 10.228 794.923 10.228C794.155 10.228 793.771 10.456 793.771 10.984C793.771 11.452 794.011 11.632 794.623 11.8L795.199 11.944C796.399 12.232 796.879 12.664 796.879 13.756C796.879 14.968 796.015 15.592 794.623 15.592ZM803.725 15.604C801.913 15.604 800.881 14.476 800.881 12.568V12.364C800.881 10.42 802.033 9.256 803.737 9.256C805.513 9.256 806.557 10.396 806.557 12.328V12.508C806.557 14.452 805.393 15.604 803.725 15.604ZM803.737 14.68C804.733 14.68 805.321 13.972 805.321 12.628V12.304C805.321 10.684 804.601 10.204 803.713 10.204C802.681 10.204 802.093 10.912 802.093 12.256V12.58C802.093 14.2 802.825 14.68 803.737 14.68ZM807.769 15.496V9.376H808.909V9.904H808.957C809.473 9.544 810.265 9.256 811.009 9.256C812.197 9.256 812.773 9.748 812.773 10.936V15.496H811.585V11.212C811.585 10.54 811.393 10.264 810.469 10.264C809.953 10.264 809.365 10.444 808.945 10.648V15.496H807.769ZM817.64 15.496V7.276H820.352C822.236 7.276 823.16 8.164 823.16 9.748C823.16 11.44 822.08 12.328 820.46 12.328H818.876V15.496H817.64ZM818.876 11.356H820.22C821.408 11.356 821.852 10.852 821.852 9.844C821.852 8.728 821.42 8.284 820.244 8.284H818.876V11.356ZM824.363 15.496V6.736H825.539V15.496H824.363ZM828.699 15.604C827.595 15.604 826.803 15.052 826.803 13.864C826.803 12.772 827.523 12.232 828.711 12.076L830.247 11.896V11.368C830.247 10.456 829.863 10.252 828.783 10.252C828.183 10.252 827.679 10.348 827.307 10.432V9.604C827.871 9.376 828.495 9.256 829.251 9.256C830.631 9.256 831.435 9.832 831.435 11.068V15.496H830.463L830.355 14.98H830.283C829.995 15.34 829.491 15.604 828.699 15.604ZM829.011 14.74C829.515 14.74 830.007 14.572 830.247 14.344V12.712L828.975 12.844C828.327 12.916 828.003 13.18 828.003 13.816C828.003 14.44 828.399 14.74 829.011 14.74ZM832.976 15.496V9.376H834.116V9.904H834.164C834.68 9.544 835.472 9.256 836.216 9.256C837.404 9.256 837.98 9.748 837.98 10.936V15.496H836.792V11.212C836.792 10.54 836.6 10.264 835.676 10.264C835.16 10.264 834.572 10.444 834.152 10.648V15.496H832.976ZM846.039 15.628C843.807 15.628 842.391 14.284 842.391 11.5V11.212C842.391 8.248 844.107 7.132 846.195 7.132C847.083 7.132 847.743 7.312 848.247 7.576V8.584C847.587 8.344 846.999 8.164 846.207 8.164C844.755 8.164 843.723 9.004 843.723 11.044V11.488C843.723 13.444 844.431 14.596 846.243 14.596C847.215 14.596 847.827 14.344 848.343 14.104V15.112C847.767 15.436 847.011 15.628 846.039 15.628ZM849.546 15.496V9.376H850.686V10.06H850.734C851.094 9.652 851.718 9.304 852.378 9.304C852.522 9.304 852.702 9.316 852.762 9.352V10.408C852.606 10.384 852.402 10.372 852.282 10.372C851.706 10.372 851.142 10.54 850.722 10.816V15.496H849.546ZM856.38 15.604C854.4 15.604 853.416 14.428 853.416 12.508V12.352C853.416 10.252 854.676 9.256 856.152 9.256C857.88 9.256 858.684 10.252 858.684 12.184V12.76H854.628C854.712 14.164 855.396 14.632 856.596 14.632C857.4 14.632 857.928 14.44 858.492 14.188V15.016C858.108 15.292 857.4 15.604 856.38 15.604ZM856.104 10.192C855.456 10.192 854.724 10.528 854.628 11.896H857.448C857.448 10.66 856.992 10.192 856.104 10.192ZM861.406 15.604C860.302 15.604 859.51 15.052 859.51 13.864C859.51 12.772 860.23 12.232 861.418 12.076L862.954 11.896V11.368C862.954 10.456 862.57 10.252 861.49 10.252C860.89 10.252 860.386 10.348 860.014 10.432V9.604C860.578 9.376 861.202 9.256 861.958 9.256C863.338 9.256 864.142 9.832 864.142 11.068V15.496H863.17L863.062 14.98H862.99C862.702 15.34 862.198 15.604 861.406 15.604ZM861.718 14.74C862.222 14.74 862.714 14.572 862.954 14.344V12.712L861.682 12.844C861.034 12.916 860.71 13.18 860.71 13.816C860.71 14.44 861.106 14.74 861.718 14.74ZM867.711 15.556C866.691 15.556 866.019 15.136 866.019 14.02V10.324H865.155V9.376H866.019V7.936H867.207V9.376H868.683V10.324H867.207V13.852C867.207 14.404 867.387 14.608 868.047 14.608C868.299 14.608 868.563 14.572 868.803 14.536V15.328C868.551 15.436 868.275 15.556 867.711 15.556ZM869.996 15.496V9.376H871.172V15.496H869.996ZM869.984 8.236V7.084H871.184V8.236H869.984ZM875.292 15.604C873.48 15.604 872.448 14.476 872.448 12.568V12.364C872.448 10.42 873.6 9.256 875.304 9.256C877.08 9.256 878.124 10.396 878.124 12.328V12.508C878.124 14.452 876.96 15.604 875.292 15.604ZM875.304 14.68C876.3 14.68 876.888 13.972 876.888 12.628V12.304C876.888 10.684 876.168 10.204 875.28 10.204C874.248 10.204 873.66 10.912 873.66 12.256V12.58C873.66 14.2 874.392 14.68 875.304 14.68ZM879.335 15.496V9.376H880.475V9.904H880.523C881.039 9.544 881.831 9.256 882.575 9.256C883.763 9.256 884.339 9.748 884.339 10.936V15.496H883.151V11.212C883.151 10.54 882.959 10.264 882.035 10.264C881.519 10.264 880.931 10.444 880.511 10.648V15.496H879.335ZM890.562 15.604C889.458 15.604 888.666 15.052 888.666 13.864C888.666 12.772 889.386 12.232 890.574 12.076L892.11 11.896V11.368C892.11 10.456 891.726 10.252 890.646 10.252C890.046 10.252 889.542 10.348 889.17 10.432V9.604C889.734 9.376 890.358 9.256 891.114 9.256C892.494 9.256 893.298 9.832 893.298 11.068V15.496H892.326L892.218 14.98H892.146C891.858 15.34 891.354 15.604 890.562 15.604ZM890.874 14.74C891.378 14.74 891.87 14.572 892.11 14.344V12.712L890.838 12.844C890.19 12.916 889.866 13.18 889.866 13.816C889.866 14.44 890.262 14.74 890.874 14.74ZM894.839 15.496V9.376H895.979V9.904H896.027C896.543 9.544 897.335 9.256 898.079 9.256C899.267 9.256 899.843 9.748 899.843 10.936V15.496H898.655V11.212C898.655 10.54 898.463 10.264 897.539 10.264C897.023 10.264 896.435 10.444 896.015 10.648V15.496H894.839ZM903.562 15.604C902.374 15.604 901.066 14.86 901.066 12.628V12.472C901.066 10.228 902.206 9.256 903.778 9.256C904.522 9.256 905.014 9.46 905.302 9.628V6.736H906.49V15.496H905.482L905.374 15.004H905.314C904.954 15.364 904.366 15.604 903.562 15.604ZM903.97 14.668C904.606 14.668 905.05 14.404 905.302 14.212V10.576C905.062 10.372 904.534 10.24 903.958 10.24C902.914 10.24 902.278 10.768 902.278 12.328V12.58C902.278 14.188 902.962 14.668 903.97 14.668ZM9.96 34.496V26.276H14.952V27.308H11.196V29.756H14.112V30.776H11.196V33.464H15V34.496H9.96ZM15.7545 34.496L17.7945 31.376L15.8385 28.376H17.2425L18.6105 30.572L19.8825 28.376H21.1305L19.2825 31.364L21.2985 34.496H19.8945L18.4785 32.192L17.0265 34.496H15.7545ZM24.8882 34.604C22.9082 34.604 21.9242 33.428 21.9242 31.508V31.352C21.9242 29.252 23.1842 28.256 24.6602 28.256C26.3882 28.256 27.1922 29.252 27.1922 31.184V31.76H23.1362C23.2202 33.164 23.9042 33.632 25.1042 33.632C25.9082 33.632 26.4362 33.44 27.0002 33.188V34.016C26.6162 34.292 25.9082 34.604 24.8882 34.604ZM24.6122 29.192C23.9642 29.192 23.2322 29.528 23.1362 30.896H25.9562C25.9562 29.66 25.5002 29.192 24.6122 29.192ZM30.8977 34.604C29.1457 34.604 28.0297 33.608 28.0297 31.58V31.376C28.0297 29.24 29.3137 28.256 30.9697 28.256C31.7737 28.256 32.2417 28.412 32.6497 28.652V29.624C32.1097 29.396 31.7377 29.252 30.9577 29.252C29.9137 29.252 29.2537 29.936 29.2537 31.22V31.532C29.2537 33.008 29.8777 33.632 31.0777 33.632C31.8577 33.632 32.3977 33.38 32.7217 33.224V34.124C32.3137 34.388 31.7497 34.604 30.8977 34.604ZM35.6512 34.604C34.4512 34.604 33.7912 34.004 33.7912 32.816V28.376H34.9792V32.612C34.9792 33.332 35.2192 33.608 36.0472 33.608C36.6472 33.608 37.1272 33.404 37.5472 33.212V28.376H38.7232V34.496H37.7152L37.5952 33.968H37.5352C37.0312 34.328 36.4192 34.604 35.6512 34.604ZM42.3356 34.556C41.3156 34.556 40.6436 34.136 40.6436 33.02V29.324H39.7796V28.376H40.6436V26.936H41.8316V28.376H43.3076V29.324H41.8316V32.852C41.8316 33.404 42.0116 33.608 42.6716 33.608C42.9236 33.608 43.1876 33.572 43.4276 33.536V34.328C43.1756 34.436 42.8996 34.556 42.3356 34.556ZM44.621 34.496V28.376H45.797V34.496H44.621ZM44.609 27.236V26.084H45.809V27.236H44.609ZM49.9166 34.604C48.1046 34.604 47.0726 33.476 47.0726 31.568V31.364C47.0726 29.42 48.2246 28.256 49.9286 28.256C51.7046 28.256 52.7486 29.396 52.7486 31.328V31.508C52.7486 33.452 51.5846 34.604 49.9166 34.604ZM49.9286 33.68C50.9246 33.68 51.5126 32.972 51.5126 31.628V31.304C51.5126 29.684 50.7926 29.204 49.9046 29.204C48.8726 29.204 48.2846 29.912 48.2846 31.256V31.58C48.2846 33.2 49.0166 33.68 49.9286 33.68ZM53.96 34.496V28.376H55.1V28.904H55.148C55.664 28.544 56.456 28.256 57.2 28.256C58.388 28.256 58.964 28.748 58.964 29.936V34.496H57.776V30.212C57.776 29.54 57.584 29.264 56.66 29.264C56.144 29.264 55.556 29.444 55.136 29.648V34.496H53.96ZM60.5588 34.628V33.332H61.8788V34.628H60.5588ZM70.0231 34.628C67.7911 34.628 66.3751 33.284 66.3751 30.5V30.212C66.3751 27.248 68.0911 26.132 70.1791 26.132C71.0671 26.132 71.7271 26.312 72.2311 26.576V27.584C71.5711 27.344 70.9831 27.164 70.1911 27.164C68.7391 27.164 67.7071 28.004 67.7071 30.044V30.488C67.7071 32.444 68.4151 33.596 70.2271 33.596C71.1991 33.596 71.8111 33.344 72.3271 33.104V34.112C71.7511 34.436 70.9951 34.628 70.0231 34.628ZM73.6983 34.496V26.276H74.9343V29.744H78.7023V26.276H79.9503V34.496H78.7023V30.764H74.9343V34.496H73.6983ZM81.9023 34.496V26.276H83.1503V34.496H81.9023ZM91.445 34.628C89.213 34.628 87.797 33.284 87.797 30.5V30.212C87.797 27.248 89.513 26.132 91.601 26.132C92.489 26.132 93.149 26.312 93.653 26.576V27.584C92.993 27.344 92.405 27.164 91.613 27.164C90.161 27.164 89.129 28.004 89.129 30.044V30.488C89.129 32.444 89.837 33.596 91.649 33.596C92.621 33.596 93.233 33.344 93.749 33.104V34.112C93.173 34.436 92.417 34.628 91.445 34.628ZM97.4362 34.604C95.6242 34.604 94.5922 33.476 94.5922 31.568V31.364C94.5922 29.42 95.7442 28.256 97.4482 28.256C99.2242 28.256 100.268 29.396 100.268 31.328V31.508C100.268 33.452 99.1042 34.604 97.4362 34.604ZM97.4482 33.68C98.4442 33.68 99.0322 32.972 99.0322 31.628V31.304C99.0322 29.684 98.3122 29.204 97.4242 29.204C96.3922 29.204 95.8042 29.912 95.8042 31.256V31.58C95.8042 33.2 96.5362 33.68 97.4482 33.68ZM101.479 34.496V28.376H102.62V28.904H102.668C103.184 28.544 103.976 28.256 104.72 28.256C105.908 28.256 106.484 28.748 106.484 29.936V34.496H105.296V30.212C105.296 29.54 105.104 29.264 104.18 29.264C103.664 29.264 103.076 29.444 102.656 29.648V34.496H101.479ZM108.39 34.496V29.324H107.502V28.376H108.39V27.548C108.39 26.216 109.206 25.64 110.334 25.64C110.862 25.64 111.21 25.736 111.426 25.844V26.648C111.27 26.612 110.982 26.564 110.598 26.564C109.95 26.564 109.578 26.888 109.578 27.656V28.376H110.934V29.324H109.578V34.496H108.39ZM114.619 34.604C112.639 34.604 111.655 33.428 111.655 31.508V31.352C111.655 29.252 112.915 28.256 114.391 28.256C116.119 28.256 116.923 29.252 116.923 31.184V31.76H112.867C112.951 33.164 113.635 33.632 114.835 33.632C115.639 33.632 116.167 33.44 116.731 33.188V34.016C116.347 34.292 115.639 34.604 114.619 34.604ZM114.343 29.192C113.695 29.192 112.963 29.528 112.867 30.896H115.687C115.687 29.66 115.231 29.192 114.343 29.192ZM118.12 34.496V28.376H119.26V29.06H119.308C119.668 28.652 120.292 28.304 120.952 28.304C121.096 28.304 121.276 28.316 121.336 28.352V29.408C121.18 29.384 120.976 29.372 120.856 29.372C120.28 29.372 119.716 29.54 119.296 29.816V34.496H118.12ZM124.955 34.604C122.975 34.604 121.991 33.428 121.991 31.508V31.352C121.991 29.252 123.251 28.256 124.727 28.256C126.455 28.256 127.259 29.252 127.259 31.184V31.76H123.203C123.287 33.164 123.971 33.632 125.171 33.632C125.975 33.632 126.503 33.44 127.067 33.188V34.016C126.683 34.292 125.975 34.604 124.955 34.604ZM124.679 29.192C124.031 29.192 123.299 29.528 123.203 30.896H126.023C126.023 29.66 125.567 29.192 124.679 29.192ZM128.456 34.496V28.376H129.596V28.904H129.644C130.16 28.544 130.952 28.256 131.696 28.256C132.884 28.256 133.46 28.748 133.46 29.936V34.496H132.272V30.212C132.272 29.54 132.08 29.264 131.156 29.264C130.64 29.264 130.052 29.444 129.632 29.648V34.496H128.456ZM137.515 34.604C135.763 34.604 134.647 33.608 134.647 31.58V31.376C134.647 29.24 135.931 28.256 137.587 28.256C138.391 28.256 138.859 28.412 139.267 28.652V29.624C138.727 29.396 138.355 29.252 137.575 29.252C136.531 29.252 135.871 29.936 135.871 31.22V31.532C135.871 33.008 136.495 33.632 137.695 33.632C138.475 33.632 139.015 33.38 139.339 33.224V34.124C138.931 34.388 138.367 34.604 137.515 34.604ZM143.048 34.604C141.068 34.604 140.084 33.428 140.084 31.508V31.352C140.084 29.252 141.344 28.256 142.82 28.256C144.548 28.256 145.352 29.252 145.352 31.184V31.76H141.296C141.38 33.164 142.064 33.632 143.264 33.632C144.068 33.632 144.596 33.44 145.16 33.188V34.016C144.776 34.292 144.068 34.604 143.048 34.604ZM142.772 29.192C142.124 29.192 141.392 29.528 141.296 30.896H144.116C144.116 29.66 143.66 29.192 142.772 29.192ZM152.186 34.604C150.374 34.604 149.342 33.476 149.342 31.568V31.364C149.342 29.42 150.494 28.256 152.198 28.256C153.974 28.256 155.018 29.396 155.018 31.328V31.508C155.018 33.452 153.854 34.604 152.186 34.604ZM152.198 33.68C153.194 33.68 153.782 32.972 153.782 31.628V31.304C153.782 29.684 153.062 29.204 152.174 29.204C151.142 29.204 150.554 29.912 150.554 31.256V31.58C150.554 33.2 151.286 33.68 152.198 33.68ZM156.229 34.496V28.376H157.37V28.904H157.418C157.934 28.544 158.726 28.256 159.47 28.256C160.658 28.256 161.234 28.748 161.234 29.936V34.496H160.046V30.212C160.046 29.54 159.854 29.264 158.93 29.264C158.414 29.264 157.826 29.444 157.406 29.648V34.496H156.229ZM166.101 34.496V26.276H167.337V29.744H171.105V26.276H172.353V34.496H171.105V30.764H167.337V34.496H166.101ZM175.925 34.604C174.725 34.604 174.065 34.004 174.065 32.816V28.376H175.253V32.612C175.253 33.332 175.493 33.608 176.321 33.608C176.921 33.608 177.401 33.404 177.821 33.212V28.376H178.997V34.496H177.989L177.869 33.968H177.809C177.305 34.328 176.693 34.604 175.925 34.604ZM180.581 34.496V28.376H181.721V28.904H181.769C182.285 28.556 182.933 28.256 183.641 28.256C184.325 28.256 184.817 28.484 185.093 28.94H185.141C185.789 28.52 186.497 28.256 187.205 28.256C188.261 28.256 188.897 28.748 188.897 29.936V34.496H187.709V30.212C187.709 29.54 187.445 29.264 186.689 29.264C186.257 29.264 185.789 29.42 185.297 29.66C185.309 29.768 185.321 29.852 185.321 29.984V34.496H184.145V30.212C184.145 29.54 183.893 29.264 183.137 29.264C182.669 29.264 182.177 29.432 181.757 29.648V34.496H180.581ZM191.972 34.604C190.868 34.604 190.076 34.052 190.076 32.864C190.076 31.772 190.796 31.232 191.984 31.076L193.52 30.896V30.368C193.52 29.456 193.136 29.252 192.056 29.252C191.456 29.252 190.952 29.348 190.58 29.432V28.604C191.144 28.376 191.768 28.256 192.524 28.256C193.904 28.256 194.708 28.832 194.708 30.068V34.496H193.736L193.628 33.98H193.556C193.268 34.34 192.764 34.604 191.972 34.604ZM192.284 33.74C192.788 33.74 193.28 33.572 193.52 33.344V31.712L192.248 31.844C191.6 31.916 191.276 32.18 191.276 32.816C191.276 33.44 191.672 33.74 192.284 33.74ZM196.249 34.496V28.376H197.389V28.904H197.437C197.953 28.544 198.745 28.256 199.489 28.256C200.677 28.256 201.253 28.748 201.253 29.936V34.496H200.065V30.212C200.065 29.54 199.873 29.264 198.949 29.264C198.433 29.264 197.845 29.444 197.425 29.648V34.496H196.249ZM206.12 34.496V26.276H211.016V27.308H207.356V29.924H210.188V30.944H207.356V34.496H206.12ZM213.218 34.604C212.114 34.604 211.322 34.052 211.322 32.864C211.322 31.772 212.042 31.232 213.23 31.076L214.766 30.896V30.368C214.766 29.456 214.382 29.252 213.302 29.252C212.702 29.252 212.198 29.348 211.826 29.432V28.604C212.39 28.376 213.014 28.256 213.77 28.256C215.15 28.256 215.954 28.832 215.954 30.068V34.496H214.982L214.874 33.98H214.802C214.514 34.34 214.01 34.604 213.218 34.604ZM213.53 33.74C214.034 33.74 214.526 33.572 214.766 33.344V31.712L213.494 31.844C212.846 31.916 212.522 32.18 212.522 32.816C212.522 33.44 212.918 33.74 213.53 33.74ZM220.003 34.604C218.251 34.604 217.135 33.608 217.135 31.58V31.376C217.135 29.24 218.419 28.256 220.075 28.256C220.879 28.256 221.347 28.412 221.755 28.652V29.624C221.215 29.396 220.843 29.252 220.063 29.252C219.019 29.252 218.359 29.936 218.359 31.22V31.532C218.359 33.008 218.983 33.632 220.183 33.632C220.963 33.632 221.503 33.38 221.827 33.224V34.124C221.419 34.388 220.855 34.604 220.003 34.604ZM225.078 34.556C224.058 34.556 223.386 34.136 223.386 33.02V29.324H222.522V28.376H223.386V26.936H224.574V28.376H226.05V29.324H224.574V32.852C224.574 33.404 224.754 33.608 225.414 33.608C225.666 33.608 225.93 33.572 226.17 33.536V34.328C225.918 34.436 225.642 34.556 225.078 34.556ZM229.811 34.604C227.999 34.604 226.967 33.476 226.967 31.568V31.364C226.967 29.42 228.119 28.256 229.823 28.256C231.599 28.256 232.643 29.396 232.643 31.328V31.508C232.643 33.452 231.479 34.604 229.811 34.604ZM229.823 33.68C230.819 33.68 231.407 32.972 231.407 31.628V31.304C231.407 29.684 230.687 29.204 229.799 29.204C228.767 29.204 228.179 29.912 228.179 31.256V31.58C228.179 33.2 228.911 33.68 229.823 33.68ZM233.854 34.496V28.376H234.995V29.06H235.043C235.403 28.652 236.027 28.304 236.687 28.304C236.831 28.304 237.011 28.316 237.071 28.352V29.408C236.915 29.384 236.711 29.372 236.59 29.372C236.015 29.372 235.451 29.54 235.031 29.816V34.496H233.854ZM239.705 34.592C238.913 34.592 238.205 34.46 237.713 34.16V33.272C238.217 33.464 238.673 33.656 239.537 33.656C240.413 33.656 240.797 33.356 240.797 32.84C240.797 32.372 240.569 32.144 239.825 31.976L239.261 31.82C238.349 31.604 237.725 31.16 237.725 30.08C237.725 28.988 238.421 28.256 239.909 28.256C240.749 28.256 241.265 28.436 241.625 28.616V29.528C241.301 29.396 240.677 29.228 240.005 29.228C239.237 29.228 238.853 29.456 238.853 29.984C238.853 30.452 239.093 30.632 239.705 30.8L240.281 30.944C241.481 31.232 241.961 31.664 241.961 32.756C241.961 33.968 241.097 34.592 239.705 34.592ZM246.359 34.496V28.376H247.535V34.496H246.359ZM246.347 27.236V26.084H247.547V27.236H246.347ZM249.171 34.496V28.376H250.311V28.904H250.359C250.875 28.544 251.667 28.256 252.411 28.256C253.599 28.256 254.175 28.748 254.175 29.936V34.496H252.987V30.212C252.987 29.54 252.795 29.264 251.871 29.264C251.355 29.264 250.767 29.444 250.347 29.648V34.496H249.171ZM262.234 34.628C260.002 34.628 258.586 33.284 258.586 30.5V30.212C258.586 27.248 260.302 26.132 262.39 26.132C263.278 26.132 263.938 26.312 264.442 26.576V27.584C263.782 27.344 263.194 27.164 262.402 27.164C260.95 27.164 259.918 28.004 259.918 30.044V30.488C259.918 32.444 260.626 33.596 262.438 33.596C263.41 33.596 264.022 33.344 264.538 33.104V34.112C263.962 34.436 263.206 34.628 262.234 34.628ZM268.225 34.604C266.413 34.604 265.381 33.476 265.381 31.568V31.364C265.381 29.42 266.533 28.256 268.237 28.256C270.013 28.256 271.057 29.396 271.057 31.328V31.508C271.057 33.452 269.893 34.604 268.225 34.604ZM268.237 33.68C269.233 33.68 269.821 32.972 269.821 31.628V31.304C269.821 29.684 269.101 29.204 268.213 29.204C267.181 29.204 266.593 29.912 266.593 31.256V31.58C266.593 33.2 267.325 33.68 268.237 33.68ZM272.269 34.496V28.376H273.409V28.904H273.457C273.973 28.556 274.621 28.256 275.329 28.256C276.013 28.256 276.505 28.484 276.781 28.94H276.829C277.477 28.52 278.185 28.256 278.893 28.256C279.949 28.256 280.585 28.748 280.585 29.936V34.496H279.397V30.212C279.397 29.54 279.133 29.264 278.377 29.264C277.945 29.264 277.477 29.42 276.985 29.66C276.997 29.768 277.009 29.852 277.009 29.984V34.496H275.833V30.212C275.833 29.54 275.581 29.264 274.825 29.264C274.357 29.264 273.865 29.432 273.445 29.648V34.496H272.269ZM282.136 36.296V28.376H283.276V28.868H283.324C283.696 28.52 284.332 28.256 285.076 28.256C286.408 28.256 287.572 28.988 287.572 31.244V31.412C287.572 33.68 286.492 34.532 284.812 34.532C284.128 34.532 283.636 34.352 283.312 34.172V36.296H282.136ZM284.668 33.608C285.724 33.608 286.336 33.128 286.336 31.568V31.316C286.336 29.72 285.76 29.252 284.728 29.252C284.08 29.252 283.564 29.456 283.312 29.648V33.224C283.564 33.416 284.08 33.608 284.668 33.608ZM290.628 34.604C289.428 34.604 288.768 34.004 288.768 32.816V28.376H289.956V32.612C289.956 33.332 290.196 33.608 291.024 33.608C291.624 33.608 292.104 33.404 292.524 33.212V28.376H293.7V34.496H292.692L292.572 33.968H292.512C292.008 34.328 291.396 34.604 290.628 34.604ZM297.312 34.556C296.292 34.556 295.62 34.136 295.62 33.02V29.324H294.756V28.376H295.62V26.936H296.808V28.376H298.284V29.324H296.808V32.852C296.808 33.404 296.988 33.608 297.648 33.608C297.9 33.608 298.164 33.572 298.404 33.536V34.328C298.152 34.436 297.876 34.556 297.312 34.556ZM299.598 34.496V28.376H300.774V34.496H299.598ZM299.586 27.236V26.084H300.786V27.236H299.586ZM302.409 34.496V28.376H303.549V28.904H303.597C304.113 28.544 304.905 28.256 305.649 28.256C306.837 28.256 307.413 28.748 307.413 29.936V34.496H306.225V30.212C306.225 29.54 306.033 29.264 305.109 29.264C304.593 29.264 304.005 29.444 303.585 29.648V34.496H302.409ZM311.156 36.272C309.272 36.272 308.36 35.864 308.36 34.952C308.36 34.316 308.876 33.908 309.5 33.692V33.632C309.152 33.512 308.876 33.368 308.876 32.96C308.876 32.528 309.104 32.168 309.584 31.832C309.128 31.52 308.816 31.04 308.816 30.356V30.236C308.816 28.964 309.8 28.256 311.192 28.256C311.528 28.256 311.828 28.292 312.116 28.352H314.192V29.204H313.208C313.424 29.444 313.532 29.78 313.532 30.188V30.308C313.532 31.592 312.512 32.204 311.18 32.204C310.832 32.204 310.496 32.168 310.184 32.072C310.052 32.204 309.956 32.36 309.956 32.516C309.956 32.828 310.124 32.852 310.52 32.852H312.2C313.34 32.852 314.156 33.26 314.156 34.448C314.156 35.576 313.28 36.272 311.156 36.272ZM311.132 35.396C312.464 35.396 312.932 35.216 312.932 34.628C312.932 34.124 312.644 33.92 311.924 33.92H310.28C309.872 34.052 309.572 34.328 309.572 34.784C309.572 35.264 310.016 35.396 311.132 35.396ZM311.18 31.388C311.948 31.388 312.38 31.052 312.38 30.356V30.188C312.38 29.42 311.912 29.096 311.18 29.096C310.436 29.096 309.98 29.468 309.98 30.164V30.332C309.98 31.052 310.46 31.388 311.18 31.388ZM320.304 34.64C319.26 34.64 318.468 34.412 317.904 34.1V33.092C318.54 33.392 319.344 33.608 320.22 33.608C321.384 33.608 321.876 33.092 321.876 32.276C321.876 31.556 321.552 31.244 320.616 30.944L319.812 30.68C318.684 30.332 317.988 29.732 317.988 28.4C317.988 27.068 318.876 26.132 320.64 26.132C321.684 26.132 322.26 26.36 322.716 26.588V27.596C322.212 27.38 321.54 27.164 320.64 27.164C319.728 27.164 319.212 27.56 319.212 28.292C319.212 29 319.464 29.312 320.316 29.576L321.132 29.828C322.368 30.224 323.148 30.764 323.148 32.18C323.148 33.68 322.26 34.64 320.304 34.64ZM324.897 36.284C324.609 36.284 324.249 36.2 324.081 36.116V35.288C324.225 35.336 324.453 35.36 324.657 35.36C325.233 35.36 325.665 35.312 325.845 34.844L326.109 34.16L323.769 28.376H325.029L326.697 32.66H326.721L328.257 28.376H329.409L326.949 35.012C326.529 36.164 325.977 36.284 324.897 36.284ZM331.99 34.592C331.198 34.592 330.49 34.46 329.998 34.16V33.272C330.502 33.464 330.958 33.656 331.822 33.656C332.698 33.656 333.082 33.356 333.082 32.84C333.082 32.372 332.854 32.144 332.11 31.976L331.546 31.82C330.634 31.604 330.01 31.16 330.01 30.08C330.01 28.988 330.706 28.256 332.194 28.256C333.034 28.256 333.55 28.436 333.91 28.616V29.528C333.586 29.396 332.962 29.228 332.29 29.228C331.522 29.228 331.138 29.456 331.138 29.984C331.138 30.452 331.378 30.632 331.99 30.8L332.566 30.944C333.766 31.232 334.246 31.664 334.246 32.756C334.246 33.968 333.382 34.592 331.99 34.592ZM337.484 34.556C336.464 34.556 335.792 34.136 335.792 33.02V29.324H334.928V28.376H335.792V26.936H336.98V28.376H338.456V29.324H336.98V32.852C336.98 33.404 337.16 33.608 337.82 33.608C338.072 33.608 338.336 33.572 338.576 33.536V34.328C338.324 34.436 338.048 34.556 337.484 34.556ZM342.337 34.604C340.357 34.604 339.373 33.428 339.373 31.508V31.352C339.373 29.252 340.633 28.256 342.109 28.256C343.837 28.256 344.641 29.252 344.641 31.184V31.76H340.585C340.669 33.164 341.353 33.632 342.553 33.632C343.357 33.632 343.885 33.44 344.449 33.188V34.016C344.065 34.292 343.357 34.604 342.337 34.604ZM342.061 29.192C341.413 29.192 340.681 29.528 340.585 30.896H343.405C343.405 29.66 342.949 29.192 342.061 29.192ZM345.839 34.496V28.376H346.979V28.904H347.027C347.543 28.556 348.191 28.256 348.899 28.256C349.583 28.256 350.075 28.484 350.351 28.94H350.399C351.047 28.52 351.755 28.256 352.463 28.256C353.519 28.256 354.155 28.748 354.155 29.936V34.496H352.967V30.212C352.967 29.54 352.703 29.264 351.947 29.264C351.515 29.264 351.047 29.42 350.555 29.66C350.567 29.768 350.579 29.852 350.579 29.984V34.496H349.403V30.212C349.403 29.54 349.151 29.264 348.395 29.264C347.927 29.264 347.435 29.432 347.015 29.648V34.496H345.839ZM357.326 34.592C356.534 34.592 355.826 34.46 355.334 34.16V33.272C355.838 33.464 356.294 33.656 357.158 33.656C358.034 33.656 358.418 33.356 358.418 32.84C358.418 32.372 358.19 32.144 357.446 31.976L356.882 31.82C355.97 31.604 355.346 31.16 355.346 30.08C355.346 28.988 356.042 28.256 357.53 28.256C358.37 28.256 358.886 28.436 359.246 28.616V29.528C358.922 29.396 358.298 29.228 357.626 29.228C356.858 29.228 356.474 29.456 356.474 29.984C356.474 30.452 356.714 30.632 357.326 30.8L357.902 30.944C359.102 31.232 359.582 31.664 359.582 32.756C359.582 33.968 358.718 34.592 357.326 34.592ZM365.96 35.744C364.808 34.64 363.788 32.924 363.788 30.752V30.548C363.788 28.376 364.808 26.684 365.96 25.568H367.004C365.9 26.78 365 28.52 365 30.44V30.764C365 32.636 365.9 34.52 367.004 35.744H365.96ZM368.085 34.496V26.276H369.513L373.137 32.432H373.173V26.276H374.289V34.496H373.041L369.249 27.98H369.201V34.496H368.085ZM378.642 34.604C376.662 34.604 375.678 33.428 375.678 31.508V31.352C375.678 29.252 376.938 28.256 378.414 28.256C380.142 28.256 380.946 29.252 380.946 31.184V31.76H376.89C376.974 33.164 377.658 33.632 378.858 33.632C379.662 33.632 380.19 33.44 380.754 33.188V34.016C380.37 34.292 379.662 34.604 378.642 34.604ZM378.366 29.192C377.718 29.192 376.986 29.528 376.89 30.896H379.71C379.71 29.66 379.254 29.192 378.366 29.192ZM383.32 34.496L381.604 28.376H382.852L384.016 32.972H384.076L385.396 28.376H386.404L387.748 32.972H387.796L388.948 28.376H390.052L388.336 34.496H387.172L385.864 30.14H385.816L384.508 34.496H383.32ZM397.597 34.628C395.365 34.628 393.949 33.2 393.949 30.5V30.26C393.949 27.668 395.389 26.132 397.645 26.132C399.877 26.132 401.281 27.56 401.281 30.272V30.512C401.281 33.104 399.853 34.628 397.597 34.628ZM397.633 33.644C399.205 33.644 399.949 32.396 399.949 30.68V30.284C399.949 28.388 399.337 27.14 397.585 27.128C396.013 27.128 395.281 28.376 395.281 30.068V30.488C395.281 32.372 395.917 33.644 397.633 33.644ZM402.593 34.496V28.376H403.733V29.06H403.781C404.141 28.652 404.765 28.304 405.425 28.304C405.569 28.304 405.749 28.316 405.809 28.352V29.408C405.653 29.384 405.449 29.372 405.329 29.372C404.753 29.372 404.189 29.54 403.769 29.816V34.496H402.593ZM406.859 34.496V25.736H408.035V34.496H406.859ZM412.275 34.604C410.295 34.604 409.311 33.428 409.311 31.508V31.352C409.311 29.252 410.571 28.256 412.047 28.256C413.775 28.256 414.579 29.252 414.579 31.184V31.76H410.523C410.607 33.164 411.291 33.632 412.491 33.632C413.295 33.632 413.823 33.44 414.387 33.188V34.016C414.003 34.292 413.295 34.604 412.275 34.604ZM411.999 29.192C411.351 29.192 410.619 29.528 410.523 30.896H413.343C413.343 29.66 412.887 29.192 411.999 29.192ZM417.3 34.604C416.196 34.604 415.404 34.052 415.404 32.864C415.404 31.772 416.124 31.232 417.312 31.076L418.848 30.896V30.368C418.848 29.456 418.464 29.252 417.384 29.252C416.784 29.252 416.28 29.348 415.908 29.432V28.604C416.472 28.376 417.096 28.256 417.852 28.256C419.232 28.256 420.036 28.832 420.036 30.068V34.496H419.064L418.956 33.98H418.884C418.596 34.34 418.092 34.604 417.3 34.604ZM417.612 33.74C418.116 33.74 418.608 33.572 418.848 33.344V31.712L417.576 31.844C416.928 31.916 416.604 32.18 416.604 32.816C416.604 33.44 417 33.74 417.612 33.74ZM421.577 34.496V28.376H422.717V28.904H422.765C423.281 28.544 424.073 28.256 424.817 28.256C426.005 28.256 426.581 28.748 426.581 29.936V34.496H425.393V30.212C425.393 29.54 425.201 29.264 424.277 29.264C423.761 29.264 423.173 29.444 422.753 29.648V34.496H421.577ZM429.748 34.592C428.956 34.592 428.248 34.46 427.756 34.16V33.272C428.26 33.464 428.716 33.656 429.58 33.656C430.456 33.656 430.84 33.356 430.84 32.84C430.84 32.372 430.612 32.144 429.868 31.976L429.304 31.82C428.392 31.604 427.768 31.16 427.768 30.08C427.768 28.988 428.464 28.256 429.952 28.256C430.792 28.256 431.308 28.436 431.668 28.616V29.528C431.344 29.396 430.72 29.228 430.048 29.228C429.28 29.228 428.896 29.456 428.896 29.984C428.896 30.452 429.136 30.632 429.748 30.8L430.324 30.944C431.524 31.232 432.004 31.664 432.004 32.756C432.004 33.968 431.14 34.592 429.748 34.592ZM436.534 34.496V26.276H437.77V33.464H441.334V34.496H436.534ZM441.824 34.496L444.8 26.276H446.048L449 34.496H447.704L446.912 32.264H443.768L442.988 34.496H441.824ZM445.304 27.836L444.104 31.28H446.552L445.34 27.836H445.304ZM456.317 34.64C454.301 34.64 453.173 33.668 453.173 31.628V26.276H454.445V31.556C454.445 33.188 455.105 33.692 456.365 33.692C457.613 33.692 458.213 33.2 458.213 31.544V26.276H459.341V31.592C459.341 33.704 458.345 34.64 456.317 34.64ZM463.074 34.64C462.03 34.64 461.238 34.412 460.674 34.1V33.092C461.31 33.392 462.114 33.608 462.99 33.608C464.154 33.608 464.646 33.092 464.646 32.276C464.646 31.556 464.322 31.244 463.386 30.944L462.582 30.68C461.454 30.332 460.758 29.732 460.758 28.4C460.758 27.068 461.646 26.132 463.41 26.132C464.454 26.132 465.03 26.36 465.486 26.588V27.596C464.982 27.38 464.31 27.164 463.41 27.164C462.498 27.164 461.982 27.56 461.982 28.292C461.982 29 462.234 29.312 463.086 29.576L463.902 29.828C465.138 30.224 465.918 30.764 465.918 32.18C465.918 33.68 465.03 34.64 463.074 34.64ZM466.527 34.496L469.503 26.276H470.751L473.703 34.496H472.407L471.615 32.264H468.471L467.691 34.496H466.527ZM470.007 27.836L468.807 31.28H471.255L470.043 27.836H470.007ZM474.732 36.032L474.912 33.356H476.256L475.728 36.032H474.732ZM480.308 34.496L483.284 26.276H484.532L487.484 34.496H486.188L485.396 32.264H482.252L481.472 34.496H480.308ZM483.788 27.836L482.588 31.28H485.036L483.824 27.836H483.788ZM488.409 36.296V28.376H489.549V28.868H489.597C489.969 28.52 490.605 28.256 491.349 28.256C492.681 28.256 493.845 28.988 493.845 31.244V31.412C493.845 33.68 492.765 34.532 491.085 34.532C490.401 34.532 489.909 34.352 489.585 34.172V36.296H488.409ZM490.941 33.608C491.997 33.608 492.609 33.128 492.609 31.568V31.316C492.609 29.72 492.033 29.252 491.001 29.252C490.353 29.252 489.837 29.456 489.585 29.648V33.224C489.837 33.416 490.353 33.608 490.941 33.608ZM495.077 34.496V28.376H496.217V29.06H496.265C496.625 28.652 497.249 28.304 497.909 28.304C498.053 28.304 498.233 28.316 498.293 28.352V29.408C498.137 29.384 497.933 29.372 497.813 29.372C497.237 29.372 496.673 29.54 496.253 29.816V34.496H495.077ZM499.356 34.628V33.332H500.676V34.628H499.356ZM505.34 34.496V33.764L507.068 31.964C508.196 30.776 509.06 29.816 509.06 28.736C509.06 27.704 508.52 27.26 507.44 27.26C506.828 27.26 506.156 27.56 505.7 27.86L505.448 26.912C505.976 26.588 506.804 26.24 507.728 26.24C509.456 26.24 510.368 27.128 510.368 28.592C510.368 30.02 509.276 31.172 508.124 32.384L507.02 33.488H510.476V34.496H505.34ZM514.836 34.64C513.108 34.64 511.752 33.512 511.752 30.74V30.164C511.752 27.26 513.204 26.24 514.86 26.24C516.504 26.24 517.884 27.272 517.884 30.116V30.728C517.884 33.548 516.528 34.64 514.836 34.64ZM514.836 33.656C516 33.656 516.6 32.852 516.6 30.848V30.104C516.6 28.124 516 27.224 514.848 27.224C513.684 27.224 513.072 28.088 513.072 30.032V30.776C513.072 32.732 513.672 33.656 514.836 33.656ZM519.18 34.496V33.764L520.908 31.964C522.036 30.776 522.9 29.816 522.9 28.736C522.9 27.704 522.36 27.26 521.28 27.26C520.668 27.26 519.996 27.56 519.54 27.86L519.288 26.912C519.816 26.588 520.644 26.24 521.568 26.24C523.296 26.24 524.208 27.128 524.208 28.592C524.208 30.02 523.116 31.172 521.964 32.384L520.86 33.488H524.316V34.496H519.18ZM525.59 34.496V33.764L527.318 31.964C528.446 30.776 529.31 29.816 529.31 28.736C529.31 27.704 528.77 27.26 527.69 27.26C527.078 27.26 526.406 27.56 525.95 27.86L525.698 26.912C526.226 26.588 527.054 26.24 527.978 26.24C529.706 26.24 530.618 27.128 530.618 28.592C530.618 30.02 529.526 31.172 528.374 32.384L527.27 33.488H530.726V34.496H525.59ZM531.448 35.744C532.552 34.532 533.452 32.78 533.452 30.86V30.536C533.452 28.676 532.552 26.792 531.448 25.568H532.492C533.656 26.684 534.664 28.388 534.664 30.548V30.752C534.664 32.936 533.656 34.64 532.492 35.744H531.448ZM536.021 36.032L536.201 33.356H537.545L537.017 36.032H536.021ZM543.397 34.544V27.62L541.957 27.932V27.2L543.985 26.288H544.645V34.544H543.397ZM549.949 30.104V30.884H546.613V30.104H549.949ZM552.526 34.544V27.62L551.086 27.932V27.2L553.114 26.288H553.774V34.544H552.526ZM557.77 34.64C556.822 34.64 555.97 34.376 555.454 34.052L555.682 33.08C556.126 33.356 556.834 33.608 557.47 33.608C558.67 33.608 559.39 32.984 559.39 31.928C559.39 30.8 558.718 30.356 557.518 30.356C556.99 30.356 556.234 30.584 555.85 30.764L556.15 26.372H560.338V27.368H557.11L556.966 29.576C557.254 29.492 557.722 29.42 558.034 29.42C559.69 29.42 560.674 30.224 560.674 31.94C560.674 33.428 559.594 34.64 557.77 34.64ZM562.016 34.628V33.332H563.336V34.628H562.016Z" fill="black"/>
</svg>
