<svg width="270" height="316" viewBox="0 0 270 316" fill="none" xmlns="http://www.w3.org/2000/svg">
<rect width="270" height="316" rx="11" transform="matrix(1 0 0 -1 0 316)" fill="black"/>
<path d="M40.92 132.248V132.608C40.92 134.928 40.328 136.808 39.144 138.248C37.96 139.672 36.336 140.384 34.272 140.384C32.272 140.384 30.616 139.648 29.304 138.176C27.992 136.704 27.336 134.904 27.336 132.776C27.336 130.568 28 128.728 29.328 127.256C30.672 125.784 32.384 125.048 34.464 125.048C37.152 125.048 39.072 126.208 40.224 128.528L38.016 129.704C37.28 128.024 36.072 127.184 34.392 127.184C33.096 127.184 32.024 127.744 31.176 128.864C30.328 129.968 29.904 131.28 29.904 132.8C29.904 134.32 30.32 135.608 31.152 136.664C31.984 137.72 33.064 138.248 34.392 138.248C35.528 138.248 36.432 137.848 37.104 137.048C37.776 136.248 38.112 135.296 38.112 134.192H34.632V132.248H40.92ZM51.5454 135.248C51.5454 136.736 51.0894 137.952 50.1774 138.896C49.2654 139.84 48.0654 140.312 46.5774 140.312C45.1054 140.312 43.9054 139.84 42.9774 138.896C42.0494 137.952 41.5854 136.744 41.5854 135.272C41.5854 133.784 42.0414 132.568 42.9534 131.624C43.8654 130.68 45.0654 130.208 46.5534 130.208C48.0414 130.208 49.2414 130.68 50.1534 131.624C51.0814 132.552 51.5454 133.76 51.5454 135.248ZM43.9374 135.296C43.9374 136.176 44.1854 136.896 44.6814 137.456C45.1774 138.016 45.8174 138.296 46.6014 138.296C47.3854 138.296 48.0094 138 48.4734 137.408C48.9534 136.8 49.1934 136.088 49.1934 135.272C49.1934 134.44 48.9534 133.728 48.4734 133.136C47.9934 132.528 47.3614 132.224 46.5774 132.224C45.8094 132.224 45.1774 132.512 44.6814 133.088C44.1854 133.664 43.9374 134.4 43.9374 135.296ZM62.1392 135.248C62.1392 136.736 61.6832 137.952 60.7712 138.896C59.8592 139.84 58.6592 140.312 57.1712 140.312C55.6992 140.312 54.4992 139.84 53.5712 138.896C52.6432 137.952 52.1792 136.744 52.1792 135.272C52.1792 133.784 52.6352 132.568 53.5472 131.624C54.4592 130.68 55.6592 130.208 57.1472 130.208C58.6352 130.208 59.8352 130.68 60.7472 131.624C61.6752 132.552 62.1392 133.76 62.1392 135.248ZM54.5312 135.296C54.5312 136.176 54.7792 136.896 55.2752 137.456C55.7712 138.016 56.4112 138.296 57.1952 138.296C57.9792 138.296 58.6032 138 59.0672 137.408C59.5472 136.8 59.7872 136.088 59.7872 135.272C59.7872 134.44 59.5472 133.728 59.0672 133.136C58.5872 132.528 57.9552 132.224 57.1712 132.224C56.4032 132.224 55.7712 132.512 55.2752 133.088C54.7792 133.664 54.5312 134.4 54.5312 135.296ZM72.4449 139.184C72.4449 142.432 70.9329 144.056 67.9089 144.056C66.5649 144.056 65.4289 143.688 64.5009 142.952C63.5729 142.232 63.1089 141.288 63.1089 140.12H65.5809C65.5809 140.584 65.8129 141.04 66.2769 141.488C66.7409 141.936 67.2609 142.16 67.8369 142.16C69.3569 142.16 70.1169 141.248 70.1169 139.424V138.824C69.4609 139.656 68.4609 140.072 67.1169 140.072C65.7889 140.072 64.7409 139.608 63.9729 138.68C63.2209 137.752 62.8449 136.616 62.8449 135.272C62.8449 133.816 63.2529 132.6 64.0689 131.624C64.8849 130.648 65.9409 130.16 67.2369 130.16C68.5489 130.16 69.5089 130.568 70.1169 131.384V130.472H72.4449V139.184ZM70.4529 135.056C70.4529 134.192 70.2129 133.496 69.7329 132.968C69.2529 132.44 68.6209 132.176 67.8369 132.176C67.0529 132.176 66.4129 132.464 65.9169 133.04C65.4369 133.616 65.1969 134.344 65.1969 135.224C65.1969 137.112 66.0769 138.056 67.8369 138.056C68.6369 138.056 69.2689 137.776 69.7329 137.216C70.2129 136.64 70.4529 135.92 70.4529 135.056ZM76.7925 140H74.4645V123.608H76.7925V140ZM80.6897 135.488C80.6897 136.4 80.8897 137.152 81.2897 137.744C81.6897 138.336 82.2417 138.632 82.9457 138.632C84.0497 138.632 84.7537 138.088 85.0577 137L87.2657 137.36C86.5457 139.328 85.1057 140.312 82.9457 140.312C81.5057 140.312 80.3537 139.856 79.4897 138.944C78.6417 138.016 78.2177 136.816 78.2177 135.344C78.2177 133.792 78.6257 132.552 79.4417 131.624C80.2737 130.68 81.3937 130.208 82.8017 130.208C84.2257 130.208 85.3297 130.656 86.1137 131.552C86.9137 132.432 87.3137 133.64 87.3137 135.176V135.488H80.6897ZM85.1537 134.192C85.1537 133.536 84.9457 132.96 84.5297 132.464C84.1297 131.968 83.6017 131.72 82.9457 131.72C82.3057 131.72 81.7777 131.984 81.3617 132.512C80.9617 133.024 80.7617 133.584 80.7617 134.192H85.1537ZM105.153 131.36V125.432H107.601V140H105.153V133.304H99.129V140H96.657V125.432H99.129V131.36H105.153ZM111.416 135.488C111.416 136.4 111.616 137.152 112.016 137.744C112.416 138.336 112.968 138.632 113.672 138.632C114.776 138.632 115.48 138.088 115.784 137L117.992 137.36C117.272 139.328 115.832 140.312 113.672 140.312C112.232 140.312 111.08 139.856 110.216 138.944C109.368 138.016 108.944 136.816 108.944 135.344C108.944 133.792 109.352 132.552 110.168 131.624C111 130.68 112.12 130.208 113.528 130.208C114.952 130.208 116.056 130.656 116.84 131.552C117.64 132.432 118.04 133.64 118.04 135.176V135.488H111.416ZM115.88 134.192C115.88 133.536 115.672 132.96 115.256 132.464C114.856 131.968 114.328 131.72 113.672 131.72C113.032 131.72 112.504 131.984 112.088 132.512C111.688 133.024 111.488 133.584 111.488 134.192H115.88ZM128.272 140H125.992V139.136C125.32 139.92 124.32 140.312 122.992 140.312C121.664 140.312 120.6 139.8 119.8 138.776C119.016 137.752 118.624 136.552 118.624 135.176C118.624 133.8 119.024 132.632 119.824 131.672C120.64 130.696 121.68 130.208 122.944 130.208C124.288 130.208 125.304 130.608 125.992 131.408V130.52H128.272V140ZM126.256 135.248C126.256 134.368 126.008 133.648 125.512 133.088C125.016 132.512 124.376 132.224 123.592 132.224C122.824 132.224 122.192 132.504 121.696 133.064C121.216 133.608 120.976 134.336 120.976 135.248C120.976 136.16 121.224 136.896 121.72 137.456C122.216 138.016 122.856 138.296 123.64 138.296C124.424 138.296 125.056 138.024 125.536 137.48C126.016 136.936 126.256 136.192 126.256 135.248ZM132.738 140H130.41V123.608H132.738V140ZM137.691 140H135.363V132.608H134.235V130.712H135.363V127.304H137.691V130.712H139.539V132.608H137.691V140ZM142.46 123.608V131.312C143.068 130.576 144.036 130.208 145.364 130.208C146.356 130.208 147.148 130.592 147.74 131.36C148.332 132.128 148.628 133.08 148.628 134.216V140H146.324V134.984C146.324 132.984 145.708 131.984 144.476 131.984C143.132 131.984 142.46 133.088 142.46 135.296V140H140.132V123.608H142.46ZM161.121 127.52V131.312H166.017V133.4H161.121V137.912H166.185V140H158.649V125.432L166.185 125.432V127.52L161.121 127.52ZM174.671 130.52H176.999V143.984H174.671V139.112C174.079 139.912 173.095 140.312 171.719 140.312C170.439 140.312 169.383 139.816 168.551 138.824C167.735 137.832 167.327 136.624 167.327 135.2C167.327 133.824 167.735 132.648 168.551 131.672C169.383 130.696 170.423 130.208 171.671 130.208C173.031 130.208 174.031 130.6 174.671 131.384V130.52ZM172.319 138.296C173.007 138.296 173.615 137.984 174.143 137.36C174.671 136.736 174.935 136.032 174.935 135.248C174.935 134.4 174.679 133.688 174.167 133.112C173.671 132.52 173.055 132.224 172.319 132.224C171.503 132.224 170.863 132.52 170.399 133.112C169.935 133.688 169.703 134.408 169.703 135.272C169.703 136.12 169.935 136.84 170.399 137.432C170.879 138.008 171.519 138.296 172.319 138.296ZM181.201 130.52V135.656C181.201 137.496 181.841 138.416 183.121 138.416C184.401 138.416 185.041 137.496 185.041 135.656V130.52H187.369V136.088C187.369 138.904 185.953 140.312 183.121 140.312C180.289 140.312 178.873 138.904 178.873 136.088V130.52H181.201ZM192.113 126.536C192.113 126.904 191.977 127.224 191.705 127.496C191.433 127.768 191.113 127.904 190.745 127.904C190.377 127.904 190.057 127.768 189.785 127.496C189.513 127.224 189.377 126.904 189.377 126.536C189.377 126.168 189.513 125.848 189.785 125.576C190.057 125.304 190.377 125.168 190.745 125.168C191.113 125.168 191.433 125.304 191.705 125.576C191.977 125.848 192.113 126.168 192.113 126.536ZM191.921 140H189.593V130.52H191.921V140ZM197.011 140H194.683V132.608H193.555V130.712H194.683V127.304H197.011V130.712H198.859V132.608H197.011V140ZM198.348 130.52H201.036L203.508 136.208L206.1 130.52H208.74L202.02 143.96H199.428L202.356 138.536L198.348 130.52ZM37.704 164H34.656L30.528 157.52L30.504 164H28.032L28.032 149.432H31.896C35.144 149.432 36.768 150.896 36.768 153.824C36.768 154.928 36.48 155.848 35.904 156.584C35.344 157.32 34.576 157.744 33.6 157.856L37.704 164ZM30.504 156.512H31.248C33.28 156.512 34.296 155.64 34.296 153.896C34.296 152.216 33.288 151.376 31.272 151.376H30.504L30.504 156.512ZM40.5413 159.488C40.5413 160.4 40.7413 161.152 41.1413 161.744C41.5413 162.336 42.0933 162.632 42.7973 162.632C43.9013 162.632 44.6053 162.088 44.9093 161L47.1173 161.36C46.3973 163.328 44.9573 164.312 42.7973 164.312C41.3573 164.312 40.2053 163.856 39.3413 162.944C38.4933 162.016 38.0693 160.816 38.0693 159.344C38.0693 157.792 38.4773 156.552 39.2933 155.624C40.1253 154.68 41.2453 154.208 42.6533 154.208C44.0773 154.208 45.1813 154.656 45.9653 155.552C46.7653 156.432 47.1653 157.64 47.1653 159.176V159.488H40.5413ZM45.0053 158.192C45.0053 157.536 44.7973 156.96 44.3813 156.464C43.9813 155.968 43.4533 155.72 42.7973 155.72C42.1573 155.72 41.6293 155.984 41.2133 156.512C40.8133 157.024 40.6133 157.584 40.6133 158.192H45.0053ZM53.4849 156.488C52.9729 156.008 52.4369 155.768 51.8769 155.768C51.0289 155.768 50.6049 156.152 50.6049 156.92C50.6049 157.352 50.9889 157.704 51.7569 157.976C53.1649 158.488 54.0369 158.96 54.3729 159.392C54.7089 159.808 54.8769 160.328 54.8769 160.952C54.8769 161.976 54.5169 162.792 53.7969 163.4C53.0929 164.008 52.2209 164.312 51.1809 164.312C49.8369 164.312 48.7249 163.784 47.8449 162.728L48.8769 161.408C49.6769 162.208 50.4129 162.608 51.0849 162.608C52.0609 162.608 52.5489 162.136 52.5489 161.192C52.5489 160.712 52.2929 160.36 51.7809 160.136C51.2689 159.896 50.8769 159.72 50.6049 159.608C49.1329 158.968 48.3969 158.192 48.3969 157.28C48.3969 156.368 48.6689 155.632 49.2129 155.072C49.7729 154.496 50.5009 154.208 51.3969 154.208C52.6769 154.208 53.6929 154.536 54.4449 155.192L53.4849 156.488ZM58.1428 159.488C58.1428 160.4 58.3428 161.152 58.7428 161.744C59.1428 162.336 59.6948 162.632 60.3988 162.632C61.5028 162.632 62.2068 162.088 62.5108 161L64.7188 161.36C63.9988 163.328 62.5588 164.312 60.3988 164.312C58.9588 164.312 57.8068 163.856 56.9428 162.944C56.0948 162.016 55.6708 160.816 55.6708 159.344C55.6708 157.792 56.0788 156.552 56.8948 155.624C57.7268 154.68 58.8468 154.208 60.2548 154.208C61.6788 154.208 62.7828 154.656 63.5668 155.552C64.3668 156.432 64.7668 157.64 64.7668 159.176V159.488H58.1428ZM62.6068 158.192C62.6068 157.536 62.3988 156.96 61.9828 156.464C61.5828 155.968 61.0548 155.72 60.3988 155.72C59.7588 155.72 59.2308 155.984 58.8148 156.512C58.4148 157.024 58.2148 157.584 58.2148 158.192H62.6068ZM74.9985 164H72.7185V163.136C72.0465 163.92 71.0465 164.312 69.7185 164.312C68.3905 164.312 67.3265 163.8 66.5265 162.776C65.7425 161.752 65.3505 160.552 65.3505 159.176C65.3505 157.8 65.7505 156.632 66.5505 155.672C67.3665 154.696 68.4065 154.208 69.6705 154.208C71.0145 154.208 72.0305 154.608 72.7185 155.408V154.52H74.9985V164ZM72.9825 159.248C72.9825 158.368 72.7345 157.648 72.2385 157.088C71.7425 156.512 71.1025 156.224 70.3185 156.224C69.5505 156.224 68.9185 156.504 68.4225 157.064C67.9425 157.608 67.7025 158.336 67.7025 159.248C67.7025 160.16 67.9505 160.896 68.4465 161.456C68.9425 162.016 69.5825 162.296 70.3665 162.296C71.1505 162.296 71.7825 162.024 72.2625 161.48C72.7425 160.936 72.9825 160.192 72.9825 159.248ZM79.2724 155.504C79.8644 154.64 80.7924 154.208 82.0564 154.208C82.4564 154.208 82.8244 154.288 83.1604 154.448L82.8724 156.56C82.5204 156.336 82.1364 156.224 81.7204 156.224C80.0884 156.224 79.2724 157.392 79.2724 159.728V164H76.9444V154.52H79.2724V155.504ZM90.4785 156.992C89.8865 156.4 89.2225 156.104 88.4865 156.104C87.6225 156.104 86.9425 156.416 86.4465 157.04C85.9505 157.664 85.7025 158.432 85.7025 159.344C85.7025 160.24 85.9825 160.976 86.5425 161.552C87.1025 162.128 87.7825 162.416 88.5825 162.416C89.2705 162.416 89.9025 162.112 90.4785 161.504V163.736C89.8065 164.12 89.0305 164.312 88.1505 164.312C86.7745 164.312 85.6305 163.824 84.7185 162.848C83.8065 161.872 83.3505 160.68 83.3505 159.272C83.3505 157.864 83.8145 156.672 84.7425 155.696C85.6865 154.704 86.8625 154.208 88.2705 154.208C89.1025 154.208 89.8385 154.408 90.4785 154.808V156.992ZM94.4833 147.608V155.312C95.0913 154.576 96.0593 154.208 97.3873 154.208C98.3793 154.208 99.1713 154.592 99.7633 155.36C100.355 156.128 100.651 157.08 100.651 158.216V164H98.3473V158.984C98.3473 156.984 97.7313 155.984 96.4993 155.984C95.1553 155.984 94.4833 157.088 94.4833 159.296V164H92.1553V147.608H94.4833ZM113.337 164H110.865V149.432H113.337V164ZM117.827 155.384C118.483 154.6 119.451 154.208 120.731 154.208C122.907 154.208 123.995 155.544 123.995 158.216V164H121.691V158.984C121.691 156.984 121.075 155.984 119.843 155.984C118.499 155.984 117.827 157.056 117.827 159.2V164H115.499V154.52H117.827V155.384ZM128.785 150.536C128.785 150.904 128.649 151.224 128.377 151.496C128.105 151.768 127.785 151.904 127.417 151.904C127.049 151.904 126.729 151.768 126.457 151.496C126.185 151.224 126.049 150.904 126.049 150.536C126.049 150.168 126.185 149.848 126.457 149.576C126.729 149.304 127.049 149.168 127.417 149.168C127.785 149.168 128.105 149.304 128.377 149.576C128.649 149.848 128.785 150.168 128.785 150.536ZM128.593 164H126.265V154.52H128.593V164ZM133.683 164H131.355V156.608H130.227V154.712H131.355V151.304H133.683V154.712H135.531V156.608H133.683V164ZM138.98 150.536C138.98 150.904 138.844 151.224 138.572 151.496C138.3 151.768 137.98 151.904 137.612 151.904C137.244 151.904 136.924 151.768 136.652 151.496C136.38 151.224 136.244 150.904 136.244 150.536C136.244 150.168 136.38 149.848 136.652 149.576C136.924 149.304 137.244 149.168 137.612 149.168C137.98 149.168 138.3 149.304 138.572 149.576C138.844 149.848 138.98 150.168 138.98 150.536ZM138.788 164H136.46V154.52H138.788V164ZM149.999 164H147.719V163.136C147.047 163.92 146.047 164.312 144.719 164.312C143.391 164.312 142.327 163.8 141.527 162.776C140.743 161.752 140.351 160.552 140.351 159.176C140.351 157.8 140.751 156.632 141.551 155.672C142.367 154.696 143.407 154.208 144.671 154.208C146.015 154.208 147.031 154.608 147.719 155.408V154.52H149.999V164ZM147.983 159.248C147.983 158.368 147.735 157.648 147.239 157.088C146.743 156.512 146.103 156.224 145.319 156.224C144.551 156.224 143.919 156.504 143.423 157.064C142.943 157.608 142.703 158.336 142.703 159.248C142.703 160.16 142.951 160.896 143.447 161.456C143.943 162.016 144.583 162.296 145.367 162.296C146.151 162.296 146.783 162.024 147.263 161.48C147.743 160.936 147.983 160.192 147.983 159.248ZM154.8 164H152.472V156.608H151.344V154.712H152.472V151.304H154.8V154.712H156.648V156.608H154.8V164ZM160.097 150.536C160.097 150.904 159.961 151.224 159.689 151.496C159.417 151.768 159.097 151.904 158.729 151.904C158.361 151.904 158.041 151.768 157.769 151.496C157.497 151.224 157.361 150.904 157.361 150.536C157.361 150.168 157.497 149.848 157.769 149.576C158.041 149.304 158.361 149.168 158.729 149.168C159.097 149.168 159.417 149.304 159.689 149.576C159.961 149.848 160.097 150.168 160.097 150.536ZM159.905 164H157.577V154.52H159.905V164ZM166.028 160.52L168.356 154.52H170.948L166.58 164.192H165.188L160.844 154.52H163.412L166.028 160.52ZM173.362 159.488C173.362 160.4 173.562 161.152 173.962 161.744C174.362 162.336 174.914 162.632 175.618 162.632C176.722 162.632 177.426 162.088 177.73 161L179.938 161.36C179.218 163.328 177.778 164.312 175.618 164.312C174.178 164.312 173.026 163.856 172.162 162.944C171.314 162.016 170.89 160.816 170.89 159.344C170.89 157.792 171.298 156.552 172.114 155.624C172.946 154.68 174.066 154.208 175.474 154.208C176.898 154.208 178.002 154.656 178.786 155.552C179.586 156.432 179.986 157.64 179.986 159.176V159.488H173.362ZM177.826 158.192C177.826 157.536 177.618 156.96 177.202 156.464C176.802 155.968 176.274 155.72 175.618 155.72C174.978 155.72 174.45 155.984 174.034 156.512C173.634 157.024 173.434 157.584 173.434 158.192H177.826Z" fill="white"/>
<path d="M29.772 209H27.918V198.074H29.772V209ZM33.1398 202.538C33.6318 201.95 34.3578 201.656 35.3178 201.656C36.9498 201.656 37.7658 202.658 37.7658 204.662V209H36.0378V205.238C36.0378 203.738 35.5758 202.988 34.6518 202.988C33.6438 202.988 33.1398 203.792 33.1398 205.4V209H31.3938V201.89H33.1398V202.538ZM42.1321 206.39L43.8781 201.89H45.8221L42.5461 209.144H41.5021L38.2441 201.89H40.1701L42.1321 206.39ZM47.6325 205.616C47.6325 206.3 47.7825 206.864 48.0825 207.308C48.3825 207.752 48.7965 207.974 49.3245 207.974C50.1525 207.974 50.6805 207.566 50.9085 206.75L52.5645 207.02C52.0245 208.496 50.9445 209.234 49.3245 209.234C48.2445 209.234 47.3805 208.892 46.7325 208.208C46.0965 207.512 45.7785 206.612 45.7785 205.508C45.7785 204.344 46.0845 203.414 46.6965 202.718C47.3205 202.01 48.1605 201.656 49.2165 201.656C50.2845 201.656 51.1125 201.992 51.7005 202.664C52.3005 203.324 52.6005 204.23 52.6005 205.382V205.616H47.6325ZM50.9805 204.644C50.9805 204.152 50.8245 203.72 50.5125 203.348C50.2125 202.976 49.8165 202.79 49.3245 202.79C48.8445 202.79 48.4485 202.988 48.1365 203.384C47.8365 203.768 47.6865 204.188 47.6865 204.644H50.9805ZM57.3403 203.366C56.9563 203.006 56.5543 202.826 56.1343 202.826C55.4983 202.826 55.1803 203.114 55.1803 203.69C55.1803 204.014 55.4683 204.278 56.0443 204.482C57.1003 204.866 57.7543 205.22 58.0063 205.544C58.2583 205.856 58.3843 206.246 58.3843 206.714C58.3843 207.482 58.1143 208.094 57.5743 208.55C57.0463 209.006 56.3923 209.234 55.6123 209.234C54.6043 209.234 53.7703 208.838 53.1103 208.046L53.8843 207.056C54.4843 207.656 55.0363 207.956 55.5403 207.956C56.2723 207.956 56.6383 207.602 56.6383 206.894C56.6383 206.534 56.4463 206.27 56.0623 206.102C55.6783 205.922 55.3843 205.79 55.1803 205.706C54.0763 205.226 53.5243 204.644 53.5243 203.96C53.5243 203.276 53.7283 202.724 54.1363 202.304C54.5563 201.872 55.1023 201.656 55.7743 201.656C56.7343 201.656 57.4963 201.902 58.0603 202.394L57.3403 203.366ZM61.6257 209H59.8797V203.456H59.0337V202.034H59.8797V199.478H61.6257V202.034H63.0117V203.456H61.6257V209ZM65.5983 198.902C65.5983 199.178 65.4963 199.418 65.2923 199.622C65.0883 199.826 64.8483 199.928 64.5723 199.928C64.2963 199.928 64.0563 199.826 63.8523 199.622C63.6483 199.418 63.5463 199.178 63.5463 198.902C63.5463 198.626 63.6483 198.386 63.8523 198.182C64.0563 197.978 64.2963 197.876 64.5723 197.876C64.8483 197.876 65.0883 197.978 65.2923 198.182C65.4963 198.386 65.5983 198.626 65.5983 198.902ZM65.4543 209H63.7083V201.89H65.4543V209ZM73.8982 208.388C73.8982 210.824 72.7642 212.042 70.4962 212.042C69.4882 212.042 68.6362 211.766 67.9402 211.214C67.2442 210.674 66.8962 209.966 66.8962 209.09H68.7502C68.7502 209.438 68.9242 209.78 69.2722 210.116C69.6202 210.452 70.0102 210.62 70.4422 210.62C71.5822 210.62 72.1522 209.936 72.1522 208.568V208.118C71.6602 208.742 70.9102 209.054 69.9022 209.054C68.9062 209.054 68.1202 208.706 67.5442 208.01C66.9802 207.314 66.6982 206.462 66.6982 205.454C66.6982 204.362 67.0042 203.45 67.6162 202.718C68.2282 201.986 69.0202 201.62 69.9922 201.62C70.9762 201.62 71.6962 201.926 72.1522 202.538V201.854H73.8982V208.388ZM72.4042 205.292C72.4042 204.644 72.2242 204.122 71.8642 203.726C71.5042 203.33 71.0302 203.132 70.4422 203.132C69.8542 203.132 69.3742 203.348 69.0022 203.78C68.6422 204.212 68.4622 204.758 68.4622 205.418C68.4622 206.834 69.1222 207.542 70.4422 207.542C71.0422 207.542 71.5162 207.332 71.8642 206.912C72.2242 206.48 72.4042 205.94 72.4042 205.292ZM82.0008 209H80.2908V208.352C79.7868 208.94 79.0368 209.234 78.0408 209.234C77.0448 209.234 76.2468 208.85 75.6468 208.082C75.0588 207.314 74.7648 206.414 74.7648 205.382C74.7648 204.35 75.0648 203.474 75.6648 202.754C76.2768 202.022 77.0568 201.656 78.0048 201.656C79.0128 201.656 79.7748 201.956 80.2908 202.556V201.89H82.0008V209ZM80.4888 205.436C80.4888 204.776 80.3028 204.236 79.9308 203.816C79.5588 203.384 79.0788 203.168 78.4908 203.168C77.9148 203.168 77.4408 203.378 77.0688 203.798C76.7088 204.206 76.5288 204.752 76.5288 205.436C76.5288 206.12 76.7148 206.672 77.0868 207.092C77.4588 207.512 77.9388 207.722 78.5268 207.722C79.1148 207.722 79.5888 207.518 79.9488 207.11C80.3088 206.702 80.4888 206.144 80.4888 205.436ZM85.6022 209H83.8562V203.456H83.0102V202.034H83.8562V199.478H85.6022V202.034H86.9882V203.456H85.6022V209ZM88.7829 205.616C88.7829 206.3 88.9329 206.864 89.2329 207.308C89.5329 207.752 89.9469 207.974 90.4749 207.974C91.3029 207.974 91.8309 207.566 92.0589 206.75L93.7149 207.02C93.1749 208.496 92.0949 209.234 90.4749 209.234C89.3949 209.234 88.5309 208.892 87.8829 208.208C87.2469 207.512 86.9289 206.612 86.9289 205.508C86.9289 204.344 87.2349 203.414 87.8469 202.718C88.4709 202.01 89.3109 201.656 90.3669 201.656C91.4349 201.656 92.2629 201.992 92.8509 202.664C93.4509 203.324 93.7509 204.23 93.7509 205.382V205.616H88.7829ZM92.1309 204.644C92.1309 204.152 91.9749 203.72 91.6629 203.348C91.3629 202.976 90.9669 202.79 90.4749 202.79C89.9949 202.79 89.5989 202.988 89.2869 203.384C88.9869 203.768 88.8369 204.188 88.8369 204.644H92.1309ZM102.594 209H100.848V196.706H102.594V209ZM111.151 205.436C111.151 206.552 110.809 207.464 110.125 208.172C109.441 208.88 108.541 209.234 107.425 209.234C106.321 209.234 105.421 208.88 104.725 208.172C104.029 207.464 103.681 206.558 103.681 205.454C103.681 204.338 104.023 203.426 104.707 202.718C105.391 202.01 106.291 201.656 107.407 201.656C108.523 201.656 109.423 202.01 110.107 202.718C110.803 203.414 111.151 204.32 111.151 205.436ZM105.445 205.472C105.445 206.132 105.631 206.672 106.003 207.092C106.375 207.512 106.855 207.722 107.443 207.722C108.031 207.722 108.499 207.5 108.847 207.056C109.207 206.6 109.387 206.066 109.387 205.454C109.387 204.83 109.207 204.296 108.847 203.852C108.487 203.396 108.013 203.168 107.425 203.168C106.849 203.168 106.375 203.384 106.003 203.816C105.631 204.248 105.445 204.8 105.445 205.472ZM114.813 206.534L116.703 201.656H117.333L119.313 206.516L121.077 201.89H123.003L119.691 209.144H118.809L117.171 204.59L115.299 209.144H114.399L111.141 201.89H113.067L114.813 206.534ZM126.888 203.528V205.184H123.36V203.528H126.888ZM132.03 203.366C131.646 203.006 131.244 202.826 130.824 202.826C130.188 202.826 129.87 203.114 129.87 203.69C129.87 204.014 130.158 204.278 130.734 204.482C131.79 204.866 132.444 205.22 132.696 205.544C132.948 205.856 133.074 206.246 133.074 206.714C133.074 207.482 132.804 208.094 132.264 208.55C131.736 209.006 131.082 209.234 130.302 209.234C129.294 209.234 128.46 208.838 127.8 208.046L128.574 207.056C129.174 207.656 129.726 207.956 130.23 207.956C130.962 207.956 131.328 207.602 131.328 206.894C131.328 206.534 131.136 206.27 130.752 206.102C130.368 205.922 130.074 205.79 129.87 205.706C128.766 205.226 128.214 204.644 128.214 203.96C128.214 203.276 128.418 202.724 128.826 202.304C129.246 201.872 129.792 201.656 130.464 201.656C131.424 201.656 132.186 201.902 132.75 202.394L132.03 203.366ZM141.157 205.436C141.157 206.552 140.815 207.464 140.131 208.172C139.447 208.88 138.547 209.234 137.431 209.234C136.327 209.234 135.427 208.88 134.731 208.172C134.035 207.464 133.687 206.558 133.687 205.454C133.687 204.338 134.029 203.426 134.713 202.718C135.397 202.01 136.297 201.656 137.413 201.656C138.529 201.656 139.429 202.01 140.113 202.718C140.809 203.414 141.157 204.32 141.157 205.436ZM135.451 205.472C135.451 206.132 135.637 206.672 136.009 207.092C136.381 207.512 136.861 207.722 137.449 207.722C138.037 207.722 138.505 207.5 138.853 207.056C139.213 206.6 139.393 206.066 139.393 205.454C139.393 204.83 139.213 204.296 138.853 203.852C138.493 203.396 138.019 203.168 137.431 203.168C136.855 203.168 136.381 203.384 136.009 203.816C135.637 204.248 135.451 204.8 135.451 205.472ZM146.96 203.744C146.516 203.3 146.018 203.078 145.466 203.078C144.818 203.078 144.308 203.312 143.936 203.78C143.564 204.248 143.378 204.824 143.378 205.508C143.378 206.18 143.588 206.732 144.008 207.164C144.428 207.596 144.938 207.812 145.538 207.812C146.054 207.812 146.528 207.584 146.96 207.128V208.802C146.456 209.09 145.874 209.234 145.214 209.234C144.182 209.234 143.324 208.868 142.64 208.136C141.956 207.404 141.614 206.51 141.614 205.454C141.614 204.398 141.962 203.504 142.658 202.772C143.366 202.028 144.248 201.656 145.304 201.656C145.928 201.656 146.48 201.806 146.96 202.106V203.744ZM150.36 198.902C150.36 199.178 150.258 199.418 150.054 199.622C149.85 199.826 149.61 199.928 149.334 199.928C149.058 199.928 148.818 199.826 148.614 199.622C148.41 199.418 148.308 199.178 148.308 198.902C148.308 198.626 148.41 198.386 148.614 198.182C148.818 197.978 149.058 197.876 149.334 197.876C149.61 197.876 149.85 197.978 150.054 198.182C150.258 198.386 150.36 198.626 150.36 198.902ZM150.216 209H148.47V201.89H150.216V209ZM158.876 205.436C158.876 206.552 158.534 207.464 157.85 208.172C157.166 208.88 156.266 209.234 155.15 209.234C154.046 209.234 153.146 208.88 152.45 208.172C151.754 207.464 151.406 206.558 151.406 205.454C151.406 204.338 151.748 203.426 152.432 202.718C153.116 202.01 154.016 201.656 155.132 201.656C156.248 201.656 157.148 202.01 157.832 202.718C158.528 203.414 158.876 204.32 158.876 205.436ZM153.17 205.472C153.17 206.132 153.356 206.672 153.728 207.092C154.1 207.512 154.58 207.722 155.168 207.722C155.756 207.722 156.224 207.5 156.572 207.056C156.932 206.6 157.112 206.066 157.112 205.454C157.112 204.83 156.932 204.296 156.572 203.852C156.212 203.396 155.738 203.168 155.15 203.168C154.574 203.168 154.1 203.384 153.728 203.816C153.356 204.248 153.17 204.8 153.17 205.472ZM161.187 205.616C161.187 206.3 161.337 206.864 161.637 207.308C161.937 207.752 162.351 207.974 162.879 207.974C163.707 207.974 164.235 207.566 164.463 206.75L166.119 207.02C165.579 208.496 164.499 209.234 162.879 209.234C161.799 209.234 160.935 208.892 160.287 208.208C159.651 207.512 159.333 206.612 159.333 205.508C159.333 204.344 159.639 203.414 160.251 202.718C160.875 202.01 161.715 201.656 162.771 201.656C163.839 201.656 164.667 201.992 165.255 202.664C165.855 203.324 166.155 204.23 166.155 205.382V205.616H161.187ZM164.535 204.644C164.535 204.152 164.379 203.72 164.067 203.348C163.767 202.976 163.371 202.79 162.879 202.79C162.399 202.79 162.003 202.988 161.691 203.384C161.391 203.768 161.241 204.188 161.241 204.644H164.535ZM171.939 203.744C171.495 203.3 170.997 203.078 170.445 203.078C169.797 203.078 169.287 203.312 168.915 203.78C168.543 204.248 168.357 204.824 168.357 205.508C168.357 206.18 168.567 206.732 168.987 207.164C169.407 207.596 169.917 207.812 170.517 207.812C171.033 207.812 171.507 207.584 171.939 207.128V208.802C171.435 209.09 170.853 209.234 170.193 209.234C169.161 209.234 168.303 208.868 167.619 208.136C166.935 207.404 166.593 206.51 166.593 205.454C166.593 204.398 166.941 203.504 167.637 202.772C168.345 202.028 169.227 201.656 170.283 201.656C170.907 201.656 171.459 201.806 171.939 202.106V203.744ZM180.181 205.436C180.181 206.552 179.839 207.464 179.155 208.172C178.471 208.88 177.571 209.234 176.455 209.234C175.351 209.234 174.451 208.88 173.755 208.172C173.059 207.464 172.711 206.558 172.711 205.454C172.711 204.338 173.053 203.426 173.737 202.718C174.421 202.01 175.321 201.656 176.437 201.656C177.553 201.656 178.453 202.01 179.137 202.718C179.833 203.414 180.181 204.32 180.181 205.436ZM174.475 205.472C174.475 206.132 174.661 206.672 175.033 207.092C175.405 207.512 175.885 207.722 176.473 207.722C177.061 207.722 177.529 207.5 177.877 207.056C178.237 206.6 178.417 206.066 178.417 205.454C178.417 204.83 178.237 204.296 177.877 203.852C177.517 203.396 177.043 203.168 176.455 203.168C175.879 203.168 175.405 203.384 175.033 203.816C174.661 204.248 174.475 204.8 174.475 205.472ZM182.888 202.538C183.38 201.95 184.106 201.656 185.066 201.656C186.698 201.656 187.514 202.658 187.514 204.662V209H185.786V205.238C185.786 203.738 185.324 202.988 184.4 202.988C183.392 202.988 182.888 203.792 182.888 205.4V209H181.142V201.89H182.888V202.538ZM195.948 205.436C195.948 206.552 195.606 207.464 194.922 208.172C194.238 208.88 193.338 209.234 192.222 209.234C191.118 209.234 190.218 208.88 189.522 208.172C188.826 207.464 188.478 206.558 188.478 205.454C188.478 204.338 188.82 203.426 189.504 202.718C190.188 202.01 191.088 201.656 192.204 201.656C193.32 201.656 194.22 202.01 194.904 202.718C195.6 203.414 195.948 204.32 195.948 205.436ZM190.242 205.472C190.242 206.132 190.428 206.672 190.8 207.092C191.172 207.512 191.652 207.722 192.24 207.722C192.828 207.722 193.296 207.5 193.644 207.056C194.004 206.6 194.184 206.066 194.184 205.454C194.184 204.83 194.004 204.296 193.644 203.852C193.284 203.396 192.81 203.168 192.222 203.168C191.646 203.168 191.172 203.384 190.8 203.816C190.428 204.248 190.242 204.8 190.242 205.472ZM198.655 202.52C199.099 201.944 199.783 201.656 200.707 201.656C201.511 201.656 202.147 202.028 202.615 202.772C203.071 202.028 203.809 201.656 204.829 201.656C206.329 201.656 207.079 202.628 207.079 204.572V209H205.351V205.256C205.351 203.744 204.937 202.988 204.109 202.988C203.281 202.988 202.867 203.828 202.867 205.508V209H201.121V205.4C201.121 203.792 200.755 202.988 200.023 202.988C199.111 202.988 198.655 203.828 198.655 205.508V209H196.909V201.89H198.655V202.52ZM210.688 198.902C210.688 199.178 210.586 199.418 210.382 199.622C210.178 199.826 209.938 199.928 209.662 199.928C209.386 199.928 209.146 199.826 208.942 199.622C208.738 199.418 208.636 199.178 208.636 198.902C208.636 198.626 208.738 198.386 208.942 198.182C209.146 197.978 209.386 197.876 209.662 197.876C209.938 197.876 210.178 197.978 210.382 198.182C210.586 198.386 210.688 198.626 210.688 198.902ZM210.544 209H208.798V201.89H210.544V209ZM217.062 203.744C216.618 203.3 216.12 203.078 215.568 203.078C214.92 203.078 214.41 203.312 214.038 203.78C213.666 204.248 213.48 204.824 213.48 205.508C213.48 206.18 213.69 206.732 214.11 207.164C214.53 207.596 215.04 207.812 215.64 207.812C216.156 207.812 216.63 207.584 217.062 207.128V208.802C216.558 209.09 215.976 209.234 215.316 209.234C214.284 209.234 213.426 208.868 212.742 208.136C212.058 207.404 211.716 206.51 211.716 205.454C211.716 204.398 212.064 203.504 212.76 202.772C213.468 202.028 214.35 201.656 215.406 201.656C216.03 201.656 216.582 201.806 217.062 202.106V203.744ZM34.704 223.436C34.704 224.552 34.362 225.464 33.678 226.172C32.994 226.88 32.094 227.234 30.978 227.234C29.874 227.234 28.974 226.88 28.278 226.172C27.582 225.464 27.234 224.558 27.234 223.454C27.234 222.338 27.576 221.426 28.26 220.718C28.944 220.01 29.844 219.656 30.96 219.656C32.076 219.656 32.976 220.01 33.66 220.718C34.356 221.414 34.704 222.32 34.704 223.436ZM28.998 223.472C28.998 224.132 29.184 224.672 29.556 225.092C29.928 225.512 30.408 225.722 30.996 225.722C31.584 225.722 32.052 225.5 32.4 225.056C32.76 224.6 32.94 224.066 32.94 223.454C32.94 222.83 32.76 222.296 32.4 221.852C32.04 221.396 31.566 221.168 30.978 221.168C30.402 221.168 29.928 221.384 29.556 221.816C29.184 222.248 28.998 222.8 28.998 223.472ZM37.5553 227H35.8093V214.706H37.5553V227ZM44.1322 226.334C43.6642 226.934 42.9262 227.234 41.9182 227.234C40.9102 227.234 40.1062 226.85 39.5062 226.082C38.9182 225.314 38.6242 224.414 38.6242 223.382C38.6242 222.35 38.9242 221.474 39.5242 220.754C40.1362 220.022 40.9162 219.656 41.8642 219.656C42.8722 219.656 43.6162 219.95 44.0962 220.538L44.1322 214.706H45.8782V227H44.1322V226.334ZM44.3302 223.436C44.3302 222.812 44.1382 222.278 43.7542 221.834C43.3702 221.39 42.9082 221.168 42.3682 221.168C41.8282 221.168 41.3602 221.39 40.9642 221.834C40.5802 222.266 40.3882 222.806 40.3882 223.454C40.3882 224.09 40.5742 224.63 40.9462 225.074C41.3302 225.506 41.8102 225.722 42.3862 225.722C42.9622 225.722 43.4302 225.512 43.7902 225.092C44.1502 224.66 44.3302 224.108 44.3302 223.436ZM48.6696 223.616C48.6696 224.3 48.8196 224.864 49.1196 225.308C49.4196 225.752 49.8336 225.974 50.3616 225.974C51.1896 225.974 51.7176 225.566 51.9456 224.75L53.6016 225.02C53.0616 226.496 51.9816 227.234 50.3616 227.234C49.2816 227.234 48.4176 226.892 47.7696 226.208C47.1336 225.512 46.8156 224.612 46.8156 223.508C46.8156 222.344 47.1216 221.414 47.7336 220.718C48.3576 220.01 49.1976 219.656 50.2536 219.656C51.3216 219.656 52.1496 219.992 52.7376 220.664C53.3376 221.324 53.6376 222.23 53.6376 223.382V223.616H48.6696ZM52.0176 222.644C52.0176 222.152 51.8616 221.72 51.5496 221.348C51.2496 220.976 50.8536 220.79 50.3616 220.79C49.8816 220.79 49.4856 220.988 49.1736 221.384C48.8736 221.768 48.7236 222.188 48.7236 222.644H52.0176ZM56.3254 220.628C56.7694 219.98 57.4654 219.656 58.4134 219.656C58.7134 219.656 58.9894 219.716 59.2414 219.836L59.0254 221.42C58.7614 221.252 58.4734 221.168 58.1614 221.168C56.9374 221.168 56.3254 222.044 56.3254 223.796V227H54.5794V219.89H56.3254V220.628ZM72.6317 227H70.9217V226.352C70.4177 226.94 69.6677 227.234 68.6717 227.234C67.6757 227.234 66.8777 226.85 66.2777 226.082C65.6897 225.314 65.3957 224.414 65.3957 223.382C65.3957 222.35 65.6957 221.474 66.2957 220.754C66.9077 220.022 67.6877 219.656 68.6357 219.656C69.6437 219.656 70.4057 219.956 70.9217 220.556V219.89H72.6317V227ZM71.1197 223.436C71.1197 222.776 70.9337 222.236 70.5617 221.816C70.1897 221.384 69.7097 221.168 69.1217 221.168C68.5457 221.168 68.0717 221.378 67.6997 221.798C67.3397 222.206 67.1597 222.752 67.1597 223.436C67.1597 224.12 67.3457 224.672 67.7177 225.092C68.0897 225.512 68.5697 225.722 69.1577 225.722C69.7457 225.722 70.2197 225.518 70.5797 225.11C70.9397 224.702 71.1197 224.144 71.1197 223.436ZM79.0951 226.334C78.6271 226.934 77.8891 227.234 76.8811 227.234C75.8731 227.234 75.0691 226.85 74.4691 226.082C73.8811 225.314 73.5871 224.414 73.5871 223.382C73.5871 222.35 73.8871 221.474 74.4871 220.754C75.0991 220.022 75.8791 219.656 76.8271 219.656C77.8351 219.656 78.5791 219.95 79.0591 220.538L79.0951 214.706H80.8411V227H79.0951V226.334ZM79.2931 223.436C79.2931 222.812 79.1011 222.278 78.7171 221.834C78.3331 221.39 77.8711 221.168 77.3311 221.168C76.7911 221.168 76.3231 221.39 75.9271 221.834C75.5431 222.266 75.3511 222.806 75.3511 223.454C75.3511 224.09 75.5371 224.63 75.9091 225.074C76.2931 225.506 76.7731 225.722 77.3491 225.722C77.9251 225.722 78.3931 225.512 78.7531 225.092C79.1131 224.66 79.2931 224.108 79.2931 223.436ZM83.9925 219.89V223.742C83.9925 225.122 84.4725 225.812 85.4325 225.812C86.3925 225.812 86.8725 225.122 86.8725 223.742V219.89H88.6185V224.066C88.6185 226.178 87.5565 227.234 85.4325 227.234C83.3085 227.234 82.2465 226.178 82.2465 224.066V219.89H83.9925ZM91.9245 227H90.1785V214.706H91.9245V227ZM95.6393 227H93.8933V221.456H93.0473V220.034H93.8933V217.478H95.6393V220.034H97.0253V221.456H95.6393V227ZM101.268 221.366C100.884 221.006 100.482 220.826 100.062 220.826C99.426 220.826 99.108 221.114 99.108 221.69C99.108 222.014 99.396 222.278 99.972 222.482C101.028 222.866 101.682 223.22 101.934 223.544C102.186 223.856 102.312 224.246 102.312 224.714C102.312 225.482 102.042 226.094 101.502 226.55C100.974 227.006 100.32 227.234 99.54 227.234C98.532 227.234 97.698 226.838 97.038 226.046L97.812 225.056C98.412 225.656 98.964 225.956 99.468 225.956C100.2 225.956 100.566 225.602 100.566 224.894C100.566 224.534 100.374 224.27 99.99 224.102C99.606 223.922 99.312 223.79 99.108 223.706C98.004 223.226 97.452 222.644 97.452 221.96C97.452 221.276 97.656 220.724 98.064 220.304C98.484 219.872 99.03 219.656 99.702 219.656C100.662 219.656 101.424 219.902 101.988 220.394L101.268 221.366ZM108.595 215.174C108.595 216.182 107.995 217.1 106.795 217.928L106.165 217.172C106.285 217.1 106.381 217.046 106.453 217.01C106.957 216.722 107.299 216.386 107.479 216.002C107.491 215.966 107.509 215.924 107.533 215.876H106.489V213.662H108.595V215.174ZM129.133 219.89V223.742C129.133 225.122 129.613 225.812 130.573 225.812C131.533 225.812 132.013 225.122 132.013 223.742V219.89H133.759V224.066C133.759 226.178 132.697 227.234 130.573 227.234C128.449 227.234 127.387 226.178 127.387 224.066V219.89H129.133ZM138.973 221.366C138.589 221.006 138.187 220.826 137.767 220.826C137.131 220.826 136.813 221.114 136.813 221.69C136.813 222.014 137.101 222.278 137.677 222.482C138.733 222.866 139.387 223.22 139.639 223.544C139.891 223.856 140.017 224.246 140.017 224.714C140.017 225.482 139.747 226.094 139.207 226.55C138.679 227.006 138.025 227.234 137.245 227.234C136.237 227.234 135.403 226.838 134.743 226.046L135.517 225.056C136.117 225.656 136.669 225.956 137.173 225.956C137.905 225.956 138.271 225.602 138.271 224.894C138.271 224.534 138.079 224.27 137.695 224.102C137.311 223.922 137.017 223.79 136.813 223.706C135.709 223.226 135.157 222.644 135.157 221.96C135.157 221.276 135.361 220.724 135.769 220.304C136.189 219.872 136.735 219.656 137.407 219.656C138.367 219.656 139.129 219.902 139.693 220.394L138.973 221.366ZM142.466 223.616C142.466 224.3 142.616 224.864 142.916 225.308C143.216 225.752 143.63 225.974 144.158 225.974C144.986 225.974 145.514 225.566 145.742 224.75L147.398 225.02C146.858 226.496 145.778 227.234 144.158 227.234C143.078 227.234 142.214 226.892 141.566 226.208C140.93 225.512 140.612 224.612 140.612 223.508C140.612 222.344 140.918 221.414 141.53 220.718C142.154 220.01 142.994 219.656 144.05 219.656C145.118 219.656 145.946 219.992 146.534 220.664C147.134 221.324 147.434 222.23 147.434 223.382V223.616H142.466ZM145.814 222.644C145.814 222.152 145.658 221.72 145.346 221.348C145.046 220.976 144.65 220.79 144.158 220.79C143.678 220.79 143.282 220.988 142.97 221.384C142.67 221.768 142.52 222.188 142.52 222.644H145.814ZM150.122 220.628C150.566 219.98 151.262 219.656 152.21 219.656C152.51 219.656 152.786 219.716 153.038 219.836L152.822 221.42C152.558 221.252 152.27 221.168 151.958 221.168C150.734 221.168 150.122 222.044 150.122 223.796V227H148.376V219.89H150.122V220.628ZM161.047 223.616C161.047 224.3 161.197 224.864 161.497 225.308C161.797 225.752 162.211 225.974 162.739 225.974C163.567 225.974 164.095 225.566 164.323 224.75L165.979 225.02C165.439 226.496 164.359 227.234 162.739 227.234C161.659 227.234 160.795 226.892 160.147 226.208C159.511 225.512 159.193 224.612 159.193 223.508C159.193 222.344 159.499 221.414 160.111 220.718C160.735 220.01 161.575 219.656 162.631 219.656C163.699 219.656 164.527 219.992 165.115 220.664C165.715 221.324 166.015 222.23 166.015 223.382V223.616H161.047ZM164.395 222.644C164.395 222.152 164.239 221.72 163.927 221.348C163.627 220.976 163.231 220.79 162.739 220.79C162.259 220.79 161.863 220.988 161.551 221.384C161.251 221.768 161.101 222.188 161.101 222.644H164.395ZM166.722 219.89H168.882L170.358 221.888L171.618 219.89H173.832L171.348 223.112L174.3 227H172.104L170.16 224.336L168.36 227H166.128L169.152 223.13L166.722 219.89ZM176.665 220.538C177.169 219.95 177.919 219.656 178.915 219.656C179.851 219.656 180.625 220.028 181.237 220.772C181.861 221.516 182.173 222.392 182.173 223.4C182.173 224.492 181.867 225.404 181.255 226.136C180.643 226.868 179.851 227.234 178.879 227.234C177.835 227.234 177.109 226.934 176.701 226.334L176.665 230.006H174.919V219.89H176.665V220.538ZM180.391 223.436C180.391 222.824 180.217 222.296 179.869 221.852C179.521 221.396 179.041 221.168 178.429 221.168C177.865 221.168 177.397 221.396 177.025 221.852C176.653 222.308 176.467 222.836 176.467 223.436C176.467 224.024 176.665 224.552 177.061 225.02C177.457 225.488 177.913 225.722 178.429 225.722C179.041 225.722 179.521 225.506 179.869 225.074C180.217 224.642 180.391 224.096 180.391 223.436ZM184.461 223.616C184.461 224.3 184.611 224.864 184.911 225.308C185.211 225.752 185.625 225.974 186.153 225.974C186.981 225.974 187.509 225.566 187.737 224.75L189.393 225.02C188.853 226.496 187.773 227.234 186.153 227.234C185.073 227.234 184.209 226.892 183.561 226.208C182.925 225.512 182.607 224.612 182.607 223.508C182.607 222.344 182.913 221.414 183.525 220.718C184.149 220.01 184.989 219.656 186.045 219.656C187.113 219.656 187.941 219.992 188.529 220.664C189.129 221.324 189.429 222.23 189.429 223.382V223.616H184.461ZM187.809 222.644C187.809 222.152 187.653 221.72 187.341 221.348C187.041 220.976 186.645 220.79 186.153 220.79C185.673 220.79 185.277 220.988 184.965 221.384C184.665 221.768 184.515 222.188 184.515 222.644H187.809ZM192.116 220.628C192.56 219.98 193.256 219.656 194.204 219.656C194.504 219.656 194.78 219.716 195.032 219.836L194.816 221.42C194.552 221.252 194.264 221.168 193.952 221.168C192.728 221.168 192.116 222.044 192.116 223.796V227H190.37V219.89H192.116V220.628ZM197.821 216.902C197.821 217.178 197.719 217.418 197.515 217.622C197.311 217.826 197.071 217.928 196.795 217.928C196.519 217.928 196.279 217.826 196.075 217.622C195.871 217.418 195.769 217.178 195.769 216.902C195.769 216.626 195.871 216.386 196.075 216.182C196.279 215.978 196.519 215.876 196.795 215.876C197.071 215.876 197.311 215.978 197.515 216.182C197.719 216.386 197.821 216.626 197.821 216.902ZM197.677 227H195.931V219.89H197.677V227ZM200.703 223.616C200.703 224.3 200.853 224.864 201.153 225.308C201.453 225.752 201.867 225.974 202.395 225.974C203.223 225.974 203.751 225.566 203.979 224.75L205.635 225.02C205.095 226.496 204.015 227.234 202.395 227.234C201.315 227.234 200.451 226.892 199.803 226.208C199.167 225.512 198.849 224.612 198.849 223.508C198.849 222.344 199.155 221.414 199.767 220.718C200.391 220.01 201.231 219.656 202.287 219.656C203.355 219.656 204.183 219.992 204.771 220.664C205.371 221.324 205.671 222.23 205.671 223.382V223.616H200.703ZM204.051 222.644C204.051 222.152 203.895 221.72 203.583 221.348C203.283 220.976 202.887 220.79 202.395 220.79C201.915 220.79 201.519 220.988 201.207 221.384C200.907 221.768 200.757 222.188 200.757 222.644H204.051ZM208.359 220.538C208.851 219.95 209.577 219.656 210.537 219.656C212.169 219.656 212.985 220.658 212.985 222.662V227H211.257V223.238C211.257 221.738 210.795 220.988 209.871 220.988C208.863 220.988 208.359 221.792 208.359 223.4V227H206.613V219.89H208.359V220.538ZM219.277 221.744C218.833 221.3 218.335 221.078 217.783 221.078C217.135 221.078 216.625 221.312 216.253 221.78C215.881 222.248 215.695 222.824 215.695 223.508C215.695 224.18 215.905 224.732 216.325 225.164C216.745 225.596 217.255 225.812 217.855 225.812C218.371 225.812 218.845 225.584 219.277 225.128V226.802C218.773 227.09 218.191 227.234 217.531 227.234C216.499 227.234 215.641 226.868 214.957 226.136C214.273 225.404 213.931 224.51 213.931 223.454C213.931 222.398 214.279 221.504 214.975 220.772C215.683 220.028 216.565 219.656 217.621 219.656C218.245 219.656 218.797 219.806 219.277 220.106V221.744ZM221.884 223.616C221.884 224.3 222.034 224.864 222.334 225.308C222.634 225.752 223.048 225.974 223.576 225.974C224.404 225.974 224.932 225.566 225.16 224.75L226.816 225.02C226.276 226.496 225.196 227.234 223.576 227.234C222.496 227.234 221.632 226.892 220.984 226.208C220.348 225.512 220.03 224.612 220.03 223.508C220.03 222.344 220.336 221.414 220.948 220.718C221.572 220.01 222.412 219.656 223.468 219.656C224.536 219.656 225.364 219.992 225.952 220.664C226.552 221.324 226.852 222.23 226.852 223.382V223.616H221.884ZM225.232 222.644C225.232 222.152 225.076 221.72 224.764 221.348C224.464 220.976 224.068 220.79 223.576 220.79C223.096 220.79 222.7 220.988 222.388 221.384C222.088 221.768 221.938 222.188 221.938 222.644H225.232ZM34.704 241.436C34.704 242.552 34.362 243.464 33.678 244.172C32.994 244.88 32.094 245.234 30.978 245.234C29.874 245.234 28.974 244.88 28.278 244.172C27.582 243.464 27.234 242.558 27.234 241.454C27.234 240.338 27.576 239.426 28.26 238.718C28.944 238.01 29.844 237.656 30.96 237.656C32.076 237.656 32.976 238.01 33.66 238.718C34.356 239.414 34.704 240.32 34.704 241.436ZM28.998 241.472C28.998 242.132 29.184 242.672 29.556 243.092C29.928 243.512 30.408 243.722 30.996 243.722C31.584 243.722 32.052 243.5 32.4 243.056C32.76 242.6 32.94 242.066 32.94 241.454C32.94 240.83 32.76 240.296 32.4 239.852C32.04 239.396 31.566 239.168 30.978 239.168C30.402 239.168 29.928 239.384 29.556 239.816C29.184 240.248 28.998 240.8 28.998 241.472ZM37.6273 245H35.8813V239.456H35.0533V238.034H35.8813V235.802C35.8813 233.63 36.7273 232.544 38.4193 232.544C38.7673 232.544 39.0913 232.622 39.3913 232.778V234.29C39.0793 234.134 38.8033 234.056 38.5633 234.056C38.2393 234.056 37.9993 234.176 37.8433 234.416C37.6993 234.644 37.6273 235.202 37.6273 236.09V238.034H39.3913V239.456H37.6273V245ZM49.8696 239.366C49.4856 239.006 49.0836 238.826 48.6636 238.826C48.0276 238.826 47.7096 239.114 47.7096 239.69C47.7096 240.014 47.9976 240.278 48.5736 240.482C49.6296 240.866 50.2836 241.22 50.5356 241.544C50.7876 241.856 50.9136 242.246 50.9136 242.714C50.9136 243.482 50.6436 244.094 50.1036 244.55C49.5756 245.006 48.9216 245.234 48.1416 245.234C47.1336 245.234 46.2996 244.838 45.6396 244.046L46.4136 243.056C47.0136 243.656 47.5656 243.956 48.0696 243.956C48.8016 243.956 49.1676 243.602 49.1676 242.894C49.1676 242.534 48.9756 242.27 48.5916 242.102C48.2076 241.922 47.9136 241.79 47.7096 241.706C46.6056 241.226 46.0536 240.644 46.0536 239.96C46.0536 239.276 46.2576 238.724 46.6656 238.304C47.0856 237.872 47.6316 237.656 48.3036 237.656C49.2636 237.656 50.0256 237.902 50.5896 238.394L49.8696 239.366ZM53.759 238.52C54.203 237.944 54.887 237.656 55.811 237.656C56.615 237.656 57.251 238.028 57.719 238.772C58.175 238.028 58.913 237.656 59.933 237.656C61.433 237.656 62.183 238.628 62.183 240.572V245H60.455V241.256C60.455 239.744 60.041 238.988 59.213 238.988C58.385 238.988 57.971 239.828 57.971 241.508V245H56.225V241.4C56.225 239.792 55.859 238.988 55.127 238.988C54.215 238.988 53.759 239.828 53.759 241.508V245H52.013V237.89H53.759V238.52ZM70.3817 245H68.6717V244.352C68.1677 244.94 67.4177 245.234 66.4217 245.234C65.4257 245.234 64.6277 244.85 64.0277 244.082C63.4397 243.314 63.1457 242.414 63.1457 241.382C63.1457 240.35 63.4457 239.474 64.0457 238.754C64.6577 238.022 65.4377 237.656 66.3857 237.656C67.3937 237.656 68.1557 237.956 68.6717 238.556V237.89H70.3817V245ZM68.8697 241.436C68.8697 240.776 68.6837 240.236 68.3117 239.816C67.9397 239.384 67.4597 239.168 66.8717 239.168C66.2957 239.168 65.8217 239.378 65.4497 239.798C65.0897 240.206 64.9097 240.752 64.9097 241.436C64.9097 242.12 65.0957 242.672 65.4677 243.092C65.8397 243.512 66.3197 243.722 66.9077 243.722C67.4957 243.722 67.9697 243.518 68.3297 243.11C68.6897 242.702 68.8697 242.144 68.8697 241.436ZM73.5871 238.628C74.0311 237.98 74.7271 237.656 75.6751 237.656C75.9751 237.656 76.2511 237.716 76.5031 237.836L76.2871 239.42C76.0231 239.252 75.7351 239.168 75.4231 239.168C74.1991 239.168 73.5871 240.044 73.5871 241.796V245H71.8411V237.89H73.5871V238.628ZM79.2917 245H77.5457V239.456H76.6997V238.034H77.5457V235.478H79.2917V238.034H80.6777V239.456H79.2917V245ZM92.1381 244.334C91.6701 244.934 90.9321 245.234 89.9241 245.234C88.9161 245.234 88.1121 244.85 87.5121 244.082C86.9241 243.314 86.6301 242.414 86.6301 241.382C86.6301 240.35 86.9301 239.474 87.5301 238.754C88.1421 238.022 88.9221 237.656 89.8701 237.656C90.8781 237.656 91.6221 237.95 92.1021 238.538L92.1381 232.706H93.8841V245H92.1381V244.334ZM92.3361 241.436C92.3361 240.812 92.1441 240.278 91.7601 239.834C91.3761 239.39 90.9141 239.168 90.3741 239.168C89.8341 239.168 89.3661 239.39 88.9701 239.834C88.5861 240.266 88.3941 240.806 88.3941 241.454C88.3941 242.09 88.5801 242.63 88.9521 243.074C89.3361 243.506 89.8161 243.722 90.3921 243.722C90.9681 243.722 91.4361 243.512 91.7961 243.092C92.1561 242.66 92.3361 242.108 92.3361 241.436ZM96.6755 241.616C96.6755 242.3 96.8255 242.864 97.1255 243.308C97.4255 243.752 97.8395 243.974 98.3675 243.974C99.1955 243.974 99.7235 243.566 99.9515 242.75L101.607 243.02C101.067 244.496 99.9875 245.234 98.3675 245.234C97.2875 245.234 96.4235 244.892 95.7755 244.208C95.1395 243.512 94.8215 242.612 94.8215 241.508C94.8215 240.344 95.1275 239.414 95.7395 238.718C96.3635 238.01 97.2035 237.656 98.2595 237.656C99.3275 237.656 100.155 237.992 100.743 238.664C101.343 239.324 101.643 240.23 101.643 241.382V241.616H96.6755ZM100.023 240.644C100.023 240.152 99.8675 239.72 99.5555 239.348C99.2555 238.976 98.8595 238.79 98.3675 238.79C97.8875 238.79 97.4915 238.988 97.1795 239.384C96.8795 239.768 96.7295 240.188 96.7295 240.644H100.023ZM105.501 242.39L107.247 237.89H109.191L105.915 245.144H104.871L101.613 237.89H103.539L105.501 242.39ZM111.794 234.902C111.794 235.178 111.692 235.418 111.488 235.622C111.284 235.826 111.044 235.928 110.768 235.928C110.492 235.928 110.252 235.826 110.048 235.622C109.844 235.418 109.742 235.178 109.742 234.902C109.742 234.626 109.844 234.386 110.048 234.182C110.252 233.978 110.492 233.876 110.768 233.876C111.044 233.876 111.284 233.978 111.488 234.182C111.692 234.386 111.794 234.626 111.794 234.902ZM111.65 245H109.904V237.89H111.65V245ZM118.167 239.744C117.723 239.3 117.225 239.078 116.673 239.078C116.025 239.078 115.515 239.312 115.143 239.78C114.771 240.248 114.585 240.824 114.585 241.508C114.585 242.18 114.795 242.732 115.215 243.164C115.635 243.596 116.145 243.812 116.745 243.812C117.261 243.812 117.735 243.584 118.167 243.128V244.802C117.663 245.09 117.081 245.234 116.421 245.234C115.389 245.234 114.531 244.868 113.847 244.136C113.163 243.404 112.821 242.51 112.821 241.454C112.821 240.398 113.169 239.504 113.865 238.772C114.573 238.028 115.455 237.656 116.511 237.656C117.135 237.656 117.687 237.806 118.167 238.106V239.744ZM120.775 241.616C120.775 242.3 120.925 242.864 121.225 243.308C121.525 243.752 121.939 243.974 122.467 243.974C123.295 243.974 123.823 243.566 124.051 242.75L125.707 243.02C125.167 244.496 124.087 245.234 122.467 245.234C121.387 245.234 120.523 244.892 119.875 244.208C119.239 243.512 118.921 242.612 118.921 241.508C118.921 240.344 119.227 239.414 119.839 238.718C120.463 238.01 121.303 237.656 122.359 237.656C123.427 237.656 124.255 237.992 124.843 238.664C125.443 239.324 125.743 240.23 125.743 241.382V241.616H120.775ZM124.123 240.644C124.123 240.152 123.967 239.72 123.655 239.348C123.355 238.976 122.959 238.79 122.467 238.79C121.987 238.79 121.591 238.988 121.279 239.384C120.979 239.768 120.829 240.188 120.829 240.644H124.123ZM130.483 239.366C130.099 239.006 129.697 238.826 129.277 238.826C128.641 238.826 128.323 239.114 128.323 239.69C128.323 240.014 128.611 240.278 129.187 240.482C130.243 240.866 130.897 241.22 131.149 241.544C131.401 241.856 131.527 242.246 131.527 242.714C131.527 243.482 131.257 244.094 130.717 244.55C130.189 245.006 129.535 245.234 128.755 245.234C127.747 245.234 126.913 244.838 126.253 244.046L127.027 243.056C127.627 243.656 128.179 243.956 128.683 243.956C129.415 243.956 129.781 243.602 129.781 242.894C129.781 242.534 129.589 242.27 129.205 242.102C128.821 241.922 128.527 241.79 128.323 241.706C127.219 241.226 126.667 240.644 126.667 239.96C126.667 239.276 126.871 238.724 127.279 238.304C127.699 237.872 128.245 237.656 128.917 237.656C129.877 237.656 130.639 237.902 131.203 238.394L130.483 239.366ZM135.29 243.974C135.29 244.334 135.164 244.646 134.912 244.91C134.672 245.162 134.372 245.288 134.012 245.288C133.652 245.288 133.346 245.162 133.094 244.91C132.842 244.658 132.716 244.358 132.716 244.01C132.716 243.65 132.842 243.344 133.094 243.092C133.346 242.84 133.646 242.714 133.994 242.714C134.354 242.714 134.66 242.834 134.912 243.074C135.164 243.314 135.29 243.614 135.29 243.974Z" fill="white"/>
<path d="M221.758 292.434V294H214.414L217.186 290.49C218.506 288.858 219.28 287.838 219.508 287.43C219.748 287.01 219.868 286.668 219.868 286.404C219.88 286.332 219.886 286.26 219.886 286.188C219.886 285.708 219.724 285.282 219.4 284.91C219.088 284.538 218.674 284.352 218.158 284.352C217.642 284.352 217.234 284.562 216.934 284.982C216.646 285.402 216.502 285.912 216.502 286.512H214.558C214.558 285.432 214.876 284.544 215.512 283.848C216.16 283.14 217.036 282.786 218.14 282.786C219.136 282.786 219.976 283.122 220.66 283.794C221.344 284.466 221.686 285.306 221.686 286.314C221.686 287.262 220.96 288.582 219.508 290.274L217.654 292.434H221.758ZM230.467 288.546C230.467 290.13 230.119 291.486 229.423 292.614C228.727 293.73 227.767 294.288 226.543 294.288C225.331 294.288 224.377 293.724 223.681 292.596C222.985 291.468 222.637 290.118 222.637 288.546C222.637 286.914 222.985 285.546 223.681 284.442C224.389 283.338 225.349 282.786 226.561 282.786C227.773 282.786 228.727 283.35 229.423 284.478C230.119 285.594 230.467 286.95 230.467 288.546ZM224.437 288.528C224.437 289.632 224.629 290.61 225.013 291.462C225.397 292.302 225.919 292.722 226.579 292.722C227.239 292.722 227.749 292.326 228.109 291.534C228.481 290.742 228.667 289.74 228.667 288.528C228.667 287.412 228.475 286.44 228.091 285.612C227.707 284.772 227.191 284.352 226.543 284.352C225.907 284.352 225.397 284.79 225.013 285.666C224.629 286.53 224.437 287.484 224.437 288.528ZM238.492 292.434V294H231.148L233.92 290.49C235.24 288.858 236.014 287.838 236.242 287.43C236.482 287.01 236.602 286.668 236.602 286.404C236.614 286.332 236.62 286.26 236.62 286.188C236.62 285.708 236.458 285.282 236.134 284.91C235.822 284.538 235.408 284.352 234.892 284.352C234.376 284.352 233.968 284.562 233.668 284.982C233.38 285.402 233.236 285.912 233.236 286.512H231.292C231.292 285.432 231.61 284.544 232.246 283.848C232.894 283.14 233.77 282.786 234.874 282.786C235.87 282.786 236.71 283.122 237.394 283.794C238.078 284.466 238.42 285.306 238.42 286.314C238.42 287.262 237.694 288.582 236.242 290.274L234.388 292.434H238.492ZM239.948 285.936C240.044 284.964 240.386 284.196 240.974 283.632C241.562 283.068 242.33 282.786 243.278 282.786C244.238 282.786 245.006 283.062 245.582 283.614C246.158 284.166 246.446 284.916 246.446 285.864C246.446 286.92 246.098 287.682 245.402 288.15C246.338 288.558 246.806 289.446 246.806 290.814C246.806 291.87 246.464 292.716 245.78 293.352C245.108 293.976 244.238 294.288 243.17 294.288C242.174 294.288 241.322 293.958 240.614 293.298C239.906 292.638 239.552 291.822 239.552 290.85H241.406C241.406 291.378 241.58 291.822 241.928 292.182C242.276 292.542 242.714 292.722 243.242 292.722C243.782 292.722 244.208 292.524 244.52 292.128C244.844 291.732 245.006 291.252 245.006 290.688C245.006 290.22 244.832 289.788 244.484 289.392C244.148 288.984 243.764 288.78 243.332 288.78C243.284 288.78 243.236 288.786 243.188 288.798L242.792 288.834V287.592H243.026C243.482 287.592 243.872 287.436 244.196 287.124C244.532 286.8 244.7 286.404 244.7 285.936C244.7 284.82 244.196 284.262 243.188 284.262C242.192 284.262 241.694 284.82 241.694 285.936H239.948Z" fill="white"/>
<path d="M54 60C54 59.6022 53.842 59.2206 53.5607 58.9393C53.2794 58.658 52.8978 58.5 52.5 58.5C52.1022 58.5 51.7206 58.658 51.4393 58.9393C51.158 59.2206 51 59.6022 51 60V69H45C44.6022 69 44.2206 69.158 43.9393 69.4393C43.658 69.7206 43.5 70.1022 43.5 70.5C43.5 70.8978 43.658 71.2794 43.9393 71.5607C44.2206 71.842 44.6022 72 45 72H52.5C52.8978 72 53.2794 71.842 53.5607 71.5607C53.842 71.2794 54 70.8978 54 70.5V60Z" fill="white"/>
<path d="M39 50.001V51.15C37.306 51.4958 35.7834 52.4163 34.69 53.7556C33.5967 55.095 32.9996 56.771 33 58.5V79.5C32.9996 81.229 33.5967 82.905 34.69 84.2444C35.7834 85.5837 37.306 86.5042 39 86.85V87.999C39 90.759 41.238 93 44.001 93H57.999C60.759 93 63 90.762 63 87.999V86.85C64.694 86.5042 66.2166 85.5837 67.31 84.2444C68.4033 82.905 69.0004 81.229 69 79.5V69H70.5C70.8978 69 71.2794 68.842 71.5607 68.5607C71.842 68.2794 72 67.8978 72 67.5V61.5C72 61.1022 71.842 60.7206 71.5607 60.4393C71.2794 60.158 70.8978 60 70.5 60H69V58.5C69.0004 56.771 68.4033 55.095 67.31 53.7556C66.2166 52.4163 64.694 51.4958 63 51.15V50.001C63 47.241 60.762 45 57.999 45H44.001C41.241 45 39 47.238 39 50.001ZM40.5 54H61.5C62.6935 54 63.8381 54.4741 64.682 55.318C65.5259 56.1619 66 57.3065 66 58.5V79.5C66 80.6935 65.5259 81.8381 64.682 82.682C63.8381 83.5259 62.6935 84 61.5 84H40.5C39.3065 84 38.1619 83.5259 37.318 82.682C36.4741 81.8381 36 80.6935 36 79.5V58.5C36 57.3065 36.4741 56.1619 37.318 55.318C38.1619 54.4741 39.3065 54 40.5 54Z" fill="white"/>
</svg>
