<svg width="270" height="316" viewBox="0 0 270 316" fill="none" xmlns="http://www.w3.org/2000/svg">
<rect width="270" height="316" rx="11" transform="matrix(1 0 0 -1 0 316)" fill="black"/>
<path d="M35.024 105.184L31.376 115.192H30.776L27.344 105.136L25.688 115H23.216L25.664 100.048H27.488L31.28 110.056L34.904 100.048H36.752L38.936 115H36.464L35.024 105.184ZM41.9084 110.488C41.9084 111.4 42.1084 112.152 42.5084 112.744C42.9084 113.336 43.4604 113.632 44.1644 113.632C45.2684 113.632 45.9724 113.088 46.2764 112L48.4844 112.36C47.7644 114.328 46.3244 115.312 44.1644 115.312C42.7244 115.312 41.5724 114.856 40.7084 113.944C39.8604 113.016 39.4364 111.816 39.4364 110.344C39.4364 108.792 39.8444 107.552 40.6604 106.624C41.4924 105.68 42.6124 105.208 44.0204 105.208C45.4444 105.208 46.5484 105.656 47.3324 106.552C48.1324 107.432 48.5324 108.64 48.5324 110.176V110.488H41.9084ZM46.3724 109.192C46.3724 108.536 46.1644 107.96 45.7484 107.464C45.3484 106.968 44.8204 106.72 44.1644 106.72C43.5244 106.72 42.9964 106.984 42.5804 107.512C42.1804 108.024 41.9804 108.584 41.9804 109.192H46.3724ZM52.1161 106.384C52.7721 105.6 53.7401 105.208 55.0201 105.208C57.1961 105.208 58.2841 106.544 58.2841 109.216V115H55.9801V109.984C55.9801 107.984 55.3641 106.984 54.1321 106.984C52.7881 106.984 52.1161 108.056 52.1161 110.2V115H49.7881V105.52H52.1161V106.384ZM63.0738 115H60.7458V107.608H59.6178V105.712H60.7458V102.304H63.0738V105.712H64.9218V107.608H63.0738V115ZM74.8267 110.248C74.8267 111.736 74.3707 112.952 73.4587 113.896C72.5467 114.84 71.3467 115.312 69.8587 115.312C68.3867 115.312 67.1867 114.84 66.2587 113.896C65.3307 112.952 64.8667 111.744 64.8667 110.272C64.8667 108.784 65.3227 107.568 66.2347 106.624C67.1467 105.68 68.3467 105.208 69.8347 105.208C71.3227 105.208 72.5227 105.68 73.4347 106.624C74.3627 107.552 74.8267 108.76 74.8267 110.248ZM67.2187 110.296C67.2187 111.176 67.4667 111.896 67.9627 112.456C68.4587 113.016 69.0987 113.296 69.8827 113.296C70.6667 113.296 71.2907 113 71.7547 112.408C72.2347 111.8 72.4747 111.088 72.4747 110.272C72.4747 109.44 72.2347 108.728 71.7547 108.136C71.2747 107.528 70.6427 107.224 69.8587 107.224C69.0907 107.224 68.4587 107.512 67.9627 108.088C67.4667 108.664 67.2187 109.4 67.2187 110.296ZM78.4364 106.504C79.0284 105.64 79.9564 105.208 81.2204 105.208C81.6204 105.208 81.9884 105.288 82.3244 105.448L82.0364 107.56C81.6844 107.336 81.3004 107.224 80.8844 107.224C79.2524 107.224 78.4364 108.392 78.4364 110.728V115H76.1084V105.52H78.4364V106.504ZM83.2586 100.048H85.1306L93.3626 111.016L93.4106 100.432H95.8586V115.288H94.0106L85.7546 104.344L85.7306 115H83.2586V100.048ZM99.6584 110.488C99.6584 111.4 99.8584 112.152 100.258 112.744C100.658 113.336 101.21 113.632 101.914 113.632C103.018 113.632 103.722 113.088 104.026 112L106.234 112.36C105.514 114.328 104.074 115.312 101.914 115.312C100.474 115.312 99.3224 114.856 98.4584 113.944C97.6104 113.016 97.1864 111.816 97.1864 110.344C97.1864 108.792 97.5944 107.552 98.4104 106.624C99.2424 105.68 100.362 105.208 101.77 105.208C103.194 105.208 104.298 105.656 105.082 106.552C105.882 107.432 106.282 108.64 106.282 110.176V110.488H99.6584ZM104.122 109.192C104.122 108.536 103.914 107.96 103.498 107.464C103.098 106.968 102.57 106.72 101.914 106.72C101.274 106.72 100.746 106.984 100.33 107.512C99.9304 108.024 99.7304 108.584 99.7304 109.192H104.122ZM110.394 115H108.066V107.608H106.938V105.712H108.066V102.304H110.394V105.712H112.242V107.608H110.394V115Z" fill="white"/>
<path fill-rule="evenodd" clip-rule="evenodd" d="M46.1133 29.2965C46.1503 29.6176 45.9198 29.9079 45.5986 29.9449L26.391 32.1526C26.0698 32.1895 25.7795 31.9591 25.7426 31.6379C25.7057 31.3168 25.9361 31.0265 26.2573 30.9896L45.465 28.7818C45.7861 28.7449 46.0764 28.9753 46.1133 29.2965Z" fill="white"/>
<path fill-rule="evenodd" clip-rule="evenodd" d="M35.1641 52.2927C35.2996 52.5862 35.1715 52.934 34.8779 53.0695L26.8092 56.7935C26.5157 56.929 26.1679 56.8009 26.0324 56.5073C25.8969 56.2138 26.0251 55.866 26.3186 55.7305L34.3873 52.0065C34.6809 51.871 35.0286 51.9992 35.1641 52.2927Z" fill="white"/>
<path fill-rule="evenodd" clip-rule="evenodd" d="M63.6079 52.2592C63.2936 52.1834 63.1002 51.8672 63.1759 51.553L67.5846 33.257C67.6603 32.9427 67.9765 32.7493 68.2908 32.825C68.6051 32.9008 68.7985 33.2169 68.7227 33.5312L64.3141 51.8272C64.2383 52.1415 63.9222 52.3349 63.6079 52.2592Z" fill="white"/>
<path fill-rule="evenodd" clip-rule="evenodd" d="M35.4093 52.7074C35.4093 52.3841 35.6714 52.122 35.9947 52.122L62.4532 52.122C62.7765 52.122 63.0386 52.3841 63.0386 52.7074C63.0386 53.0306 62.7765 53.2927 62.4532 53.2927H35.9947C35.6714 53.2927 35.4093 53.0306 35.4093 52.7074Z" fill="white"/>
<path fill-rule="evenodd" clip-rule="evenodd" d="M35.212 52.4194C34.9335 52.2551 34.841 51.8962 35.0053 51.6178L48.225 29.2115C48.3893 28.9331 48.7482 28.8405 49.0266 29.0048C49.305 29.1691 49.3976 29.528 49.2333 29.8064L36.0136 52.2127C35.8493 52.4911 35.4904 52.5837 35.212 52.4194Z" fill="white"/>
<path fill-rule="evenodd" clip-rule="evenodd" d="M35.2393 51.8777C34.9455 52.0126 34.598 51.8836 34.4632 51.5898L25.8197 32.7515C25.6849 32.4576 25.8138 32.1101 26.1076 31.9753C26.4014 31.8405 26.7489 31.9694 26.8838 32.2632L35.5272 51.1016C35.6621 51.3954 35.5331 51.7429 35.2393 51.8777Z" fill="white"/>
<path fill-rule="evenodd" clip-rule="evenodd" d="M63.5326 51.8067C63.2602 51.9808 62.8983 51.9012 62.7242 51.6288L48.8376 29.903C48.6635 29.6306 48.7432 29.2687 49.0156 29.0946C49.288 28.9204 49.6499 29.0001 49.824 29.2725L63.7106 50.9982C63.8847 51.2706 63.805 51.6326 63.5326 51.8067Z" fill="white"/>
<path fill-rule="evenodd" clip-rule="evenodd" d="M63.3382 52.5458C63.5612 52.3117 63.9317 52.3026 64.1658 52.5256L68.2351 56.4011C68.4692 56.6241 68.4782 56.9946 68.2553 57.2287C68.0323 57.4628 67.6618 57.4718 67.4277 57.2489L63.3584 53.3734C63.1243 53.1504 63.1152 52.7799 63.3382 52.5458Z" fill="white"/>
<path fill-rule="evenodd" clip-rule="evenodd" d="M62.622 52.4133C62.8522 52.6403 62.8549 53.0109 62.6279 53.2411L47.0596 69.0318C46.8326 69.262 46.462 69.2647 46.2318 69.0377C46.0016 68.8107 45.9989 68.4401 46.2259 68.2099L61.7942 52.4192C62.0212 52.189 62.3918 52.1863 62.622 52.4133Z" fill="white"/>
<path fill-rule="evenodd" clip-rule="evenodd" d="M34.9164 52.4369C35.1888 52.2629 35.5508 52.3426 35.7249 52.6151L45.8653 68.487C46.0393 68.7594 45.9596 69.1214 45.6871 69.2954C45.4147 69.4695 45.0527 69.3897 44.8787 69.1173L34.7383 53.2454C34.5642 52.9729 34.644 52.611 34.9164 52.4369Z" fill="white"/>
<path fill-rule="evenodd" clip-rule="evenodd" d="M67.8358 32.5818C67.7731 32.899 67.4653 33.1053 67.1481 33.0427L49.3308 29.5232C49.0136 29.4606 48.8073 29.1527 48.87 28.8355C48.9326 28.5183 49.2405 28.312 49.5577 28.3747L67.375 31.8941C67.6921 31.9568 67.8984 32.2647 67.8358 32.5818Z" fill="white"/>
<path fill-rule="evenodd" clip-rule="evenodd" d="M46.352 20.0077C46.516 20.2863 46.4229 20.6451 46.1443 20.809L27.251 31.9227C26.9723 32.0867 26.6135 31.9936 26.4496 31.715C26.2857 31.4363 26.3787 31.0776 26.6574 30.9137L45.5507 19.7999C45.8294 19.636 46.1881 19.729 46.352 20.0077Z" fill="white"/>
<path fill-rule="evenodd" clip-rule="evenodd" d="M46.0863 19.9726C46.3968 19.8827 46.7214 20.0616 46.8113 20.3722L49.0614 28.1451C49.1513 28.4557 48.9724 28.7803 48.6619 28.8702C48.3514 28.9601 48.0267 28.7812 47.9368 28.4707L45.6868 20.6977C45.5969 20.3871 45.7757 20.0625 46.0863 19.9726Z" fill="white"/>
<path fill-rule="evenodd" clip-rule="evenodd" d="M46.2313 20.3358C46.4616 20.5626 46.4645 20.9332 46.2376 21.1636L31.8396 35.7831C31.6127 36.0134 31.2421 36.0163 31.0118 35.7894C30.7815 35.5626 30.7786 35.1919 31.0055 34.9616L45.4035 20.3421C45.6303 20.1117 46.0009 20.1089 46.2313 20.3358Z" fill="white"/>
<path fill-rule="evenodd" clip-rule="evenodd" d="M25.6927 31.5278C26.0159 31.5218 26.2828 31.779 26.2888 32.1022L26.7354 56.2195C26.7414 56.5427 26.4842 56.8096 26.1609 56.8156C25.8377 56.8216 25.5708 56.5644 25.5648 56.2412L25.1182 32.1239C25.1122 31.8007 25.3694 31.5338 25.6927 31.5278Z" fill="white"/>
<path fill-rule="evenodd" clip-rule="evenodd" d="M30.858 36.0718C31.1735 36.1427 31.3717 36.4558 31.3008 36.7713L26.8746 56.468C26.8037 56.7835 26.4905 56.9817 26.1751 56.9108C25.8597 56.8399 25.6615 56.5268 25.7323 56.2113L30.1586 36.5146C30.2295 36.1992 30.5426 36.0009 30.858 36.0718Z" fill="white"/>
<path fill-rule="evenodd" clip-rule="evenodd" d="M26.4539 57.5461C26.6154 57.266 26.9733 57.1698 27.2534 57.3313L46.1415 68.2198C46.4216 68.3812 46.5178 68.7392 46.3563 69.0192C46.1949 69.2993 45.8369 69.3955 45.5568 69.234L26.6687 58.3456C26.3886 58.1841 26.2924 57.8262 26.4539 57.5461Z" fill="white"/>
<path fill-rule="evenodd" clip-rule="evenodd" d="M57.6536 36.0829C57.6536 36.4062 57.3915 36.6683 57.0682 36.6683H31.5463C31.223 36.6683 30.9609 36.4062 30.9609 36.0829C30.9609 35.7596 31.223 35.4976 31.5463 35.4976H57.0682C57.3915 35.4976 57.6536 35.7596 57.6536 36.0829Z" fill="white"/>
<path fill-rule="evenodd" clip-rule="evenodd" d="M68.0126 32.8325C68.1107 33.1406 67.9404 33.4698 67.6323 33.5678L58.4455 36.4909C58.1374 36.5889 57.8082 36.4186 57.7102 36.1105C57.6122 35.8025 57.7825 35.4733 58.0905 35.3752L67.2773 32.4522C67.5854 32.3542 67.9146 32.5244 68.0126 32.8325Z" fill="white"/>
<path fill-rule="evenodd" clip-rule="evenodd" d="M68.0272 32.8907C67.8586 33.1666 67.4983 33.2535 67.2225 33.0849L47.1483 20.8174C46.8724 20.6488 46.7855 20.2885 46.954 20.0127C47.1226 19.7368 47.4829 19.6498 47.7588 19.8184L67.8329 32.086C68.1088 32.2546 68.1958 32.6148 68.0272 32.8907Z" fill="white"/>
<path fill-rule="evenodd" clip-rule="evenodd" d="M57.3797 36.3778C57.6604 36.5382 57.7579 36.8958 57.5975 37.1765L45.0662 59.1063C44.9058 59.387 44.5482 59.4845 44.2675 59.3241C43.9868 59.1637 43.8893 58.8061 44.0497 58.5255L56.581 36.5956C56.7414 36.3149 57.099 36.2174 57.3797 36.3778Z" fill="white"/>
<path fill-rule="evenodd" clip-rule="evenodd" d="M44.3447 59.0863C44.0653 59.2489 43.707 59.1541 43.5444 58.8746L30.7867 36.9403C30.6242 36.6609 30.7189 36.3026 30.9984 36.14C31.2779 35.9775 31.6362 36.0722 31.7987 36.3517L44.5564 58.286C44.719 58.5655 44.6242 58.9238 44.3447 59.0863Z" fill="white"/>
<path fill-rule="evenodd" clip-rule="evenodd" d="M31.3404 36.2222C31.1311 36.4685 30.7616 36.4984 30.5153 36.2891L26.7244 33.0668C26.4781 32.8574 26.4481 32.488 26.6575 32.2417C26.8669 31.9953 27.2363 31.9654 27.4826 32.1748L31.2735 35.397C31.5199 35.6064 31.5498 35.9758 31.3404 36.2222Z" fill="white"/>
<path fill-rule="evenodd" clip-rule="evenodd" d="M44.3831 59.5025C44.3414 59.8231 44.0478 60.0493 43.7272 60.0076L26.8589 57.8169C26.5383 57.7753 26.3122 57.4817 26.3538 57.1611C26.3954 56.8405 26.6891 56.6143 27.0097 56.656L43.878 58.8466C44.1986 58.8883 44.4247 59.1819 44.3831 59.5025Z" fill="white"/>
<path fill-rule="evenodd" clip-rule="evenodd" d="M68.136 57.1814C68.1672 57.5032 67.9317 57.7894 67.6099 57.8206L44.8901 60.0264C44.5683 60.0577 44.2821 59.8221 44.2509 59.5004C44.2197 59.1786 44.4552 58.8924 44.777 58.8612L67.4968 56.6553C67.8186 56.6241 68.1048 56.8596 68.136 57.1814Z" fill="white"/>
<path fill-rule="evenodd" clip-rule="evenodd" d="M68.0732 32.6876C68.3964 32.6876 68.6585 32.9497 68.6585 33.273L68.6585 56.4535C68.6585 56.7767 68.3964 57.0388 68.0732 57.0388C67.7499 57.0388 67.4878 56.7767 67.4878 56.4535L67.4878 33.273C67.4878 32.9497 67.7499 32.6876 68.0732 32.6876Z" fill="white"/>
<path fill-rule="evenodd" clip-rule="evenodd" d="M68.3786 57.2272C68.533 57.5112 68.4278 57.8666 68.1438 58.021L47.631 69.1693C47.3469 69.3237 46.9915 69.2185 46.8371 68.9345C46.6828 68.6504 46.7879 68.295 47.0719 68.1406L67.5847 56.9924C67.8688 56.838 68.2242 56.9431 68.3786 57.2272Z" fill="white"/>
<path fill-rule="evenodd" clip-rule="evenodd" d="M46.5172 68.852C46.2018 68.923 45.8886 68.7248 45.8176 68.4094L43.9673 60.1857C43.8963 59.8703 44.0945 59.5571 44.4099 59.4862C44.7253 59.4152 45.0385 59.6134 45.1095 59.9288L46.9598 68.1524C47.0307 68.4678 46.8326 68.781 46.5172 68.852Z" fill="white"/>
<path d="M33.7709 36.1999C33.7709 37.7517 32.5129 39.0096 30.9611 39.0096C29.4093 39.0096 28.1514 37.7517 28.1514 36.1999C28.1514 34.6481 29.4093 33.3901 30.9611 33.3901C32.5129 33.3901 33.7709 34.6481 33.7709 36.1999Z" fill="white"/>
<path d="M51.3314 28.7072C51.3314 30.259 50.0735 31.517 48.5217 31.517C46.9699 31.517 45.7119 30.259 45.7119 28.7072C45.7119 27.1554 46.9699 25.8975 48.5217 25.8975C50.0735 25.8975 51.3314 27.1554 51.3314 28.7072Z" fill="white"/>
<path d="M38.2196 52.122C38.2196 53.6738 36.9616 54.9318 35.4099 54.9318C33.8581 54.9318 32.6001 53.6738 32.6001 52.122C32.6001 50.5702 33.8581 49.3123 35.4099 49.3123C36.9616 49.3123 38.2196 50.5702 38.2196 52.122Z" fill="white"/>
<path d="M65.8485 52.122C65.8485 53.6738 64.5905 54.9318 63.0388 54.9318C61.487 54.9318 60.229 53.6738 60.229 52.122C60.229 50.5702 61.487 49.3123 63.0388 49.3123C64.5905 49.3123 65.8485 50.5702 65.8485 52.122Z" fill="white"/>
<path fill-rule="evenodd" clip-rule="evenodd" d="M57.3667 36.2322C57.6546 36.0851 58.0072 36.1992 58.1544 36.487L68.3923 56.5177C68.5394 56.8056 68.4253 57.1582 68.1374 57.3054C67.8496 57.4525 67.4969 57.3384 67.3498 57.0505L57.1119 37.0199C56.9648 36.732 57.0789 36.3794 57.3667 36.2322Z" fill="white"/>
<path d="M28.6195 31.517C28.6195 33.0688 27.3615 34.3268 25.8098 34.3268C24.258 34.3268 23 33.0688 23 31.517C23 29.9652 24.258 28.7073 25.8098 28.7073C27.3615 28.7073 28.6195 29.9652 28.6195 31.517Z" fill="white"/>
<path d="M29.0878 56.8049C29.0878 58.3567 27.8298 59.6146 26.278 59.6146C24.7262 59.6146 23.4683 58.3567 23.4683 56.8049C23.4683 55.2531 24.7262 53.9951 26.278 53.9951C27.8298 53.9951 29.0878 55.2531 29.0878 56.8049Z" fill="white"/>
<path d="M47.1171 59.6144C47.1171 61.1662 45.8591 62.4242 44.3073 62.4242C42.7555 62.4242 41.4976 61.1662 41.4976 59.6144C41.4976 58.0627 42.7555 56.8047 44.3073 56.8047C45.8591 56.8047 47.1171 58.0627 47.1171 59.6144Z" fill="white"/>
<path d="M49.4584 68.9804C49.4584 70.5322 48.2004 71.7902 46.6486 71.7902C45.0968 71.7902 43.8389 70.5322 43.8389 68.9804C43.8389 67.4286 45.0968 66.1707 46.6486 66.1707C48.2004 66.1707 49.4584 67.4286 49.4584 68.9804Z" fill="white"/>
<path d="M71.0004 57.039C71.0004 58.5908 69.7424 59.8488 68.1906 59.8488C66.6388 59.8488 65.3809 58.5908 65.3809 57.039C65.3809 55.4872 66.6388 54.2292 68.1906 54.2292C69.7424 54.2292 71.0004 55.4872 71.0004 57.039Z" fill="white"/>
<path d="M71.0004 32.6879C71.0004 34.2397 69.7424 35.4977 68.1906 35.4977C66.6388 35.4977 65.3809 34.2397 65.3809 32.6879C65.3809 31.1361 66.6388 29.8782 68.1906 29.8782C69.7424 29.8782 71.0004 31.1361 71.0004 32.6879Z" fill="white"/>
<path d="M60.2289 36.434C60.2289 37.9858 58.9709 39.2438 57.4191 39.2438C55.8673 39.2438 54.6094 37.9858 54.6094 36.434C54.6094 34.8822 55.8673 33.6243 57.4191 33.6243C58.9709 33.6243 60.2289 34.8822 60.2289 36.434Z" fill="white"/>
<path fill-rule="evenodd" clip-rule="evenodd" d="M57.8996 36.3341C57.6342 36.5187 57.2694 36.4533 57.0848 36.1879L46.5143 20.9928C46.3297 20.7275 46.3952 20.3626 46.6606 20.178C46.926 19.9934 47.2908 20.0589 47.4754 20.3243L58.0458 35.5193C58.2305 35.7847 58.165 36.1495 57.8996 36.3341Z" fill="white"/>
<path d="M48.9901 19.8098C48.9901 21.3615 47.7321 22.6195 46.1804 22.6195C44.6286 22.6195 43.3706 21.3615 43.3706 19.8098C43.3706 18.258 44.6286 17 46.1804 17C47.7321 17 48.9901 18.258 48.9901 19.8098Z" fill="white"/>
<path d="M25.808 164.552L24.836 167H22.874L27.122 155.786H28.778L32.918 167H30.938L30.02 164.552H25.808ZM27.842 158.468L26.258 163.094H29.516L27.842 158.468ZM39.5403 154.706H41.2863V160.538C41.7903 159.95 42.5403 159.656 43.5363 159.656C44.4723 159.656 45.2463 160.028 45.8583 160.772C46.4823 161.516 46.7943 162.392 46.7943 163.4C46.7943 164.492 46.4883 165.404 45.8763 166.136C45.2643 166.868 44.4723 167.234 43.5003 167.234C42.4563 167.234 41.7303 166.934 41.3223 166.334L41.2863 167H39.5403V154.706ZM45.0123 163.436C45.0123 162.836 44.8263 162.308 44.4543 161.852C44.0823 161.396 43.6083 161.168 43.0323 161.168C42.4563 161.168 41.9883 161.396 41.6283 161.852C41.2683 162.296 41.0883 162.83 41.0883 163.454C41.0883 164.066 41.2743 164.6 41.6463 165.056C42.0303 165.5 42.4983 165.722 43.0503 165.722C43.6503 165.722 44.1243 165.506 44.4723 165.074C44.8323 164.63 45.0123 164.084 45.0123 163.436ZM49.0817 163.616C49.0817 164.3 49.2317 164.864 49.5317 165.308C49.8317 165.752 50.2457 165.974 50.7737 165.974C51.6017 165.974 52.1297 165.566 52.3577 164.75L54.0137 165.02C53.4737 166.496 52.3937 167.234 50.7737 167.234C49.6937 167.234 48.8297 166.892 48.1817 166.208C47.5457 165.512 47.2277 164.612 47.2277 163.508C47.2277 162.344 47.5337 161.414 48.1457 160.718C48.7697 160.01 49.6097 159.656 50.6657 159.656C51.7337 159.656 52.5617 159.992 53.1497 160.664C53.7497 161.324 54.0497 162.23 54.0497 163.382V163.616H49.0817ZM52.4297 162.644C52.4297 162.152 52.2737 161.72 51.9617 161.348C51.6617 160.976 51.2657 160.79 50.7737 160.79C50.2937 160.79 49.8977 160.988 49.5857 161.384C49.2857 161.768 49.1357 162.188 49.1357 162.644H52.4297ZM57.1335 167H55.3875V161.456H54.5415V160.034H55.3875V157.478H57.1335V160.034H58.5195V161.456H57.1335V167ZM61.1061 167H59.3601V161.456H58.5141V160.034H59.3601V157.478H61.1061V160.034H62.4921V161.456H61.1061V167ZM64.2868 163.616C64.2868 164.3 64.4368 164.864 64.7368 165.308C65.0368 165.752 65.4508 165.974 65.9788 165.974C66.8068 165.974 67.3348 165.566 67.5628 164.75L69.2188 165.02C68.6788 166.496 67.5988 167.234 65.9788 167.234C64.8988 167.234 64.0348 166.892 63.3868 166.208C62.7508 165.512 62.4328 164.612 62.4328 163.508C62.4328 162.344 62.7388 161.414 63.3508 160.718C63.9748 160.01 64.8148 159.656 65.8708 159.656C66.9388 159.656 67.7668 159.992 68.3548 160.664C68.9548 161.324 69.2548 162.23 69.2548 163.382V163.616H64.2868ZM67.6348 162.644C67.6348 162.152 67.4788 161.72 67.1668 161.348C66.8668 160.976 66.4708 160.79 65.9788 160.79C65.4988 160.79 65.1028 160.988 64.7908 161.384C64.4908 161.768 64.3408 162.188 64.3408 162.644H67.6348ZM71.9426 160.628C72.3866 159.98 73.0826 159.656 74.0306 159.656C74.3306 159.656 74.6066 159.716 74.8586 159.836L74.6426 161.42C74.3786 161.252 74.0906 161.168 73.7786 161.168C72.5546 161.168 71.9426 162.044 71.9426 163.796V167H70.1966V159.89H71.9426V160.628ZM83.2629 160.538C83.7669 159.95 84.5169 159.656 85.5129 159.656C86.4489 159.656 87.2229 160.028 87.8349 160.772C88.4589 161.516 88.7709 162.392 88.7709 163.4C88.7709 164.492 88.4649 165.404 87.8529 166.136C87.2409 166.868 86.4489 167.234 85.4769 167.234C84.4329 167.234 83.7069 166.934 83.2989 166.334L83.2629 170.006H81.5169V159.89H83.2629V160.538ZM86.9889 163.436C86.9889 162.824 86.8149 162.296 86.4669 161.852C86.1189 161.396 85.6389 161.168 85.0269 161.168C84.4629 161.168 83.9949 161.396 83.6229 161.852C83.2509 162.308 83.0649 162.836 83.0649 163.436C83.0649 164.024 83.2629 164.552 83.6589 165.02C84.0549 165.488 84.5109 165.722 85.0269 165.722C85.6389 165.722 86.1189 165.506 86.4669 165.074C86.8149 164.642 86.9889 164.096 86.9889 163.436ZM91.5983 167H89.8523V154.706H91.5983V167ZM99.9032 167H98.1932V166.352C97.6892 166.94 96.9392 167.234 95.9432 167.234C94.9472 167.234 94.1492 166.85 93.5492 166.082C92.9612 165.314 92.6672 164.414 92.6672 163.382C92.6672 162.35 92.9672 161.474 93.5672 160.754C94.1792 160.022 94.9592 159.656 95.9072 159.656C96.9152 159.656 97.6772 159.956 98.1932 160.556V159.89H99.9032V167ZM98.3912 163.436C98.3912 162.776 98.2052 162.236 97.8332 161.816C97.4612 161.384 96.9812 161.168 96.3932 161.168C95.8172 161.168 95.3432 161.378 94.9712 161.798C94.6112 162.206 94.4312 162.752 94.4312 163.436C94.4312 164.12 94.6172 164.672 94.9892 165.092C95.3612 165.512 95.8412 165.722 96.4292 165.722C97.0172 165.722 97.4912 165.518 97.8512 165.11C98.2112 164.702 98.3912 164.144 98.3912 163.436ZM103.505 167H101.759V161.456H100.913V160.034H101.759V157.478H103.505V160.034H104.891V161.456H103.505V167ZM107.297 167H105.551V161.456H104.723V160.034H105.551V157.802C105.551 155.63 106.397 154.544 108.089 154.544C108.437 154.544 108.761 154.622 109.061 154.778V156.29C108.749 156.134 108.473 156.056 108.233 156.056C107.909 156.056 107.669 156.176 107.513 156.416C107.369 156.644 107.297 157.202 107.297 158.09V160.034H109.061V161.456H107.297V167ZM116.714 163.436C116.714 164.552 116.372 165.464 115.688 166.172C115.004 166.88 114.104 167.234 112.988 167.234C111.884 167.234 110.984 166.88 110.288 166.172C109.592 165.464 109.244 164.558 109.244 163.454C109.244 162.338 109.586 161.426 110.27 160.718C110.954 160.01 111.854 159.656 112.97 159.656C114.086 159.656 114.986 160.01 115.67 160.718C116.366 161.414 116.714 162.32 116.714 163.436ZM111.008 163.472C111.008 164.132 111.194 164.672 111.566 165.092C111.938 165.512 112.418 165.722 113.006 165.722C113.594 165.722 114.062 165.5 114.41 165.056C114.77 164.6 114.95 164.066 114.95 163.454C114.95 162.83 114.77 162.296 114.41 161.852C114.05 161.396 113.576 161.168 112.988 161.168C112.412 161.168 111.938 161.384 111.566 161.816C111.194 162.248 111.008 162.8 111.008 163.472ZM119.421 160.628C119.865 159.98 120.561 159.656 121.509 159.656C121.809 159.656 122.085 159.716 122.337 159.836L122.121 161.42C121.857 161.252 121.569 161.168 121.257 161.168C120.033 161.168 119.421 162.044 119.421 163.796V167H117.675V159.89H119.421V160.628ZM124.73 160.52C125.174 159.944 125.858 159.656 126.782 159.656C127.586 159.656 128.222 160.028 128.69 160.772C129.146 160.028 129.884 159.656 130.904 159.656C132.404 159.656 133.154 160.628 133.154 162.572V167H131.426V163.256C131.426 161.744 131.012 160.988 130.184 160.988C129.356 160.988 128.942 161.828 128.942 163.508V167H127.196V163.4C127.196 161.792 126.83 160.988 126.098 160.988C125.186 160.988 124.73 161.828 124.73 163.508V167H122.984V159.89H124.73V160.52ZM142.774 167H141.028V161.456H140.182V160.034H141.028V157.478H142.774V160.034H144.16V161.456H142.774V167ZM151.589 163.436C151.589 164.552 151.247 165.464 150.563 166.172C149.879 166.88 148.979 167.234 147.863 167.234C146.759 167.234 145.859 166.88 145.163 166.172C144.467 165.464 144.119 164.558 144.119 163.454C144.119 162.338 144.461 161.426 145.145 160.718C145.829 160.01 146.729 159.656 147.845 159.656C148.961 159.656 149.861 160.01 150.545 160.718C151.241 161.414 151.589 162.32 151.589 163.436ZM145.883 163.472C145.883 164.132 146.069 164.672 146.441 165.092C146.813 165.512 147.293 165.722 147.881 165.722C148.469 165.722 148.937 165.5 149.285 165.056C149.645 164.6 149.825 164.066 149.825 163.454C149.825 162.83 149.645 162.296 149.285 161.852C148.925 161.396 148.451 161.168 147.863 161.168C147.287 161.168 146.813 161.384 146.441 161.816C146.069 162.248 145.883 162.8 145.883 163.472ZM160.308 154.706V160.484C160.764 159.932 161.49 159.656 162.486 159.656C163.23 159.656 163.824 159.944 164.268 160.52C164.712 161.096 164.934 161.81 164.934 162.662V167H163.206V163.238C163.206 161.738 162.744 160.988 161.82 160.988C160.812 160.988 160.308 161.816 160.308 163.472V167H158.562V154.706H160.308ZM167.734 163.616C167.734 164.3 167.884 164.864 168.184 165.308C168.484 165.752 168.898 165.974 169.426 165.974C170.254 165.974 170.782 165.566 171.01 164.75L172.666 165.02C172.126 166.496 171.046 167.234 169.426 167.234C168.346 167.234 167.482 166.892 166.834 166.208C166.198 165.512 165.88 164.612 165.88 163.508C165.88 162.344 166.186 161.414 166.798 160.718C167.422 160.01 168.262 159.656 169.318 159.656C170.386 159.656 171.214 159.992 171.802 160.664C172.402 161.324 172.702 162.23 172.702 163.382V163.616H167.734ZM171.082 162.644C171.082 162.152 170.926 161.72 170.614 161.348C170.314 160.976 169.918 160.79 169.426 160.79C168.946 160.79 168.55 160.988 168.238 161.384C167.938 161.768 167.788 162.188 167.788 162.644H171.082ZM175.534 167H173.788V154.706H175.534V167ZM178.853 160.538C179.357 159.95 180.107 159.656 181.103 159.656C182.039 159.656 182.813 160.028 183.425 160.772C184.049 161.516 184.361 162.392 184.361 163.4C184.361 164.492 184.055 165.404 183.443 166.136C182.831 166.868 182.039 167.234 181.067 167.234C180.023 167.234 179.297 166.934 178.889 166.334L178.853 170.006H177.107V159.89H178.853V160.538ZM182.579 163.436C182.579 162.824 182.405 162.296 182.057 161.852C181.709 161.396 181.229 161.168 180.617 161.168C180.053 161.168 179.585 161.396 179.213 161.852C178.841 162.308 178.655 162.836 178.655 163.436C178.655 164.024 178.853 164.552 179.249 165.02C179.645 165.488 180.101 165.722 180.617 165.722C181.229 165.722 181.709 165.506 182.057 165.074C182.405 164.642 182.579 164.096 182.579 163.436ZM25.466 178.52C25.91 177.944 26.594 177.656 27.518 177.656C28.322 177.656 28.958 178.028 29.426 178.772C29.882 178.028 30.62 177.656 31.64 177.656C33.14 177.656 33.89 178.628 33.89 180.572V185H32.162V181.256C32.162 179.744 31.748 178.988 30.92 178.988C30.092 178.988 29.678 179.828 29.678 181.508V185H27.932V181.4C27.932 179.792 27.566 178.988 26.834 178.988C25.922 178.988 25.466 179.828 25.466 181.508V185H23.72V177.89H25.466V178.52ZM36.7067 181.616C36.7067 182.3 36.8567 182.864 37.1567 183.308C37.4567 183.752 37.8707 183.974 38.3987 183.974C39.2267 183.974 39.7547 183.566 39.9827 182.75L41.6387 183.02C41.0987 184.496 40.0187 185.234 38.3987 185.234C37.3187 185.234 36.4547 184.892 35.8067 184.208C35.1707 183.512 34.8527 182.612 34.8527 181.508C34.8527 180.344 35.1587 179.414 35.7707 178.718C36.3947 178.01 37.2347 177.656 38.2907 177.656C39.3587 177.656 40.1867 177.992 40.7747 178.664C41.3747 179.324 41.6747 180.23 41.6747 181.382V181.616H36.7067ZM40.0547 180.644C40.0547 180.152 39.8987 179.72 39.5867 179.348C39.2867 178.976 38.8907 178.79 38.3987 178.79C37.9187 178.79 37.5227 178.988 37.2107 179.384C36.9107 179.768 36.7607 180.188 36.7607 180.644H40.0547ZM47.6205 184.334C47.1525 184.934 46.4145 185.234 45.4065 185.234C44.3985 185.234 43.5945 184.85 42.9945 184.082C42.4065 183.314 42.1125 182.414 42.1125 181.382C42.1125 180.35 42.4125 179.474 43.0125 178.754C43.6245 178.022 44.4045 177.656 45.3525 177.656C46.3605 177.656 47.1045 177.95 47.5845 178.538L47.6205 172.706H49.3665V185H47.6205V184.334ZM47.8185 181.436C47.8185 180.812 47.6265 180.278 47.2425 179.834C46.8585 179.39 46.3965 179.168 45.8565 179.168C45.3165 179.168 44.8485 179.39 44.4525 179.834C44.0685 180.266 43.8765 180.806 43.8765 181.454C43.8765 182.09 44.0625 182.63 44.4345 183.074C44.8185 183.506 45.2985 183.722 45.8745 183.722C46.4505 183.722 46.9185 183.512 47.2785 183.092C47.6385 182.66 47.8185 182.108 47.8185 181.436ZM52.9499 174.902C52.9499 175.178 52.8479 175.418 52.6439 175.622C52.4399 175.826 52.1999 175.928 51.9239 175.928C51.6479 175.928 51.4079 175.826 51.2039 175.622C50.9999 175.418 50.8979 175.178 50.8979 174.902C50.8979 174.626 50.9999 174.386 51.2039 174.182C51.4079 173.978 51.6479 173.876 51.9239 173.876C52.1999 173.876 52.4399 173.978 52.6439 174.182C52.8479 174.386 52.9499 174.626 52.9499 174.902ZM52.8059 185H51.0599V177.89H52.8059V185ZM59.3237 179.744C58.8797 179.3 58.3817 179.078 57.8297 179.078C57.1817 179.078 56.6717 179.312 56.2997 179.78C55.9277 180.248 55.7417 180.824 55.7417 181.508C55.7417 182.18 55.9517 182.732 56.3717 183.164C56.7917 183.596 57.3017 183.812 57.9017 183.812C58.4177 183.812 58.8917 183.584 59.3237 183.128V184.802C58.8197 185.09 58.2377 185.234 57.5777 185.234C56.5457 185.234 55.6877 184.868 55.0037 184.136C54.3197 183.404 53.9777 182.51 53.9777 181.454C53.9777 180.398 54.3257 179.504 55.0217 178.772C55.7297 178.028 56.6117 177.656 57.6677 177.656C58.2917 177.656 58.8437 177.806 59.3237 178.106V179.744ZM67.3133 185H65.6033V184.352C65.0993 184.94 64.3493 185.234 63.3533 185.234C62.3573 185.234 61.5593 184.85 60.9593 184.082C60.3713 183.314 60.0773 182.414 60.0773 181.382C60.0773 180.35 60.3773 179.474 60.9773 178.754C61.5893 178.022 62.3693 177.656 63.3173 177.656C64.3253 177.656 65.0873 177.956 65.6033 178.556V177.89H67.3133V185ZM65.8013 181.436C65.8013 180.776 65.6153 180.236 65.2433 179.816C64.8713 179.384 64.3913 179.168 63.8033 179.168C63.2273 179.168 62.7533 179.378 62.3813 179.798C62.0213 180.206 61.8413 180.752 61.8413 181.436C61.8413 182.12 62.0273 182.672 62.3993 183.092C62.7713 183.512 63.2513 183.722 63.8393 183.722C64.4273 183.722 64.9013 183.518 65.2613 183.11C65.6213 182.702 65.8013 182.144 65.8013 181.436ZM70.6627 185H68.9167V172.706H70.6627V185ZM82.0453 179.366C81.6613 179.006 81.2593 178.826 80.8393 178.826C80.2033 178.826 79.8853 179.114 79.8853 179.69C79.8853 180.014 80.1733 180.278 80.7493 180.482C81.8053 180.866 82.4593 181.22 82.7113 181.544C82.9633 181.856 83.0893 182.246 83.0893 182.714C83.0893 183.482 82.8193 184.094 82.2793 184.55C81.7513 185.006 81.0973 185.234 80.3173 185.234C79.3093 185.234 78.4753 184.838 77.8153 184.046L78.5893 183.056C79.1893 183.656 79.7413 183.956 80.2453 183.956C80.9773 183.956 81.3433 183.602 81.3433 182.894C81.3433 182.534 81.1513 182.27 80.7673 182.102C80.3833 181.922 80.0893 181.79 79.8853 181.706C78.7813 181.226 78.2293 180.644 78.2293 179.96C78.2293 179.276 78.4333 178.724 78.8413 178.304C79.2613 177.872 79.8073 177.656 80.4793 177.656C81.4393 177.656 82.2013 177.902 82.7653 178.394L82.0453 179.366ZM86.3308 185H84.5848V179.456H83.7388V178.034H84.5848V175.478H86.3308V178.034H87.7168V179.456H86.3308V185ZM89.8714 177.89V181.742C89.8714 183.122 90.3514 183.812 91.3114 183.812C92.2714 183.812 92.7514 183.122 92.7514 181.742V177.89H94.4974V182.066C94.4974 184.178 93.4354 185.234 91.3114 185.234C89.1874 185.234 88.1254 184.178 88.1254 182.066V177.89H89.8714ZM100.917 184.334C100.449 184.934 99.7114 185.234 98.7034 185.234C97.6954 185.234 96.8914 184.85 96.2914 184.082C95.7034 183.314 95.4094 182.414 95.4094 181.382C95.4094 180.35 95.7094 179.474 96.3094 178.754C96.9214 178.022 97.7014 177.656 98.6494 177.656C99.6574 177.656 100.401 177.95 100.881 178.538L100.917 172.706H102.663V185H100.917V184.334ZM101.115 181.436C101.115 180.812 100.923 180.278 100.539 179.834C100.155 179.39 99.6934 179.168 99.1534 179.168C98.6134 179.168 98.1454 179.39 97.7494 179.834C97.3654 180.266 97.1734 180.806 97.1734 181.454C97.1734 182.09 97.3594 182.63 97.7314 183.074C98.1154 183.506 98.5954 183.722 99.1714 183.722C99.7474 183.722 100.215 183.512 100.575 183.092C100.935 182.66 101.115 182.108 101.115 181.436ZM105.455 181.616C105.455 182.3 105.605 182.864 105.905 183.308C106.205 183.752 106.619 183.974 107.147 183.974C107.975 183.974 108.503 183.566 108.731 182.75L110.387 183.02C109.847 184.496 108.767 185.234 107.147 185.234C106.067 185.234 105.203 184.892 104.555 184.208C103.919 183.512 103.601 182.612 103.601 181.508C103.601 180.344 103.907 179.414 104.519 178.718C105.143 178.01 105.983 177.656 107.039 177.656C108.107 177.656 108.935 177.992 109.523 178.664C110.123 179.324 110.423 180.23 110.423 181.382V181.616H105.455ZM108.803 180.644C108.803 180.152 108.647 179.72 108.335 179.348C108.035 178.976 107.639 178.79 107.147 178.79C106.667 178.79 106.271 178.988 105.959 179.384C105.659 179.768 105.509 180.188 105.509 180.644H108.803ZM113.111 178.538C113.603 177.95 114.329 177.656 115.289 177.656C116.921 177.656 117.737 178.658 117.737 180.662V185H116.009V181.238C116.009 179.738 115.547 178.988 114.623 178.988C113.615 178.988 113.111 179.792 113.111 181.4V185H111.365V177.89H113.111V178.538ZM121.329 185H119.583V179.456H118.737V178.034H119.583V175.478H121.329V178.034H122.715V179.456H121.329V185ZM126.957 179.366C126.573 179.006 126.171 178.826 125.751 178.826C125.115 178.826 124.797 179.114 124.797 179.69C124.797 180.014 125.085 180.278 125.661 180.482C126.717 180.866 127.371 181.22 127.623 181.544C127.875 181.856 128.001 182.246 128.001 182.714C128.001 183.482 127.731 184.094 127.191 184.55C126.663 185.006 126.009 185.234 125.229 185.234C124.221 185.234 123.387 184.838 122.727 184.046L123.501 183.056C124.101 183.656 124.653 183.956 125.157 183.956C125.889 183.956 126.255 183.602 126.255 182.894C126.255 182.534 126.063 182.27 125.679 182.102C125.295 181.922 125.001 181.79 124.797 181.706C123.693 181.226 123.141 180.644 123.141 179.96C123.141 179.276 123.345 178.724 123.753 178.304C124.173 177.872 124.719 177.656 125.391 177.656C126.351 177.656 127.113 177.902 127.677 178.394L126.957 179.366ZM137.075 185H135.329V179.456H134.501V178.034H135.329V175.802C135.329 173.63 136.175 172.544 137.867 172.544C138.215 172.544 138.539 172.622 138.839 172.778V174.29C138.527 174.134 138.251 174.056 138.011 174.056C137.687 174.056 137.447 174.176 137.291 174.416C137.147 174.644 137.075 175.202 137.075 176.09V178.034H138.839V179.456H137.075V185ZM141.649 174.902C141.649 175.178 141.547 175.418 141.343 175.622C141.139 175.826 140.899 175.928 140.623 175.928C140.347 175.928 140.107 175.826 139.903 175.622C139.699 175.418 139.597 175.178 139.597 174.902C139.597 174.626 139.699 174.386 139.903 174.182C140.107 173.978 140.347 173.876 140.623 173.876C140.899 173.876 141.139 173.978 141.343 174.182C141.547 174.386 141.649 174.626 141.649 174.902ZM141.505 185H139.759V177.89H141.505V185ZM144.927 178.538C145.419 177.95 146.145 177.656 147.105 177.656C148.737 177.656 149.553 178.658 149.553 180.662V185H147.825V181.238C147.825 179.738 147.363 178.988 146.439 178.988C145.431 178.988 144.927 179.792 144.927 181.4V185H143.181V177.89H144.927V178.538ZM156.007 184.334C155.539 184.934 154.801 185.234 153.793 185.234C152.785 185.234 151.981 184.85 151.381 184.082C150.793 183.314 150.499 182.414 150.499 181.382C150.499 180.35 150.799 179.474 151.399 178.754C152.011 178.022 152.791 177.656 153.739 177.656C154.747 177.656 155.491 177.95 155.971 178.538L156.007 172.706H157.753V185H156.007V184.334ZM156.205 181.436C156.205 180.812 156.013 180.278 155.629 179.834C155.245 179.39 154.783 179.168 154.243 179.168C153.703 179.168 153.235 179.39 152.839 179.834C152.455 180.266 152.263 180.806 152.263 181.454C152.263 182.09 152.449 182.63 152.821 183.074C153.205 183.506 153.685 183.722 154.261 183.722C154.837 183.722 155.305 183.512 155.665 183.092C156.025 182.66 156.205 182.108 156.205 181.436ZM167.348 185H165.602V179.456H164.756V178.034H165.602V175.478H167.348V178.034H168.734V179.456H167.348V185ZM170.925 172.706V178.484C171.381 177.932 172.107 177.656 173.103 177.656C173.847 177.656 174.441 177.944 174.885 178.52C175.329 179.096 175.551 179.81 175.551 180.662V185H173.823V181.238C173.823 179.738 173.361 178.988 172.437 178.988C171.429 178.988 170.925 179.816 170.925 181.472V185H169.179V172.706H170.925ZM178.351 181.616C178.351 182.3 178.501 182.864 178.801 183.308C179.101 183.752 179.515 183.974 180.043 183.974C180.871 183.974 181.399 183.566 181.627 182.75L183.283 183.02C182.743 184.496 181.663 185.234 180.043 185.234C178.963 185.234 178.099 184.892 177.451 184.208C176.815 183.512 176.497 182.612 176.497 181.508C176.497 180.344 176.803 179.414 177.415 178.718C178.039 178.01 178.879 177.656 179.935 177.656C181.003 177.656 181.831 177.992 182.419 178.664C183.019 179.324 183.319 180.23 183.319 181.382V181.616H178.351ZM181.699 180.644C181.699 180.152 181.543 179.72 181.231 179.348C180.931 178.976 180.535 178.79 180.043 178.79C179.563 178.79 179.167 178.988 178.855 179.384C178.555 179.768 178.405 180.188 178.405 180.644H181.699ZM186.403 174.902C186.403 175.178 186.301 175.418 186.097 175.622C185.893 175.826 185.653 175.928 185.377 175.928C185.101 175.928 184.861 175.826 184.657 175.622C184.453 175.418 184.351 175.178 184.351 174.902C184.351 174.626 184.453 174.386 184.657 174.182C184.861 173.978 185.101 173.876 185.377 173.876C185.653 173.876 185.893 173.978 186.097 174.182C186.301 174.386 186.403 174.626 186.403 174.902ZM186.259 185H184.513V177.89H186.259V185ZM189.681 178.628C190.125 177.98 190.821 177.656 191.769 177.656C192.069 177.656 192.345 177.716 192.597 177.836L192.381 179.42C192.117 179.252 191.829 179.168 191.517 179.168C190.293 179.168 189.681 180.044 189.681 181.796V185H187.935V177.89H189.681V178.628ZM25.466 196.52C25.91 195.944 26.594 195.656 27.518 195.656C28.322 195.656 28.958 196.028 29.426 196.772C29.882 196.028 30.62 195.656 31.64 195.656C33.14 195.656 33.89 196.628 33.89 198.572V203H32.162V199.256C32.162 197.744 31.748 196.988 30.92 196.988C30.092 196.988 29.678 197.828 29.678 199.508V203H27.932V199.4C27.932 197.792 27.566 196.988 26.834 196.988C25.922 196.988 25.466 197.828 25.466 199.508V203H23.72V195.89H25.466V196.52ZM36.7067 199.616C36.7067 200.3 36.8567 200.864 37.1567 201.308C37.4567 201.752 37.8707 201.974 38.3987 201.974C39.2267 201.974 39.7547 201.566 39.9827 200.75L41.6387 201.02C41.0987 202.496 40.0187 203.234 38.3987 203.234C37.3187 203.234 36.4547 202.892 35.8067 202.208C35.1707 201.512 34.8527 200.612 34.8527 199.508C34.8527 198.344 35.1587 197.414 35.7707 196.718C36.3947 196.01 37.2347 195.656 38.2907 195.656C39.3587 195.656 40.1867 195.992 40.7747 196.664C41.3747 197.324 41.6747 198.23 41.6747 199.382V199.616H36.7067ZM40.0547 198.644C40.0547 198.152 39.8987 197.72 39.5867 197.348C39.2867 196.976 38.8907 196.79 38.3987 196.79C37.9187 196.79 37.5227 196.988 37.2107 197.384C36.9107 197.768 36.7607 198.188 36.7607 198.644H40.0547ZM44.3625 196.538C44.8545 195.95 45.5805 195.656 46.5405 195.656C48.1725 195.656 48.9885 196.658 48.9885 198.662V203H47.2605V199.238C47.2605 197.738 46.7985 196.988 45.8745 196.988C44.8665 196.988 44.3625 197.792 44.3625 199.4V203H42.6165V195.89H44.3625V196.538ZM52.5808 203H50.8348V197.456H49.9888V196.034H50.8348V193.478H52.5808V196.034H53.9668V197.456H52.5808V203ZM61.3954 199.436C61.3954 200.552 61.0534 201.464 60.3694 202.172C59.6854 202.88 58.7854 203.234 57.6694 203.234C56.5654 203.234 55.6654 202.88 54.9694 202.172C54.2734 201.464 53.9254 200.558 53.9254 199.454C53.9254 198.338 54.2674 197.426 54.9514 196.718C55.6354 196.01 56.5354 195.656 57.6514 195.656C58.7674 195.656 59.6674 196.01 60.3514 196.718C61.0474 197.414 61.3954 198.32 61.3954 199.436ZM55.6894 199.472C55.6894 200.132 55.8754 200.672 56.2474 201.092C56.6194 201.512 57.0994 201.722 57.6874 201.722C58.2754 201.722 58.7434 201.5 59.0914 201.056C59.4514 200.6 59.6314 200.066 59.6314 199.454C59.6314 198.83 59.4514 198.296 59.0914 197.852C58.7314 197.396 58.2574 197.168 57.6694 197.168C57.0934 197.168 56.6194 197.384 56.2474 197.816C55.8754 198.248 55.6894 198.8 55.6894 199.472ZM64.1027 196.628C64.5467 195.98 65.2427 195.656 66.1907 195.656C66.4907 195.656 66.7667 195.716 67.0187 195.836L66.8027 197.42C66.5387 197.252 66.2507 197.168 65.9387 197.168C64.7147 197.168 64.1027 198.044 64.1027 199.796V203H62.3567V195.89H64.1027V196.628ZM71.4633 197.366C71.0793 197.006 70.6773 196.826 70.2573 196.826C69.6213 196.826 69.3033 197.114 69.3033 197.69C69.3033 198.014 69.5913 198.278 70.1673 198.482C71.2233 198.866 71.8773 199.22 72.1293 199.544C72.3813 199.856 72.5073 200.246 72.5073 200.714C72.5073 201.482 72.2373 202.094 71.6973 202.55C71.1693 203.006 70.5153 203.234 69.7353 203.234C68.7273 203.234 67.8933 202.838 67.2333 202.046L68.0073 201.056C68.6073 201.656 69.1593 201.956 69.6633 201.956C70.3953 201.956 70.7613 201.602 70.7613 200.894C70.7613 200.534 70.5693 200.27 70.1853 200.102C69.8013 199.922 69.5073 199.79 69.3033 199.706C68.1993 199.226 67.6473 198.644 67.6473 197.96C67.6473 197.276 67.8513 196.724 68.2593 196.304C68.6793 195.872 69.2253 195.656 69.8973 195.656C70.8573 195.656 71.6193 195.902 72.1833 196.394L71.4633 197.366ZM76.2707 201.974C76.2707 202.334 76.1447 202.646 75.8927 202.91C75.6527 203.162 75.3527 203.288 74.9927 203.288C74.6327 203.288 74.3267 203.162 74.0747 202.91C73.8227 202.658 73.6967 202.358 73.6967 202.01C73.6967 201.65 73.8227 201.344 74.0747 201.092C74.3267 200.84 74.6267 200.714 74.9747 200.714C75.3347 200.714 75.6407 200.834 75.8927 201.074C76.1447 201.314 76.2707 201.614 76.2707 201.974Z" fill="white"/>
<path d="M229.758 298.434V300H222.414L225.186 296.49C226.506 294.858 227.28 293.838 227.508 293.43C227.748 293.01 227.868 292.668 227.868 292.404C227.88 292.332 227.886 292.26 227.886 292.188C227.886 291.708 227.724 291.282 227.4 290.91C227.088 290.538 226.674 290.352 226.158 290.352C225.642 290.352 225.234 290.562 224.934 290.982C224.646 291.402 224.502 291.912 224.502 292.512H222.558C222.558 291.432 222.876 290.544 223.512 289.848C224.16 289.14 225.036 288.786 226.14 288.786C227.136 288.786 227.976 289.122 228.66 289.794C229.344 290.466 229.686 291.306 229.686 292.314C229.686 293.262 228.96 294.582 227.508 296.274L225.654 298.434H229.758ZM238.467 294.546C238.467 296.13 238.119 297.486 237.423 298.614C236.727 299.73 235.767 300.288 234.543 300.288C233.331 300.288 232.377 299.724 231.681 298.596C230.985 297.468 230.637 296.118 230.637 294.546C230.637 292.914 230.985 291.546 231.681 290.442C232.389 289.338 233.349 288.786 234.561 288.786C235.773 288.786 236.727 289.35 237.423 290.478C238.119 291.594 238.467 292.95 238.467 294.546ZM232.437 294.528C232.437 295.632 232.629 296.61 233.013 297.462C233.397 298.302 233.919 298.722 234.579 298.722C235.239 298.722 235.749 298.326 236.109 297.534C236.481 296.742 236.667 295.74 236.667 294.528C236.667 293.412 236.475 292.44 236.091 291.612C235.707 290.772 235.191 290.352 234.543 290.352C233.907 290.352 233.397 290.79 233.013 291.666C232.629 292.53 232.437 293.484 232.437 294.528ZM240.84 290.64V289.074H244.26V300H242.406V290.64H240.84ZM249.568 299.46L251.89 296.112C251.494 296.22 251.104 296.274 250.72 296.274C249.748 296.274 248.962 295.92 248.362 295.212C247.774 294.504 247.48 293.652 247.48 292.656C247.48 291.516 247.84 290.586 248.56 289.866C249.28 289.146 250.204 288.786 251.332 288.786C252.424 288.786 253.336 289.134 254.068 289.83C254.8 290.526 255.166 291.426 255.166 292.53C255.166 293.634 254.722 294.846 253.834 296.166L250.936 300.468L249.568 299.46ZM249.334 292.602C249.334 293.226 249.514 293.766 249.874 294.222C250.246 294.678 250.738 294.906 251.35 294.906C251.962 294.906 252.448 294.678 252.808 294.222C253.18 293.754 253.366 293.202 253.366 292.566C253.366 291.93 253.186 291.384 252.826 290.928C252.466 290.472 251.974 290.244 251.35 290.244C250.738 290.244 250.246 290.478 249.874 290.946C249.514 291.414 249.334 291.966 249.334 292.602Z" fill="white"/>
</svg>
