<svg width="270" height="316" viewBox="0 0 270 316" fill="none" xmlns="http://www.w3.org/2000/svg">
<rect width="270" height="316" rx="11" transform="matrix(1 0 0 -1 0 316)" fill="black"/>
<path d="M36.504 138.912H40.896V141H34.032V126.432H36.504V138.912ZM44.5973 127.536C44.5973 127.904 44.4613 128.224 44.1893 128.496C43.9173 128.768 43.5973 128.904 43.2293 128.904C42.8613 128.904 42.5413 128.768 42.2693 128.496C41.9973 128.224 41.8613 127.904 41.8613 127.536C41.8613 127.168 41.9973 126.848 42.2693 126.576C42.5413 126.304 42.8613 126.168 43.2293 126.168C43.5973 126.168 43.9173 126.304 44.1893 126.576C44.4613 126.848 44.5973 127.168 44.5973 127.536ZM44.4053 141H42.0773V131.52H44.4053V141ZM49.2557 141H46.9277V133.608H45.8237V131.712H46.9277V128.736C46.9277 125.84 48.0557 124.392 50.3117 124.392C50.7757 124.392 51.2077 124.496 51.6077 124.704V126.72C51.1917 126.512 50.8237 126.408 50.5037 126.408C50.0717 126.408 49.7517 126.568 49.5437 126.888C49.3517 127.192 49.2557 127.936 49.2557 129.12V131.712H51.6077V133.608H49.2557V141ZM54.2991 136.488C54.2991 137.4 54.4991 138.152 54.8991 138.744C55.2991 139.336 55.8511 139.632 56.5551 139.632C57.6591 139.632 58.3631 139.088 58.6671 138L60.8751 138.36C60.1551 140.328 58.7151 141.312 56.5551 141.312C55.1151 141.312 53.9631 140.856 53.0991 139.944C52.2511 139.016 51.8271 137.816 51.8271 136.344C51.8271 134.792 52.2351 133.552 53.0511 132.624C53.8831 131.68 55.0031 131.208 56.4111 131.208C57.8351 131.208 58.9391 131.656 59.7231 132.552C60.5231 133.432 60.9231 134.64 60.9231 136.176V136.488H54.2991ZM58.7631 135.192C58.7631 134.536 58.5551 133.96 58.1391 133.464C57.7391 132.968 57.2111 132.72 56.5551 132.72C55.9151 132.72 55.3871 132.984 54.9711 133.512C54.5711 134.024 54.3711 134.584 54.3711 135.192H58.7631ZM79.5064 136.248C79.5064 137.736 79.0504 138.952 78.1384 139.896C77.2264 140.84 76.0264 141.312 74.5384 141.312C73.0664 141.312 71.8664 140.84 70.9384 139.896C70.0104 138.952 69.5464 137.744 69.5464 136.272C69.5464 134.784 70.0024 133.568 70.9144 132.624C71.8264 131.68 73.0264 131.208 74.5144 131.208C76.0024 131.208 77.2024 131.68 78.1144 132.624C79.0424 133.552 79.5064 134.76 79.5064 136.248ZM71.8984 136.296C71.8984 137.176 72.1464 137.896 72.6424 138.456C73.1384 139.016 73.7784 139.296 74.5624 139.296C75.3464 139.296 75.9704 139 76.4344 138.408C76.9144 137.8 77.1544 137.088 77.1544 136.272C77.1544 135.44 76.9144 134.728 76.4344 134.136C75.9544 133.528 75.3224 133.224 74.5384 133.224C73.7704 133.224 73.1384 133.512 72.6424 134.088C72.1464 134.664 71.8984 135.4 71.8984 136.296ZM83.4041 141H81.0761V133.608H79.9721V131.712H81.0761V128.736C81.0761 125.84 82.2041 124.392 84.4601 124.392C84.9241 124.392 85.3561 124.496 85.7561 124.704V126.72C85.3401 126.512 84.9721 126.408 84.6521 126.408C84.2201 126.408 83.9001 126.568 83.6921 126.888C83.5001 127.192 83.4041 127.936 83.4041 129.12V131.712H85.7561V133.608H83.4041V141ZM94.7351 126.432H98.2871C101.199 126.432 102.655 127.752 102.655 130.392C102.655 131.688 102.231 132.632 101.383 133.224C102.151 133.352 102.751 133.76 103.183 134.448C103.631 135.136 103.855 135.944 103.855 136.872C103.855 138.232 103.423 139.264 102.559 139.968C101.711 140.656 100.591 141 99.1991 141H94.7351V126.432ZM97.2071 139.032H98.5751C100.463 139.032 101.407 138.232 101.407 136.632C101.407 135.192 100.415 134.472 98.4311 134.472H97.2071V139.032ZM97.2071 132.696H98.3111C99.6871 132.696 100.375 131.992 100.375 130.584C100.375 129.08 99.6951 128.328 98.3351 128.328H97.2071V132.696ZM107.631 131.52V136.656C107.631 138.496 108.271 139.416 109.551 139.416C110.831 139.416 111.471 138.496 111.471 136.656V131.52H113.799V137.088C113.799 139.904 112.383 141.312 109.551 141.312C106.719 141.312 105.303 139.904 105.303 137.088V131.52H107.631ZM118.543 141H116.215V133.608H115.087V131.712H116.215V128.304H118.543V131.712H120.391V133.608H118.543V141ZM123.839 141H121.511V133.608H120.383V131.712H121.511V128.304H123.839V131.712H125.687V133.608H123.839V141ZM128.08 136.488C128.08 137.4 128.28 138.152 128.68 138.744C129.08 139.336 129.632 139.632 130.336 139.632C131.44 139.632 132.144 139.088 132.448 138L134.656 138.36C133.936 140.328 132.496 141.312 130.336 141.312C128.896 141.312 127.744 140.856 126.88 139.944C126.032 139.016 125.608 137.816 125.608 136.344C125.608 134.792 126.016 133.552 126.832 132.624C127.664 131.68 128.784 131.208 130.192 131.208C131.616 131.208 132.72 131.656 133.504 132.552C134.304 133.432 134.704 134.64 134.704 136.176V136.488H128.08ZM132.544 135.192C132.544 134.536 132.336 133.96 131.92 133.464C131.52 132.968 130.992 132.72 130.336 132.72C129.696 132.72 129.168 132.984 128.752 133.512C128.352 134.024 128.152 134.584 128.152 135.192H132.544ZM138.288 132.504C138.88 131.64 139.808 131.208 141.072 131.208C141.472 131.208 141.84 131.288 142.176 131.448L141.888 133.56C141.536 133.336 141.152 133.224 140.736 133.224C139.104 133.224 138.288 134.392 138.288 136.728V141H135.96V131.52H138.288V132.504ZM145.654 141H143.326V133.608H142.222V131.712H143.326V128.736C143.326 125.84 144.454 124.392 146.71 124.392C147.174 124.392 147.606 124.496 148.006 124.704V126.72C147.59 126.512 147.222 126.408 146.902 126.408C146.47 126.408 146.15 126.568 145.942 126.888C145.75 127.192 145.654 127.936 145.654 129.12V131.712H148.006V133.608H145.654V141ZM151.418 141H149.09V124.608H151.418V141ZM156.371 127.536C156.371 127.904 156.235 128.224 155.963 128.496C155.691 128.768 155.371 128.904 155.003 128.904C154.635 128.904 154.315 128.768 154.043 128.496C153.771 128.224 153.635 127.904 153.635 127.536C153.635 127.168 153.771 126.848 154.043 126.576C154.315 126.304 154.635 126.168 155.003 126.168C155.371 126.168 155.691 126.304 155.963 126.576C156.235 126.848 156.371 127.168 156.371 127.536ZM156.179 141H153.851V131.52H156.179V141ZM160.213 136.488C160.213 137.4 160.413 138.152 160.813 138.744C161.213 139.336 161.765 139.632 162.469 139.632C163.573 139.632 164.277 139.088 164.581 138L166.789 138.36C166.069 140.328 164.629 141.312 162.469 141.312C161.029 141.312 159.877 140.856 159.013 139.944C158.165 139.016 157.741 137.816 157.741 136.344C157.741 134.792 158.149 133.552 158.965 132.624C159.797 131.68 160.917 131.208 162.325 131.208C163.749 131.208 164.853 131.656 165.637 132.552C166.437 133.432 166.837 134.64 166.837 136.176V136.488H160.213ZM164.677 135.192C164.677 134.536 164.469 133.96 164.053 133.464C163.653 132.968 163.125 132.72 162.469 132.72C161.829 132.72 161.301 132.984 160.885 133.512C160.485 134.024 160.285 134.584 160.285 135.192H164.677ZM173.157 133.488C172.645 133.008 172.109 132.768 171.549 132.768C170.701 132.768 170.277 133.152 170.277 133.92C170.277 134.352 170.661 134.704 171.429 134.976C172.837 135.488 173.709 135.96 174.045 136.392C174.381 136.808 174.549 137.328 174.549 137.952C174.549 138.976 174.189 139.792 173.469 140.4C172.765 141.008 171.893 141.312 170.853 141.312C169.509 141.312 168.397 140.784 167.517 139.728L168.549 138.408C169.349 139.208 170.085 139.608 170.757 139.608C171.733 139.608 172.221 139.136 172.221 138.192C172.221 137.712 171.965 137.36 171.453 137.136C170.941 136.896 170.549 136.72 170.277 136.608C168.805 135.968 168.069 135.192 168.069 134.28C168.069 133.368 168.341 132.632 168.885 132.072C169.445 131.496 170.173 131.208 171.069 131.208C172.349 131.208 173.365 131.536 174.117 132.192L173.157 133.488Z" fill="white"/>
<ellipse cx="61.1521" cy="39.711" rx="5.11665" ry="2.98472" transform="rotate(-135.656 61.1521 39.711)" fill="white"/>
<ellipse cx="66.1195" cy="40.9229" rx="3.35043" ry="1.95442" transform="rotate(-51.2037 66.1195 40.9229)" fill="white"/>
<ellipse cx="1.34408" cy="0.215271" rx="1.34408" ry="0.215271" transform="matrix(0.94607 0.323963 0.323963 -0.94607 57.374 42.3506)" fill="white"/>
<ellipse cx="5.11665" cy="2.98472" rx="5.11665" ry="2.98472" transform="matrix(-0.715152 0.698969 0.698969 0.715152 62.7251 42.0459)" fill="white"/>
<ellipse cx="3.35043" cy="1.95442" rx="3.35043" ry="1.95442" transform="matrix(0.626553 0.779379 0.779379 -0.626553 62.4971 45.1582)" fill="white"/>
<ellipse cx="58.7154" cy="44.8854" rx="1.34408" ry="0.215271" transform="rotate(-18.9027 58.7154 44.8854)" fill="white"/>
<ellipse cx="35.711" cy="68.9968" rx="5.11665" ry="2.98472" transform="rotate(134.344 35.711 68.9968)" fill="white"/>
<ellipse cx="36.9229" cy="64.0294" rx="3.35043" ry="1.95442" transform="rotate(-141.204 36.9229 64.0294)" fill="white"/>
<ellipse cx="1.34408" cy="0.215271" rx="1.34408" ry="0.215271" transform="matrix(0.323963 -0.94607 -0.94607 -0.323963 38.3506 72.7749)" fill="white"/>
<ellipse cx="5.11665" cy="2.98472" rx="5.11665" ry="2.98472" transform="matrix(0.698969 0.715152 0.715152 -0.698969 38.0459 67.4238)" fill="white"/>
<ellipse cx="3.35043" cy="1.95442" rx="3.35043" ry="1.95442" transform="matrix(0.779379 -0.626553 -0.626553 -0.779379 41.1582 67.6519)" fill="white"/>
<ellipse cx="40.8854" cy="71.4336" rx="1.34408" ry="0.215271" transform="rotate(-108.903 40.8854 71.4336)" fill="white"/>
<ellipse cx="90.289" cy="66.1521" rx="5.11665" ry="2.98472" transform="rotate(-45.6557 90.289 66.1521)" fill="white"/>
<ellipse cx="89.0771" cy="71.1195" rx="3.35043" ry="1.95442" transform="rotate(38.7963 89.0771 71.1195)" fill="white"/>
<ellipse cx="1.34408" cy="0.215271" rx="1.34408" ry="0.215271" transform="matrix(-0.323963 0.94607 0.94607 0.323963 87.6494 62.374)" fill="white"/>
<ellipse cx="5.11665" cy="2.98472" rx="5.11665" ry="2.98472" transform="matrix(-0.698969 -0.715152 -0.715152 0.698969 87.9541 67.7251)" fill="white"/>
<ellipse cx="3.35043" cy="1.95442" rx="3.35043" ry="1.95442" transform="matrix(-0.779379 0.626553 0.626553 0.779379 84.8418 67.4971)" fill="white"/>
<ellipse cx="85.1146" cy="63.7154" rx="1.34408" ry="0.215271" transform="rotate(71.0973 85.1146 63.7154)" fill="white"/>
<ellipse cx="64.7512" cy="94.289" rx="5.11665" ry="2.98472" transform="rotate(44.3443 64.7512 94.289)" fill="white"/>
<ellipse cx="59.7838" cy="93.0771" rx="3.35043" ry="1.95442" transform="rotate(128.796 59.7838 93.0771)" fill="white"/>
<ellipse cx="1.34408" cy="0.215271" rx="1.34408" ry="0.215271" transform="matrix(-0.94607 -0.323963 -0.323963 0.94607 68.5293 91.6494)" fill="white"/>
<ellipse cx="5.11665" cy="2.98472" rx="5.11665" ry="2.98472" transform="matrix(0.715152 -0.698969 -0.698969 -0.715152 63.1782 91.9541)" fill="white"/>
<ellipse cx="3.35043" cy="1.95442" rx="3.35043" ry="1.95442" transform="matrix(-0.626553 -0.779379 -0.779379 0.626553 63.4062 88.8418)" fill="white"/>
<ellipse cx="67.188" cy="89.1146" rx="1.34408" ry="0.215271" transform="rotate(161.097 67.188 89.1146)" fill="white"/>
<ellipse cx="42.4856" cy="51.4169" rx="2.32273" ry="1.35493" transform="rotate(179.344 42.4856 51.4169)" fill="white"/>
<ellipse cx="44.4691" cy="50.2109" rx="1.52095" ry="0.88722" transform="rotate(-96.2037 44.4691 50.2109)" fill="white"/>
<ellipse cx="0.610154" cy="0.0977234" rx="0.610154" ry="0.0977234" transform="matrix(0.898049 -0.439896 -0.439896 -0.898049 42.1201 53.4771)" fill="white"/>
<ellipse cx="2.32273" cy="1.35493" rx="2.32273" ry="1.35493" transform="matrix(-0.0114432 0.999934 0.999934 0.0114434 43.7402 51.6606)" fill="white"/>
<ellipse cx="1.52095" cy="0.88722" rx="1.52095" ry="0.88722" transform="matrix(0.994144 0.108064 0.108064 -0.994144 44.6665 52.7329)" fill="white"/>
<ellipse cx="43.365" cy="53.8593" rx="0.610154" ry="0.0977234" transform="rotate(-63.9027 43.365 53.8593)" fill="white"/>
<ellipse cx="44.9081" cy="85.6872" rx="2.32274" ry="1.35493" transform="rotate(89.3443 44.9081 85.6872)" fill="white"/>
<ellipse cx="43.7026" cy="83.7037" rx="1.52095" ry="0.88722" transform="rotate(173.796 43.7026 83.7037)" fill="white"/>
<ellipse cx="0.610154" cy="0.0977234" rx="0.610154" ry="0.0977234" transform="matrix(-0.439896 -0.898049 -0.898049 0.439896 46.9683 86.0527)" fill="white"/>
<ellipse cx="2.32273" cy="1.35493" rx="2.32273" ry="1.35493" transform="matrix(0.999935 0.0114432 0.0114434 -0.999935 45.1519 84.4326)" fill="white"/>
<ellipse cx="1.52095" cy="0.88722" rx="1.52095" ry="0.88722" transform="matrix(0.108064 -0.994144 -0.994144 -0.108064 46.2241 83.5063)" fill="white"/>
<ellipse cx="47.3505" cy="84.8079" rx="0.610154" ry="0.0977234" transform="rotate(-153.903 47.3505 84.8079)" fill="white"/>
<ellipse cx="81.4421" cy="84.7741" rx="2.32274" ry="1.35493" transform="rotate(-0.655669 81.4421 84.7741)" fill="white"/>
<ellipse cx="79.4586" cy="85.98" rx="1.52095" ry="0.88722" transform="rotate(83.7963 79.4586 85.98)" fill="white"/>
<ellipse cx="0.610154" cy="0.0977234" rx="0.610154" ry="0.0977234" transform="matrix(-0.898049 0.439896 0.439896 0.898049 81.8076 82.7139)" fill="white"/>
<ellipse cx="2.32273" cy="1.35493" rx="2.32273" ry="1.35493" transform="matrix(0.0114433 -0.999935 -0.999935 -0.0114434 80.1875 84.5303)" fill="white"/>
<ellipse cx="1.52095" cy="0.88722" rx="1.52095" ry="0.88722" transform="matrix(-0.994144 -0.108064 -0.108064 0.994144 79.2612 83.458)" fill="white"/>
<ellipse cx="80.5628" cy="82.3316" rx="0.610154" ry="0.0977234" transform="rotate(116.097 80.5628 82.3316)" fill="white"/>
<ellipse cx="81.2833" cy="49.7488" rx="2.32274" ry="1.35493" transform="rotate(-90.6557 81.2833 49.7488)" fill="white"/>
<ellipse cx="82.4888" cy="51.7323" rx="1.52095" ry="0.88722" transform="rotate(-6.20373 82.4888 51.7323)" fill="white"/>
<ellipse cx="0.610154" cy="0.0977234" rx="0.610154" ry="0.0977234" transform="matrix(0.439896 0.898049 0.898049 -0.439896 79.2231 49.3833)" fill="white"/>
<ellipse cx="2.32273" cy="1.35493" rx="2.32273" ry="1.35493" transform="matrix(-0.999935 -0.0114433 -0.0114434 0.999935 81.0396 51.0034)" fill="white"/>
<ellipse cx="1.52095" cy="0.88722" rx="1.52095" ry="0.88722" transform="matrix(-0.108064 0.994144 0.994144 0.108064 79.9673 51.9297)" fill="white"/>
<ellipse cx="78.8409" cy="50.6281" rx="0.610154" ry="0.0977234" transform="rotate(26.0973 78.8409 50.6281)" fill="white"/>
<ellipse cx="73.8132" cy="44.865" rx="1.23998" ry="0.723319" transform="rotate(-113.156 73.8132 44.865)" fill="white"/>
<ellipse cx="74.8127" cy="45.5968" rx="0.811948" ry="0.473636" transform="rotate(-28.7037 74.8127 45.5968)" fill="white"/>
<ellipse cx="0.325727" cy="0.0521689" rx="0.325727" ry="0.0521689" transform="matrix(0.75008 0.661348 0.661348 -0.75008 72.7222 45.1055)" fill="white"/>
<ellipse cx="1.23998" cy="0.723319" rx="1.23998" ry="0.723319" transform="matrix(-0.928198 0.372086 0.372086 0.928198 73.9487 45.5337)" fill="white"/>
<ellipse cx="0.811948" cy="0.473636" rx="0.811948" ry="0.473636" transform="matrix(0.280604 0.959824 0.959824 -0.280604 73.6089 46.2095)" fill="white"/>
<ellipse cx="72.7876" cy="45.7976" rx="0.325727" ry="0.0521689" transform="rotate(3.59727 72.7876 45.7976)" fill="white"/>
<ellipse cx="51.187" cy="45.129" rx="1.23998" ry="0.723319" transform="rotate(-158.156 51.187 45.129)" fill="white"/>
<ellipse cx="52.4114" cy="44.9395" rx="0.811948" ry="0.473636" transform="rotate(-73.7037 52.4114 44.9395)" fill="white"/>
<ellipse cx="0.325727" cy="0.0521689" rx="0.325727" ry="0.0521689" transform="matrix(0.99803 -0.0627429 -0.0627429 -0.99803 50.5859 46.0703)" fill="white"/>
<ellipse cx="1.23998" cy="0.723319" rx="1.23998" ry="0.723319" transform="matrix(-0.393231 0.91944 0.91944 0.393231 51.7554 45.5059)" fill="white"/>
<ellipse cx="0.811948" cy="0.473636" rx="0.811948" ry="0.473636" transform="matrix(0.877115 0.480281 0.480281 -0.877115 51.9932 46.2236)" fill="white"/>
<ellipse cx="51.1211" cy="46.5132" rx="0.325727" ry="0.0521689" transform="rotate(-41.4027 51.1211 46.5132)" fill="white"/>
<ellipse cx="39.8655" cy="58.3328" rx="1.23998" ry="0.723319" transform="rotate(156.844 39.8655 58.3328)" fill="white"/>
<ellipse cx="40.5972" cy="57.3333" rx="0.811948" ry="0.473636" transform="rotate(-118.704 40.5972 57.3333)" fill="white"/>
<ellipse cx="0.325727" cy="0.0521689" rx="0.325727" ry="0.0521689" transform="matrix(0.661348 -0.75008 -0.75008 -0.661348 40.106 59.4238)" fill="white"/>
<ellipse cx="1.23998" cy="0.723319" rx="1.23998" ry="0.723319" transform="matrix(0.372086 0.928198 0.928198 -0.372086 40.5342 58.1973)" fill="white"/>
<ellipse cx="0.811948" cy="0.473636" rx="0.811948" ry="0.473636" transform="matrix(0.959824 -0.280604 -0.280604 -0.959824 41.21 58.5371)" fill="white"/>
<ellipse cx="40.7981" cy="59.3584" rx="0.325727" ry="0.0521689" transform="rotate(-86.4027 40.7981 59.3584)" fill="white"/>
<ellipse cx="40.129" cy="77.1865" rx="1.23998" ry="0.723319" transform="rotate(111.844 40.129 77.1865)" fill="white"/>
<ellipse cx="39.9395" cy="75.9621" rx="0.811948" ry="0.473636" transform="rotate(-163.704 39.9395 75.9621)" fill="white"/>
<ellipse cx="0.325727" cy="0.0521689" rx="0.325727" ry="0.0521689" transform="matrix(-0.0627429 -0.99803 -0.99803 0.0627429 41.0703 77.7876)" fill="white"/>
<ellipse cx="1.23998" cy="0.723319" rx="1.23998" ry="0.723319" transform="matrix(0.91944 0.393231 0.393231 -0.91944 40.5054 76.6172)" fill="white"/>
<ellipse cx="0.811948" cy="0.473636" rx="0.811948" ry="0.473636" transform="matrix(0.480281 -0.877115 -0.877115 -0.480281 41.2231 76.3794)" fill="white"/>
<ellipse cx="41.5127" cy="77.2514" rx="0.325727" ry="0.0521689" transform="rotate(-131.403 41.5127 77.2514)" fill="white"/>
<ellipse cx="52.9148" cy="89.5993" rx="1.23998" ry="0.723319" transform="rotate(66.8443 52.9148 89.5993)" fill="white"/>
<ellipse cx="51.9153" cy="88.8676" rx="0.811948" ry="0.473636" transform="rotate(151.296 51.9153 88.8676)" fill="white"/>
<ellipse cx="0.325727" cy="0.0521689" rx="0.325727" ry="0.0521689" transform="matrix(-0.75008 -0.661348 -0.661348 0.75008 54.0059 89.3584)" fill="white"/>
<ellipse cx="1.23998" cy="0.723319" rx="1.23998" ry="0.723319" transform="matrix(0.928198 -0.372086 -0.372086 -0.928198 52.7793 88.9307)" fill="white"/>
<ellipse cx="0.811948" cy="0.473636" rx="0.811948" ry="0.473636" transform="matrix(-0.280604 -0.959824 -0.959824 0.280604 53.1191 88.2549)" fill="white"/>
<ellipse cx="53.9404" cy="88.6668" rx="0.325727" ry="0.0521689" transform="rotate(-176.403 53.9404 88.6668)" fill="white"/>
<ellipse cx="72.9409" cy="89.6718" rx="1.23998" ry="0.723319" transform="rotate(21.8443 72.9409 89.6718)" fill="white"/>
<ellipse cx="71.7165" cy="89.8613" rx="0.811948" ry="0.473636" transform="rotate(106.296 71.7165 89.8613)" fill="white"/>
<ellipse cx="0.325727" cy="0.0521689" rx="0.325727" ry="0.0521689" transform="matrix(-0.99803 0.0627429 0.0627429 0.99803 73.542 88.73)" fill="white"/>
<ellipse cx="1.23998" cy="0.723319" rx="1.23998" ry="0.723319" transform="matrix(0.393231 -0.91944 -0.91944 -0.393231 72.3726 89.2949)" fill="white"/>
<ellipse cx="0.811948" cy="0.473636" rx="0.811948" ry="0.473636" transform="matrix(-0.877115 -0.480281 -0.480281 0.877115 72.1348 88.5771)" fill="white"/>
<ellipse cx="73.0068" cy="88.2876" rx="0.325727" ry="0.0521689" transform="rotate(138.597 73.0068 88.2876)" fill="white"/>
<ellipse cx="84.9357" cy="78.0588" rx="1.23998" ry="0.723319" transform="rotate(-23.1557 84.9357 78.0588)" fill="white"/>
<ellipse cx="84.204" cy="79.0583" rx="0.811948" ry="0.473636" transform="rotate(61.2963 84.204 79.0583)" fill="white"/>
<ellipse cx="0.325727" cy="0.0521689" rx="0.325727" ry="0.0521689" transform="matrix(-0.661348 0.75008 0.75008 0.661348 84.6953 76.9678)" fill="white"/>
<ellipse cx="1.23998" cy="0.723319" rx="1.23998" ry="0.723319" transform="matrix(-0.372086 -0.928198 -0.928198 0.372086 84.2671 78.1943)" fill="white"/>
<ellipse cx="0.811948" cy="0.473636" rx="0.811948" ry="0.473636" transform="matrix(-0.959824 0.280604 0.280604 0.959824 83.5913 77.8545)" fill="white"/>
<ellipse cx="84.0032" cy="77.0332" rx="0.325727" ry="0.0521689" transform="rotate(93.5973 84.0032 77.0332)" fill="white"/>
<ellipse cx="85.4262" cy="56.9414" rx="1.23998" ry="0.723319" transform="rotate(-68.1557 85.4262 56.9414)" fill="white"/>
<ellipse cx="85.6157" cy="58.1658" rx="0.811948" ry="0.473636" transform="rotate(16.2963 85.6157 58.1658)" fill="white"/>
<ellipse cx="0.325727" cy="0.0521689" rx="0.325727" ry="0.0521689" transform="matrix(0.0627429 0.99803 0.99803 -0.0627429 84.4849 56.3403)" fill="white"/>
<ellipse cx="1.23998" cy="0.723319" rx="1.23998" ry="0.723319" transform="matrix(-0.91944 -0.393231 -0.393231 0.91944 85.0498 57.5107)" fill="white"/>
<ellipse cx="0.811948" cy="0.473636" rx="0.811948" ry="0.473636" transform="matrix(-0.480281 0.877115 0.877115 0.480281 84.332 57.7485)" fill="white"/>
<ellipse cx="84.0425" cy="56.8765" rx="0.325727" ry="0.0521689" transform="rotate(48.5973 84.0425 56.8765)" fill="white"/>
<circle cx="62.9515" cy="67.1971" r="23.6434" stroke="white"/>
<path d="M35.808 193.552L34.836 196H32.874L37.122 184.786H38.778L42.918 196H40.938L40.02 193.552H35.808ZM37.842 187.468L36.258 192.094H39.516L37.842 187.468ZM45.2746 189.538C45.7666 188.95 46.4926 188.656 47.4526 188.656C49.0846 188.656 49.9006 189.658 49.9006 191.662V196H48.1726V192.238C48.1726 190.738 47.7106 189.988 46.7866 189.988C45.7786 189.988 45.2746 190.792 45.2746 192.4V196H43.5286V188.89H45.2746V189.538ZM53.4929 185.902C53.4929 186.178 53.3909 186.418 53.1869 186.622C52.9829 186.826 52.7429 186.928 52.4669 186.928C52.1909 186.928 51.9509 186.826 51.7469 186.622C51.5429 186.418 51.4409 186.178 51.4409 185.902C51.4409 185.626 51.5429 185.386 51.7469 185.182C51.9509 184.978 52.1909 184.876 52.4669 184.876C52.7429 184.876 52.9829 184.978 53.1869 185.182C53.3909 185.386 53.4929 185.626 53.4929 185.902ZM53.3489 196H51.6029V188.89H53.3489V196ZM56.7707 189.52C57.2147 188.944 57.8987 188.656 58.8227 188.656C59.6267 188.656 60.2627 189.028 60.7307 189.772C61.1867 189.028 61.9247 188.656 62.9447 188.656C64.4447 188.656 65.1947 189.628 65.1947 191.572V196H63.4667V192.256C63.4667 190.744 63.0527 189.988 62.2247 189.988C61.3967 189.988 60.9827 190.828 60.9827 192.508V196H59.2367V192.4C59.2367 190.792 58.8707 189.988 58.1387 189.988C57.2267 189.988 56.7707 190.828 56.7707 192.508V196H55.0247V188.89H56.7707V189.52ZM73.3934 196H71.6834V195.352C71.1794 195.94 70.4294 196.234 69.4334 196.234C68.4374 196.234 67.6394 195.85 67.0394 195.082C66.4514 194.314 66.1574 193.414 66.1574 192.382C66.1574 191.35 66.4574 190.474 67.0574 189.754C67.6694 189.022 68.4494 188.656 69.3974 188.656C70.4054 188.656 71.1674 188.956 71.6834 189.556V188.89H73.3934V196ZM71.8814 192.436C71.8814 191.776 71.6954 191.236 71.3234 190.816C70.9514 190.384 70.4714 190.168 69.8834 190.168C69.3074 190.168 68.8334 190.378 68.4614 190.798C68.1014 191.206 67.9214 191.752 67.9214 192.436C67.9214 193.12 68.1074 193.672 68.4794 194.092C68.8514 194.512 69.3314 194.722 69.9194 194.722C70.5074 194.722 70.9814 194.518 71.3414 194.11C71.7014 193.702 71.8814 193.144 71.8814 192.436ZM76.9948 196H75.2488V190.456H74.4028V189.034H75.2488V186.478H76.9948V189.034H78.3808V190.456H76.9948V196ZM80.9675 185.902C80.9675 186.178 80.8655 186.418 80.6615 186.622C80.4575 186.826 80.2175 186.928 79.9415 186.928C79.6655 186.928 79.4255 186.826 79.2215 186.622C79.0175 186.418 78.9155 186.178 78.9155 185.902C78.9155 185.626 79.0175 185.386 79.2215 185.182C79.4255 184.978 79.6655 184.876 79.9415 184.876C80.2175 184.876 80.4575 184.978 80.6615 185.182C80.8655 185.386 80.9675 185.626 80.9675 185.902ZM80.8235 196H79.0775V188.89H80.8235V196ZM89.4833 192.436C89.4833 193.552 89.1413 194.464 88.4573 195.172C87.7733 195.88 86.8733 196.234 85.7573 196.234C84.6533 196.234 83.7533 195.88 83.0573 195.172C82.3613 194.464 82.0133 193.558 82.0133 192.454C82.0133 191.338 82.3553 190.426 83.0393 189.718C83.7233 189.01 84.6233 188.656 85.7393 188.656C86.8553 188.656 87.7553 189.01 88.4393 189.718C89.1353 190.414 89.4833 191.32 89.4833 192.436ZM83.7773 192.472C83.7773 193.132 83.9633 193.672 84.3353 194.092C84.7073 194.512 85.1873 194.722 85.7753 194.722C86.3633 194.722 86.8313 194.5 87.1793 194.056C87.5393 193.6 87.7193 193.066 87.7193 192.454C87.7193 191.83 87.5393 191.296 87.1793 190.852C86.8193 190.396 86.3453 190.168 85.7573 190.168C85.1813 190.168 84.7073 190.384 84.3353 190.816C83.9633 191.248 83.7773 191.8 83.7773 192.472ZM92.1906 189.538C92.6826 188.95 93.4086 188.656 94.3686 188.656C96.0006 188.656 96.8166 189.658 96.8166 191.662V196H95.0886V192.238C95.0886 190.738 94.6266 189.988 93.7026 189.988C92.6946 189.988 92.1906 190.792 92.1906 192.4V196H90.4446V188.89H92.1906V189.538ZM106.025 189.538C106.529 188.95 107.279 188.656 108.275 188.656C109.211 188.656 109.985 189.028 110.597 189.772C111.221 190.516 111.533 191.392 111.533 192.4C111.533 193.492 111.227 194.404 110.615 195.136C110.003 195.868 109.211 196.234 108.239 196.234C107.195 196.234 106.469 195.934 106.061 195.334L106.025 199.006H104.279V188.89H106.025V189.538ZM109.751 192.436C109.751 191.824 109.577 191.296 109.229 190.852C108.881 190.396 108.401 190.168 107.789 190.168C107.225 190.168 106.757 190.396 106.385 190.852C106.013 191.308 105.827 191.836 105.827 192.436C105.827 193.024 106.025 193.552 106.421 194.02C106.817 194.488 107.273 194.722 107.789 194.722C108.401 194.722 108.881 194.506 109.229 194.074C109.577 193.642 109.751 193.096 109.751 192.436ZM114.216 189.628C114.66 188.98 115.356 188.656 116.304 188.656C116.604 188.656 116.88 188.716 117.132 188.836L116.916 190.42C116.652 190.252 116.364 190.168 116.052 190.168C114.828 190.168 114.216 191.044 114.216 192.796V196H112.47V188.89H114.216V189.628ZM124.763 192.436C124.763 193.552 124.421 194.464 123.737 195.172C123.053 195.88 122.153 196.234 121.037 196.234C119.933 196.234 119.033 195.88 118.337 195.172C117.641 194.464 117.293 193.558 117.293 192.454C117.293 191.338 117.635 190.426 118.319 189.718C119.003 189.01 119.903 188.656 121.019 188.656C122.135 188.656 123.035 189.01 123.719 189.718C124.415 190.414 124.763 191.32 124.763 192.436ZM119.057 192.472C119.057 193.132 119.243 193.672 119.615 194.092C119.987 194.512 120.467 194.722 121.055 194.722C121.643 194.722 122.111 194.5 122.459 194.056C122.819 193.6 122.999 193.066 122.999 192.454C122.999 191.83 122.819 191.296 122.459 190.852C122.099 190.396 121.625 190.168 121.037 190.168C120.461 190.168 119.987 190.384 119.615 190.816C119.243 191.248 119.057 191.8 119.057 192.472ZM127.722 199.798H125.976V188.89H127.722V199.798ZM127.866 185.902C127.866 186.178 127.764 186.418 127.56 186.622C127.356 186.826 127.116 186.928 126.84 186.928C126.564 186.928 126.324 186.826 126.12 186.622C125.916 186.418 125.814 186.178 125.814 185.902C125.814 185.626 125.916 185.386 126.12 185.182C126.324 184.978 126.564 184.876 126.84 184.876C127.116 184.876 127.356 184.978 127.56 185.182C127.764 185.386 127.866 185.626 127.866 185.902ZM130.748 192.616C130.748 193.3 130.898 193.864 131.198 194.308C131.498 194.752 131.912 194.974 132.44 194.974C133.268 194.974 133.796 194.566 134.024 193.75L135.68 194.02C135.14 195.496 134.06 196.234 132.44 196.234C131.36 196.234 130.496 195.892 129.848 195.208C129.212 194.512 128.894 193.612 128.894 192.508C128.894 191.344 129.2 190.414 129.812 189.718C130.436 189.01 131.276 188.656 132.332 188.656C133.4 188.656 134.228 188.992 134.816 189.664C135.416 190.324 135.716 191.23 135.716 192.382V192.616H130.748ZM134.096 191.644C134.096 191.152 133.94 190.72 133.628 190.348C133.328 189.976 132.932 189.79 132.44 189.79C131.96 189.79 131.564 189.988 131.252 190.384C130.952 190.768 130.802 191.188 130.802 191.644H134.096ZM141.5 190.744C141.056 190.3 140.558 190.078 140.006 190.078C139.358 190.078 138.848 190.312 138.476 190.78C138.104 191.248 137.918 191.824 137.918 192.508C137.918 193.18 138.128 193.732 138.548 194.164C138.968 194.596 139.478 194.812 140.078 194.812C140.594 194.812 141.068 194.584 141.5 194.128V195.802C140.996 196.09 140.414 196.234 139.754 196.234C138.722 196.234 137.864 195.868 137.18 195.136C136.496 194.404 136.154 193.51 136.154 192.454C136.154 191.398 136.502 190.504 137.198 189.772C137.906 189.028 138.788 188.656 139.844 188.656C140.468 188.656 141.02 188.806 141.5 189.106V190.744ZM144.899 196H143.153V190.456H142.307V189.034H143.153V186.478H144.899V189.034H146.285V190.456H144.899V196ZM157.583 190.744C157.139 190.3 156.641 190.078 156.089 190.078C155.441 190.078 154.931 190.312 154.559 190.78C154.187 191.248 154.001 191.824 154.001 192.508C154.001 193.18 154.211 193.732 154.631 194.164C155.051 194.596 155.561 194.812 156.161 194.812C156.677 194.812 157.151 194.584 157.583 194.128V195.802C157.079 196.09 156.497 196.234 155.837 196.234C154.805 196.234 153.947 195.868 153.263 195.136C152.579 194.404 152.237 193.51 152.237 192.454C152.237 191.398 152.585 190.504 153.281 189.772C153.989 189.028 154.871 188.656 155.927 188.656C156.551 188.656 157.103 188.806 157.583 189.106V190.744ZM165.825 192.436C165.825 193.552 165.483 194.464 164.799 195.172C164.115 195.88 163.215 196.234 162.099 196.234C160.995 196.234 160.095 195.88 159.399 195.172C158.703 194.464 158.355 193.558 158.355 192.454C158.355 191.338 158.697 190.426 159.381 189.718C160.065 189.01 160.965 188.656 162.081 188.656C163.197 188.656 164.097 189.01 164.781 189.718C165.477 190.414 165.825 191.32 165.825 192.436ZM160.119 192.472C160.119 193.132 160.305 193.672 160.677 194.092C161.049 194.512 161.529 194.722 162.117 194.722C162.705 194.722 163.173 194.5 163.521 194.056C163.881 193.6 164.061 193.066 164.061 192.454C164.061 191.83 163.881 191.296 163.521 190.852C163.161 190.396 162.687 190.168 162.099 190.168C161.523 190.168 161.049 190.384 160.677 190.816C160.305 191.248 160.119 191.8 160.119 192.472ZM168.532 189.52C168.976 188.944 169.66 188.656 170.584 188.656C171.388 188.656 172.024 189.028 172.492 189.772C172.948 189.028 173.686 188.656 174.706 188.656C176.206 188.656 176.956 189.628 176.956 191.572V196H175.228V192.256C175.228 190.744 174.814 189.988 173.986 189.988C173.158 189.988 172.744 190.828 172.744 192.508V196H170.998V192.4C170.998 190.792 170.632 189.988 169.9 189.988C168.988 189.988 168.532 190.828 168.532 192.508V196H166.786V188.89H168.532V189.52ZM178.423 183.706H180.169V189.538C180.673 188.95 181.423 188.656 182.419 188.656C183.355 188.656 184.129 189.028 184.741 189.772C185.365 190.516 185.677 191.392 185.677 192.4C185.677 193.492 185.371 194.404 184.759 195.136C184.147 195.868 183.355 196.234 182.383 196.234C181.339 196.234 180.613 195.934 180.205 195.334L180.169 196H178.423V183.706ZM183.895 192.436C183.895 191.836 183.709 191.308 183.337 190.852C182.965 190.396 182.491 190.168 181.915 190.168C181.339 190.168 180.871 190.396 180.511 190.852C180.151 191.296 179.971 191.83 179.971 192.454C179.971 193.066 180.157 193.6 180.529 194.056C180.913 194.5 181.381 194.722 181.933 194.722C182.533 194.722 183.007 194.506 183.355 194.074C183.715 193.63 183.895 193.084 183.895 192.436ZM188.757 185.902C188.757 186.178 188.655 186.418 188.451 186.622C188.247 186.826 188.007 186.928 187.731 186.928C187.455 186.928 187.215 186.826 187.011 186.622C186.807 186.418 186.705 186.178 186.705 185.902C186.705 185.626 186.807 185.386 187.011 185.182C187.215 184.978 187.455 184.876 187.731 184.876C188.007 184.876 188.247 184.978 188.451 185.182C188.655 185.386 188.757 185.626 188.757 185.902ZM188.613 196H186.867V188.89H188.613V196ZM192.034 189.538C192.526 188.95 193.252 188.656 194.212 188.656C195.844 188.656 196.66 189.658 196.66 191.662V196H194.932V192.238C194.932 190.738 194.47 189.988 193.546 189.988C192.538 189.988 192.034 190.792 192.034 192.4V196H190.288V188.89H192.034V189.538ZM199.461 192.616C199.461 193.3 199.611 193.864 199.911 194.308C200.211 194.752 200.625 194.974 201.153 194.974C201.981 194.974 202.509 194.566 202.737 193.75L204.393 194.02C203.853 195.496 202.773 196.234 201.153 196.234C200.073 196.234 199.209 195.892 198.561 195.208C197.925 194.512 197.607 193.612 197.607 192.508C197.607 191.344 197.913 190.414 198.525 189.718C199.149 189.01 199.989 188.656 201.045 188.656C202.113 188.656 202.941 188.992 203.529 189.664C204.129 190.324 204.429 191.23 204.429 192.382V192.616H199.461ZM202.809 191.644C202.809 191.152 202.653 190.72 202.341 190.348C202.041 189.976 201.645 189.79 201.153 189.79C200.673 189.79 200.277 189.988 199.965 190.384C199.665 190.768 199.515 191.188 199.515 191.644H202.809ZM210.374 195.334C209.906 195.934 209.168 196.234 208.16 196.234C207.152 196.234 206.348 195.85 205.748 195.082C205.16 194.314 204.866 193.414 204.866 192.382C204.866 191.35 205.166 190.474 205.766 189.754C206.378 189.022 207.158 188.656 208.106 188.656C209.114 188.656 209.858 188.95 210.338 189.538L210.374 183.706H212.12V196H210.374V195.334ZM210.572 192.436C210.572 191.812 210.38 191.278 209.996 190.834C209.612 190.39 209.15 190.168 208.61 190.168C208.07 190.168 207.602 190.39 207.206 190.834C206.822 191.266 206.63 191.806 206.63 192.454C206.63 193.09 206.816 193.63 207.188 194.074C207.572 194.506 208.052 194.722 208.628 194.722C209.204 194.722 209.672 194.512 210.032 194.092C210.392 193.66 210.572 193.108 210.572 192.436ZM35.466 201.706V207.484C35.922 206.932 36.648 206.656 37.644 206.656C38.388 206.656 38.982 206.944 39.426 207.52C39.87 208.096 40.092 208.81 40.092 209.662V214H38.364V210.238C38.364 208.738 37.902 207.988 36.978 207.988C35.97 207.988 35.466 208.816 35.466 210.472V214H33.72V201.706H35.466ZM48.2743 214H46.5643V213.352C46.0603 213.94 45.3103 214.234 44.3143 214.234C43.3183 214.234 42.5203 213.85 41.9203 213.082C41.3323 212.314 41.0383 211.414 41.0383 210.382C41.0383 209.35 41.3383 208.474 41.9383 207.754C42.5503 207.022 43.3303 206.656 44.2783 206.656C45.2863 206.656 46.0483 206.956 46.5643 207.556V206.89H48.2743V214ZM46.7623 210.436C46.7623 209.776 46.5763 209.236 46.2043 208.816C45.8323 208.384 45.3523 208.168 44.7643 208.168C44.1883 208.168 43.7143 208.378 43.3423 208.798C42.9823 209.206 42.8023 209.752 42.8023 210.436C42.8023 211.12 42.9883 211.672 43.3603 212.092C43.7323 212.512 44.2123 212.722 44.8003 212.722C45.3883 212.722 45.8623 212.518 46.2223 212.11C46.5823 211.702 46.7623 211.144 46.7623 210.436ZM51.4797 207.538C51.9717 206.95 52.6977 206.656 53.6577 206.656C55.2897 206.656 56.1057 207.658 56.1057 209.662V214H54.3777V210.238C54.3777 208.738 53.9157 207.988 52.9917 207.988C51.9837 207.988 51.4797 208.792 51.4797 210.4V214H49.7337V206.89H51.4797V207.538ZM62.5599 213.334C62.0919 213.934 61.3539 214.234 60.3459 214.234C59.3379 214.234 58.5339 213.85 57.9339 213.082C57.3459 212.314 57.0519 211.414 57.0519 210.382C57.0519 209.35 57.3519 208.474 57.9519 207.754C58.5639 207.022 59.3439 206.656 60.2919 206.656C61.2999 206.656 62.0439 206.95 62.5239 207.538L62.5599 201.706H64.3059V214H62.5599V213.334ZM62.7579 210.436C62.7579 209.812 62.5659 209.278 62.1819 208.834C61.7979 208.39 61.3359 208.168 60.7959 208.168C60.2559 208.168 59.7879 208.39 59.3919 208.834C59.0079 209.266 58.8159 209.806 58.8159 210.454C58.8159 211.09 59.0019 211.63 59.3739 212.074C59.7579 212.506 60.2379 212.722 60.8139 212.722C61.3899 212.722 61.8579 212.512 62.2179 212.092C62.5779 211.66 62.7579 211.108 62.7579 210.436ZM76.7631 213.334C76.2951 213.934 75.5571 214.234 74.5491 214.234C73.5411 214.234 72.7371 213.85 72.1371 213.082C71.5491 212.314 71.2551 211.414 71.2551 210.382C71.2551 209.35 71.5551 208.474 72.1551 207.754C72.7671 207.022 73.5471 206.656 74.4951 206.656C75.5031 206.656 76.2471 206.95 76.7271 207.538L76.7631 201.706H78.5091V214H76.7631V213.334ZM76.9611 210.436C76.9611 209.812 76.7691 209.278 76.3851 208.834C76.0011 208.39 75.5391 208.168 74.9991 208.168C74.4591 208.168 73.9911 208.39 73.5951 208.834C73.2111 209.266 73.0191 209.806 73.0191 210.454C73.0191 211.09 73.2051 211.63 73.5771 212.074C73.9611 212.506 74.4411 212.722 75.0171 212.722C75.5931 212.722 76.0611 212.512 76.4211 212.092C76.7811 211.66 76.9611 211.108 76.9611 210.436ZM81.6965 207.628C82.1405 206.98 82.8365 206.656 83.7845 206.656C84.0845 206.656 84.3605 206.716 84.6125 206.836L84.3965 208.42C84.1325 208.252 83.8445 208.168 83.5325 208.168C82.3085 208.168 81.6965 209.044 81.6965 210.796V214H79.9505V206.89H81.6965V207.628ZM91.9911 214H90.2811V213.352C89.7771 213.94 89.0271 214.234 88.0311 214.234C87.0351 214.234 86.2371 213.85 85.6371 213.082C85.0491 212.314 84.7551 211.414 84.7551 210.382C84.7551 209.35 85.0551 208.474 85.6551 207.754C86.2671 207.022 87.0471 206.656 87.9951 206.656C89.0031 206.656 89.7651 206.956 90.2811 207.556V206.89H91.9911V214ZM90.4791 210.436C90.4791 209.776 90.2931 209.236 89.9211 208.816C89.5491 208.384 89.0691 208.168 88.4811 208.168C87.9051 208.168 87.4311 208.378 87.0591 208.798C86.6991 209.206 86.5191 209.752 86.5191 210.436C86.5191 211.12 86.7051 211.672 87.0771 212.092C87.4491 212.512 87.9291 212.722 88.5171 212.722C89.1051 212.722 89.5791 212.518 89.9391 212.11C90.2991 211.702 90.4791 211.144 90.4791 210.436ZM96.1505 211.534L98.0405 206.656H98.6705L100.65 211.516L102.414 206.89H104.34L101.028 214.144H100.146L98.5085 209.59L96.6365 214.144H95.7365L92.4785 206.89H94.4045L96.1505 211.534ZM106.93 203.902C106.93 204.178 106.828 204.418 106.624 204.622C106.42 204.826 106.18 204.928 105.904 204.928C105.628 204.928 105.388 204.826 105.184 204.622C104.98 204.418 104.878 204.178 104.878 203.902C104.878 203.626 104.98 203.386 105.184 203.182C105.388 202.978 105.628 202.876 105.904 202.876C106.18 202.876 106.42 202.978 106.624 203.182C106.828 203.386 106.93 203.626 106.93 203.902ZM106.786 214H105.04V206.89H106.786V214ZM110.208 207.538C110.7 206.95 111.426 206.656 112.386 206.656C114.018 206.656 114.834 207.658 114.834 209.662V214H113.106V210.238C113.106 208.738 112.644 207.988 111.72 207.988C110.712 207.988 110.208 208.792 110.208 210.4V214H108.462V206.89H110.208V207.538ZM123.052 213.388C123.052 215.824 121.918 217.042 119.65 217.042C118.642 217.042 117.79 216.766 117.094 216.214C116.398 215.674 116.05 214.966 116.05 214.09H117.904C117.904 214.438 118.078 214.78 118.426 215.116C118.774 215.452 119.164 215.62 119.596 215.62C120.736 215.62 121.306 214.936 121.306 213.568V213.118C120.814 213.742 120.064 214.054 119.056 214.054C118.06 214.054 117.274 213.706 116.698 213.01C116.134 212.314 115.852 211.462 115.852 210.454C115.852 209.362 116.158 208.45 116.77 207.718C117.382 206.986 118.174 206.62 119.146 206.62C120.13 206.62 120.85 206.926 121.306 207.538V206.854H123.052V213.388ZM121.558 210.292C121.558 209.644 121.378 209.122 121.018 208.726C120.658 208.33 120.184 208.132 119.596 208.132C119.008 208.132 118.528 208.348 118.156 208.78C117.796 209.212 117.616 209.758 117.616 210.418C117.616 211.834 118.276 212.542 119.596 212.542C120.196 212.542 120.67 212.332 121.018 211.912C121.378 211.48 121.558 210.94 121.558 210.292ZM137.167 214H135.457V213.352C134.953 213.94 134.203 214.234 133.207 214.234C132.211 214.234 131.413 213.85 130.813 213.082C130.225 212.314 129.931 211.414 129.931 210.382C129.931 209.35 130.231 208.474 130.831 207.754C131.443 207.022 132.223 206.656 133.171 206.656C134.179 206.656 134.941 206.956 135.457 207.556V206.89H137.167V214ZM135.655 210.436C135.655 209.776 135.469 209.236 135.097 208.816C134.725 208.384 134.245 208.168 133.657 208.168C133.081 208.168 132.607 208.378 132.235 208.798C131.875 209.206 131.695 209.752 131.695 210.436C131.695 211.12 131.881 211.672 132.253 212.092C132.625 212.512 133.105 212.722 133.693 212.722C134.281 212.722 134.755 212.518 135.115 212.11C135.475 211.702 135.655 211.144 135.655 210.436ZM140.372 207.538C140.864 206.95 141.59 206.656 142.55 206.656C144.182 206.656 144.998 207.658 144.998 209.662V214H143.27V210.238C143.27 208.738 142.808 207.988 141.884 207.988C140.876 207.988 140.372 208.792 140.372 210.4V214H138.626V206.89H140.372V207.538ZM151.453 213.334C150.985 213.934 150.247 214.234 149.239 214.234C148.231 214.234 147.427 213.85 146.827 213.082C146.239 212.314 145.945 211.414 145.945 210.382C145.945 209.35 146.245 208.474 146.845 207.754C147.457 207.022 148.237 206.656 149.185 206.656C150.193 206.656 150.937 206.95 151.417 207.538L151.453 201.706H153.199V214H151.453V213.334ZM151.651 210.436C151.651 209.812 151.459 209.278 151.075 208.834C150.691 208.39 150.229 208.168 149.689 208.168C149.149 208.168 148.681 208.39 148.285 208.834C147.901 209.266 147.709 209.806 147.709 210.454C147.709 211.09 147.895 211.63 148.267 212.074C148.651 212.506 149.131 212.722 149.707 212.722C150.283 212.722 150.751 212.512 151.111 212.092C151.471 211.66 151.651 211.108 151.651 210.436ZM165.656 213.334C165.188 213.934 164.45 214.234 163.442 214.234C162.434 214.234 161.63 213.85 161.03 213.082C160.442 212.314 160.148 211.414 160.148 210.382C160.148 209.35 160.448 208.474 161.048 207.754C161.66 207.022 162.44 206.656 163.388 206.656C164.396 206.656 165.14 206.95 165.62 207.538L165.656 201.706H167.402V214H165.656V213.334ZM165.854 210.436C165.854 209.812 165.662 209.278 165.278 208.834C164.894 208.39 164.432 208.168 163.892 208.168C163.352 208.168 162.884 208.39 162.488 208.834C162.104 209.266 161.912 209.806 161.912 210.454C161.912 211.09 162.098 211.63 162.47 212.074C162.854 212.506 163.334 212.722 163.91 212.722C164.486 212.722 164.954 212.512 165.314 212.092C165.674 211.66 165.854 211.108 165.854 210.436ZM170.985 203.902C170.985 204.178 170.883 204.418 170.679 204.622C170.475 204.826 170.235 204.928 169.959 204.928C169.683 204.928 169.443 204.826 169.239 204.622C169.035 204.418 168.933 204.178 168.933 203.902C168.933 203.626 169.035 203.386 169.239 203.182C169.443 202.978 169.683 202.876 169.959 202.876C170.235 202.876 170.475 202.978 170.679 203.182C170.883 203.386 170.985 203.626 170.985 203.902ZM170.841 214H169.095V206.89H170.841V214ZM179.285 213.388C179.285 215.824 178.151 217.042 175.883 217.042C174.875 217.042 174.023 216.766 173.327 216.214C172.631 215.674 172.283 214.966 172.283 214.09H174.137C174.137 214.438 174.311 214.78 174.659 215.116C175.007 215.452 175.397 215.62 175.829 215.62C176.969 215.62 177.539 214.936 177.539 213.568V213.118C177.047 213.742 176.297 214.054 175.289 214.054C174.293 214.054 173.507 213.706 172.931 213.01C172.367 212.314 172.085 211.462 172.085 210.454C172.085 209.362 172.391 208.45 173.003 207.718C173.615 206.986 174.407 206.62 175.379 206.62C176.363 206.62 177.083 206.926 177.539 207.538V206.854H179.285V213.388ZM177.791 210.292C177.791 209.644 177.611 209.122 177.251 208.726C176.891 208.33 176.417 208.132 175.829 208.132C175.241 208.132 174.761 208.348 174.389 208.78C174.029 209.212 173.849 209.758 173.849 210.418C173.849 211.834 174.509 212.542 175.829 212.542C176.429 212.542 176.903 212.332 177.251 211.912C177.611 211.48 177.791 210.94 177.791 210.292ZM182.798 203.902C182.798 204.178 182.696 204.418 182.492 204.622C182.288 204.826 182.048 204.928 181.772 204.928C181.496 204.928 181.256 204.826 181.052 204.622C180.848 204.418 180.746 204.178 180.746 203.902C180.746 203.626 180.848 203.386 181.052 203.182C181.256 202.978 181.496 202.876 181.772 202.876C182.048 202.876 182.288 202.978 182.492 203.182C182.696 203.386 182.798 203.626 182.798 203.902ZM182.654 214H180.908V206.89H182.654V214ZM186.471 214H184.725V208.456H183.879V207.034H184.725V204.478H186.471V207.034H187.857V208.456H186.471V214ZM195.034 214H193.324V213.352C192.82 213.94 192.07 214.234 191.074 214.234C190.078 214.234 189.28 213.85 188.68 213.082C188.092 212.314 187.798 211.414 187.798 210.382C187.798 209.35 188.098 208.474 188.698 207.754C189.31 207.022 190.09 206.656 191.038 206.656C192.046 206.656 192.808 206.956 193.324 207.556V206.89H195.034V214ZM193.522 210.436C193.522 209.776 193.336 209.236 192.964 208.816C192.592 208.384 192.112 208.168 191.524 208.168C190.948 208.168 190.474 208.378 190.102 208.798C189.742 209.206 189.562 209.752 189.562 210.436C189.562 211.12 189.748 211.672 190.12 212.092C190.492 212.512 190.972 212.722 191.56 212.722C192.148 212.722 192.622 212.518 192.982 212.11C193.342 211.702 193.522 211.144 193.522 210.436ZM198.383 214H196.637V201.706H198.383V214ZM35.862 232H34.116V226.456H33.27V225.034H34.116V222.478H35.862V225.034H37.248V226.456H35.862V232ZM39.0427 228.616C39.0427 229.3 39.1927 229.864 39.4927 230.308C39.7927 230.752 40.2067 230.974 40.7347 230.974C41.5627 230.974 42.0907 230.566 42.3187 229.75L43.9747 230.02C43.4347 231.496 42.3547 232.234 40.7347 232.234C39.6547 232.234 38.7907 231.892 38.1427 231.208C37.5067 230.512 37.1887 229.612 37.1887 228.508C37.1887 227.344 37.4947 226.414 38.1067 225.718C38.7307 225.01 39.5707 224.656 40.6267 224.656C41.6947 224.656 42.5227 224.992 43.1107 225.664C43.7107 226.324 44.0107 227.23 44.0107 228.382V228.616H39.0427ZM42.3907 227.644C42.3907 227.152 42.2347 226.72 41.9227 226.348C41.6227 225.976 41.2267 225.79 40.7347 225.79C40.2547 225.79 39.8587 225.988 39.5467 226.384C39.2467 226.768 39.0967 227.188 39.0967 227.644H42.3907ZM49.7944 226.744C49.3504 226.3 48.8524 226.078 48.3004 226.078C47.6524 226.078 47.1424 226.312 46.7704 226.78C46.3984 227.248 46.2124 227.824 46.2124 228.508C46.2124 229.18 46.4224 229.732 46.8424 230.164C47.2624 230.596 47.7724 230.812 48.3724 230.812C48.8884 230.812 49.3624 230.584 49.7944 230.128V231.802C49.2904 232.09 48.7084 232.234 48.0484 232.234C47.0164 232.234 46.1584 231.868 45.4744 231.136C44.7904 230.404 44.4484 229.51 44.4484 228.454C44.4484 227.398 44.7964 226.504 45.4924 225.772C46.2004 225.028 47.0824 224.656 48.1384 224.656C48.7624 224.656 49.3144 224.806 49.7944 225.106V226.744ZM52.798 219.706V225.484C53.254 224.932 53.98 224.656 54.976 224.656C55.72 224.656 56.314 224.944 56.758 225.52C57.202 226.096 57.424 226.81 57.424 227.662V232H55.696V228.238C55.696 226.738 55.234 225.988 54.31 225.988C53.302 225.988 52.798 226.816 52.798 228.472V232H51.052V219.706H52.798ZM60.6203 225.538C61.1123 224.95 61.8383 224.656 62.7983 224.656C64.4303 224.656 65.2463 225.658 65.2463 227.662V232H63.5183V228.238C63.5183 226.738 63.0563 225.988 62.1323 225.988C61.1243 225.988 60.6203 226.792 60.6203 228.4V232H58.8743V224.89H60.6203V225.538ZM73.6806 228.436C73.6806 229.552 73.3386 230.464 72.6546 231.172C71.9706 231.88 71.0706 232.234 69.9546 232.234C68.8506 232.234 67.9506 231.88 67.2546 231.172C66.5586 230.464 66.2106 229.558 66.2106 228.454C66.2106 227.338 66.5526 226.426 67.2366 225.718C67.9206 225.01 68.8206 224.656 69.9366 224.656C71.0526 224.656 71.9526 225.01 72.6366 225.718C73.3326 226.414 73.6806 227.32 73.6806 228.436ZM67.9746 228.472C67.9746 229.132 68.1606 229.672 68.5326 230.092C68.9046 230.512 69.3846 230.722 69.9726 230.722C70.5606 230.722 71.0286 230.5 71.3766 230.056C71.7366 229.6 71.9166 229.066 71.9166 228.454C71.9166 227.83 71.7366 227.296 71.3766 226.852C71.0166 226.396 70.5426 226.168 69.9546 226.168C69.3786 226.168 68.9046 226.384 68.5326 226.816C68.1606 227.248 67.9746 227.8 67.9746 228.472ZM76.5319 232H74.7859V219.706H76.5319V232ZM85.0888 228.436C85.0888 229.552 84.7468 230.464 84.0628 231.172C83.3788 231.88 82.4788 232.234 81.3628 232.234C80.2588 232.234 79.3588 231.88 78.6628 231.172C77.9668 230.464 77.6188 229.558 77.6188 228.454C77.6188 227.338 77.9608 226.426 78.6448 225.718C79.3288 225.01 80.2288 224.656 81.3448 224.656C82.4608 224.656 83.3608 225.01 84.0448 225.718C84.7408 226.414 85.0888 227.32 85.0888 228.436ZM79.3828 228.472C79.3828 229.132 79.5688 229.672 79.9408 230.092C80.3128 230.512 80.7928 230.722 81.3808 230.722C81.9688 230.722 82.4368 230.5 82.7848 230.056C83.1448 229.6 83.3248 229.066 83.3248 228.454C83.3248 227.83 83.1448 227.296 82.7848 226.852C82.4248 226.396 81.9508 226.168 81.3628 226.168C80.7868 226.168 80.3128 226.384 79.9408 226.816C79.5688 227.248 79.3828 227.8 79.3828 228.472ZM92.8181 231.388C92.8181 233.824 91.6841 235.042 89.4161 235.042C88.4081 235.042 87.5561 234.766 86.8601 234.214C86.1641 233.674 85.8161 232.966 85.8161 232.09H87.6701C87.6701 232.438 87.8441 232.78 88.1921 233.116C88.5401 233.452 88.9301 233.62 89.3621 233.62C90.5021 233.62 91.0721 232.936 91.0721 231.568V231.118C90.5801 231.742 89.8301 232.054 88.8221 232.054C87.8261 232.054 87.0401 231.706 86.4641 231.01C85.9001 230.314 85.6181 229.462 85.6181 228.454C85.6181 227.362 85.9241 226.45 86.5361 225.718C87.1481 224.986 87.9401 224.62 88.9121 224.62C89.8961 224.62 90.6161 224.926 91.0721 225.538V224.854H92.8181V231.388ZM91.3241 228.292C91.3241 227.644 91.1441 227.122 90.7841 226.726C90.4241 226.33 89.9501 226.132 89.3621 226.132C88.7741 226.132 88.2941 226.348 87.9221 226.78C87.5621 227.212 87.3821 227.758 87.3821 228.418C87.3821 229.834 88.0421 230.542 89.3621 230.542C89.9621 230.542 90.4361 230.332 90.7841 229.912C91.1441 229.48 91.3241 228.94 91.3241 228.292ZM93.3607 224.89H95.3768L97.2308 229.156L99.1748 224.89H101.155L96.1147 234.97H94.1708L96.3668 230.902L93.3607 224.89ZM104.394 230.974C104.394 231.334 104.268 231.646 104.016 231.91C103.776 232.162 103.476 232.288 103.116 232.288C102.756 232.288 102.45 232.162 102.198 231.91C101.946 231.658 101.82 231.358 101.82 231.01C101.82 230.65 101.946 230.344 102.198 230.092C102.45 229.84 102.75 229.714 103.098 229.714C103.458 229.714 103.764 229.834 104.016 230.074C104.268 230.314 104.394 230.614 104.394 230.974Z" fill="white"/>
<path d="M219.758 291.434V293H212.414L215.186 289.49C216.506 287.858 217.28 286.838 217.508 286.43C217.748 286.01 217.868 285.668 217.868 285.404C217.88 285.332 217.886 285.26 217.886 285.188C217.886 284.708 217.724 284.282 217.4 283.91C217.088 283.538 216.674 283.352 216.158 283.352C215.642 283.352 215.234 283.562 214.934 283.982C214.646 284.402 214.502 284.912 214.502 285.512H212.558C212.558 284.432 212.876 283.544 213.512 282.848C214.16 282.14 215.036 281.786 216.14 281.786C217.136 281.786 217.976 282.122 218.66 282.794C219.344 283.466 219.686 284.306 219.686 285.314C219.686 286.262 218.96 287.582 217.508 289.274L215.654 291.434H219.758ZM228.467 287.546C228.467 289.13 228.119 290.486 227.423 291.614C226.727 292.73 225.767 293.288 224.543 293.288C223.331 293.288 222.377 292.724 221.681 291.596C220.985 290.468 220.637 289.118 220.637 287.546C220.637 285.914 220.985 284.546 221.681 283.442C222.389 282.338 223.349 281.786 224.561 281.786C225.773 281.786 226.727 282.35 227.423 283.478C228.119 284.594 228.467 285.95 228.467 287.546ZM222.437 287.528C222.437 288.632 222.629 289.61 223.013 290.462C223.397 291.302 223.919 291.722 224.579 291.722C225.239 291.722 225.749 291.326 226.109 290.534C226.481 289.742 226.667 288.74 226.667 287.528C226.667 286.412 226.475 285.44 226.091 284.612C225.707 283.772 225.191 283.352 224.543 283.352C223.907 283.352 223.397 283.79 223.013 284.666C222.629 285.53 222.437 286.484 222.437 287.528ZM230.84 283.64V282.074H234.26V293H232.406V283.64H230.84ZM240.846 283.64L240.414 285.602L241.26 285.566C242.304 285.566 243.15 285.938 243.798 286.682C244.458 287.414 244.788 288.308 244.788 289.364C244.788 290.54 244.422 291.488 243.69 292.208C242.958 292.928 241.998 293.288 240.81 293.288C239.49 293.288 238.41 292.808 237.57 291.848L238.11 290.264C238.806 291.236 239.658 291.722 240.666 291.722C241.29 291.722 241.818 291.506 242.25 291.074C242.694 290.63 242.916 290.036 242.916 289.292C242.916 288.536 242.688 287.948 242.232 287.528C241.776 287.108 241.2 286.898 240.504 286.898C239.808 286.898 239.238 287.138 238.794 287.618H238.452L239.586 282.074H244.338V283.64H240.846Z" fill="white"/>
</svg>
