<svg width="39" height="46" viewBox="0 0 39 46" fill="none" xmlns="http://www.w3.org/2000/svg">
<rect x="17" y="22" width="4" height="24" rx="2" fill="black"/>
<path d="M20.3291 4.00494L21.3745 2.94129C22.3408 1.98034 23.5833 1.5 24.8148 1.5C26.0428 1.5 27.288 1.97628 28.2163 2.9022L28.2494 2.93593C30.1517 4.87126 30.1514 8.05183 28.2101 9.98768L28.2048 9.993L28.1995 9.99837L19.2343 19.1197L10.3693 10.1002C10.3693 10.1002 10.3693 10.1002 10.3693 10.1002C8.45311 8.15059 8.36751 4.99177 10.1953 3.03533L10.1992 3.03123C11.1531 2.00249 12.4244 1.5 13.7038 1.5C14.9465 1.5 16.2068 1.98773 17.1385 2.93559L18.1895 4.00494L19.2593 5.09336L20.3291 4.00494Z" fill="white" stroke="black" stroke-width="3"/>
<path d="M20.3427 33.5406L19.2883 32.4985L18.2339 33.5406L17.1886 34.5737C16.2252 35.5043 14.978 35.9766 13.7328 35.9766C12.4913 35.9766 11.2412 35.5084 10.3159 34.6118L10.2828 34.5791C8.40129 32.7195 8.40112 29.6806 10.322 27.8198L10.3274 27.8146L10.3328 27.8093L19.3133 18.9334L28.1937 27.7103C28.1937 27.7104 28.1937 27.7104 28.1937 27.7104C30.0919 29.5866 30.1726 32.6057 28.3672 34.4829L28.3633 34.487C27.4133 35.4823 26.1376 35.9766 24.8438 35.9766C23.5874 35.9766 22.3223 35.4971 21.3938 34.5794L20.3427 33.5406Z" fill="white" stroke="black" stroke-width="3"/>
<path d="M3.97699 19.7193L5.02256 18.6637L3.97699 17.6081L2.92859 16.5497C1.9806 15.5705 1.5 14.3032 1.5 13.0388C1.5 11.7781 1.97635 10.5081 2.88988 9.56733L2.92326 9.53363C4.8191 7.61955 7.91875 7.61942 9.81572 9.57344L9.82097 9.57885L9.82627 9.5842L18.8446 18.689L9.92667 27.6924C9.92667 27.6924 9.92666 27.6924 9.92666 27.6924C8.01465 29.6227 4.93559 29.7056 3.02117 27.8685L3.01712 27.8646C2.00298 26.8986 1.5 25.6024 1.5 24.2886C1.5 23.0129 1.98784 21.7275 2.92292 20.7835L3.97699 19.7193Z" fill="white" stroke="black" stroke-width="3"/>
<path d="M34.5704 17.5787L33.5248 18.6343L34.5704 19.6899L35.6188 20.7483C36.5668 21.7275 37.0474 22.9947 37.0474 24.2592C37.0474 25.5198 36.571 26.7898 35.6575 27.7306L35.6241 27.7643C33.7283 29.6784 30.6286 29.6786 28.7316 27.7245L28.7264 27.7191L28.7211 27.7138L19.7027 18.609L28.6207 9.60558C28.6207 9.60558 28.6207 9.60557 28.6207 9.60557C30.5327 7.6753 33.6118 7.59234 35.5262 9.42952L35.5302 9.43339C36.5444 10.3994 37.0474 11.6956 37.0474 13.0093C37.0474 14.2851 36.5595 15.5705 35.6244 16.5145L34.5704 17.5787Z" fill="white" stroke="black" stroke-width="3"/>
<rect x="8.51367" y="20.5995" width="3.93418" height="21.2446" rx="1.96709" transform="rotate(-90 8.51367 20.5995)" fill="black"/>
<rect x="21.103" y="29.2546" width="3.93418" height="21.2446" rx="1.96709" transform="rotate(180 21.103 29.2546)" fill="black"/>
</svg>
