<svg width="339" height="363" viewBox="0 0 339 363" fill="none" xmlns="http://www.w3.org/2000/svg">
<rect width="270" height="316" rx="11" transform="matrix(1 0 0 -1 69 363)" fill="black"/>
<path d="M101.472 187H99.24V174.52H96V172.432H104.712V174.52H101.472V187ZM108.007 178.504C108.599 177.64 109.527 177.208 110.791 177.208C111.191 177.208 111.559 177.288 111.895 177.448L111.607 179.56C111.255 179.336 110.871 179.224 110.455 179.224C108.823 179.224 108.007 180.392 108.007 182.728V187H105.679V177.52H108.007V178.504ZM121.733 187H119.453V186.136C118.781 186.92 117.781 187.312 116.453 187.312C115.125 187.312 114.061 186.8 113.261 185.776C112.477 184.752 112.085 183.552 112.085 182.176C112.085 180.8 112.485 179.632 113.285 178.672C114.101 177.696 115.141 177.208 116.405 177.208C117.749 177.208 118.765 177.608 119.453 178.408V177.52H121.733V187ZM119.717 182.248C119.717 181.368 119.469 180.648 118.973 180.088C118.477 179.512 117.837 179.224 117.053 179.224C116.285 179.224 115.653 179.504 115.157 180.064C114.677 180.608 114.437 181.336 114.437 182.248C114.437 183.16 114.685 183.896 115.181 184.456C115.677 185.016 116.317 185.296 117.101 185.296C117.885 185.296 118.517 185.024 118.997 184.48C119.477 183.936 119.717 183.192 119.717 182.248ZM130.135 179.992C129.543 179.4 128.879 179.104 128.143 179.104C127.279 179.104 126.599 179.416 126.103 180.04C125.607 180.664 125.359 181.432 125.359 182.344C125.359 183.24 125.639 183.976 126.199 184.552C126.759 185.128 127.439 185.416 128.239 185.416C128.927 185.416 129.559 185.112 130.135 184.504V186.736C129.463 187.12 128.687 187.312 127.807 187.312C126.431 187.312 125.287 186.824 124.375 185.848C123.463 184.872 123.007 183.68 123.007 182.272C123.007 180.864 123.471 179.672 124.399 178.696C125.343 177.704 126.519 177.208 127.927 177.208C128.759 177.208 129.495 177.408 130.135 177.808V179.992ZM134.284 181.504L137.596 177.52H140.716L136.732 181.696L141.028 187H137.86L134.332 182.392L134.284 187H131.956V170.608H134.284V181.504ZM140.856 177.52H143.544L146.016 183.208L148.608 177.52H151.248L144.528 190.96H141.936L144.864 185.536L140.856 177.52ZM160.991 187H158.711V186.136C158.039 186.92 157.039 187.312 155.711 187.312C154.383 187.312 153.319 186.8 152.519 185.776C151.735 184.752 151.343 183.552 151.343 182.176C151.343 180.8 151.743 179.632 152.543 178.672C153.359 177.696 154.399 177.208 155.663 177.208C157.007 177.208 158.023 177.608 158.711 178.408V177.52H160.991V187ZM158.975 182.248C158.975 181.368 158.727 180.648 158.231 180.088C157.735 179.512 157.095 179.224 156.311 179.224C155.543 179.224 154.911 179.504 154.415 180.064C153.935 180.608 153.695 181.336 153.695 182.248C153.695 183.16 153.943 183.896 154.439 184.456C154.935 185.016 155.575 185.296 156.359 185.296C157.143 185.296 157.775 185.024 158.255 184.48C158.735 183.936 158.975 183.192 158.975 182.248Z" fill="white"/>
<path d="M99.808 238.552L98.836 241H96.874L101.122 229.786H102.778L106.918 241H104.938L104.02 238.552H99.808ZM101.842 232.468L100.258 237.094H103.516L101.842 232.468ZM109.275 234.538C109.767 233.95 110.493 233.656 111.453 233.656C113.085 233.656 113.901 234.658 113.901 236.662V241H112.173V237.238C112.173 235.738 111.711 234.988 110.787 234.988C109.779 234.988 109.275 235.792 109.275 237.4V241H107.529V233.89H109.275V234.538ZM128.095 241H126.385V240.352C125.881 240.94 125.131 241.234 124.135 241.234C123.139 241.234 122.341 240.85 121.741 240.082C121.153 239.314 120.859 238.414 120.859 237.382C120.859 236.35 121.159 235.474 121.759 234.754C122.371 234.022 123.151 233.656 124.099 233.656C125.107 233.656 125.869 233.956 126.385 234.556V233.89H128.095V241ZM126.583 237.436C126.583 236.776 126.397 236.236 126.025 235.816C125.653 235.384 125.173 235.168 124.585 235.168C124.009 235.168 123.535 235.378 123.163 235.798C122.803 236.206 122.623 236.752 122.623 237.436C122.623 238.12 122.809 238.672 123.181 239.092C123.553 239.512 124.033 239.722 124.621 239.722C125.209 239.722 125.683 239.518 126.043 239.11C126.403 238.702 126.583 238.144 126.583 237.436ZM134.396 235.744C133.952 235.3 133.454 235.078 132.902 235.078C132.254 235.078 131.744 235.312 131.372 235.78C131 236.248 130.814 236.824 130.814 237.508C130.814 238.18 131.024 238.732 131.444 239.164C131.864 239.596 132.374 239.812 132.974 239.812C133.49 239.812 133.964 239.584 134.396 239.128V240.802C133.892 241.09 133.31 241.234 132.65 241.234C131.618 241.234 130.76 240.868 130.076 240.136C129.392 239.404 129.05 238.51 129.05 237.454C129.05 236.398 129.398 235.504 130.094 234.772C130.802 234.028 131.684 233.656 132.74 233.656C133.364 233.656 133.916 233.806 134.396 234.106V235.744ZM137.796 241H136.05V235.456H135.204V234.034H136.05V231.478H137.796V234.034H139.182V235.456H137.796V241ZM141.768 230.902C141.768 231.178 141.666 231.418 141.462 231.622C141.258 231.826 141.018 231.928 140.742 231.928C140.466 231.928 140.226 231.826 140.022 231.622C139.818 231.418 139.716 231.178 139.716 230.902C139.716 230.626 139.818 230.386 140.022 230.182C140.226 229.978 140.466 229.876 140.742 229.876C141.018 229.876 141.258 229.978 141.462 230.182C141.666 230.386 141.768 230.626 141.768 230.902ZM141.624 241H139.878V233.89H141.624V241ZM146.216 238.39L147.962 233.89H149.906L146.63 241.144H145.586L142.328 233.89H144.254L146.216 238.39ZM152.508 230.902C152.508 231.178 152.406 231.418 152.202 231.622C151.998 231.826 151.758 231.928 151.482 231.928C151.206 231.928 150.966 231.826 150.762 231.622C150.558 231.418 150.456 231.178 150.456 230.902C150.456 230.626 150.558 230.386 150.762 230.182C150.966 229.978 151.206 229.876 151.482 229.876C151.758 229.876 151.998 229.978 152.202 230.182C152.406 230.386 152.508 230.626 152.508 230.902ZM152.364 241H150.618V233.89H152.364V241ZM156.182 241H154.436V235.456H153.59V234.034H154.436V231.478H156.182V234.034H157.568V235.456H156.182V241ZM157.185 233.89H159.201L161.055 238.156L162.999 233.89H164.979L159.939 243.97H157.995L160.191 239.902L157.185 233.89ZM173.708 241H171.962V235.456H171.116V234.034H171.962V231.478H173.708V234.034H175.094V235.456H173.708V241ZM177.284 234.628C177.728 233.98 178.424 233.656 179.372 233.656C179.672 233.656 179.948 233.716 180.2 233.836L179.984 235.42C179.72 235.252 179.432 235.168 179.12 235.168C177.896 235.168 177.284 236.044 177.284 237.796V241H175.538V233.89H177.284V234.628ZM187.579 241H185.869V240.352C185.365 240.94 184.615 241.234 183.619 241.234C182.623 241.234 181.825 240.85 181.225 240.082C180.637 239.314 180.343 238.414 180.343 237.382C180.343 236.35 180.643 235.474 181.243 234.754C181.855 234.022 182.635 233.656 183.583 233.656C184.591 233.656 185.353 233.956 185.869 234.556V233.89H187.579V241ZM186.067 237.436C186.067 236.776 185.881 236.236 185.509 235.816C185.137 235.384 184.657 235.168 184.069 235.168C183.493 235.168 183.019 235.378 182.647 235.798C182.287 236.206 182.107 236.752 182.107 237.436C182.107 238.12 182.293 238.672 182.665 239.092C183.037 239.512 183.517 239.722 184.105 239.722C184.693 239.722 185.167 239.518 185.527 239.11C185.887 238.702 186.067 238.144 186.067 237.436ZM193.88 235.744C193.436 235.3 192.938 235.078 192.386 235.078C191.738 235.078 191.228 235.312 190.856 235.78C190.484 236.248 190.298 236.824 190.298 237.508C190.298 238.18 190.508 238.732 190.928 239.164C191.348 239.596 191.858 239.812 192.458 239.812C192.974 239.812 193.448 239.584 193.88 239.128V240.802C193.376 241.09 192.794 241.234 192.134 241.234C191.102 241.234 190.244 240.868 189.56 240.136C188.876 239.404 188.534 238.51 188.534 237.454C188.534 236.398 188.882 235.504 189.578 234.772C190.286 234.028 191.168 233.656 192.224 233.656C192.848 233.656 193.4 233.806 193.88 234.106V235.744ZM196.992 236.878L199.476 233.89H201.816L198.828 237.022L202.05 241H199.674L197.028 237.544L196.992 241H195.246V228.706H196.992V236.878ZM204.891 230.902C204.891 231.178 204.789 231.418 204.585 231.622C204.381 231.826 204.141 231.928 203.865 231.928C203.589 231.928 203.349 231.826 203.145 231.622C202.941 231.418 202.839 231.178 202.839 230.902C202.839 230.626 202.941 230.386 203.145 230.182C203.349 229.978 203.589 229.876 203.865 229.876C204.141 229.876 204.381 229.978 204.585 230.182C204.789 230.386 204.891 230.626 204.891 230.902ZM204.747 241H203.001V233.89H204.747V241ZM208.169 234.538C208.661 233.95 209.387 233.656 210.347 233.656C211.979 233.656 212.795 234.658 212.795 236.662V241H211.067V237.238C211.067 235.738 210.605 234.988 209.681 234.988C208.673 234.988 208.169 235.792 208.169 237.4V241H206.423V233.89H208.169V234.538ZM221.013 240.388C221.013 242.824 219.879 244.042 217.611 244.042C216.603 244.042 215.751 243.766 215.055 243.214C214.359 242.674 214.011 241.966 214.011 241.09H215.865C215.865 241.438 216.039 241.78 216.387 242.116C216.735 242.452 217.125 242.62 217.557 242.62C218.697 242.62 219.267 241.936 219.267 240.568V240.118C218.775 240.742 218.025 241.054 217.017 241.054C216.021 241.054 215.235 240.706 214.659 240.01C214.095 239.314 213.813 238.462 213.813 237.454C213.813 236.362 214.119 235.45 214.731 234.718C215.343 233.986 216.135 233.62 217.107 233.62C218.091 233.62 218.811 233.926 219.267 234.538V233.854H221.013V240.388ZM219.519 237.292C219.519 236.644 219.339 236.122 218.979 235.726C218.619 235.33 218.145 235.132 217.557 235.132C216.969 235.132 216.489 235.348 216.117 235.78C215.757 236.212 215.577 236.758 215.577 237.418C215.577 238.834 216.237 239.542 217.557 239.542C218.157 239.542 218.631 239.332 218.979 238.912C219.339 238.48 219.519 237.94 219.519 237.292ZM235.128 241H233.418V240.352C232.914 240.94 232.164 241.234 231.168 241.234C230.172 241.234 229.374 240.85 228.774 240.082C228.186 239.314 227.892 238.414 227.892 237.382C227.892 236.35 228.192 235.474 228.792 234.754C229.404 234.022 230.184 233.656 231.132 233.656C232.14 233.656 232.902 233.956 233.418 234.556V233.89H235.128V241ZM233.616 237.436C233.616 236.776 233.43 236.236 233.058 235.816C232.686 235.384 232.206 235.168 231.618 235.168C231.042 235.168 230.568 235.378 230.196 235.798C229.836 236.206 229.656 236.752 229.656 237.436C229.656 238.12 229.842 238.672 230.214 239.092C230.586 239.512 231.066 239.722 231.654 239.722C232.242 239.722 232.716 239.518 233.076 239.11C233.436 238.702 233.616 238.144 233.616 237.436ZM238.333 234.538C238.837 233.95 239.587 233.656 240.583 233.656C241.519 233.656 242.293 234.028 242.905 234.772C243.529 235.516 243.841 236.392 243.841 237.4C243.841 238.492 243.535 239.404 242.923 240.136C242.311 240.868 241.519 241.234 240.547 241.234C239.503 241.234 238.777 240.934 238.369 240.334L238.333 244.006H236.587V233.89H238.333V234.538ZM242.059 237.436C242.059 236.824 241.885 236.296 241.537 235.852C241.189 235.396 240.709 235.168 240.097 235.168C239.533 235.168 239.065 235.396 238.693 235.852C238.321 236.308 238.135 236.836 238.135 237.436C238.135 238.024 238.333 238.552 238.729 239.02C239.125 239.488 239.581 239.722 240.097 239.722C240.709 239.722 241.189 239.506 241.537 239.074C241.885 238.642 242.059 238.096 242.059 237.436ZM246.525 234.538C247.029 233.95 247.779 233.656 248.775 233.656C249.711 233.656 250.485 234.028 251.097 234.772C251.721 235.516 252.033 236.392 252.033 237.4C252.033 238.492 251.727 239.404 251.115 240.136C250.503 240.868 249.711 241.234 248.739 241.234C247.695 241.234 246.969 240.934 246.561 240.334L246.525 244.006H244.779V233.89H246.525V234.538ZM250.251 237.436C250.251 236.824 250.077 236.296 249.729 235.852C249.381 235.396 248.901 235.168 248.289 235.168C247.725 235.168 247.257 235.396 246.885 235.852C246.513 236.308 246.327 236.836 246.327 237.436C246.327 238.024 246.525 238.552 246.921 239.02C247.317 239.488 247.773 239.722 248.289 239.722C248.901 239.722 249.381 239.506 249.729 239.074C250.077 238.642 250.251 238.096 250.251 237.436ZM261.124 241H259.378V235.456H258.532V234.034H259.378V231.478H261.124V234.034H262.51V235.456H261.124V241ZM269.938 237.436C269.938 238.552 269.596 239.464 268.912 240.172C268.228 240.88 267.328 241.234 266.212 241.234C265.108 241.234 264.208 240.88 263.512 240.172C262.816 239.464 262.468 238.558 262.468 237.454C262.468 236.338 262.81 235.426 263.494 234.718C264.178 234.01 265.078 233.656 266.194 233.656C267.31 233.656 268.21 234.01 268.894 234.718C269.59 235.414 269.938 236.32 269.938 237.436ZM264.232 237.472C264.232 238.132 264.418 238.672 264.79 239.092C265.162 239.512 265.642 239.722 266.23 239.722C266.818 239.722 267.286 239.5 267.634 239.056C267.994 238.6 268.174 238.066 268.174 237.454C268.174 236.83 267.994 236.296 267.634 235.852C267.274 235.396 266.8 235.168 266.212 235.168C265.636 235.168 265.162 235.384 264.79 235.816C264.418 236.248 264.232 236.8 264.232 237.472ZM99.466 246.706V252.484C99.922 251.932 100.648 251.656 101.644 251.656C102.388 251.656 102.982 251.944 103.426 252.52C103.87 253.096 104.092 253.81 104.092 254.662V259H102.364V255.238C102.364 253.738 101.902 252.988 100.978 252.988C99.97 252.988 99.466 253.816 99.466 255.472V259H97.72V246.706H99.466ZM106.892 255.616C106.892 256.3 107.042 256.864 107.342 257.308C107.642 257.752 108.056 257.974 108.584 257.974C109.412 257.974 109.94 257.566 110.168 256.75L111.824 257.02C111.284 258.496 110.204 259.234 108.584 259.234C107.504 259.234 106.64 258.892 105.992 258.208C105.356 257.512 105.038 256.612 105.038 255.508C105.038 254.344 105.344 253.414 105.956 252.718C106.58 252.01 107.42 251.656 108.476 251.656C109.544 251.656 110.372 251.992 110.96 252.664C111.56 253.324 111.86 254.23 111.86 255.382V255.616H106.892ZM110.24 254.644C110.24 254.152 110.084 253.72 109.772 253.348C109.472 252.976 109.076 252.79 108.584 252.79C108.104 252.79 107.708 252.988 107.396 253.384C107.096 253.768 106.946 254.188 106.946 254.644H110.24ZM114.692 259H112.946V246.706H114.692V259ZM118.011 252.538C118.515 251.95 119.265 251.656 120.261 251.656C121.197 251.656 121.971 252.028 122.583 252.772C123.207 253.516 123.519 254.392 123.519 255.4C123.519 256.492 123.213 257.404 122.601 258.136C121.989 258.868 121.197 259.234 120.225 259.234C119.181 259.234 118.455 258.934 118.047 258.334L118.011 262.006H116.265V251.89H118.011V252.538ZM121.737 255.436C121.737 254.824 121.563 254.296 121.215 253.852C120.867 253.396 120.387 253.168 119.775 253.168C119.211 253.168 118.743 253.396 118.371 253.852C117.999 254.308 117.813 254.836 117.813 255.436C117.813 256.024 118.011 256.552 118.407 257.02C118.803 257.488 119.259 257.722 119.775 257.722C120.387 257.722 120.867 257.506 121.215 257.074C121.563 256.642 121.737 256.096 121.737 255.436ZM132.214 252.538C132.718 251.95 133.468 251.656 134.464 251.656C135.4 251.656 136.174 252.028 136.786 252.772C137.41 253.516 137.722 254.392 137.722 255.4C137.722 256.492 137.416 257.404 136.804 258.136C136.192 258.868 135.4 259.234 134.428 259.234C133.384 259.234 132.658 258.934 132.25 258.334L132.214 262.006H130.468V251.89H132.214V252.538ZM135.94 255.436C135.94 254.824 135.766 254.296 135.418 253.852C135.07 253.396 134.59 253.168 133.978 253.168C133.414 253.168 132.946 253.396 132.574 253.852C132.202 254.308 132.016 254.836 132.016 255.436C132.016 256.024 132.214 256.552 132.61 257.02C133.006 257.488 133.462 257.722 133.978 257.722C134.59 257.722 135.07 257.506 135.418 257.074C135.766 256.642 135.94 256.096 135.94 255.436ZM140.009 255.616C140.009 256.3 140.159 256.864 140.459 257.308C140.759 257.752 141.173 257.974 141.701 257.974C142.529 257.974 143.057 257.566 143.285 256.75L144.941 257.02C144.401 258.496 143.321 259.234 141.701 259.234C140.621 259.234 139.757 258.892 139.109 258.208C138.473 257.512 138.155 256.612 138.155 255.508C138.155 254.344 138.461 253.414 139.073 252.718C139.697 252.01 140.537 251.656 141.593 251.656C142.661 251.656 143.489 251.992 144.077 252.664C144.677 253.324 144.977 254.23 144.977 255.382V255.616H140.009ZM143.357 254.644C143.357 254.152 143.201 253.72 142.889 253.348C142.589 252.976 142.193 252.79 141.701 252.79C141.221 252.79 140.825 252.988 140.513 253.384C140.213 253.768 140.063 254.188 140.063 254.644H143.357ZM152.903 255.436C152.903 256.552 152.561 257.464 151.877 258.172C151.193 258.88 150.293 259.234 149.177 259.234C148.073 259.234 147.173 258.88 146.477 258.172C145.781 257.464 145.433 256.558 145.433 255.454C145.433 254.338 145.775 253.426 146.459 252.718C147.143 252.01 148.043 251.656 149.159 251.656C150.275 251.656 151.175 252.01 151.859 252.718C152.555 253.414 152.903 254.32 152.903 255.436ZM147.197 255.472C147.197 256.132 147.383 256.672 147.755 257.092C148.127 257.512 148.607 257.722 149.195 257.722C149.783 257.722 150.251 257.5 150.599 257.056C150.959 256.6 151.139 256.066 151.139 255.454C151.139 254.83 150.959 254.296 150.599 253.852C150.239 253.396 149.765 253.168 149.177 253.168C148.601 253.168 148.127 253.384 147.755 253.816C147.383 254.248 147.197 254.8 147.197 255.472ZM155.611 252.538C156.115 251.95 156.865 251.656 157.861 251.656C158.797 251.656 159.571 252.028 160.183 252.772C160.807 253.516 161.119 254.392 161.119 255.4C161.119 256.492 160.813 257.404 160.201 258.136C159.589 258.868 158.797 259.234 157.825 259.234C156.781 259.234 156.055 258.934 155.647 258.334L155.611 262.006H153.865V251.89H155.611V252.538ZM159.337 255.436C159.337 254.824 159.163 254.296 158.815 253.852C158.467 253.396 157.987 253.168 157.375 253.168C156.811 253.168 156.343 253.396 155.971 253.852C155.599 254.308 155.413 254.836 155.413 255.436C155.413 256.024 155.611 256.552 156.007 257.02C156.403 257.488 156.859 257.722 157.375 257.722C157.987 257.722 158.467 257.506 158.815 257.074C159.163 256.642 159.337 256.096 159.337 255.436ZM163.946 259H162.2V246.706H163.946V259ZM166.869 255.616C166.869 256.3 167.019 256.864 167.319 257.308C167.619 257.752 168.033 257.974 168.561 257.974C169.389 257.974 169.917 257.566 170.145 256.75L171.801 257.02C171.261 258.496 170.181 259.234 168.561 259.234C167.481 259.234 166.617 258.892 165.969 258.208C165.333 257.512 165.015 256.612 165.015 255.508C165.015 254.344 165.321 253.414 165.933 252.718C166.557 252.01 167.397 251.656 168.453 251.656C169.521 251.656 170.349 251.992 170.937 252.664C171.537 253.324 171.837 254.23 171.837 255.382V255.616H166.869ZM170.217 254.644C170.217 254.152 170.061 253.72 169.749 253.348C169.449 252.976 169.053 252.79 168.561 252.79C168.081 252.79 167.685 252.988 167.373 253.384C167.073 253.768 166.923 254.188 166.923 254.644H170.217ZM180.932 259H179.186V253.456H178.34V252.034H179.186V249.478H180.932V252.034H182.318V253.456H180.932V259ZM184.473 251.89V255.742C184.473 257.122 184.953 257.812 185.913 257.812C186.873 257.812 187.353 257.122 187.353 255.742V251.89H189.099V256.066C189.099 258.178 188.037 259.234 185.913 259.234C183.789 259.234 182.727 258.178 182.727 256.066V251.89H184.473ZM192.261 252.628C192.705 251.98 193.401 251.656 194.349 251.656C194.649 251.656 194.925 251.716 195.177 251.836L194.961 253.42C194.697 253.252 194.409 253.168 194.097 253.168C192.873 253.168 192.261 254.044 192.261 255.796V259H190.515V251.89H192.261V252.628ZM197.57 252.538C198.062 251.95 198.788 251.656 199.748 251.656C201.38 251.656 202.196 252.658 202.196 254.662V259H200.468V255.238C200.468 253.738 200.006 252.988 199.082 252.988C198.074 252.988 197.57 253.792 197.57 255.4V259H195.824V251.89H197.57V252.538ZM211.8 259H210.054V253.456H209.208V252.034H210.054V249.478H211.8V252.034H213.186V253.456H211.8V259ZM215.376 246.706V252.484C215.832 251.932 216.558 251.656 217.554 251.656C218.298 251.656 218.892 251.944 219.336 252.52C219.78 253.096 220.002 253.81 220.002 254.662V259H218.274V255.238C218.274 253.738 217.812 252.988 216.888 252.988C215.88 252.988 215.376 253.816 215.376 255.472V259H213.63V246.706H215.376ZM222.802 255.616C222.802 256.3 222.952 256.864 223.252 257.308C223.552 257.752 223.966 257.974 224.494 257.974C225.322 257.974 225.85 257.566 226.078 256.75L227.734 257.02C227.194 258.496 226.114 259.234 224.494 259.234C223.414 259.234 222.55 258.892 221.902 258.208C221.266 257.512 220.948 256.612 220.948 255.508C220.948 254.344 221.254 253.414 221.866 252.718C222.49 252.01 223.33 251.656 224.386 251.656C225.454 251.656 226.282 251.992 226.87 252.664C227.47 253.324 227.77 254.23 227.77 255.382V255.616H222.802ZM226.15 254.644C226.15 254.152 225.994 253.72 225.682 253.348C225.382 252.976 224.986 252.79 224.494 252.79C224.014 252.79 223.618 252.988 223.306 253.384C223.006 253.768 222.856 254.188 222.856 254.644H226.15ZM230.854 248.902C230.854 249.178 230.752 249.418 230.548 249.622C230.344 249.826 230.104 249.928 229.828 249.928C229.552 249.928 229.312 249.826 229.108 249.622C228.904 249.418 228.802 249.178 228.802 248.902C228.802 248.626 228.904 248.386 229.108 248.182C229.312 247.978 229.552 247.876 229.828 247.876C230.104 247.876 230.344 247.978 230.548 248.182C230.752 248.386 230.854 248.626 230.854 248.902ZM230.71 259H228.964V251.89H230.71V259ZM234.132 252.628C234.576 251.98 235.272 251.656 236.22 251.656C236.52 251.656 236.796 251.716 237.048 251.836L236.832 253.42C236.568 253.252 236.28 253.168 235.968 253.168C234.744 253.168 234.132 254.044 234.132 255.796V259H232.386V251.89H234.132V252.628ZM101.518 271.366C101.134 271.006 100.732 270.826 100.312 270.826C99.676 270.826 99.358 271.114 99.358 271.69C99.358 272.014 99.646 272.278 100.222 272.482C101.278 272.866 101.932 273.22 102.184 273.544C102.436 273.856 102.562 274.246 102.562 274.714C102.562 275.482 102.292 276.094 101.752 276.55C101.224 277.006 100.57 277.234 99.79 277.234C98.782 277.234 97.948 276.838 97.288 276.046L98.062 275.056C98.662 275.656 99.214 275.956 99.718 275.956C100.45 275.956 100.816 275.602 100.816 274.894C100.816 274.534 100.624 274.27 100.24 274.102C99.856 273.922 99.562 273.79 99.358 273.706C98.254 273.226 97.702 272.644 97.702 271.96C97.702 271.276 97.906 270.724 98.314 270.304C98.734 269.872 99.28 269.656 99.952 269.656C100.912 269.656 101.674 269.902 102.238 270.394L101.518 271.366ZM105.011 273.616C105.011 274.3 105.161 274.864 105.461 275.308C105.761 275.752 106.175 275.974 106.703 275.974C107.531 275.974 108.059 275.566 108.287 274.75L109.943 275.02C109.403 276.496 108.323 277.234 106.703 277.234C105.623 277.234 104.759 276.892 104.111 276.208C103.475 275.512 103.157 274.612 103.157 273.508C103.157 272.344 103.463 271.414 104.075 270.718C104.699 270.01 105.539 269.656 106.595 269.656C107.663 269.656 108.491 269.992 109.079 270.664C109.679 271.324 109.979 272.23 109.979 273.382V273.616H105.011ZM108.359 272.644C108.359 272.152 108.203 271.72 107.891 271.348C107.591 270.976 107.195 270.79 106.703 270.79C106.223 270.79 105.827 270.988 105.515 271.384C105.215 271.768 105.065 272.188 105.065 272.644H108.359ZM115.925 276.334C115.457 276.934 114.719 277.234 113.711 277.234C112.703 277.234 111.899 276.85 111.299 276.082C110.711 275.314 110.417 274.414 110.417 273.382C110.417 272.35 110.717 271.474 111.317 270.754C111.929 270.022 112.709 269.656 113.657 269.656C114.665 269.656 115.409 269.95 115.889 270.538L115.925 264.706H117.671V277H115.925V276.334ZM116.123 273.436C116.123 272.812 115.931 272.278 115.547 271.834C115.163 271.39 114.701 271.168 114.161 271.168C113.621 271.168 113.153 271.39 112.757 271.834C112.373 272.266 112.181 272.806 112.181 273.454C112.181 274.09 112.367 274.63 112.739 275.074C113.123 275.506 113.603 275.722 114.179 275.722C114.755 275.722 115.223 275.512 115.583 275.092C115.943 274.66 116.123 274.108 116.123 273.436ZM120.463 273.616C120.463 274.3 120.613 274.864 120.913 275.308C121.213 275.752 121.627 275.974 122.155 275.974C122.983 275.974 123.511 275.566 123.739 274.75L125.395 275.02C124.855 276.496 123.775 277.234 122.155 277.234C121.075 277.234 120.211 276.892 119.563 276.208C118.927 275.512 118.609 274.612 118.609 273.508C118.609 272.344 118.915 271.414 119.527 270.718C120.151 270.01 120.991 269.656 122.047 269.656C123.115 269.656 123.943 269.992 124.531 270.664C125.131 271.324 125.431 272.23 125.431 273.382V273.616H120.463ZM123.811 272.644C123.811 272.152 123.655 271.72 123.343 271.348C123.043 270.976 122.647 270.79 122.155 270.79C121.675 270.79 121.279 270.988 120.967 271.384C120.667 271.768 120.517 272.188 120.517 272.644H123.811ZM128.118 270.538C128.61 269.95 129.336 269.656 130.296 269.656C131.928 269.656 132.744 270.658 132.744 272.662V277H131.016V273.238C131.016 271.738 130.554 270.988 129.63 270.988C128.622 270.988 128.118 271.792 128.118 273.4V277H126.372V269.89H128.118V270.538ZM136.337 277H134.591V271.456H133.745V270.034H134.591V267.478H136.337V270.034H137.723V271.456H136.337V277ZM144.899 277H143.189V276.352C142.685 276.94 141.935 277.234 140.939 277.234C139.943 277.234 139.145 276.85 138.545 276.082C137.957 275.314 137.663 274.414 137.663 273.382C137.663 272.35 137.963 271.474 138.563 270.754C139.175 270.022 139.955 269.656 140.903 269.656C141.911 269.656 142.673 269.956 143.189 270.556V269.89H144.899V277ZM143.387 273.436C143.387 272.776 143.201 272.236 142.829 271.816C142.457 271.384 141.977 271.168 141.389 271.168C140.813 271.168 140.339 271.378 139.967 271.798C139.607 272.206 139.427 272.752 139.427 273.436C139.427 274.12 139.613 274.672 139.985 275.092C140.357 275.512 140.837 275.722 141.425 275.722C142.013 275.722 142.487 275.518 142.847 275.11C143.207 274.702 143.387 274.144 143.387 273.436ZM148.105 270.628C148.549 269.98 149.245 269.656 150.193 269.656C150.493 269.656 150.769 269.716 151.021 269.836L150.805 271.42C150.541 271.252 150.253 271.168 149.941 271.168C148.717 271.168 148.105 272.044 148.105 273.796V277H146.359V269.89H148.105V270.628ZM150.839 269.89H152.855L154.709 274.156L156.653 269.89H158.633L153.593 279.97H151.649L153.845 275.902L150.839 269.89ZM165.22 264.706H166.966V270.538C167.47 269.95 168.22 269.656 169.216 269.656C170.152 269.656 170.926 270.028 171.538 270.772C172.162 271.516 172.474 272.392 172.474 273.4C172.474 274.492 172.168 275.404 171.556 276.136C170.944 276.868 170.152 277.234 169.18 277.234C168.136 277.234 167.41 276.934 167.002 276.334L166.966 277H165.22V264.706ZM170.692 273.436C170.692 272.836 170.506 272.308 170.134 271.852C169.762 271.396 169.288 271.168 168.712 271.168C168.136 271.168 167.668 271.396 167.308 271.852C166.948 272.296 166.768 272.83 166.768 273.454C166.768 274.066 166.954 274.6 167.326 275.056C167.71 275.5 168.178 275.722 168.73 275.722C169.33 275.722 169.804 275.506 170.152 275.074C170.512 274.63 170.692 274.084 170.692 273.436ZM174.761 273.616C174.761 274.3 174.911 274.864 175.211 275.308C175.511 275.752 175.925 275.974 176.453 275.974C177.281 275.974 177.809 275.566 178.037 274.75L179.693 275.02C179.153 276.496 178.073 277.234 176.453 277.234C175.373 277.234 174.509 276.892 173.861 276.208C173.225 275.512 172.907 274.612 172.907 273.508C172.907 272.344 173.213 271.414 173.825 270.718C174.449 270.01 175.289 269.656 176.345 269.656C177.413 269.656 178.241 269.992 178.829 270.664C179.429 271.324 179.729 272.23 179.729 273.382V273.616H174.761ZM178.109 272.644C178.109 272.152 177.953 271.72 177.641 271.348C177.341 270.976 176.945 270.79 176.453 270.79C175.973 270.79 175.577 270.988 175.265 271.384C174.965 271.768 174.815 272.188 174.815 272.644H178.109ZM182.417 264.706V270.484C182.873 269.932 183.599 269.656 184.595 269.656C185.339 269.656 185.933 269.944 186.377 270.52C186.821 271.096 187.043 271.81 187.043 272.662V277H185.315V273.238C185.315 271.738 184.853 270.988 183.929 270.988C182.921 270.988 182.417 271.816 182.417 273.472V277H180.671V264.706H182.417ZM195.225 277H193.515V276.352C193.011 276.94 192.261 277.234 191.265 277.234C190.269 277.234 189.471 276.85 188.871 276.082C188.283 275.314 187.989 274.414 187.989 273.382C187.989 272.35 188.289 271.474 188.889 270.754C189.501 270.022 190.281 269.656 191.229 269.656C192.237 269.656 192.999 269.956 193.515 270.556V269.89H195.225V277ZM193.713 273.436C193.713 272.776 193.527 272.236 193.155 271.816C192.783 271.384 192.303 271.168 191.715 271.168C191.139 271.168 190.665 271.378 190.293 271.798C189.933 272.206 189.753 272.752 189.753 273.436C189.753 274.12 189.939 274.672 190.311 275.092C190.683 275.512 191.163 275.722 191.751 275.722C192.339 275.722 192.813 275.518 193.173 275.11C193.533 274.702 193.713 274.144 193.713 273.436ZM199.601 274.39L201.347 269.89H203.291L200.015 277.144H198.971L195.713 269.89H197.639L199.601 274.39ZM205.893 266.902C205.893 267.178 205.791 267.418 205.587 267.622C205.383 267.826 205.143 267.928 204.867 267.928C204.591 267.928 204.351 267.826 204.147 267.622C203.943 267.418 203.841 267.178 203.841 266.902C203.841 266.626 203.943 266.386 204.147 266.182C204.351 265.978 204.591 265.876 204.867 265.876C205.143 265.876 205.383 265.978 205.587 266.182C205.791 266.386 205.893 266.626 205.893 266.902ZM205.749 277H204.003V269.89H205.749V277ZM214.409 273.436C214.409 274.552 214.067 275.464 213.383 276.172C212.699 276.88 211.799 277.234 210.683 277.234C209.579 277.234 208.679 276.88 207.983 276.172C207.287 275.464 206.939 274.558 206.939 273.454C206.939 272.338 207.281 271.426 207.965 270.718C208.649 270.01 209.549 269.656 210.665 269.656C211.781 269.656 212.681 270.01 213.365 270.718C214.061 271.414 214.409 272.32 214.409 273.436ZM208.703 273.472C208.703 274.132 208.889 274.672 209.261 275.092C209.633 275.512 210.113 275.722 210.701 275.722C211.289 275.722 211.757 275.5 212.105 275.056C212.465 274.6 212.645 274.066 212.645 273.454C212.645 272.83 212.465 272.296 212.105 271.852C211.745 271.396 211.271 271.168 210.683 271.168C210.107 271.168 209.633 271.384 209.261 271.816C208.889 272.248 208.703 272.8 208.703 273.472ZM217.116 270.628C217.56 269.98 218.256 269.656 219.204 269.656C219.504 269.656 219.78 269.716 220.032 269.836L219.816 271.42C219.552 271.252 219.264 271.168 218.952 271.168C217.728 271.168 217.116 272.044 217.116 273.796V277H215.37V269.89H217.116V270.628ZM228.833 266.902C228.833 267.178 228.731 267.418 228.527 267.622C228.323 267.826 228.083 267.928 227.807 267.928C227.531 267.928 227.291 267.826 227.087 267.622C226.883 267.418 226.781 267.178 226.781 266.902C226.781 266.626 226.883 266.386 227.087 266.182C227.291 265.978 227.531 265.876 227.807 265.876C228.083 265.876 228.323 265.978 228.527 266.182C228.731 266.386 228.833 266.626 228.833 266.902ZM228.689 277H226.943V269.89H228.689V277ZM232.111 270.538C232.603 269.95 233.329 269.656 234.289 269.656C235.921 269.656 236.737 270.658 236.737 272.662V277H235.009V273.238C235.009 271.738 234.547 270.988 233.623 270.988C232.615 270.988 232.111 271.792 232.111 273.4V277H230.365V269.89H232.111V270.538ZM240.329 277H238.583V271.456H237.737V270.034H238.583V267.478H240.329V270.034H241.715V271.456H240.329V277ZM249.143 273.436C249.143 274.552 248.801 275.464 248.117 276.172C247.433 276.88 246.533 277.234 245.417 277.234C244.313 277.234 243.413 276.88 242.717 276.172C242.021 275.464 241.673 274.558 241.673 273.454C241.673 272.338 242.015 271.426 242.699 270.718C243.383 270.01 244.283 269.656 245.399 269.656C246.515 269.656 247.415 270.01 248.099 270.718C248.795 271.414 249.143 272.32 249.143 273.436ZM243.437 273.472C243.437 274.132 243.623 274.672 243.995 275.092C244.367 275.512 244.847 275.722 245.435 275.722C246.023 275.722 246.491 275.5 246.839 275.056C247.199 274.6 247.379 274.066 247.379 273.454C247.379 272.83 247.199 272.296 246.839 271.852C246.479 271.396 246.005 271.168 245.417 271.168C244.841 271.168 244.367 271.384 243.995 271.816C243.623 272.248 243.437 272.8 243.437 273.472ZM99.466 288.538C99.97 287.95 100.72 287.656 101.716 287.656C102.652 287.656 103.426 288.028 104.038 288.772C104.662 289.516 104.974 290.392 104.974 291.4C104.974 292.492 104.668 293.404 104.056 294.136C103.444 294.868 102.652 295.234 101.68 295.234C100.636 295.234 99.91 294.934 99.502 294.334L99.466 298.006H97.72V287.89H99.466V288.538ZM103.192 291.436C103.192 290.824 103.018 290.296 102.67 289.852C102.322 289.396 101.842 289.168 101.23 289.168C100.666 289.168 100.198 289.396 99.826 289.852C99.454 290.308 99.268 290.836 99.268 291.436C99.268 292.024 99.466 292.552 99.862 293.02C100.258 293.488 100.714 293.722 101.23 293.722C101.842 293.722 102.322 293.506 102.67 293.074C103.018 292.642 103.192 292.096 103.192 291.436ZM107.657 282.706V288.484C108.113 287.932 108.839 287.656 109.835 287.656C110.579 287.656 111.173 287.944 111.617 288.52C112.061 289.096 112.283 289.81 112.283 290.662V295H110.555V291.238C110.555 289.738 110.093 288.988 109.169 288.988C108.161 288.988 107.657 289.816 107.657 291.472V295H105.911V282.706H107.657ZM112.906 287.89H114.922L116.776 292.156L118.72 287.89H120.7L115.66 297.97H113.716L115.912 293.902L112.906 287.89ZM125.073 289.366C124.689 289.006 124.287 288.826 123.867 288.826C123.231 288.826 122.913 289.114 122.913 289.69C122.913 290.014 123.201 290.278 123.777 290.482C124.833 290.866 125.487 291.22 125.739 291.544C125.991 291.856 126.117 292.246 126.117 292.714C126.117 293.482 125.847 294.094 125.307 294.55C124.779 295.006 124.125 295.234 123.345 295.234C122.337 295.234 121.503 294.838 120.843 294.046L121.617 293.056C122.217 293.656 122.769 293.956 123.273 293.956C124.005 293.956 124.371 293.602 124.371 292.894C124.371 292.534 124.179 292.27 123.795 292.102C123.411 291.922 123.117 291.79 122.913 291.706C121.809 291.226 121.257 290.644 121.257 289.96C121.257 289.276 121.461 288.724 121.869 288.304C122.289 287.872 122.835 287.656 123.507 287.656C124.467 287.656 125.229 287.902 125.793 288.394L125.073 289.366ZM129.358 284.902C129.358 285.178 129.256 285.418 129.052 285.622C128.848 285.826 128.608 285.928 128.332 285.928C128.056 285.928 127.816 285.826 127.612 285.622C127.408 285.418 127.306 285.178 127.306 284.902C127.306 284.626 127.408 284.386 127.612 284.182C127.816 283.978 128.056 283.876 128.332 283.876C128.608 283.876 128.848 283.978 129.052 284.182C129.256 284.386 129.358 284.626 129.358 284.902ZM129.214 295H127.468V287.89H129.214V295ZM135.732 289.744C135.288 289.3 134.79 289.078 134.238 289.078C133.59 289.078 133.08 289.312 132.708 289.78C132.336 290.248 132.15 290.824 132.15 291.508C132.15 292.18 132.36 292.732 132.78 293.164C133.2 293.596 133.71 293.812 134.31 293.812C134.826 293.812 135.3 293.584 135.732 293.128V294.802C135.228 295.09 134.646 295.234 133.986 295.234C132.954 295.234 132.096 294.868 131.412 294.136C130.728 293.404 130.386 292.51 130.386 291.454C130.386 290.398 130.734 289.504 131.43 288.772C132.138 288.028 133.02 287.656 134.076 287.656C134.7 287.656 135.252 287.806 135.732 288.106V289.744ZM143.722 295H142.012V294.352C141.508 294.94 140.758 295.234 139.762 295.234C138.766 295.234 137.968 294.85 137.368 294.082C136.78 293.314 136.486 292.414 136.486 291.382C136.486 290.35 136.786 289.474 137.386 288.754C137.998 288.022 138.778 287.656 139.726 287.656C140.734 287.656 141.496 287.956 142.012 288.556V287.89H143.722V295ZM142.21 291.436C142.21 290.776 142.024 290.236 141.652 289.816C141.28 289.384 140.8 289.168 140.212 289.168C139.636 289.168 139.162 289.378 138.79 289.798C138.43 290.206 138.25 290.752 138.25 291.436C138.25 292.12 138.436 292.672 138.808 293.092C139.18 293.512 139.66 293.722 140.248 293.722C140.836 293.722 141.31 293.518 141.67 293.11C142.03 292.702 142.21 292.144 142.21 291.436ZM147.071 295H145.325V282.706H147.071V295ZM161.388 295H159.678V294.352C159.174 294.94 158.424 295.234 157.428 295.234C156.432 295.234 155.634 294.85 155.034 294.082C154.446 293.314 154.152 292.414 154.152 291.382C154.152 290.35 154.452 289.474 155.052 288.754C155.664 288.022 156.444 287.656 157.392 287.656C158.4 287.656 159.162 287.956 159.678 288.556V287.89H161.388V295ZM159.876 291.436C159.876 290.776 159.69 290.236 159.318 289.816C158.946 289.384 158.466 289.168 157.878 289.168C157.302 289.168 156.828 289.378 156.456 289.798C156.096 290.206 155.916 290.752 155.916 291.436C155.916 292.12 156.102 292.672 156.474 293.092C156.846 293.512 157.326 293.722 157.914 293.722C158.502 293.722 158.976 293.518 159.336 293.11C159.696 292.702 159.876 292.144 159.876 291.436ZM167.689 289.744C167.245 289.3 166.747 289.078 166.195 289.078C165.547 289.078 165.037 289.312 164.665 289.78C164.293 290.248 164.107 290.824 164.107 291.508C164.107 292.18 164.317 292.732 164.737 293.164C165.157 293.596 165.667 293.812 166.267 293.812C166.783 293.812 167.257 293.584 167.689 293.128V294.802C167.185 295.09 166.603 295.234 165.943 295.234C164.911 295.234 164.053 294.868 163.369 294.136C162.685 293.404 162.343 292.51 162.343 291.454C162.343 290.398 162.691 289.504 163.387 288.772C164.095 288.028 164.977 287.656 166.033 287.656C166.657 287.656 167.209 287.806 167.689 288.106V289.744ZM171.089 295H169.343V289.456H168.497V288.034H169.343V285.478H171.089V288.034H172.475V289.456H171.089V295ZM175.061 284.902C175.061 285.178 174.959 285.418 174.755 285.622C174.551 285.826 174.311 285.928 174.035 285.928C173.759 285.928 173.519 285.826 173.315 285.622C173.111 285.418 173.009 285.178 173.009 284.902C173.009 284.626 173.111 284.386 173.315 284.182C173.519 283.978 173.759 283.876 174.035 283.876C174.311 283.876 174.551 283.978 174.755 284.182C174.959 284.386 175.061 284.626 175.061 284.902ZM174.917 295H173.171V287.89H174.917V295ZM179.509 292.39L181.255 287.89H183.199L179.923 295.144H178.879L175.621 287.89H177.547L179.509 292.39ZM185.801 284.902C185.801 285.178 185.699 285.418 185.495 285.622C185.291 285.826 185.051 285.928 184.775 285.928C184.499 285.928 184.259 285.826 184.055 285.622C183.851 285.418 183.749 285.178 183.749 284.902C183.749 284.626 183.851 284.386 184.055 284.182C184.259 283.978 184.499 283.876 184.775 283.876C185.051 283.876 185.291 283.978 185.495 284.182C185.699 284.386 185.801 284.626 185.801 284.902ZM185.657 295H183.911V287.89H185.657V295ZM189.475 295H187.729V289.456H186.883V288.034H187.729V285.478H189.475V288.034H190.861V289.456H189.475V295ZM193.448 284.902C193.448 285.178 193.346 285.418 193.142 285.622C192.938 285.826 192.698 285.928 192.422 285.928C192.146 285.928 191.906 285.826 191.702 285.622C191.498 285.418 191.396 285.178 191.396 284.902C191.396 284.626 191.498 284.386 191.702 284.182C191.906 283.978 192.146 283.876 192.422 283.876C192.698 283.876 192.938 283.978 193.142 284.182C193.346 284.386 193.448 284.626 193.448 284.902ZM193.304 295H191.558V287.89H193.304V295ZM196.33 291.616C196.33 292.3 196.48 292.864 196.78 293.308C197.08 293.752 197.494 293.974 198.022 293.974C198.85 293.974 199.378 293.566 199.606 292.75L201.262 293.02C200.722 294.496 199.642 295.234 198.022 295.234C196.942 295.234 196.078 294.892 195.43 294.208C194.794 293.512 194.476 292.612 194.476 291.508C194.476 290.344 194.782 289.414 195.394 288.718C196.018 288.01 196.858 287.656 197.914 287.656C198.982 287.656 199.81 287.992 200.398 288.664C200.998 289.324 201.298 290.23 201.298 291.382V291.616H196.33ZM199.678 290.644C199.678 290.152 199.522 289.72 199.21 289.348C198.91 288.976 198.514 288.79 198.022 288.79C197.542 288.79 197.146 288.988 196.834 289.384C196.534 289.768 196.384 290.188 196.384 290.644H199.678ZM206.038 289.366C205.654 289.006 205.252 288.826 204.832 288.826C204.196 288.826 203.878 289.114 203.878 289.69C203.878 290.014 204.166 290.278 204.742 290.482C205.798 290.866 206.452 291.22 206.704 291.544C206.956 291.856 207.082 292.246 207.082 292.714C207.082 293.482 206.812 294.094 206.272 294.55C205.744 295.006 205.09 295.234 204.31 295.234C203.302 295.234 202.468 294.838 201.808 294.046L202.582 293.056C203.182 293.656 203.734 293.956 204.238 293.956C204.97 293.956 205.336 293.602 205.336 292.894C205.336 292.534 205.144 292.27 204.76 292.102C204.376 291.922 204.082 291.79 203.878 291.706C202.774 291.226 202.222 290.644 202.222 289.96C202.222 289.276 202.426 288.724 202.834 288.304C203.254 287.872 203.8 287.656 204.472 287.656C205.432 287.656 206.194 287.902 206.758 288.394L206.038 289.366ZM210.845 293.974C210.845 294.334 210.719 294.646 210.467 294.91C210.227 295.162 209.927 295.288 209.567 295.288C209.207 295.288 208.901 295.162 208.649 294.91C208.397 294.658 208.271 294.358 208.271 294.01C208.271 293.65 208.397 293.344 208.649 293.092C208.901 292.84 209.201 292.714 209.549 292.714C209.909 292.714 210.215 292.834 210.467 293.074C210.719 293.314 210.845 293.614 210.845 293.974Z" fill="white"/>
<path d="M290.758 339.434V341H283.414L286.186 337.49C287.506 335.858 288.28 334.838 288.508 334.43C288.748 334.01 288.868 333.668 288.868 333.404C288.88 333.332 288.886 333.26 288.886 333.188C288.886 332.708 288.724 332.282 288.4 331.91C288.088 331.538 287.674 331.352 287.158 331.352C286.642 331.352 286.234 331.562 285.934 331.982C285.646 332.402 285.502 332.912 285.502 333.512H283.558C283.558 332.432 283.876 331.544 284.512 330.848C285.16 330.14 286.036 329.786 287.14 329.786C288.136 329.786 288.976 330.122 289.66 330.794C290.344 331.466 290.686 332.306 290.686 333.314C290.686 334.262 289.96 335.582 288.508 337.274L286.654 339.434H290.758ZM299.467 335.546C299.467 337.13 299.119 338.486 298.423 339.614C297.727 340.73 296.767 341.288 295.543 341.288C294.331 341.288 293.377 340.724 292.681 339.596C291.985 338.468 291.637 337.118 291.637 335.546C291.637 333.914 291.985 332.546 292.681 331.442C293.389 330.338 294.349 329.786 295.561 329.786C296.773 329.786 297.727 330.35 298.423 331.478C299.119 332.594 299.467 333.95 299.467 335.546ZM293.437 335.528C293.437 336.632 293.629 337.61 294.013 338.462C294.397 339.302 294.919 339.722 295.579 339.722C296.239 339.722 296.749 339.326 297.109 338.534C297.481 337.742 297.667 336.74 297.667 335.528C297.667 334.412 297.475 333.44 297.091 332.612C296.707 331.772 296.191 331.352 295.543 331.352C294.907 331.352 294.397 331.79 294.013 332.666C293.629 333.53 293.437 334.484 293.437 335.528ZM307.492 339.434V341H300.148L302.92 337.49C304.24 335.858 305.014 334.838 305.242 334.43C305.482 334.01 305.602 333.668 305.602 333.404C305.614 333.332 305.62 333.26 305.62 333.188C305.62 332.708 305.458 332.282 305.134 331.91C304.822 331.538 304.408 331.352 303.892 331.352C303.376 331.352 302.968 331.562 302.668 331.982C302.38 332.402 302.236 332.912 302.236 333.512H300.292C300.292 332.432 300.61 331.544 301.246 330.848C301.894 330.14 302.77 329.786 303.874 329.786C304.87 329.786 305.71 330.122 306.394 330.794C307.078 331.466 307.42 332.306 307.42 333.314C307.42 334.262 306.694 335.582 305.242 337.274L303.388 339.434H307.492ZM308.948 332.936C309.044 331.964 309.386 331.196 309.974 330.632C310.562 330.068 311.33 329.786 312.278 329.786C313.238 329.786 314.006 330.062 314.582 330.614C315.158 331.166 315.446 331.916 315.446 332.864C315.446 333.92 315.098 334.682 314.402 335.15C315.338 335.558 315.806 336.446 315.806 337.814C315.806 338.87 315.464 339.716 314.78 340.352C314.108 340.976 313.238 341.288 312.17 341.288C311.174 341.288 310.322 340.958 309.614 340.298C308.906 339.638 308.552 338.822 308.552 337.85H310.406C310.406 338.378 310.58 338.822 310.928 339.182C311.276 339.542 311.714 339.722 312.242 339.722C312.782 339.722 313.208 339.524 313.52 339.128C313.844 338.732 314.006 338.252 314.006 337.688C314.006 337.22 313.832 336.788 313.484 336.392C313.148 335.984 312.764 335.78 312.332 335.78C312.284 335.78 312.236 335.786 312.188 335.798L311.792 335.834V334.592H312.026C312.482 334.592 312.872 334.436 313.196 334.124C313.532 333.8 313.7 333.404 313.7 332.936C313.7 331.82 313.196 331.262 312.188 331.262C311.192 331.262 310.694 331.82 310.694 332.936H308.948Z" fill="white"/>
<g filter="url(#filter0_d_3216_276)">
<g filter="url(#filter1_d_3216_276)">
<rect x="96.0732" y="96.1973" width="6.27539" height="11.2588" rx="3.1377" fill="white"/>
</g>
<g filter="url(#filter2_d_3216_276)">
<rect x="96.0732" y="108.81" width="6.27539" height="6.89062" rx="3.1377" fill="url(#paint0_linear_3216_276)"/>
</g>
<g filter="url(#filter3_d_3216_276)">
<rect x="96.0732" y="117.238" width="6.27539" height="19.5029" rx="3.1377" fill="white"/>
</g>
<g filter="url(#filter4_d_3216_276)">
<rect x="104.933" y="96.1973" width="6.27539" height="24.1787" rx="3.1377" fill="white"/>
</g>
<g filter="url(#filter5_d_3216_276)">
<rect x="104.933" y="122.775" width="6.27539" height="13.9658" rx="3.1377" fill="url(#paint1_linear_3216_276)"/>
</g>
<g filter="url(#filter6_d_3216_276)">
<rect x="113.73" y="96.1973" width="6.33691" height="13.9658" rx="3.16846" fill="white"/>
</g>
<g filter="url(#filter7_d_3216_276)">
<rect x="113.73" y="111.763" width="6.33691" height="12.2432" rx="3.16846" fill="url(#paint2_linear_3216_276)"/>
</g>
<g filter="url(#filter8_d_3216_276)">
<rect x="113.73" y="125.729" width="6.33691" height="11.0127" rx="3.16846" fill="white"/>
</g>
<g filter="url(#filter9_d_3216_276)">
<rect x="122.59" y="96.1973" width="6.27539" height="16.1191" rx="3.1377" fill="url(#paint3_linear_3216_276)"/>
</g>
<g filter="url(#filter10_d_3216_276)">
<rect x="122.59" y="114.039" width="6.27539" height="22.7021" rx="3.1377" fill="white"/>
</g>
</g>
<defs>
<filter id="filter0_d_3216_276" x="-15" y="-11" width="263" height="263" filterUnits="userSpaceOnUse" color-interpolation-filters="sRGB">
<feFlood flood-opacity="0" result="BackgroundImageFix"/>
<feColorMatrix in="SourceAlpha" type="matrix" values="0 0 0 0 0 0 0 0 0 0 0 0 0 0 0 0 0 0 127 0" result="hardAlpha"/>
<feOffset dx="4" dy="4"/>
<feGaussianBlur stdDeviation="50"/>
<feComposite in2="hardAlpha" operator="out"/>
<feColorMatrix type="matrix" values="0 0 0 0 0 0 0 0 0 0 0 0 0 0 0 0 0 0 0.15 0"/>
<feBlend mode="normal" in2="BackgroundImageFix" result="effect1_dropShadow_3216_276"/>
<feBlend mode="normal" in="SourceGraphic" in2="effect1_dropShadow_3216_276" result="shape"/>
</filter>
<filter id="filter1_d_3216_276" x="70.0732" y="70.1973" width="66.2754" height="71.2588" filterUnits="userSpaceOnUse" color-interpolation-filters="sRGB">
<feFlood flood-opacity="0" result="BackgroundImageFix"/>
<feColorMatrix in="SourceAlpha" type="matrix" values="0 0 0 0 0 0 0 0 0 0 0 0 0 0 0 0 0 0 127 0" result="hardAlpha"/>
<feOffset dx="4" dy="4"/>
<feGaussianBlur stdDeviation="15"/>
<feComposite in2="hardAlpha" operator="out"/>
<feColorMatrix type="matrix" values="0 0 0 0 0 0 0 0 0 0 0 0 0 0 0 0 0 0 0.1 0"/>
<feBlend mode="normal" in2="BackgroundImageFix" result="effect1_dropShadow_3216_276"/>
<feBlend mode="normal" in="SourceGraphic" in2="effect1_dropShadow_3216_276" result="shape"/>
</filter>
<filter id="filter2_d_3216_276" x="70.0732" y="82.8096" width="66.2754" height="66.8906" filterUnits="userSpaceOnUse" color-interpolation-filters="sRGB">
<feFlood flood-opacity="0" result="BackgroundImageFix"/>
<feColorMatrix in="SourceAlpha" type="matrix" values="0 0 0 0 0 0 0 0 0 0 0 0 0 0 0 0 0 0 127 0" result="hardAlpha"/>
<feOffset dx="4" dy="4"/>
<feGaussianBlur stdDeviation="15"/>
<feComposite in2="hardAlpha" operator="out"/>
<feColorMatrix type="matrix" values="0 0 0 0 0 0 0 0 0 0 0 0 0 0 0 0 0 0 0.1 0"/>
<feBlend mode="normal" in2="BackgroundImageFix" result="effect1_dropShadow_3216_276"/>
<feBlend mode="normal" in="SourceGraphic" in2="effect1_dropShadow_3216_276" result="shape"/>
</filter>
<filter id="filter3_d_3216_276" x="70.0732" y="91.2383" width="66.2754" height="79.5029" filterUnits="userSpaceOnUse" color-interpolation-filters="sRGB">
<feFlood flood-opacity="0" result="BackgroundImageFix"/>
<feColorMatrix in="SourceAlpha" type="matrix" values="0 0 0 0 0 0 0 0 0 0 0 0 0 0 0 0 0 0 127 0" result="hardAlpha"/>
<feOffset dx="4" dy="4"/>
<feGaussianBlur stdDeviation="15"/>
<feComposite in2="hardAlpha" operator="out"/>
<feColorMatrix type="matrix" values="0 0 0 0 0 0 0 0 0 0 0 0 0 0 0 0 0 0 0.1 0"/>
<feBlend mode="normal" in2="BackgroundImageFix" result="effect1_dropShadow_3216_276"/>
<feBlend mode="normal" in="SourceGraphic" in2="effect1_dropShadow_3216_276" result="shape"/>
</filter>
<filter id="filter4_d_3216_276" x="78.9326" y="70.1973" width="66.2754" height="84.1787" filterUnits="userSpaceOnUse" color-interpolation-filters="sRGB">
<feFlood flood-opacity="0" result="BackgroundImageFix"/>
<feColorMatrix in="SourceAlpha" type="matrix" values="0 0 0 0 0 0 0 0 0 0 0 0 0 0 0 0 0 0 127 0" result="hardAlpha"/>
<feOffset dx="4" dy="4"/>
<feGaussianBlur stdDeviation="15"/>
<feComposite in2="hardAlpha" operator="out"/>
<feColorMatrix type="matrix" values="0 0 0 0 0 0 0 0 0 0 0 0 0 0 0 0 0 0 0.1 0"/>
<feBlend mode="normal" in2="BackgroundImageFix" result="effect1_dropShadow_3216_276"/>
<feBlend mode="normal" in="SourceGraphic" in2="effect1_dropShadow_3216_276" result="shape"/>
</filter>
<filter id="filter5_d_3216_276" x="78.9326" y="96.7754" width="66.2754" height="73.9658" filterUnits="userSpaceOnUse" color-interpolation-filters="sRGB">
<feFlood flood-opacity="0" result="BackgroundImageFix"/>
<feColorMatrix in="SourceAlpha" type="matrix" values="0 0 0 0 0 0 0 0 0 0 0 0 0 0 0 0 0 0 127 0" result="hardAlpha"/>
<feOffset dx="4" dy="4"/>
<feGaussianBlur stdDeviation="15"/>
<feComposite in2="hardAlpha" operator="out"/>
<feColorMatrix type="matrix" values="0 0 0 0 0 0 0 0 0 0 0 0 0 0 0 0 0 0 0.1 0"/>
<feBlend mode="normal" in2="BackgroundImageFix" result="effect1_dropShadow_3216_276"/>
<feBlend mode="normal" in="SourceGraphic" in2="effect1_dropShadow_3216_276" result="shape"/>
</filter>
<filter id="filter6_d_3216_276" x="87.7305" y="70.1973" width="66.3369" height="73.9658" filterUnits="userSpaceOnUse" color-interpolation-filters="sRGB">
<feFlood flood-opacity="0" result="BackgroundImageFix"/>
<feColorMatrix in="SourceAlpha" type="matrix" values="0 0 0 0 0 0 0 0 0 0 0 0 0 0 0 0 0 0 127 0" result="hardAlpha"/>
<feOffset dx="4" dy="4"/>
<feGaussianBlur stdDeviation="15"/>
<feComposite in2="hardAlpha" operator="out"/>
<feColorMatrix type="matrix" values="0 0 0 0 0 0 0 0 0 0 0 0 0 0 0 0 0 0 0.1 0"/>
<feBlend mode="normal" in2="BackgroundImageFix" result="effect1_dropShadow_3216_276"/>
<feBlend mode="normal" in="SourceGraphic" in2="effect1_dropShadow_3216_276" result="shape"/>
</filter>
<filter id="filter7_d_3216_276" x="87.7305" y="85.7627" width="66.3369" height="72.2432" filterUnits="userSpaceOnUse" color-interpolation-filters="sRGB">
<feFlood flood-opacity="0" result="BackgroundImageFix"/>
<feColorMatrix in="SourceAlpha" type="matrix" values="0 0 0 0 0 0 0 0 0 0 0 0 0 0 0 0 0 0 127 0" result="hardAlpha"/>
<feOffset dx="4" dy="4"/>
<feGaussianBlur stdDeviation="15"/>
<feComposite in2="hardAlpha" operator="out"/>
<feColorMatrix type="matrix" values="0 0 0 0 0 0 0 0 0 0 0 0 0 0 0 0 0 0 0.1 0"/>
<feBlend mode="normal" in2="BackgroundImageFix" result="effect1_dropShadow_3216_276"/>
<feBlend mode="normal" in="SourceGraphic" in2="effect1_dropShadow_3216_276" result="shape"/>
</filter>
<filter id="filter8_d_3216_276" x="87.7305" y="99.7285" width="66.3369" height="71.0127" filterUnits="userSpaceOnUse" color-interpolation-filters="sRGB">
<feFlood flood-opacity="0" result="BackgroundImageFix"/>
<feColorMatrix in="SourceAlpha" type="matrix" values="0 0 0 0 0 0 0 0 0 0 0 0 0 0 0 0 0 0 127 0" result="hardAlpha"/>
<feOffset dx="4" dy="4"/>
<feGaussianBlur stdDeviation="15"/>
<feComposite in2="hardAlpha" operator="out"/>
<feColorMatrix type="matrix" values="0 0 0 0 0 0 0 0 0 0 0 0 0 0 0 0 0 0 0.1 0"/>
<feBlend mode="normal" in2="BackgroundImageFix" result="effect1_dropShadow_3216_276"/>
<feBlend mode="normal" in="SourceGraphic" in2="effect1_dropShadow_3216_276" result="shape"/>
</filter>
<filter id="filter9_d_3216_276" x="96.5898" y="70.1973" width="66.2754" height="76.1191" filterUnits="userSpaceOnUse" color-interpolation-filters="sRGB">
<feFlood flood-opacity="0" result="BackgroundImageFix"/>
<feColorMatrix in="SourceAlpha" type="matrix" values="0 0 0 0 0 0 0 0 0 0 0 0 0 0 0 0 0 0 127 0" result="hardAlpha"/>
<feOffset dx="4" dy="4"/>
<feGaussianBlur stdDeviation="15"/>
<feComposite in2="hardAlpha" operator="out"/>
<feColorMatrix type="matrix" values="0 0 0 0 0 0 0 0 0 0 0 0 0 0 0 0 0 0 0.1 0"/>
<feBlend mode="normal" in2="BackgroundImageFix" result="effect1_dropShadow_3216_276"/>
<feBlend mode="normal" in="SourceGraphic" in2="effect1_dropShadow_3216_276" result="shape"/>
</filter>
<filter id="filter10_d_3216_276" x="96.5898" y="88.0391" width="66.2754" height="82.7021" filterUnits="userSpaceOnUse" color-interpolation-filters="sRGB">
<feFlood flood-opacity="0" result="BackgroundImageFix"/>
<feColorMatrix in="SourceAlpha" type="matrix" values="0 0 0 0 0 0 0 0 0 0 0 0 0 0 0 0 0 0 127 0" result="hardAlpha"/>
<feOffset dx="4" dy="4"/>
<feGaussianBlur stdDeviation="15"/>
<feComposite in2="hardAlpha" operator="out"/>
<feColorMatrix type="matrix" values="0 0 0 0 0 0 0 0 0 0 0 0 0 0 0 0 0 0 0.1 0"/>
<feBlend mode="normal" in2="BackgroundImageFix" result="effect1_dropShadow_3216_276"/>
<feBlend mode="normal" in="SourceGraphic" in2="effect1_dropShadow_3216_276" result="shape"/>
</filter>
<linearGradient id="paint0_linear_3216_276" x1="99.2109" y1="108.81" x2="99.2109" y2="115.7" gradientUnits="userSpaceOnUse">
<stop stop-color="white"/>
<stop offset="1"/>
</linearGradient>
<linearGradient id="paint1_linear_3216_276" x1="108.07" y1="122.775" x2="108.07" y2="136.741" gradientUnits="userSpaceOnUse">
<stop/>
<stop offset="1" stop-color="white"/>
</linearGradient>
<linearGradient id="paint2_linear_3216_276" x1="116.899" y1="111.763" x2="116.899" y2="124.006" gradientUnits="userSpaceOnUse">
<stop/>
<stop offset="1" stop-color="white"/>
</linearGradient>
<linearGradient id="paint3_linear_3216_276" x1="125.728" y1="96.1973" x2="125.728" y2="112.316" gradientUnits="userSpaceOnUse">
<stop stop-color="white"/>
<stop offset="1"/>
</linearGradient>
</defs>
</svg>
