<svg width="270" height="316" viewBox="0 0 270 316" fill="none" xmlns="http://www.w3.org/2000/svg">
<rect width="270" height="316" rx="11" transform="matrix(1 0 0 -1 0 316)" fill="black"/>
<path d="M30.504 140H28.032V125.432H31.896C35.272 125.432 36.96 126.936 36.96 129.944C36.96 133.016 35.408 134.552 32.304 134.552H30.504V140ZM30.504 132.584H31.728C33.536 132.584 34.44 131.704 34.44 129.944C34.44 128.248 33.512 127.4 31.656 127.4H30.504V132.584ZM40.6753 140H38.3473V123.608H40.6753V140ZM51.7485 140H49.4685V139.136C48.7965 139.92 47.7965 140.312 46.4685 140.312C45.1405 140.312 44.0765 139.8 43.2765 138.776C42.4925 137.752 42.1005 136.552 42.1005 135.176C42.1005 133.8 42.5005 132.632 43.3005 131.672C44.1165 130.696 45.1565 130.208 46.4205 130.208C47.7645 130.208 48.7805 130.608 49.4685 131.408V130.52H51.7485V140ZM49.7325 135.248C49.7325 134.368 49.4845 133.648 48.9885 133.088C48.4925 132.512 47.8525 132.224 47.0685 132.224C46.3005 132.224 45.6685 132.504 45.1725 133.064C44.6925 133.608 44.4525 134.336 44.4525 135.248C44.4525 136.16 44.7005 136.896 45.1965 137.456C45.6925 138.016 46.3325 138.296 47.1165 138.296C47.9005 138.296 48.5325 138.024 49.0125 137.48C49.4925 136.936 49.7325 136.192 49.7325 135.248ZM60.1504 132.992C59.5584 132.4 58.8944 132.104 58.1584 132.104C57.2944 132.104 56.6144 132.416 56.1184 133.04C55.6224 133.664 55.3744 134.432 55.3744 135.344C55.3744 136.24 55.6544 136.976 56.2144 137.552C56.7744 138.128 57.4544 138.416 58.2544 138.416C58.9424 138.416 59.5744 138.112 60.1504 137.504V139.736C59.4784 140.12 58.7024 140.312 57.8224 140.312C56.4464 140.312 55.3024 139.824 54.3904 138.848C53.4784 137.872 53.0224 136.68 53.0224 135.272C53.0224 133.864 53.4864 132.672 54.4144 131.696C55.3584 130.704 56.5344 130.208 57.9424 130.208C58.7744 130.208 59.5104 130.408 60.1504 130.808V132.992ZM63.6272 135.488C63.6272 136.4 63.8272 137.152 64.2272 137.744C64.6272 138.336 65.1792 138.632 65.8832 138.632C66.9872 138.632 67.6912 138.088 67.9952 137L70.2032 137.36C69.4832 139.328 68.0432 140.312 65.8832 140.312C64.4432 140.312 63.2912 139.856 62.4272 138.944C61.5792 138.016 61.1552 136.816 61.1552 135.344C61.1552 133.792 61.5632 132.552 62.3792 131.624C63.2112 130.68 64.3312 130.208 65.7392 130.208C67.1632 130.208 68.2672 130.656 69.0512 131.552C69.8512 132.432 70.2512 133.64 70.2512 135.176V135.488H63.6272ZM68.0912 134.192C68.0912 133.536 67.8832 132.96 67.4672 132.464C67.0672 131.968 66.5392 131.72 65.8832 131.72C65.2432 131.72 64.7152 131.984 64.2992 132.512C63.8992 133.024 63.6992 133.584 63.6992 134.192H68.0912ZM82.3785 140H80.0505V132.608H78.9225V130.712H80.0505V127.304H82.3785V130.712H84.2265V132.608H82.3785V140ZM94.1314 135.248C94.1314 136.736 93.6754 137.952 92.7634 138.896C91.8514 139.84 90.6514 140.312 89.1634 140.312C87.6914 140.312 86.4914 139.84 85.5634 138.896C84.6354 137.952 84.1714 136.744 84.1714 135.272C84.1714 133.784 84.6274 132.568 85.5394 131.624C86.4514 130.68 87.6514 130.208 89.1394 130.208C90.6274 130.208 91.8274 130.68 92.7394 131.624C93.6674 132.552 94.1314 133.76 94.1314 135.248ZM86.5234 135.296C86.5234 136.176 86.7714 136.896 87.2674 137.456C87.7634 138.016 88.4034 138.296 89.1874 138.296C89.9714 138.296 90.5954 138 91.0594 137.408C91.5394 136.8 91.7794 136.088 91.7794 135.272C91.7794 134.44 91.5394 133.728 91.0594 133.136C90.5794 132.528 89.9474 132.224 89.1634 132.224C88.3954 132.224 87.7634 132.512 87.2674 133.088C86.7714 133.664 86.5234 134.4 86.5234 135.296ZM105.973 140H103.501V125.432H107.365C110.741 125.432 112.429 126.936 112.429 129.944C112.429 133.016 110.877 134.552 107.773 134.552H105.973V140ZM105.973 132.584H107.197C109.005 132.584 109.909 131.704 109.909 129.944C109.909 128.248 108.981 127.4 107.125 127.4H105.973V132.584ZM116.144 140H113.816V123.608H116.144V140ZM127.217 140H124.937V139.136C124.265 139.92 123.265 140.312 121.937 140.312C120.609 140.312 119.545 139.8 118.745 138.776C117.961 137.752 117.569 136.552 117.569 135.176C117.569 133.8 117.969 132.632 118.769 131.672C119.585 130.696 120.625 130.208 121.889 130.208C123.233 130.208 124.249 130.608 124.937 131.408V130.52H127.217V140ZM125.201 135.248C125.201 134.368 124.953 133.648 124.457 133.088C123.961 132.512 123.321 132.224 122.537 132.224C121.769 132.224 121.137 132.504 120.641 133.064C120.161 133.608 119.921 134.336 119.921 135.248C119.921 136.16 120.169 136.896 120.665 137.456C121.161 138.016 121.801 138.296 122.585 138.296C123.369 138.296 124.001 138.024 124.481 137.48C124.961 136.936 125.201 136.192 125.201 135.248ZM131.491 131.384C132.147 130.6 133.115 130.208 134.395 130.208C136.571 130.208 137.659 131.544 137.659 134.216V140H135.355V134.984C135.355 132.984 134.739 131.984 133.507 131.984C132.163 131.984 131.491 133.056 131.491 135.2V140H129.163V130.52H131.491V131.384Z" fill="white"/>
<path d="M28.774 183.074H31.834C33.394 183.074 34.66 183.59 35.632 184.622C36.616 185.654 37.108 186.956 37.108 188.528C37.108 190.1 36.61 191.408 35.614 192.452C34.63 193.484 33.364 194 31.816 194H28.774V183.074ZM30.628 192.326H31.258C33.874 192.326 35.182 191.066 35.182 188.546C35.182 186.014 33.874 184.748 31.258 184.748H30.628V192.326ZM39.4216 190.616C39.4216 191.3 39.5716 191.864 39.8716 192.308C40.1716 192.752 40.5856 192.974 41.1136 192.974C41.9416 192.974 42.4696 192.566 42.6976 191.75L44.3536 192.02C43.8136 193.496 42.7336 194.234 41.1136 194.234C40.0336 194.234 39.1696 193.892 38.5216 193.208C37.8856 192.512 37.5676 191.612 37.5676 190.508C37.5676 189.344 37.8736 188.414 38.4856 187.718C39.1096 187.01 39.9496 186.656 41.0056 186.656C42.0736 186.656 42.9016 186.992 43.4896 187.664C44.0896 188.324 44.3896 189.23 44.3896 190.382V190.616H39.4216ZM42.7696 189.644C42.7696 189.152 42.6136 188.72 42.3016 188.348C42.0016 187.976 41.6056 187.79 41.1136 187.79C40.6336 187.79 40.2376 187.988 39.9256 188.384C39.6256 188.768 39.4756 189.188 39.4756 189.644H42.7696ZM48.2473 191.39L49.9933 186.89H51.9373L48.6613 194.144H47.6173L44.3593 186.89H46.2853L48.2473 191.39ZM53.7477 190.616C53.7477 191.3 53.8977 191.864 54.1977 192.308C54.4977 192.752 54.9117 192.974 55.4397 192.974C56.2677 192.974 56.7957 192.566 57.0237 191.75L58.6797 192.02C58.1397 193.496 57.0597 194.234 55.4397 194.234C54.3597 194.234 53.4957 193.892 52.8477 193.208C52.2117 192.512 51.8937 191.612 51.8937 190.508C51.8937 189.344 52.1997 188.414 52.8117 187.718C53.4357 187.01 54.2757 186.656 55.3317 186.656C56.3997 186.656 57.2277 186.992 57.8157 187.664C58.4157 188.324 58.7157 189.23 58.7157 190.382V190.616H53.7477ZM57.0957 189.644C57.0957 189.152 56.9397 188.72 56.6277 188.348C56.3277 187.976 55.9317 187.79 55.4397 187.79C54.9597 187.79 54.5637 187.988 54.2517 188.384C53.9517 188.768 53.8017 189.188 53.8017 189.644H57.0957ZM61.5475 194H59.8015V181.706H61.5475V194ZM70.1044 190.436C70.1044 191.552 69.7624 192.464 69.0784 193.172C68.3944 193.88 67.4944 194.234 66.3784 194.234C65.2744 194.234 64.3744 193.88 63.6784 193.172C62.9824 192.464 62.6344 191.558 62.6344 190.454C62.6344 189.338 62.9764 188.426 63.6604 187.718C64.3444 187.01 65.2444 186.656 66.3604 186.656C67.4764 186.656 68.3764 187.01 69.0604 187.718C69.7564 188.414 70.1044 189.32 70.1044 190.436ZM64.3984 190.472C64.3984 191.132 64.5844 191.672 64.9564 192.092C65.3284 192.512 65.8084 192.722 66.3964 192.722C66.9844 192.722 67.4524 192.5 67.8004 192.056C68.1604 191.6 68.3404 191.066 68.3404 190.454C68.3404 189.83 68.1604 189.296 67.8004 188.852C67.4404 188.396 66.9664 188.168 66.3784 188.168C65.8024 188.168 65.3284 188.384 64.9564 188.816C64.5844 189.248 64.3984 189.8 64.3984 190.472ZM72.8117 187.538C73.3157 186.95 74.0657 186.656 75.0617 186.656C75.9977 186.656 76.7717 187.028 77.3837 187.772C78.0077 188.516 78.3197 189.392 78.3197 190.4C78.3197 191.492 78.0137 192.404 77.4017 193.136C76.7897 193.868 75.9977 194.234 75.0257 194.234C73.9817 194.234 73.2557 193.934 72.8477 193.334L72.8117 197.006H71.0657V186.89H72.8117V187.538ZM76.5377 190.436C76.5377 189.824 76.3637 189.296 76.0157 188.852C75.6677 188.396 75.1877 188.168 74.5757 188.168C74.0117 188.168 73.5437 188.396 73.1717 188.852C72.7997 189.308 72.6137 189.836 72.6137 190.436C72.6137 191.024 72.8117 191.552 73.2077 192.02C73.6037 192.488 74.0597 192.722 74.5757 192.722C75.1877 192.722 75.6677 192.506 76.0157 192.074C76.3637 191.642 76.5377 191.096 76.5377 190.436ZM81.3991 183.902C81.3991 184.178 81.2971 184.418 81.0931 184.622C80.8891 184.826 80.6491 184.928 80.3731 184.928C80.0971 184.928 79.8571 184.826 79.6531 184.622C79.4491 184.418 79.3471 184.178 79.3471 183.902C79.3471 183.626 79.4491 183.386 79.6531 183.182C79.8571 182.978 80.0971 182.876 80.3731 182.876C80.6491 182.876 80.8891 182.978 81.0931 183.182C81.2971 183.386 81.3991 183.626 81.3991 183.902ZM81.2551 194H79.5091V186.89H81.2551V194ZM84.6769 187.538C85.1689 186.95 85.8949 186.656 86.8549 186.656C88.4869 186.656 89.3029 187.658 89.3029 189.662V194H87.5749V190.238C87.5749 188.738 87.1129 187.988 86.1889 187.988C85.1809 187.988 84.6769 188.792 84.6769 190.4V194H82.9309V186.89H84.6769V187.538ZM97.5212 193.388C97.5212 195.824 96.3872 197.042 94.1192 197.042C93.1112 197.042 92.2592 196.766 91.5632 196.214C90.8672 195.674 90.5192 194.966 90.5192 194.09H92.3732C92.3732 194.438 92.5472 194.78 92.8952 195.116C93.2432 195.452 93.6332 195.62 94.0652 195.62C95.2052 195.62 95.7752 194.936 95.7752 193.568V193.118C95.2832 193.742 94.5332 194.054 93.5252 194.054C92.5292 194.054 91.7432 193.706 91.1672 193.01C90.6032 192.314 90.3212 191.462 90.3212 190.454C90.3212 189.362 90.6272 188.45 91.2392 187.718C91.8512 186.986 92.6432 186.62 93.6152 186.62C94.5992 186.62 95.3192 186.926 95.7752 187.538V186.854H97.5212V193.388ZM96.0272 190.292C96.0272 189.644 95.8472 189.122 95.4872 188.726C95.1272 188.33 94.6532 188.132 94.0652 188.132C93.4772 188.132 92.9972 188.348 92.6252 188.78C92.2652 189.212 92.0852 189.758 92.0852 190.418C92.0852 191.834 92.7452 192.542 94.0652 192.542C94.6652 192.542 95.1392 192.332 95.4872 191.912C95.8472 191.48 96.0272 190.94 96.0272 190.292ZM106.65 187.538C107.154 186.95 107.904 186.656 108.9 186.656C109.836 186.656 110.61 187.028 111.222 187.772C111.846 188.516 112.158 189.392 112.158 190.4C112.158 191.492 111.852 192.404 111.24 193.136C110.628 193.868 109.836 194.234 108.864 194.234C107.82 194.234 107.094 193.934 106.686 193.334L106.65 197.006H104.904V186.89H106.65V187.538ZM110.376 190.436C110.376 189.824 110.202 189.296 109.854 188.852C109.506 188.396 109.026 188.168 108.414 188.168C107.85 188.168 107.382 188.396 107.01 188.852C106.638 189.308 106.452 189.836 106.452 190.436C106.452 191.024 106.65 191.552 107.046 192.02C107.442 192.488 107.898 192.722 108.414 192.722C109.026 192.722 109.506 192.506 109.854 192.074C110.202 191.642 110.376 191.096 110.376 190.436ZM114.445 190.616C114.445 191.3 114.595 191.864 114.895 192.308C115.195 192.752 115.609 192.974 116.137 192.974C116.965 192.974 117.493 192.566 117.721 191.75L119.377 192.02C118.837 193.496 117.757 194.234 116.137 194.234C115.057 194.234 114.193 193.892 113.545 193.208C112.909 192.512 112.591 191.612 112.591 190.508C112.591 189.344 112.897 188.414 113.509 187.718C114.133 187.01 114.973 186.656 116.029 186.656C117.097 186.656 117.925 186.992 118.513 187.664C119.113 188.324 119.413 189.23 119.413 190.382V190.616H114.445ZM117.793 189.644C117.793 189.152 117.637 188.72 117.325 188.348C117.025 187.976 116.629 187.79 116.137 187.79C115.657 187.79 115.261 187.988 114.949 188.384C114.649 188.768 114.499 189.188 114.499 189.644H117.793ZM122.101 187.628C122.545 186.98 123.241 186.656 124.189 186.656C124.489 186.656 124.765 186.716 125.017 186.836L124.801 188.42C124.537 188.252 124.249 188.168 123.937 188.168C122.713 188.168 122.101 189.044 122.101 190.796V194H120.355V186.89H122.101V187.628ZM129.461 188.366C129.077 188.006 128.675 187.826 128.255 187.826C127.619 187.826 127.301 188.114 127.301 188.69C127.301 189.014 127.589 189.278 128.165 189.482C129.221 189.866 129.875 190.22 130.127 190.544C130.379 190.856 130.505 191.246 130.505 191.714C130.505 192.482 130.235 193.094 129.695 193.55C129.167 194.006 128.513 194.234 127.733 194.234C126.725 194.234 125.891 193.838 125.231 193.046L126.005 192.056C126.605 192.656 127.157 192.956 127.661 192.956C128.393 192.956 128.759 192.602 128.759 191.894C128.759 191.534 128.567 191.27 128.183 191.102C127.799 190.922 127.505 190.79 127.301 190.706C126.197 190.226 125.645 189.644 125.645 188.96C125.645 188.276 125.849 187.724 126.257 187.304C126.677 186.872 127.223 186.656 127.895 186.656C128.855 186.656 129.617 186.902 130.181 187.394L129.461 188.366ZM138.589 190.436C138.589 191.552 138.247 192.464 137.563 193.172C136.879 193.88 135.979 194.234 134.863 194.234C133.759 194.234 132.859 193.88 132.163 193.172C131.467 192.464 131.119 191.558 131.119 190.454C131.119 189.338 131.461 188.426 132.145 187.718C132.829 187.01 133.729 186.656 134.845 186.656C135.961 186.656 136.861 187.01 137.545 187.718C138.241 188.414 138.589 189.32 138.589 190.436ZM132.883 190.472C132.883 191.132 133.069 191.672 133.441 192.092C133.813 192.512 134.293 192.722 134.881 192.722C135.469 192.722 135.937 192.5 136.285 192.056C136.645 191.6 136.825 191.066 136.825 190.454C136.825 189.83 136.645 189.296 136.285 188.852C135.925 188.396 135.451 188.168 134.863 188.168C134.287 188.168 133.813 188.384 133.441 188.816C133.069 189.248 132.883 189.8 132.883 190.472ZM141.296 187.538C141.788 186.95 142.514 186.656 143.474 186.656C145.106 186.656 145.922 187.658 145.922 189.662V194H144.194V190.238C144.194 188.738 143.732 187.988 142.808 187.988C141.8 187.988 141.296 188.792 141.296 190.4V194H139.55V186.89H141.296V187.538ZM154.104 194H152.394V193.352C151.89 193.94 151.14 194.234 150.144 194.234C149.148 194.234 148.35 193.85 147.75 193.082C147.162 192.314 146.868 191.414 146.868 190.382C146.868 189.35 147.168 188.474 147.768 187.754C148.38 187.022 149.16 186.656 150.108 186.656C151.116 186.656 151.878 186.956 152.394 187.556V186.89H154.104V194ZM152.592 190.436C152.592 189.776 152.406 189.236 152.034 188.816C151.662 188.384 151.182 188.168 150.594 188.168C150.018 188.168 149.544 188.378 149.172 188.798C148.812 189.206 148.632 189.752 148.632 190.436C148.632 191.12 148.818 191.672 149.19 192.092C149.562 192.512 150.042 192.722 150.63 192.722C151.218 192.722 151.692 192.518 152.052 192.11C152.412 191.702 152.592 191.144 152.592 190.436ZM157.454 194H155.708V181.706H157.454V194ZM30.466 199.706V205.484C30.922 204.932 31.648 204.656 32.644 204.656C33.388 204.656 33.982 204.944 34.426 205.52C34.87 206.096 35.092 206.81 35.092 207.662V212H33.364V208.238C33.364 206.738 32.902 205.988 31.978 205.988C30.97 205.988 30.466 206.816 30.466 208.472V212H28.72V199.706H30.466ZM37.8923 208.616C37.8923 209.3 38.0423 209.864 38.3423 210.308C38.6423 210.752 39.0563 210.974 39.5843 210.974C40.4123 210.974 40.9403 210.566 41.1683 209.75L42.8243 210.02C42.2843 211.496 41.2043 212.234 39.5843 212.234C38.5043 212.234 37.6403 211.892 36.9923 211.208C36.3563 210.512 36.0383 209.612 36.0383 208.508C36.0383 207.344 36.3443 206.414 36.9563 205.718C37.5803 205.01 38.4203 204.656 39.4763 204.656C40.5443 204.656 41.3723 204.992 41.9603 205.664C42.5603 206.324 42.8603 207.23 42.8603 208.382V208.616H37.8923ZM41.2403 207.644C41.2403 207.152 41.0843 206.72 40.7723 206.348C40.4723 205.976 40.0763 205.79 39.5843 205.79C39.1043 205.79 38.7083 205.988 38.3963 206.384C38.0963 206.768 37.9463 207.188 37.9463 207.644H41.2403ZM50.534 212H48.824V211.352C48.32 211.94 47.57 212.234 46.574 212.234C45.578 212.234 44.78 211.85 44.18 211.082C43.592 210.314 43.298 209.414 43.298 208.382C43.298 207.35 43.598 206.474 44.198 205.754C44.81 205.022 45.59 204.656 46.538 204.656C47.546 204.656 48.308 204.956 48.824 205.556V204.89H50.534V212ZM49.022 208.436C49.022 207.776 48.836 207.236 48.464 206.816C48.092 206.384 47.612 206.168 47.024 206.168C46.448 206.168 45.974 206.378 45.602 206.798C45.242 207.206 45.062 207.752 45.062 208.436C45.062 209.12 45.248 209.672 45.62 210.092C45.992 210.512 46.472 210.722 47.06 210.722C47.648 210.722 48.122 210.518 48.482 210.11C48.842 209.702 49.022 209.144 49.022 208.436ZM53.8834 212H52.1374V199.706H53.8834V212ZM57.5983 212H55.8523V206.456H55.0063V205.034H55.8523V202.478H57.5983V205.034H58.9843V206.456H57.5983V212ZM61.175 199.706V205.484C61.631 204.932 62.357 204.656 63.353 204.656C64.097 204.656 64.691 204.944 65.135 205.52C65.579 206.096 65.801 206.81 65.801 207.662V212H64.073V208.238C64.073 206.738 63.611 205.988 62.687 205.988C61.679 205.988 61.175 206.816 61.175 208.472V212H59.429V199.706H61.175ZM75.405 201.902C75.405 202.178 75.303 202.418 75.099 202.622C74.895 202.826 74.655 202.928 74.379 202.928C74.103 202.928 73.863 202.826 73.659 202.622C73.455 202.418 73.353 202.178 73.353 201.902C73.353 201.626 73.455 201.386 73.659 201.182C73.863 200.978 74.103 200.876 74.379 200.876C74.655 200.876 74.895 200.978 75.099 201.182C75.303 201.386 75.405 201.626 75.405 201.902ZM75.261 212H73.515V204.89H75.261V212ZM78.6828 205.538C79.1748 204.95 79.9008 204.656 80.8608 204.656C82.4928 204.656 83.3088 205.658 83.3088 207.662V212H81.5808V208.238C81.5808 206.738 81.1188 205.988 80.1948 205.988C79.1868 205.988 78.6828 206.792 78.6828 208.4V212H76.9368V204.89H78.6828V205.538ZM86.7211 212H84.9751V206.456H84.1471V205.034H84.9751V202.802C84.9751 200.63 85.8211 199.544 87.5131 199.544C87.8611 199.544 88.1851 199.622 88.4851 199.778V201.29C88.1731 201.134 87.8971 201.056 87.6571 201.056C87.3331 201.056 87.0931 201.176 86.9371 201.416C86.7931 201.644 86.7211 202.202 86.7211 203.09V205.034H88.4851V206.456H86.7211V212ZM96.1376 208.436C96.1376 209.552 95.7956 210.464 95.1116 211.172C94.4276 211.88 93.5276 212.234 92.4116 212.234C91.3076 212.234 90.4076 211.88 89.7116 211.172C89.0156 210.464 88.6676 209.558 88.6676 208.454C88.6676 207.338 89.0096 206.426 89.6936 205.718C90.3776 205.01 91.2776 204.656 92.3936 204.656C93.5096 204.656 94.4096 205.01 95.0936 205.718C95.7896 206.414 96.1376 207.32 96.1376 208.436ZM90.4316 208.472C90.4316 209.132 90.6176 209.672 90.9896 210.092C91.3616 210.512 91.8416 210.722 92.4296 210.722C93.0176 210.722 93.4856 210.5 93.8336 210.056C94.1936 209.6 94.3736 209.066 94.3736 208.454C94.3736 207.83 94.1936 207.296 93.8336 206.852C93.4736 206.396 92.9996 206.168 92.4116 206.168C91.8356 206.168 91.3616 206.384 90.9896 206.816C90.6176 207.248 90.4316 207.8 90.4316 208.472ZM98.8449 205.628C99.2889 204.98 99.9849 204.656 100.933 204.656C101.233 204.656 101.509 204.716 101.761 204.836L101.545 206.42C101.281 206.252 100.993 206.168 100.681 206.168C99.4569 206.168 98.8449 207.044 98.8449 208.796V212H97.0989V204.89H98.8449V205.628ZM104.154 205.52C104.598 204.944 105.282 204.656 106.206 204.656C107.01 204.656 107.646 205.028 108.114 205.772C108.57 205.028 109.308 204.656 110.328 204.656C111.828 204.656 112.578 205.628 112.578 207.572V212H110.85V208.256C110.85 206.744 110.436 205.988 109.608 205.988C108.78 205.988 108.366 206.828 108.366 208.508V212H106.62V208.4C106.62 206.792 106.254 205.988 105.522 205.988C104.61 205.988 104.154 206.828 104.154 208.508V212H102.408V204.89H104.154V205.52ZM120.776 212H119.066V211.352C118.562 211.94 117.812 212.234 116.816 212.234C115.82 212.234 115.022 211.85 114.422 211.082C113.834 210.314 113.54 209.414 113.54 208.382C113.54 207.35 113.84 206.474 114.44 205.754C115.052 205.022 115.832 204.656 116.78 204.656C117.788 204.656 118.55 204.956 119.066 205.556V204.89H120.776V212ZM119.264 208.436C119.264 207.776 119.078 207.236 118.706 206.816C118.334 206.384 117.854 206.168 117.266 206.168C116.69 206.168 116.216 206.378 115.844 206.798C115.484 207.206 115.304 207.752 115.304 208.436C115.304 209.12 115.49 209.672 115.862 210.092C116.234 210.512 116.714 210.722 117.302 210.722C117.89 210.722 118.364 210.518 118.724 210.11C119.084 209.702 119.264 209.144 119.264 208.436ZM124.378 212H122.632V206.456H121.786V205.034H122.632V202.478H124.378V205.034H125.764V206.456H124.378V212ZM128.35 201.902C128.35 202.178 128.248 202.418 128.044 202.622C127.84 202.826 127.6 202.928 127.324 202.928C127.048 202.928 126.808 202.826 126.604 202.622C126.4 202.418 126.298 202.178 126.298 201.902C126.298 201.626 126.4 201.386 126.604 201.182C126.808 200.978 127.048 200.876 127.324 200.876C127.6 200.876 127.84 200.978 128.044 201.182C128.248 201.386 128.35 201.626 128.35 201.902ZM128.206 212H126.46V204.89H128.206V212ZM134.724 206.744C134.28 206.3 133.782 206.078 133.23 206.078C132.582 206.078 132.072 206.312 131.7 206.78C131.328 207.248 131.142 207.824 131.142 208.508C131.142 209.18 131.352 209.732 131.772 210.164C132.192 210.596 132.702 210.812 133.302 210.812C133.818 210.812 134.292 210.584 134.724 210.128V211.802C134.22 212.09 133.638 212.234 132.978 212.234C131.946 212.234 131.088 211.868 130.404 211.136C129.72 210.404 129.378 209.51 129.378 208.454C129.378 207.398 129.726 206.504 130.422 205.772C131.13 205.028 132.012 204.656 133.068 204.656C133.692 204.656 134.244 204.806 134.724 205.106V206.744ZM139.78 206.366C139.396 206.006 138.994 205.826 138.574 205.826C137.938 205.826 137.62 206.114 137.62 206.69C137.62 207.014 137.908 207.278 138.484 207.482C139.54 207.866 140.194 208.22 140.446 208.544C140.698 208.856 140.824 209.246 140.824 209.714C140.824 210.482 140.554 211.094 140.014 211.55C139.486 212.006 138.832 212.234 138.052 212.234C137.044 212.234 136.21 211.838 135.55 211.046L136.324 210.056C136.924 210.656 137.476 210.956 137.98 210.956C138.712 210.956 139.078 210.602 139.078 209.894C139.078 209.534 138.886 209.27 138.502 209.102C138.118 208.922 137.824 208.79 137.62 208.706C136.516 208.226 135.964 207.644 135.964 206.96C135.964 206.276 136.168 205.724 136.576 205.304C136.996 204.872 137.542 204.656 138.214 204.656C139.174 204.656 139.936 204.902 140.5 205.394L139.78 206.366ZM149.897 212H148.151V206.456H147.323V205.034H148.151V202.802C148.151 200.63 148.997 199.544 150.689 199.544C151.037 199.544 151.361 199.622 151.661 199.778V201.29C151.349 201.134 151.073 201.056 150.833 201.056C150.509 201.056 150.269 201.176 150.113 201.416C149.969 201.644 149.897 202.202 149.897 203.09V205.034H151.661V206.456H149.897V212ZM159.313 208.436C159.313 209.552 158.971 210.464 158.287 211.172C157.603 211.88 156.703 212.234 155.587 212.234C154.483 212.234 153.583 211.88 152.887 211.172C152.191 210.464 151.843 209.558 151.843 208.454C151.843 207.338 152.185 206.426 152.869 205.718C153.553 205.01 154.453 204.656 155.569 204.656C156.685 204.656 157.585 205.01 158.269 205.718C158.965 206.414 159.313 207.32 159.313 208.436ZM153.607 208.472C153.607 209.132 153.793 209.672 154.165 210.092C154.537 210.512 155.017 210.722 155.605 210.722C156.193 210.722 156.661 210.5 157.009 210.056C157.369 209.6 157.549 209.066 157.549 208.454C157.549 207.83 157.369 207.296 157.009 206.852C156.649 206.396 156.175 206.168 155.587 206.168C155.011 206.168 154.537 206.384 154.165 206.816C153.793 207.248 153.607 207.8 153.607 208.472ZM162.021 205.628C162.465 204.98 163.161 204.656 164.109 204.656C164.409 204.656 164.685 204.716 164.937 204.836L164.721 206.42C164.457 206.252 164.169 206.168 163.857 206.168C162.633 206.168 162.021 207.044 162.021 208.796V212H160.275V204.89H162.021V205.628ZM173.737 212H171.991V206.456H171.145V205.034H171.991V202.478H173.737V205.034H175.123V206.456H173.737V212ZM177.314 199.706V205.484C177.77 204.932 178.496 204.656 179.492 204.656C180.236 204.656 180.83 204.944 181.274 205.52C181.718 206.096 181.94 206.81 181.94 207.662V212H180.212V208.238C180.212 206.738 179.75 205.988 178.826 205.988C177.818 205.988 177.314 206.816 177.314 208.472V212H175.568V199.706H177.314ZM184.74 208.616C184.74 209.3 184.89 209.864 185.19 210.308C185.49 210.752 185.904 210.974 186.432 210.974C187.26 210.974 187.788 210.566 188.016 209.75L189.672 210.02C189.132 211.496 188.052 212.234 186.432 212.234C185.352 212.234 184.488 211.892 183.84 211.208C183.204 210.512 182.886 209.612 182.886 208.508C182.886 207.344 183.192 206.414 183.804 205.718C184.428 205.01 185.268 204.656 186.324 204.656C187.392 204.656 188.22 204.992 188.808 205.664C189.408 206.324 189.708 207.23 189.708 208.382V208.616H184.74ZM188.088 207.644C188.088 207.152 187.932 206.72 187.62 206.348C187.32 205.976 186.924 205.79 186.432 205.79C185.952 205.79 185.556 205.988 185.244 206.384C184.944 206.768 184.794 207.188 184.794 207.644H188.088ZM30.682 230H28.936V224.456H28.108V223.034H28.936V220.802C28.936 218.63 29.782 217.544 31.474 217.544C31.822 217.544 32.146 217.622 32.446 217.778V219.29C32.134 219.134 31.858 219.056 31.618 219.056C31.294 219.056 31.054 219.176 30.898 219.416C30.754 219.644 30.682 220.202 30.682 221.09V223.034H32.446V224.456H30.682V230ZM34.8605 223.628C35.3045 222.98 36.0005 222.656 36.9485 222.656C37.2485 222.656 37.5245 222.716 37.7765 222.836L37.5605 224.42C37.2965 224.252 37.0085 224.168 36.6965 224.168C35.4725 224.168 34.8605 225.044 34.8605 226.796V230H33.1145V222.89H34.8605V223.628ZM45.1551 230H43.4451V229.352C42.9411 229.94 42.1911 230.234 41.1951 230.234C40.1991 230.234 39.4011 229.85 38.8011 229.082C38.2131 228.314 37.9191 227.414 37.9191 226.382C37.9191 225.35 38.2191 224.474 38.8191 223.754C39.4311 223.022 40.2111 222.656 41.1591 222.656C42.1671 222.656 42.9291 222.956 43.4451 223.556V222.89H45.1551V230ZM43.6431 226.436C43.6431 225.776 43.4571 225.236 43.0851 224.816C42.7131 224.384 42.2331 224.168 41.6451 224.168C41.0691 224.168 40.5951 224.378 40.2231 224.798C39.8631 225.206 39.6831 225.752 39.6831 226.436C39.6831 227.12 39.8691 227.672 40.2411 228.092C40.6131 228.512 41.0931 228.722 41.6811 228.722C42.2691 228.722 42.7431 228.518 43.1031 228.11C43.4631 227.702 43.6431 227.144 43.6431 226.436ZM48.7565 219.902C48.7565 220.178 48.6545 220.418 48.4505 220.622C48.2465 220.826 48.0065 220.928 47.7305 220.928C47.4545 220.928 47.2145 220.826 47.0105 220.622C46.8065 220.418 46.7045 220.178 46.7045 219.902C46.7045 219.626 46.8065 219.386 47.0105 219.182C47.2145 218.978 47.4545 218.876 47.7305 218.876C48.0065 218.876 48.2465 218.978 48.4505 219.182C48.6545 219.386 48.7565 219.626 48.7565 219.902ZM48.6125 230H46.8665V222.89H48.6125V230ZM52.1784 230H50.4324V217.706H52.1784V230ZM55.8933 230H54.1473V224.456H53.3013V223.034H54.1473V220.478H55.8933V223.034H57.2793V224.456H55.8933V230ZM56.8959 222.89H58.9119L60.7659 227.156L62.7099 222.89H64.6899L59.6499 232.97H57.7059L59.9019 228.902L56.8959 222.89ZM73.0226 223.538C73.5266 222.95 74.2766 222.656 75.2726 222.656C76.2086 222.656 76.9826 223.028 77.5946 223.772C78.2186 224.516 78.5306 225.392 78.5306 226.4C78.5306 227.492 78.2246 228.404 77.6126 229.136C77.0006 229.868 76.2086 230.234 75.2366 230.234C74.1926 230.234 73.4666 229.934 73.0586 229.334L73.0226 233.006H71.2766V222.89H73.0226V223.538ZM76.7486 226.436C76.7486 225.824 76.5746 225.296 76.2266 224.852C75.8786 224.396 75.3986 224.168 74.7866 224.168C74.2226 224.168 73.7546 224.396 73.3826 224.852C73.0106 225.308 72.8246 225.836 72.8246 226.436C72.8246 227.024 73.0226 227.552 73.4186 228.02C73.8146 228.488 74.2706 228.722 74.7866 228.722C75.3986 228.722 75.8786 228.506 76.2266 228.074C76.5746 227.642 76.7486 227.096 76.7486 226.436ZM86.452 226.436C86.452 227.552 86.11 228.464 85.426 229.172C84.742 229.88 83.842 230.234 82.726 230.234C81.622 230.234 80.722 229.88 80.026 229.172C79.33 228.464 78.982 227.558 78.982 226.454C78.982 225.338 79.324 224.426 80.008 223.718C80.692 223.01 81.592 222.656 82.708 222.656C83.824 222.656 84.724 223.01 85.408 223.718C86.104 224.414 86.452 225.32 86.452 226.436ZM80.746 226.472C80.746 227.132 80.932 227.672 81.304 228.092C81.676 228.512 82.156 228.722 82.744 228.722C83.332 228.722 83.8 228.5 84.148 228.056C84.508 227.6 84.688 227.066 84.688 226.454C84.688 225.83 84.508 225.296 84.148 224.852C83.788 224.396 83.314 224.168 82.726 224.168C82.15 224.168 81.676 224.384 81.304 224.816C80.932 225.248 80.746 225.8 80.746 226.472ZM89.1594 223.538C89.6634 222.95 90.4134 222.656 91.4094 222.656C92.3454 222.656 93.1194 223.028 93.7314 223.772C94.3554 224.516 94.6674 225.392 94.6674 226.4C94.6674 227.492 94.3614 228.404 93.7494 229.136C93.1374 229.868 92.3454 230.234 91.3734 230.234C90.3294 230.234 89.6034 229.934 89.1954 229.334L89.1594 233.006H87.4134V222.89H89.1594V223.538ZM92.8854 226.436C92.8854 225.824 92.7114 225.296 92.3634 224.852C92.0154 224.396 91.5354 224.168 90.9234 224.168C90.3594 224.168 89.8914 224.396 89.5194 224.852C89.1474 225.308 88.9614 225.836 88.9614 226.436C88.9614 227.024 89.1594 227.552 89.5554 228.02C89.9514 228.488 90.4074 228.722 90.9234 228.722C91.5354 228.722 92.0154 228.506 92.3634 228.074C92.7114 227.642 92.8854 227.096 92.8854 226.436ZM97.3148 222.89V226.742C97.3148 228.122 97.7948 228.812 98.7548 228.812C99.7148 228.812 100.195 228.122 100.195 226.742V222.89H101.941V227.066C101.941 229.178 100.879 230.234 98.7548 230.234C96.6308 230.234 95.5688 229.178 95.5688 227.066V222.89H97.3148ZM105.247 230H103.501V217.706H105.247V230ZM113.552 230H111.842V229.352C111.338 229.94 110.588 230.234 109.592 230.234C108.596 230.234 107.798 229.85 107.198 229.082C106.61 228.314 106.316 227.414 106.316 226.382C106.316 225.35 106.616 224.474 107.216 223.754C107.828 223.022 108.608 222.656 109.556 222.656C110.564 222.656 111.326 222.956 111.842 223.556V222.89H113.552V230ZM112.04 226.436C112.04 225.776 111.854 225.236 111.482 224.816C111.11 224.384 110.63 224.168 110.042 224.168C109.466 224.168 108.992 224.378 108.62 224.798C108.26 225.206 108.08 225.752 108.08 226.436C108.08 227.12 108.266 227.672 108.638 228.092C109.01 228.512 109.49 228.722 110.078 228.722C110.666 228.722 111.14 228.518 111.5 228.11C111.86 227.702 112.04 227.144 112.04 226.436ZM117.153 230H115.407V224.456H114.561V223.034H115.407V220.478H117.153V223.034H118.539V224.456H117.153V230ZM121.126 219.902C121.126 220.178 121.024 220.418 120.82 220.622C120.616 220.826 120.376 220.928 120.1 220.928C119.824 220.928 119.584 220.826 119.38 220.622C119.176 220.418 119.074 220.178 119.074 219.902C119.074 219.626 119.176 219.386 119.38 219.182C119.584 218.978 119.824 218.876 120.1 218.876C120.376 218.876 120.616 218.978 120.82 219.182C121.024 219.386 121.126 219.626 121.126 219.902ZM120.982 230H119.236V222.89H120.982V230ZM129.642 226.436C129.642 227.552 129.3 228.464 128.616 229.172C127.932 229.88 127.032 230.234 125.916 230.234C124.812 230.234 123.912 229.88 123.216 229.172C122.52 228.464 122.172 227.558 122.172 226.454C122.172 225.338 122.514 224.426 123.198 223.718C123.882 223.01 124.782 222.656 125.898 222.656C127.014 222.656 127.914 223.01 128.598 223.718C129.294 224.414 129.642 225.32 129.642 226.436ZM123.936 226.472C123.936 227.132 124.122 227.672 124.494 228.092C124.866 228.512 125.346 228.722 125.934 228.722C126.522 228.722 126.99 228.5 127.338 228.056C127.698 227.6 127.878 227.066 127.878 226.454C127.878 225.83 127.698 225.296 127.338 224.852C126.978 224.396 126.504 224.168 125.916 224.168C125.34 224.168 124.866 224.384 124.494 224.816C124.122 225.248 123.936 225.8 123.936 226.472ZM132.349 223.538C132.841 222.95 133.567 222.656 134.527 222.656C136.159 222.656 136.975 223.658 136.975 225.662V230H135.247V226.238C135.247 224.738 134.785 223.988 133.861 223.988C132.853 223.988 132.349 224.792 132.349 226.4V230H130.603V222.89H132.349V223.538ZM141.089 228.974C141.089 229.334 140.963 229.646 140.711 229.91C140.471 230.162 140.171 230.288 139.811 230.288C139.451 230.288 139.145 230.162 138.893 229.91C138.641 229.658 138.515 229.358 138.515 229.01C138.515 228.65 138.641 228.344 138.893 228.092C139.145 227.84 139.445 227.714 139.793 227.714C140.153 227.714 140.459 227.834 140.711 228.074C140.963 228.314 141.089 228.614 141.089 228.974Z" fill="white"/>
<path d="M224.758 292.434V294H217.414L220.186 290.49C221.506 288.858 222.28 287.838 222.508 287.43C222.748 287.01 222.868 286.668 222.868 286.404C222.88 286.332 222.886 286.26 222.886 286.188C222.886 285.708 222.724 285.282 222.4 284.91C222.088 284.538 221.674 284.352 221.158 284.352C220.642 284.352 220.234 284.562 219.934 284.982C219.646 285.402 219.502 285.912 219.502 286.512H217.558C217.558 285.432 217.876 284.544 218.512 283.848C219.16 283.14 220.036 282.786 221.14 282.786C222.136 282.786 222.976 283.122 223.66 283.794C224.344 284.466 224.686 285.306 224.686 286.314C224.686 287.262 223.96 288.582 222.508 290.274L220.654 292.434H224.758ZM233.467 288.546C233.467 290.13 233.119 291.486 232.423 292.614C231.727 293.73 230.767 294.288 229.543 294.288C228.331 294.288 227.377 293.724 226.681 292.596C225.985 291.468 225.637 290.118 225.637 288.546C225.637 286.914 225.985 285.546 226.681 284.442C227.389 283.338 228.349 282.786 229.561 282.786C230.773 282.786 231.727 283.35 232.423 284.478C233.119 285.594 233.467 286.95 233.467 288.546ZM227.437 288.528C227.437 289.632 227.629 290.61 228.013 291.462C228.397 292.302 228.919 292.722 229.579 292.722C230.239 292.722 230.749 292.326 231.109 291.534C231.481 290.742 231.667 289.74 231.667 288.528C231.667 287.412 231.475 286.44 231.091 285.612C230.707 284.772 230.191 284.352 229.543 284.352C228.907 284.352 228.397 284.79 228.013 285.666C227.629 286.53 227.437 287.484 227.437 288.528ZM241.492 292.434V294H234.148L236.92 290.49C238.24 288.858 239.014 287.838 239.242 287.43C239.482 287.01 239.602 286.668 239.602 286.404C239.614 286.332 239.62 286.26 239.62 286.188C239.62 285.708 239.458 285.282 239.134 284.91C238.822 284.538 238.408 284.352 237.892 284.352C237.376 284.352 236.968 284.562 236.668 284.982C236.38 285.402 236.236 285.912 236.236 286.512H234.292C234.292 285.432 234.61 284.544 235.246 283.848C235.894 283.14 236.77 282.786 237.874 282.786C238.87 282.786 239.71 283.122 240.394 283.794C241.078 284.466 241.42 285.306 241.42 286.314C241.42 287.262 240.694 288.582 239.242 290.274L237.388 292.434H241.492ZM250.202 288.546C250.202 290.13 249.854 291.486 249.158 292.614C248.462 293.73 247.502 294.288 246.278 294.288C245.066 294.288 244.112 293.724 243.416 292.596C242.72 291.468 242.372 290.118 242.372 288.546C242.372 286.914 242.72 285.546 243.416 284.442C244.124 283.338 245.084 282.786 246.296 282.786C247.508 282.786 248.462 283.35 249.158 284.478C249.854 285.594 250.202 286.95 250.202 288.546ZM244.172 288.528C244.172 289.632 244.364 290.61 244.748 291.462C245.132 292.302 245.654 292.722 246.314 292.722C246.974 292.722 247.484 292.326 247.844 291.534C248.216 290.742 248.402 289.74 248.402 288.528C248.402 287.412 248.21 286.44 247.826 285.612C247.442 284.772 246.926 284.352 246.278 284.352C245.642 284.352 245.132 284.79 244.748 285.666C244.364 286.53 244.172 287.484 244.172 288.528Z" fill="white"/>
<path d="M72.0512 75.38L66.0582 72.5841L59.8111 76.9585L57.0687 75.7545L63.3159 71.3802L57.3229 68.5843L60.1856 66.5778L66.1786 69.3736L72.4258 64.9992L75.1012 66.2701L68.8407 70.6578L74.8337 73.4403L72.0512 75.38ZM90.873 67.7282L66.6468 56.4378L41.3772 74.0958H41.297L28.7759 82.9515L40.8957 88.6101L53.4167 79.7677L65.5499 85.4263L90.873 67.7282Z" fill="black"/>
<path d="M71.9712 74.6974L65.9915 71.915L59.731 76.2893L57.0555 74.9516L63.3027 70.5772L57.3097 67.7814L60.1056 65.8417L66.0986 68.6375L72.3457 64.2498L75.0881 65.5875L68.8275 69.9619L74.8205 72.7042L71.9712 74.6974ZM90.8732 67.059L66.5801 55.7552L41.3774 73.4132L41.2972 73.4801L28.6958 82.2823L40.829 87.9275L53.4169 79.1253L65.4564 84.7839L90.8732 67.059Z" fill="#171717"/>
<path d="M71.9043 74.0285L65.9113 71.2327L59.6641 75.607L56.9218 74.3362L63.1823 69.9619L57.1893 67.166L60.1055 65.1594L66.0852 67.9553L72.3457 63.5809L75.0212 64.8517L68.774 69.2261L74.8205 72.0219L71.9043 74.0285ZM90.7528 66.3901L66.4999 55.0864L41.2838 72.7443H41.2035L28.6289 81.6001L40.7487 87.2586L53.3233 78.4296L65.4564 84.1016L90.7528 66.3901Z" fill="#2E2E2E"/>
<path d="M71.8374 73.3466L65.8444 70.5641L59.5972 74.9385L56.8549 73.6007L63.102 69.2264L57.1224 66.4305L59.9718 64.4373L65.9648 67.2332L72.2119 62.8454L74.9543 64.1832L68.7071 68.5575L74.6867 71.3534L71.8374 73.3466ZM90.6859 65.7082L66.433 54.3509L41.2169 72.0624L41.1232 72.1292L28.562 80.9315L40.6818 86.5767L53.2564 77.7744L65.3762 83.433L90.6859 65.7082Z" fill="#464646"/>
<path d="M71.7705 72.6778L65.7775 69.8819L59.5303 74.2563L56.788 72.9854L63.0351 68.6111L57.0421 65.8152L59.9049 63.8087L65.8979 66.6045L72.145 62.2301L74.8205 63.501L68.5733 67.8753L74.5529 70.6712L71.7705 72.6778ZM90.619 65.0527L66.3661 53.7356L41.15 71.3936H41.0563L28.4951 80.2493L40.6149 85.9079L53.1761 77.0923L65.3093 82.7374L90.619 65.0527Z" fill="#5D5D5D"/>
<path d="M71.6899 71.9955L65.7103 69.213L59.4497 73.5874L56.7743 72.2496L63.0215 67.8753L57.0285 65.0795L59.8912 63.0862L65.8842 65.8687L72.1447 61.5479L74.8202 62.8856L68.5596 67.2599L74.5526 70.0023L71.6899 71.9955ZM90.5384 64.3571L66.2989 53.0132L41.0694 70.7113L40.9892 70.7782L28.4146 79.5804L40.5477 85.2256L53.1089 76.4233L65.2421 82.0819L90.5384 64.3571Z" fill="#747474"/>
<path d="M71.623 71.3263L65.63 68.5305L59.3828 72.9048L56.6405 71.634L62.9011 67.2596L56.9081 64.4638L59.7708 62.4572L65.7504 65.2531L72.011 60.8787L74.6864 62.1495L68.4927 66.5239L74.4857 69.3197L71.623 71.3263ZM90.4715 63.7147L66.2186 52.3842L41.0025 70.0421H40.9223L28.3477 78.8978L40.4674 84.5564L53.042 75.7542L65.1618 81.3994L90.4715 63.7147Z" fill="#8B8B8B"/>
<path d="M71.623 70.4037L65.63 67.6079L59.3828 72.009L56.6405 70.7381L62.9011 66.3905L56.9081 63.6081L59.7708 61.6015L65.7504 64.3973L72.011 59.9828L74.6864 61.2537L68.4392 65.628L74.4322 68.4239L71.623 70.4037ZM90.4715 62.7921L66.2186 51.4749L41.0025 69.1462H40.9223L28.3477 78.002L40.4674 83.6605L53.042 74.8583L65.1618 80.5035L90.4715 62.7921Z" fill="#A2A2A2"/>
<path d="M71.4892 69.9756L65.4561 67.1797L59.2089 71.5541L56.4666 70.2832L62.7806 65.9089L56.801 63.113L59.6504 61.1064L65.6434 63.9023L71.8905 59.5279L74.6329 60.8657L68.3857 65.24L74.3653 68.0359L71.4892 69.9756ZM90.3378 62.3773L66.0848 51.0334L40.8687 68.6913H40.7751L28.2139 77.5471L40.3336 83.2056L52.9082 74.4168L65.028 80.062L90.3378 62.3773Z" fill="#B9B9B9"/>
<path d="M71.4092 69.2933L65.4563 66.4974L59.169 70.8851L56.4935 69.5474L62.7407 65.1731L56.6942 62.3772L59.5569 60.384L65.5499 63.1665L71.7971 58.7921L74.4725 60.1298L68.212 64.5042L74.205 67.3L71.4092 69.2933ZM90.2577 61.6548L66.0181 50.3377L40.7887 68.009H40.7084L28.1338 76.8781L40.2669 82.5233L52.8282 73.7211L64.9613 79.3797L90.2577 61.6548Z" fill="#D1D1D1"/>
<path d="M71.3423 68.6241L65.3626 65.8283L59.1021 70.2026L56.4266 68.9318L62.6738 64.5574L56.6273 61.7616L59.49 59.7015L65.4563 62.5508L71.7168 58.1765L74.3923 59.4473L68.1451 63.8217L74.1381 66.6175L71.3423 68.6241ZM90.1908 61.0392L65.9512 49.6819L40.7218 67.3399H40.6415L28.0669 76.1956L40.2 81.8542L52.7613 73.0787L64.8811 78.7239L90.1908 61.0392Z" fill="#E8E8E8"/>
<path d="M71.2754 67.9422L65.2824 65.1463L59.0352 69.5341L56.2929 68.1963L62.5534 63.822L56.5604 61.0395L59.4098 59.0463L65.4563 61.8689L71.7034 57.4945L74.3789 58.8323L68.1317 63.1531L74.1247 65.949L71.2754 67.9422ZM90.1239 60.3038L65.871 49L40.6549 66.658L40.5746 66.7248L28 75.5271L40.1198 81.1723L52.6944 72.37L64.8142 78.0286L90.1239 60.3038Z" fill="white"/>
</svg>
