<svg width="270" height="316" viewBox="0 0 270 316" fill="none" xmlns="http://www.w3.org/2000/svg">
<rect width="270" height="316" rx="11" transform="matrix(1 0 0 -1 0 316)" fill="black"/>
<path d="M32.472 140H30.24V127.52H27V125.432H35.712V127.52H32.472V140ZM45.6548 140H43.3748V139.136C42.7028 139.92 41.7028 140.312 40.3748 140.312C39.0468 140.312 37.9828 139.8 37.1828 138.776C36.3988 137.752 36.0068 136.552 36.0068 135.176C36.0068 133.8 36.4068 132.632 37.2068 131.672C38.0228 130.696 39.0628 130.208 40.3268 130.208C41.6708 130.208 42.6868 130.608 43.3748 131.408V130.52H45.6548V140ZM43.6388 135.248C43.6388 134.368 43.3908 133.648 42.8948 133.088C42.3988 132.512 41.7588 132.224 40.9748 132.224C40.2068 132.224 39.5748 132.504 39.0788 133.064C38.5988 133.608 38.3588 134.336 38.3588 135.248C38.3588 136.16 38.6068 136.896 39.1028 137.456C39.5988 138.016 40.2388 138.296 41.0228 138.296C41.8068 138.296 42.4388 138.024 42.9188 137.48C43.3988 136.936 43.6388 136.192 43.6388 135.248ZM49.9286 131.384C50.6006 130.6 51.6006 130.208 52.9286 130.208C54.1766 130.208 55.2086 130.704 56.0246 131.696C56.8566 132.688 57.2726 133.856 57.2726 135.2C57.2726 136.656 56.8646 137.872 56.0486 138.848C55.2326 139.824 54.1766 140.312 52.8806 140.312C51.4886 140.312 50.5206 139.912 49.9766 139.112L49.9286 144.008H47.6006V130.52H49.9286V131.384ZM54.8966 135.248C54.8966 134.432 54.6646 133.728 54.2006 133.136C53.7366 132.528 53.0966 132.224 52.2806 132.224C51.5286 132.224 50.9046 132.528 50.4086 133.136C49.9126 133.744 49.6646 134.448 49.6646 135.248C49.6646 136.032 49.9286 136.736 50.4566 137.36C50.9846 137.984 51.5926 138.296 52.2806 138.296C53.0966 138.296 53.7366 138.008 54.2006 137.432C54.6646 136.856 54.8966 136.128 54.8966 135.248ZM60.3225 135.488C60.3225 136.4 60.5225 137.152 60.9225 137.744C61.3225 138.336 61.8745 138.632 62.5785 138.632C63.6825 138.632 64.3865 138.088 64.6905 137L66.8985 137.36C66.1785 139.328 64.7385 140.312 62.5785 140.312C61.1385 140.312 59.9865 139.856 59.1225 138.944C58.2745 138.016 57.8505 136.816 57.8505 135.344C57.8505 133.792 58.2585 132.552 59.0745 131.624C59.9065 130.68 61.0265 130.208 62.4345 130.208C63.8585 130.208 64.9625 130.656 65.7465 131.552C66.5465 132.432 66.9465 133.64 66.9465 135.176V135.488H60.3225ZM64.7865 134.192C64.7865 133.536 64.5785 132.96 64.1625 132.464C63.7625 131.968 63.2345 131.72 62.5785 131.72C61.9385 131.72 61.4105 131.984 60.9945 132.512C60.5945 133.024 60.3945 133.584 60.3945 134.192H64.7865ZM70.5302 131.504C71.1222 130.64 72.0502 130.208 73.3142 130.208C73.7142 130.208 74.0822 130.288 74.4182 130.448L74.1302 132.56C73.7782 132.336 73.3942 132.224 72.9782 132.224C71.3462 132.224 70.5302 133.392 70.5302 135.728V140H68.2022V130.52H70.5302V131.504ZM84.5923 135.248C84.5923 136.736 84.1363 137.952 83.2243 138.896C82.3123 139.84 81.1123 140.312 79.6243 140.312C78.1523 140.312 76.9523 139.84 76.0243 138.896C75.0963 137.952 74.6323 136.744 74.6323 135.272C74.6323 133.784 75.0883 132.568 76.0003 131.624C76.9123 130.68 78.1123 130.208 79.6003 130.208C81.0883 130.208 82.2883 130.68 83.2003 131.624C84.1283 132.552 84.5923 133.76 84.5923 135.248ZM76.9843 135.296C76.9843 136.176 77.2323 136.896 77.7283 137.456C78.2243 138.016 78.8643 138.296 79.6483 138.296C80.4323 138.296 81.0563 138 81.5203 137.408C82.0003 136.8 82.2403 136.088 82.2403 135.272C82.2403 134.44 82.0003 133.728 81.5203 133.136C81.0403 132.528 80.4083 132.224 79.6243 132.224C78.8563 132.224 78.2243 132.512 77.7283 133.088C77.2323 133.664 76.9843 134.4 76.9843 135.296ZM88.3941 140H86.0661V123.608H88.3941V140ZM99.8033 135.248C99.8033 136.736 99.3473 137.952 98.4353 138.896C97.5233 139.84 96.3233 140.312 94.8353 140.312C93.3633 140.312 92.1633 139.84 91.2353 138.896C90.3073 137.952 89.8433 136.744 89.8433 135.272C89.8433 133.784 90.2993 132.568 91.2113 131.624C92.1233 130.68 93.3233 130.208 94.8113 130.208C96.2993 130.208 97.4993 130.68 98.4113 131.624C99.3393 132.552 99.8033 133.76 99.8033 135.248ZM92.1953 135.296C92.1953 136.176 92.4433 136.896 92.9393 137.456C93.4353 138.016 94.0753 138.296 94.8593 138.296C95.6433 138.296 96.2673 138 96.7313 137.408C97.2113 136.8 97.4513 136.088 97.4513 135.272C97.4513 134.44 97.2113 133.728 96.7313 133.136C96.2513 132.528 95.6193 132.224 94.8353 132.224C94.0673 132.224 93.4353 132.512 92.9393 133.088C92.4433 133.664 92.1953 134.4 92.1953 135.296ZM110.109 139.184C110.109 142.432 108.597 144.056 105.573 144.056C104.229 144.056 103.093 143.688 102.165 142.952C101.237 142.232 100.773 141.288 100.773 140.12H103.245C103.245 140.584 103.477 141.04 103.941 141.488C104.405 141.936 104.925 142.16 105.501 142.16C107.021 142.16 107.781 141.248 107.781 139.424V138.824C107.125 139.656 106.125 140.072 104.781 140.072C103.453 140.072 102.405 139.608 101.637 138.68C100.885 137.752 100.509 136.616 100.509 135.272C100.509 133.816 100.917 132.6 101.733 131.624C102.549 130.648 103.605 130.16 104.901 130.16C106.213 130.16 107.173 130.568 107.781 131.384V130.472H110.109V139.184ZM108.117 135.056C108.117 134.192 107.877 133.496 107.397 132.968C106.917 132.44 106.285 132.176 105.501 132.176C104.717 132.176 104.077 132.464 103.581 133.04C103.101 133.616 102.861 134.344 102.861 135.224C102.861 137.112 103.741 138.056 105.501 138.056C106.301 138.056 106.933 137.776 107.397 137.216C107.877 136.64 108.117 135.92 108.117 135.056ZM110.833 130.52H113.521L115.993 136.208L118.585 130.52H121.225L114.505 143.96H111.913L114.841 138.536L110.833 130.52Z" fill="white"/>
<path d="M30.808 191.552L29.836 194H27.874L32.122 182.786H33.778L37.918 194H35.938L35.02 191.552H30.808ZM32.842 185.468L31.258 190.094H34.516L32.842 185.468ZM47.2403 191.534L49.1303 186.656H49.7603L51.7403 191.516L53.5043 186.89H55.4303L52.1183 194.144H51.2363L49.5983 189.59L47.7263 194.144H46.8263L43.5683 186.89H45.4943L47.2403 191.534ZM57.2282 190.616C57.2282 191.3 57.3782 191.864 57.6782 192.308C57.9782 192.752 58.3922 192.974 58.9202 192.974C59.7482 192.974 60.2762 192.566 60.5042 191.75L62.1602 192.02C61.6202 193.496 60.5402 194.234 58.9202 194.234C57.8402 194.234 56.9762 193.892 56.3282 193.208C55.6922 192.512 55.3742 191.612 55.3742 190.508C55.3742 189.344 55.6802 188.414 56.2922 187.718C56.9162 187.01 57.7562 186.656 58.8122 186.656C59.8802 186.656 60.7082 186.992 61.2962 187.664C61.8962 188.324 62.1962 189.23 62.1962 190.382V190.616H57.2282ZM60.5762 189.644C60.5762 189.152 60.4202 188.72 60.1082 188.348C59.8082 187.976 59.4122 187.79 58.9202 187.79C58.4402 187.79 58.0442 187.988 57.7322 188.384C57.4322 188.768 57.2822 189.188 57.2822 189.644H60.5762ZM63.138 181.706H64.884V187.538C65.388 186.95 66.138 186.656 67.134 186.656C68.07 186.656 68.844 187.028 69.456 187.772C70.08 188.516 70.392 189.392 70.392 190.4C70.392 191.492 70.086 192.404 69.474 193.136C68.862 193.868 68.07 194.234 67.098 194.234C66.054 194.234 65.328 193.934 64.92 193.334L64.884 194H63.138V181.706ZM68.61 190.436C68.61 189.836 68.424 189.308 68.052 188.852C67.68 188.396 67.206 188.168 66.63 188.168C66.054 188.168 65.586 188.396 65.226 188.852C64.866 189.296 64.686 189.83 64.686 190.454C64.686 191.066 64.872 191.6 65.244 192.056C65.628 192.5 66.096 192.722 66.648 192.722C67.248 192.722 67.722 192.506 68.07 192.074C68.43 191.63 68.61 191.084 68.61 190.436ZM74.7674 188.528V190.184H71.2394V188.528H74.7674ZM76.1106 181.706H77.8566V187.538C78.3606 186.95 79.1106 186.656 80.1066 186.656C81.0426 186.656 81.8166 187.028 82.4286 187.772C83.0526 188.516 83.3646 189.392 83.3646 190.4C83.3646 191.492 83.0586 192.404 82.4466 193.136C81.8346 193.868 81.0426 194.234 80.0706 194.234C79.0266 194.234 78.3006 193.934 77.8926 193.334L77.8566 194H76.1106V181.706ZM81.5826 190.436C81.5826 189.836 81.3966 189.308 81.0246 188.852C80.6526 188.396 80.1786 188.168 79.6026 188.168C79.0266 188.168 78.5586 188.396 78.1986 188.852C77.8386 189.296 77.6586 189.83 77.6586 190.454C77.6586 191.066 77.8446 191.6 78.2166 192.056C78.6006 192.5 79.0686 192.722 79.6206 192.722C80.2206 192.722 80.6946 192.506 81.0426 192.074C81.4026 191.63 81.5826 191.084 81.5826 190.436ZM91.034 194H89.324V193.352C88.82 193.94 88.07 194.234 87.074 194.234C86.078 194.234 85.28 193.85 84.68 193.082C84.092 192.314 83.798 191.414 83.798 190.382C83.798 189.35 84.098 188.474 84.698 187.754C85.31 187.022 86.09 186.656 87.038 186.656C88.046 186.656 88.808 186.956 89.324 187.556V186.89H91.034V194ZM89.522 190.436C89.522 189.776 89.336 189.236 88.964 188.816C88.592 188.384 88.112 188.168 87.524 188.168C86.948 188.168 86.474 188.378 86.102 188.798C85.742 189.206 85.562 189.752 85.562 190.436C85.562 191.12 85.748 191.672 86.12 192.092C86.492 192.512 86.972 192.722 87.56 192.722C88.148 192.722 88.622 192.518 88.982 192.11C89.342 191.702 89.522 191.144 89.522 190.436ZM96.2914 188.366C95.9074 188.006 95.5054 187.826 95.0854 187.826C94.4494 187.826 94.1314 188.114 94.1314 188.69C94.1314 189.014 94.4194 189.278 94.9954 189.482C96.0514 189.866 96.7054 190.22 96.9574 190.544C97.2094 190.856 97.3354 191.246 97.3354 191.714C97.3354 192.482 97.0654 193.094 96.5254 193.55C95.9974 194.006 95.3434 194.234 94.5634 194.234C93.5554 194.234 92.7214 193.838 92.0614 193.046L92.8354 192.056C93.4354 192.656 93.9874 192.956 94.4914 192.956C95.2234 192.956 95.5894 192.602 95.5894 191.894C95.5894 191.534 95.3974 191.27 95.0134 191.102C94.6294 190.922 94.3354 190.79 94.1314 190.706C93.0274 190.226 92.4754 189.644 92.4754 188.96C92.4754 188.276 92.6794 187.724 93.0874 187.304C93.5074 186.872 94.0534 186.656 94.7254 186.656C95.6854 186.656 96.4474 186.902 97.0114 187.394L96.2914 188.366ZM99.7848 190.616C99.7848 191.3 99.9348 191.864 100.235 192.308C100.535 192.752 100.949 192.974 101.477 192.974C102.305 192.974 102.833 192.566 103.061 191.75L104.717 192.02C104.177 193.496 103.097 194.234 101.477 194.234C100.397 194.234 99.5328 193.892 98.8848 193.208C98.2488 192.512 97.9308 191.612 97.9308 190.508C97.9308 189.344 98.2368 188.414 98.8488 187.718C99.4728 187.01 100.313 186.656 101.369 186.656C102.437 186.656 103.265 186.992 103.853 187.664C104.453 188.324 104.753 189.23 104.753 190.382V190.616H99.7848ZM103.133 189.644C103.133 189.152 102.977 188.72 102.665 188.348C102.365 187.976 101.969 187.79 101.477 187.79C100.997 187.79 100.601 187.988 100.289 188.384C99.9888 188.768 99.8388 189.188 99.8388 189.644H103.133ZM110.699 193.334C110.231 193.934 109.493 194.234 108.485 194.234C107.477 194.234 106.673 193.85 106.073 193.082C105.485 192.314 105.191 191.414 105.191 190.382C105.191 189.35 105.491 188.474 106.091 187.754C106.703 187.022 107.483 186.656 108.431 186.656C109.439 186.656 110.183 186.95 110.663 187.538L110.699 181.706H112.445V194H110.699V193.334ZM110.897 190.436C110.897 189.812 110.705 189.278 110.321 188.834C109.937 188.39 109.475 188.168 108.935 188.168C108.395 188.168 107.927 188.39 107.531 188.834C107.147 189.266 106.955 189.806 106.955 190.454C106.955 191.09 107.141 191.63 107.513 192.074C107.897 192.506 108.377 192.722 108.953 192.722C109.529 192.722 109.997 192.512 110.357 192.092C110.717 191.66 110.897 191.108 110.897 190.436ZM122.04 194H120.294V188.456H119.448V187.034H120.294V184.478H122.04V187.034H123.426V188.456H122.04V194ZM130.854 190.436C130.854 191.552 130.512 192.464 129.828 193.172C129.144 193.88 128.244 194.234 127.128 194.234C126.024 194.234 125.124 193.88 124.428 193.172C123.732 192.464 123.384 191.558 123.384 190.454C123.384 189.338 123.726 188.426 124.41 187.718C125.094 187.01 125.994 186.656 127.11 186.656C128.226 186.656 129.126 187.01 129.81 187.718C130.506 188.414 130.854 189.32 130.854 190.436ZM125.148 190.472C125.148 191.132 125.334 191.672 125.706 192.092C126.078 192.512 126.558 192.722 127.146 192.722C127.734 192.722 128.202 192.5 128.55 192.056C128.91 191.6 129.09 191.066 129.09 190.454C129.09 189.83 128.91 189.296 128.55 188.852C128.19 188.396 127.716 188.168 127.128 188.168C126.552 188.168 126.078 188.384 125.706 188.816C125.334 189.248 125.148 189.8 125.148 190.472ZM138.8 190.436C138.8 191.552 138.458 192.464 137.774 193.172C137.09 193.88 136.19 194.234 135.074 194.234C133.97 194.234 133.07 193.88 132.374 193.172C131.678 192.464 131.33 191.558 131.33 190.454C131.33 189.338 131.672 188.426 132.356 187.718C133.04 187.01 133.94 186.656 135.056 186.656C136.172 186.656 137.072 187.01 137.756 187.718C138.452 188.414 138.8 189.32 138.8 190.436ZM133.094 190.472C133.094 191.132 133.28 191.672 133.652 192.092C134.024 192.512 134.504 192.722 135.092 192.722C135.68 192.722 136.148 192.5 136.496 192.056C136.856 191.6 137.036 191.066 137.036 190.454C137.036 189.83 136.856 189.296 136.496 188.852C136.136 188.396 135.662 188.168 135.074 188.168C134.498 188.168 134.024 188.384 133.652 188.816C133.28 189.248 133.094 189.8 133.094 190.472ZM141.651 194H139.905V181.706H141.651V194ZM151.378 194H149.632V188.456H148.786V187.034H149.632V184.478H151.378V187.034H152.764V188.456H151.378V194ZM160.192 190.436C160.192 191.552 159.85 192.464 159.166 193.172C158.482 193.88 157.582 194.234 156.466 194.234C155.362 194.234 154.462 193.88 153.766 193.172C153.07 192.464 152.722 191.558 152.722 190.454C152.722 189.338 153.064 188.426 153.748 187.718C154.432 187.01 155.332 186.656 156.448 186.656C157.564 186.656 158.464 187.01 159.148 187.718C159.844 188.414 160.192 189.32 160.192 190.436ZM154.486 190.472C154.486 191.132 154.672 191.672 155.044 192.092C155.416 192.512 155.896 192.722 156.484 192.722C157.072 192.722 157.54 192.5 157.888 192.056C158.248 191.6 158.428 191.066 158.428 190.454C158.428 189.83 158.248 189.296 157.888 188.852C157.528 188.396 157.054 188.168 156.466 188.168C155.89 188.168 155.416 188.384 155.044 188.816C154.672 189.248 154.486 189.8 154.486 190.472ZM168.911 181.706V187.484C169.367 186.932 170.093 186.656 171.089 186.656C171.833 186.656 172.427 186.944 172.871 187.52C173.315 188.096 173.537 188.81 173.537 189.662V194H171.809V190.238C171.809 188.738 171.347 187.988 170.423 187.988C169.415 187.988 168.911 188.816 168.911 190.472V194H167.165V181.706H168.911ZM176.338 190.616C176.338 191.3 176.488 191.864 176.788 192.308C177.088 192.752 177.502 192.974 178.03 192.974C178.858 192.974 179.386 192.566 179.614 191.75L181.27 192.02C180.73 193.496 179.65 194.234 178.03 194.234C176.95 194.234 176.086 193.892 175.438 193.208C174.802 192.512 174.484 191.612 174.484 190.508C174.484 189.344 174.79 188.414 175.402 187.718C176.026 187.01 176.866 186.656 177.922 186.656C178.99 186.656 179.818 186.992 180.406 187.664C181.006 188.324 181.306 189.23 181.306 190.382V190.616H176.338ZM179.686 189.644C179.686 189.152 179.53 188.72 179.218 188.348C178.918 187.976 178.522 187.79 178.03 187.79C177.55 187.79 177.154 187.988 176.842 188.384C176.542 188.768 176.392 189.188 176.392 189.644H179.686ZM184.137 194H182.391V181.706H184.137V194ZM187.456 187.538C187.96 186.95 188.71 186.656 189.706 186.656C190.642 186.656 191.416 187.028 192.028 187.772C192.652 188.516 192.964 189.392 192.964 190.4C192.964 191.492 192.658 192.404 192.046 193.136C191.434 193.868 190.642 194.234 189.67 194.234C188.626 194.234 187.9 193.934 187.492 193.334L187.456 197.006H185.71V186.89H187.456V187.538ZM191.182 190.436C191.182 189.824 191.008 189.296 190.66 188.852C190.312 188.396 189.832 188.168 189.22 188.168C188.656 188.168 188.188 188.396 187.816 188.852C187.444 189.308 187.258 189.836 187.258 190.436C187.258 191.024 187.456 191.552 187.852 192.02C188.248 192.488 188.704 192.722 189.22 192.722C189.832 192.722 190.312 192.506 190.66 192.074C191.008 191.642 191.182 191.096 191.182 190.436ZM33.562 206.744C33.118 206.3 32.62 206.078 32.068 206.078C31.42 206.078 30.91 206.312 30.538 206.78C30.166 207.248 29.98 207.824 29.98 208.508C29.98 209.18 30.19 209.732 30.61 210.164C31.03 210.596 31.54 210.812 32.14 210.812C32.656 210.812 33.13 210.584 33.562 210.128V211.802C33.058 212.09 32.476 212.234 31.816 212.234C30.784 212.234 29.926 211.868 29.242 211.136C28.558 210.404 28.216 209.51 28.216 208.454C28.216 207.398 28.564 206.504 29.26 205.772C29.968 205.028 30.85 204.656 31.906 204.656C32.53 204.656 33.082 204.806 33.562 205.106V206.744ZM36.7096 212H34.9636V199.706H36.7096V212ZM40.4245 201.902C40.4245 202.178 40.3225 202.418 40.1185 202.622C39.9145 202.826 39.6745 202.928 39.3985 202.928C39.1225 202.928 38.8825 202.826 38.6785 202.622C38.4745 202.418 38.3725 202.178 38.3725 201.902C38.3725 201.626 38.4745 201.386 38.6785 201.182C38.8825 200.978 39.1225 200.876 39.3985 200.876C39.6745 200.876 39.9145 200.978 40.1185 201.182C40.3225 201.386 40.4245 201.626 40.4245 201.902ZM40.2805 212H38.5345V204.89H40.2805V212ZM43.7023 205.538C44.1943 204.95 44.9203 204.656 45.8803 204.656C47.5123 204.656 48.3283 205.658 48.3283 207.662V212H46.6003V208.238C46.6003 206.738 46.1383 205.988 45.2143 205.988C44.2063 205.988 43.7023 206.792 43.7023 208.4V212H41.9563V204.89H43.7023V205.538ZM51.9206 201.902C51.9206 202.178 51.8186 202.418 51.6146 202.622C51.4106 202.826 51.1706 202.928 50.8946 202.928C50.6186 202.928 50.3786 202.826 50.1746 202.622C49.9706 202.418 49.8686 202.178 49.8686 201.902C49.8686 201.626 49.9706 201.386 50.1746 201.182C50.3786 200.978 50.6186 200.876 50.8946 200.876C51.1706 200.876 51.4106 200.978 51.6146 201.182C51.8186 201.386 51.9206 201.626 51.9206 201.902ZM51.7766 212H50.0306V204.89H51.7766V212ZM58.2944 206.744C57.8504 206.3 57.3524 206.078 56.8004 206.078C56.1524 206.078 55.6424 206.312 55.2704 206.78C54.8984 207.248 54.7124 207.824 54.7124 208.508C54.7124 209.18 54.9224 209.732 55.3424 210.164C55.7624 210.596 56.2724 210.812 56.8724 210.812C57.3884 210.812 57.8624 210.584 58.2944 210.128V211.802C57.7904 212.09 57.2084 212.234 56.5484 212.234C55.5164 212.234 54.6584 211.868 53.9744 211.136C53.2904 210.404 52.9484 209.51 52.9484 208.454C52.9484 207.398 53.2964 206.504 53.9924 205.772C54.7004 205.028 55.5824 204.656 56.6384 204.656C57.2624 204.656 57.8144 204.806 58.2944 205.106V206.744ZM61.694 201.902C61.694 202.178 61.592 202.418 61.388 202.622C61.184 202.826 60.944 202.928 60.668 202.928C60.392 202.928 60.152 202.826 59.948 202.622C59.744 202.418 59.642 202.178 59.642 201.902C59.642 201.626 59.744 201.386 59.948 201.182C60.152 200.978 60.392 200.876 60.668 200.876C60.944 200.876 61.184 200.978 61.388 201.182C61.592 201.386 61.694 201.626 61.694 201.902ZM61.55 212H59.804V204.89H61.55V212ZM69.9579 212H68.2479V211.352C67.7439 211.94 66.9939 212.234 65.9979 212.234C65.0019 212.234 64.2039 211.85 63.6039 211.082C63.0159 210.314 62.7219 209.414 62.7219 208.382C62.7219 207.35 63.0219 206.474 63.6219 205.754C64.2339 205.022 65.0139 204.656 65.9619 204.656C66.9699 204.656 67.7319 204.956 68.2479 205.556V204.89H69.9579V212ZM68.4459 208.436C68.4459 207.776 68.2599 207.236 67.8879 206.816C67.5159 206.384 67.0359 206.168 66.4479 206.168C65.8719 206.168 65.3979 206.378 65.0259 206.798C64.6659 207.206 64.4859 207.752 64.4859 208.436C64.4859 209.12 64.6719 209.672 65.0439 210.092C65.4159 210.512 65.8959 210.722 66.4839 210.722C67.0719 210.722 67.5459 210.518 67.9059 210.11C68.2659 209.702 68.4459 209.144 68.4459 208.436ZM73.1633 205.538C73.6553 204.95 74.3813 204.656 75.3413 204.656C76.9733 204.656 77.7893 205.658 77.7893 207.662V212H76.0613V208.238C76.0613 206.738 75.5993 205.988 74.6753 205.988C73.6673 205.988 73.1633 206.792 73.1633 208.4V212H71.4173V204.89H73.1633V205.538ZM83.0375 206.366C82.6535 206.006 82.2515 205.826 81.8315 205.826C81.1955 205.826 80.8775 206.114 80.8775 206.69C80.8775 207.014 81.1655 207.278 81.7415 207.482C82.7975 207.866 83.4515 208.22 83.7035 208.544C83.9555 208.856 84.0815 209.246 84.0815 209.714C84.0815 210.482 83.8115 211.094 83.2715 211.55C82.7435 212.006 82.0895 212.234 81.3095 212.234C80.3015 212.234 79.4675 211.838 78.8075 211.046L79.5815 210.056C80.1815 210.656 80.7335 210.956 81.2375 210.956C81.9695 210.956 82.3355 210.602 82.3355 209.894C82.3355 209.534 82.1435 209.27 81.7595 209.102C81.3755 208.922 81.0815 208.79 80.8775 208.706C79.7735 208.226 79.2215 207.644 79.2215 206.96C79.2215 206.276 79.4255 205.724 79.8335 205.304C80.2535 204.872 80.7995 204.656 81.4715 204.656C82.4315 204.656 83.1935 204.902 83.7575 205.394L83.0375 206.366ZM96.0347 206.744C95.5907 206.3 95.0927 206.078 94.5407 206.078C93.8927 206.078 93.3827 206.312 93.0107 206.78C92.6387 207.248 92.4527 207.824 92.4527 208.508C92.4527 209.18 92.6627 209.732 93.0827 210.164C93.5027 210.596 94.0127 210.812 94.6127 210.812C95.1287 210.812 95.6027 210.584 96.0347 210.128V211.802C95.5307 212.09 94.9487 212.234 94.2887 212.234C93.2567 212.234 92.3987 211.868 91.7147 211.136C91.0307 210.404 90.6887 209.51 90.6887 208.454C90.6887 207.398 91.0367 206.504 91.7327 205.772C92.4407 205.028 93.3227 204.656 94.3787 204.656C95.0027 204.656 95.5547 204.806 96.0347 205.106V206.744ZM99.0383 205.628C99.4823 204.98 100.178 204.656 101.126 204.656C101.426 204.656 101.702 204.716 101.954 204.836L101.738 206.42C101.474 206.252 101.186 206.168 100.874 206.168C99.6503 206.168 99.0383 207.044 99.0383 208.796V212H97.2923V204.89H99.0383V205.628ZM103.951 208.616C103.951 209.3 104.101 209.864 104.401 210.308C104.701 210.752 105.115 210.974 105.643 210.974C106.471 210.974 106.999 210.566 107.227 209.75L108.883 210.02C108.343 211.496 107.263 212.234 105.643 212.234C104.563 212.234 103.699 211.892 103.051 211.208C102.415 210.512 102.097 209.612 102.097 208.508C102.097 207.344 102.403 206.414 103.015 205.718C103.639 205.01 104.479 204.656 105.535 204.656C106.603 204.656 107.431 204.992 108.019 205.664C108.619 206.324 108.919 207.23 108.919 208.382V208.616H103.951ZM107.299 207.644C107.299 207.152 107.143 206.72 106.831 206.348C106.531 205.976 106.135 205.79 105.643 205.79C105.163 205.79 104.767 205.988 104.455 206.384C104.155 206.768 104.005 207.188 104.005 207.644H107.299ZM116.593 212H114.883V211.352C114.379 211.94 113.629 212.234 112.633 212.234C111.637 212.234 110.839 211.85 110.239 211.082C109.651 210.314 109.357 209.414 109.357 208.382C109.357 207.35 109.657 206.474 110.257 205.754C110.869 205.022 111.649 204.656 112.597 204.656C113.605 204.656 114.367 204.956 114.883 205.556V204.89H116.593V212ZM115.081 208.436C115.081 207.776 114.895 207.236 114.523 206.816C114.151 206.384 113.671 206.168 113.083 206.168C112.507 206.168 112.033 206.378 111.661 206.798C111.301 207.206 111.121 207.752 111.121 208.436C111.121 209.12 111.307 209.672 111.679 210.092C112.051 210.512 112.531 210.722 113.119 210.722C113.707 210.722 114.181 210.518 114.541 210.11C114.901 209.702 115.081 209.144 115.081 208.436ZM120.194 212H118.448V206.456H117.602V205.034H118.448V202.478H120.194V205.034H121.58V206.456H120.194V212ZM123.375 208.616C123.375 209.3 123.525 209.864 123.825 210.308C124.125 210.752 124.539 210.974 125.067 210.974C125.895 210.974 126.423 210.566 126.651 209.75L128.307 210.02C127.767 211.496 126.687 212.234 125.067 212.234C123.987 212.234 123.123 211.892 122.475 211.208C121.839 210.512 121.521 209.612 121.521 208.508C121.521 207.344 121.827 206.414 122.439 205.718C123.063 205.01 123.903 204.656 124.959 204.656C126.027 204.656 126.855 204.992 127.443 205.664C128.043 206.324 128.343 207.23 128.343 208.382V208.616H123.375ZM126.723 207.644C126.723 207.152 126.567 206.72 126.255 206.348C125.955 205.976 125.559 205.79 125.067 205.79C124.587 205.79 124.191 205.988 123.879 206.384C123.579 206.768 123.429 207.188 123.429 207.644H126.723ZM137.438 212H135.692V206.456H134.846V205.034H135.692V202.478H137.438V205.034H138.824V206.456H137.438V212ZM146.001 212H144.291V211.352C143.787 211.94 143.037 212.234 142.041 212.234C141.045 212.234 140.247 211.85 139.647 211.082C139.059 210.314 138.765 209.414 138.765 208.382C138.765 207.35 139.065 206.474 139.665 205.754C140.277 205.022 141.057 204.656 142.005 204.656C143.013 204.656 143.775 204.956 144.291 205.556V204.89H146.001V212ZM144.489 208.436C144.489 207.776 144.303 207.236 143.931 206.816C143.559 206.384 143.079 206.168 142.491 206.168C141.915 206.168 141.441 206.378 141.069 206.798C140.709 207.206 140.529 207.752 140.529 208.436C140.529 209.12 140.715 209.672 141.087 210.092C141.459 210.512 141.939 210.722 142.527 210.722C143.115 210.722 143.589 210.518 143.949 210.11C144.309 209.702 144.489 209.144 144.489 208.436ZM149.206 205.538C149.71 204.95 150.46 204.656 151.456 204.656C152.392 204.656 153.166 205.028 153.778 205.772C154.402 206.516 154.714 207.392 154.714 208.4C154.714 209.492 154.408 210.404 153.796 211.136C153.184 211.868 152.392 212.234 151.42 212.234C150.376 212.234 149.65 211.934 149.242 211.334L149.206 215.006H147.46V204.89H149.206V205.538ZM152.932 208.436C152.932 207.824 152.758 207.296 152.41 206.852C152.062 206.396 151.582 206.168 150.97 206.168C150.406 206.168 149.938 206.396 149.566 206.852C149.194 207.308 149.008 207.836 149.008 208.436C149.008 209.024 149.206 209.552 149.602 210.02C149.998 210.488 150.454 210.722 150.97 210.722C151.582 210.722 152.062 210.506 152.41 210.074C152.758 209.642 152.932 209.096 152.932 208.436ZM157.002 208.616C157.002 209.3 157.152 209.864 157.452 210.308C157.752 210.752 158.166 210.974 158.694 210.974C159.522 210.974 160.05 210.566 160.278 209.75L161.934 210.02C161.394 211.496 160.314 212.234 158.694 212.234C157.614 212.234 156.75 211.892 156.102 211.208C155.466 210.512 155.148 209.612 155.148 208.508C155.148 207.344 155.454 206.414 156.066 205.718C156.69 205.01 157.53 204.656 158.586 204.656C159.654 204.656 160.482 204.992 161.07 205.664C161.67 206.324 161.97 207.23 161.97 208.382V208.616H157.002ZM160.35 207.644C160.35 207.152 160.194 206.72 159.882 206.348C159.582 205.976 159.186 205.79 158.694 205.79C158.214 205.79 157.818 205.988 157.506 206.384C157.206 206.768 157.056 207.188 157.056 207.644H160.35ZM164.657 205.628C165.101 204.98 165.797 204.656 166.745 204.656C167.045 204.656 167.321 204.716 167.573 204.836L167.357 206.42C167.093 206.252 166.805 206.168 166.493 206.168C165.269 206.168 164.657 207.044 164.657 208.796V212H162.911V204.89H164.657V205.628ZM32.518 224.366C32.134 224.006 31.732 223.826 31.312 223.826C30.676 223.826 30.358 224.114 30.358 224.69C30.358 225.014 30.646 225.278 31.222 225.482C32.278 225.866 32.932 226.22 33.184 226.544C33.436 226.856 33.562 227.246 33.562 227.714C33.562 228.482 33.292 229.094 32.752 229.55C32.224 230.006 31.57 230.234 30.79 230.234C29.782 230.234 28.948 229.838 28.288 229.046L29.062 228.056C29.662 228.656 30.214 228.956 30.718 228.956C31.45 228.956 31.816 228.602 31.816 227.894C31.816 227.534 31.624 227.27 31.24 227.102C30.856 226.922 30.562 226.79 30.358 226.706C29.254 226.226 28.702 225.644 28.702 224.96C28.702 224.276 28.906 223.724 29.314 223.304C29.734 222.872 30.28 222.656 30.952 222.656C31.912 222.656 32.674 222.902 33.238 223.394L32.518 224.366ZM39.5034 224.744C39.0594 224.3 38.5614 224.078 38.0094 224.078C37.3614 224.078 36.8514 224.312 36.4794 224.78C36.1074 225.248 35.9214 225.824 35.9214 226.508C35.9214 227.18 36.1314 227.732 36.5514 228.164C36.9714 228.596 37.4814 228.812 38.0814 228.812C38.5974 228.812 39.0714 228.584 39.5034 228.128V229.802C38.9994 230.09 38.4174 230.234 37.7574 230.234C36.7254 230.234 35.8674 229.868 35.1834 229.136C34.4994 228.404 34.1574 227.51 34.1574 226.454C34.1574 225.398 34.5054 224.504 35.2014 223.772C35.9094 223.028 36.7914 222.656 37.8474 222.656C38.4714 222.656 39.0234 222.806 39.5034 223.106V224.744ZM42.507 217.706V223.484C42.963 222.932 43.689 222.656 44.685 222.656C45.429 222.656 46.023 222.944 46.467 223.52C46.911 224.096 47.133 224.81 47.133 225.662V230H45.405V226.238C45.405 224.738 44.943 223.988 44.019 223.988C43.011 223.988 42.507 224.816 42.507 226.472V230H40.761V217.706H42.507ZM49.9333 226.616C49.9333 227.3 50.0833 227.864 50.3833 228.308C50.6833 228.752 51.0973 228.974 51.6253 228.974C52.4533 228.974 52.9813 228.566 53.2093 227.75L54.8653 228.02C54.3253 229.496 53.2453 230.234 51.6253 230.234C50.5453 230.234 49.6813 229.892 49.0333 229.208C48.3973 228.512 48.0793 227.612 48.0793 226.508C48.0793 225.344 48.3853 224.414 48.9973 223.718C49.6213 223.01 50.4613 222.656 51.5173 222.656C52.5853 222.656 53.4133 222.992 54.0013 223.664C54.6013 224.324 54.9013 225.23 54.9013 226.382V226.616H49.9333ZM53.2813 225.644C53.2813 225.152 53.1253 224.72 52.8133 224.348C52.5133 223.976 52.1173 223.79 51.6253 223.79C51.1453 223.79 50.7493 223.988 50.4373 224.384C50.1373 224.768 49.9873 225.188 49.9873 225.644H53.2813ZM60.847 229.334C60.379 229.934 59.641 230.234 58.633 230.234C57.625 230.234 56.821 229.85 56.221 229.082C55.633 228.314 55.339 227.414 55.339 226.382C55.339 225.35 55.639 224.474 56.239 223.754C56.851 223.022 57.631 222.656 58.579 222.656C59.587 222.656 60.331 222.95 60.811 223.538L60.847 217.706H62.593V230H60.847V229.334ZM61.045 226.436C61.045 225.812 60.853 225.278 60.469 224.834C60.085 224.39 59.623 224.168 59.083 224.168C58.543 224.168 58.075 224.39 57.679 224.834C57.295 225.266 57.103 225.806 57.103 226.454C57.103 227.09 57.289 227.63 57.661 228.074C58.045 228.506 58.525 228.722 59.101 228.722C59.677 228.722 60.145 228.512 60.505 228.092C60.865 227.66 61.045 227.108 61.045 226.436ZM65.7445 222.89V226.742C65.7445 228.122 66.2245 228.812 67.1845 228.812C68.1445 228.812 68.6245 228.122 68.6245 226.742V222.89H70.3705V227.066C70.3705 229.178 69.3085 230.234 67.1845 230.234C65.0605 230.234 63.9985 229.178 63.9985 227.066V222.89H65.7445ZM73.6764 230H71.9304V217.706H73.6764V230ZM76.5993 226.616C76.5993 227.3 76.7493 227.864 77.0493 228.308C77.3493 228.752 77.7633 228.974 78.2913 228.974C79.1193 228.974 79.6473 228.566 79.8753 227.75L81.5313 228.02C80.9913 229.496 79.9113 230.234 78.2913 230.234C77.2113 230.234 76.3473 229.892 75.6993 229.208C75.0633 228.512 74.7453 227.612 74.7453 226.508C74.7453 225.344 75.0513 224.414 75.6633 223.718C76.2873 223.01 77.1273 222.656 78.1833 222.656C79.2513 222.656 80.0793 222.992 80.6673 223.664C81.2673 224.324 81.5673 225.23 81.5673 226.382V226.616H76.5993ZM79.9473 225.644C79.9473 225.152 79.7913 224.72 79.4793 224.348C79.1793 223.976 78.7833 223.79 78.2913 223.79C77.8113 223.79 77.4153 223.988 77.1033 224.384C76.8033 224.768 76.6533 225.188 76.6533 225.644H79.9473ZM86.3071 224.366C85.9231 224.006 85.5211 223.826 85.1011 223.826C84.4651 223.826 84.1471 224.114 84.1471 224.69C84.1471 225.014 84.4351 225.278 85.0111 225.482C86.0671 225.866 86.7211 226.22 86.9731 226.544C87.2251 226.856 87.3511 227.246 87.3511 227.714C87.3511 228.482 87.0811 229.094 86.5411 229.55C86.0131 230.006 85.3591 230.234 84.5791 230.234C83.5711 230.234 82.7371 229.838 82.0771 229.046L82.8511 228.056C83.4511 228.656 84.0031 228.956 84.5071 228.956C85.2391 228.956 85.6051 228.602 85.6051 227.894C85.6051 227.534 85.4131 227.27 85.0291 227.102C84.6451 226.922 84.3511 226.79 84.1471 226.706C83.0431 226.226 82.4911 225.644 82.4911 224.96C82.4911 224.276 82.6951 223.724 83.1031 223.304C83.5231 222.872 84.0691 222.656 84.7411 222.656C85.7011 222.656 86.4631 222.902 87.0271 223.394L86.3071 224.366ZM96.4242 230H94.6782V224.456H93.8502V223.034H94.6782V220.802C94.6782 218.63 95.5242 217.544 97.2162 217.544C97.5642 217.544 97.8882 217.622 98.1882 217.778V219.29C97.8762 219.134 97.6002 219.056 97.3602 219.056C97.0362 219.056 96.7962 219.176 96.6402 219.416C96.4962 219.644 96.4242 220.202 96.4242 221.09V223.034H98.1882V224.456H96.4242V230ZM105.841 226.436C105.841 227.552 105.499 228.464 104.815 229.172C104.131 229.88 103.231 230.234 102.115 230.234C101.011 230.234 100.111 229.88 99.4147 229.172C98.7187 228.464 98.3707 227.558 98.3707 226.454C98.3707 225.338 98.7127 224.426 99.3967 223.718C100.081 223.01 100.981 222.656 102.097 222.656C103.213 222.656 104.113 223.01 104.797 223.718C105.493 224.414 105.841 225.32 105.841 226.436ZM100.135 226.472C100.135 227.132 100.321 227.672 100.693 228.092C101.065 228.512 101.545 228.722 102.133 228.722C102.721 228.722 103.189 228.5 103.537 228.056C103.897 227.6 104.077 227.066 104.077 226.454C104.077 225.83 103.897 225.296 103.537 224.852C103.177 224.396 102.703 224.168 102.115 224.168C101.539 224.168 101.065 224.384 100.693 224.816C100.321 225.248 100.135 225.8 100.135 226.472ZM108.548 223.628C108.992 222.98 109.688 222.656 110.636 222.656C110.936 222.656 111.212 222.716 111.464 222.836L111.248 224.42C110.984 224.252 110.696 224.168 110.384 224.168C109.16 224.168 108.548 225.044 108.548 226.796V230H106.802V222.89H108.548V223.628ZM28.72 235.706H30.466V241.538C30.97 240.95 31.72 240.656 32.716 240.656C33.652 240.656 34.426 241.028 35.038 241.772C35.662 242.516 35.974 243.392 35.974 244.4C35.974 245.492 35.668 246.404 35.056 247.136C34.444 247.868 33.652 248.234 32.68 248.234C31.636 248.234 30.91 247.934 30.502 247.334L30.466 248H28.72V235.706ZM34.192 244.436C34.192 243.836 34.006 243.308 33.634 242.852C33.262 242.396 32.788 242.168 32.212 242.168C31.636 242.168 31.168 242.396 30.808 242.852C30.448 243.296 30.268 243.83 30.268 244.454C30.268 245.066 30.454 245.6 30.826 246.056C31.21 246.5 31.678 246.722 32.23 246.722C32.83 246.722 33.304 246.506 33.652 246.074C34.012 245.63 34.192 245.084 34.192 244.436ZM38.2614 244.616C38.2614 245.3 38.4114 245.864 38.7114 246.308C39.0114 246.752 39.4254 246.974 39.9534 246.974C40.7814 246.974 41.3094 246.566 41.5374 245.75L43.1934 246.02C42.6534 247.496 41.5734 248.234 39.9534 248.234C38.8734 248.234 38.0094 247.892 37.3614 247.208C36.7254 246.512 36.4074 245.612 36.4074 244.508C36.4074 243.344 36.7134 242.414 37.3254 241.718C37.9494 241.01 38.7894 240.656 39.8454 240.656C40.9134 240.656 41.7414 240.992 42.3294 241.664C42.9294 242.324 43.2294 243.23 43.2294 244.382V244.616H38.2614ZM41.6094 243.644C41.6094 243.152 41.4534 242.72 41.1414 242.348C40.8414 241.976 40.4454 241.79 39.9534 241.79C39.4734 241.79 39.0774 241.988 38.7654 242.384C38.4654 242.768 38.3154 243.188 38.3154 243.644H41.6094ZM45.9172 241.538C46.4092 240.95 47.1352 240.656 48.0952 240.656C49.7272 240.656 50.5432 241.658 50.5432 243.662V248H48.8152V244.238C48.8152 242.738 48.3532 241.988 47.4292 241.988C46.4212 241.988 45.9172 242.792 45.9172 244.4V248H44.1712V240.89H45.9172V241.538ZM58.0054 246.578V248H51.3994L55.2334 242.312H51.8314V240.89H58.0954L54.3154 246.578H58.0054ZM65.9384 244.436C65.9384 245.552 65.5964 246.464 64.9124 247.172C64.2284 247.88 63.3284 248.234 62.2124 248.234C61.1084 248.234 60.2084 247.88 59.5124 247.172C58.8164 246.464 58.4684 245.558 58.4684 244.454C58.4684 243.338 58.8104 242.426 59.4944 241.718C60.1784 241.01 61.0784 240.656 62.1944 240.656C63.3104 240.656 64.2104 241.01 64.8944 241.718C65.5904 242.414 65.9384 243.32 65.9384 244.436ZM60.2324 244.472C60.2324 245.132 60.4184 245.672 60.7904 246.092C61.1624 246.512 61.6424 246.722 62.2304 246.722C62.8184 246.722 63.2864 246.5 63.6344 246.056C63.9944 245.6 64.1744 245.066 64.1744 244.454C64.1744 243.83 63.9944 243.296 63.6344 242.852C63.2744 242.396 62.8004 242.168 62.2124 242.168C61.6364 242.168 61.1624 242.384 60.7904 242.816C60.4184 243.248 60.2324 243.8 60.2324 244.472ZM71.9037 247.334C71.4357 247.934 70.6977 248.234 69.6897 248.234C68.6817 248.234 67.8777 247.85 67.2777 247.082C66.6897 246.314 66.3957 245.414 66.3957 244.382C66.3957 243.35 66.6957 242.474 67.2957 241.754C67.9077 241.022 68.6877 240.656 69.6357 240.656C70.6437 240.656 71.3877 240.95 71.8677 241.538L71.9037 235.706H73.6497V248H71.9037V247.334ZM72.1017 244.436C72.1017 243.812 71.9097 243.278 71.5257 242.834C71.1417 242.39 70.6797 242.168 70.1397 242.168C69.5997 242.168 69.1317 242.39 68.7357 242.834C68.3517 243.266 68.1597 243.806 68.1597 244.454C68.1597 245.09 68.3457 245.63 68.7177 246.074C69.1017 246.506 69.5817 246.722 70.1577 246.722C70.7337 246.722 71.2017 246.512 71.5617 246.092C71.9217 245.66 72.1017 245.108 72.1017 244.436ZM77.2331 237.902C77.2331 238.178 77.1311 238.418 76.9271 238.622C76.7231 238.826 76.4831 238.928 76.2071 238.928C75.9311 238.928 75.6911 238.826 75.4871 238.622C75.2831 238.418 75.1811 238.178 75.1811 237.902C75.1811 237.626 75.2831 237.386 75.4871 237.182C75.6911 236.978 75.9311 236.876 76.2071 236.876C76.4831 236.876 76.7231 236.978 76.9271 237.182C77.1311 237.386 77.2331 237.626 77.2331 237.902ZM77.0891 248H75.3431V240.89H77.0891V248ZM85.4969 248H83.7869V247.352C83.2829 247.94 82.5329 248.234 81.5369 248.234C80.5409 248.234 79.7429 247.85 79.1429 247.082C78.5549 246.314 78.2609 245.414 78.2609 244.382C78.2609 243.35 78.5609 242.474 79.1609 241.754C79.7729 241.022 80.5529 240.656 81.5009 240.656C82.5089 240.656 83.2709 240.956 83.7869 241.556V240.89H85.4969V248ZM83.9849 244.436C83.9849 243.776 83.7989 243.236 83.4269 242.816C83.0549 242.384 82.5749 242.168 81.9869 242.168C81.4109 242.168 80.9369 242.378 80.5649 242.798C80.2049 243.206 80.0249 243.752 80.0249 244.436C80.0249 245.12 80.2109 245.672 80.5829 246.092C80.9549 246.512 81.4349 246.722 82.0229 246.722C82.6109 246.722 83.0849 246.518 83.4449 246.11C83.8049 245.702 83.9849 245.144 83.9849 244.436ZM92.9683 246.578V248H86.3623L90.1963 242.312H86.7943V240.89H93.0583L89.2783 246.578H92.9683ZM95.2673 244.616C95.2673 245.3 95.4173 245.864 95.7173 246.308C96.0173 246.752 96.4313 246.974 96.9593 246.974C97.7873 246.974 98.3153 246.566 98.5433 245.75L100.199 246.02C99.6593 247.496 98.5793 248.234 96.9593 248.234C95.8793 248.234 95.0153 247.892 94.3673 247.208C93.7313 246.512 93.4133 245.612 93.4133 244.508C93.4133 243.344 93.7193 242.414 94.3313 241.718C94.9553 241.01 95.7953 240.656 96.8513 240.656C97.9193 240.656 98.7473 240.992 99.3353 241.664C99.9353 242.324 100.235 243.23 100.235 244.382V244.616H95.2673ZM98.6153 243.644C98.6153 243.152 98.4593 242.72 98.1473 242.348C97.8473 241.976 97.4513 241.79 96.9593 241.79C96.4793 241.79 96.0833 241.988 95.7713 242.384C95.4713 242.768 95.3213 243.188 95.3213 243.644H98.6153ZM102.923 241.538C103.427 240.95 104.177 240.656 105.173 240.656C106.109 240.656 106.883 241.028 107.495 241.772C108.119 242.516 108.431 243.392 108.431 244.4C108.431 245.492 108.125 246.404 107.513 247.136C106.901 247.868 106.109 248.234 105.137 248.234C104.093 248.234 103.367 247.934 102.959 247.334L102.923 251.006H101.177V240.89H102.923V241.538ZM106.649 244.436C106.649 243.824 106.475 243.296 106.127 242.852C105.779 242.396 105.299 242.168 104.687 242.168C104.123 242.168 103.655 242.396 103.283 242.852C102.911 243.308 102.725 243.836 102.725 244.436C102.725 245.024 102.923 245.552 103.319 246.02C103.715 246.488 104.171 246.722 104.687 246.722C105.299 246.722 105.779 246.506 106.127 246.074C106.475 245.642 106.649 245.096 106.649 244.436ZM111.51 237.902C111.51 238.178 111.408 238.418 111.204 238.622C111 238.826 110.76 238.928 110.484 238.928C110.208 238.928 109.968 238.826 109.764 238.622C109.56 238.418 109.458 238.178 109.458 237.902C109.458 237.626 109.56 237.386 109.764 237.182C109.968 236.978 110.208 236.876 110.484 236.876C110.76 236.876 111 236.978 111.204 237.182C111.408 237.386 111.51 237.626 111.51 237.902ZM111.366 248H109.62V240.89H111.366V248ZM114.788 241.538C115.28 240.95 116.006 240.656 116.966 240.656C118.598 240.656 119.414 241.658 119.414 243.662V248H117.686V244.238C117.686 242.738 117.224 241.988 116.3 241.988C115.292 241.988 114.788 242.792 114.788 244.4V248H113.042V240.89H114.788V241.538ZM122.215 244.616C122.215 245.3 122.365 245.864 122.665 246.308C122.965 246.752 123.379 246.974 123.907 246.974C124.735 246.974 125.263 246.566 125.491 245.75L127.147 246.02C126.607 247.496 125.527 248.234 123.907 248.234C122.827 248.234 121.963 247.892 121.315 247.208C120.679 246.512 120.361 245.612 120.361 244.508C120.361 243.344 120.667 242.414 121.279 241.718C121.903 241.01 122.743 240.656 123.799 240.656C124.867 240.656 125.695 240.992 126.283 241.664C126.883 242.324 127.183 243.23 127.183 244.382V244.616H122.215ZM125.563 243.644C125.563 243.152 125.407 242.72 125.095 242.348C124.795 241.976 124.399 241.79 123.907 241.79C123.427 241.79 123.031 241.988 122.719 242.384C122.419 242.768 122.269 243.188 122.269 243.644H125.563ZM135.882 241.52C136.326 240.944 137.01 240.656 137.934 240.656C138.738 240.656 139.374 241.028 139.842 241.772C140.298 241.028 141.036 240.656 142.056 240.656C143.556 240.656 144.306 241.628 144.306 243.572V248H142.578V244.256C142.578 242.744 142.164 241.988 141.336 241.988C140.508 241.988 140.094 242.828 140.094 244.508V248H138.348V244.4C138.348 242.792 137.982 241.988 137.25 241.988C136.338 241.988 135.882 242.828 135.882 244.508V248H134.136V240.89H135.882V241.52ZM147.915 237.902C147.915 238.178 147.813 238.418 147.609 238.622C147.405 238.826 147.165 238.928 146.889 238.928C146.613 238.928 146.373 238.826 146.169 238.622C145.965 238.418 145.863 238.178 145.863 237.902C145.863 237.626 145.965 237.386 146.169 237.182C146.373 236.978 146.613 236.876 146.889 236.876C147.165 236.876 147.405 236.978 147.609 237.182C147.813 237.386 147.915 237.626 147.915 237.902ZM147.771 248H146.025V240.89H147.771V248ZM153.245 242.366C152.861 242.006 152.459 241.826 152.039 241.826C151.403 241.826 151.085 242.114 151.085 242.69C151.085 243.014 151.373 243.278 151.949 243.482C153.005 243.866 153.659 244.22 153.911 244.544C154.163 244.856 154.289 245.246 154.289 245.714C154.289 246.482 154.019 247.094 153.479 247.55C152.951 248.006 152.297 248.234 151.517 248.234C150.509 248.234 149.675 247.838 149.015 247.046L149.789 246.056C150.389 246.656 150.941 246.956 151.445 246.956C152.177 246.956 152.543 246.602 152.543 245.894C152.543 245.534 152.351 245.27 151.967 245.102C151.583 244.922 151.289 244.79 151.085 244.706C149.981 244.226 149.429 243.644 149.429 242.96C149.429 242.276 149.633 241.724 150.041 241.304C150.461 240.872 151.007 240.656 151.679 240.656C152.639 240.656 153.401 240.902 153.965 241.394L153.245 242.366ZM157.098 240.89V244.742C157.098 246.122 157.578 246.812 158.538 246.812C159.498 246.812 159.978 246.122 159.978 244.742V240.89H161.724V245.066C161.724 247.178 160.662 248.234 158.538 248.234C156.414 248.234 155.352 247.178 155.352 245.066V240.89H157.098ZM166.938 242.366C166.554 242.006 166.152 241.826 165.732 241.826C165.096 241.826 164.778 242.114 164.778 242.69C164.778 243.014 165.066 243.278 165.642 243.482C166.698 243.866 167.352 244.22 167.604 244.544C167.856 244.856 167.982 245.246 167.982 245.714C167.982 246.482 167.712 247.094 167.172 247.55C166.644 248.006 165.99 248.234 165.21 248.234C164.202 248.234 163.368 247.838 162.708 247.046L163.482 246.056C164.082 246.656 164.634 246.956 165.138 246.956C165.87 246.956 166.236 246.602 166.236 245.894C166.236 245.534 166.044 245.27 165.66 245.102C165.276 244.922 164.982 244.79 164.778 244.706C163.674 244.226 163.122 243.644 163.122 242.96C163.122 242.276 163.326 241.724 163.734 241.304C164.154 240.872 164.7 240.656 165.372 240.656C166.332 240.656 167.094 240.902 167.658 241.394L166.938 242.366ZM170.431 244.616C170.431 245.3 170.581 245.864 170.881 246.308C171.181 246.752 171.595 246.974 172.123 246.974C172.951 246.974 173.479 246.566 173.707 245.75L175.363 246.02C174.823 247.496 173.743 248.234 172.123 248.234C171.043 248.234 170.179 247.892 169.531 247.208C168.895 246.512 168.577 245.612 168.577 244.508C168.577 243.344 168.883 242.414 169.495 241.718C170.119 241.01 170.959 240.656 172.015 240.656C173.083 240.656 173.911 240.992 174.499 241.664C175.099 242.324 175.399 243.23 175.399 244.382V244.616H170.431ZM173.779 243.644C173.779 243.152 173.623 242.72 173.311 242.348C173.011 241.976 172.615 241.79 172.123 241.79C171.643 241.79 171.247 241.988 170.935 242.384C170.635 242.768 170.485 243.188 170.485 243.644H173.779ZM179.005 246.974C179.005 247.334 178.879 247.646 178.627 247.91C178.387 248.162 178.087 248.288 177.727 248.288C177.367 248.288 177.061 248.162 176.809 247.91C176.557 247.658 176.431 247.358 176.431 247.01C176.431 246.65 176.557 246.344 176.809 246.092C177.061 245.84 177.361 245.714 177.709 245.714C178.069 245.714 178.375 245.834 178.627 246.074C178.879 246.314 179.005 246.614 179.005 246.974Z" fill="white"/>
<path fill-rule="evenodd" clip-rule="evenodd" d="M46.6678 62.553L27.7616 47.5674C26.2765 46.3902 27.1089 44 29.0039 44H72.5333C74.4284 44 75.2608 46.3902 73.7757 47.5674L55.2815 62.2264V93.279C55.2815 94.1684 54.2076 94.6153 53.5767 93.9885L46.963 87.4177C46.7741 87.23 46.6678 86.9746 46.6678 86.7083V62.553Z" fill="url(#paint0_linear_3284_281)"/>
<path d="M221.758 292.434V294H214.414L217.186 290.49C218.506 288.858 219.28 287.838 219.508 287.43C219.748 287.01 219.868 286.668 219.868 286.404C219.88 286.332 219.886 286.26 219.886 286.188C219.886 285.708 219.724 285.282 219.4 284.91C219.088 284.538 218.674 284.352 218.158 284.352C217.642 284.352 217.234 284.562 216.934 284.982C216.646 285.402 216.502 285.912 216.502 286.512H214.558C214.558 285.432 214.876 284.544 215.512 283.848C216.16 283.14 217.036 282.786 218.14 282.786C219.136 282.786 219.976 283.122 220.66 283.794C221.344 284.466 221.686 285.306 221.686 286.314C221.686 287.262 220.96 288.582 219.508 290.274L217.654 292.434H221.758ZM230.467 288.546C230.467 290.13 230.119 291.486 229.423 292.614C228.727 293.73 227.767 294.288 226.543 294.288C225.331 294.288 224.377 293.724 223.681 292.596C222.985 291.468 222.637 290.118 222.637 288.546C222.637 286.914 222.985 285.546 223.681 284.442C224.389 283.338 225.349 282.786 226.561 282.786C227.773 282.786 228.727 283.35 229.423 284.478C230.119 285.594 230.467 286.95 230.467 288.546ZM224.437 288.528C224.437 289.632 224.629 290.61 225.013 291.462C225.397 292.302 225.919 292.722 226.579 292.722C227.239 292.722 227.749 292.326 228.109 291.534C228.481 290.742 228.667 289.74 228.667 288.528C228.667 287.412 228.475 286.44 228.091 285.612C227.707 284.772 227.191 284.352 226.543 284.352C225.907 284.352 225.397 284.79 225.013 285.666C224.629 286.53 224.437 287.484 224.437 288.528ZM238.492 292.434V294H231.148L233.92 290.49C235.24 288.858 236.014 287.838 236.242 287.43C236.482 287.01 236.602 286.668 236.602 286.404C236.614 286.332 236.62 286.26 236.62 286.188C236.62 285.708 236.458 285.282 236.134 284.91C235.822 284.538 235.408 284.352 234.892 284.352C234.376 284.352 233.968 284.562 233.668 284.982C233.38 285.402 233.236 285.912 233.236 286.512H231.292C231.292 285.432 231.61 284.544 232.246 283.848C232.894 283.14 233.77 282.786 234.874 282.786C235.87 282.786 236.71 283.122 237.394 283.794C238.078 284.466 238.42 285.306 238.42 286.314C238.42 287.262 237.694 288.582 236.242 290.274L234.388 292.434H238.492ZM241.208 284.64V283.074H244.628V294H242.774V284.64H241.208Z" fill="white"/>
<defs>
<linearGradient id="paint0_linear_3284_281" x1="50.7686" y1="44" x2="50.973" y2="126.545" gradientUnits="userSpaceOnUse">
<stop stop-color="white"/>
<stop offset="1" stop-color="white" stop-opacity="0"/>
</linearGradient>
</defs>
</svg>
