<svg width="270" height="316" viewBox="0 0 270 316" fill="none" xmlns="http://www.w3.org/2000/svg">
<rect width="270" height="316" rx="11" transform="matrix(1 0 0 -1 0 316)" fill="black"/>
<path d="M27.032 100.048H28.904L37.136 111.016L37.184 100.432H39.632V115.288H37.784L29.528 104.344L29.504 115H27.032V100.048ZM43.4319 110.488C43.4319 111.4 43.6319 112.152 44.0319 112.744C44.4319 113.336 44.9839 113.632 45.6879 113.632C46.7919 113.632 47.4959 113.088 47.7999 112L50.0079 112.36C49.2879 114.328 47.8479 115.312 45.6879 115.312C44.2479 115.312 43.0959 114.856 42.2319 113.944C41.3839 113.016 40.9599 111.816 40.9599 110.344C40.9599 108.792 41.3679 107.552 42.1839 106.624C43.0159 105.68 44.1359 105.208 45.5439 105.208C46.9679 105.208 48.0719 105.656 48.8559 106.552C49.6559 107.432 50.0559 108.64 50.0559 110.176V110.488H43.4319ZM47.8959 109.192C47.8959 108.536 47.6879 107.96 47.2719 107.464C46.8719 106.968 46.3439 106.72 45.6879 106.72C45.0479 106.72 44.5199 106.984 44.1039 107.512C43.7039 108.024 43.5039 108.584 43.5039 109.192H47.8959ZM54.1676 115H51.8396V107.608H50.7116V105.712H51.8396V102.304H54.1676V105.712H56.0156V107.608H54.1676V115ZM56.6804 100.432H60.2324C63.1444 100.432 64.6004 101.752 64.6004 104.392C64.6004 105.688 64.1764 106.632 63.3284 107.224C64.0964 107.352 64.6964 107.76 65.1284 108.448C65.5764 109.136 65.8004 109.944 65.8004 110.872C65.8004 112.232 65.3684 113.264 64.5044 113.968C63.6564 114.656 62.5364 115 61.1444 115H56.6804V100.432ZM59.1524 113.032H60.5204C62.4084 113.032 63.3524 112.232 63.3524 110.632C63.3524 109.192 62.3604 108.472 60.3764 108.472H59.1524V113.032ZM59.1524 106.696H60.2564C61.6324 106.696 62.3204 105.992 62.3204 104.584C62.3204 103.08 61.6404 102.328 60.2804 102.328H59.1524V106.696ZM76.6079 110.248C76.6079 111.736 76.1519 112.952 75.2399 113.896C74.3279 114.84 73.1279 115.312 71.6399 115.312C70.1679 115.312 68.9679 114.84 68.0399 113.896C67.1119 112.952 66.6479 111.744 66.6479 110.272C66.6479 108.784 67.1039 107.568 68.0159 106.624C68.9279 105.68 70.1279 105.208 71.6159 105.208C73.1039 105.208 74.3039 105.68 75.2159 106.624C76.1439 107.552 76.6079 108.76 76.6079 110.248ZM68.9999 110.296C68.9999 111.176 69.2479 111.896 69.7439 112.456C70.2399 113.016 70.8799 113.296 71.6639 113.296C72.4479 113.296 73.0719 113 73.5359 112.408C74.0159 111.8 74.2559 111.088 74.2559 110.272C74.2559 109.44 74.0159 108.728 73.5359 108.136C73.0559 107.528 72.4239 107.224 71.6399 107.224C70.8719 107.224 70.2399 107.512 69.7439 108.088C69.2479 108.664 68.9999 109.4 68.9999 110.296ZM80.2177 106.504C80.8097 105.64 81.7377 105.208 83.0017 105.208C83.4017 105.208 83.7697 105.288 84.1057 105.448L83.8177 107.56C83.4657 107.336 83.0817 107.224 82.6657 107.224C81.0337 107.224 80.2177 108.392 80.2177 110.728V115H77.8897V105.52H80.2177V106.504Z" fill="white"/>
<path d="M38 42.8164H41.7143L58.0476 62.2479L58.1429 43.4967H63V69.8164H59.3333L42.9524 50.4274L42.9048 69.3062H38V42.8164Z" fill="white"/>
<path fill-rule="evenodd" clip-rule="evenodd" d="M50.2721 21.0001L26 45.2722L30.0454 49.3176L50.2721 29.0909L70.4988 49.3176L50.2721 69.5443L50.2721 69.5443L70.4989 49.3176L70.4988 49.3176L74.5442 45.2722L50.2721 21.0001Z" fill="white"/>
<rect x="46" y="36" width="9" height="9" fill="white"/>
<path d="M25.808 168.552L24.836 171H22.874L27.122 159.786H28.778L32.918 171H30.938L30.02 168.552H25.808ZM27.842 162.468L26.258 167.094H29.516L27.842 162.468ZM43.3383 165.366C42.9543 165.006 42.5523 164.826 42.1323 164.826C41.4963 164.826 41.1783 165.114 41.1783 165.69C41.1783 166.014 41.4663 166.278 42.0423 166.482C43.0983 166.866 43.7523 167.22 44.0043 167.544C44.2563 167.856 44.3823 168.246 44.3823 168.714C44.3823 169.482 44.1123 170.094 43.5723 170.55C43.0443 171.006 42.3903 171.234 41.6103 171.234C40.6023 171.234 39.7683 170.838 39.1083 170.046L39.8823 169.056C40.4823 169.656 41.0343 169.956 41.5383 169.956C42.2703 169.956 42.6363 169.602 42.6363 168.894C42.6363 168.534 42.4443 168.27 42.0603 168.102C41.6763 167.922 41.3823 167.79 41.1783 167.706C40.0743 167.226 39.5223 166.644 39.5223 165.96C39.5223 165.276 39.7263 164.724 40.1343 164.304C40.5543 163.872 41.1003 163.656 41.7723 163.656C42.7323 163.656 43.4943 163.902 44.0583 164.394L43.3383 165.366ZM52.4657 167.436C52.4657 168.552 52.1237 169.464 51.4397 170.172C50.7557 170.88 49.8557 171.234 48.7397 171.234C47.6357 171.234 46.7357 170.88 46.0397 170.172C45.3437 169.464 44.9957 168.558 44.9957 167.454C44.9957 166.338 45.3377 165.426 46.0217 164.718C46.7057 164.01 47.6057 163.656 48.7217 163.656C49.8377 163.656 50.7377 164.01 51.4217 164.718C52.1177 165.414 52.4657 166.32 52.4657 167.436ZM46.7597 167.472C46.7597 168.132 46.9457 168.672 47.3177 169.092C47.6897 169.512 48.1697 169.722 48.7577 169.722C49.3457 169.722 49.8137 169.5 50.1617 169.056C50.5217 168.6 50.7017 168.066 50.7017 167.454C50.7017 166.83 50.5217 166.296 50.1617 165.852C49.8017 165.396 49.3277 165.168 48.7397 165.168C48.1637 165.168 47.6897 165.384 47.3177 165.816C46.9457 166.248 46.7597 166.8 46.7597 167.472ZM58.269 165.744C57.825 165.3 57.327 165.078 56.775 165.078C56.127 165.078 55.617 165.312 55.245 165.78C54.873 166.248 54.687 166.824 54.687 167.508C54.687 168.18 54.897 168.732 55.317 169.164C55.737 169.596 56.247 169.812 56.847 169.812C57.363 169.812 57.837 169.584 58.269 169.128V170.802C57.765 171.09 57.183 171.234 56.523 171.234C55.491 171.234 54.633 170.868 53.949 170.136C53.265 169.404 52.923 168.51 52.923 167.454C52.923 166.398 53.271 165.504 53.967 164.772C54.675 164.028 55.557 163.656 56.613 163.656C57.237 163.656 57.789 163.806 58.269 164.106V165.744ZM61.6686 160.902C61.6686 161.178 61.5666 161.418 61.3626 161.622C61.1586 161.826 60.9186 161.928 60.6426 161.928C60.3666 161.928 60.1266 161.826 59.9226 161.622C59.7186 161.418 59.6166 161.178 59.6166 160.902C59.6166 160.626 59.7186 160.386 59.9226 160.182C60.1266 159.978 60.3666 159.876 60.6426 159.876C60.9186 159.876 61.1586 159.978 61.3626 160.182C61.5666 160.386 61.6686 160.626 61.6686 160.902ZM61.5246 171H59.7786V163.89H61.5246V171ZM69.9325 171H68.2225V170.352C67.7185 170.94 66.9685 171.234 65.9725 171.234C64.9765 171.234 64.1785 170.85 63.5785 170.082C62.9905 169.314 62.6965 168.414 62.6965 167.382C62.6965 166.35 62.9965 165.474 63.5965 164.754C64.2085 164.022 64.9885 163.656 65.9365 163.656C66.9445 163.656 67.7065 163.956 68.2225 164.556V163.89H69.9325V171ZM68.4205 167.436C68.4205 166.776 68.2345 166.236 67.8625 165.816C67.4905 165.384 67.0105 165.168 66.4225 165.168C65.8465 165.168 65.3725 165.378 65.0005 165.798C64.6405 166.206 64.4605 166.752 64.4605 167.436C64.4605 168.12 64.6465 168.672 65.0185 169.092C65.3905 169.512 65.8705 169.722 66.4585 169.722C67.0465 169.722 67.5205 169.518 67.8805 169.11C68.2405 168.702 68.4205 168.144 68.4205 167.436ZM73.2819 171H71.5359V158.706H73.2819V171ZM82.6125 164.538C83.1165 163.95 83.8665 163.656 84.8625 163.656C85.7985 163.656 86.5725 164.028 87.1845 164.772C87.8085 165.516 88.1205 166.392 88.1205 167.4C88.1205 168.492 87.8145 169.404 87.2025 170.136C86.5905 170.868 85.7985 171.234 84.8265 171.234C83.7825 171.234 83.0565 170.934 82.6485 170.334L82.6125 174.006H80.8665V163.89H82.6125V164.538ZM86.3385 167.436C86.3385 166.824 86.1645 166.296 85.8165 165.852C85.4685 165.396 84.9885 165.168 84.3765 165.168C83.8125 165.168 83.3445 165.396 82.9725 165.852C82.6005 166.308 82.4145 166.836 82.4145 167.436C82.4145 168.024 82.6125 168.552 83.0085 169.02C83.4045 169.488 83.8605 169.722 84.3765 169.722C84.9885 169.722 85.4685 169.506 85.8165 169.074C86.1645 168.642 86.3385 168.096 86.3385 167.436ZM90.9479 171H89.2019V158.706H90.9479V171ZM99.2528 171H97.5428V170.352C97.0388 170.94 96.2888 171.234 95.2928 171.234C94.2968 171.234 93.4988 170.85 92.8988 170.082C92.3108 169.314 92.0168 168.414 92.0168 167.382C92.0168 166.35 92.3168 165.474 92.9168 164.754C93.5288 164.022 94.3088 163.656 95.2568 163.656C96.2648 163.656 97.0268 163.956 97.5428 164.556V163.89H99.2528V171ZM97.7408 167.436C97.7408 166.776 97.5548 166.236 97.1828 165.816C96.8108 165.384 96.3308 165.168 95.7428 165.168C95.1668 165.168 94.6928 165.378 94.3208 165.798C93.9608 166.206 93.7808 166.752 93.7808 167.436C93.7808 168.12 93.9668 168.672 94.3388 169.092C94.7108 169.512 95.1908 169.722 95.7788 169.722C96.3668 169.722 96.8408 169.518 97.2008 169.11C97.5608 168.702 97.7408 168.144 97.7408 167.436ZM102.854 171H101.108V165.456H100.262V164.034H101.108V161.478H102.854V164.034H104.24V165.456H102.854V171ZM106.647 171H104.901V165.456H104.073V164.034H104.901V161.802C104.901 159.63 105.747 158.544 107.439 158.544C107.787 158.544 108.111 158.622 108.411 158.778V160.29C108.099 160.134 107.823 160.056 107.583 160.056C107.259 160.056 107.019 160.176 106.863 160.416C106.719 160.644 106.647 161.202 106.647 162.09V164.034H108.411V165.456H106.647V171ZM116.063 167.436C116.063 168.552 115.721 169.464 115.037 170.172C114.353 170.88 113.453 171.234 112.337 171.234C111.233 171.234 110.333 170.88 109.637 170.172C108.941 169.464 108.593 168.558 108.593 167.454C108.593 166.338 108.935 165.426 109.619 164.718C110.303 164.01 111.203 163.656 112.319 163.656C113.435 163.656 114.335 164.01 115.019 164.718C115.715 165.414 116.063 166.32 116.063 167.436ZM110.357 167.472C110.357 168.132 110.543 168.672 110.915 169.092C111.287 169.512 111.767 169.722 112.355 169.722C112.943 169.722 113.411 169.5 113.759 169.056C114.119 168.6 114.299 168.066 114.299 167.454C114.299 166.83 114.119 166.296 113.759 165.852C113.399 165.396 112.925 165.168 112.337 165.168C111.761 165.168 111.287 165.384 110.915 165.816C110.543 166.248 110.357 166.8 110.357 167.472ZM118.771 164.628C119.215 163.98 119.911 163.656 120.859 163.656C121.159 163.656 121.435 163.716 121.687 163.836L121.471 165.42C121.207 165.252 120.919 165.168 120.607 165.168C119.383 165.168 118.771 166.044 118.771 167.796V171H117.025V163.89H118.771V164.628ZM124.079 164.52C124.523 163.944 125.207 163.656 126.131 163.656C126.935 163.656 127.571 164.028 128.039 164.772C128.495 164.028 129.233 163.656 130.253 163.656C131.753 163.656 132.503 164.628 132.503 166.572V171H130.775V167.256C130.775 165.744 130.361 164.988 129.533 164.988C128.705 164.988 128.291 165.828 128.291 167.508V171H126.545V167.4C126.545 165.792 126.179 164.988 125.447 164.988C124.535 164.988 124.079 165.828 124.079 167.508V171H122.333V163.89H124.079V164.52ZM142.124 171H140.378V165.456H139.532V164.034H140.378V161.478H142.124V164.034H143.51V165.456H142.124V171ZM150.938 167.436C150.938 168.552 150.596 169.464 149.912 170.172C149.228 170.88 148.328 171.234 147.212 171.234C146.108 171.234 145.208 170.88 144.512 170.172C143.816 169.464 143.468 168.558 143.468 167.454C143.468 166.338 143.81 165.426 144.494 164.718C145.178 164.01 146.078 163.656 147.194 163.656C148.31 163.656 149.21 164.01 149.894 164.718C150.59 165.414 150.938 166.32 150.938 167.436ZM145.232 167.472C145.232 168.132 145.418 168.672 145.79 169.092C146.162 169.512 146.642 169.722 147.23 169.722C147.818 169.722 148.286 169.5 148.634 169.056C148.994 168.6 149.174 168.066 149.174 167.454C149.174 166.83 148.994 166.296 148.634 165.852C148.274 165.396 147.8 165.168 147.212 165.168C146.636 165.168 146.162 165.384 145.79 165.816C145.418 166.248 145.232 166.8 145.232 167.472ZM159.657 158.706V164.484C160.113 163.932 160.839 163.656 161.835 163.656C162.579 163.656 163.173 163.944 163.617 164.52C164.061 165.096 164.283 165.81 164.283 166.662V171H162.555V167.238C162.555 165.738 162.093 164.988 161.169 164.988C160.161 164.988 159.657 165.816 159.657 167.472V171H157.911V158.706H159.657ZM167.084 167.616C167.084 168.3 167.234 168.864 167.534 169.308C167.834 169.752 168.248 169.974 168.776 169.974C169.604 169.974 170.132 169.566 170.36 168.75L172.016 169.02C171.476 170.496 170.396 171.234 168.776 171.234C167.696 171.234 166.832 170.892 166.184 170.208C165.548 169.512 165.23 168.612 165.23 167.508C165.23 166.344 165.536 165.414 166.148 164.718C166.772 164.01 167.612 163.656 168.668 163.656C169.736 163.656 170.564 163.992 171.152 164.664C171.752 165.324 172.052 166.23 172.052 167.382V167.616H167.084ZM170.432 166.644C170.432 166.152 170.276 165.72 169.964 165.348C169.664 164.976 169.268 164.79 168.776 164.79C168.296 164.79 167.9 164.988 167.588 165.384C167.288 165.768 167.138 166.188 167.138 166.644H170.432ZM174.883 171H173.137V158.706H174.883V171ZM178.202 164.538C178.706 163.95 179.456 163.656 180.452 163.656C181.388 163.656 182.162 164.028 182.774 164.772C183.398 165.516 183.71 166.392 183.71 167.4C183.71 168.492 183.404 169.404 182.792 170.136C182.18 170.868 181.388 171.234 180.416 171.234C179.372 171.234 178.646 170.934 178.238 170.334L178.202 174.006H176.456V163.89H178.202V164.538ZM181.928 167.436C181.928 166.824 181.754 166.296 181.406 165.852C181.058 165.396 180.578 165.168 179.966 165.168C179.402 165.168 178.934 165.396 178.562 165.852C178.19 166.308 178.004 166.836 178.004 167.436C178.004 168.024 178.202 168.552 178.598 169.02C178.994 169.488 179.45 169.722 179.966 169.722C180.578 169.722 181.058 169.506 181.406 169.074C181.754 168.642 181.928 168.096 181.928 167.436ZM23.72 176.706H25.466V182.538C25.97 181.95 26.72 181.656 27.716 181.656C28.652 181.656 29.426 182.028 30.038 182.772C30.662 183.516 30.974 184.392 30.974 185.4C30.974 186.492 30.668 187.404 30.056 188.136C29.444 188.868 28.652 189.234 27.68 189.234C26.636 189.234 25.91 188.934 25.502 188.334L25.466 189H23.72V176.706ZM29.192 185.436C29.192 184.836 29.006 184.308 28.634 183.852C28.262 183.396 27.788 183.168 27.212 183.168C26.636 183.168 26.168 183.396 25.808 183.852C25.448 184.296 25.268 184.83 25.268 185.454C25.268 186.066 25.454 186.6 25.826 187.056C26.21 187.5 26.678 187.722 27.23 187.722C27.83 187.722 28.304 187.506 28.652 187.074C29.012 186.63 29.192 186.084 29.192 185.436ZM33.6214 181.89V185.742C33.6214 187.122 34.1014 187.812 35.0614 187.812C36.0214 187.812 36.5014 187.122 36.5014 185.742V181.89H38.2474V186.066C38.2474 188.178 37.1854 189.234 35.0614 189.234C32.9374 189.234 31.8754 188.178 31.8754 186.066V181.89H33.6214ZM41.8054 178.902C41.8054 179.178 41.7034 179.418 41.4994 179.622C41.2954 179.826 41.0554 179.928 40.7794 179.928C40.5034 179.928 40.2634 179.826 40.0594 179.622C39.8554 179.418 39.7534 179.178 39.7534 178.902C39.7534 178.626 39.8554 178.386 40.0594 178.182C40.2634 177.978 40.5034 177.876 40.7794 177.876C41.0554 177.876 41.2954 177.978 41.4994 178.182C41.7034 178.386 41.8054 178.626 41.8054 178.902ZM41.6614 189H39.9154V181.89H41.6614V189ZM45.2272 189H43.4812V176.706H45.2272V189ZM51.8041 188.334C51.3361 188.934 50.5981 189.234 49.5901 189.234C48.5821 189.234 47.7781 188.85 47.1781 188.082C46.5901 187.314 46.2961 186.414 46.2961 185.382C46.2961 184.35 46.5961 183.474 47.1961 182.754C47.8081 182.022 48.5881 181.656 49.5361 181.656C50.5441 181.656 51.2881 181.95 51.7681 182.538L51.8041 176.706H53.5501V189H51.8041V188.334ZM52.0021 185.436C52.0021 184.812 51.8101 184.278 51.4261 183.834C51.0421 183.39 50.5801 183.168 50.0401 183.168C49.5001 183.168 49.0321 183.39 48.6361 183.834C48.2521 184.266 48.0601 184.806 48.0601 185.454C48.0601 186.09 48.2461 186.63 48.6181 187.074C49.0021 187.506 49.4821 187.722 50.0581 187.722C50.6341 187.722 51.1021 187.512 51.4621 187.092C51.8221 186.66 52.0021 186.108 52.0021 185.436ZM67.7352 189H66.0252V188.352C65.5212 188.94 64.7712 189.234 63.7752 189.234C62.7792 189.234 61.9812 188.85 61.3812 188.082C60.7932 187.314 60.4992 186.414 60.4992 185.382C60.4992 184.35 60.7992 183.474 61.3992 182.754C62.0112 182.022 62.7912 181.656 63.7392 181.656C64.7472 181.656 65.5092 181.956 66.0252 182.556V181.89H67.7352V189ZM66.2232 185.436C66.2232 184.776 66.0372 184.236 65.6652 183.816C65.2932 183.384 64.8132 183.168 64.2252 183.168C63.6492 183.168 63.1752 183.378 62.8032 183.798C62.4432 184.206 62.2632 184.752 62.2632 185.436C62.2632 186.12 62.4492 186.672 62.8212 187.092C63.1932 187.512 63.6732 187.722 64.2612 187.722C64.8492 187.722 65.3232 187.518 65.6832 187.11C66.0432 186.702 66.2232 186.144 66.2232 185.436ZM75.2063 176.706H76.9523V182.538C77.4563 181.95 78.2063 181.656 79.2023 181.656C80.1383 181.656 80.9123 182.028 81.5243 182.772C82.1483 183.516 82.4603 184.392 82.4603 185.4C82.4603 186.492 82.1543 187.404 81.5423 188.136C80.9303 188.868 80.1383 189.234 79.1663 189.234C78.1223 189.234 77.3963 188.934 76.9883 188.334L76.9523 189H75.2063V176.706ZM80.6783 185.436C80.6783 184.836 80.4923 184.308 80.1203 183.852C79.7483 183.396 79.2743 183.168 78.6983 183.168C78.1223 183.168 77.6543 183.396 77.2943 183.852C76.9343 184.296 76.7543 184.83 76.7543 185.454C76.7543 186.066 76.9403 186.6 77.3123 187.056C77.6963 187.5 78.1643 187.722 78.7163 187.722C79.3163 187.722 79.7903 187.506 80.1383 187.074C80.4983 186.63 80.6783 186.084 80.6783 185.436ZM84.7477 185.616C84.7477 186.3 84.8977 186.864 85.1977 187.308C85.4977 187.752 85.9117 187.974 86.4397 187.974C87.2677 187.974 87.7957 187.566 88.0237 186.75L89.6797 187.02C89.1397 188.496 88.0597 189.234 86.4397 189.234C85.3597 189.234 84.4957 188.892 83.8477 188.208C83.2117 187.512 82.8937 186.612 82.8937 185.508C82.8937 184.344 83.1997 183.414 83.8117 182.718C84.4357 182.01 85.2757 181.656 86.3317 181.656C87.3997 181.656 88.2277 181.992 88.8157 182.664C89.4157 183.324 89.7157 184.23 89.7157 185.382V185.616H84.7477ZM88.0957 184.644C88.0957 184.152 87.9397 183.72 87.6277 183.348C87.3277 182.976 86.9317 182.79 86.4397 182.79C85.9597 182.79 85.5637 182.988 85.2517 183.384C84.9517 183.768 84.8017 184.188 84.8017 184.644H88.0957ZM92.7995 189H91.0535V183.456H90.2075V182.034H91.0535V179.478H92.7995V182.034H94.1855V183.456H92.7995V189ZM96.7722 189H95.0262V183.456H94.1802V182.034H95.0262V179.478H96.7722V182.034H98.1582V183.456H96.7722V189ZM99.9528 185.616C99.9528 186.3 100.103 186.864 100.403 187.308C100.703 187.752 101.117 187.974 101.645 187.974C102.473 187.974 103.001 187.566 103.229 186.75L104.885 187.02C104.345 188.496 103.265 189.234 101.645 189.234C100.565 189.234 99.7008 188.892 99.0528 188.208C98.4168 187.512 98.0988 186.612 98.0988 185.508C98.0988 184.344 98.4048 183.414 99.0168 182.718C99.6408 182.01 100.481 181.656 101.537 181.656C102.605 181.656 103.433 181.992 104.021 182.664C104.621 183.324 104.921 184.23 104.921 185.382V185.616H99.9528ZM103.301 184.644C103.301 184.152 103.145 183.72 102.833 183.348C102.533 182.976 102.137 182.79 101.645 182.79C101.165 182.79 100.769 182.988 100.457 183.384C100.157 183.768 100.007 184.188 100.007 184.644H103.301ZM107.609 182.628C108.053 181.98 108.749 181.656 109.697 181.656C109.997 181.656 110.273 181.716 110.525 181.836L110.309 183.42C110.045 183.252 109.757 183.168 109.445 183.168C108.221 183.168 107.609 184.044 107.609 185.796V189H105.863V181.89H107.609V182.628ZM122.025 183.744C121.581 183.3 121.083 183.078 120.531 183.078C119.883 183.078 119.373 183.312 119.001 183.78C118.629 184.248 118.443 184.824 118.443 185.508C118.443 186.18 118.653 186.732 119.073 187.164C119.493 187.596 120.003 187.812 120.603 187.812C121.119 187.812 121.593 187.584 122.025 187.128V188.802C121.521 189.09 120.939 189.234 120.279 189.234C119.247 189.234 118.389 188.868 117.705 188.136C117.021 187.404 116.679 186.51 116.679 185.454C116.679 184.398 117.027 183.504 117.723 182.772C118.431 182.028 119.313 181.656 120.369 181.656C120.993 181.656 121.545 181.806 122.025 182.106V183.744ZM130.267 185.436C130.267 186.552 129.925 187.464 129.241 188.172C128.557 188.88 127.657 189.234 126.541 189.234C125.437 189.234 124.537 188.88 123.841 188.172C123.145 187.464 122.797 186.558 122.797 185.454C122.797 184.338 123.139 183.426 123.823 182.718C124.507 182.01 125.407 181.656 126.523 181.656C127.639 181.656 128.539 182.01 129.223 182.718C129.919 183.414 130.267 184.32 130.267 185.436ZM124.561 185.472C124.561 186.132 124.747 186.672 125.119 187.092C125.491 187.512 125.971 187.722 126.559 187.722C127.147 187.722 127.615 187.5 127.963 187.056C128.323 186.6 128.503 186.066 128.503 185.454C128.503 184.83 128.323 184.296 127.963 183.852C127.603 183.396 127.129 183.168 126.541 183.168C125.965 183.168 125.491 183.384 125.119 183.816C124.747 184.248 124.561 184.8 124.561 185.472ZM132.974 182.52C133.418 181.944 134.102 181.656 135.026 181.656C135.83 181.656 136.466 182.028 136.934 182.772C137.39 182.028 138.128 181.656 139.148 181.656C140.648 181.656 141.398 182.628 141.398 184.572V189H139.67V185.256C139.67 183.744 139.256 182.988 138.428 182.988C137.6 182.988 137.186 183.828 137.186 185.508V189H135.44V185.4C135.44 183.792 135.074 182.988 134.342 182.988C133.43 182.988 132.974 183.828 132.974 185.508V189H131.228V181.89H132.974V182.52ZM144.611 182.52C145.055 181.944 145.739 181.656 146.663 181.656C147.467 181.656 148.103 182.028 148.571 182.772C149.027 182.028 149.765 181.656 150.785 181.656C152.285 181.656 153.035 182.628 153.035 184.572V189H151.307V185.256C151.307 183.744 150.893 182.988 150.065 182.988C149.237 182.988 148.823 183.828 148.823 185.508V189H147.077V185.4C147.077 183.792 146.711 182.988 145.979 182.988C145.067 182.988 144.611 183.828 144.611 185.508V189H142.865V181.89H144.611V182.52ZM156.211 181.89V185.742C156.211 187.122 156.691 187.812 157.651 187.812C158.611 187.812 159.091 187.122 159.091 185.742V181.89H160.837V186.066C160.837 188.178 159.775 189.234 157.651 189.234C155.527 189.234 154.465 188.178 154.465 186.066V181.89H156.211ZM163.999 182.538C164.491 181.95 165.217 181.656 166.177 181.656C167.809 181.656 168.625 182.658 168.625 184.662V189H166.897V185.238C166.897 183.738 166.435 182.988 165.511 182.988C164.503 182.988 163.999 183.792 163.999 185.4V189H162.253V181.89H163.999V182.538ZM172.217 178.902C172.217 179.178 172.115 179.418 171.911 179.622C171.707 179.826 171.467 179.928 171.191 179.928C170.915 179.928 170.675 179.826 170.471 179.622C170.267 179.418 170.165 179.178 170.165 178.902C170.165 178.626 170.267 178.386 170.471 178.182C170.675 177.978 170.915 177.876 171.191 177.876C171.467 177.876 171.707 177.978 171.911 178.182C172.115 178.386 172.217 178.626 172.217 178.902ZM172.073 189H170.327V181.89H172.073V189ZM175.891 189H174.145V183.456H173.299V182.034H174.145V179.478H175.891V182.034H177.277V183.456H175.891V189ZM176.894 181.89H178.91L180.764 186.156L182.708 181.89H184.688L179.648 191.97H177.704L179.9 187.902L176.894 181.89ZM191.275 176.706H193.021V182.538C193.525 181.95 194.275 181.656 195.271 181.656C196.207 181.656 196.981 182.028 197.593 182.772C198.217 183.516 198.529 184.392 198.529 185.4C198.529 186.492 198.223 187.404 197.611 188.136C196.999 188.868 196.207 189.234 195.235 189.234C194.191 189.234 193.465 188.934 193.057 188.334L193.021 189H191.275V176.706ZM196.747 185.436C196.747 184.836 196.561 184.308 196.189 183.852C195.817 183.396 195.343 183.168 194.767 183.168C194.191 183.168 193.723 183.396 193.363 183.852C193.003 184.296 192.823 184.83 192.823 185.454C192.823 186.066 193.009 186.6 193.381 187.056C193.765 187.5 194.233 187.722 194.785 187.722C195.385 187.722 195.859 187.506 196.207 187.074C196.567 186.63 196.747 186.084 196.747 185.436ZM198.638 181.89H200.654L202.508 186.156L204.452 181.89H206.432L201.392 191.97H199.448L201.644 187.902L198.638 181.89ZM25.07 203.616C25.07 204.3 25.22 204.864 25.52 205.308C25.82 205.752 26.234 205.974 26.762 205.974C27.59 205.974 28.118 205.566 28.346 204.75L30.002 205.02C29.462 206.496 28.382 207.234 26.762 207.234C25.682 207.234 24.818 206.892 24.17 206.208C23.534 205.512 23.216 204.612 23.216 203.508C23.216 202.344 23.522 201.414 24.134 200.718C24.758 200.01 25.598 199.656 26.654 199.656C27.722 199.656 28.55 199.992 29.138 200.664C29.738 201.324 30.038 202.23 30.038 203.382V203.616H25.07ZM28.418 202.644C28.418 202.152 28.262 201.72 27.95 201.348C27.65 200.976 27.254 200.79 26.762 200.79C26.282 200.79 25.886 200.988 25.574 201.384C25.274 201.768 25.124 202.188 25.124 202.644H28.418ZM32.7258 200.538C33.2178 199.95 33.9438 199.656 34.9038 199.656C36.5358 199.656 37.3518 200.658 37.3518 202.662V207H35.6238V203.238C35.6238 201.738 35.1618 200.988 34.2378 200.988C33.2298 200.988 32.7258 201.792 32.7258 203.4V207H30.9798V199.89H32.7258V200.538ZM43.644 201.744C43.2 201.3 42.702 201.078 42.15 201.078C41.502 201.078 40.992 201.312 40.62 201.78C40.248 202.248 40.062 202.824 40.062 203.508C40.062 204.18 40.272 204.732 40.692 205.164C41.112 205.596 41.622 205.812 42.222 205.812C42.738 205.812 43.212 205.584 43.644 205.128V206.802C43.14 207.09 42.558 207.234 41.898 207.234C40.866 207.234 40.008 206.868 39.324 206.136C38.64 205.404 38.298 204.51 38.298 203.454C38.298 202.398 38.646 201.504 39.342 200.772C40.05 200.028 40.932 199.656 41.988 199.656C42.612 199.656 43.164 199.806 43.644 200.106V201.744ZM51.8856 203.436C51.8856 204.552 51.5436 205.464 50.8596 206.172C50.1756 206.88 49.2756 207.234 48.1596 207.234C47.0556 207.234 46.1556 206.88 45.4596 206.172C44.7636 205.464 44.4156 204.558 44.4156 203.454C44.4156 202.338 44.7576 201.426 45.4416 200.718C46.1256 200.01 47.0256 199.656 48.1416 199.656C49.2576 199.656 50.1576 200.01 50.8416 200.718C51.5376 201.414 51.8856 202.32 51.8856 203.436ZM46.1796 203.472C46.1796 204.132 46.3656 204.672 46.7376 205.092C47.1096 205.512 47.5896 205.722 48.1776 205.722C48.7656 205.722 49.2336 205.5 49.5816 205.056C49.9416 204.6 50.1216 204.066 50.1216 203.454C50.1216 202.83 49.9416 202.296 49.5816 201.852C49.2216 201.396 48.7476 201.168 48.1596 201.168C47.5836 201.168 47.1096 201.384 46.7376 201.816C46.3656 202.248 46.1796 202.8 46.1796 203.472ZM54.557 199.89V203.742C54.557 205.122 55.037 205.812 55.997 205.812C56.957 205.812 57.437 205.122 57.437 203.742V199.89H59.183V204.066C59.183 206.178 58.121 207.234 55.997 207.234C53.873 207.234 52.811 206.178 52.811 204.066V199.89H54.557ZM62.3449 200.628C62.7889 199.98 63.4849 199.656 64.4329 199.656C64.7329 199.656 65.0089 199.716 65.2609 199.836L65.0449 201.42C64.7809 201.252 64.4929 201.168 64.1809 201.168C62.9569 201.168 62.3449 202.044 62.3449 203.796V207H60.5989V199.89H62.3449V200.628ZM72.6395 207H70.9295V206.352C70.4255 206.94 69.6755 207.234 68.6795 207.234C67.6835 207.234 66.8855 206.85 66.2855 206.082C65.6975 205.314 65.4035 204.414 65.4035 203.382C65.4035 202.35 65.7035 201.474 66.3035 200.754C66.9155 200.022 67.6955 199.656 68.6435 199.656C69.6515 199.656 70.4135 199.956 70.9295 200.556V199.89H72.6395V207ZM71.1275 203.436C71.1275 202.776 70.9415 202.236 70.5695 201.816C70.1975 201.384 69.7175 201.168 69.1295 201.168C68.5535 201.168 68.0795 201.378 67.7075 201.798C67.3475 202.206 67.1675 202.752 67.1675 203.436C67.1675 204.12 67.3535 204.672 67.7255 205.092C68.0975 205.512 68.5775 205.722 69.1655 205.722C69.7535 205.722 70.2275 205.518 70.5875 205.11C70.9475 204.702 71.1275 204.144 71.1275 203.436ZM80.8669 206.388C80.8669 208.824 79.7329 210.042 77.4649 210.042C76.4569 210.042 75.6049 209.766 74.9089 209.214C74.2129 208.674 73.8649 207.966 73.8649 207.09H75.7189C75.7189 207.438 75.8929 207.78 76.2409 208.116C76.5889 208.452 76.9789 208.62 77.4109 208.62C78.5509 208.62 79.1209 207.936 79.1209 206.568V206.118C78.6289 206.742 77.8789 207.054 76.8709 207.054C75.8749 207.054 75.0889 206.706 74.5129 206.01C73.9489 205.314 73.6669 204.462 73.6669 203.454C73.6669 202.362 73.9729 201.45 74.5849 200.718C75.1969 199.986 75.9889 199.62 76.9609 199.62C77.9449 199.62 78.6649 199.926 79.1209 200.538V199.854H80.8669V206.388ZM79.3729 203.292C79.3729 202.644 79.1929 202.122 78.8329 201.726C78.4729 201.33 77.9989 201.132 77.4109 201.132C76.8229 201.132 76.3429 201.348 75.9709 201.78C75.6109 202.212 75.4309 202.758 75.4309 203.418C75.4309 204.834 76.0909 205.542 77.4109 205.542C78.0109 205.542 78.4849 205.332 78.8329 204.912C79.1929 204.48 79.3729 203.94 79.3729 203.292ZM84.3796 196.902C84.3796 197.178 84.2776 197.418 84.0736 197.622C83.8696 197.826 83.6296 197.928 83.3536 197.928C83.0776 197.928 82.8376 197.826 82.6336 197.622C82.4296 197.418 82.3276 197.178 82.3276 196.902C82.3276 196.626 82.4296 196.386 82.6336 196.182C82.8376 195.978 83.0776 195.876 83.3536 195.876C83.6296 195.876 83.8696 195.978 84.0736 196.182C84.2776 196.386 84.3796 196.626 84.3796 196.902ZM84.2356 207H82.4896V199.89H84.2356V207ZM87.6574 200.538C88.1494 199.95 88.8754 199.656 89.8354 199.656C91.4674 199.656 92.2834 200.658 92.2834 202.662V207H90.5554V203.238C90.5554 201.738 90.0934 200.988 89.1694 200.988C88.1614 200.988 87.6574 201.792 87.6574 203.4V207H85.9114V199.89H87.6574V200.538ZM100.502 206.388C100.502 208.824 99.3677 210.042 97.0997 210.042C96.0917 210.042 95.2397 209.766 94.5437 209.214C93.8477 208.674 93.4997 207.966 93.4997 207.09H95.3537C95.3537 207.438 95.5277 207.78 95.8757 208.116C96.2237 208.452 96.6137 208.62 97.0457 208.62C98.1857 208.62 98.7557 207.936 98.7557 206.568V206.118C98.2637 206.742 97.5137 207.054 96.5057 207.054C95.5097 207.054 94.7237 206.706 94.1477 206.01C93.5837 205.314 93.3017 204.462 93.3017 203.454C93.3017 202.362 93.6077 201.45 94.2197 200.718C94.8317 199.986 95.6237 199.62 96.5957 199.62C97.5797 199.62 98.2997 199.926 98.7557 200.538V199.854H100.502V206.388ZM99.0077 203.292C99.0077 202.644 98.8277 202.122 98.4677 201.726C98.1077 201.33 97.6337 201.132 97.0457 201.132C96.4577 201.132 95.9777 201.348 95.6057 201.78C95.2457 202.212 95.0657 202.758 95.0657 203.418C95.0657 204.834 95.7257 205.542 97.0457 205.542C97.6457 205.542 98.1197 205.332 98.4677 204.912C98.8277 204.48 99.0077 203.94 99.0077 203.292ZM112.726 201.744C112.282 201.3 111.784 201.078 111.232 201.078C110.584 201.078 110.074 201.312 109.702 201.78C109.33 202.248 109.144 202.824 109.144 203.508C109.144 204.18 109.354 204.732 109.774 205.164C110.194 205.596 110.704 205.812 111.304 205.812C111.82 205.812 112.294 205.584 112.726 205.128V206.802C112.222 207.09 111.64 207.234 110.98 207.234C109.948 207.234 109.09 206.868 108.406 206.136C107.722 205.404 107.38 204.51 107.38 203.454C107.38 202.398 107.728 201.504 108.424 200.772C109.132 200.028 110.014 199.656 111.07 199.656C111.694 199.656 112.246 199.806 112.726 200.106V201.744ZM120.968 203.436C120.968 204.552 120.626 205.464 119.942 206.172C119.258 206.88 118.358 207.234 117.242 207.234C116.138 207.234 115.238 206.88 114.542 206.172C113.846 205.464 113.498 204.558 113.498 203.454C113.498 202.338 113.84 201.426 114.524 200.718C115.208 200.01 116.108 199.656 117.224 199.656C118.34 199.656 119.24 200.01 119.924 200.718C120.62 201.414 120.968 202.32 120.968 203.436ZM115.262 203.472C115.262 204.132 115.448 204.672 115.82 205.092C116.192 205.512 116.672 205.722 117.26 205.722C117.848 205.722 118.316 205.5 118.664 205.056C119.024 204.6 119.204 204.066 119.204 203.454C119.204 202.83 119.024 202.296 118.664 201.852C118.304 201.396 117.83 201.168 117.242 201.168C116.666 201.168 116.192 201.384 115.82 201.816C115.448 202.248 115.262 202.8 115.262 203.472ZM123.675 200.52C124.119 199.944 124.803 199.656 125.727 199.656C126.531 199.656 127.167 200.028 127.635 200.772C128.091 200.028 128.829 199.656 129.849 199.656C131.349 199.656 132.099 200.628 132.099 202.572V207H130.371V203.256C130.371 201.744 129.957 200.988 129.129 200.988C128.301 200.988 127.887 201.828 127.887 203.508V207H126.141V203.4C126.141 201.792 125.775 200.988 125.043 200.988C124.131 200.988 123.675 201.828 123.675 203.508V207H121.929V199.89H123.675V200.52ZM135.312 200.52C135.756 199.944 136.44 199.656 137.364 199.656C138.168 199.656 138.804 200.028 139.272 200.772C139.728 200.028 140.466 199.656 141.486 199.656C142.986 199.656 143.736 200.628 143.736 202.572V207H142.008V203.256C142.008 201.744 141.594 200.988 140.766 200.988C139.938 200.988 139.524 201.828 139.524 203.508V207H137.778V203.4C137.778 201.792 137.412 200.988 136.68 200.988C135.768 200.988 135.312 201.828 135.312 203.508V207H133.566V199.89H135.312V200.52ZM146.912 199.89V203.742C146.912 205.122 147.392 205.812 148.352 205.812C149.312 205.812 149.792 205.122 149.792 203.742V199.89H151.538V204.066C151.538 206.178 150.476 207.234 148.352 207.234C146.228 207.234 145.166 206.178 145.166 204.066V199.89H146.912ZM154.7 200.538C155.192 199.95 155.918 199.656 156.878 199.656C158.51 199.656 159.326 200.658 159.326 202.662V207H157.598V203.238C157.598 201.738 157.136 200.988 156.212 200.988C155.204 200.988 154.7 201.792 154.7 203.4V207H152.954V199.89H154.7V200.538ZM162.919 196.902C162.919 197.178 162.817 197.418 162.613 197.622C162.409 197.826 162.169 197.928 161.893 197.928C161.617 197.928 161.377 197.826 161.173 197.622C160.969 197.418 160.867 197.178 160.867 196.902C160.867 196.626 160.969 196.386 161.173 196.182C161.377 195.978 161.617 195.876 161.893 195.876C162.169 195.876 162.409 195.978 162.613 196.182C162.817 196.386 162.919 196.626 162.919 196.902ZM162.775 207H161.029V199.89H162.775V207ZM169.292 201.744C168.848 201.3 168.35 201.078 167.798 201.078C167.15 201.078 166.64 201.312 166.268 201.78C165.896 202.248 165.71 202.824 165.71 203.508C165.71 204.18 165.92 204.732 166.34 205.164C166.76 205.596 167.27 205.812 167.87 205.812C168.386 205.812 168.86 205.584 169.292 205.128V206.802C168.788 207.09 168.206 207.234 167.546 207.234C166.514 207.234 165.656 206.868 164.972 206.136C164.288 205.404 163.946 204.51 163.946 203.454C163.946 202.398 164.294 201.504 164.99 200.772C165.698 200.028 166.58 199.656 167.636 199.656C168.26 199.656 168.812 199.806 169.292 200.106V201.744ZM177.282 207H175.572V206.352C175.068 206.94 174.318 207.234 173.322 207.234C172.326 207.234 171.528 206.85 170.928 206.082C170.34 205.314 170.046 204.414 170.046 203.382C170.046 202.35 170.346 201.474 170.946 200.754C171.558 200.022 172.338 199.656 173.286 199.656C174.294 199.656 175.056 199.956 175.572 200.556V199.89H177.282V207ZM175.77 203.436C175.77 202.776 175.584 202.236 175.212 201.816C174.84 201.384 174.36 201.168 173.772 201.168C173.196 201.168 172.722 201.378 172.35 201.798C171.99 202.206 171.81 202.752 171.81 203.436C171.81 204.12 171.996 204.672 172.368 205.092C172.74 205.512 173.22 205.722 173.808 205.722C174.396 205.722 174.87 205.518 175.23 205.11C175.59 204.702 175.77 204.144 175.77 203.436ZM180.883 207H179.137V201.456H178.291V200.034H179.137V197.478H180.883V200.034H182.269V201.456H180.883V207ZM184.856 196.902C184.856 197.178 184.754 197.418 184.55 197.622C184.346 197.826 184.106 197.928 183.83 197.928C183.554 197.928 183.314 197.826 183.11 197.622C182.906 197.418 182.804 197.178 182.804 196.902C182.804 196.626 182.906 196.386 183.11 196.182C183.314 195.978 183.554 195.876 183.83 195.876C184.106 195.876 184.346 195.978 184.55 196.182C184.754 196.386 184.856 196.626 184.856 196.902ZM184.712 207H182.966V199.89H184.712V207ZM193.372 203.436C193.372 204.552 193.03 205.464 192.346 206.172C191.662 206.88 190.762 207.234 189.646 207.234C188.542 207.234 187.642 206.88 186.946 206.172C186.25 205.464 185.902 204.558 185.902 203.454C185.902 202.338 186.244 201.426 186.928 200.718C187.612 200.01 188.512 199.656 189.628 199.656C190.744 199.656 191.644 200.01 192.328 200.718C193.024 201.414 193.372 202.32 193.372 203.436ZM187.666 203.472C187.666 204.132 187.852 204.672 188.224 205.092C188.596 205.512 189.076 205.722 189.664 205.722C190.252 205.722 190.72 205.5 191.068 205.056C191.428 204.6 191.608 204.066 191.608 203.454C191.608 202.83 191.428 202.296 191.068 201.852C190.708 201.396 190.234 201.168 189.646 201.168C189.07 201.168 188.596 201.384 188.224 201.816C187.852 202.248 187.666 202.8 187.666 203.472ZM196.079 200.538C196.571 199.95 197.297 199.656 198.257 199.656C199.889 199.656 200.705 200.658 200.705 202.662V207H198.977V203.238C198.977 201.738 198.515 200.988 197.591 200.988C196.583 200.988 196.079 201.792 196.079 203.4V207H194.333V199.89H196.079V200.538ZM23.72 212.706H25.466V218.538C25.97 217.95 26.72 217.656 27.716 217.656C28.652 217.656 29.426 218.028 30.038 218.772C30.662 219.516 30.974 220.392 30.974 221.4C30.974 222.492 30.668 223.404 30.056 224.136C29.444 224.868 28.652 225.234 27.68 225.234C26.636 225.234 25.91 224.934 25.502 224.334L25.466 225H23.72V212.706ZM29.192 221.436C29.192 220.836 29.006 220.308 28.634 219.852C28.262 219.396 27.788 219.168 27.212 219.168C26.636 219.168 26.168 219.396 25.808 219.852C25.448 220.296 25.268 220.83 25.268 221.454C25.268 222.066 25.454 222.6 25.826 223.056C26.21 223.5 26.678 223.722 27.23 223.722C27.83 223.722 28.304 223.506 28.652 223.074C29.012 222.63 29.192 222.084 29.192 221.436ZM33.2614 221.616C33.2614 222.3 33.4114 222.864 33.7114 223.308C34.0114 223.752 34.4254 223.974 34.9534 223.974C35.7814 223.974 36.3094 223.566 36.5374 222.75L38.1934 223.02C37.6534 224.496 36.5734 225.234 34.9534 225.234C33.8734 225.234 33.0094 224.892 32.3614 224.208C31.7254 223.512 31.4074 222.612 31.4074 221.508C31.4074 220.344 31.7134 219.414 32.3254 218.718C32.9494 218.01 33.7894 217.656 34.8454 217.656C35.9134 217.656 36.7414 217.992 37.3294 218.664C37.9294 219.324 38.2294 220.23 38.2294 221.382V221.616H33.2614ZM36.6094 220.644C36.6094 220.152 36.4534 219.72 36.1414 219.348C35.8414 218.976 35.4454 218.79 34.9534 218.79C34.4734 218.79 34.0774 218.988 33.7654 219.384C33.4654 219.768 33.3154 220.188 33.3154 220.644H36.6094ZM41.3132 225H39.5672V219.456H38.7212V218.034H39.5672V215.478H41.3132V218.034H42.6992V219.456H41.3132V225ZM45.8438 222.534L47.7338 217.656H48.3638L50.3438 222.516L52.1078 217.89H54.0338L50.7218 225.144H49.8398L48.2018 220.59L46.3298 225.144H45.4298L42.1718 217.89H44.0978L45.8438 222.534ZM55.8317 221.616C55.8317 222.3 55.9817 222.864 56.2817 223.308C56.5817 223.752 56.9957 223.974 57.5237 223.974C58.3517 223.974 58.8797 223.566 59.1077 222.75L60.7637 223.02C60.2237 224.496 59.1437 225.234 57.5237 225.234C56.4437 225.234 55.5797 224.892 54.9317 224.208C54.2957 223.512 53.9777 222.612 53.9777 221.508C53.9777 220.344 54.2837 219.414 54.8957 218.718C55.5197 218.01 56.3597 217.656 57.4157 217.656C58.4837 217.656 59.3117 217.992 59.8997 218.664C60.4997 219.324 60.7997 220.23 60.7997 221.382V221.616H55.8317ZM59.1797 220.644C59.1797 220.152 59.0237 219.72 58.7117 219.348C58.4117 218.976 58.0157 218.79 57.5237 218.79C57.0437 218.79 56.6477 218.988 56.3357 219.384C56.0357 219.768 55.8857 220.188 55.8857 220.644H59.1797ZM63.0915 221.616C63.0915 222.3 63.2415 222.864 63.5415 223.308C63.8415 223.752 64.2555 223.974 64.7835 223.974C65.6115 223.974 66.1395 223.566 66.3675 222.75L68.0235 223.02C67.4835 224.496 66.4035 225.234 64.7835 225.234C63.7035 225.234 62.8395 224.892 62.1915 224.208C61.5555 223.512 61.2375 222.612 61.2375 221.508C61.2375 220.344 61.5435 219.414 62.1555 218.718C62.7795 218.01 63.6195 217.656 64.6755 217.656C65.7435 217.656 66.5715 217.992 67.1595 218.664C67.7595 219.324 68.0595 220.23 68.0595 221.382V221.616H63.0915ZM66.4395 220.644C66.4395 220.152 66.2835 219.72 65.9715 219.348C65.6715 218.976 65.2755 218.79 64.7835 218.79C64.3035 218.79 63.9075 218.988 63.5955 219.384C63.2955 219.768 63.1455 220.188 63.1455 220.644H66.4395ZM70.7473 218.538C71.2393 217.95 71.9653 217.656 72.9253 217.656C74.5573 217.656 75.3733 218.658 75.3733 220.662V225H73.6453V221.238C73.6453 219.738 73.1833 218.988 72.2593 218.988C71.2513 218.988 70.7473 219.792 70.7473 221.4V225H69.0013V217.89H70.7473V218.538ZM84.5812 218.628C85.0252 217.98 85.7212 217.656 86.6692 217.656C86.9692 217.656 87.2452 217.716 87.4972 217.836L87.2812 219.42C87.0172 219.252 86.7292 219.168 86.4172 219.168C85.1932 219.168 84.5812 220.044 84.5812 221.796V225H82.8352V217.89H84.5812V218.628ZM89.4938 221.616C89.4938 222.3 89.6438 222.864 89.9438 223.308C90.2438 223.752 90.6578 223.974 91.1858 223.974C92.0138 223.974 92.5418 223.566 92.7698 222.75L94.4258 223.02C93.8858 224.496 92.8058 225.234 91.1858 225.234C90.1058 225.234 89.2418 224.892 88.5938 224.208C87.9578 223.512 87.6398 222.612 87.6398 221.508C87.6398 220.344 87.9458 219.414 88.5578 218.718C89.1818 218.01 90.0218 217.656 91.0778 217.656C92.1458 217.656 92.9738 217.992 93.5618 218.664C94.1618 219.324 94.4618 220.23 94.4618 221.382V221.616H89.4938ZM92.8418 220.644C92.8418 220.152 92.6858 219.72 92.3738 219.348C92.0738 218.976 91.6778 218.79 91.1858 218.79C90.7058 218.79 90.3098 218.988 89.9978 219.384C89.6978 219.768 89.5478 220.188 89.5478 220.644H92.8418ZM99.2016 219.366C98.8176 219.006 98.4156 218.826 97.9956 218.826C97.3596 218.826 97.0416 219.114 97.0416 219.69C97.0416 220.014 97.3296 220.278 97.9056 220.482C98.9616 220.866 99.6156 221.22 99.8676 221.544C100.12 221.856 100.246 222.246 100.246 222.714C100.246 223.482 99.9756 224.094 99.4356 224.55C98.9076 225.006 98.2536 225.234 97.4736 225.234C96.4656 225.234 95.6316 224.838 94.9716 224.046L95.7456 223.056C96.3456 223.656 96.8976 223.956 97.4016 223.956C98.1336 223.956 98.4996 223.602 98.4996 222.894C98.4996 222.534 98.3076 222.27 97.9236 222.102C97.5396 221.922 97.2456 221.79 97.0416 221.706C95.9376 221.226 95.3856 220.644 95.3856 219.96C95.3856 219.276 95.5896 218.724 95.9976 218.304C96.4176 217.872 96.9636 217.656 97.6356 217.656C98.5956 217.656 99.3576 217.902 99.9216 218.394L99.2016 219.366ZM103.487 214.902C103.487 215.178 103.385 215.418 103.181 215.622C102.977 215.826 102.737 215.928 102.461 215.928C102.185 215.928 101.945 215.826 101.741 215.622C101.537 215.418 101.435 215.178 101.435 214.902C101.435 214.626 101.537 214.386 101.741 214.182C101.945 213.978 102.185 213.876 102.461 213.876C102.737 213.876 102.977 213.978 103.181 214.182C103.385 214.386 103.487 214.626 103.487 214.902ZM103.343 225H101.597V217.89H103.343V225ZM110.023 224.334C109.555 224.934 108.817 225.234 107.809 225.234C106.801 225.234 105.997 224.85 105.397 224.082C104.809 223.314 104.515 222.414 104.515 221.382C104.515 220.35 104.815 219.474 105.415 218.754C106.027 218.022 106.807 217.656 107.755 217.656C108.763 217.656 109.507 217.95 109.987 218.538L110.023 212.706H111.769V225H110.023V224.334ZM110.221 221.436C110.221 220.812 110.029 220.278 109.645 219.834C109.261 219.39 108.799 219.168 108.259 219.168C107.719 219.168 107.251 219.39 106.855 219.834C106.471 220.266 106.279 220.806 106.279 221.454C106.279 222.09 106.465 222.63 106.837 223.074C107.221 223.506 107.701 223.722 108.277 223.722C108.853 223.722 109.321 223.512 109.681 223.092C110.041 222.66 110.221 222.108 110.221 221.436ZM114.56 221.616C114.56 222.3 114.71 222.864 115.01 223.308C115.31 223.752 115.724 223.974 116.252 223.974C117.08 223.974 117.608 223.566 117.836 222.75L119.492 223.02C118.952 224.496 117.872 225.234 116.252 225.234C115.172 225.234 114.308 224.892 113.66 224.208C113.024 223.512 112.706 222.612 112.706 221.508C112.706 220.344 113.012 219.414 113.624 218.718C114.248 218.01 115.088 217.656 116.144 217.656C117.212 217.656 118.04 217.992 118.628 218.664C119.228 219.324 119.528 220.23 119.528 221.382V221.616H114.56ZM117.908 220.644C117.908 220.152 117.752 219.72 117.44 219.348C117.14 218.976 116.744 218.79 116.252 218.79C115.772 218.79 115.376 218.988 115.064 219.384C114.764 219.768 114.614 220.188 114.614 220.644H117.908ZM122.216 218.538C122.708 217.95 123.434 217.656 124.394 217.656C126.026 217.656 126.842 218.658 126.842 220.662V225H125.114V221.238C125.114 219.738 124.652 218.988 123.728 218.988C122.72 218.988 122.216 219.792 122.216 221.4V225H120.47V217.89H122.216V218.538ZM130.434 225H128.688V219.456H127.842V218.034H128.688V215.478H130.434V218.034H131.82V219.456H130.434V225ZM136.063 219.366C135.679 219.006 135.277 218.826 134.857 218.826C134.221 218.826 133.903 219.114 133.903 219.69C133.903 220.014 134.191 220.278 134.767 220.482C135.823 220.866 136.477 221.22 136.729 221.544C136.981 221.856 137.107 222.246 137.107 222.714C137.107 223.482 136.837 224.094 136.297 224.55C135.769 225.006 135.115 225.234 134.335 225.234C133.327 225.234 132.493 224.838 131.833 224.046L132.607 223.056C133.207 223.656 133.759 223.956 134.263 223.956C134.995 223.956 135.361 223.602 135.361 222.894C135.361 222.534 135.169 222.27 134.785 222.102C134.401 221.922 134.107 221.79 133.903 221.706C132.799 221.226 132.247 220.644 132.247 219.96C132.247 219.276 132.451 218.724 132.859 218.304C133.279 217.872 133.825 217.656 134.497 217.656C135.457 217.656 136.219 217.902 136.783 218.394L136.063 219.366ZM140.87 223.974C140.87 224.334 140.744 224.646 140.492 224.91C140.252 225.162 139.952 225.288 139.592 225.288C139.232 225.288 138.926 225.162 138.674 224.91C138.422 224.658 138.296 224.358 138.296 224.01C138.296 223.65 138.422 223.344 138.674 223.092C138.926 222.84 139.226 222.714 139.574 222.714C139.934 222.714 140.24 222.834 140.492 223.074C140.744 223.314 140.87 223.614 140.87 223.974Z" fill="white"/>
<path d="M229.758 297.434V299H222.414L225.186 295.49C226.506 293.858 227.28 292.838 227.508 292.43C227.748 292.01 227.868 291.668 227.868 291.404C227.88 291.332 227.886 291.26 227.886 291.188C227.886 290.708 227.724 290.282 227.4 289.91C227.088 289.538 226.674 289.352 226.158 289.352C225.642 289.352 225.234 289.562 224.934 289.982C224.646 290.402 224.502 290.912 224.502 291.512H222.558C222.558 290.432 222.876 289.544 223.512 288.848C224.16 288.14 225.036 287.786 226.14 287.786C227.136 287.786 227.976 288.122 228.66 288.794C229.344 289.466 229.686 290.306 229.686 291.314C229.686 292.262 228.96 293.582 227.508 295.274L225.654 297.434H229.758ZM238.467 293.546C238.467 295.13 238.119 296.486 237.423 297.614C236.727 298.73 235.767 299.288 234.543 299.288C233.331 299.288 232.377 298.724 231.681 297.596C230.985 296.468 230.637 295.118 230.637 293.546C230.637 291.914 230.985 290.546 231.681 289.442C232.389 288.338 233.349 287.786 234.561 287.786C235.773 287.786 236.727 288.35 237.423 289.478C238.119 290.594 238.467 291.95 238.467 293.546ZM232.437 293.528C232.437 294.632 232.629 295.61 233.013 296.462C233.397 297.302 233.919 297.722 234.579 297.722C235.239 297.722 235.749 297.326 236.109 296.534C236.481 295.742 236.667 294.74 236.667 293.528C236.667 292.412 236.475 291.44 236.091 290.612C235.707 289.772 235.191 289.352 234.543 289.352C233.907 289.352 233.397 289.79 233.013 290.666C232.629 291.53 232.437 292.484 232.437 293.528ZM246.492 297.434V299H239.148L241.92 295.49C243.24 293.858 244.014 292.838 244.242 292.43C244.482 292.01 244.602 291.668 244.602 291.404C244.614 291.332 244.62 291.26 244.62 291.188C244.62 290.708 244.458 290.282 244.134 289.91C243.822 289.538 243.408 289.352 242.892 289.352C242.376 289.352 241.968 289.562 241.668 289.982C241.38 290.402 241.236 290.912 241.236 291.512H239.292C239.292 290.432 239.61 289.544 240.246 288.848C240.894 288.14 241.77 287.786 242.874 287.786C243.87 287.786 244.71 288.122 245.394 288.794C246.078 289.466 246.42 290.306 246.42 291.314C246.42 292.262 245.694 293.582 244.242 295.274L242.388 297.434H246.492ZM255.202 293.546C255.202 295.13 254.854 296.486 254.158 297.614C253.462 298.73 252.502 299.288 251.278 299.288C250.066 299.288 249.112 298.724 248.416 297.596C247.72 296.468 247.372 295.118 247.372 293.546C247.372 291.914 247.72 290.546 248.416 289.442C249.124 288.338 250.084 287.786 251.296 287.786C252.508 287.786 253.462 288.35 254.158 289.478C254.854 290.594 255.202 291.95 255.202 293.546ZM249.172 293.528C249.172 294.632 249.364 295.61 249.748 296.462C250.132 297.302 250.654 297.722 251.314 297.722C251.974 297.722 252.484 297.326 252.844 296.534C253.216 295.742 253.402 294.74 253.402 293.528C253.402 292.412 253.21 291.44 252.826 290.612C252.442 289.772 251.926 289.352 251.278 289.352C250.642 289.352 250.132 289.79 249.748 290.666C249.364 291.53 249.172 292.484 249.172 293.528Z" fill="white"/>
</svg>
