<svg width="193" height="31" viewBox="0 0 193 31" fill="none" xmlns="http://www.w3.org/2000/svg">
<path d="M0.296875 30V1.19531H7.35156V14.0625H7.44531L15.7656 1.19531H23.5469L13.6562 14.8828L24.0625 30H16.2812L7.44531 16.0312H7.35156V30H0.296875ZM8.57031 14.9766L17.3828 28.6641H21.3203L11.9219 14.8359L20.7109 2.55469H16.9141L8.57031 14.9766ZM2.07812 28.6641H5.59375V2.55469H2.07812V28.6641ZM16.9141 3.30469L17.1016 3.07031H19.7031L19.5156 3.30469H16.9141ZM16.2812 4.26562L16.4688 4.03125H19.0234L18.8359 4.26562H16.2812ZM15.625 5.22656L15.8125 4.99219H18.3438L18.1562 5.22656H15.625ZM14.9922 6.1875L15.1797 5.95312H17.6875L17.4766 6.1875H14.9922ZM14.3594 7.10156L14.5703 6.86719H17.0078L16.8203 7.10156H14.3594ZM13.75 8.0625L13.9375 7.82812H16.3281L16.1406 8.0625H13.75ZM13.0703 9.02344L13.2578 8.78906H15.6719L15.4609 9.02344H13.0703ZM12.4375 9.98438L12.6484 9.75H14.9922L14.8047 9.98438H12.4375ZM11.7812 10.9453L11.9688 10.7109H14.3125L14.125 10.9453H11.7812ZM11.1484 11.9062L11.3359 11.6719H13.6562L13.4453 11.9062H11.1484ZM10.4688 12.8672L10.6797 12.6328H12.9766L12.7891 12.8672H10.4688ZM9.85938 13.8281L10.0469 13.5938H12.25L12.0625 13.8281H9.85938ZM9.17969 14.7891L9.36719 14.5547H11.4297L11.2422 14.7891H9.17969ZM9.67188 15.75L9.53125 15.5156H11.7344L11.9219 15.75H9.67188ZM10.2344 16.6641L10.1406 16.4531H12.3906L12.5547 16.6641H10.2344ZM10.8672 17.625L10.7266 17.3672H12.9766L13.1641 17.625H10.8672ZM11.4766 18.5859L11.3359 18.3281H13.6562L13.8438 18.5859H11.4766ZM12.1094 19.5469L11.9688 19.2891H14.2656L14.4531 19.5469H12.1094ZM12.7422 20.4844L12.6016 20.25H14.9453L15.1328 20.4844H12.7422ZM13.2109 21.2109H15.5781L15.7656 21.4453H13.3516L13.2109 21.2109ZM13.8438 22.1719H16.2344L16.4219 22.4062H13.9844L13.8438 22.1719ZM14.4062 23.1328H16.8672L17.0547 23.3672H14.5703L14.4062 23.1328ZM15.0391 24.0938H17.5469L17.7344 24.3281H15.1797L15.0391 24.0938ZM15.6719 25.0547H18.1562L18.3906 25.2891H15.8125L15.6719 25.0547ZM16.2812 26.0156H18.8359L19.0703 26.25H16.4219L16.2812 26.0156ZM16.8672 26.9297H19.5156L19.7031 27.1641H17.0078L16.8672 26.9297ZM17.4766 27.8906H20.125L20.3594 28.125H17.6406L17.4766 27.8906ZM26.7812 30V1.19531H45.8359V7.42969H33.8359V12.6328H44.9219V18.7734H33.8359V23.9531H46.375V30H26.7812ZM28.5625 28.6641H44.5938V25.2891H32.0781V17.4141H43.1641V13.9688H32.0781V6.09375H44.0781V2.55469H28.5625V28.6641ZM29.4766 3.44531L29.2422 3.21094H43.5859V3.44531H29.4766ZM30.4375 4.40625L30.2031 4.17188H43.5859V4.40625H30.4375ZM31.3984 5.36719L31.1641 5.13281H43.5859V5.36719H31.3984ZM32.0781 14.8359V14.6016H42.6719V14.8359H32.0781ZM32.0781 15.7969V15.5625H42.6719V15.7969H32.0781ZM32.0781 16.7578V16.5234H42.6719V16.7578H32.0781ZM31.1641 26.1562L31.4453 25.9219H44.125V26.1562H31.1641ZM30.2031 27.1172L30.4375 26.8828H44.125V27.1172H30.2031ZM29.1953 28.0781L29.4297 27.8438H44.125V28.0781H29.1953ZM49.75 30V1.19531H68.3359V7.42969H56.8047V13.5938H67.4219V19.7344H56.8047V30H49.75ZM51.5312 28.6641H55.0469V18.375H65.6406V14.9297H55.0469V6.09375H66.5547V2.55469H51.5312V28.6641ZM52.4453 3.44531L52.2109 3.21094H66.0859V3.44531H52.4453ZM53.4062 4.40625L53.1719 4.17188H66.0859V4.40625H53.4062ZM54.3672 5.36719L54.1328 5.13281H66.0859V5.36719H54.3672ZM55.0469 15.7969V15.5625H65.1719V15.7969H55.0469ZM55.0469 16.7578V16.5234H65.1719V16.7578H55.0469ZM55.0469 17.7188V17.4609H65.1719V17.7188H55.0469ZM66.8359 30L80.8516 0.234375H82.0938L96.2031 30H88.6328L87.1797 27.0234H75.8125L74.4062 30H66.8359ZM69.3203 28.6641H73.1172L81.1797 11.2734H81.8594L89.8281 28.6641H93.7188L81.4609 2.83594L69.3203 28.6641ZM81.3672 4.07812L81.4609 3.89062L81.5781 4.07812H81.3672ZM80.9922 4.94531L81.0859 4.71094H81.7656L81.9062 4.94531H80.9922ZM80.5 5.90625L80.6641 5.67188H82.2344L82.3281 5.90625H80.5ZM80.0781 6.86719L80.1719 6.63281H82.6797L82.8203 6.86719H80.0781ZM79.6094 7.82812L79.75 7.59375H83.1484L83.2422 7.82812H79.6094ZM79.1641 8.78906L79.2578 8.55469H83.5938L83.7344 8.78906H79.1641ZM78.7422 9.75L78.8359 9.51562H84.0625L84.1562 9.75H78.7422ZM78.25 10.7109L78.3906 10.4531H84.4844L84.6484 10.7109H78.25ZM82.6328 11.6719L82.4688 11.4141H84.9766L85.0703 11.6719H82.6328ZM77.8281 11.6719L77.9219 11.4141H80.5L80.3594 11.6719H77.8281ZM83.0547 12.6328L82.9141 12.375H85.3984L85.5391 12.6328H83.0547ZM77.3359 12.6328L77.4766 12.375H80.0781L79.9375 12.6328H77.3359ZM83.4766 13.5938L83.3359 13.3359H85.8906L85.9844 13.5938H83.4766ZM76.9141 13.5938L77.0078 13.3359H79.6094L79.4453 13.5938H76.9141ZM83.9219 14.5547L83.7812 14.2969H86.3125L86.4531 14.5547H83.9219ZM76.4219 14.5547L76.5859 14.2969H79.1641L79.0234 14.5547H76.4219ZM78.0625 21.9375H84.7422L81.4609 14.6953H81.3672L78.0625 21.9375ZM84.3438 15.5156L84.2031 15.2578H86.8047L86.8984 15.5156H84.3438ZM76 15.5156L76.0938 15.2578H78.6953L78.5312 15.5156H76ZM84.7891 16.4531L84.6484 16.2188H87.2266L87.3672 16.4531H84.7891ZM75.5078 16.4531L75.6719 16.2188H78.25L78.1094 16.4531H75.5078ZM85.2109 17.4141L85.0703 17.1797H87.7188L87.8125 17.4141H85.2109ZM75.0859 17.4141L75.1797 17.1797H77.7812L77.6406 17.4141H75.0859ZM85.6562 18.375L85.4922 18.1406H88.1406L88.2812 18.375H85.6562ZM74.6641 18.375L74.7578 18.1406H77.3359L77.1953 18.375H74.6641ZM85.9375 19.1016H88.6328L88.7266 19.3359H86.0781L85.9375 19.1016ZM74.1719 19.3359L74.3125 19.1016H76.9141L76.7734 19.3359H74.1719ZM86.3125 20.0625H89.0547L89.1953 20.2969H86.4531L86.3125 20.0625ZM73.75 20.2969L73.8438 20.0625H76.4219L76.2812 20.2969H73.75ZM86.7578 21.0234H89.5234L89.6406 21.2578H86.8984L86.7578 21.0234ZM73.2578 21.2578L73.3984 21.0234H76L75.8594 21.2578H73.2578ZM87.1797 21.9844H89.9688L90.1094 22.2188H87.3203L87.1797 21.9844ZM72.8359 22.2188L72.9297 21.9844H75.5781L75.4141 22.2188H72.8359ZM87.5781 22.9453H90.4375L90.5312 23.1797H87.7188L87.5781 22.9453ZM72.3438 23.1797L72.4844 22.9453H75.1328L74.9922 23.1797H72.3438ZM76.3281 25.7344H86.6172L85.4922 23.3203H77.3828L76.3281 25.7344ZM77.8281 24.1406L77.9219 23.9062H84.8828L85.0234 24.1406H77.8281ZM77.3828 25.1016L77.4766 24.8672H85.2578L85.3516 25.1016H77.3828ZM99.25 30V1.19531H106.703L117.883 18.2812V1.19531H124.891V30H117.555L106.305 12.9141V30H99.25ZM101.031 28.6641H104.547V8.34375H105.25L118.656 28.6641H123.109V2.55469H119.664V22.6172H118.797L105.602 2.55469H101.031V28.6641ZM102.414 3.30469L102.273 3.07031H105.297L105.508 3.30469H102.414ZM103.094 4.26562L102.953 4.03125H105.93L106.117 4.26562H103.094ZM103.727 5.22656L103.586 4.99219H106.562L106.75 5.22656H103.727ZM104.383 6.1875L104.242 5.95312H107.172L107.359 6.1875H104.383ZM105.016 7.14844L104.875 6.91406H107.805L107.992 7.14844H105.016ZM105.695 8.10938L105.555 7.875H108.414L108.625 8.10938H105.695ZM106.305 9.07031L106.164 8.83594H109.094L109.281 9.07031H106.305ZM106.938 10.0312L106.797 9.79688H109.727L109.914 10.0312H106.938ZM107.617 10.9922L107.477 10.7578H110.336L110.547 10.9922H107.617ZM108.227 11.9531L108.086 11.7188H110.969L111.156 11.9531H108.227ZM108.859 12.9141L108.719 12.6797H111.602L111.789 12.9141H108.859ZM109.492 13.875L109.328 13.6406H112.258L112.469 13.875H109.492ZM110.102 14.8359L109.961 14.6016H112.891L113.078 14.8359H110.102ZM110.734 15.7969L110.594 15.5625H113.523L113.711 15.7969H110.734ZM111.391 16.7578L111.25 16.5234H114.133L114.32 16.7578H111.391ZM112.023 17.7188L111.883 17.4609H114.766L114.953 17.7188H112.023ZM112.656 18.6797L112.516 18.4219H115.375L115.586 18.6797H112.656ZM113.266 19.6406L113.125 19.3828H116.055L116.242 19.6406H113.266ZM113.758 20.3438H116.688L116.875 20.6016H113.898L113.758 20.3438ZM114.414 21.3047H117.297L117.508 21.5625H114.578L114.414 21.3047ZM115.047 22.2656H117.93L118.117 22.5234H115.188L115.047 22.2656ZM115.68 23.2266H118.656L118.844 23.4609H115.82L115.68 23.2266ZM116.289 24.1875H119.312L119.57 24.4219H116.43L116.289 24.1875ZM116.922 25.1484H120.039L120.273 25.3828H117.062L116.922 25.1484ZM117.555 26.1094H120.766L120.953 26.3438H117.695L117.555 26.1094ZM118.211 27.0703H121.492L121.727 27.3047H118.352L118.211 27.0703ZM118.75 27.9375H122.148L122.383 28.1719H118.891L118.75 27.9375ZM139.305 30L149.008 15.0234L139.727 1.19531H147.953L153.367 9.79688L158.5 1.19531H166.609L157.258 15.4453L167.102 30H159.039L153.086 20.9297L147.367 30H139.305ZM142.094 28.6641H146.266L152.828 18.5859H153.414L160.141 28.6641H164.266L155.289 15.5156L163.82 2.55469H159.555L153.602 12.4219H153.133L146.828 2.55469H142.609L150.977 14.9766L142.094 28.6641ZM143.711 3.30469L143.57 3.07031H146.5L146.641 3.30469H143.711ZM144.344 4.26562L144.203 4.03125H147.086L147.273 4.26562H144.344ZM145.023 5.22656L144.859 4.99219H147.695L147.836 5.22656H145.023ZM145.633 6.1875L145.492 5.95312H148.281L148.469 6.1875H145.633ZM146.266 7.10156L146.125 6.86719H148.844L149.055 7.10156H146.266ZM146.875 8.0625L146.734 7.82812H149.477L149.664 8.0625H146.875ZM147.555 9.02344L147.414 8.78906H150.109L150.297 9.02344H147.555ZM148.188 9.98438L148.047 9.75H150.719L150.859 9.98438H148.188ZM148.844 10.9453L148.703 10.7109H151.305L151.492 10.9453H148.844ZM149.477 11.9062L149.336 11.6719H151.914L152.125 11.9062H149.477ZM150.109 12.8672L149.969 12.6328H152.547L152.734 12.8672H150.109ZM150.766 13.8281L150.625 13.5938H153.18L153.367 13.8281H150.766ZM151.398 14.7891L151.258 14.5547H153.789L153.953 14.7891H151.398ZM151.07 15.75L151.258 15.5156H154.234L154.047 15.75H151.07ZM150.484 16.6641L150.578 16.4531H153.602L153.508 16.6641H150.484ZM149.805 17.625L150.016 17.3672H152.992L152.781 17.625H149.805ZM149.195 18.5859L149.383 18.3281H152.359L152.172 18.5859H149.195ZM148.562 19.5469L148.75 19.2891H151.727L151.539 19.5469H148.562ZM147.953 20.4844L148.141 20.25H151.117L150.906 20.4844H147.953ZM147.32 21.4453L147.508 21.2109H150.484L150.297 21.4453H147.32ZM146.688 22.4062L146.875 22.1719H149.852L149.664 22.4062H146.688ZM146.078 23.3672L146.266 23.1328H149.242L149.055 23.3672H146.078ZM145.445 24.3281L145.633 24.0938H148.609L148.422 24.3281H145.445ZM144.812 25.2891L145.023 25.0547H148L147.789 25.2891H144.812ZM144.203 26.25L144.391 26.0156H147.367L147.18 26.25H144.203ZM143.617 27.1641L143.805 26.9297H146.781L146.594 27.1641H143.617ZM143.008 28.125L143.195 27.8906H146.172L145.984 28.125H143.008ZM169.797 20.2969V1.19531H176.805V19.2422C176.805 22.6953 178.234 24.4219 181.094 24.4219C184 24.4219 185.453 22.6953 185.453 19.2422V1.19531H192.508V20.2969C192.508 23.5938 191.43 26.1953 189.273 28.1016C187.117 30.0078 184.391 30.9609 181.094 30.9609C177.766 30.9609 175.047 30 172.938 28.0781C170.844 26.1562 169.797 23.5625 169.797 20.2969ZM171.578 20.2969C171.578 23.1406 172.453 25.4062 174.203 27.0938C175.969 28.7812 178.266 29.625 181.094 29.625C183.844 29.625 186.133 28.7969 187.961 27.1406C189.805 25.4688 190.727 23.1875 190.727 20.2969V2.55469H187.234V19.2422C187.234 21.5859 186.703 23.2656 185.641 24.2812C184.594 25.2812 183.078 25.7812 181.094 25.7812C177.062 25.7812 175.047 23.6016 175.047 19.2422V2.55469H171.578V20.2969ZM187.703 13.4297V13.1953H190.258V13.4297H187.703ZM172.07 13.4297V13.1953H174.555V13.4297H172.07ZM187.703 14.3906V14.1562H190.258V14.3906H187.703ZM172.07 14.3906V14.1562H174.555V14.3906H172.07ZM187.703 15.3516V15.1172H190.258V15.3516H187.703ZM172.07 15.3516V15.1172H174.555V15.3516H172.07ZM187.703 16.3125V16.0781H190.258V16.3125H187.703ZM172.07 16.3125V16.0781H174.555V16.3125H172.07ZM187.703 17.2734V17.0391H190.258V17.2734H187.703ZM172.07 17.2734V17.0391H174.555V17.2734H172.07ZM187.703 18.2344V18H190.258V18.2344H187.703ZM172.07 18.2344V18H174.555V18.2344H172.07ZM187.703 19.1953V18.9609H190.258V19.1953H187.703ZM172.07 19.1953V18.9609H174.555V19.1953H172.07ZM187.656 20.1562V19.9219H190.258V20.1562H187.656ZM172.07 20.1562V19.9219H174.555L174.602 20.1562H172.07ZM187.562 21.1172L187.609 20.8828H190.258L190.211 21.1172H187.562ZM172.07 21.1172V20.8828H174.602L174.695 21.1172H172.07ZM187.375 22.0781L187.469 21.8438H190.164L190.07 22.0781H187.375ZM172.211 22.0781L172.164 21.8438H174.789L174.883 22.0781H172.211ZM187.047 23.0391L187.141 22.8047H189.953L189.859 23.0391H187.047ZM172.398 23.0391L172.352 22.8047H175.141L175.234 23.0391H172.398ZM186.508 24L186.695 23.7656H189.625L189.531 24H186.508ZM172.68 24L172.633 23.7656H175.562L175.797 24H172.68ZM185.688 24.9609L185.922 24.7266H189.156L189.062 24.9609H185.688ZM173.219 24.9609L173.078 24.7266H176.383L176.664 24.9609H173.219ZM183.906 25.9219L184.539 25.6875H188.57L188.383 25.9219H183.906ZM173.641 25.6875H177.812L178.398 25.9219H173.828L173.641 25.6875ZM174.508 26.6484H187.75L187.469 26.8828H174.742L174.508 26.6484ZM175.75 27.6094H186.461L186.086 27.8438H176.102L175.75 27.6094ZM177.625 28.5703H184.539L183.625 28.8047H178.492L177.625 28.5703Z" fill="black"/>
</svg>
