<svg width="79" height="13" viewBox="0 0 79 13" fill="none" xmlns="http://www.w3.org/2000/svg">
<path d="M0.861328 12V1.19824H5.37891C6.44531 1.19824 7.29785 1.53809 7.93652 2.21777C8.5752 2.89746 8.89453 3.70898 8.89453 4.65234C8.89453 5.66016 8.56055 6.48926 7.89258 7.13965C7.22461 7.79004 6.38672 8.11523 5.37891 8.11523H3.48926V12H0.861328ZM3.48926 5.84766H5.13281C5.45508 5.84766 5.71289 5.72168 5.90625 5.46973C6.09961 5.21777 6.19629 4.92188 6.19629 4.58203C6.19629 4.27148 6.10254 4.00488 5.91504 3.78223C5.72754 3.55957 5.4668 3.44824 5.13281 3.44824H3.48926V5.84766ZM10.582 12V1.19824H15.0996C16.2539 1.19824 17.1826 1.51758 17.8857 2.15625C18.5889 2.78906 18.9404 3.61523 18.9404 4.63477C18.9404 6.44531 18.0879 7.56152 16.3828 7.9834L19.3008 12H15.9873L13.2275 7.96582V12H10.582ZM13.2275 5.88281H15.3545C15.6416 5.88281 15.8789 5.75684 16.0664 5.50488C16.2539 5.25293 16.3477 4.96582 16.3477 4.64355C16.3477 4.31543 16.2422 4.03418 16.0312 3.7998C15.8203 3.56543 15.5713 3.44824 15.2842 3.44824H13.2275V5.88281ZM21.9814 10.708C20.8916 9.60059 20.3467 8.23242 20.3467 6.60352C20.3467 4.96875 20.8916 3.60059 21.9814 2.49902C23.0713 1.3916 24.4629 0.837891 26.1562 0.837891C27.8379 0.837891 29.2266 1.3916 30.3223 2.49902C31.4238 3.60059 31.9746 4.96875 31.9746 6.60352C31.9746 8.23242 31.4238 9.60059 30.3223 10.708C29.2266 11.8096 27.8379 12.3604 26.1562 12.3604C24.4629 12.3604 23.0713 11.8096 21.9814 10.708ZM23.8799 4.27441C23.3115 4.88965 23.0273 5.66602 23.0273 6.60352C23.0273 7.53516 23.3115 8.31152 23.8799 8.93262C24.4482 9.54785 25.207 9.85547 26.1562 9.85547C27.0938 9.85547 27.8496 9.54492 28.4238 8.92383C28.998 8.29688 29.2852 7.52344 29.2852 6.60352C29.2852 5.67773 28.998 4.9043 28.4238 4.2832C27.8496 3.65625 27.0938 3.34277 26.1562 3.34277C25.207 3.34277 24.4482 3.65332 23.8799 4.27441ZM32.7568 8.73926L35.3145 8.65137C35.3848 9.07324 35.5166 9.38965 35.71 9.60059C35.9033 9.80566 36.1963 9.9082 36.5889 9.9082C37.0459 9.9082 37.3945 9.78516 37.6348 9.53906C37.875 9.29297 37.9951 8.85938 37.9951 8.23828V1.19824H40.6055V8.7041C40.6055 9.80566 40.2305 10.6904 39.4805 11.3584C38.7305 12.0264 37.8105 12.3604 36.7207 12.3604C35.5664 12.3604 34.6172 12.0322 33.873 11.376C33.1289 10.7197 32.7568 9.84082 32.7568 8.73926ZM42.3281 12V1.19824H49.4736V3.53613H44.9736V5.4873H49.1309V7.79004H44.9736V9.73242H49.6758V12H42.3281ZM52.708 10.708C51.6064 9.60059 51.0557 8.23242 51.0557 6.60352C51.0557 4.96875 51.6064 3.60059 52.708 2.49902C53.8096 1.3916 55.207 0.837891 56.9004 0.837891C58.7227 0.837891 60.2666 1.5 61.5322 2.82422L59.7129 4.54688C58.8867 3.74414 57.9492 3.34277 56.9004 3.34277C55.9512 3.34277 55.1865 3.65625 54.6064 4.2832C54.0264 4.9043 53.7363 5.67773 53.7363 6.60352C53.7363 7.52344 54.0264 8.29688 54.6064 8.92383C55.1865 9.54492 55.9512 9.85547 56.9004 9.85547C57.9434 9.85547 58.8809 9.4541 59.7129 8.65137L61.4707 10.3828C60.2109 11.7012 58.6875 12.3604 56.9004 12.3604C55.207 12.3604 53.8096 11.8096 52.708 10.708ZM64.7139 12V3.53613H62.3057V1.19824H69.8291V3.53613H67.377V12H64.7139ZM70.8223 8.83594H73.3975C73.3975 9.14648 73.5059 9.41309 73.7227 9.63574C73.9395 9.8584 74.2031 9.96973 74.5137 9.96973C74.8477 9.96973 75.1113 9.88184 75.3047 9.70605C75.498 9.53027 75.5947 9.30469 75.5947 9.0293C75.5947 8.92383 75.5771 8.82422 75.542 8.73047C75.5068 8.63086 75.4453 8.54297 75.3574 8.4668C75.2754 8.38477 75.1934 8.31445 75.1113 8.25586C75.0352 8.19727 74.9209 8.13867 74.7686 8.08008C74.6221 8.01562 74.5049 7.96875 74.417 7.93945C74.335 7.91016 74.2031 7.86621 74.0215 7.80762C73.8457 7.74902 73.7227 7.70508 73.6523 7.67578C72.6797 7.33008 71.9648 6.9082 71.5078 6.41016C71.0508 5.91211 70.8223 5.2207 70.8223 4.33594C70.8223 3.375 71.1826 2.55176 71.9033 1.86621C72.624 1.18066 73.4883 0.837891 74.4961 0.837891C75.6387 0.837891 76.5176 1.16309 77.1328 1.81348C77.748 2.45801 78.0938 3.31055 78.1699 4.37109H75.6826C75.6826 4.04883 75.5859 3.78223 75.3926 3.57129C75.2051 3.36035 74.9297 3.25488 74.5664 3.25488C74.2559 3.25488 73.9893 3.3457 73.7666 3.52734C73.5439 3.70312 73.4326 3.95801 73.4326 4.29199C73.4326 4.39746 73.4502 4.5 73.4854 4.59961C73.5205 4.69922 73.5762 4.78418 73.6523 4.85449C73.7344 4.9248 73.8105 4.98633 73.8809 5.03906C73.957 5.08594 74.0654 5.13281 74.2061 5.17969C74.3525 5.22656 74.4697 5.26465 74.5576 5.29395C74.6455 5.32324 74.7773 5.36426 74.9531 5.41699C75.1289 5.46387 75.2578 5.49902 75.3398 5.52246C77.2266 6.08496 78.1699 7.20117 78.1699 8.87109C78.1699 9.83203 77.8125 10.6553 77.0977 11.3408C76.3828 12.0205 75.5215 12.3604 74.5137 12.3604C73.3711 12.3604 72.4688 12.0264 71.8066 11.3584C71.1504 10.6846 70.8223 9.84375 70.8223 8.83594Z" fill="black"/>
</svg>
