<svg width="154" height="25" viewBox="0 0 154 25" fill="none" xmlns="http://www.w3.org/2000/svg">
<path d="M10.544 24.192C8.60267 24.192 6.87467 23.8187 5.36 23.072C3.86667 22.304 2.69333 21.2587 1.84 19.936C0.986667 18.6133 0.56 17.0987 0.56 15.392V1.6H7.536V15.104C7.536 15.7227 7.664 16.2773 7.92 16.768C8.176 17.2373 8.528 17.6107 8.976 17.888C9.44533 18.1653 9.968 18.304 10.544 18.304C11.1627 18.304 11.7067 18.1653 12.176 17.888C12.6453 17.6107 13.0187 17.2373 13.296 16.768C13.5733 16.2773 13.712 15.7227 13.712 15.104V1.6H20.528V15.392C20.528 17.0987 20.1013 18.6133 19.248 19.936C18.3947 21.2587 17.2107 22.304 15.696 23.072C14.2027 23.8187 12.4853 24.192 10.544 24.192ZM25.6538 24V1.6H35.7338C37.2698 1.6 38.6351 1.93067 39.8298 2.592C41.0244 3.25333 41.9631 4.16 42.6458 5.312C43.3284 6.464 43.6698 7.78667 43.6698 9.28C43.6698 10.8373 43.3284 12.224 42.6458 13.44C41.9631 14.656 41.0244 15.616 39.8298 16.32C38.6351 17.0027 37.2698 17.344 35.7338 17.344H32.5658V24H25.6538ZM32.4378 11.456H34.4538C34.8591 11.456 35.2218 11.3813 35.5418 11.232C35.8618 11.0613 36.1071 10.8267 36.2778 10.528C36.4698 10.2293 36.5658 9.856 36.5658 9.408C36.5658 8.96 36.4698 8.59733 36.2778 8.32C36.1071 8.04267 35.8618 7.84 35.5418 7.712C35.2218 7.56267 34.8591 7.488 34.4538 7.488H32.4378V11.456ZM47.4975 24V1.6H57.3535C59.0388 1.6 60.5855 1.87733 61.9935 2.432C63.4015 2.98667 64.6282 3.76533 65.6735 4.768C66.7188 5.74933 67.5188 6.92267 68.0735 8.288C68.6495 9.65333 68.9375 11.1573 68.9375 12.8C68.9375 14.4213 68.6495 15.9253 68.0735 17.312C67.5188 18.6773 66.7188 19.8613 65.6735 20.864C64.6282 21.8453 63.4015 22.6133 61.9935 23.168C60.5855 23.7227 59.0388 24 57.3535 24H47.4975ZM54.4095 19.744L53.2255 18.112H57.1935C57.8975 18.112 58.5375 17.984 59.1135 17.728C59.6895 17.4507 60.1908 17.0773 60.6175 16.608C61.0442 16.1387 61.3748 15.584 61.6095 14.944C61.8442 14.2827 61.9615 13.568 61.9615 12.8C61.9615 12.032 61.8442 11.328 61.6095 10.688C61.3748 10.0267 61.0442 9.46133 60.6175 8.992C60.1908 8.52267 59.6895 8.16 59.1135 7.904C58.5375 7.62667 57.8975 7.488 57.1935 7.488H53.1295L54.4095 5.92V19.744ZM68.9537 24L77.9458 1.6H83.3858L92.3138 24H85.4658L81.8818 14.208C81.6471 13.5467 81.4444 12.9813 81.2738 12.512C81.1031 12.0427 80.9538 11.6053 80.8258 11.2C80.6978 10.7733 80.5698 10.3253 80.4418 9.856C80.3138 9.36533 80.1858 8.78933 80.0578 8.128H81.1458C81.0178 8.78933 80.8898 9.36533 80.7618 9.856C80.6338 10.3253 80.4951 10.7733 80.3458 11.2C80.2178 11.6053 80.0578 12.0427 79.8658 12.512C79.6951 12.9813 79.4924 13.5467 79.2578 14.208L75.6738 24H68.9537ZM73.4338 20.672L75.4498 15.968H85.8498L87.6737 20.672H73.4338ZM97.9658 24V7.488H91.0538V1.6H111.982V7.488H104.878V24H97.9658ZM115.498 24V1.6H132.234V7.2H122.122V18.4H132.81V24H115.498ZM118.794 15.296V10.048H131.05V15.296H118.794ZM144.713 24.32C143.027 24.32 141.534 24.1387 140.233 23.776C138.953 23.392 137.822 22.8587 136.841 22.176C135.881 21.4933 135.017 20.6933 134.248 19.776L138.249 15.296C139.315 16.6613 140.425 17.568 141.577 18.016C142.75 18.4427 143.849 18.656 144.873 18.656C145.278 18.656 145.641 18.624 145.961 18.56C146.281 18.4747 146.526 18.3467 146.697 18.176C146.867 18.0053 146.953 17.7707 146.953 17.472C146.953 17.1947 146.857 16.96 146.665 16.768C146.494 16.576 146.259 16.416 145.961 16.288C145.662 16.1387 145.331 16.0213 144.969 15.936C144.627 15.8293 144.286 15.744 143.945 15.68C143.625 15.616 143.337 15.552 143.081 15.488C141.801 15.1893 140.681 14.8267 139.721 14.4C138.761 13.9733 137.961 13.4613 137.321 12.864C136.681 12.2667 136.201 11.584 135.881 10.816C135.582 10.048 135.433 9.184 135.433 8.224C135.433 7.136 135.678 6.144 136.169 5.248C136.681 4.352 137.353 3.584 138.185 2.944C139.038 2.304 139.998 1.81333 141.065 1.472C142.153 1.13067 143.273 0.959999 144.425 0.959999C146.11 0.959999 147.518 1.12 148.649 1.44C149.779 1.73867 150.729 2.176 151.497 2.752C152.265 3.328 152.926 4 153.481 4.768L149.449 8.64C148.979 8.192 148.489 7.82933 147.977 7.552C147.465 7.25333 146.931 7.04 146.377 6.912C145.843 6.76267 145.31 6.688 144.777 6.688C144.286 6.688 143.87 6.73067 143.529 6.816C143.187 6.88 142.921 6.99733 142.729 7.168C142.537 7.31733 142.441 7.53067 142.441 7.808C142.441 8.08533 142.558 8.32 142.793 8.512C143.049 8.68267 143.358 8.832 143.72 8.96C144.105 9.088 144.478 9.19467 144.841 9.28C145.225 9.344 145.545 9.39733 145.801 9.44C146.974 9.65333 148.051 9.952 149.033 10.336C150.014 10.6987 150.867 11.168 151.593 11.744C152.339 12.2987 152.905 13.0027 153.289 13.856C153.694 14.688 153.897 15.68 153.897 16.832C153.897 18.4747 153.481 19.8507 152.649 20.96C151.838 22.0693 150.739 22.912 149.353 23.488C147.966 24.0427 146.419 24.32 144.713 24.32Z" fill="#5C5C5C"/>
</svg>
